<?xml version="1.0" encoding="utf-8"?>
<!-- Generator: Adobe Illustrator 18.0.0, SVG Export Plug-In . SVG Version: 6.00 Build 0)  -->
<!DOCTYPE svg PUBLIC "-//W3C//DTD SVG 1.1//EN" "http://www.w3.org/Graphics/SVG/1.1/DTD/svg11.dtd">
<svg version="1.1" id="Layer_1" xmlns="http://www.w3.org/2000/svg" xmlns:xlink="http://www.w3.org/1999/xlink" x="0px" y="0px"
	 viewBox="0 0 1000 1000" enable-background="new 0 0 1000 1000" xml:space="preserve">
<g>
	<g>
		<g>
			<path fill="#567570" d="M353.8,933.9c10.5-47.7,19.8-95.9,23.8-144.6c2-23.7,2.1-47.1,0.6-70.4c-1.5-23.2-4.6-46.4-9.1-69.6
				c-4.4-23.1-8.6-46.4-7.4-70c1.3-26,12.1-50,18.3-74.9c11.1-46.2,7.8-94.2,14.5-140.9c1.6-11.2,4-22.2,7.3-32.9
				c3.2-10.8,7.4-21.2,12.6-31.3c10.8-20.7,25.7-39.1,41.1-56.6c14.3-16.2,28.6-32.5,43.1-48.6c15.5-17,32.2-30.2,53.8-38.5
				c18.3-7,37.9-11.2,56.7-16.6c22.8-6.5,45.3-13.8,67.9-21.3c18.3-6.1,37-11.5,52.4-23.8c7.8-6.3,14.7-13.8,22.5-20.2
				c6.9-5.7,6.2-0.9,7.2,5.3c1,5.6,1.9,11.2,3.2,16.8c0.3,1.3,2.2,0.8,2-0.5c-1.6-8.9-1.4-19.8-5.5-28c-0.3-0.6-1.2-0.9-1.8-0.5
				c-8.5,5.7-15.8,12.8-23.2,19.8c-10.4,9.7-21.6,16-34.8,20.8c-23.9,8.8-48.4,16.4-72.7,23.8c-22.3,6.8-45.1,12.1-67.3,19.3
				c-20,6.5-36.9,16.4-52,31c-17.7,17-33,36.6-49.5,54.7c-16,17.5-31,35.8-43.1,56.2c-11.9,20.3-18.2,42.4-22.1,65.1
				c-3.8,22.7-5,46.1-6.3,69c-1.1,21.2-2.7,42.3-6.2,63.3c-3.8,22.8-12.7,44.1-17.9,66.5c-9.3,39.3,2.1,79.2,8.9,118.1
				c15.2,86.7-2.4,173.8-18.6,259.4C352,934.8,353.6,934.9,353.8,933.9z"/>
		</g>
	</g>
	<g>
		<g>
			<path fill="#567570" d="M378.6,505.9c10.8-18,24.7-32.9,40.1-46.1c15.4-13.3,32.3-25,49.4-36.7c16.2-11,32.2-22.3,47.1-35.1
				c16.3-13.9,29.6-30.3,41.8-48c14-20.3,26.6-41.6,44-59.4c14.2-14.6,31.1-26.3,48.3-37.2c31.4-20.1,66.3-38.3,89.8-68.6
				c11.7-15.2,20-33.1,23.7-51.9c3.7-18.8,3-38.3-3.2-56.7c-0.5-1.6-2.9-1-2.5,0.7c6.1,23.8,6.3,47.6-1.5,71.3
				c-6.9,20.8-20.4,38.5-36.3,53.1c-14.6,13.4-31,24.4-47.7,34.9c-16.7,10.5-33.8,20.6-49.4,32.3c-16.7,12.5-30.8,27.3-43.1,44.2
				c-14.6,20.1-27,41.8-43,60.9c-26.4,31.2-62.6,51.9-95.4,75.3c-24.8,17.8-49.5,38.4-63.6,65.9C376.6,505.9,378,506.9,378.6,505.9z
				"/>
		</g>
	</g>
	<g>
		<g>
			<path fill="#567570" d="M382.8,498.6c30.1-37.6,48-81.4,63.6-126.5c16.6-47.6,58.2-84.9,96.6-116
				c66.8-54.2,146.2-96.5,200.5-166.3c5.3-6.9,10.4-13.9,15.2-21.3c0.9-1.3-1.2-2.6-2.1-1.3c-49.9,75.4-129.5,120.8-199,173.8
				c-36.8,28.1-73.8,60.3-99,99.4c-13.6,21.1-18.6,46-27.9,69c-9.2,22.7-20.4,44.7-33.5,65.4c-4.9,7.8-10.2,15.4-15.6,22.8
				C380.9,498.5,382.2,499.3,382.8,498.6z"/>
		</g>
	</g>
	<g>
		<g>
			<path fill="#567570" d="M371.7,668.3c-1.2-16.9-7.5-33.1-13.7-48.6c-7.5-18.6-16-36.8-22.9-55.6c-7-19-10.2-37.9-9.1-58.1
				c1.2-21.3,6-42.2,9.6-63.2c3.3-19.2,4.9-38.7,2-58c-3-20.4-12.6-39.4-18.6-59.1c-6-19.6-6.5-39.1,0.9-58.2
				c7.5-19.2,22.8-34.9,41.4-43.9c1.5-0.7,0.3-2.9-1.2-2.2c-32.7,14.9-51.9,49.8-48.1,85.1c2.2,21.2,12.4,41.1,18.8,61.3
				c6.9,22,6.5,44.4,3.4,67c-2.9,20.4-7.3,40.6-9.3,60.7c-2.1,20.1-1.8,40.2,4.8,60.7c12.1,37.9,34.1,72.5,41.1,112.2
				C370.8,669.2,371.7,669,371.7,668.3z"/>
		</g>
	</g>
	<g>
		<g>
			<path fill="#567570" d="M335.6,568.7c-8.4-16.2-17.1-32.6-29-46.6c-10.2-12.1-23.9-18.9-37-27.4c-13.7-9-27.1-20.5-30.8-37
				c-2.3-10.3,1.2-20.9,3.4-30.8c2.1-9.6,3-19.5,3.6-29.3c1.2-20.4,0.6-40.7,3.5-60.9c3-20.9,10.3-41.1,21.4-59.1
				c10.6-17.3,25.6-30.4,42.9-39.6c17.3-9.2,37-14.3,57.1-15.6c1.4-0.1,1.4-2,0-2.1c-17.8-1.8-36.2,4.4-52.1,11.7
				c-16.5,7.6-31.1,18.7-42.5,32.6c-27.5,33.8-31.7,76.4-32.8,118.2c-0.3,10.7-0.8,21.4-2.1,32c-1.4,11.2-5.1,22-6.1,33.3
				c-1.2,15.1,7.6,28.1,18.4,38c12.4,11.3,28.1,17.7,41,28.1c17.8,14.2,28.2,36,39.7,55C334.8,570.1,336,569.5,335.6,568.7z"/>
		</g>
	</g>
	<g>
		<g>
			<path fill="#567570" d="M317.1,321.9c-0.7-11.5,10.7-22.8,17.3-31.4c7.3-9.5,15.4-18.4,23.7-27.1c16.8-17.3,35.6-32.7,55.8-46.1
				c1.1-0.7,0.5-2.2-0.8-2.1c-19.7,2.4-39.7,4-59.3,7.2c-1.1,0.2-0.9,2,0.2,2c19.9-1.5,39.8-4.6,59.6-7l-0.8-2.1
				c-22,14.6-42,31.5-60.1,50.5c-8.4,8.8-16.2,18.2-23.5,27.9c-6,8-14.9,17.5-13.1,28.2C316.3,322.4,317.1,322.4,317.1,321.9z"/>
		</g>
	</g>
	<g>
		<g>
			<path fill="#567570" d="M329.8,553.6c-14.6-30.8-26-62.8-33.7-95.8c-3.6-15.7-6.1-31.5-7.5-47.5c-1-11.5-0.4-23-0.9-34.4
				c-2.1-42.6-14.2-93.2,12.9-130.4c0.9-1.2-1-2.3-1.9-1.2c-15.2,18.2-17.4,44.3-17.9,67.1c-0.4,21.6,2.9,42.9,4.2,64.4
				c0.7,11.5,0,22.9,1,34.4c1.2,15.3,3.7,30.5,7.1,45.5c7.6,34,20,67.1,35.8,98.4C329.1,554.7,330.1,554.2,329.8,553.6z"/>
		</g>
	</g>
	<g>
		<g>
			<path fill="#567570" d="M328,251.2c10.7-6.1,20.3-13,31.9-17.6c16.6-6.6,34.4-8.7,51.3-14.1c1.1-0.4,0.7-1.9-0.4-1.8
				c-16.8,2.1-34.7,7.1-50.4,13.2c-11.8,4.6-23.7,10.7-33.3,19C326.3,250.5,327.1,251.7,328,251.2z"/>
		</g>
	</g>
</g>
<g display="none">
	<g display="inline">
		<g>
			<path fill="#CE7E5C" d="M460.6,25.2c7.8,16,16.5,31.8,25.5,47.7c4.4,8,9.1,15.9,13.4,24c4.3,8,8.7,16.1,12.9,24.3
				c8.5,16.5,17.2,33.5,23.7,51.1c3.3,9.1,4.5,18.2,2.3,27.7c-2.3,9.9-8.2,18.8-14,27.1c-43.4,62.4-88.9,123-123.1,192.2
				c-11.6,23.5-23.2,49.4-29.1,75.9c-6,26.7-6.4,53.8,4.1,80.2c5.5,13.7,13.3,26.3,19.9,39.5c6.4,12.7,10.8,26.4,13.9,40.4
				c3.1,13.7,4.6,27.6,5.3,41.6c0.7,14,0.9,28.1,0.9,42c0,1.3,2.1,1.5,2.1,0.1c-0.3-32-0.5-64.2-9.1-95.3
				c-9-32.9-32.4-59.7-38.1-93.8c-2.8-16.7-1.6-33.7,1.9-50.3c3.5-16.6,9.1-32.7,15.4-47.9c7.5-17.9,15.8-35.3,25-52.3
				c9.2-17,18.9-33.6,29-49.8c4.4-7,8.8-14,13.4-21c4.5-6.9,9-13.8,13.7-20.6c9.2-13.7,18.9-27.2,28.3-40.7
				c9.2-13.1,18.6-26.1,28-39.2c8.5-12.1,16.1-25.3,15.5-40.5c-0.5-12.9-7.4-25.9-12.8-37.5c-6.8-14.8-14.2-29.2-21.8-43.5
				c-7.3-13.9-15.2-27.6-22.9-41.3c-7.6-13.6-15.1-27.2-22.2-40.8C461.4,23.9,460.3,24.5,460.6,25.2z"/>
		</g>
	</g>
	<g display="inline">
		<g>
			<path fill="#CE7E5C" d="M460.8,24.9c-2,17.9-2.1,36.1-0.4,54.3c1.4,18.3,4.3,36.7,9.1,54.9c2.4,9.1,5,18.2,8.1,27.2
				c3.1,9,6.6,17.9,10.4,26.7c4.2,9.5,9.1,18.6,13.7,27.9c4.5,9.3,8.6,18.8,11.2,28.9c0.2,0.9,1.5,0.6,1.4-0.3
				c-1.4-9.3-4.9-18.1-9.1-26.7c-4.2-8.6-9.2-16.9-13.1-25.3c-8.5-17.9-14.7-36.5-19.8-55.2c-5.2-18.7-8.5-37.7-10.1-56.6
				c-2-18.8-2.2-37.6-0.6-56C461.6,24.5,460.9,24.5,460.8,24.9z"/>
		</g>
	</g>
	<g display="inline">
		<g>
			<path fill="#CE7E5C" d="M536.8,172.4c15.9,68.8,12.7,140.8-3.7,210.5c-4.1,17-8.5,34-7.5,51.7c1.1,19,5.1,37.5,4.6,56.7
				c-0.9,36.9-12.9,72.6-25.1,107.1c-6.4,18.1-12.6,36.3-20.9,53.7c-8.8,18.5-20.9,34.1-34.9,49c-12,12.7-23.8,25.4-34.5,39.3
				c-5.4,7-10.5,14.1-15.6,21.3c-5,7.2-9.8,14.6-14.7,22c-19.9,29.6-39.3,59.9-65.5,84.9c-24.8,24.4-57.6,42.5-69.9,78.2
				c-3.2,9.1-4.2,18.7-3.1,28.2c0.2,1.3,2.3,0.9,2.2-0.3c-1.9-20.8,6.1-38.3,17.8-53.3c11.9-15,28-27.5,41.7-39.2
				c13.3-11.5,25.4-24,36.4-37.4c11-13.4,20.8-27.7,30.7-42c10.2-15,19.9-30.1,30.3-44.7c10.5-14.6,21.4-28.8,33.6-42
				c12.2-13.1,24.9-25.7,35-40.5c10.5-15.4,17.9-32.9,24.4-50.4c12.5-33.6,25-68,31.2-103.5c3-17.1,4-34.5,2.4-51.9
				c-1.7-19.4-5.5-37.9-2.8-57.4c2.5-17.9,7.9-35.5,11.3-53.3c3.2-17.2,5.5-34.6,7.1-52.1c1.7-17.1,2-34.4,1.6-51.6
				c-0.2-8.6-0.7-17.2-1.4-25.7c-0.8-8.5-1.9-17-3.2-25.5c-1.7-10.8-4-21.3-6.9-31.8C537.2,172,536.8,172.1,536.8,172.4z"/>
		</g>
	</g>
	<g display="inline">
		<g>
			<path fill="#CE7E5C" d="M460.8,25c4.7,16.5,9.5,33.2,14.5,50l3.8,12.6l3.6,12.7c2.4,8.5,4.9,17,7.5,25.5
				c2.7,8.8,5.4,17.7,8.3,26.6c2.7,8.9,5.5,17.8,8.3,26.7c5.2,16.2,10,33.7,17.4,49.2c0.3,0.6,1.4,0.3,1.2-0.4
				c-4.5-16.7-11.7-32.9-17-49.2c-2.9-8.9-5.6-17.8-8.3-26.7c-2.8-8.9-5.6-17.7-8.3-26.6c-10.1-33.6-20.2-67.1-30.3-100.6
				C461.5,24.3,460.7,24.5,460.8,25z"/>
		</g>
	</g>
	<g display="inline">
		<g>
			<path fill="#CE7E5C" d="M547.1,292.5c-12.3,32.1-31.4,60.5-51.3,88.3c-17,24.1-31.8,48.2-40.3,76.7
				c-19,62.7-14.9,130.4-21.2,195.2c-2.8,29.5-8.7,57.7-17.7,85.9c-0.3,1.1,1.2,1.6,1.6,0.6c12.2-28.7,16.3-61.3,19-92.2
				c3.1-33.5,3.8-67.2,6.3-100.7c2.5-32.8,6.6-65.7,17.1-96.8c9.7-29,27.2-53.1,44.6-77.8c17.5-24.7,32.8-50.2,42.8-78.9
				C548.1,292.2,547.3,291.9,547.1,292.5z"/>
		</g>
	</g>
	<g display="inline">
		<g>
			<path fill="#CE7E5C" d="M522.5,727.3c16.3-67.7,38.7-138.2,94.8-185.3c14.3-11.9,29.5-22.6,43.2-35.5
				c12.5-11.8,23.6-25,33.6-39.2c10.3-14.6,19.4-30,27.8-45.8c8.3-16,15.8-32.5,23.1-49c3.3-7.4,6.4-14.9,9.5-22.4l-2-0.7
				c-1.1,4.7-2.2,9.5-3.1,14.2c-1,4.7-1.8,9.4-2.6,14.1c-1.6,9.5-2.9,19-4.1,28.5c-2.4,19.1-4.7,38-8.4,56.7
				c-1.8,8.8-3.9,17.6-6.4,26.2c-2.5,8.6-5.4,17-8.6,25.3c-6.4,16.6-14,32.9-22.8,48.1c-8.6,15.1-18.4,29.5-29.2,43
				c-10.8,13.4-22.5,26-35.2,37.8C620,654.7,607,664.5,593.5,674c-13.4,9.4-27.3,18.5-40.6,28c-10.8,7.7-21.5,15.6-31.4,24.3
				c-1,0.9,0.3,2.5,1.4,1.6c24.4-20.8,51.5-37.7,77.8-56.1c27.1-18.9,51.2-42.5,71.6-68.7c20.5-26.5,37-56.1,49.1-87.8
				c3.2-8.4,6-16.9,8.4-25.5c2.4-8.7,4.4-17.4,6.2-26.1c3.5-17.6,6.1-35.2,8.3-53.4c1.2-10.1,2.5-20.2,4.1-30.2c0.8-5,1.7-10,2.8-15
				c1-5,2.1-10,3.4-15c0.4-1.4-1.4-1.9-2-0.7l-5.6,13l-5.7,12.8c-3.8,8.5-7.7,17-11.8,25.5c-8,16.9-16.7,33.2-26.5,49
				c-4.8,7.6-9.8,15.1-15.2,22.3c-5.4,7.2-11.1,14-17,20.6c-12.9,14.2-27.7,26-42.7,37.7c-13.8,10.8-26.9,22.1-38.3,35.5
				c-11.2,13.1-20.4,27.6-28.6,42.7c-8.2,15.2-14.9,31-20.6,47.1c-5.8,16.2-10.5,32.7-14.4,49.3c-1.7,7.3-3.2,14.8-4.5,22.2
				C521.5,727.6,522.4,727.8,522.5,727.3z"/>
		</g>
	</g>
	<g display="inline">
		<g>
			<path fill="#CE7E5C" d="M332.1,857.9c19.8-14.5,40-27.4,61.7-38.4c16.6-8.4,33.7-15.8,50.1-24.4c15.8-8.3,30.7-18.1,44.2-29.8
				c9.2-8.1,18.2-17,26.4-26.5c8.3-9.6,15.8-19.8,21.7-30.5c0.5-0.9-0.7-1.8-1.3-0.9c-7.3,10.2-14.6,20.1-22.5,29.6
				c-7.8,9.4-16.1,18.4-25.6,26.9c-14,12.5-29.9,22.4-46.5,31c-16.5,8.6-33.7,16.1-50.5,24.7c-20.5,10.6-40.2,22.9-58.6,37.3
				C330.5,857.4,331.4,858.4,332.1,857.9z"/>
		</g>
	</g>
	<g display="inline">
		<g>
			<path fill="#CE7E5C" d="M522.6,727.4c41.9-58.5,93.7-110,134.2-170.9c38.9-58.6,69.2-124.3,93-192.6c1.6-4.6,3.1-9.2,4.5-13.8
				c0.3-1.1-1.2-1.6-1.6-0.5c-24.4,69.7-53.3,136.4-91.8,197.1c-39.3,61.8-91.3,112.9-133.1,171.5l-6.1,8.7
				C521.2,727.4,522.1,728,522.6,727.4z"/>
		</g>
	</g>
</g>
</svg>
