<?xml version="1.0" encoding="utf-8"?>
<!-- Generator: Adobe Illustrator 18.0.0, SVG Export Plug-In . SVG Version: 6.00 Build 0)  -->
<!DOCTYPE svg PUBLIC "-//W3C//DTD SVG 1.1//EN" "http://www.w3.org/Graphics/SVG/1.1/DTD/svg11.dtd">
<svg version="1.1" id="Layer_1" xmlns="http://www.w3.org/2000/svg" xmlns:xlink="http://www.w3.org/1999/xlink" x="0px" y="0px"
	 viewBox="0 0 1000 1000" enable-background="new 0 0 1000 1000" xml:space="preserve">
<g>
	<g>
		<path fill="#CE7E5C" d="M506.3,536.9c-0.1-3.8-0.2-7.7-0.3-11.5l-0.2-5.8l-0.1-5.8l-0.1-11.7c0-3.9,0.1-7.8,0.2-11.7
			c0.4-15.7,1.8-31.4,5.1-47c0.7-3.1,1.5-6.3,2.4-9.4c0.4-1.6,0.9-3.1,1.4-4.7l0.7-2.3l0.8-2.2c1-2.9,2.1-5.7,3.4-8.6
			c1.3-2.8,2.8-5.5,4.3-8.2c7.3-12.6,17.7-23.5,28.2-34c21.2-21.2,41.7-42.4,58.5-69.6c20.1-32.5,39.2-67.4,58.9-100.5
			c11.2-18.8,22-37.7,25.8-59c3.1-17.4,0.8-35.3-4.8-52.1c-5.7-16.9-15.1-33.2-26.4-48C652.7,30,639.5,16.6,626,5.6
			c-0.8-0.7-1.7,0.4-0.9,1.1c21.1,19.7,40.8,40.7,54.7,66.8c7.4,14,12.2,28.9,13.8,43.9c1.6,15.1-0.1,30.3-5.4,45.1
			c-5.9,16.3-15.4,31.4-24.4,46.6c-10.2,17.1-20.5,34.2-30.4,51.5c-9.4,16.4-18.7,32.6-28.6,47.8c-9.9,15.3-20.6,29.6-33,42.8
			c-11.6,12.4-23.8,23.7-34.6,36.2c-1.4,1.5-2.7,3.1-3.9,4.7l-3.8,4.8c-2.4,3.3-4.7,6.7-6.8,10.1c-2,3.5-4,7-5.7,10.8
			c-1.6,3.8-3.1,7.3-4.4,11.6c-1.3,4.4-2.5,8.8-3.6,13.2c-1,4.5-1.8,9-2.6,13.5c-0.8,4.5-1.3,9-1.7,13.6c-0.4,4.6-0.8,9-1,13.6
			c-0.8,18.2,0.1,36.3,1.2,53.6C504.9,537.8,506.3,537.7,506.3,536.9z"/>
	</g>
	<g>
		<path fill="#CE7E5C" d="M505.9,537.7c28.5-7,51.2-21.1,70-38.2c2.4-2.1,4.6-4.4,6.8-6.6c2.2-2.3,4.4-4.5,6.5-6.9
			c1.1-1.2,2.1-2.3,3.1-3.5l1.5-1.8c0.3-0.3,0.5-0.5,0.7-0.7l0.6-0.6c1.6-1.7,2.9-3.4,4.5-5.1c5.9-7,11.5-14.7,17-22.9
			c6.3-9.4,12.9-19.8,19.4-31.4c6.7-11.9,11.9-25.3,17.9-39.5c11.8-28,25.9-57.2,38.7-87.9c11.2-26.7,22.7-53.9,29.2-82.4
			c6.6-28.7,5.7-57-2.1-85.1c-4.3-15.6-9.9-31-16-46c-5.9-14.8-13.2-29.2-22.9-42.1c-7.1-9.4-16-17.6-25.5-23.4
			c-9.5-5.7-19.7-9-29.9-8.4c-1.2,0.1-1,2.2,0.3,2.1c4-0.3,7.8,0,11.6,0.8c3.7,0.7,7.2,2,10.7,3.6c7,3.2,13.4,7.9,19.4,13.6
			c12,11.4,22,26.7,29,41.7c4,8.4,7.5,17.1,10.7,25.9c3.2,8.8,6,17.7,8.8,26.6c5.3,17.5,8.6,35.3,8.3,53.6
			c-0.4,34.4-12.9,68-26,99.7c-12.7,30.9-26.4,60.9-39.1,89.5c-10,22.5-18,44-28.4,62c-10.2,17.6-20,32.4-30.1,44.8
			c-1.1,1.4-2.2,2.8-3.4,4.2c-1.2,1.4-2.3,2.7-3.5,4l-1.9,2l-2.4,2.8c-1.6,1.9-3.3,3.7-5,5.5c-3.5,3.5-6.9,7.1-10.7,10.5
			c-3.8,3.3-7.5,6.7-11.6,9.8c-16.1,12.5-34.9,22.7-57.1,28.5C504.2,536.4,504.8,538,505.9,537.7z"/>
	</g>
	<g>
		<path fill="#CE7E5C" d="M506.1,537c0.9-7.7,3.7-14.8,7.8-21.2c2-3.2,4.2-6.3,6.7-9.2c2.5-2.9,5-5.7,7.6-8.5c2.4-2.6,5-5.1,7.4-7.6
			c2.5-2.5,4.9-5,7.3-7.5c2.4-2.5,4.8-5,7.1-7.6c1.1-1.3,2.2-2.6,3.3-4c1.1-1.3,2.2-2.7,3.3-4.1c1.2-1.6,2.4-3.2,3.5-4.8l1.7-2.4
			l0.8-1.2l0.7-1c1-1.3,1.9-2.6,2.8-4l1.3-2l1.4-2c0.9-1.4,1.8-2.7,2.7-4.1l2.7-4.2c1.8-2.9,3.6-5.7,5.4-8.6
			c1.7-2.9,3.7-5.8,5.5-8.9c1.8-3,3.8-6,5.6-9.2c2-3.1,3.8-6.3,5.8-9.4c2-3.2,3.8-6.4,5.9-9.7c17.7-29.3,35.1-57.9,52.2-86
			c16.8-27.9,33.6-57.3,45.4-88.6c7.8-20.5,13.3-42,14.8-63.5c1.6-21.5-0.8-43.1-7.7-64C701,75.1,690.9,57,678.3,41.7
			c-12.7-15.4-27.8-28.1-45.1-36c-0.8-0.4-1.2,1.1-0.3,1.5c7.2,3.3,13.7,7.4,19.9,12c6.2,4.6,12,9.7,17.3,15.3
			c10.6,11.2,19.6,24.2,26.5,38.3c7,14.1,11.8,29.4,14.6,45c1.3,7.8,2.1,15.6,2.4,23.5c0.2,7.8-0.1,15.6-0.9,23.1
			c-3.7,33.7-16.2,66.3-32.1,97.1c-15.9,30.8-34.9,59.9-51.3,86.9c-10.8,17.8-21.7,35.8-32.8,54.1c-5,8.1-10,16.3-15,24.4
			c-4.8,7.8-9.7,15.3-14.4,22.5c-1.2,1.7-2.3,3.4-3.4,5.1c-0.6,0.8-1.2,1.6-1.8,2.5c-0.3,0.4-0.6,0.7-0.9,1.3l-1.1,1.5
			c-2.8,4-5.9,7.8-9,11.5c-3.1,3.8-6.3,7.5-9.7,11.1c-3.3,3.7-6.7,7.3-10.4,10.9c-11.9,12-24.6,25.9-25.6,43.8
			C505,537.4,506,537.7,506.1,537z"/>
	</g>
	<g>
		<path fill="#CE7E5C" d="M503.9,536.7c-4.7,15.9-12.4,29.9-22.6,43.1c-9.4,12.2-20.6,23.3-31,35.2c-23.7,26.9-43.6,58.2-59.9,91.5
			c-8.3,16.9-15.5,34.4-21.8,52.4c-6,17.2-10.5,34.9-16.4,52.2c-5.8,17.2-14.5,32.3-26.7,46.1c-11.1,12.5-23.6,23.8-33.3,37.8
			c-4.7,6.9-8.7,14.6-11.7,22.8c-1.5,4.1-2.8,8.3-3.8,12.6c-1,4.3-1.7,8.7-2.2,13.1c-2.1,17.6,0.2,35.6,7.1,51.1
			c0.3,0.7,1.5,0.2,1.3-0.5c-5.2-16.8-7.8-33.7-5.8-51.5c1.9-18,9-35.2,19.3-49.7c9.9-13.7,22.6-24.9,33.5-37.5
			c5.6-6.5,10.3-13.4,14.2-20.7c4-7.3,7.2-14.9,10-22.9c6.1-17.2,10.4-35,16.3-52.2c6.3-17.9,13.4-35.4,21.7-52.3
			c8.1-16.6,17-32.8,27.1-48.1l3.7-5.7l3.9-5.6c2.6-3.7,5.2-7.4,8-11c5.5-7.2,11.1-14.2,17.1-20.9c5.4-6.3,11.2-12.3,16.5-18.5
			c2.7-3.1,5.4-6.1,8-9.2c2.6-3.1,5-6.2,7.5-9.4c2.4-3.2,4.7-6.4,6.8-9.7c2.1-3.3,4.2-6.6,6-10.1c0.9-1.7,1.8-3.5,2.6-5.3
			c0.8-1.8,1.6-3.6,2.4-5.4c1.5-3.7,2.7-7.5,3.7-11.5C505.6,536.2,504.2,535.9,503.9,536.7z"/>
	</g>
	<g>
		<path fill="#CE7E5C" d="M303,876.4c-1-2.5-2-5-3-7.6c-0.9-2.5-1.8-5.1-2.7-7.7c-1.8-5.2-3.5-10.3-5.1-15.6
			c-3.2-10.5-6.5-21.1-9.7-31.6c-1-3.1-1.9-6.3-2.6-9.4c-0.7-3.1-1.3-6.2-1.8-9.4c-0.9-6.3-1.2-12.7-0.6-19.4
			c1-11.8,4-23.4,6.1-35.1c4.2-22.8,6.6-45.9,7.6-69.2c0.9-23.3,0.4-46.9-1.3-70.5c-0.1-1.3-2.1-1-2.1,0.3
			c0,22.3,8.6,42.2,15.7,61.8c8.4,23.2,11.7,46.7,11.5,71.1c-0.2,25-4.4,49.3-8.1,73.8c-3.7,24.4-6.8,49-4.8,73.6
			c0.1,0.9,1.7,0.8,1.6-0.1c-0.8-24.3,2.2-48.5,5.6-72.6c3.4-24.1,7.2-48.1,7.8-72.7c0.6-23-2.3-45.9-9.5-67.9
			c-7.1-21.6-17.6-42.6-17.6-66.9l-2.1,0.3c3.7,49.5,1.6,98.1-7.4,145.7c-1.1,5.9-2.3,11.7-3.3,17.6c-0.9,5.9-1.7,11.8-1.9,17.8
			c-0.3,10.4,1.9,20.3,4.9,30c6.6,21.8,12.7,43.9,22,64.2C302.4,877.4,303.2,876.9,303,876.4z"/>
	</g>
	<g>
		<path fill="#CE7E5C" d="M593.3,771.7c-28.2-6.8-55.2-15-82-25.7c-10.9-4.3-22.1-8-34-7c-8.5,0.7-16.1,4.8-22.8,9.3
			c-7.8,5.1-14.6,11.4-22.6,16.6c-8.4,5.6-17.7,8-27.7,10.1c-15.8,3.4-37.2,6.2-47,20.8c-0.5,0.8,0.6,1.8,1.2,1
			c11.9-14.7,33.2-17,50.5-20.9c7.7-1.7,14.8-4,21.5-7.9c7.8-4.5,14.5-10.4,21.4-15.6c7.6-5.6,15.8-10.3,25.6-11.7
			c13.4-1.8,26.9,4.3,39,9.1c24.6,9.9,50.4,17.9,76.6,22.7C593.9,772.8,594.1,771.9,593.3,771.7z"/>
	</g>
	<g>
		<path fill="#CE7E5C" d="M592,771.2c-6.9,0.5-14,0.7-20.6,2.1c-3.4,0.7-6.5,2-9.8,2.8c-5.3,1.4-11.2,1.6-16.9,1.9
			c-4.5,0.2-9.1,0.7-13.6,0.8c-5.9,0.1-11.9-1.4-17.6-2.8c-9.3-2.4-18.4-5.3-28.1-5.4c-8.2-0.1-15.7,3.6-22.6,6.9
			c-8.3,3.9-15.8,6-25.4,6c-19.4-0.1-38.6-4.1-58-2c-1,0.1-0.7,1.5,0.2,1.4c19.5-0.4,38.6,1.9,58,2.3c8.4,0.2,15.3-1.3,22.8-4.7
			c8.2-3.7,15.7-7.9,25.2-8.3c10.6-0.4,21.4,3.9,31.6,6.3c9.6,2.3,18.2,1.5,27.8,1c9-0.5,16.5-1.9,24.8-4.4c7.1-2.1,15-2.2,22.5-3
			C593,772.2,592.9,771.1,592,771.2z"/>
	</g>
	<g>
		<path fill="#CE7E5C" d="M404.7,682.7c-1.6-8.2-2.6-16.6-2.7-25c-0.2-8.4,0.5-16.8,2-25.1c3.2-17.2,10.4-32.9,19.1-47.8l3-5.3
			l3.1-5.2c2-3.5,4-7,5.8-10.6c1.9-3.5,3.7-7.1,5.2-10.8c0.8-1.8,1.5-3.7,2.2-5.6c0.7-1.9,1.4-3.8,2-5.7c1.9-6.1,2.7-12.4,3.1-18.7
			c0.4-6.3,0.1-12.8-0.2-19.2c-0.9-13.4-3-27-3.8-40.8c-0.3-6.8-0.5-13.8,0.1-20.7c0.3-3.4,0.8-6.9,1.5-10.3
			c0.7-3.5,1.5-6.9,2.7-10.3c1.6-4.5,3.8-9.5,6.1-14.7c2.4-5.1,4.9-10.5,6.9-15.9c1-2.7,2.1-5.6,2.9-8.4c0.8-2.8,1.4-5.6,1.8-8.4
			c0.8-5.5,0.4-11-1.6-16.1c-0.4-1-2-0.3-1.6,0.7c2.2,5.9,1.9,12,0.5,18c-1.3,6.1-3.9,12.2-5.9,17.6c-4.4,10.8-9.9,21.2-12.9,32.4
			c-1.7,6.8-2.7,13.5-3,20.3c-0.3,6.8-0.1,13.6,0.4,20.3c0.6,6.8,1.4,13.5,2.1,20.1c0.8,6.7,1.5,13.3,1.9,19.8
			c0.5,7.6,0.3,15-0.8,22.2c-0.5,3.6-1.2,7.2-2.2,10.7c-1,3.5-2.1,7-3.5,10.6c-1.5,3.9-3.3,7.7-5.3,11.4c-1.9,3.7-3.9,7.4-6,11.1
			l-3.2,5.4l-3.2,5.5c-2.1,3.7-4.2,7.3-6.2,11c-14,26.8-18.6,58.2-11.2,87.5C404,683.5,404.8,683.2,404.7,682.7z"/>
	</g>
	<g>
		<path fill="#CE7E5C" d="M462.8,358.6c-0.5,7.9-7.5,12.6-13.1,17.3c-4.4,3.6-7.7,7-11,11c-1.9,2.3-3.5,4.7-5,7.3
			c-1.5,2.6-2.8,5.2-3.9,8c-2.3,5.5-4.1,11.1-5.4,16.8c-1.4,6-2.3,11.9-2.8,18c-0.5,6-0.6,12-0.6,17.9c0.1,6,0.3,11.9,0.4,17.8
			c0.1,5.9,0.3,11.8,0.2,17.7c-0.2,6.4-0.6,12.7-1.7,18.9c-1.1,6.1-2.5,12.2-4.6,18.3c-0.9,2.8-1.9,5.5-2.7,8.3
			c-0.8,2.7-1.6,5.5-2.3,8.2c-0.7,2.7-1.3,5.5-1.8,8.3c-0.5,2.8-0.8,5.7-1,8.6c-0.4,5.8-0.5,11.5-0.4,17.2c0.1,5.7,0,11.4,0,17.1
			c0,5.7-0.3,11.3-0.9,16.8c-0.6,5.6-1.6,11.1-3.3,16.7c-0.3,1,1.2,1.5,1.6,0.5c2.1-5.1,3.3-10.4,4-15.8c0.7-5.4,1-11,1-16.7
			c0-5.7-0.1-11.3-0.3-17c-0.2-5.7-0.2-11.2,0.1-16.6c0.1-3.2,0.5-6.4,0.9-9.6c0.5-3.1,1.2-6.2,1.9-9.2c0.8-3.1,1.6-6.1,2.5-9.1
			c1-3,2-6.1,3.1-9.1c0.9-2.7,1.7-5.5,2.3-8.2c0.7-2.8,1.2-5.5,1.7-8.4c0.9-5.6,1.2-11.4,1.5-17.1c0.5-12.7-0.2-25.5-0.3-38.4
			c0-6.4,0.2-12.9,0.7-19.4c0.6-6.5,1.6-13,3.2-19.5c1.7-6.6,4.3-13,7.6-19c3.4-5.9,7.6-11.3,12.7-16.2c3.3-3,7.3-6,10.6-9.3
			c3.3-3.3,5.7-7,5.6-12C463.3,358.2,462.9,358.3,462.8,358.6z"/>
	</g>
	<g>
		<path fill="#CE7E5C" d="M645.8,597.8c-8.1-5.5-14.5-5.8-20.4-3.9c-5.8,1.9-10.8,6.2-16.1,9.4c-3.5,2.2-8.6,2.6-13,3.7
			c-3.4,0.8-6.9,1.8-10.2,2.9c-3.3,1.1-6.6,2.3-9.8,3.6c-3.1,1.2-6.1,2.5-9.1,4c-2.9,1.5-5.8,3-8.7,4.6c-2.9,1.6-5.7,3.3-8.5,5.1
			c-2.7,1.8-5.4,3.6-8.1,5.6c-11.2,7.9-20.6,19.3-33.6,25.9c-7.5,3.8-16.5,5.3-24.9,7.3c-9.1,2.1-18.1,4.4-27.2,6.8
			c-13.6,3.6-27.1,7.3-39.9,13.3c-5.5,2.6-11.1,5.7-16,9.7c-2.5,2-4.8,4.2-6.8,6.6c-2,2.4-3.6,5-4.7,7.9c-0.4,0.9,0.9,1.6,1.4,0.7
			c1.5-2.9,3.3-5.5,5.4-7.8c2.1-2.4,4.5-4.5,7-6.4c5.1-3.9,10.7-7,16.5-9.7c6.7-3.2,13.7-5.6,20.8-7.8c7.1-2.2,14.4-4,21.4-5.8
			c14.7-3.9,30.6-6.4,44.5-11.6c6.2-2.3,11.5-6,16.4-10.2c4.8-4.1,9.4-8.5,14.1-12.3c20.4-16.1,43.6-27.8,69.8-32.9
			c5.6-1.2,9.7-5.7,13.9-8.5c3.5-2.3,7.4-3.7,11.6-3.8c4.2-0.1,8.7,1.2,13.5,4.3C645.8,599,646.5,598.3,645.8,597.8z"/>
	</g>
	<g>
		<path fill="#CE7E5C" d="M645.4,597.8c-8-3-15.4-2.5-21.4,0c-6,2.6-11,7.1-14.1,12.1c-2.4,3.7-4.2,7.6-5.7,11.7
			c-1.6,4.1-3.2,8.1-5,12.1c-2.4,5.1-5.7,9.2-9.9,12.5c-4.2,3.4-9.6,5.8-15.9,7.7c-10.2,3-20.6,4.9-29.8,10.1
			c-10.3,5.7-19.7,11.3-31.9,14.8c-22.1,6.5-46.8,5.6-69.7-1.7c-0.9-0.3-1.2,0.9-0.3,1.3c10.2,4,21,6.1,31.8,6.6
			c10.8,0.5,21.7-0.5,31.9-2.6c9.9-2.1,19.5-5.6,27.9-10.1c5-2.7,9.7-5.7,14.6-8.4c2.5-1.3,5.2-2.4,8-3.3c2.8-0.9,5.6-1.7,8.5-2.4
			c9.7-2.5,19-4.7,26.3-10c1.9-1.4,3.5-3,4.9-4.7c1.4-1.7,2.7-3.5,3.8-5.5c2.2-3.8,3.7-8,5.3-11.8c2.8-7,6.7-16.1,13.2-22.3
			c3.3-3.1,7-5.5,11.6-6.6c4.6-1,9.8-0.8,16,1.4C646,598.8,646,598,645.4,597.8z"/>
	</g>
	<g>
		<path fill="#CE7E5C" d="M303.2,881.3c-6.3-19.2-8-38.7-5.5-59c2.4-19.6,6.3-38.5,6.6-58.4c0.4-22.9-1.1-45.7-3.2-68.8
			c-0.5-5.4-1-10.9-1.5-16.4c-0.5-5.5-1-11-1.6-16.6c-0.6-5.5-1.1-11.1-1.9-16.6c-0.8-5.5-1.5-11-2.4-16.5c-0.2-0.9-1.6-0.7-1.6,0.3
			c1.4,22.4,4.9,44,7.1,65.8c2.3,23.7,3.8,47.3,3.2,70.7c-0.5,20.3-4.6,39.6-6.9,59.6c-2.1,19.4,0.2,38,6.9,56
			C302.6,882,303.3,881.7,303.2,881.3z"/>
	</g>
	<g>
		<path fill="#CE7E5C" d="M408.2,609c7.5-22.5,15.4-44.8,22.3-67.6c2.7-8.5,5-17.3,6.8-26.1c0.5-2.9,0.8-5.7,0.9-8.6
			c0.1-2.9,0.1-5.8-0.1-8.7c-0.3-5.8-1.2-11.7-1.9-17.4c-0.8-6-1.3-12-1.6-18c-0.2-6-0.1-12,0.3-18c0.9-12,3.3-24,8-35.8
			c2.6-7,6.5-13.8,9.8-20.7l1.2-2.6c0.5-0.9,0.9-1.8,1.4-2.8c0.9-1.8,1.8-3.7,2.6-5.6c1.6-3.8,3-7.5,4.1-11.5c0.3-1-1.2-1.3-1.6-0.3
			c-0.7,1.9-1.5,3.8-2.3,5.7c-0.8,1.9-1.6,3.8-2.4,5.7c-1.7,3.7-3.6,7.5-5.1,10.8c-3.2,6.9-6.7,13.6-9.5,20.8
			c-8.7,21.5-10.1,44.5-7.5,66.5c0.4,3.1,0.8,6.2,1.2,9.3c0.4,3.1,0.8,6.2,1.1,9.3c0.6,6.2,0.7,12.3,0.1,18.5
			c-0.5,4.9-1.7,9.7-3,14.5c-1.3,4.8-2.8,9.6-4.2,14.2c-6.7,22.8-13.9,45.5-21.4,68C407.2,609.3,408,609.6,408.2,609z"/>
	</g>
	<g>
		<path fill="#CE7E5C" d="M636.9,594.8c-18.8,2.8-33.1,11.1-43.5,24.3c-4.9,6.2-11.9,10.6-19.3,14.8c-3.7,2.2-7.4,4.3-10.9,6.7
			c-3.6,2.4-6.9,4.9-9.8,8c-3.2,3.3-6.2,6.2-9.7,8.8c-3.4,2.6-7.3,4.8-12.1,6.7c-2.3,0.9-4.7,1.7-7.1,2.4c-2.4,0.7-4.8,1.4-7.3,1.9
			c-5,1.2-10.1,2.1-15.1,2.9c-9.9,1.7-19.8,3.1-29.8,4.1c-10,1-20.2,1.7-30.4,1.9c-0.6,0-0.6,0.9,0,0.9c19.9,0.9,39.9-2.2,59-5.3
			c9-1.4,18.2-3.2,26.7-5.9c8.6-2.7,16.3-6.5,22.3-12.1c3.2-2.9,5.6-6.4,8.8-9.2c3.2-2.7,6.9-5,10.6-7.2c3.5-2.1,7-4.2,10.6-6.3
			c3.5-2.1,6.7-4.4,9.7-6.9c3.5-2.9,6.3-6.3,9-9.6c2.8-3.3,5.8-6.4,9.6-9c1-0.7,2.1-1.4,3.2-2c1.1-0.6,2.2-1.2,3.4-1.8
			c2.3-1.1,4.7-2.2,7.1-3.1c2.5-0.9,4.9-1.7,7.5-2.4c2.6-0.7,5.2-1.2,7.9-1.7C637.9,595.4,637.5,594.7,636.9,594.8z"/>
	</g>
	<g>
		<path fill="#CE7E5C" d="M593.3,771.8c-14.6-2.1-29.1-4.5-43.7-6.7c-6.1-0.9-12.1-1.8-18.2-2.6c-12.6-1.5-23.7-7.7-35.5-11.7
			c-9-3-17.2-1.6-25,1.7c-7.8,3.2-15,8.3-22.2,12.2c-9.9,5.4-19.8,10.2-30.4,13.2c-10.6,3-21.6,4.3-33.4,2.4
			c-0.8-0.1-0.9,0.9-0.2,1.1c9.3,2.4,18.6,2,27.7-0.1c9.1-2,17.9-5.6,25.9-9.6c8.6-4.3,17-9,25.3-13.7c4.3-2.4,8.6-4.8,13.3-6.5
			c6.7-2.3,13.5-1.2,20.2,1.1c10.1,3.3,19.3,8.2,29.8,10.4c6.8,1.5,14.1,1.9,21,3c15,2.2,30.1,4.9,45.2,6.5
			C593.8,772.7,594,771.9,593.3,771.8z"/>
	</g>
</g>
</svg>
