<?xml version="1.0" encoding="utf-8"?>
<!-- Generator: Adobe Illustrator 18.0.0, SVG Export Plug-In . SVG Version: 6.00 Build 0)  -->
<!DOCTYPE svg PUBLIC "-//W3C//DTD SVG 1.1//EN" "http://www.w3.org/Graphics/SVG/1.1/DTD/svg11.dtd">
<svg version="1.1" id="Layer_1" xmlns="http://www.w3.org/2000/svg" xmlns:xlink="http://www.w3.org/1999/xlink" x="0px" y="0px"
	 viewBox="0 0 1000 1000" enable-background="new 0 0 1000 1000" xml:space="preserve">
<path fill="#567570" d="M850.9,580.7c-3.8-5.5-8.9-9.4-13.9-13.8c-4.7-4.1-9.8-7.6-15.2-10.6c-31.4-17.5-68.6-6-98.9,8.4
	c-42.2,20.1-82.3,46.7-122.9,69.7c-31.7,18-64.2,35.4-88.9,62.5c-13.1,14.2-22.9,31.4-30.5,49.6c-7.3,17.5-12.7,35.9-16.8,53.6
	c-8,10.9-15.2,22.5-21.7,34.9c-0.2,0.4-0.2,0.7,0,1c-0.6,0.3-1.3,0.6-1.9,0.9c-1,0.5-2.1,0.7-3.1,0.6c5.2-9.9,10.3-19.8,15-29.9
	c7.8-17.3,14.3-35.2,18.1-54.2c11.8-61.3-0.3-123.7-17.9-183.3c0.1,0,0.1-0.1,0.2-0.1c13.9-15.4,20.4-33.9,22.9-53.4
	c2.4-19.5,0.8-40-1.1-59.3c-2.9-26.4-4.9-51.9-1.7-78.3c3.2-25.7,10.8-50.7,17.4-75.7c11.3-42.3,18.6-83.8,9.5-127.3
	c-9.7-46.3-31.8-88.9-32.4-137c0-1.6-1.8-2.8-3.3-2.2c-2.7,1.1-5.8,2.9-8.8,3.2c-5.6,0.6-11.4,2-16.8,3.9c-7.7,2.7-15,6.4-21.7,10.9
	c-13.8,9.3-25.5,21.6-35.4,34.9c-8.5,11.4-15.9,23.8-22.4,36.5c-13.3,26.1-24.5,53.2-36.4,79.8c-12.4,27.3-26.1,54.4-31.4,84
	c-5,28.5,1.5,58.1,8,85.7c6.5,27.6,13.1,55.5,25.8,81.1c11,22.3,29,40.2,47.6,56.5c23.9,21,49.1,43.1,75.7,61.1
	c16.8,58.1,27.9,117.8,17.8,178.4c-3.5,20.3-10.2,39.3-18.6,57.5c-4.2,8.9-8.7,17.6-13.3,26.2c-6.4-3-12.4-13-16.3-17.4
	c-3.8-4.3-7.7-8.7-11.6-13c21.9-30,28.1-63.7,24.2-100.6c-3.7-35.5-10.4-78.3-31.6-108.2c-23.8-33.8-64.8-48.9-101.4-65.4
	c-44.6-20-89.9-37.9-135.8-54.7c-1.2-0.4-2.8,0-3.4,1.1C115,551.6,122.6,640.6,174.4,707c15.5,19.8,33.9,37.3,51.9,55.2
	c16.5,16.4,33.6,32.1,54,43.9c36,20.9,83.9,23.3,121.3,4.7c9.6,10.7,19.1,21.5,28.7,32.3c-3.8,6.9-7.7,13.7-11.6,20.6
	c-8.7,15.2-17.5,31-24,47.5c-6.7,16.4-11.1,33.5-10.8,51.3c0,1,1.6,1,1.8,0c2.3-19.2,8-36.9,15.2-54.1c7.1-17.2,16-33.8,25.1-50.4
	c2.2-4.2,4.5-8.4,6.7-12.6c0.8,0.3,1.6,0.4,2.5,0.1c30.8-11.5,54.6-35,81.2-53.7c15.6-10.9,32.5-18.1,51.6-20
	c23.6-2.4,48.3,4.8,71.5,8.1c73.2,10.2,155.3,2.8,205.8-61.9c21-27,29.1-63.6,22.2-97c-1.7-8-4.2-15.9-7.6-23.3
	c-2.6-5.6-5.3-11.6-8.9-16.9C850.9,580.8,850.9,580.8,850.9,580.7z M490.1,158c14.3,49.3,8.5,94.9-4.4,143.8
	c-5.4,20.5-10.9,40.9-14.7,61.6c-3.7,20.6-5.7,41.5-4,62.9c4,47.9,15.8,100.3-15.3,141.9c-5.8-19.7-12.3-39.1-18.6-58.1
	c-26.3-79.3-53.6-161.3-40-245.8c11.8-72.9,57.2-133.8,70.3-206.3C467.2,92.3,480.5,124.9,490.1,158z M334.2,463.1
	c-13.7-22.1-20.1-48.3-26.2-73.2c-6.9-27.5-13.5-55-13.1-83.6c0.4-27.6,12.1-53.2,23.3-78.1c11.4-25.4,22.9-50.7,34.3-76.1
	c22.3-49.7,51.6-97.7,109.1-107.8c-12.3,77.5-60.4,142.9-74.2,219.6c-14.5,80.5,12.1,161.5,37.2,237c7.7,23,15.5,46.3,22.4,69.9
	C410.2,533.9,361.9,507.8,334.2,463.1z M191.1,494.6c21.1,8,41.9,16.3,62.7,25c39.8,16.5,84,32,118.8,57.7
	c17.2,12.7,28,30.1,35.5,49.3c7.3,19.1,11.2,40,15,59.8c3.9,21.8,5.2,42.6,2.4,62.6c-2.9,19.1-9.4,37.6-21.1,55.5
	c-9.6-10.7-19.3-21.4-29.1-32c-14.2-15.5-28.3-30.8-42.7-46.1c-0.9-1-2-1.2-3-1c-4.6-8.6-11-16.7-16.3-24.6
	c-8.2-12.4-16.4-24.6-24.8-36.9c-16.9-24.9-33.2-50.3-52.4-73.5c-15.9-19.2-36.9-32.8-55.4-49.4c-16-14.4-22.5-35.2-19.2-56
	C166.1,483.2,187.8,493.3,191.1,494.6z M287.5,803.8C250,785.5,219,748.7,192,719c-52.8-58-70.4-134.3-43.8-207.2
	c2.1-5.7,4.6-11.3,7.4-16.8c-0.4,10.9,2.1,22.2,5.8,31.8c3.3,8.5,12.2,15.3,19,21.2c12.3,10.6,25.5,20,37.4,31
	c11.5,10.5,21.4,22.8,30.6,35.6c9.1,12.7,17.6,26,26.4,38.7c9.5,13.7,19,27.4,28.4,41c7.5,10.8,14.4,23.7,23.4,34
	c0,0.6,0.2,1.3,0.8,1.9c17.5,18.7,34.9,37.6,52.3,56.7c6.2,6.8,12.4,13.6,18.5,20.5C361.9,821.5,323.1,821.2,287.5,803.8z
	 M528,686.6c16.4-14.8,35.5-27,55.4-38.2c19.8-11.2,40.2-21.5,59.3-32.4c39.5-22.6,79.7-52.1,124.8-61.4
	c31.7-6.6,59.5,6.1,77.4,29.6c-1.8,22.5-30.6,35.6-47,45.5c-18.6,11.2-37.4,21.7-57,30.6c-40.5,18.4-84.6,22.4-126.4,35.8
	c-58.7,18.7-109.7,51.2-146.3,98.3C482.9,754.7,495.1,716.2,528,686.6z M830.3,727.5c-29.5,31.4-70.2,45.4-110.7,49.5
	c-46.5,4.7-90.5-7.8-136.3-11.3c-33.8-2.6-61.2,13.3-87,33.1c-11.8,9.1-23.4,18.5-35.8,26.8c-5,3.3-10.2,6.3-15.6,8.9
	c10.1-17.8,21.9-34.4,35.3-49.6c13.7-15.5,29.4-29.6,46.4-41.9c38.1-27.5,83.7-42.7,129.1-53c20.8-4.7,42-8.4,62.4-15.4
	c22.1-7.7,43-17.9,63.4-29.4c20.3-11.4,60.6-28.2,67.6-55.5c5.3,8.1,9.5,17.3,12.5,27.3c5.9,20.1,5,40.4-0.8,59.4
	C854.7,695.4,843.9,712.9,830.3,727.5z"/>
</svg>
