<?xml version="1.0" encoding="utf-8"?>
<!-- Generator: Adobe Illustrator 18.0.0, SVG Export Plug-In . SVG Version: 6.00 Build 0)  -->
<!DOCTYPE svg PUBLIC "-//W3C//DTD SVG 1.1//EN" "http://www.w3.org/Graphics/SVG/1.1/DTD/svg11.dtd">
<svg version="1.1" id="Layer_1" xmlns="http://www.w3.org/2000/svg" xmlns:xlink="http://www.w3.org/1999/xlink" x="0px" y="0px"
	 viewBox="0 0 1000 1000" enable-background="new 0 0 1000 1000" xml:space="preserve">
<path fill="#CE7E5C" d="M524.8,456.6c2.1-9.9,4.7-19.7,8-29.5c11.5-35,27.1-69.1,39.9-105.1c12.7-35.8,22.8-73.7,21.9-113.3
	c-0.9-33.4-8.5-66.5-26.9-94.9c-2.1-3.5-4.8-6.8-7.5-10c-2.7-3.2-5.6-6.2-8.6-9.1c-6-5.8-12.1-11.1-19.2-15.8
	c-8.8-6-18.3-11.9-25.2-18.8c-4.3-4.3-8.9-9.4-10.8-15.3c-1.2-3.6-0.1-5.2,0.6-8.5c0.6-2.9-2.2-5.9-4.5-2.2
	c-5.1,8.2-8.6,16.1-10.7,23.7c-1.1,3.8-1.6,7.5-2.3,11.3c-0.6,3.8-1,7.5-1,11.3c-0.1,7.5,1.2,14.8,2.3,22.4
	c0.7,3.8,1.6,7.6,2.6,11.4c1,3.8,2.4,7.6,3.4,11.5c2.2,7.8,4.9,15.7,7.8,23.6c2.5,8,5.1,16.1,7.7,24c2.5,8,4.3,16,6,23.8
	c1.8,7.8,2.5,15.4,2.7,22.6c0.1,5.5,0.1,11-0.2,16.5c-0.5,5.5-1.2,10.9-2,16.3c-1.5,10.8-4.3,21.4-7.5,31.8
	c-6.4,20.9-15.5,41.1-25.4,60.9c-19.9,39.6-43.2,77.8-57.4,120.4c-3.5,10.4-6.3,20.8-8.4,31.5c-2.1,10.8-3.6,21.7-4.2,32.7
	c-0.6,11.1-0.4,22.1,0.7,33.4c1.2,11.3,3,22.5,6,33.9c11.5,44.6,32.4,86.8,53.5,126.8c16,30.6,29.9,59.7,42.2,87.4
	c1.4,3.6,2.9,7.2,4.7,10.7c4.4,10.2,8.6,20.2,12.6,30c16.2,39.7,28.4,76,39.2,115c0.3,1.2,3.2,0.2,3-1
	c-7.3-34.8-16.9-67.8-30.2-103.4c-6.6-17.6-14-35.7-22.3-54.4c-7.1-22-8.9-45.4-7.5-68.9c1.6-32,8.1-64.1,12.5-96.7
	c4.4-31.8,4.3-62.4,0.4-95.7c-2.3-20.5-2.5-40.6-0.5-60.5C521.1,476.3,522.6,466.4,524.8,456.6z M486.7,749.5
	c-21.2-40-44.6-83.1-59.2-128c-14.7-44.8-20.5-91.4-7.5-136.7c12.3-42.5,34.4-80.3,54.7-118.9l7.6-14.5l7.1-14.7
	c2.3-4.9,4.7-9.9,6.8-14.8c2.1-5,4.1-10,6-15c4-10.1,7.1-20.4,9.8-30.8c2.8-10.4,4.4-21,5.5-31.8c3.1-35.4-6.6-69.1-16.6-101.4
	c-1.4-4.2-2.8-8.5-4.1-12.9c-1.4-4.3-2.4-8.8-3.9-13.1c-1.4-4.4-2.6-8.7-3.5-13.2c-0.5-2.2-0.9-4.4-1.2-6.6l-0.5-3.3l-0.6-3.3
	c-1.4-8.7-1.4-17.7,0.2-26.7c1.3-7.3,3.2-14,6.2-20.7c-0.9,2.1,1.2,6,1.7,8.1c1.2,4.7,1.5,9.6,2.7,14.4c1.3,5.2,2.9,10.4,4.7,15.5
	c3.6,10.5,7.9,20.7,12.3,30.8c2.3,4.8,4.1,9.6,6.1,14.5c2,4.9,4,9.8,6,14.7c2.1,4.9,3.6,10,5.2,15c1.6,5,3,10.1,4.3,15.2
	c7.9,34.5,6.8,70-0.5,103.8c-7.2,33.9-21,66.3-38.2,97.2c-18.6,33.4-39.5,66.8-43.5,105.2c-2.9,27.3-2.5,55.7-0.5,83.8
	c2.6,37.3,7.9,74.7,15.9,111c7.2,32.9,17.1,65,29.2,95.2c0.2,2.5,0.4,5.1,0.6,7.6C495.5,766.6,491.2,758.1,486.7,749.5z
	 M513.1,540.2c4.3,39.1,4.6,75-1.4,112.3c-5,30-11.7,61.5-12.9,92.9c-0.2,4.1-0.3,8.2-0.2,12.2c-10.1-27.3-18.2-56.2-24.1-85.8
	c-7.3-36.3-11.7-73.5-14.1-110.7c-2-30.5-4-62.8,2-92.1c8.4-40.7,32.4-74.6,51.3-111.6c14.3-28.3,25.3-58.3,31.3-89.4
	c5.6-31.1,5.9-63.4-1-94.7c-2.8-10.7-5.6-21.3-9.1-31.5c-1.9-5.1-3.7-10.2-5.6-15.2c-1.9-5-3.5-10.1-5.8-15c-2.1-4.9-4.1-9.8-6-14.7
	l-2.8-7.4c-0.9-2.5-2-4.8-3-7.3c-2-4.8-3.8-9.7-5.5-14.7c-0.5-1.3-0.9-2.7-1.3-4c1.3,1.3,2.8,2.7,4.3,3.9
	c10.2,8.7,24.5,16.4,33.9,25.7c3.7,3.5,7.2,7.2,10.5,11.1c3.4,3.9,6.5,7.9,9.1,12.1c5.4,8.4,10.3,17.4,14.1,26.8
	c3.5,9.4,6.4,19.1,8.6,29.1c1.8,9.9,2.8,20,3.2,30.2c1,40.6-9.3,79.2-22.3,115.7c-13,36.6-28.8,71.5-40.2,107.6
	C514.5,463.4,508.8,500.7,513.1,540.2z"/>
</svg>
