<?xml version="1.0" encoding="utf-8"?>
<!-- Generator: Adobe Illustrator 18.0.0, SVG Export Plug-In . SVG Version: 6.00 Build 0)  -->
<!DOCTYPE svg PUBLIC "-//W3C//DTD SVG 1.1//EN" "http://www.w3.org/Graphics/SVG/1.1/DTD/svg11.dtd">
<svg version="1.1" id="Layer_1" xmlns="http://www.w3.org/2000/svg" xmlns:xlink="http://www.w3.org/1999/xlink" x="0px" y="0px"
	 viewBox="0 0 1000 1000" enable-background="new 0 0 1000 1000" xml:space="preserve">
<g>
	<g>
		<path fill="#D29989" d="M634.3,971.9c-4.9-6.2-9.4-13.1-13.2-20.8c-3.8-7.8-7.1-16.4-9.9-25.7c-5.5-18.7-8.8-40.3-10.8-63
			c-2-23.3-3.9-45.7-5.8-67.9c-2.1-22.9-4.7-46-8.5-69c-3.7-22.9-7.1-46-7.3-69.6c-0.1-13,1.3-25.7,2.8-38.3
			c1.4-12.6,2.7-25.1,2.2-37.1c-0.2-5.9-0.9-11.6-1.9-17.2c-0.6-2.8-1.1-5.5-1.8-8.1l-1.1-3.8c-0.4-1.3-0.8-2.5-1.3-3.7
			c-0.8-2.5-1.9-4.9-2.9-7.3c-1.1-2.3-2.1-4.7-3.4-6.9c-2.4-4.5-5.2-8.8-8.2-12.8c-2.9-4-6.2-8.7-9.3-13.1
			c-3.1-4.5-6.2-8.9-9.2-13.4c-6.4-8.7-12.8-17.4-18.7-26.4c-6.3-8.9-12.4-18-17.6-27.5c-2.8-4.6-5.6-9.3-8.1-14.1
			c-2.6-4.8-4.8-9.7-7.1-14.6c-2.5-5-4.7-10.1-6.8-15.3c-2.1-5.2-3.8-10.6-5.9-15.6c-2-5.2-3.9-10.4-5.7-15.7
			c-0.9-2.7-1.8-5.3-2.7-8c-1-2.6-1.9-5.2-2.9-7.8c-3.6-9.6-7-19.6-11.3-29.1c-2.1-4.9-4.1-9.7-6.2-14.6c-1-2.5-2.1-4.9-3.3-7.2
			l-3.4-7.2c-2.4-5.1-4.6-10.1-6.6-15.2c-2.1-4.9-4-9.8-5.7-14.8c-1.6-5-3-10-4.1-15c-1.1-5-2.1-10-2.7-15.2
			c-1-8.7-1.4-17.5-1.7-26.2c-0.4-8.6-0.7-17.2-1.5-25.9c-0.5-5.3-1-10.6-1.7-15.9c-0.7-5.3-1.5-10.5-2.3-15.9
			c-1.7-10.6-3.7-21.5-6-32.1c-3.8-17.2-7-35.1-18.8-52.4c-3-4.4-6.4-9-9.8-13.2c-3.4-4.3-6.8-8.5-10-12.9c-5.6-7.7-0.4-5.4,6.5-3.9
			c6.3,1.4,12.5,2.6,18.8,4c1.5,0.3,1.1-1.5-0.4-1.9c-10-2.3-22-6.6-31.3-6.3c-0.7,0-1.1,0.6-0.7,1.3c5.4,9.1,12.5,17.6,19.3,26.3
			C391,62,394.7,68,397.7,74c1.5,3,2.8,6,3.9,9.1c1.1,3.1,2.1,6.3,3,9.5c3.1,11.7,5.8,23,7.9,34.5c2.1,11.6,3.9,23,5.4,34.3
			c1.4,10.4,2.1,20.9,2.7,31.1c0.6,10.2,1.2,20.4,1.8,30.8c0.3,4.6,0.8,9.2,1.6,13.8c0.7,4.6,1.8,9,2.9,13.6
			c2.2,9.2,5.5,18.2,9.6,27.5c9.3,22.1,20.5,43.6,28.1,65.8c1.9,5.3,3.8,10.5,5.7,15.8c1.8,5.4,3.6,10.7,5.5,16c1,2.6,1.9,5.2,3,7.8
			c0.5,1.3,1,2.6,1.5,3.9l1.4,4c1.9,5.3,4,10.5,6.3,15.7c1.1,2.6,2.3,5.1,3.5,7.5c1.1,2.6,2.3,5.1,3.5,7.6c2.4,5,5.1,9.8,7.9,14.5
			l2.2,3.5c0.7,1.2,1.4,2.4,2.1,3.6c1.4,2.4,2.8,4.7,4.3,7.1c2.9,4.7,6,9.3,9.2,13.8c1.7,2.2,3.1,4.6,4.7,6.9
			c1.5,2.3,3.1,4.6,4.7,6.9c3.2,4.6,6.5,9.1,9.9,13.6c3.3,4.6,6.4,9.3,9.6,13.9c1.6,2.3,3.2,4.6,4.8,6.9c1.6,2.3,3.3,4.7,4.8,6.7
			l1.3,1.8c4.9,6.4,9,13.5,12.2,21.2c0.8,1.9,1.6,3.9,2.3,5.8c0.7,2,1.4,4,1.9,6c1.2,4.2,2.2,8.6,2.9,13.2c1.7,10.2,1.5,21.1,0.7,32
			c-0.8,11-2.2,22.1-3.4,33.4c-2,19.9-1,39.6,1.4,59.2c2.3,19.6,6,39.1,8.9,58.3c6.5,42.8,7.3,86.5,12,126.3
			c2.4,19.9,5.8,38.7,11.4,55c5.5,16.3,13.1,29.9,22.4,40.8C633.8,973.2,634.7,972.4,634.3,971.9z"/>
	</g>
	<g>
		<path fill="#D29989" d="M583,582.2c2.9-13.1,6.3-25.5,9.4-37.6c1.5-6.1,3-12.4,4.2-18.8c1.3-6.4,2.2-13,2.9-19.7
			c1-12.1,2.4-24.4,3.7-36.8c0.6-4.8,0.7-9.4,1.1-14.2c0.3-4.8,0.5-9.5,0.6-14.4c0.1-4.8,0.2-9.7,0.2-14.7
			c-0.1-4.9-0.5-9.8-0.9-14.8c-0.5-5.4-1.1-10.9-2-16.5c-0.4-2.8-0.9-5.5-1.4-8.3c-0.6-2.8-1.3-5.5-2-8.2c-1.5-5.5-3.1-11-4.8-16.6
			c-1.8-5.5-3.6-11.2-5.9-16.7c-2.6-6.3-5.3-12.7-8-19c-1.4-3.2-2.7-6.4-4.1-9.6c-1.5-3.1-2.9-6.3-4.4-9.4c-2.9-6.3-5.7-12.6-8.4-19
			c-2.7-6.4-5.6-12.5-8-19c-2-5.2-3.9-10.5-5.5-15.8c-1.8-5.2-3.5-10.3-5.1-15.5c-3.2-10.3-5.8-21-8.9-31.1
			c-2.8-9.4-5.4-19-8.4-28.6c-3.1-9.4-6.5-19-10.4-28.7c-1.9-4.9-4.1-9.6-6.4-14.3c-2.3-4.7-4.8-9.5-7.5-14.2
			c-5.3-9.6-11.7-18.6-19-27.6c-14.7-18-33.8-33.8-54.3-45.4c-5.1-3-10.3-5.4-15.6-7.8c-5.3-2.3-10.6-4.4-15.9-6.2
			c-10.6-3.4-21.2-5.5-31.5-6.5c-1.7-0.2-1.3,2,0.5,2.3c6.7,1,13.3,2.3,19.9,4c3.3,0.9,6.6,1.7,9.9,2.8c3.3,1.1,6.6,2.3,9.9,3.6
			c6.6,2.6,13.1,5.4,19.7,9c6.5,3.6,13,7.5,19.3,11.9c5.6,3.7,10.9,8.2,15.9,12.7c5,4.5,9.7,9.1,14.1,14c4.4,5,8.4,10.1,12.2,15.3
			c3.8,5.2,7.3,10.3,10.5,15.8c5.8,9.9,10.8,19.7,15,29.6c4.1,10.1,7.7,20,11,29.8c3.2,9.9,5.9,20.1,8.9,29.9c3,9.8,5.5,20,8.6,29.9
			c1.6,5.3,3.4,10.6,5.3,15.8c1.8,5.3,3.7,10.7,5.7,15.9c2,5.3,4.2,10.5,6.5,15.7c2.2,5.3,4.4,10.7,6.8,16c2.8,6.4,5.9,12.6,8.7,19
			c2.7,6.4,5.4,12.8,8.1,19.2c5.6,12.6,9.8,25.7,13.4,38.6c0.7,2.6,1.4,5.3,2,7.9c0.6,2.6,1,5.3,1.4,8c0.8,5.3,1.5,10.5,2,15.7
			c0.5,5.2,0.8,10.3,1.1,15.3c0.1,5.1,0,10.2-0.2,15.3c-0.2,5-0.4,10-0.7,14.9l-0.5,7.4c-0.2,2.4-0.3,4.9-0.7,7.3
			c-1.1,9.8-2.2,19.5-3.2,29c-0.3,2.8-0.5,5.6-0.8,8.4c-0.8,6.5-1.7,12.9-3,19.3c-1.2,6.3-2.7,12.5-4.2,18.5c-0.4,1.5-0.7,3-1.1,4.5
			c-0.4,1.5-0.8,3-1.1,4.5c-0.7,3-1.5,6.1-2.2,9.1c-1.4,6.1-2.7,12.3-3.7,18.7C581.6,582.7,582.8,583.2,583,582.2z"/>
	</g>
	<g>
		<path fill="#D29989" d="M584.5,574.5c3.2-10.2,5.1-20.8,5.6-31.3c0.3-10.5-0.8-21.4-3.9-31.8c-1.7-5.6-3.7-11.6-5.7-17.5
			c-2.1-5.8-4-11.8-6.4-17.5c-2.4-5.7-5-11.4-7.5-17.1l-3.9-8.6c-0.7-1.4-1.3-2.9-2-4.3l-2.2-4.2c-3-5.7-5.7-11.6-8.1-17.6
			c-1.2-3-2.3-6-3.5-9c-1.2-3-2.4-6-3.5-9c-2.2-6.1-4.2-12.2-5.9-18.5c-0.8-3.2-1.9-6.2-2.8-9.3c-0.9-3.1-1.8-6.2-2.7-9.3
			c-1.7-6.2-3.2-12.6-4.8-18.9c-1.7-6.2-3.3-12.5-4.8-18.8c-2.9-12.7-6.3-24.8-9.4-37c-11.2-41.9-23.5-84.6-42.4-126.6
			c-18.8-41.9-44.4-83.1-79.8-119.1c-7-7.1-14.2-13.8-21.8-20.4c-1.4-1.2-2.9,0-1.6,1.2c39,34.1,68.3,74.5,89.9,116.6
			c21.7,42.1,35.9,85.7,47.6,128.1c0.8,2.8,1.6,5.6,2.4,8.4c0.8,2.8,1.6,5.6,2.3,8.5c1.5,5.7,2.9,11.4,4.4,17.2
			c0.8,2.8,1.5,5.7,2.3,8.5l1.2,4.3l1,4.4c1.4,5.8,2.9,11.6,4.4,17.3c3.3,11.3,5.9,23,9.3,34.2c0.8,2.8,1.7,5.6,2.6,8.4
			c0.8,2.9,1.6,5.7,2.5,8.5c1.7,5.7,3.5,11.3,5.5,16.8c2.3,5.9,4.4,11.9,7,17.7c2.6,5.8,5.4,11.5,8.3,17.1
			c2.8,5.7,5.5,11.5,8.3,17.3c2.7,5.8,5.5,11.5,7.8,17.4c1.9,5.2,3.7,10.4,5.5,15.6c1.7,5.2,3.4,10.6,4.9,15.6
			c1.7,6.2,2.8,12.5,3.3,18.8c0.5,6.3,0.4,12.6-0.1,18.7c-0.7,8.2-2.3,16.6-4.6,24.7C583.1,575,584.2,575.3,584.5,574.5z"/>
	</g>
	<g>
		<path fill="#D29989" d="M588.3,744.4c-1.1-17-6.2-32.6-11.4-47.4c-6.2-17.7-13.4-34.6-20.1-51.6c-6.7-17.1-10.9-33.9-13.7-50.8
			c-1.4-8.9-2.6-17.3-4-25c-0.8-3.8-1.5-7.5-2.4-10.8l-0.6-2.3l-0.8-2.2c-0.5-1.5-1.1-2.9-1.6-4.4c-2.2-5.3-5.1-10.2-9-14.2
			c-2.3-2.8-5.2-6.6-8-9.9c-2.9-3.4-5.9-6.6-9-9.7c-1.7-1.6-3.4-3.2-5.1-4.6c-1.8-1.4-3.7-2.8-5.6-4.1c-3.8-2.6-7.6-5-11.5-7.2
			c-3.9-2.3-7.7-4.4-11.5-6.6c-3.8-2.1-7.9-4.1-11.6-6.3c-3.8-2.2-7.4-4.5-10.7-7c-1.7-1.3-3.3-2.6-4.8-4c-1.5-1.4-3.2-2.7-4.7-4.1
			c-3.1-2.8-5.9-5.8-8.4-9.1c-1.3-1.7-2.5-3.4-3.6-5.2c-0.6-0.9-1.1-1.8-1.7-2.7c-0.6-0.9-1.2-1.8-1.7-2.7
			c-2.2-3.7-4.1-7.6-5.5-11.7c-0.7-2-1.4-4.1-1.9-6.2c-0.3-1.1-0.5-2.1-0.8-3.2c-0.3-1-0.5-2.1-0.8-3.1c-1.8-8.3-2.2-17-1.3-25.6
			c0.1-1.4-2-1.6-2.1-0.3c-0.9,7.3-0.9,14.8,0.3,21.8c0.5,3.6,1.5,6.9,2.4,10.5c0.9,3.5,2.1,7,3.5,10.3c1.4,3.3,3.1,6.5,5,9.6
			c1,1.5,1.9,3.1,2.9,4.6c1,1.5,2,3.1,3.1,4.5c2.2,2.9,4.6,5.7,7.2,8.4c2.6,2.6,5.5,5,8.3,7.5c6.9,5.8,14.8,10.3,23,14.6
			c7.9,4.6,16,8.9,23.9,14c2.8,1.9,5.7,3.8,8.2,6.1c2.5,2.2,5,4.6,7.4,7c2.4,2.5,4.7,5,6.9,7.7c1.1,1.3,2.2,2.7,3.3,4.1
			c1,1.2,1.9,2.4,2.9,3.5c2.9,2.9,5.3,6.3,7.3,10.1c1.3,2.6,2.6,5.3,3.5,8.1l0.8,2.1l0.7,2.1c0.5,1.6,0.9,3.3,1.3,5
			c1.6,6.8,2.9,14.4,4.1,22.5c2.5,16.2,5.1,34,11.7,52.4c12.2,34,29.5,66.7,35.5,106C587.6,745.5,588.3,745.1,588.3,744.4z"/>
	</g>
	<g>
		<path fill="#D29989" d="M556.8,650.1c-7.7-17.6-18.5-34.7-35-44.4c-9.7-5.7-20.8-8.6-31.2-12.9c-10.4-4.3-20.8-10.6-26-20.6
			c-1.2-2.2-2.1-4.6-3.8-6.5c-2.9-3.1-6.6-1.1-9.2-4.5l-3.1-3.9c-2.1-2.6-4.1-5.2-6.1-7.9c-2-2.6-3.9-5.3-5.9-7.9
			c-2-2.6-4-5.2-5.9-7.8c-5-7.1-9.1-14.9-13.1-22.3c-3.9-7.6-6.7-15.8-9.4-23.6c-1.2-3.8-2.2-7.7-2.8-11.7c-0.3-2-0.6-4-0.8-5.9
			c-0.3-1.9-0.5-3.8-0.7-5.8c-0.6-7.7-0.2-15.6,0.9-23.5c0.9-7.7,2.7-15.4,5.2-23c2.5-7.6,5.8-15.1,9.5-22.1
			c0.5-0.9-0.8-1.9-1.5-1.1c-8.5,10.9-12.5,26.4-14.9,40c-0.6,3.6-1,7.1-1.4,10.7c-0.4,3.6-0.6,7.3-0.6,10.9c0,3.6,0.2,7.2,0.5,10.7
			c0.2,1.8,0.4,3.5,0.7,5.2c0.2,1.8,0.5,3.6,0.8,5.4c0.8,4.3,1.8,8.4,3,12.4c0.6,2,1.3,3.9,2.1,5.8c0.8,1.9,1.4,3.9,2.2,5.8
			c1.5,3.9,3.3,7.6,5.2,11.2c1.9,3.7,4.2,7.1,6.2,10.8c2.1,3.6,4.4,7.2,6.8,10.7c1.2,1.8,2.5,3.5,3.7,5.2c1.3,1.7,2.6,3.4,3.8,5.2
			c2.5,3.6,5.1,7.1,7.7,10.6c2.1,2.8,3.7,7,7.1,8.5c5.5,2.5,8.2,2.3,10.9,8.2c5,10.6,15.7,17.4,26.5,21.9
			c10.8,4.5,22.4,7.5,32.4,13.7c16.1,9.9,26.4,26.8,36.1,43C557,650.6,556.9,650.3,556.8,650.1z"/>
	</g>
	<g>
		<path fill="#D29989" d="M459,485.9c-3.7-3.3-5.7-8.4-7.1-13.9c-1.6-5.3-2.5-10.9-3.6-15.5c-0.6-2.5-1.1-5.1-1.6-7.6
			c-0.5-2.6-1-5.2-1.6-7.6c-1.1-5-2.1-10.1-3.1-15.2c-1.7-10.5-3.7-20.4-5-31c-0.3-2.6-0.6-5.3-1-7.9c-0.4-2.6-0.7-5.2-1.1-7.7
			c-0.7-5.2-1.3-10.4-1.8-15.7c-0.1-1.1-1.5-1.5-1.8-0.5c-6,15-12.9,29.3-19,43.8c-0.4,0.8,1,1.7,1.4,0.9
			c3.9-7.1,7.1-14.1,10.3-21.5c3.1-7.3,6.1-14.9,9.1-22.4l-1.8-0.5c0.5,5.8,1.2,11.4,1.9,17c0.4,2.8,0.8,5.6,1.2,8.4
			c0.3,2.9,0.7,5.7,1.1,8.5c0.8,5.6,1.7,11.2,2.7,16.7c0.6,2.7,0.9,5.6,1.4,8.4c0.5,2.8,1,5.6,1.5,8.4c1,5.2,2.2,10.2,3.3,15.3
			c1,5.2,2.2,10.3,3.4,15.4c0.5,2.1,1,4.3,1.5,6.6c0.5,2.3,1.2,4.5,1.9,6.8c1.4,4.6,3.5,8.7,7.2,11.5
			C458.9,486.7,459.3,486.2,459,485.9z"/>
	</g>
	<g>
		<path fill="#D29989" d="M550.9,636.7c-7-15.4-14-30.8-23-45.1c-6.1-9.7-13.1-18.9-21.4-26.8c-3.9-3.8-8.2-7.8-13-10.3
			c-5-2.6-9.5-5.2-13.2-9.6c-2-2.4-4-4.9-6.1-7.2c-3.1-3.4-6.2-7-9.7-10.3c-3.5-3.2-7-6.5-10.6-9.9c-3.5-3.3-7-6.6-10.4-10
			c-3.6-3.2-7.1-6.4-10.4-9.8c-3.3-3.3-6.4-6.8-9.4-10.3c-3.1-3.4-6-6.8-8.5-10.5c-1.3-1.8-2.5-3.7-3.6-5.7c-1.1-1.9-2.1-4-3.2-5.9
			c-2.1-3.9-3.8-8.1-5.1-12.6c-0.3-1.1-1.9-0.5-1.7,0.6c1,4.7,2.8,9,5,13.2c1.2,2,2.3,4.2,3.5,6.2c1.2,2.1,2.6,4.1,4,6
			c2.9,3.9,6.2,7.5,9.4,11.2c3.2,3.7,6.5,7.3,9.8,10.7c3.1,3.2,6.5,6.2,9.7,9.4c3.2,3.2,6.4,6.3,9.8,9.4l10.1,9.4
			c3.3,3.2,6.4,6.7,9.6,10.1c2,2.2,4,4.5,6,6.9c5.8,7,15.5,11,22.5,17.1c22.7,19.7,36.7,47.3,50.1,74.2
			C551.1,637,551,636.9,550.9,636.7z"/>
	</g>
	<g>
		<path fill="#D29989" d="M420,438.7c0.3-2.5,0.5-5,0.7-7.6c0.2-2.5,0.2-4.9,0.3-7.4c0.2-4.9,0.6-9.9,1.6-14.9
			c2.9-14.5,8.5-27.4,11.2-41.9c0.2-1-1.1-1.5-1.5-0.6c-2.5,6.3-4.7,13.2-6.6,20.1c-0.9,3.5-1.8,6.9-2.5,10.4
			c-0.8,3.5-1.6,7-2.3,10.4c-1,5.1-1.8,10.4-2.2,15.6c-0.2,2.6-0.3,5.2-0.3,7.8c0,2.6,0,5.3,0.2,7.9
			C418.7,439.3,419.9,439.4,420,438.7z"/>
	</g>
</g>
</svg>
