<?xml version="1.0" encoding="utf-8"?>
<!-- Generator: Adobe Illustrator 18.0.0, SVG Export Plug-In . SVG Version: 6.00 Build 0)  -->
<!DOCTYPE svg PUBLIC "-//W3C//DTD SVG 1.1//EN" "http://www.w3.org/Graphics/SVG/1.1/DTD/svg11.dtd">
<svg version="1.1" id="Layer_1" xmlns="http://www.w3.org/2000/svg" xmlns:xlink="http://www.w3.org/1999/xlink" x="0px" y="0px"
	 viewBox="0 0 1000 1000" enable-background="new 0 0 1000 1000" xml:space="preserve">
<g>
	<g>
		<path fill="#fff" d="M366.3,464.5c5.8-6,13.1-4.7,20.6-1.6c7.8,2.6,15.4,7.5,22,8.4c5.9,0.7,12.5-2.1,18.8-5.5
			c9.2-4.7,17.6-8.7,26.8-10.6c15.7-3.3,30.6-2.7,46.2-5.7c7.9-1.4,15.6-4.2,23.1-7.9c7.5-3.7,14.9-8.3,22.3-13.2
			c8.8-5.8,17.4-11.6,26.1-17c8.6-5.4,17.4-10.5,26.3-15.4c17.5-9.3,33.9-19.4,48.7-33.9c3.7-3.6,7.3-7.3,10.7-11.2
			c3.4-3.9,6.6-7.9,9.8-11.9c6.4-8.1,12.5-16.4,18.3-24.7c5.6-8,11.3-15.9,15.8-24.3c4.6-8.4,8.5-17,11.3-26c2.9-10,4-20,4.9-29.9
			c0.4-4.9,0.9-9.8,1.3-14.8c0.4-5,0.8-9.9,1.5-14.8c0.9-6.3,2.5-12.3,4.6-18c2.1-5.8,4.3-11.5,7-17.1c2.6-5.6,5.5-11.1,8.3-16.7
			c1.5-2.8,2.8-5.6,4.1-8.5c1.3-2.9,2.5-5.8,3.7-8.7c2-4.8,3.5-9.6,4.7-14.5c1.2-4.8,2.1-9.7,2.5-14.8c1-11,0.4-21.6,1.7-32.3
			c0.6-4.2,1-8.6,1.4-12.9c0.4-4.3,0.7-8.6,0.9-12.8c0.2-8.5-0.4-16.7-3.3-24.3c-0.3-0.8-1.5-0.2-1.2,0.6c5.1,14,3,30.2,1.2,46
			c-1.2,8.1-1.4,16.2-1.7,24.3c-0.4,8.1-0.6,16.5-2.6,24.6c-2.2,9.6-6.1,18.6-10.4,27.6c-4.5,8.8-9.5,17.5-13.4,26.6
			c-3.3,8.2-6,16-7.8,24c-1.8,8-2.6,16.2-3.4,24.6c-0.9,8.6-1.6,17.2-2.8,25.9c-0.6,4.3-1.4,8.7-2.5,13.1c-1.1,4.3-2.5,8.7-4.3,13
			c-7.7,19.8-22,38.1-35,55.5c-6.7,8.7-13.4,17.4-21.1,25.3c-7.6,8-15.6,15.4-24.5,21.8c-8.7,6.3-17.8,11.4-26.9,16.3
			c-9.2,5-18.6,9.7-27.6,15.2c-19.4,11.9-37.7,27.6-58.7,35.5c-18.7,6.8-36.9,5.5-55.2,8.4c-7.6,1.2-15.3,3.4-23,7.1
			c-5.5,2.6-10.7,5.9-16.3,8.1c-6.8,2.7-12.7,1.3-17.9-0.8c-2.7-1.1-5.7-2.5-8.9-3.8c-1.6-0.6-3.2-1.3-4.9-1.8
			c-1.6-0.6-3.5-0.8-5-1.3c-6.3-1.9-12.4-1.8-17.5,3.6C364.6,464.3,365.7,465.1,366.3,464.5z"/>
	</g>
	<g>
		<path fill="#fff" d="M352.8,475.8c2.3-1.8,4.4-3.7,6.3-5.8c1.9-2.1,3.8-4.2,5.5-6.4c1.5-1.9,2.9-3.9,4.4-5.9
			c1.3-1.7-0.1-1.1,0.4-0.4c0.4,0.5,1.1,0.3,1.3-0.2c0.6-1.4-1.2-4.5-1.7-5.7c-0.4-1-0.8-1.9-1.2-3c-0.2-1.2-0.5-2.4-0.8-3.6
			c-0.6-2.3-1.5-4.5-2.7-6.4c-3.2-5.1-4.9-11.3-3.1-19.3c1-4.4,3-9.1,5.5-13.7c1.2-2.3,2.6-4.6,3.9-6.8c1.4-2.2,2.7-4.2,4.1-6.2
			c5.8-8.6,12.3-16.7,19.4-24.4c7-7.4,14.4-14,22.1-20c3.6-2.8,7.4-5.5,11.1-7.8c3.7-2.2,7.5-4.2,11.3-5.9
			c9.1-4.1,18.3-5.5,27.4-9.1c16.6-6.3,30.9-18.7,43.8-31.1c6.4-6.3,12.9-12.6,19.3-18.9c6.3-6,13-11.9,19.8-16.7
			c7.7-5.4,15.7-9.9,24-14.3c8.1-4.3,16-8.4,23.9-13.1c3.6-2.1,7.2-4.4,10.5-6.8c3.3-2.4,6.5-5,9.6-7.6c3.2-2.6,6.3-5.3,9.4-8.1
			c3.1-2.7,6.3-5.5,9.2-8.3c6.7-6.2,13.7-11.9,21.6-16.5c8.2-4.8,17.1-6.5,25.3-11.7c3.6-2.4,6.9-5.5,9.9-8.9
			c2.9-3.5,5.5-7.2,8.1-10.7c6.7-9.2,13.8-18.3,19.8-28.1c2.8-4.4,5.7-8.9,8.5-13.3c2.8-4.5,5.8-8.9,8.3-13.6
			c5.1-9.3,10-18.8,14.4-28.5c6-14.7,9.4-31,5-45.1c-0.3-0.8-1.5-0.2-1.2,0.6c2.3,7.9,2.2,16.2,0.6,24.5c-1.6,8.3-4.3,16.8-8.2,24.5
			c-4.1,8.7-8.7,17.2-13.4,25.7c-4.9,8.3-10.3,16.3-15.4,24.4l-4,6.2l-2,3.1l-2.2,3l-8.7,11.9c-3.2,4.4-6.4,8.9-9.9,13.1
			c-3.6,4.2-7.6,7.9-12.1,10.8c-6.8,4.4-14.8,5.9-21.8,9.6c-7,3.5-13.3,8.5-19.3,13.6c-3.4,2.9-6.5,5.8-9.8,8.7
			c-3.3,2.9-6.7,5.8-10,8.7c-6.7,5.7-13.3,11.2-21.1,15.9c-7.3,4.5-14.8,8.4-22.2,12.4c-7.5,4-15.2,8.1-22.6,12.7
			c-3.7,2.3-7,4.8-10.6,7.6c-3.5,2.8-6.9,5.8-10.3,8.8c-6.7,6.2-13,12.7-19.9,19.4c-6.8,6.7-13.5,13-21,18.8
			c-7.5,5.9-15.3,10.9-23.9,14.5c-4.5,1.8-9.2,3.3-13.8,4.7c-4.6,1.4-9.3,2.7-13.9,4.5c-7.8,3.1-15.3,7.7-22.8,13.4
			c-7.9,5.8-15.4,12.6-22.5,19.9c-7.2,7.7-13.9,16-19.9,24.5c-2.2,3.1-4.3,6.2-6.3,9.6c-2,3.4-3.9,6.9-5.4,10.4
			c-3.1,7-5,13.9-4.3,20.2c0.7,6.1,4.4,9.7,6.1,15c0.2,0.7,0.4,1.4,0.6,2.1l0.8,1.7c0.5,1.2,1,2.3,1.5,3.5c0.3,0.8,1.9,4.1,1.7,4.6
			l1.3-0.2c-0.2-0.2-0.3-0.5-0.4-0.8c-0.2-0.4-0.6-0.6-1-0.4c-1.7,0.6-3.3,4.2-4.3,5.5c-1.8,2.5-3.9,5-6,7.4
			c-2.1,2.4-4.3,4.7-6.8,6.9C351.8,475.4,352.3,476.2,352.8,475.8z"/>
	</g>
	<g>
		<path fill="#fff" d="M149.3,975.3c-4-29.1-8.6-58.8-11-89.6c-2.4-30.7-2.3-62.6,1.8-93.3c4.4-34.1,14.4-67.5,26.8-96.9
			c12.4-29.4,26.9-55.3,41.6-77.9c14.2-21.8,28.6-40.6,42.7-56.8c14.1-16.2,27.8-30,41.4-41.8c14.2-12.3,28.3-21.7,42.3-30.6
			c13.9-8.8,27.2-17.6,36.8-29.9c0.8-1-0.8-2.2-1.7-1.2c-10.1,12.4-23.7,21.3-38,30.4c-13.1,8.2-26.1,17.2-39.3,28.4
			c-13.4,11.4-26.9,24.7-40.7,40.5c-13.8,15.8-28,34-42.1,55c-14,20.9-28,44.9-40.3,72.2c-12.3,27.2-22.8,58-28.8,90.1
			c-6.4,33.6-7.5,69-5.1,102.9c2.3,34.1,7.8,66.5,12.7,98.6C148.6,976.6,149.5,976.5,149.3,975.3z"/>
	</g>
	<g>
		<path fill="#fff" d="M367.9,461.7c1.3-1.7,2.7-3.3,4.1-4.9l2.2-2.3l0.6-0.6l0.8-0.9l1.6-1.8c4.4-4.9,9-9.5,13.6-14
			c4.6-4.5,9.4-8.9,14.2-13.1c4.8-4,9.7-8,14.6-11.8l14.8-11.5c4.9-3.8,9.8-7.3,14.7-10.9c9.8-7.2,19.7-14.4,29.3-21
			c38.4-27.2,75.5-51.4,110.7-76.1c33.9-23.7,65.8-48.8,93.2-78.9c2.7-3,5.4-6,8.1-9.1c2.6-3.1,5-6.3,7.4-9.5
			c4.8-6.5,9.4-13.1,13.9-19.8c4.2-6.9,8.1-13.9,12-21c1.9-3.6,3.8-7.1,5.6-10.7c1.8-3.6,3.3-7.3,4.9-11c3.5-8.1,6.7-16.3,9.7-24.5
			c2.8-8.4,5.1-16.9,7.3-25.3c1-4,2-8,2.9-12c1-4,1.5-8.2,2.1-12.3c1.1-8.2,1.8-16.4,1.7-24.4c0-0.4-0.7-0.4-0.7,0
			c-1.6,15.8-3.6,32.2-7.8,47.9c-2,7.9-4.1,15.8-6.5,23.7c-2.7,7.7-5.6,15.4-8.7,23.1c-1.6,3.8-3.2,7.6-4.9,11.4
			c-1.7,3.8-3.7,7.4-5.6,11.1c-3.9,7.3-8,14.5-12.2,21.6c-4.5,7-9.3,13.7-14.3,20.4c-2.5,3.3-5,6.6-7.6,9.8
			c-2.7,3.2-5.5,6.3-8.3,9.4c-27.3,30.1-59.3,55-93.1,78.7c-35.1,24.7-72.3,48.8-110.7,76c-10,6.9-20.2,14.4-30.4,21.9
			c-5.1,3.8-10.2,7.4-15.3,11.4l-15.4,12c-4.7,3.7-9.5,7.5-14.2,11.5c-4.7,4.1-9.3,8.4-13.8,12.9c-4.5,4.4-8.9,9.1-13.1,13.9
			l-2.7,3.1c-0.7,0.8-1.4,1.5-2,2.3c-1.3,1.6-2.6,3.2-3.7,4.9C366.5,461.6,367.4,462.3,367.9,461.7z"/>
	</g>
	<g>
		<path fill="#fff" d="M371.1,458.3c1.6-0.9,3.2-1.7,4.8-2.6c0.7-0.3,1.9-1.2,3-1.9l3.3-2.3c4.4-3,8.7-5.8,13.1-8.6
			c8.8-5.4,17.6-10.6,26.5-14.8c8.9-4.4,17.7-8.5,26.6-12.4c8.8-4,17.6-7.3,26.3-11c17.5-7.3,34.7-14.1,51.7-22.7
			c17.4-8.6,34.3-19.7,50.2-30.9c4.2-3,8.5-6.1,12.7-9.2l12.3-9.3c8.2-6.3,16.4-12.7,24.2-19c7.8-6.4,15.8-13,22.9-20.2
			c7.2-7.1,14.1-14.6,20.3-22.7c5.5-7.4,10.3-15.2,15-23.1c2.4-3.9,4.5-7.9,6.6-11.9l6.4-12l4.5-8.1l2.3-4l2.1-4.1l8.5-16.4
			c5.9-10.9,10.9-22.2,15.9-33.4c5.2-11.1,9.3-22.7,13.3-34.3c1.8-5.3,3.6-10.5,5.2-15.9c1.4-5.4,2.8-10.9,3.9-16.4
			c2.2-10.9,4.1-21.7,3.7-32.6c0-1-1.4-0.7-1.4,0.3c0,3.4-0.1,6.9-0.4,10.3c-0.3,3.4-0.8,6.8-1.3,10.2c-1.1,6.8-2.5,13.7-4.2,20.6
			c-0.9,3.4-1.7,6.9-2.7,10.3c-1.1,3.4-2.2,6.7-3.4,10.1c-2.3,6.7-4.7,13.4-7.2,20l-1.9,5l-2.1,4.9l-4.3,9.7
			c-2.9,6.5-5.8,12.9-8.8,19.4l-9.8,19c-3.3,6.3-6.5,12.7-10.1,19c-3.9,7-7.6,14-11.4,21.1c-3.8,7.1-8.1,13.9-12.4,20.8
			c-3,4.6-6.1,9.1-9.5,13.4c-3.5,4.3-7.1,8.4-10.8,12.4c-3.7,4-7.6,7.9-11.5,11.6c-4.1,3.7-8.3,7.4-12.5,11
			c-31.2,26.3-65.7,53-102.6,72.1c-12.9,6.8-25.9,12.5-39.1,17.9c-13.3,5.7-26.6,10.8-40.1,16.6c-13.4,6-26.9,12.1-40.3,19.6
			c-6.7,3.8-13.4,7.9-20,12.3c-3.3,2.2-6.6,4.5-9.9,6.9l-2.5,1.8c-0.7,0.4-1.3,0.7-1.9,1l-3.6,2.1
			C370.5,457.9,370.8,458.4,371.1,458.3z"/>
	</g>
	<g>
		<path fill="#fff" d="M366.4,462.2c1.4-4.1,2.7-7.8,4.5-11.7c3-5.6,6.2-11.1,9.5-16.5c3.3-5.4,6.9-10.7,10.5-15.9
			c3.7-5.2,7.5-9.9,11.4-14.8c7.9-9.5,16.4-18.8,25.1-26.8c4.4-4.1,8.9-8,13.5-11.8c2.3-1.9,4.6-3.8,7-5.6c2.3-1.7,4.6-3.5,7-5.1
			c8.7-6.2,17.8-12.2,26.6-17.7c8.8-5.4,17.6-10.8,26.3-16.3c8.9-5.6,17.3-11.4,25.6-17.7l6.2-4.7l5.9-4.8c3.9-3.2,7.8-6.5,11.7-9.9
			c7.9-6.9,15.3-13.4,23.1-19.7c3.9-3.1,7.8-6.2,11.8-9.2c3.8-3,7.7-5.9,11.7-8.8c7.8-5.6,15.9-11,23.5-16.4
			c7.7-5.4,15.8-10.7,23.4-16.2c7.3-5.3,14.5-10.7,21.6-16.4c3.6-2.8,6.9-5.8,10.2-8.7c3.3-3,6.6-6.1,9.8-9.2
			c3.2-3.1,6.4-6.4,9.6-9.7c3-3.4,5.9-6.9,8.7-10.4c2.8-3.6,5.6-7.2,8.3-11c2.7-3.8,5.4-7.6,7.7-11.7c3.2-5.5,6.2-11.2,9.1-17
			c2.8-5.8,5.7-11.6,7.9-17.8c2.3-6.1,4.3-12.3,6.2-18.4c0.9-3.1,1.8-6.2,2.6-9.2c0.8-3.1,1.6-6.1,2.1-9.3c0.1-0.8-0.9-0.9-1-0.1
			C743,101.9,727.5,138,700.8,168c-25.7,28.2-58,47.8-88.6,69.1c-8,5.5-15.8,11.1-23.4,17.1c-7.9,6-15.6,12.2-23,18.8
			c-7.7,6.7-15.6,13.6-23.4,20.1c-3.9,3.2-8,6.5-12.3,9.7c-4.2,3.2-8.5,6.2-12.9,9.2c-33.4,22.4-69.9,40.8-102.4,74.5
			c-5.5,5.8-10.8,11.9-15.8,18.3c-2.5,3.2-5,6.4-7.3,9.6c-2.4,3.4-4.7,6.8-6.9,10.3c-4.5,6.9-8.7,14-12.6,21.1l-1.4,2.7
			c-0.5,0.9-1,1.9-1.2,2.4l-1.4,3.6c-0.9,2.4-1.8,4.9-2.6,7.5C365.3,462.4,366.2,462.8,366.4,462.2z"/>
	</g>
	<g>
		<path fill="#fff" d="M217.7,669.4c16.2-21.6,32.4-39.8,49.6-53.8c8.2-6.7,16.8-12,25.4-15.8c5-2.3,9.8-3.5,14.6-4.6
			c4.8-1.1,9.7-1.9,14.3-2.9c16.7-3.7,30.1-14.6,43.2-24.9c15.5-12.2,31.5-19.8,48.7-25.5c15.1-5.1,30.4-8.9,45.6-11.8
			c14.8-2.3,32.1-6.2,47.9-6.9c8-0.5,15.8-0.5,23.5,0c7.7,0.5,15.3,1.5,22.7,3c14.8,2.9,28.8,7.5,41.7,13.7
			c21.7,10.5,39.3,26.2,65,29.4c12.2,1.5,24.9,0.9,37.6,0.4c12.8-0.6,25.6-1.2,37.8,0.5c22.9,3.2,44.1,13.9,70.2,7.2
			c2.6-0.7,5.1-1.5,7.6-2.6c2.6-1.1,5.1-2.4,7.6-3.9c5.1-2.9,10-6.4,14.9-10.1c9.7-7.2,19.5-16.5,29-23.9c1.1-0.9,0.3-2.3-0.8-1.4
			c-6.9,5.5-13.8,11.4-20.6,17.1c-6.7,5.4-13.5,10.6-20.6,15.1c-3.7,2.4-7.5,4.3-11.2,5.7c-3.6,1.4-7.3,2.3-10.9,3
			c-7.2,1.3-14.4,1.3-21.4,0.6c-7.8-0.8-15.2-2.6-22.7-4.4c-7.3-1.9-14.7-3.8-22.3-4.8c-7.6-1.1-15.5-1.2-23.5-1
			c-8,0.2-16.1,0.7-23.9,1c-16.8,0.5-32.9-0.4-47.6-6.3c-14.9-6-27.4-15.9-41.5-23.1c-12.3-6.3-25.6-10.9-39.6-13.9
			c-14-3-28.8-4.4-43.8-4c-12,0.3-24.4,1.8-37,4.5c-1.6,0.3-3.2,0.7-4.7,1l-4.4,0.7c-2.9,0.5-5.9,1-8.8,1.5
			c-2.9,0.6-5.8,1.2-8.7,1.8c-2.9,0.6-5.9,1.3-8.8,1.9c-24,5.7-49.1,13.1-71.1,29c-12,8.6-23,19.3-37,25.9c-6.6,3.1-13.5,4.6-20.4,6
			c-3.5,0.7-7,1.4-10.5,2.3c-3.5,0.8-7,1.9-10.6,3.4c-3.4,1.4-6.7,3.1-9.9,4.9c-3.3,1.9-6.6,4.1-9.8,6.4c-1.6,1.2-3.2,2.3-4.8,3.6
			c-1.6,1.3-3.2,2.6-4.8,4c-3.2,2.8-6.3,5.5-9.4,8.7c-12.5,12.2-24.8,27.4-36.5,42.9C216.8,669.6,217.3,670,217.7,669.4z"/>
	</g>
	<g>
		<path fill="#fff" d="M329.3,589.2c-6.6,28.4-0.8,57.4,13.5,77.1c15.1,20.8,42.5,29.1,72.5,22.1c28.5-6.8,56.2-26,82.2-43.7
			c7.5-5,14.8-10.1,22.5-14.8c7.5-4.9,15.2-9.3,22.9-13.5c4.3-2.3,8.7-4.4,13-6.4c4.3-2,8.7-3.9,13.1-5.7c2.2-0.9,4.4-1.7,6.6-2.5
			c2.1-0.7,4.2-1.3,6.3-1.9c4.2-1.2,8.4-2.2,12.5-3.1c11.9-2.6,23.4-4,35.1-4.6c11.7-0.6,23.2-0.4,34.5,0.4
			c11.4,0.8,22.9,2.4,34.1,4.5c12,2.3,23.4,6.2,35.6,7.6c10,1.2,21.1-0.7,32.1-4c5.5-1.7,10.9-3.8,16.3-6.1c5.5-2.4,11-5.1,16.2-7.8
			c5.8-3,11.5-6.2,17.1-9.7c5.8-3.7,11.5-7.6,17.1-11.8c2.8-2.1,5.6-4.2,8.3-6.4c2.7-2.2,5.4-4.4,8.2-6.9c5.5-4.9,10.8-9.9,16-15.2
			c1.1-1.1-0.1-2.5-1.2-1.5c-4,3.9-8.1,7.7-12.3,11.5c-4.2,3.8-8.5,7.4-12.7,10.7c-8.4,6.7-17.2,13-26,18.5
			c-8.7,5.3-17.5,10.1-26.5,14.2c-4.5,2.1-8.9,3.8-13.3,5.4c-4.4,1.6-8.8,2.9-13.3,4.1c-19.8,5.3-35.4,0.5-52.7-3.5
			c-15.6-3.6-32.1-5.7-48.4-6.5c-7.8-0.4-15.7-0.4-23.8-0.1c-8,0.3-16.3,1-24.3,2.2c-8.1,1.2-16.3,2.8-24.5,5
			c-4.1,1.1-8.2,2.3-12.3,3.7c-4.3,1.7-8.6,3.4-12.9,5.3c-15.2,6.7-29.7,15-43.8,24.2c-14.2,9-28.2,18.8-42.4,28
			c-16.9,11-34.4,20.9-52.5,26.8c-20.8,6.7-40.9,5.5-57.2-2.4c-15.5-7.5-25.7-21.3-31.1-38c-2.7-8.4-4.2-17.6-4.7-26.9
			c-0.4-9.4,0-18.9,1.5-28.3C330.7,588.2,329.5,588.4,329.3,589.2z"/>
	</g>
	<g>
		<path fill="#fff" d="M329.8,590c28.1-1.3,49.4,16.2,77.9,12.9c7.9-0.9,15.6-3.3,23.5-6.3c7.7-3,15.5-6.5,23.1-9.7
			c18.3-7.4,35.5-9.6,53.5-9.9c17.9-0.3,36.4-1.5,54.3-1.5c18-0.1,35.6,0.2,53.4,1.1c17.8,0.8,35.2,2.1,52.8,3.6
			c17.6,1.5,35,3.2,52.4,4.9c17.8,1.7,35.6,5.2,54.2,3.4c8.7-1,17.5-3.4,26.2-7c4.3-1.8,8.6-3.9,12.8-6.3c4.3-2.6,8.6-5.4,12.7-8.5
			c0.7-0.5,0.2-1.3-0.5-0.9c-3.9,2.8-7.9,5.3-11.9,7.6c-4,2.3-7.9,4.1-11.8,5.8c-7.9,3.4-16,5.8-24.2,7.1
			c-15.3,2.4-29.4-0.2-43.7-1.6c-18-1.7-35.5-3.5-53.3-5c-8.9-0.8-17.9-1.4-26.8-2.1c-8.9-0.6-17.8-1.2-26.7-1.7
			c-8.8-0.5-17.6-0.8-26.5-1.1c-8.8-0.3-17.6-0.4-26.5-0.5c-8.9-0.1-17.8,0-26.8,0.2l-27.1,0.7c-8.1,0.2-16.2,0.2-24.4,0.7
			c-4.1,0.3-8.2,0.7-12.3,1.2c-4.1,0.6-8.3,1.3-12.5,2.3c-15.6,3.9-30.9,12.2-46.5,17.6c-9.8,3.4-19,4.5-27.8,4.1
			c-8.8-0.4-17.4-2.3-26-4.8c-13.1-3.9-26.4-8.9-41.3-8.1C329,588.4,328.8,590.1,329.8,590z"/>
	</g>
	<g>
		<path fill="#fff" d="M330,589.7c28-10.1,54.6-16.6,81.2-22.4c26.6-5.8,53.1-10.8,79.7-16.7c3.4-0.7,6.7-1.5,10.1-2.1
			c3.4-0.6,7-1.6,10.4-2.2c7-1.3,13.8-2.2,20.6-2.5c12.5-0.5,24,2.1,35.2,5.2c20.3,5.7,40.8,14.7,63.9,11c0.6-0.1,0.7-1.1,0.1-1.1
			c-24.9,1.2-45.7-7.2-68.2-13.2c-11.4-3.1-23-3.9-35.1-3.1c-6,0.4-12.2,1.2-18.4,2.4c-3.1,0.6-6.4,1.3-9.5,2
			c-3.1,0.6-6.2,1.2-9.3,1.9c-27.9,6.1-55.6,11.5-83.5,17.5c-25.3,5.5-51.4,11-77.6,22.3C329.2,588.9,329.3,589.9,330,589.7z"/>
	</g>
	<g>
		<path fill="#fff" d="M328.5,593.3c-0.4,4.5-0.4,9.1,0,13.6c0.4,4.6,1.2,9.1,2.4,13.4c2.4,8.6,6.3,16.5,11.2,22.6
			c6,7.3,16.6,10.5,26.1,12.8c11.8,2.8,24.5,3.7,37.2,3.9c22.6,0.4,46.3-3.1,69.9-11.4c5.9-2,11.7-4.5,17.5-7.3
			c5.8-2.8,11.5-5.9,17.1-9.5c5-3.1,10.5-6.7,16.2-9.6c2.8-1.5,5.7-2.8,8.5-3.8c2.8-1,5.5-1.8,8.1-2.1c0.6-0.1,0.9-1.1,0.3-1.1
			c-6.9,0.3-15.1,4.8-22,8.4c-5.1,2.7-10.1,5.8-15.1,8.8c-5,3.1-10,6.1-15.2,8.5c-23.7,11.3-48.2,16.2-71.6,17.5
			c-12.6,0.7-26.1,0.7-38.7-1.1c-12.7-1.8-24.5-5.4-33.7-12.1c-6.8-5-10.3-14.3-13-22.6c-1.4-4.4-2.6-9.1-3.3-14.1
			c-0.7-4.9-1-9.9-0.6-15C330,592.2,328.6,592.4,328.5,593.3z"/>
	</g>
</g>
</svg>
