<?xml version="1.0" encoding="utf-8"?>
<!-- Generator: Adobe Illustrator 18.0.0, SVG Export Plug-In . SVG Version: 6.00 Build 0)  -->
<!DOCTYPE svg PUBLIC "-//W3C//DTD SVG 1.1//EN" "http://www.w3.org/Graphics/SVG/1.1/DTD/svg11.dtd">
<svg version="1.1" id="Layer_1" xmlns="http://www.w3.org/2000/svg" xmlns:xlink="http://www.w3.org/1999/xlink" x="0px" y="0px"
	 viewBox="0 0 1000 1000" enable-background="new 0 0 1000 1000" xml:space="preserve">
<g>
	<g>
		<path fill="#567570" d="M742.4,36.5c-12-2.2-24.3-0.7-36,4.7c-5.7,2.9-11.3,6.7-16.8,11.4c-1.4,1.2-2.8,2.4-4.1,3.7
			c-1.3,1.4-2.5,2.8-3.8,4.2c-2.5,2.9-4.9,6.1-7.3,9.5c-4.8,6.5-8.3,13.6-11.6,20.7c-1.6,3.6-3.2,7.1-4.6,10.7
			c-1.3,3.7-2.5,7.3-3.8,11l-3.7,10.9c-1.2,3.6-2.2,7.4-3.4,11c-2.2,7.3-5,14.4-7.6,21.7c-1.9,5.1-4.4,10.1-7.1,15.2
			c-2.6,5.1-5.3,10.4-8.2,15.5c-1.5,2.6-2.9,5.2-4.4,7.8c-1.4,2.6-2.7,5.2-4.1,7.8c-2.7,5.2-5.2,10.3-7.4,15.3
			c-11.8,27.9-20.4,57.1-27,86.4c-12.7,56.3-16.3,113.2-18.4,169c-1,26.8-1.2,53.4-2.7,80.2c-2,34.1-11.6,64.7-29.1,93
			c-7.7,12.6-16.4,24.3-25.6,35.1c-2.2,2.8-4.7,5.3-7.1,7.8l-7.2,7.5c-2.5,2.4-5.1,4.6-7.6,6.8l-7.8,6.8
			c-22.6,19.6-45.4,38.9-67.8,58.6c-33.4,29.4-66,59.2-95.5,94c-24.3,28.6-48.7,62.9-56.3,99.1c-0.6,2.8,3.5,3.2,4.3,0.3
			c23.7-82.1,103.1-146.7,163.3-199.7c20.4-17.8,40.7-35.5,61.1-53.3c18.9-16.1,35.9-36.7,50.6-59.5c13.5-20.9,21.1-43.1,25.3-65.8
			c4.3-22.7,5.6-46,6.2-70.6c1.4-55.9,3.4-111.9,12.2-168c4.4-28,10.4-56,18.8-83.4c8.3-27.5,19.1-54.4,32.9-79.9
			c3.4-6.7,6.6-12.9,9.4-19c2.7-6.1,4.9-12.2,7.4-18.2c2.3-6,4.3-12.2,6.5-18.6c2.3-6.4,4.7-13.1,7.2-20.2
			c14.4-39.6,42.8-70.7,79.3-65.4C743.3,41.1,744.7,37,742.4,36.5z"/>
	</g>
	<g>
		<path fill="#567570" d="M741.8,37.1c-28.7,4.9-52.9,26.6-67.6,53.8c-14.9,27.3-20.6,59.3-19.6,86.4c1.1,36.8,12.5,69.3,20,103.1
			c0.6,2.7,1.1,5.3,1.6,8c0.5,2.7,1,5.3,1.4,8c0.9,5.3,1.5,10.5,1.9,15.7c1.1,10.5,1,20.7,0.5,31.3c-1.3,20.8-5.5,42.3-13.1,65.1
			c-13.7,41.7-28.1,80.3-35.8,126.9c-3.7,22.2-8.3,43.9-15.1,65.5c-3.2,10.7-7.4,21.5-11.6,32c-4.7,10.6-9.6,21-15.7,31.3
			c-5.5,9.8-12.2,19.1-18.7,27.8c-7.2,8.7-14.1,16.9-22.2,24.2c-2,1.8-3.9,3.6-5.9,5.4l-3,2.6l-3.2,2.5c-4.2,3.2-8.5,6.3-12.6,9.1
			c-8.3,5.3-16.6,9.5-25,13.8c-33.6,16.7-68.4,27.6-102.7,33c-2.6,0.4-3.5,4.9-0.8,4.6c30.2-2.4,61-11.1,91.2-24.8
			c7.5-3.4,15-7.2,22.5-11.2c3.7-2,7.4-4.1,11.1-6.3c3.7-2.2,7.3-4.2,11.1-7.2c3.8-2.8,7.6-5.7,11.4-8.7c3.9-3,7.2-6.4,10.8-9.7
			c7.3-6.7,13.6-14.1,20-21.8c23.9-29.6,40-65,51-100.6c15.1-50.1,17.5-98.3,33.5-144.3c12.9-37.5,26.9-72,29.3-110.1
			c2.2-34.4-7.2-66.8-14.4-97.7c-3.7-15.4-7.6-33.6-9.6-53.4c-0.6-5-0.8-10-1-15c-0.2-5.1-0.2-10.3-0.2-15.5
			c0.1-5.2,0.6-10.4,1.2-15.6c0.6-5.2,1.1-10.6,2.3-15.7c2.3-10.2,4.9-20.7,9.4-30.1c2.1-4.8,4.4-9.5,7-14c2.7-4.4,5.8-8.6,8.9-12.7
			c12.7-16.2,30.5-28,51.5-32.3C743.4,39.8,743.8,36.7,741.8,37.1z"/>
	</g>
	<g>
		<path fill="#567570" d="M713.4,43.2c-25.6,23.4-46.9,53.1-60.8,85.1c-14,32-20.8,66-20.1,98.3c1.1,41.7-1,77.9-7,120.4
			c-4.9,35.4-8.9,70.5-5.9,106.2c3.2,39.9,0.3,74.9-13.7,115c-6.7,19.3-15.6,37.9-25.6,55.5c-10.4,17.6-21.6,34.3-34.3,49.5
			c-10.3,12.9-21.9,24.5-33.7,34.8c-6.2,5-12.3,9.6-18.6,14c-6.5,4.5-13,8.9-19.5,13.2c-26.1,17.3-52.6,33.4-79.6,48.1
			c-1.6,0.9-1,3.6,0.5,2.8c26.3-12.2,52.2-27.4,77.7-44.3c6.4-4.2,12.7-8.5,19-12.9c3.1-2.2,6.3-4.4,9.4-6.7l9-7
			c6.3-4.7,11.7-10.1,17.5-15.6c3-2.7,5.5-5.6,8.2-8.5l8-8.8c21.5-24.8,41.6-55.2,56.4-87.8c14.8-32.5,24.4-67,25.6-101.2
			c0.6-19.2-2-37-3-55.6c-1.2-20.8,0.8-41.8,3.2-62.5c4.2-35.9,10.2-70.4,11.8-105.8c0.4-9,0.3-17.9,0.5-26.7
			c0-4.4-0.1-8.9-0.1-13.3c0-4.4,0.1-8.8,0.2-13.2c0.1-4.4,0.3-8.9,0.4-13.4c0.3-4.5,0.7-8.9,1.2-13.4c0.5-4.5,1.1-9.1,1.9-13.7
			c0.9-4.5,2-9.1,3.2-13.8c11.2-43.5,37.2-85,69.9-116.9C716.4,43.9,714.9,41.9,713.4,43.2z"/>
	</g>
</g>
</svg>
