<?xml version="1.0" encoding="iso-8859-1"?>
<!-- Generator: Adobe Illustrator 22.1.0, SVG Export Plug-In . SVG Version: 6.00 Build 0)  -->
<svg version="1.1" id="Layer_1" xmlns="http://www.w3.org/2000/svg" xmlns:xlink="http://www.w3.org/1999/xlink" x="0px" y="0px"
	 width="1000px" height="1000px" viewBox="0 0 1000 1000" enable-background="new 0 0 1000 1000" xml:space="preserve">
<g>
	<path fill="#000" d="M652.474,526.762c1.884,3.896,25.366,42.618,25.366,99.911c0,168.614-394.858,251.134-409.36,251.134
		c-69.004,0-73.202-65.642-73.202-90.769c0-47,0.312-33.788,8.638-42.94c-1.277,0-2.556-0.03-3.833-0.03
		c-1.891,0-2.277,0.06-2.826,0.06c-2.373,0-4.227-0.968-6.036-2.591c-13.952-12.51-30.097-18.148-30.097-29.422
		c0-6.895,13.969-32.379,20.983-32.379c0.696,0,0.94,0.087,2.445,0.087c0.075,0,55.644-0.757,58.385-2.788
		c-9.532-4.071-14.45-7.105-39.163-7.105c-26.347,0-25.597,3.173-30.181,3.173c-1.963,0-3.663-0.809-5.214-2.558
		c-12.143-13.688-29.064-30.512-29.064-37.675c0-7.916,15.642-4.626,21.535-23.544c6.123-19.657,7.583-33.776,7.583-34.086
		c0-0.172-0.012-0.339-0.012-0.489c-7.135-3.075-48.186-18.811-48.186-43.552c0-23.038,8.317-14.807,134.543-199.536
		c0.553-0.809,0.797-1.549,0.797-2.306c0-10.498-49.401-83.625-49.401-106.573c0-22.199,80.888-152.336,272.272-152.336
		c46.743,0,111.92,8.33,178.812,42.735c154.507,79.468,139.851,191.305,141.783,203.845c6.818-4.508,25.065-18.314,50.784-18.314
		c52.362,0,51.928,84.586,51.928,85.63c0,48.42-23.19,166.378-82.547,166.378c-24.517,0-36.776-16.267-40.913-21.963
		c-11.802-16.247-6.699-39.815-10.898-42.181c-19.327-10.888-29.824-38.747-37.929-52.084
		C707.32,468.396,681.202,498.649,652.474,526.762z M337.731,214.472c1.66,0.142,2.994,0.394,4.274,0.394
		c5.49,0,27.149-2.522,49.445-2.522c45.826,0,136.757,10.172,136.757,32.207c0,8.897-18.686,22.283-55.82,49.395
		c1.852,2.789,14.847,21.066,14.847,29.497c0,0.948,4.861,8.899-53.713,18.57c-150.063,24.776-130.154,27.214-138.41,27.214
		c-3.683,0-4.613-3.358-4.613-4.671c0-1.288,0.504-2.611,1.509-3.642c1.511-1.551,34.032-22.546,36.945-22.546
		c1.677,0,3.207,0.805,4.007,2.19c0.384,0.665,0.582,1.376,0.582,2.09c0,3.303-3.497,4.412-8.91,8.569
		c0.415,0.132,0.78,0.185,1.117,0.185c0.342,0,0.655-0.055,0.96-0.138c47.668-12.99,110.885-14.589,150.66-29.531
		c-2.719-8.7-7.953-15.583-12.83-22.774c-3.852,2.052-50.755,31.286-100.291,31.286c-35.743,0-40.758-18.593-40.758-27.548
		c0-22.99,28.288-49.412,73.223-49.412c20.909,0,51.174,5.609,70.101,33.118c2.925-1.939,43.031-30.642,51.923-41.301
		c-32.281-22.549-114.849-23.595-127.891-23.595c-21.538,0-41.546,2.683-48.402,2.683c-14.819,0-13.962-9.473-13.962-9.7
		c0-13.226,34.65-40.192,83.658-40.192c144.616,0,292.063,210.736,317.523,241.77c3.32-4.789,17.421-31.968,29.194-52.448
		c19.037-33.116,32.258-36.544,32.258-42.424c0-137.616-143.576-241.456-313.076-241.456c-180.276,0-263.19,122.482-263.19,145.378
		c0,11.583,51.4,95.885,51.4,106.65c0,0.459-136.742,184.64-136.742,199.895c0,17.322,39.246,33.119,40.354,33.473
		c2.708-3.507,5.842-53.796,53.654-53.796c20.415,0,45.529,12.679,45.529,38.28c0,19.949-18.844,45.616-40.283,45.616
		c-18.12,0-14.946-22.771-33.802-22.771c-5.389,0-16.748,1.861-16.951,1.891c-7.477,45.234-11.805,50.531-28.236,60.642
		c7.703,10.078,21.774,25.316,23.011,26.814c0.795,0.962,1.593,1.361,2.612,1.361c4.162,0-1.829-2.27,38.747-2.27
		c26.546,0,39.362,13.185,59.069,20.782c1.779,0.686,3.653,2.245,3.653,4.628c0,1.899-1.466,4.47-4.177,4.47
		c-5.164,0-7.502-4.021-17.856-4.021c-0.653,0-0.757,0.016-1.707,0.016c-0.91,0-1.82-0.018-2.729-0.018
		c-0.074,0-66.747,2.146-68.078,3.75c-5.646,6.805-11.921,19.013-11.921,21.456c0,4.114,27.125,22.844,29.854,22.844
		c0.158,0,18.673-0.931,22.272-0.931c4.622,0,9.192,0.154,9.192,4.99c0,1.128-0.428,3.272-4.02,4.955
		c-27.359,12.816-23.236,5.077-23.236,37.253c0,3.152-6.319,87.425,64.161,87.425c22.147,0,52.368-3.819,142.54-39.794
		c162.566-64.858,257.49-92.37,257.49-201.686c0-48.542-18.07-85.313-23.266-93.426c-15.605,14.275-108.165,108.058-213.114,108.058
		c-50.809,0-76.37-20.605-76.37-50.929c0-50.731,79.173-134.945,171.433-134.945c61.477,0,97.72,31.332,120.085,62.993
		c29.018-28.577,55.226-59.171,76.893-93.43c-22.807-38.018-177.587-241.768-312.077-241.768
		C368.681,183.579,341.309,205.311,337.731,214.472z M640.487,525.248C622.42,496.134,584.454,464.9,526.954,464.9
		c-90.185,0-161.815,83.749-161.815,125.843c0,14.831,8.301,41.732,67.55,41.732C527.713,632.474,624.653,543.66,640.487,525.248z
		 M839.95,495.248c0,1.395,0.142,2.792,0.53,4.184c0.217,0.065,0.433,0.131,0.65,0.196c2.631-4.261,20.939-36.373,20.939-90.674
		c0-30.152-3.694-45.142-10.68-53.895c-0.972-1.218-2.252-1.762-3.695-1.762c-0.163,0-5.559,0.117-9.056,5.596
		c-0.079,0.124-7.184,11.191-7.184,16.71c0,0.133,0.002,0.174,0.002,0.241c0,2.166-1.776,3.592-3.883,3.592
		c-2.572,0-4.094-1.862-4.094-5.813c0-3.319,8.166-28.415,23.958-28.415c20.63,0,22.779,44.022,22.779,64.624
		c0,46.042-17.122,98.591-29.806,98.591c-6.118,0-8.4-6.946-8.4-10.533c0-12.701,8.355-54.914,8.355-73.988
		c0-12.247-4.374-12.945-8.048-12.945c-2.509,0-11.98,0.996-17.041,0.996c-25.606,0-19.838-42.816-23.424-76.46
		c-21.816,20.719-56.332,89.002-56.332,89.932c0,0.25,18.936,41.952,33.868,51.27c0.868-11.653,1.046-17.329,2.037-32.208
		c0.474-7.117,2.003-7.01,37.704-7.01c12.994,0,16.747,1.903,16.747,6.736c0,1.19-0.262,2.555-0.78,4.1
		c-9.536,28.432-12.695,46.114-32.338,46.114c-4.046,0-6.854-0.822-14.263-2.431c0,0.605-0.025,1.119-0.025,1.597
		c0,0.715,0.873,9.849,1.444,14.041c2.41,17.69,18.257,33.788,38.851,33.788c52.519,0,73.656-112.971,73.656-155.464
		c0-19.143-3.514-30.343-6.974-44.446c-8.788-35.819-27.941-33.506-35.666-33.506c-26.866,0-49.987,18.717-49.987,22.006
		c0,80.114,11.433,73.934,17.807,73.934c3.822,0,10.291-0.918,15.671-0.918c15.779,0,15.105,19.094,15.105,19.621
		C848.377,439.779,839.95,491.707,839.95,495.248z M458.848,291.558c-1.282-4.222-19.927-29.014-62.273-29.014
		c-38.35,0-63.856,21.837-63.856,40.123c0,5.32,2.376,18.329,31.749,18.329C369.381,320.996,407.446,320.788,458.848,291.558z
		 M179.734,564.623c4.022-0.477,9.419-1.399,15.424-1.399c23.86,0,22.86,22.745,33.615,22.745c15.131,0,31.055-20.238,31.055-36.11
		c0-15.243-13.189-29.053-37.609-29.053C186.843,520.805,181.441,558.802,179.734,564.623z M803.778,446.613
		c-7.756,0-15.482,0.399-23.302,0.742c-0.679,11.662-1.342,23.069-2.005,34.459c5.062,2.156,10.029,3.348,14.801,3.348
		c4.248,0,7.781-1.788,10.094-5.446c4.724-7.471,11.949-31.69,12.041-32.75C811.514,446.712,807.642,446.613,803.778,446.613z"/>
</g>
</svg>
