<?xml version="1.0" encoding="iso-8859-1"?>
<!-- Generator: Adobe Illustrator 22.1.0, SVG Export Plug-In . SVG Version: 6.00 Build 0)  -->
<svg version="1.1" id="Layer_1" xmlns="http://www.w3.org/2000/svg" xmlns:xlink="http://www.w3.org/1999/xlink" x="0px" y="0px"
	 width="1000px" height="1000px" viewBox="0 0 1000 1000" enable-background="new 0 0 1000 1000" xml:space="preserve">
<g>
	<path fill="#603813" d="M430.167,569.586c0-1.779,0.043-3.502,0.043-5.201c0-289.563-25.804-433.238-176.264-433.238
		c-79.769,0-140.086,75.354-140.086,170.611c0,37.481,5.03,53.19,24.144,53.19c0.077,0,219.581-0.672,235.363-0.672
		c0.267,0,0.534,0.003,0.802,0.003c5.206,0,5.172-2.572,5.172-8.38c0-63.794-64.188-113.427-132.439-113.427
		c-69.339,0-104.566,48.013-104.566,79.384c0,16.568,23.668,15.75,33.666,15.75c11.486,0,42.291-1.763,42.834-1.763
		c7.615,0,7.546,6.447,7.546,6.587c0,2.786-1.899,5.379-4.703,6.224c-2.683,0.809-45.854,2.222-49.36,2.222
		c-30.599,0-43.288-10.799-43.288-29.547c0-23.491,25.155-92.136,119.565-92.136c69.507,0,144.055,52.102,144.055,126.836
		c0,13.969-0.992,21.533-12.213,21.533c-0.262,0-0.524-0.002-0.786-0.002c-1.763,0-207.551,0.589-244.503,0.589
		c-35.031,0-34.624-40.716-34.624-66.078c0-105.597,67.893-184.29,154.06-184.29c229.728,0,170.833,339.011,189.323,448.939
		c0.524,0,1.005,0.012,1.47,0.012c0.979,0,2.087-0.11,4.707-0.11c38.885,0,60.645,30.769,60.645,63.097
		c0,13.408-1.292,18.215-7.803,18.215c-68.209,0-65.09,0.386-67.307-2.753c-3.232-4.576-2.909-49.232-4.559-61.741
		c-40.634,15.724-49.008,53.737-49.008,70.895c0,11.27-8.184,9.314,87.647,9.314c6.865,0,13.73-0.022,20.595-0.022
		c45.032,0,139.471,0.981,139.547,0.981c2.458,0,4.959-0.484,7.36-1.072c2.053-0.503,2.563-0.932,2.563-2.5
		c0-8.894-86.29-130.174-86.29-284.732c0-239.085,152.031-257.091,184.103-257.091c90.734,0,154.172,84.266,154.172,183.797
		c0,45.026-6.883,53.692-15.439,59.485c-2.41,1.632-5.886,7.149-20.195,7.149c-278.734,0-256.553,6.244-256.553-22.282
		c0-69.083,68.015-126.823,145.07-126.823c77.834,0,118.562,54.157,118.562,92.579c0,26.191-25.782,29.141-47.399,29.141
		c-17.142,0-41.965-1.787-42.634-1.829c-6.593-0.408-7.286-5.154-7.286-6.617c0-6.12,6.164-6.606,8.16-6.606
		c2.541,0,37.334,1.745,44.339,1.745c27.577,0,31.521-7.415,31.521-16.073c0-5.192-9.518-78.958-106.049-78.958
		c-61.439,0-130.92,45.388-130.92,113.267c0,11.993-18.682,9.174,242.375,9.174c17.747,0,23.102-16.298,23.102-53.58
		c0-93.914-59.603-170.227-140.676-170.227c-78.961,0-170.945,66.857-170.945,243.164c0,95.916,30.806,166.13,59.491,232.014
		c13.381,30.733,27.012,39.359,27.012,52.172c0,11.557-7.025,18.196-26.543,18.196c-0.08,0-216.383-1.835-224.353-1.835
		c-4.446,0-9.089,0.257-11.18,0.257c-18.249,0-22.609-11.055-22.609-23.217C368.598,650.568,368.012,593.457,430.167,569.586z
		 M447.067,634.338c16.923-0.239,33.509-0.472,50.363-0.71c0.018-0.729,0.027-1.454,0.027-2.174
		c0-49.098-41.334-51.601-46.224-51.601c-2.734,0-5.081,0.308-6.79,0.873C445.308,598.4,446.176,616.119,447.067,634.338z"/>
	<path fill="#603813" d="M366.297,795.87c0.963,0,1.72,0,2.402,0c0.423,0,247.851,0.339,266.842,0.339
		c7.317,0-6.678-1.14,39.92-1.14c11.749,0,11.167,11.522,11.167,13.193c0,53.823-89.312,94.787-184.511,94.787
		c-103.26,0-156.943-43.398-156.943-77.44c0-2.026,1.343-7.205,7.271-7.205c3.365,0,6.187,2.093,7.115,5.418
		c16.569,59.351,111.14,65.071,141.83,65.071c79.04,0,166.197-30.947,170.461-79.729c-0.73,0-1.357-0.002-1.946-0.002
		c-23.828,0-17.847,1.21-25.836,1.21c-27.311,0-183.983-0.266-268.51-0.266c-9.571,0-16.464,0.003-16.649,0.003
		c-6.636,0-11.9-3.308-11.9-8.067c0-13.315,45.959-72.606,115.441-72.606c28.103,0,45.999,9.956,57.196,20.904
		c6.236-2.847,35.004-20.748,76.883-20.748c66.196,0,88.14,45.702,88.14,52.111c0,5.743-5.427,7.053-7.31,7.053
		c-2.843,0-5.476-1.711-6.929-4.875c-17.618-38.378-63.268-40.091-73.724-40.091c-47.019,0-72.815,23.092-78.316,23.092
		c-8.786,0-13.67-23.345-55.911-23.345C417.182,743.534,376.74,775.975,366.297,795.87z"/>
</g>
</svg>
