<?xml version="1.0" encoding="iso-8859-1"?>
<!-- Generator: Adobe Illustrator 22.1.0, SVG Export Plug-In . SVG Version: 6.00 Build 0)  -->
<svg version="1.1" id="Layer_1" xmlns="http://www.w3.org/2000/svg" xmlns:xlink="http://www.w3.org/1999/xlink" x="0px" y="0px"
	 width="1000px" height="1000px" viewBox="0 0 1000 1000" enable-background="new 0 0 1000 1000" xml:space="preserve">
<path fill="#603813" d="M898.831,334.113c0.773-3.549,9.651-23.382,9.651-52.328c0-95.176-84.079-166.184-164.727-166.184
	c-70.727,0-112.45,49.172-112.45,57.103c0,3.003,2.369,7.447,7.455,7.447c8.541,0,33.931-49.218,103.328-49.218
	c78.278,0,151.052,67.153,151.052,150.777l0.001,0.093c0.001,0.113,0.002,0.277,0.002,0.489c0,2.909-0.188,14.876-3.07,27.801
	c-20.837-45.766-55.107-76.973-95.437-76.973c-167.276,0-179.732,308.502-179.732,364.541c0,135.99,29.388,240.109,36.691,266.272
	l-146.246,8.133c-0.864-10-1.408-29.034-1.54-34.058c10.543-9.639,44.551-42.369,44.551-75.625c0-10.781-4.174-29.026-19.819-29.026
	c-25.662,0-40.425,54.396-40.425,88.959c0,2.551,0.042,3.06,0.042,4.726l-0.002,0.764c-7.282,2.669-9.769,2.669-11.426,2.669
	c-4.045-0.071-11.058-0.763-12.399-1.637c-2.165-1.573-30.063,3.248-30.063-129.405c0-47.385,17.874-179.749,17.874-256.567
	c0-112.053-43.078-117.167-47.313-139.168c-26.437-137.364-142.933-132.4-145.563-132.4c-0.333,0-0.659,0.001-0.978,0.004
	l-0.515,0.003c-48.988,0-113.713,29.025-113.713,39.696c0,4.114,3.356,7.46,7.482,7.46c5.134,0,49.893-31.841,106.825-31.841
	c84.742,0,119.524,65.545,130.041,112.947c-10.253-5.446-28.192-13.572-54.201-13.572c-95.026,0-177.719,103.569-177.719,186.137
	c0,15.553,15.652,21.071,29.055,21.071c16.223,0,195.015-3.085,200.369-18.047c5.766-16.107,23.312-65.12,23.312-122.525
	c0-7.091-0.256-12.823-0.502-16.882c27.33,32.259,28.175,82.106,28.175,103.788c0,0.747-0.001,1.461-0.002,2.139l-0.001,1.722
	c0,70.503-17.914,210.542-17.914,256.929c0,58.917,4.656,145.502,51.118,145.502c2.286,0,4.246-0.14,5.771-0.14
	c5.709,0,9.848-1.099,12.95-2.018c0.042,0.872,0.071,1.718,0.071,2.548l-0.001,0.723c0,5.747,0.66,24.501,3.592,34.926
	c1.079,3.834,3.628,5.778,7.576,5.778c0.074,0,161.432-7.562,164.644-11.344c1.775-2.091,3.59-4.718,3.59-8.343
	c0-5.542-38.166-116.819-38.166-269.911c0-149.348,45.254-349.443,158.958-349.443c65.693,0,91.563,74.033,92.545,82.955
	c-0.001,0.416-0.119,3.118-2.952,5.109C825.1,374.297,708.85,354.477,708.85,428.304c0,6.733,0,18.002,11.145,18.002
	c0.819,0,23.375-2.65,144.39-17.137c34.383-4.116,38.327-2.941,39.961-10.523l0.014-0.046c0.93-3.162,2.49-11.013,2.49-28.051
	C906.849,359.385,899.388,337.698,898.831,334.113z M891.628,390.942c0,6.5-0.352,13.109-1.049,19.679
	c-54.55,6.566-111.069,13.308-167.05,20.007c0.112-61.031,101.341-40.103,163.405-81.281
	C890.09,363.393,891.628,377.043,891.628,390.942z M503.487,817.047c3.723-47.982,19.174-68.429,25.041-68.429
	c2.157,0,4.57,5.893,4.57,13.779C533.098,771.047,526.769,792.99,503.487,817.047z M393.986,352.331
	c0,55.894-18.174,109.737-22.947,115.785c-48.245,6.209-59.938,4.635-155.496,9.845c-5.827,0-11.66,0.033-17.197,0.033l-1.822,0.001
	c-0.704,0.001-1.4,0.001-2.086,0.001c-15.442,0-22.869-0.828-22.869-4.81c0-61.51,65.322-171.996,162.519-171.996
	c32.091,0,57.206,16.026,58.109,19.807C393.047,333.345,393.986,338.417,393.986,352.331z"/>
</svg>
