<?xml version="1.0" encoding="iso-8859-1"?>
<!-- Generator: Adobe Illustrator 22.1.0, SVG Export Plug-In . SVG Version: 6.00 Build 0)  -->
<svg version="1.1" id="Layer_1" xmlns="http://www.w3.org/2000/svg" xmlns:xlink="http://www.w3.org/1999/xlink" x="0px" y="0px"
	 width="1000px" height="1000px" viewBox="0 0 1000 1000" enable-background="new 0 0 1000 1000" xml:space="preserve">
<g>
	<path fill="#603813" d="M258.417,321.55c-14.194,10.284-18.543,109.306-18.543,111.791c0,8.369,16.756,199.293,16.756,201.231
		c0,8.795-4.291,14.145-8.746,14.145c-14.069,0-18.896-43.242-18.896-54.692c0-5.467,4.082-149.376,4.082-151.855
		c0-13.524-1.996-23.27-2.926-46.245c-1.455-35.95-16.536-69.371-25.835-69.371c-2.45,0-3.62,0.669-4.627,3.172
		c-2.349,5.842-18.624,174.474-18.624,174.548c0,0.075,19.71,114.618,19.71,132.605c0,11.77-1.989,16.333-6.313,16.333
		c-23.428,0-20.832-82.495-20.832-134.497c0-3.681,0.444-7.619,0.444-11.145c0-4.934-1.169-6.949-4.49-16.201
		c-0.199-0.012-0.398-0.023-0.596-0.035c-5.453,12.322-21.518,96.358-21.518,130.914c0,0.076,74.213,269.646,74.213,345.265
		c0,2.855-0.046,5.714-0.046,8.568c0,0.45,0.001,0.73,0.001,0.767c0,3.921-3.172,4.261-3.816,4.261
		c-2.129,0-110.696-157.616-110.696-227.362c0-21.437,5.07-42.671,10.653-60.141c34.163-106.917,33.934-210.703,51.693-210.703
		c3.18,0,4.995,3.848,6.252,5.778c15.194-118.364,10.785-135.506,18.51-163.981c-22.973-11.168-44.159-21.63-44.159-56.054
		c0-4.258,3.438-4.198,3.55-4.198c4.802,0,6.015,12.769,28.006,12.769c17.21,0,48.674-13.631,48.674-37.83
		c0-7.019-1.973-25.74-1.973-34.335c0-54.124,39.306-120.42,118.962-120.42c0.958,0,28.632-0.516,28.632,18.454
		c0,17.561-32.144,60.846-32.144,88.824c0,15.229,11.932,28.316,21.872,28.316c1.718,0,3.497-0.302,5.336-0.913
		c30.105-10.009,32.271-28.573,32.271-64.319c0-2.642-0.015-3.485-0.015-4.631c0-56.827,19.669-88.037,110.528-88.037
		c118.774,0,177.18,17.308,177.18,83.03c0,16.905-11.995,47.364-11.995,71.838c0,13.539,5.785,55.105,28.118,55.105
		c8.325,0,21.98-3.194,31.803-3.194c42.386,0,50.459,42.54,50.459,60.962c0,8.892-1.32,38.285-1.32,59.66
		c0,45.307,6.227,56.289,9.29,56.289c4.048,0,15.808-7.854,15.808-108.808c0-50.857-12.87-97.177-13.375-99.347
		c-3.239-13.914-101.338-40.057-101.338-85.005c0-5.863,3.156-19.735,16.695-19.735c17.959,0,65.677,20.519,89.155,96.634
		C805.77,234.694,841,255.92,841,328.571c0,40.753-18.142,106.443-19.962,113.733c-3.363,13.47-10.43,26.139-22.157,26.139
		c-0.448,0-0.884-0.021-1.279-0.021c-0.145,0.34-0.286,0.525-0.286,0.644c0,0.186,1.573,3.736,1.573,10.229
		c0,15.626-26.265,117.462-41.672,144.844c-14.385,25.567-8.083-6.061-16.989,45.255c1.822,1.284,7.836,3.062,17.87,10.884
		c11.926,9.298,19.788,4.696,19.788,10.541c0,4.124-22.946,35.132-30.331,54.587c2.619-1.818,20.967-16.065,35.465-16.065
		c11.017,0,16.418,12.052,16.418,21.156c0,37.569-70.696,130.321-86.712,130.321c-2.656,0-57.674-89.311-64.749-118.854
		c-20.399,5.56-114.305,116.164-163.328,116.164c-3.273,0-20.868,0.805-63.024-18.973c-3.606-1.692-2.305-3.207-3.61-4.865
		c-29.208-37.083-53.392-191.214-53.392-219.683c0-39.821,67.055-122.213,67.055-195.362c0-5.46-1.079-23.714-8.453-23.714
		c-1.016,0-5.811-0.111-12.069,14.82c-45.815,109.32-88.565,152.896-88.565,161.109c0,2.592,5.146,14.376,5.146,24.413
		c0,10.07-4.554,25.223-16.524,25.223c-0.224,0-10.114,0.435-10.114-14.259c0-18.216,13.488-34.44,13.488-37.783
		c0-0.595-0.117-1.212-0.343-1.888c-32.205-96.565-29.24-233.622-47.031-261.815c-0.854-1.353-1.848-2.064-3.515-2.259
		C262.006,322.898,260.378,322.15,258.417,321.55z M673.781,389.831c-3.272-3.572-7.743-4.816-12.073-6.335
		c3.751,2.665,7.867,4.611,12.129,6.272c9.124,7.092,15.22,9.275,15.22,12.527c0,3.2-16.906,19.808-28.059,19.808
		c-7.922,0-14.125-7.425-54.782-7.425c-38.358,0-66.23,20.46-74.084,47.091c21.777-7.511,42.309-23.933,85.461-23.933
		c18.59,0,21.853,2.096,38.856,13.733c1.198,0.82,1.79,1.859,1.79,2.927c0,3.376-17.55,18.492-59.218,18.492
		c-25.977,0-21.141-1.444-29.359-2.707c0.411,3.609,0.277,8.309,5.549,10.416c5.76,2.302,11.67,3.9,17.839,3.9
		c19.183,0,34.216-6.614,47.531-6.614c22.795,0,27.14,7.39,35.243,15.063c17.929-5.099,108.819-28.588,109.238-28.775
		c-3.643-1.028-3.561-1.61-9.737-1.61c-19.655,0-27.299,11.463-36.407,11.463c-24.012,0-37.054-78-45.841-100.137
		C679.838,386.41,678.738,389.787,673.781,389.831z M452.427,639.98c0,6.112-0.591,12.239-0.904,18.505
		c7.743,4.478,7.429,4.514,8.596,4.514c1.56,0,14.573-6.681,24.869-6.681c18.023,0,57.486,33.612,67.627,43.784
		c7.017,7.039,8.128,7.632,8.128,9.515c0,0.918-0.449,1.877-1.384,2.982c-27.508,32.496-47.698,46.435-90.249,46.435
		c-47.292,0-85.945-37.98-86.019-38.036c0.533,4.558,18.003,101.544,40.642,129.913c7.5,9.398,47.195,20.634,60.901,20.634
		c35.873,0,52.742-32.071,160.112-116.039c1.747-1.366,2.493-2.901,2.522-5.154c0.293-22.566,16.123-23.507,18.394-23.507
		c3.048,0,4.041,0.532,11.576,3.025c11.234-11.506,8.599-8.731,9.31-9.919c13.087-21.832,28.517-33.427,33.467-39.714
		c15.424-19.593,13.294-2.648,18.264-38.441c-1.214,0.205-2.393,0.302-3.543,0.302c-3.138,0-6.059-0.723-8.897-1.946
		c-12.198-5.254-12.33-11.307-14.343-18.946c-9.519,82.724-45.729,109.633-71.242,109.633c-83.874,0-91.94-90.744-91.94-109.226
		c0-88.317,104.999-120.238,120.173-126.167c-5.51-7.113-12.935-10.935-28.087-10.935c-10.631,0-28.946,6.634-47.263,6.634
		c-7.406,0-14.487-1.805-21.321-4.82c-6.209-2.739-8.67-8.943-8.67-15.593c0-1.485-0.161-7.641,5.016-7.641
		c5.33,0-0.959,3.204,36.593,3.204c2.348,0,24.634,0.184,44.784-11.625c-12.658-7.828-14.337-10.334-31.954-10.334
		c-47.015,0-76.786,24.856-88.076,24.856c-2.93,0-4.637-1.762-4.637-4.659c0-11.173,20.985-56.425,78.483-56.425
		c45.695,0,52.118,7.43,57.553,7.43c5.972,0,15.805-8.211,19.812-12.647c-4.768-5.089-23.347-13.773-28.924-16.617
		c-3.896-1.987-17.158-3.143-21.533-3.143c-33.072,0-74.587,32.974-90.972,32.974c-4.763,0-14.092-3.061-14.092-18.997
		c0-2.709,1.331-4.947,3.843-6.158c3.069-1.479,69.781-25.702,92.035-25.702c8.684,0,18.179,0.186,54.511,16.915
		c3.946-3.797,8.069-7.756,12.176-11.732c0.668-0.646,5.323-9.891,5.323-18.177c0-6.706-9.876-14.196-16.491-15.87
		c-28.966-7.331-45.749-20.433-45.749-47.418c0-14.116,3.629-46.082,3.629-52.766c0-20.014-16.367-21.406-20.414-21.406
		c-49.367,0-83.484,77.955-143.594,77.955c-46.938,0-61.621-35.592-88.474-46.582c-23.615-9.665-25.951-11.916-33.668-11.916
		c-56.171,0-50.115,48.707-76.101,86.621c3.886,6.584,10.684,15.388,13.553,57.921c4.559-4.485,10.904-19.692,31.149-19.692
		c30.442,0,48.383,29.059,92.985,58.448c3.286-3.445,6.679-8.629,13.265-8.629c11.548,0,15.063,15.735,15.063,31.208
		c0,9.858-0.902,16.514-1.728,21.811c-7.837,50.233-6.172,35.119-8.931,41.989c-22.576,56.219-24.813,54.357-24.813,73.298
		c0,1.338,0.027,2.676,0.083,4.009c0.236,5.587,5.52,8.836,8.243,8.836c6.835,0,26.769-16.598,35.469-16.598
		c5.951,0,8.265,6.966,8.265,10.933c0,12.06-14.845,11.148-15.882,11.148c-2.189,0-4.377-0.337-6.555-1.228
		c-0.097,1.217-0.157,2.248-0.157,3.131c0,4.366,1.452,5.106,6.967,6.654C448.222,606.648,452.427,600.398,452.427,639.98z
		 M267.864,315.554c6.689-10.602,17.092-32.539,21.105-46.479c11.042-38.362,58.747-41.41,59.333-41.41
		c8.554,0,10.642,1.715,37.607,13.063c27.68,11.649,40.713,45.496,84.74,45.496c53.864,0,93.111-77.974,142.91-77.974
		c4.323,0,27.508,1.365,27.508,27.633c0,5.929-3.741,38.492-3.741,55.884c0,23.748,25.091,33.537,30.745,35.22
		c2.116,0.63,31.517,6.724,31.517,25.319c0,4.678-2.019,9.951-2.019,14.093c0,1.669,0.274,3.321,0.974,4.961
		c10.033,23.519,23.376,96.107,40.521,96.107c5.365,0,17.131-11.531,36.663-11.531c12.091,0,15.076,5.952,23.587,5.952
		c18.94,0,35.076-109.922,35.076-133.17c0-56.93-22.444-80.446-25.381-84.087c-0.169,0.093-0.337,0.186-0.506,0.279
		c1.211,6.526,11.161,48.678,11.161,91.478c0,86.511-7.163,116.341-22.416,116.341c-14.755,0-15.792-38.202-15.792-67.477
		c0-28.068,1.267-45.892,1.267-56.736c0-21.581-11.095-52.799-43.22-52.799c-10.17,0-22.472,3.211-31.102,3.211
		c-31.992,0-35.989-50.861-35.989-61.525c0-24.304,12.096-58.734,12.096-71.637c0-3.915-1.747-4.541-1.747-5.904
		c0-1.08,0.55-2.323,0.55-4.952c0-2.231-0.453-4.412-1.429-6.549c-18.626-40.773-31.551-59.518-168.213-59.518
		c-111.102,0-103.889,54.74-103.889,82.227c0,2.462,0.062,3.883,0.062,8.285c0,5.449-0.114,10.9-0.342,16.341
		c-1.838,43.744-36.859,51.158-44.11,51.158c-13.402,0-28.186-16.026-28.186-35.542c0-28.09,32.136-73.647,32.136-88.465
		c0-12.08-22.161-11.678-22.808-11.678c-93.855,0-111.624,89.134-111.624,114.287c0,10.52,1.946,23.11,1.946,34.338
		c0,28.745-36.03,43.974-55.117,43.974c-15.322,0-21.106-5.662-24.375-6.994c1.008,4.44,2.977,20.866,18.209,30.423
		c8.102,5.084,22.151,12.488,25.112,12.488c1.62,0,2.304-0.71,4.554-0.71c3.546,0,10.202,4.164,12.646,6.733
		c2.539,2.668,5.717,4.259,9.391,4.259c17.977,0,21.423-16.485,30.631-16.485C258.77,313.481,258.365,313.439,267.864,315.554z
		 M673.291,500.904c-18.235,6.3-118.436,36.955-118.436,121.704c0,19.429,4.586,33.362,9.913,47.178
		c18.082,46.895,43.751,54.521,77.836,54.521c34.412,0,62.034-63.808,62.034-108.551
		C704.638,579.914,686.333,527.714,673.291,500.904z M214.487,965.107c0.138-0.042,0.277-0.085,0.415-0.127
		c0-1.485,0.081-2.978,0.081-4.462c0-36.106-53.728-280.508-72.557-326.692c-0.046,0.074-28.819,80.404-28.819,120.713
		C113.606,818.568,161.846,864.884,214.487,965.107z M714.997,875.047c12.874-10.075,77.884-88.297,77.884-124.693
		c0-5.984-3.053-14.331-10.146-14.331c-5.049,0-21.178,4.21-38.592,21.427c-2.332,2.306-2.985,5.864-3.525,7.011
		c-12.606,26.767-12.12,24.91-12.12,26.269c0,2.006,5.196,14.678,5.196,20.619c0,1.731-3.343,27.009-13.069,27.009
		c-0.351,0-8.51-0.263-8.51-14.753c0-10.594,8.392-29.48,8.392-32.594c0-0.522-5.741-18.527-18.835-32.697
		c-6.239-6.751-6.349-11.221-23.14-20.379c-25.195,18.63-24.61,17.61-24.61,19.6C653.924,775.151,700.007,849.86,714.997,875.047z
		 M747.028,626.173c0.193,0.057,0.385,0.114,0.578,0.17c13.102-9.522,44.641-128.975,44.641-147.116c0-3.686-0.207-6.146-1.71-8.519
		c-13.882,1.027-36.069,7.436-110.918,27.929c9.303,21.055,25.03,53.266,31.597,110.312c1.093-4.393,3.844-42.919,34.558-88.688
		c9.867-14.703,14.719-31.254,23.352-31.254c2.214,0,5.189,1.663,5.189,6.735c0,4.244-1.188,10.641-8.616,32.895
		c-13.298,39.839-0.728,33.637-15.202,46.865c2.112,1.654,2.647,3.853,2.647,6.24C753.144,586.946,752.776,581.815,747.028,626.173z
		 M388.403,467.838c-1.057,0-1.881-0.069-2.6-0.069c-5.131,0-26.387,9.036-47.916,9.036c-15.57,0-38.873-8.807-38.873-15.308
		c0-1.209,0.717-2.394,2.123-3.653c13.656-12.232,26.27-26.34,50.322-26.34c15.655,0,28.686,6.546,35.967,9.324
		c-14.849-29.968-33.438-28.607-34.362-28.607c-26.46,0-39.866,13.772-44.688,13.772c-2.353,0-2.939-2.282-2.939-2.993
		c0-6.076,33.836-19.616,50.126-19.616c9.424,0,14.271,2.706,33.747,8.489c-0.317-0.818-0.783-1.252-1.276-1.653
		c-39.267-32.011-51.385-44.503-71.328-44.503c-15.957,0-21.501,11.822-25.863,18.634c-0.354,0.553-0.477,1.254-0.793,2.124
		c4.214-0.327,6.968-1.04,12.427-1.04c14.409,0,44.776,6.661,44.776,12.084c0,0.05,0.079,2.81-2.191,2.81
		c-2.122,0-20.246-8.309-42.745-8.309c-2.359,0-11.045,0.383-15.265,2.453c3.493,32.255,7.39,64.372,13.019,96.656
		c3.3-3.019,6.955-4.185,10.862-4.185c9.132,0,17.978,3.364,24.266,3.364C375.722,490.309,387.527,469.071,388.403,467.838z
		 M425.191,591.942c-10.252,4.096-11.255,4.731-14.109,4.731c-2.917,0-15.005-2.558-15.005-18.638c0-2.013,0.106-4.295,0.106-6.216
		c0-0.565-0.073-1.132-0.145-2.169c-0.507,0.762-0.743,1.036-0.892,1.351c-23.308,49.234-23.944,46.67-23.944,66.214
		c0,10.1,1.095,26.368,8.964,66.937c12.239-1.623,36.783-48.798,60.623-48.798c1.329,0,2.684,0.068,4.081,0.068
		c0.482-1.961,1.041-11.544,1.041-19.62c0-34.156-1.325-20.091-15.317-28.098C425.669,604.887,426.074,602.003,425.191,591.942z
		 M381.794,714.07c0.661-0.291,1.255-0.416,1.8-0.416c4.096,0,37.751,38.797,84.465,38.797c47.38,0,61.666-17.726,80.592-37.517
		c-0.38-0.142-0.486-0.213-0.563-0.213c-1.534,0-17.605,3.188-34.303,3.188c-26.046,0-61.537-8.379-84.167-8.379
		c-3.347,0-3.983,0.108-6.393,0.108c-3.642,0-6.665-0.246-7.928-0.246c-5.964,0-6.971,3.003-16.137,3.003
		c-1.324,0-15.949-0.561-16.528-0.561c-0.331,0-0.671,0.077-1.104,0.126C381.608,712.593,381.675,713.128,381.794,714.07z
		 M725.146,780.663c1.363-2.207,1.739-2.86,1.739-3.966c0-0.808-0.186-1.693-0.186-2.367c0-3.254,20.772-44.064,43.124-81.292
		c-13.023-2.836-15.687-9.779-31.401-17.017c-16.309,12.793-16.68,12.805-18.941,15.198c-21.364,22.614-23.344,25.556-23.344,32.064
		c0,11.423,19.304,36.052,19.398,40.532C715.547,764.442,715.149,763.624,725.146,780.663z M378.814,486.071
		c-5.745,3.374-17.03,10.9-42.716,10.9c-12.363,0-15.714-3.874-23.845-3.874c-4.106,0-11.31,0.1-11.31,6.919
		c0,8.309,11.729,71.956,19.013,82.291C340.496,550.579,360.61,518.969,378.814,486.071z M795.611,224.746
		c-11.901-45.83-54.029-84.979-80.744-84.979c-8.285,0-9.883,9.525-9.883,13.071c0,2.678,2.033,30.186,62.345,57.127
		C786.368,218.469,791.612,222.791,795.611,224.746z M435.562,692.066c3.012,0,5.832-0.014,8.58-0.014
		c29.377,0,70.774,10.132,82.334,12.267c18.291,3.379,23.554,1.38,24.737,7.891c0.731-0.972,1.186-1.577,1.829-2.432
		c-47.32-43.18-63.184-46.967-67.387-46.967c-11.229,0-22.67,7.22-25.646,7.22c-2.216,0-2.738-0.618-9.701-4.657
		C447.685,675.673,443.51,684.801,435.562,692.066z M744.804,594.664c-0.14-0.059-0.28-0.118-0.419-0.177
		c-5.813,11.057-7.662,13.538-10.559,13.538c-0.124,0-4.313,0.239-4.313-6.817c0-28.953,22.619-27.576,22.619-40.842
		c0-0.139-0.002-0.241-0.002-0.554c0-19.645,14.65-49.285,15.416-62.365c-0.198-0.064-0.396-0.127-0.594-0.191
		c-50.444,75.404-48.953,111.604-48.953,117.978c0,20.501,15.453,20.148,15.707,20.148
		C742.463,635.382,737.756,638.392,744.804,594.664z M307.215,461.637c0.872,0.484,13.653,8.583,31.723,8.583
		c19.944,0,39.274-9.064,47.006-9.064c1.846,0,3.728,0.224,5.654,0.739c1.451-3.443,2.868-6.804,4.242-10.066
		c-18.167-7.87-29.434-13.704-44.147-13.704C328.74,438.126,317.667,452.29,307.215,461.637z M647.684,378.029
		c0.021-0.164,0.043-0.327,0.064-0.491c-3.853-1.366-14.747-5.805-25.314-5.805c-1.594,0-16.355,0.187-31.721,5.564
		c-51.828,18.138-59.025,17.132-59.025,20.739c0,0.737,0.269,1.753,0.486,3.391c0.709,5.349,3.236,8.063,7.4,8.063
		c12.068,0,56.772-33.018,91.77-33.018C634.647,376.473,634.671,376.586,647.684,378.029z M237.845,507.413
		c-0.104,0.011-0.208,0.022-0.312,0.033c-0.103,1.635-2.006,84.879-2.006,85.502c0,17.405,4.271,36.238,9.948,46.757
		c0.482,0.893,1.405,1.547,2.205,2.391c1.851-1.951,2.352-4.094,2.352-6.239C250.033,625.564,240.373,527.503,237.845,507.413z
		 M389.955,705.595c2.291-0.267,3.971,0.11,5.782-0.552c17.877-6.532,18.708-5.457,28.851-11.229
		c1.996-1.136,3.05-3.367,5.608-5.636c11.019-9.777,13.57-23.381,13.68-25.512c-1.24-0.562-2.428-0.772-3.612-0.772
		c-0.199,0-7.791,0.029-13.507,5.79C422.862,671.608,389.975,705.572,389.955,705.595z M181.084,545.675
		c-0.141-0.018-0.283-0.035-0.424-0.053c0,0.755-0.008,1.511-0.008,2.266c0,77.962,3.836,88.298,12.917,97.548
		c0.323-2.947,0.459-2.447,0.459-7.652C194.027,621.133,192.298,616.251,181.084,545.675z M522.128,711.036
		c0.026-0.213,0.051-0.427,0.077-0.64c-10.001-1.861-51.61-11.843-75.388-11.843c-11.91,0-16.059,1.68-19.566,4.08
		c0.075,0.02,76.069,8.687,86.757,8.687C517.357,711.32,519.311,711.172,522.128,711.036z M236.448,387.556
		c2.113-18.814,2.73-37.785,8.502-56.171c-5.535,2.723-11.033,5.117-17.256,5.117c-1.919,0-3.907-0.228-5.987-0.744
		C230.379,352.442,234.009,369.827,236.448,387.556z M376.817,415.28c0.109,0.152,0.234,0.404,0.426,0.584
		c10.18,9.562,12.224,15.675,20.927,29.259c3.041-7.668,5.876-14.816,8.767-22.105C396.861,420.43,386.883,417.866,376.817,415.28z
		 M321.143,615.63c0-5.774-1.86-11.209-3.526-16.98c-5.153,6.69-9.882,20.058-9.882,27.81c0,4.318,1.01,8.096,3.648,8.096
		C315.065,634.556,321.143,629.136,321.143,615.63z M718.933,826.88c0,1.526,0.33,3.137,1.829,4.504
		c4.143-4.901,6.295-17.03,6.295-19.586c0-3.762-1.158-7.463-2.351-11.386C724.178,801.482,718.933,813.154,718.933,826.88z
		 M665.687,733.534c-6.253,0-11.357,5.62-11.357,13.671c0,0.119,0.001,0.238,0.003,0.358c5.847-4.303,11.379-8.375,17.011-12.521
		C669.427,734.011,667.508,733.534,665.687,733.534z M446.885,580.137c-5.691,0.418-9.606,3.905-14.001,6.8
		c2.097,1.525,4.2,2.014,6.294,2.014c1.844,0,3.682-0.379,5.506-0.763c2.511-0.529,3.596-1.483,3.596-3.3
		C448.28,582.949,447.194,580.885,446.885,580.137z M686.738,729.551c-1.094,1.199-2.107,2.309-3.241,3.552
		c2.476,1.504,4.612,2.803,7.226,4.391C689.694,734.317,688.9,731.724,686.738,729.551z M741.441,584.792
		c-0.179-0.054-0.359-0.108-0.538-0.162c-1.127,1.882-2.188,3.792-2.188,6.143c0,0.038,0,0.077,0.001,0.116
		C739.625,588.857,740.533,586.824,741.441,584.792z"/>
	<path fill="#603813" d="M504.303,593.312c-1.195,2.939-1.499,3.026-4.152,3.093c-3.812,0.096-7.306,0.548-11.207,0.548
		c-11.257,0-15.163-0.63-15.163-4.211c0-3.04,13.819-17.044,20.955-17.044c8.865,0,11.76,12.689,24.92,24.382
		c0.619,0.55,1.273,0.806,1.956,0.806c3.111,0,16.555-9.954,16.555-23.304c0-13.192-16.68-12.355-16.68-17.21
		c0-2.613,2.316-3.468,3.715-3.468c1.162,0,19.561,5.024,19.561,20.545c0,15.004-14.683,30.153-23.167,30.153
		C514.067,607.602,505.396,594.743,504.303,593.312z M488.871,590.747c3.407,0,6.699-0.37,10.016-0.37
		c1.153,0,2.31,0.045,3.475,0.165c-0.734-1.31-4.438-8.122-7.765-8.122c-3.016,0-10.282,7.354-10.937,7.957
		C485.436,590.654,487.167,590.747,488.871,590.747z"/>
</g>
</svg>
