<?xml version="1.0" encoding="iso-8859-1"?>
<!-- Generator: Adobe Illustrator 22.1.0, SVG Export Plug-In . SVG Version: 6.00 Build 0)  -->
<svg version="1.1" id="Layer_1" xmlns="http://www.w3.org/2000/svg" xmlns:xlink="http://www.w3.org/1999/xlink" x="0px" y="0px"
	 width="1000px" height="1000px" viewBox="0 0 1000 1000" enable-background="new 0 0 1000 1000" xml:space="preserve">
<g>
	<path fill="#000" d="M636.484,483.865c0.337,3.497,2.019,9.499,2.019,20.94c0,27.006-37.606,225.704-141.746,225.704
		c-40.744,0-100.557-33.254-100.557-97.688c0-123.822,192.116-148.018,227.6-156.527c-4.576-12.215-10.703-17.708-34.686-17.708
		c-44.26,0-114.426,28.469-166.227,28.469c-25.873,0-49.959-6.59-49.959-37.59c0-30.967,44.954-92.743,107.158-92.743
		c49.62,0,78.036,40.958,78.109,41.013c-0.046-1.785-0.565-3.387-1.451-4.85c-47.093-77.702-165.515-15.651-165.515-70.188
		c0-4.736,4.403-20.995,9.159-31.017c2.83-5.964,3.88-11.897,8.395-11.897c2.251,0,4.817,1.82,4.817,5.666
		c0,1.001-0.105,1.806-0.105,2.988c0,6.761,3.148,7.747,9.814,7.747c22.55,0,50.782-17.795,142.005-17.795
		c5.194,0,10.392,0.511,15.843,0.8c-13.121-13.092-65.544-16.715-80.44-16.715c-33.2,0-71.756,11.229-81.348,11.229
		c-3.589,0-4.364-3.098-4.364-4.324c0-7.762,64.783-16.912,85.741-16.912c80.583,0,104.136,30.879,104.136,36.632
		c0,2.133-1.674,4.697-4.821,4.697c-4.497,0-9.038-5.579-41.641-5.579c-76.44,0-114.48,18.006-134.402,18.006
		c-7.041,0-11.514-0.971-16.652-5.598c-1.628,4.145-6.027,18.09-6.027,21.773c0,30.341,89.121,6.82,127.144,28.075
		c24.632,13.769,42.134,41.722,42.134,53.19c0,3.034-2.164,4.931-5.534,4.931c-0.402,0-0.46-0.01-2.446-0.147
		c-0.03,0.423-0.107,0.794-0.107,1.143c0,0.437,0.336,1.987,0.336,4.712c0,23.335-24.659,43.323-62.902,43.323
		c-39.012,0-63.222-22.758-63.655-23.095c-0.491-0.382-4.68-3.949-4.68-8.321c0-15.901,94.851-19.676,114.984-26.892
		c-3.289-4.766-29.392-32.618-67.243-32.618c-49.793,0-96.537,51.236-96.537,83.949c0,18.555,12.817,26.444,39.627,26.444
		c53.2,0,116.965-28.422,168.476-28.422c28.889,0,35.873,9.535,42.725,25.145c0.404,0,0.812,0.046,1.207,0.046
		c0.075,0,45.613-8.418,69.354-20.572c23.188-11.872,27.877-67.783,27.877-80.68c0-120.097-23.879-299.031-264.404-299.031
		c-244.685,0-311.566,86.528-332.521,182.498c1.064,0.246,2.082,0.349,3.069,0.349c7.299,0,48.586-14.426,89.524-14.426
		c59.139,0,69.452,54.957,69.452,56.381c0,3.134-2.171,5.369-5.123,5.369c-20.126,0-89.741-32.124-109.596-32.124
		c-0.638,0-9.721,0.036-12.705,2.845c33.752,8.584,84.991,22.739,104.008,88.921c3.039,10.575,1.964,7.958,8.885,14.36
		c24.531,22.69,31.294,53.303,31.294,53.819c0,6.117-106.547,130.501-106.547,170.087c0,5.227,1.9,10.05,5.266,14.35
		c3.54,4.521,24.158,25.799,36.217,32.852c31.027-20.031,21.563-14.911,39.752-23.777c-2.619-7.902-3.572-9.997-3.572-14.782
		c0-19.651,17.436-24.154,23.052-24.154c14.307,0,38.939,23.316,38.939,39.277c0,13.133-19.711,20.517-35.998,20.517
		c-4.132,0-7.846-0.424-11.913-0.424c-2.131,0-4.261,0.122-6.388,0.495c-6.182,1.084-6.565,1.687-6.565,3.314
		c0,6.361,3.652,34.49,3.652,38.73c0,8.201-4.014,10.422-13.976,10.422c-15.301,0-23.072-10.953-26.727-10.953
		c-5.048,0-16.395,23.899-16.395,28.973c0,0.143,0.085,0.336,0.166,0.717c5.056-0.742,11.638-2.215,19.869-2.215
		c20.245,0,17.659,8.726,24.932,8.726c3.895,0,9.888-4.046,25.094-4.046c18.742,0,29.178,14.307,68.683,14.307
		c0.163,0,11.187-0.034,18.246-2.112c-49.789-18.681-56.944-35.034-78.67-35.034c-5.246,0-7.304,1.147-9.106,1.147
		c-1.717,0-3.211-1.075-3.749-2.613c-0.155-0.442-0.231-0.898-0.231-1.349c0-5.891,14.35-5.729,14.565-5.729
		c10.441,0,21.932,4.585,32.317,11.184c31.423,19.967,37.308,18.831,48.541,23.322c10.962,4.383,13.501,4.857,13.501,8.448
		c0,1.878-1.317,7.596-7.883,8.717c-7.006,1.195-19.347,3.865-43.711,3.865c-28.489,0-40.351-3.157-45.255-3.157
		c-7.135,0-7.934,4.742-24.54,4.742c-22.37,0-34.466-9.707-38.604-12.324c-4.003,5.626-6.443,11.554-6.443,18.136
		c0,18.695,22.821,29.765,48.341,29.765c46.201,0,71.002-23.708,75.501-23.708c3.475,0,4.25,3.324,4.25,4.271
		c0,6.692-37.383,28.481-80.65,28.481c-26.585,0-56.607-12.847-56.607-38.826c0-12.389,7.249-22.062,9.379-25.686
		c-0.532,0-1-0.039-1.434-0.039c-1.643,0-6.707,1.6-10.027,1.6c-4.234,0-6.509-2.702-6.509-5.98
		c0-9.666,12.769-42.871,26.283-42.871c8.44,0,13.904,11.134,26.956,11.134c2.071,0,2.883-0.208,4.696-0.443
		c0-0.928,0.054-1.812,0.054-2.67c0-2.05-3.636-25.521-3.636-37.832c0-10.553,12.892-11.361,20.998-12.164
		c-2.395-1.994-2.936-2.882-4.442-2.882c-7.857,0-39.553,24.924-45.234,24.924c-3.894,0-50.121-31.195-50.121-56.666
		c0-41.661,106.028-168.531,106.028-171.022c0-0.811-8.388-27.712-22.922-40.891c1.495,10.192,2.337,21.103,2.337,21.177
		c0,3.669-2.058,5.484-4.625,5.484c-5.342,0-21.945-47.721-78.4-47.721c-5.799,0-11.581,0.598-17.343,1.84
		c-15.132,3.261-27.242,30.837-27.242,33.209c0,5.149,7.614,11.916,30.089,11.916c22.788,0,45.279-6.778,74.095-6.778
		c1.926,0,5.223,0.22,6.241,3.967c0.516,1.9,1.011,3.914,1.011,5.864c0,16.283-10.343,43.656-58.895,43.656
		c-40.32,0-63.622-25.168-63.622-48.335c0-2.55,0.261-5.145,0.794-7.783c0.289-1.431,0.185-2.937,0.365-4.396
		c3.954-32.098,41.815-52.88,70.084-52.88c22.764,0,37.398,8.355,47.566,13.907c-12.964-73.993-106.353-73.974-106.353-87.509
		c0-8.036,13.017-12.877,24.966-12.877c25.973,0,68.293,25.603,103.576,29.987c-0.565-3.738-12.511-41.32-58.648-41.32
		c-41.74,0-74.866,14.053-90.185,14.053c-2.111,0-2.896-0.131-3.671-0.131c-0.358,0-0.744,0.014-1.199,0.014
		c-10.41,38.049-11.16,58.037-11.16,60.453c0,7.27,0.807,47.561,0.807,74.461c0,58.063-15.996,125.695-15.996,174.926
		c0,80.79,44.688,162.007,125.711,279.371c35.089,50.828,44.583,77.298,117.396,77.298c167.757,0,319.382-279.142,360.027-279.142
		c7.573,0,16.559,11.076,32.025,12.285c6.928-18.91,12.073-38.407,19.085-57.47c-2.032-0.346-19.607-0.093-19.607-24.699
		c0-26.837,22.865-64.132,22.865-92.6c0-22.248-15.369-29.281-15.369-55.898c0-34.156,36.855-95.282,87.272-95.282
		c57.406,0,79.896,81.338,79.896,136.997c0,50.824-31.349,152.372-128.516,192.465c-12.283,5.068-44.993,85.502-58.3,85.502
		c-4.847,0-7.945-4.976-7.945-11.608c0-18.619,12.031-52.529,17.142-67.563c-0.605-0.25-0.999-0.489-1.425-0.579
		c-16.72-3.518-23.985-11.354-27.106-11.354c-34.802,0-182.618,278.711-361.138,278.711c-139.67,0-251.897-302.094-251.897-367.33
		c0-49.862,15.947-118.126,15.947-169.235c0-17.65-1.646-26.831-1.646-62.087c0-317.593,337.301-278.905,350.982-278.905
		c22.725,0,280.533-36.925,280.533,313.005c0,14.808-2.636,29.287-6.899,43.479C721.069,466.724,712.272,464.593,636.484,483.865z
		 M626.715,486.05c-216.311,36.623-220.579,119.143-220.579,146.638c0,55.778,51.41,87.85,90.706,87.85
		c96.417,0,131.726-194.021,131.726-215.525C628.568,496.43,627.462,491.207,626.715,486.05z M751.759,665.176
		c0.538,0,0.916,0.008,1.236,0.008c66.386,0,152.426-93.501,152.426-189.577c0-39.679-15.889-127.012-69.001-127.012
		c-40.568,0-78.402,49.99-78.402,85.344c0,24.043,15.344,31.033,15.344,55.746c0,29.938-22.883,69.367-22.883,92.573
		c0,5.773,1.624,14.793,8.784,14.793c5.238,0,5.869-2.313,6.148-2.961c21.284-49.389,33.418-71.358,33.418-98.875
		c0-2.318-0.335-10.184-0.335-16.513c0-41.699,27.106-80.863,50.857-80.863c1.263,0,2.538,0.123,3.828,0.392
		c10.828,2.263,25.257,11.251,25.257,38.943c0,28.283-18.963,61.463-39.533,74.035c-35.556,21.731-35.603,73.087-65.299,91.32
		C770.332,604.539,752.138,663.111,751.759,665.176z M785.375,572.488c0.175,0.079,0.349,0.158,0.524,0.238
		c19.014-32.055,21.645-54.787,39.518-65.059c41.434-23.813,43.149-64.859,43.149-70.76c0-25.935-15.102-29.21-19.383-29.21
		c-12.696,0-40.826,26.788-40.826,74.013c0,6.661,0.335,8.812,0.335,13.304C808.691,524.118,794.791,551.578,785.375,572.488z
		 M552.959,414.355c0-1.759-0.295-3.562-1.017-5.451c-94.861,14.48-103.202,16.449-108.908,18.344
		c13.015,11.959,35.789,20.428,57.1,20.428C535.4,447.676,552.959,429.936,552.959,414.355z M154.756,417.881
		c0.997,14.993,19.414,35.352,54.151,35.352c30.722,0,49.524-14.135,49.524-33.246c0-0.638-0.088-1.286-0.339-1.948
		c-0.541,0-1.031-0.012-1.502-0.012c-20.89,0-50.17,6.777-69.573,6.777C161.814,424.804,157.572,418.243,154.756,417.881z
		 M294.227,609.802c0,4.283,1.586,8.298,3.347,12.392c3.964-0.66,6.388-1.365,11.229-1.365c4.994,0,16.378,0.507,16.378,10.564
		c0,1.308-0.176,1.779-0.176,2.384c0,0.282,0.022,0.57,0.022,0.867c3.089-0.634,12.825-4.135,12.825-9.813
		c0-9.326-19.246-29.364-30.055-29.364C300.863,595.466,294.227,600.941,294.227,609.802z M730.638,738.856
		c0.215,0.041,0.43,0.082,0.646,0.122c12.559-21.804,25.118-43.608,37.761-65.558c-0.575,0.027-1.024,0.03-1.469,0.073
		c-21.838,2.133-19.494,1.247-20.463,4.036C734.71,713.216,731.858,726.387,730.638,738.856z M216.624,358.031
		c-3.921,0-7.84,0.376-11.756,1.267c35.738,3.118,51.059,16.919,67.539,33.513c-0.851-4.452-2.02-8.71-3.113-12.989
		C267.896,374.35,243.102,358.031,216.624,358.031z M310.24,731.52c1.607,0,3.23,0.206,4.844,0.284
		c-4.464-3.093-9.405-3.006-11.248-3.006c-16.952,0-23.485,5.084-27.56,5.084c-6.71,0-8.337-9.699-22.156-9.699
		c-1.012,0-2.036,0.019-3.066,0.022c0.944,2.126,14.468,12.008,34.011,12.008C301.995,736.212,299.814,731.52,310.24,731.52z
		 M314.602,632.023c0.475,0,0.966-0.058,1.483-0.195c-1.167-1.155-2.694-1.736-4.624-1.736c-0.948,0-1.994,0.14-3.142,0.422
		C310.692,630.885,312.494,632.023,314.602,632.023z"/>
</g>
</svg>
