<?xml version="1.0" encoding="iso-8859-1"?>
<!-- Generator: Adobe Illustrator 22.1.0, SVG Export Plug-In . SVG Version: 6.00 Build 0)  -->
<svg version="1.1" id="Layer_1" xmlns="http://www.w3.org/2000/svg" xmlns:xlink="http://www.w3.org/1999/xlink" x="0px" y="0px"
	 width="1000px" height="1000px" viewBox="0 0 1000 1000" enable-background="new 0 0 1000 1000" xml:space="preserve">
<g>
	<path fill="#603813" d="M567.704,722.055c0.714,0,1.456,0.001,2.276,0.001c0.455-3.476,0.754-3.41,0.754-9.983
		c0-57.014-44.59-85.072-60.586-87.086c-0.114,0.695-0.324,1.371-0.324,2.046c0,50.306,0.864,54.052,0.864,57.307
		c0,9.779-1.158,8.039-64.721,8.039c-6.227,0-10.686-4.023-10.686-10.543c0-14.662,3.083-65.862,61.837-72.224
		c26.434-248.007,86.297-300.652,86.297-312.973c0-1.227-2.232-10.555-2.232-24.839c0-82.527,70.986-149.594,143.377-149.594
		c78.97,0,108.989,65.772,108.989,72.114c0,3.838-3.084,6.577-6.561,6.577c-11.044,0-22.95-65.5-101.931-65.5
		c-61.97,0-130.584,57.52-130.584,136.198c0,6.13,0.199,6.474,0.34,7.552c22.363-30.689,61.336-89.326,128.263-89.326
		c71.359,0,128.191,55.03,128.191,113.461c0,13.327-4.163,33.087-9.405,36.873c-2.369,1.711-1.813,5.961-9.151,5.961
		c-3.86,0-220.627-0.194-220.752-0.194c-0.733,0-0.811,0.037-1.46,0.037c-8.34,0-12.269-6.97-21.993-29.913
		c-61.567,104.698-77.974,263.886-77.974,294.096c0,0.241,0.063,0.496,0.101,0.831c0.281,0.157,0.571,0.414,0.903,0.492
		c46.036,10.774,72.634,59.525,72.634,98.327c0,5.466-0.456,10.936-1.222,16.412c-0.874,6.246-7.054,9.174-11.382,9.174
		c-0.475,0-0.953-0.027-1.428-0.027c-50.535,0-259.479,0.878-259.554,0.878c-17.777,0-21.46-16.67-21.46-24.718
		c0-32.426,165.663-355.217,165.663-414.919c0-49.117-26.418-73.528-35.779-81.359c1.141,6.036,12.012,31.343,12.012,71.382
		c0,49.478-11.991,58.017-23.096,58.017c-203.038,0-192.923,2.108-192.923-10.343c0-77.942,67.097-153.013,144.905-153.013
		c14.72,0,23.388,2.715,28.242,3.402c-0.776-1.845-29.666-48.381-78.574-48.381c-60.962,0-80.358,63.795-89.202,63.795
		c-2.906,0-6.542-2.257-6.542-6.498c0-3.466,30.706-70.652,95.524-70.652c65.057,0,97.759,66.99,98.311,67.914
		c2.54,4.256,60.434,28.042,60.434,104.597c0,60.143-165.614,392.343-165.614,415.796c0,2.556,0.222,11.637,7.846,11.637
		C310.409,722.885,522.477,722.055,567.704,722.055z M829.943,332.784c0.651,0,1.332,0,2.095,0
		c1.443-4.16,5.958-14.421,5.958-29.556c0-53.183-54.218-100.102-113.316-100.102c-76.475,0-126.733,96.512-126.733,97.219
		c0,1.614,3.558,15.146,11.58,29.385c1.261,2.238,2.725,2.954,5.25,2.954c0.227,0,9.828-0.003,23.14-0.003
		C717.18,332.681,820,332.784,829.943,332.784z M228.359,330.709c0.943,0,1.657-0.001,2.287-0.001
		c7.494,0,172.372,0.607,172.448,0.607c15.246,0,14.586-35.909,14.586-44.69c0-8.407,0.055-43.65-17.698-81.651
		c-2.576-5.514-24.47-10.373-39.863-10.373C325.206,194.601,237.86,222.682,228.359,330.709z M496.696,678.819
		c-0.152-18.716-0.301-37.063-0.45-55.434c-0.837,0-1.663-0.048-2.479-0.048c-3.683,0-41.026,1.644-45.161,55.483
		C464.846,678.819,480.714,678.819,496.696,678.819z"/>
	<path fill="#603813" d="M599.187,849.327c-0.999,0-1.875-0.002-2.708-0.002c-3.227,0-297.201,0.995-297.286,0.995
		c-0.163,0-8.496,0.626-8.496-6.866c0-3.372,2.315-4.675,3.635-6.083c-0.242-0.721-0.348-1.419-0.348-2.101
		c0-8.088,31.125-55.982,88.302-55.982c34.665,0,55.261,18.313,57.93,20.332c11.071-6.644,34.388-23.628,69.361-23.628
		c45.559,0,79.409,30.431,79.409,38.114c0,3.406-2.915,6.41-6.493,6.41c-7.579,0-24.861-31.219-72.459-31.219
		c-40.974,0-65.685,26.202-69.591,26.202c-7.419,0-17.873-22.693-58.256-22.693c-52.504,0-74.456,43.063-74.983,44.041
		c1.278,0.046,2.213,0.111,3.138,0.111c0.079,0,273.879-0.989,295.63-0.989c9.962,0,10.013,6.334,10.013,7.146
		c0,16.329-48.337,85.214-174.616,85.214c-105.846,0-145.47-51.514-145.47-60.083c0-3.527,2.96-6.493,6.53-6.493
		c8.547,0,27.473,53.252,138.136,53.252C554.558,915.006,596.601,858.016,599.187,849.327z"/>
</g>
</svg>
