<?xml version="1.0" encoding="iso-8859-1"?>
<!-- Generator: Adobe Illustrator 22.1.0, SVG Export Plug-In . SVG Version: 6.00 Build 0)  -->
<svg version="1.1" id="Layer_1" xmlns="http://www.w3.org/2000/svg" xmlns:xlink="http://www.w3.org/1999/xlink" x="0px" y="0px"
	 width="1000px" height="1000px" viewBox="0 0 1000 1000" enable-background="new 0 0 1000 1000" xml:space="preserve">
<g>
	<path fill="#603813" d="M658.206,568.236c17.868,4.174,31.175,11.258,31.175,32c0,6.64-2.028,18.426-6.325,30.505
		c-13.451,37.808-7.677,60.961-43.408,66.305c-5.824,0.871-3.116,58.388-54.954,86.868c-1.902,1.045-14.807,126.04-61.947,126.04
		c-40.474,0-153.336-118.237-171.468-129.068c-44.81-26.764-52.235-67.508-54.439-70.297c-0.283,0-0.594-0.021-0.911-0.021
		c-0.741,0-1.673,0.228-3.902,0.228c-44.213,0-68.571-84.566-68.571-121.411c0-17.89,5.213-21.424,9.398-22.917
		c-9.856-6.224-25.786-8.58-25.786-86.655c0-168.575,86.822-187.112,90.239-190.557c17.729-17.876,22.008-17.144,40.386-20.075
		c-2.999-5.225-21.051-26.535-21.051-60.683c0-22.455,10.876-145.401,134.811-145.401c84.527,0,127.33,70.337,127.33,82.861
		c0,1.071-0.236,7.202-7.777,7.202c-9.848,0-18.812-5.451-51.85-5.451c-110.562,0-168.259,70.13-168.259,89.076
		c0,10.525,17.343,9.653,19.548,9.653c71.675,0,176.822-89.876,202.293-89.876c22.827,0,24.446,24.984,24.446,54.661
		c0,23.274-9.656,23.363-9.996,23.363c-0.443,0-0.916-0.047-1.423-0.147c0.372,1.685,0.542,3.31,0.542,4.886
		c0,6.761-3.127,12.627-6.886,18.481c19.769,3.539,58.365,17.103,69.106,55.57c22.528,80.678,47.8,60.739,47.8,110.878
		c0,7.275-0.391,10.354-0.391,18.737c0,22.296,2.3,42.258,2.3,52.591c0,22.184-7.824,66.026-21.112,66.026
		c-32.468,0-54.551-127.116-54.551-142.254c0-14.57,2.66-18.749,2.66-21.999c0-3.077-8.611-35.808-17.673-55.557
		c-21.24-46.29-264.909-18.016-264.909-59.345c0-1.745,0.474-3.652,1.392-5.924c-1.606-2.034-1.883-2.689-3.219-2.689
		c-0.189,0-0.388,0.018-0.598,0.053c-34.704,5.83-18.953,3.81-36.806,15.765c0.119,0.23,0.238,0.46,0.358,0.691
		c3.039,0.554,26.748,3.128,26.748,31.296c0,16.519-10.096,40.083-10.096,42.675c0,0.217,0.021,0.444,0.068,0.684
		c5.159-5.96,32.745-44.283,92.266-44.283c14.179,0,63.593,5.453,71.457,5.453c11.077,0,36.649-2.395,43.444-2.395
		c6.567,0,13.026,1.022,19.377,2.838c17.857,5.108,55.785,63.564,63.902,97.462C637.273,534.041,643.912,516.202,658.206,568.236z
		 M632.77,673.95c0.154-0.037,0.309-0.074,0.463-0.111c0.081-0.582,0.193-1.162,0.238-1.747
		c6.356-82.648,20.009-95.316,20.009-101.171c0-1.118-0.172-5.066-2.391-10.825c-58.655-152.228-37.102-133.746-64.295-179.438
		c-30.998-52.086-42.534-52.133-58.755-52.133c-6.803,0-31.362,2.512-41.83,2.512c-14.334,0-56.041-5.321-73.336-5.321
		c-30.513,0-56.056,14.19-58.724,15.635c-65.091,35.25-70.808,175.67-70.808,178.463c0,0.536,0.022,1.073,0.022,1.608
		c17.22-11.143,15.262-77.121,89.233-77.121c36.438,0,37.593,4.558,39.608,8.983c8.884,19.514,10.247,36.451,10.247,38.413
		c0,2.092-1.208,3.305-2.9,3.305c-5.932,0-32.021-28.292-62.366-28.292c-30.132,0-38.353,30.997-38.353,34.207
		c0,0.081,0.161,0.193,0.242,0.29c1.153-0.205,18.106-22.97,50.186-22.97c43.835,0,53.719,41.292,53.719,42.808
		c0,1.361-1.261,4.31-3.347,4.31c-2.84,0-13.326-18.675-42.727-18.675c-8.152,0-31.716,2.14-45.432,22.46
		c3.079,1.04,3.587,1.304,31.022,1.304c32.02,0,44.373-7.648,49.588-7.648c3.003,0,5.365,4.468,5.365,6.877
		c0,7.879-26.166,21.425-45.389,21.425c-21.259,0-52.427-12.902-57.783-12.902c-5.165,0-23.505,7.797-23.505,50.165
		c0,7.381,0.089,6.413,0.421,7.651c8.587-22.268,12.408-37.115,80.291-37.115c24.68,0,34.234,0.34,34.234,9.297
		c0,0.089-0.104,3.056-0.298,4.067c-23.52,122.373-38.382,128.56-54.587,128.56c-42.407,0-57.456-53.14-59.517-59.417
		c-0.251,0.731-0.34,1.42-0.34,2.095c0,15.47,7.949,45.436,8.179,53.148c0.129,4.33,13.794,100.466,139.831,100.466
		c17.986,0,33.908-2.121,39.868-3.101c-5.884-7.593-19.261-23.61-19.261-57.72c0-6.845,0.529-11.705,0.997-16.706
		c-0.821,0-1.551,0-2.25,0c-7.742,0-43.138,0.269-43.138-28.626c0-0.237,0.002-0.296,0.002-0.832c0-0.372-0.001-0.775-0.001-1.261
		c-5.55,1.175-10.351,2.401-16.014,2.401c-2.864,0-7.376-0.114-10.417-4.99c36.984-44.495,46.214-47.111,54.668-47.111
		c5.909,0,7.447,1.841,13.341,2.57c1.699-3.32,3.295-6.438,4.905-9.583c-0.72-0.843-4.592-7.004-17.796-7.004
		c-4.087,0-11.942,1.4-15.168,1.4c-10.405,0-14.608-11.511-14.608-18.095c0-4.705,1.872-8.971,5.261-12.802
		c6.492-7.335,11.02-4.428,11.783-8.797c6.042-34.599,16.762-64.949,25.302-65.357c2.608-0.125,4.5-1.539,9.29-1.539
		c10.49,0,54.236,19.73,96.844,19.73c17.547,0,19.071-4.265,19.277-4.501c-0.353,0-0.573-0.011-0.741-0.011
		c-0.672,0-9.105,1.549-19.908,1.549c-37.857,0-47.188-14.099-57.373-14.099c-0.115,0-0.156,0.001-0.198,0.001
		c-1.486,0-2.825-1.041-2.825-2.492c0-3.187,27.364-17.171,53.087-17.171c19.328,0,25.951,8.172,42.725,24.519
		c1.86-1.163,2.432-2.659,2.432-4.353c0-6.219-11.056-43.074-47.005-43.074c-30.533,0-54.701,37.843-57.372,37.843
		c-1.183,0-2.394-0.991-2.394-2.412c0-2.098,40.807-60.269,79.285-60.269c17.234,0,25.159,9.541,35.393,17.497
		c0.1-0.122,0.199-0.245,0.299-0.367c-11.542-17.763-14.888-26.26-49.293-26.26c-71.124,0-72.661,63.361-80.128,63.361
		c-0.736,0-2.159-0.443-2.159-2.269c0-1.593,11.039-66.058,82.672-66.058c9.059,0,18.08,1.142,27.073,3.179
		c17.199,3.896,34.874,39.598,34.874,42.521c0,1.703-1.338,2.537-2.391,2.537c-2.241,0-2.742-2.876-5.094-4.877
		c-21.965-18.692-26.336-24.255-41.955-24.255c-20.161,0-41.056,19.326-42.182,21.122c4.472-2.126,12.494-6.279,23.857-6.279
		c39.196,0,51.519,40.04,51.519,47.957c0,6.645-5.68,9.987-7.731,9.987c-6.29,0-15.505-25.096-43.409-25.096
		c-20.884,0-40.062,9.643-41.338,11.405c14.376,6.541,23.564,12.409,49.384,12.409c12.875,0,20.225-2.066,22.722-2.066
		c2.608,0,4.218,1.562,4.218,3.929c0,9.303-14.146,10.996-26.338,10.996c-41.58,0-87.964-19.684-95.334-19.684
		c-1.569,0-5.675,0.986-9.614,1.526c-3.613,0.495-14.332,24.973-20.672,61.825c0.705,0.057,1.243,0.151,1.757,0.151
		c1.295,0,5.741-0.488,7.886-0.488c9.642,0,9.098,5.563,9.098,7.675c0,18.758-0.73,23.053-9.178,23.053
		c-7.513,0-15.536-7.571-15.536-19.728c0-0.933,0.032-1.026,0.032-2.165c0-0.658-0.011-1.334-0.011-2.057
		c-2.406,0.331-10.89,4.823-10.89,14.002c0,4.914,2.998,12.864,9.562,12.864c2.921,0,9.487-1.434,14.99-1.434
		c11.875,0,18.064,5.092,19.023,5.382c5.456-7.937,13.294-43.607,31.043-43.607c12.479,0,19.68,19.253,19.68,26.614
		c0,3.631-0.874,7.246-2.501,10.896c-3.719,8.347-10.092,8.652-15.836,8.652c-1.793,0-3.587-0.02-5.38-0.02
		c-3.034,0-8.388,0.035-15.23,1.031c-5.723,0.833-10.288,8.21-11.17,10.953c0.189,0.107,0.259,0.178,0.316,0.178
		c1.107,0,5.208-2.099,13.976-2.099c25.531,0,34.832,12.854,47.42,26.94c10.923,12.223,15.615,8.591,15.615,12.753
		c0,3.244-9.192,9.043-15.323,9.043c-3.821,0-6.576-1.321-9.246-2.368c-0.073,0.134-0.146,0.267-0.219,0.401
		c2.585,2.573,6.411,5.537,6.411,8.941c0,1.533-4.19,18.651-56.61,25.582c-0.454,5.178-1.03,9.102-1.03,16.758
		c0,34.167,13.961,50.279,20.895,57.685c1.437,1.535,3.128,2.248,5.138,2.248c37.369,0,66.854-7.156,67.65-7.329
		c52.113-11.297,73.409-66.292,73.409-90.123c0-0.628-0.042-1.31-0.042-2.113c-8.675,1.56-15.851,3.817-27.658,3.817
		c-67.618,0-71.429-76.563-71.429-93.558c0-38.341,9.143-54.315,60.888-54.315c9.016,0,17.887,1.387,26.647,3.964
		c9.231,2.715,11.176,6.327,11.176,22.079c0,8.88-3.009,45.776-3.009,57.186C628.268,652.851,630.568,661.924,632.77,673.95z
		 M385.595,250.827c-0.047-0.142-0.094-0.284-0.142-0.425c-0.18,0.015-12.851,0.987-18.064,0.987c-1.884,0-21.5,0.126-21.5-14.796
		c0-19.967,57.515-93.95,175.352-93.95c29.302,0,42.308,5.602,49.778,5.602c1.843,0,2.761-0.721,2.761-2.198
		c0-4.312-34.475-77.947-122.508-77.947c-107.657,0-129.579,97.487-129.579,140.447c0,32.912,20.094,59.753,23.135,59.753
		C356.679,268.3,352.906,266.045,385.595,250.827z M628.616,410.18c-0.153,0.003-0.305,0.007-0.458,0.01
		c-0.101,0.503-0.29,1.006-0.29,1.509c0,0.023,0,0.187,0,0.468c0,2.863-0.049,5.73-0.049,8.594
		c0,26.537,11.044,51.646,22.461,100.301c5.909,25.181,21.939,35.45,26.837,35.45c7.039,0,16.128-36.481,16.128-59.103
		c0-10.545-2.26-32.106-2.26-55.13c0-8.98,0.274-11.005,0.274-16.182c0-53.017-23.244-25.19-47.832-112.353
		c-12.304-43.617-64.903-51.19-66.63-51.19c-3.647,0-27.585,31.404-87.584,31.404c-64.353,0-61.104-27.284-61.517-29.466
		c-0.497,0-0.917-0.019-1.307-0.019c-5.889,0-48.726,5.109-68.592,7.467c-4.071,0.483-10.269,6.916-10.269,10.106
		c0,6.703,11.455,12.812,37.915,16.524c218.219,30.61,212.912-9.992,243.319,90.585c2.195-3.186,7.689-12.295,17.995-12.295
		c20.25,0,38.544,41.077,38.544,79.501c0,21.168-5.877,41.916-13.999,41.916C670.025,498.278,650.013,500.574,628.616,410.18z
		 M371.464,790.647c-0.095,0.126-0.19,0.252-0.284,0.377c16.922,14.08,118.007,113.953,151.503,113.953
		c4.595,0,43.373-5.727,55.014-117.818c-3.236,1.311-29.17,13.709-84.382,13.709c-7.869,0-8.635-2.353-10.989-2.353
		c-1.336,0-19.142,3.465-43.051,3.465C404.457,801.981,384.399,795.246,371.464,790.647z M290.309,297.124
		c-7.223,1.561-78.405,38.53-78.405,179.064c0,58.045,7.526,78.594,20.519,84.675c4.591,2.149,7.388,4.388,9.45,4.655
		c10.954,1.418,15.386,4.83,17.445,4.83c2.711,0,8.304-6.649,10.62-13.581c7.96-23.819,8.031-24.961,8.031-27.725
		c0-0.94-0.072-1.123-0.072-2.145c0-34.692,12.074-87.819,12.083-87.879c-1.658,1.905-9.145,11.898-18.067,11.898
		c-11.753,0-21.368-19.818-21.368-46.024C250.545,347.173,289.751,297.956,290.309,297.124z M626.222,587.247
		c0-2.152,0.047-4.147,0.047-6.077c0-5.512-0.565-9.04-1.011-14.585c-0.667-8.288-30.945-9.114-31.517-9.114
		c-44.82,0-56.207,9.256-56.207,49.486c0,11.581,1.738,88.42,65.853,88.42c12.023,0,20.555-2.533,24.825-3.359
		c2.073-0.401,2.715-0.619,2.715-1.866c0-5.362-7.714-28.968-7.714-53.736C623.213,629.023,623.785,622.026,626.222,587.247z
		 M374.068,563.634c-0.003,0.078-0.005,0.155-0.008,0.233c-3.427,0.086-32.092-0.131-53.939,5.626
		c-25.033,6.597-27.802,45.535-27.802,45.608c0,47.439,32.139,80.733,58.022,80.733c2.335,0,9.785-0.431,15.712-7.501
		c14.716-17.557,34.653-117.016,34.653-119.305C400.706,563.491,394.631,564.429,374.068,563.634z M416.959,488.138
		c0.029-0.356,0.042-0.701,0.042-1.038c0-2.102-0.517-3.845-0.918-5.595c-7.575-33.065-7.444-32.234-44.242-32.234
		c-30.898,0-50.038,8.656-66.227,42.513c-16.531,34.571-22.653,35.318-22.653,43.846c0,0.602,0.055,1.656,0.055,3.921
		c0,30.238-12.794,59.774-12.794,90.652c0,26.868,12.732,56.369,12.732,59.111c0,2.195-1.945,2.477-2.358,2.477
		c-1.853,0-2.481-1.819-3.064-2.909c-18.403-34.385-32.242-47.904-32.242-86.997c0-19.7,4.975-26.087,8.893-26.087
		c6.074,0,6.27,14.237,7.99,30.475c0.469-0.28,0.658-0.593,0.719-0.929c1.542-8.44,2.565-12.474,2.565-17.813
		c0-1.127-0.041-2.254-0.111-3.372c-0.634-10.08-22.152-13.765-26.22-13.765c-4.499,0-10.709,0.222-10.709,18.092
		c0,47.669,29.539,117.692,63.993,117.692c1.608,0,1.768-0.154,3.224-0.382c-0.172-0.784-9.868-45.779-9.868-71.14
		c0-11.999,1.213-15.66,1.213-21.631c0-4.094-1.248-11.805-1.248-24.214c0-50.988,24.847-55.664,28.464-55.664
		c5.271,0,39.1,12.858,57.107,12.858c18.521,0,41.456-13.125,41.456-16.313c0-0.449-0.301-0.937-0.919-1.77
		c-25.132,6.586-26.354,7.476-58.035,7.476c-13.553,0-27.746-0.257-27.746-5.758c0-3.589,16.433-27.871,50.423-27.871
		c23.931,0,35.7,11.222,39.499,13.56c-6.718-19.77-26.754-32.134-46.496-32.134c-38.126,0-51.897,31.22-55.117,31.22
		c-2.732,0-2.463-2.576-2.463-4.213c0-3.933,5.676-48.566,45.58-48.566C384.033,461.639,409.821,483.365,416.959,488.138z
		 M255.499,407.293c0,18.93,7.801,38.68,16.725,38.68c22.194,0,53.323-112.602,53.323-124.183c0-6.531-2.323-26.404-24.982-26.404
		C295.553,295.386,255.499,346.859,255.499,407.293z M432.829,258.86c0.577,0,1.08,0.014,1.556,0.014
		c0.98,0,58.605-3.382,98.867-3.382c25.474,0,37.597,1.514,39.117,1.514c2.969,0,8.997-11.028,8.997-17.526
		c0-8.125-9.697-21.483-46.182-21.483c-28.036,0-63.873,9.206-79.433,13.208C445.292,233.895,434.181,246.739,432.829,258.86z
		 M471.872,216.585c0.085,0.113,0.17,0.225,0.255,0.338c7.921-2.357,23.426-7.662,47.113-7.662c42.677,0,59.16,14.478,68.221,20.252
		c2.621-2.568,4.657-6.195,4.657-19.894c0-32.56-3.31-48.063-18.88-48.063C562.361,161.556,471.932,216.544,471.872,216.585z
		 M680.398,456.496c-2.4-52.556-23.001-74.661-33.729-74.661c-9.421,0-15.705,12.545-15.705,15.835
		c0,4.005,23.346,95.566,40.047,95.566C674.403,493.236,680.073,477.867,680.398,456.496z M528.643,260.468
		c-31.881,0-63.767,1.974-95.785,3.43c0.731,9.07,5.017,25.068,55.554,25.068c27.448,0,61.471-8.917,80.093-26.774
		c-0.067-0.176-0.134-0.352-0.201-0.529C555.078,260.808,541.861,260.468,528.643,260.468z M638.114,691.591
		c0,0.042,0,0.086,0,0.132c0,0.08-0.001,0.166-0.007,0.26c0.351,0.017,0.683,0.073,1.001,0.073c0.104,0,0.207-0.006,0.308-0.022
		c8.116-1.254,15.663-1.384,20.42-9.013c11.166-17.909,24.544-76.265,24.544-82.388c0-1.975-0.258-16.957-11.37-21.797
		c-12.686-5.526-12.721-4.89-13.51-5.005c0,0.614-0.051,1.145-0.051,1.63c0,4.042,5.847,20.603,5.847,26.334
		c0,6.799-5.465,13.658-5.465,16.914c0,3.036,4.561,10.813,4.561,16.571c0,14.479-11.689,7.267-15.119,27.228
		C646.998,675.745,638.114,689.58,638.114,691.591z M525.093,681.834c2.879,0,5.653-1.152,8.402-3.403
		c-17.288-8.768-23.453-35.333-54.137-35.333c-4.634,0-9.44,0.671-14.409,1.952c-4.736,1.222-5.715,4.183-5.715,10.28
		c0,1.652,0.157,9.234,3.201,16.029c0.324,0.045,0.538,0.107,0.734,0.107c1.966,0,8.398-1.45,15.884-1.45
		C505.366,670.015,517.806,681.834,525.093,681.834z M454.424,656.441c0-3.293,0.433-6.616,1.436-9.987
		c-8.167-1.967-9.502-2.451-12.09-2.451c-15.568,0-48.1,42.162-48.142,42.222c0.662,0.159,1.153,0.389,1.622,0.389
		c9.194,0,59.511-14.271,59.946-14.489C455.536,666.922,454.424,661.72,454.424,656.441z M466.477,714.224
		c44.751-5.906,50.491-19.979,50.491-20.532c0-2.7-18.481-18.468-39.139-18.468C466.816,675.224,472.695,679.833,466.477,714.224z
		 M466.271,676.254c-11.424,0.93-46.106,9.759-46.172,12.326c-0.034,1.337-0.154,2.685-0.154,4.019
		c0,13.198,12.633,22.044,39.833,22.044C463.325,714.643,461.509,709.055,466.271,676.254z M655.166,581.552
		c-0.177-0.026-0.355-0.053-0.532-0.079c-14.422,41.957-15.322,76.941-16.281,97.046c2.064-1.924,4.882-11.061,6.104-17.26
		c4.376-22.19,14.976-15.452,14.976-25.816c0-4.601-4.707-12.781-4.707-16.924c0-4.539,5.566-10.831,5.566-16.66
		C660.292,597.778,657.146,588.159,655.166,581.552z M367.54,265.607c20.249-2.219,40.158-4.4,60.108-6.585
		c3.234-17.062,10.535-20.459,10.535-22.329c0-0.032-0.001-0.064-0.003-0.097C425.143,239.261,373.733,260.309,367.54,265.607z
		 M265.234,631.602c0-1.131,0.022-2.267,0.069-3.409c-1.574,0.527-1.988,0.808-2.853,0.808c-5.737,0-3.797-28.482-8.451-46.769
		c-0.16-0.015-0.321-0.03-0.481-0.045c-3.526,7.316-3.321,17.27-3.321,19.293c0,37.494,19.595,63.098,19.791,63.319
		C267.491,653.876,265.234,642.99,265.234,631.602z M482.678,595.529c2.533-0.564,4.053-0.985,6.454-0.985
		c3.308,0,13.355,1.295,13.355,11.204c0,6.378-4.46,11.864-17.482,11.864c-4.405,0-6.489-0.582-12.741-1.481
		c-2.673,6.366-1.574,3.809-4.135,9.606c18.471-5.5,33.011,0.136,36.452-5.35c2.296-3.66,3.93-7.469,3.93-11.616
		c0-6.519-6.589-21.826-14.853-21.826C487.292,586.947,483.617,593.954,482.678,595.529z M435.341,593.593
		c-0.234,1.754-0.397,3.487-0.397,5.198c0,8.248,4.324,14.804,11.463,14.804c1.824,0,2.359-0.589,2.53-2.671
		c0.573-6.958,0.877-14.708,0.877-15.401c0-1.837-0.489-2.105-2.617-2.51c-0.323-0.062-0.656-0.13-0.982-0.13
		C446.096,592.883,446.389,592.857,435.341,593.593z M474.892,611.329c3.025,0.584,6.117,1.338,10.155,1.338
		c9.489,0,12.468-3.153,12.468-6.968c0-4.56-4.477-6.196-8.467-6.196C484.46,599.503,480.218,601.02,474.892,611.329z
		 M270.852,585.412c2.722-10.769,5.431-21.477,5.997-32.622c-2.594,7.805-6.111,14.995-12.684,20.492
		C268.582,576.318,270.151,580.598,270.852,585.412z M480.46,219.941c9.175-1.676,18.351-3.352,27.526-5.027
		C498.576,215.318,489.41,217.042,480.46,219.941z"/>
</g>
</svg>
