<?xml version="1.0" encoding="iso-8859-1"?>
<!-- Generator: Adobe Illustrator 22.1.0, SVG Export Plug-In . SVG Version: 6.00 Build 0)  -->
<svg version="1.1" id="Layer_1" xmlns="http://www.w3.org/2000/svg" xmlns:xlink="http://www.w3.org/1999/xlink" x="0px" y="0px"
	 width="1000px" height="1000px" viewBox="0 0 1000 1000" enable-background="new 0 0 1000 1000" xml:space="preserve">
<g>
	<path fill="#000" d="M445.831,885.041c-3.11-1.516-4.209-2.855-4.21-5.472c0-0.875,0.305-7.759,4.269-16.61
		c46.94-104.828,63.712-99.144,63.703-116.934c-0.004-7.173-44.754-10.632-44.762-25.99c-0.002-3.951,2.942-6.762,5.428-9.987
		c-1.841-3.113-19.143-26.047-19.166-68.654c-0.043-80.608,79.046-136.51,126.698-136.535c23.482-0.013,60.932,16.427,60.955,60.163
		c0.041,77.194-99.784,101.637-157.164,145.638c1.496,1.817,21.652,18.669,43.132,26.773
		c19.368,7.307,103.091,18.951,108.571,18.948c2.192-0.001,38.867-1.056,38.859-16.798c-0.001-2.26-1.079-8.639-1.088-24.82
		c-0.008-15.261,0.704-23.682,1.112-27.828c1.793-18.194,20.484-26.386,20.482-30.916c0-0.277-0.029-0.571-0.083-0.888
		c-3.22-18.782-0.941-17.568-7.128-17.565c-7.436,0.004-17.679,1.165-22.435,1.168c-5.861,0.003-10.473-1.232-16.211-2.126
		c-1.725-0.269-4.175-1.631-4.176-4.111c0-0.649,0.155-3.55,4.006-3.731c24.372-1.148,25.096,0.877,30.062-2.224
		c5.376-3.358-1.222-3.237,26.75-16.841c-3.081-4.516-3.468-9.4-3.471-14.345c-0.001-1.643,0.041-3.293,0.04-4.938
		c0-0.54-0.005-1.079-0.018-1.618c-5.279-1.593-8.443-5.649-11.905-9.576c-8.699,1.803-15.564,1.883-16.185,1.884
		c-14.215,0.008-14.421-13.683-14.424-18.76c-0.009-17.159,13.371-35.167,29.918-35.175c20.713-0.011,22.553,29.611,22.557,37.341
		c0.002,4.062-0.383,8.183-1.273,12.41c3.598-2.047,43.723-30.872,43.715-47.109c-0.006-10.825-52.855-46.459-52.883-98.191
		c-0.021-39.972,27.109-60.92,27.103-73.03c-0.001-2.052-21.824-69.194-41.428-139.983c-2.992,3.945-19.904,33.397-19.884,70.728
		c0.023,43.578,21.099,63.536,21.104,72.326c0.003,5.895-5.234,11.69-5.334,11.801c-14.988,16.573-15.595,17.634-19.105,17.734
		c-8.294,17.85-16.011,34.683-20.822,34.685c-3.888,0.002-20.173-25.386-54.327-25.368c-18.055,0.01-25.747,6.997-40.081,16.525
		c20.815,11.127,45.972,13.755,71.64,17.049c7.08,0.909,14.142-1.061,14.145,4.154c0.001,1.412-0.682,2.8-3.762,5.84
		c-10.959,10.816-14.347,16.085-35.876,16.096c-33.741,0.018-49.527-21.647-51.677-24.116c-0.415-0.477-1.202-1.747-1.203-3.022
		c-0.001-1.934,1.713-3.513,3.55-3.514c4.116-0.002,14.308,23.406,49.774,23.387c17.236-0.009,20.284-4.367,27.604-10.972
		c-6.748-1.168-50.732-4.124-76.354-17.677c-3.747-1.982-8.653-2.499-8.655-6.193c-0.001-1.154,0.623-2.341,1.905-3.342
		c22.393-17.497,33.145-21.525,49.299-21.534c25.448-0.014,46.798,16.034,53.559,22.751c3.268-2.852,13.322-23.163,14.288-28.845
		c-24.933-21.179-69-24.652-85.726-24.643c-32.54,0.017-44.608,9.415-49.404,9.417c-2.506,0.001-3.358-2.352-3.359-3.475
		c-0.003-4.618,33.519-30.664,86.946-30.692c5.4-0.003,21.128-0.67,43.154,15.766c17.008,12.691,16.041,25.453,17.216,27.706
		c0.013-0.001,0.028-0.002,0.042-0.002c0.037,0,0.076,0.003,0.113,0.003c0.074,0,15.078-14.246,15.075-19.593
		c-0.003-4.876-20.916-26.911-20.94-71.688c-0.022-41.277,19.603-73.684,19.663-73.758c9.153-11.314,6.997-7.772,7.977-10.177
		c-2.814-2.456-6.217-2.856-11.266-2.853c-30.853,0.016-242.714,98.008-242.67,180.014c0.015,28.704,33.09,71.766,33.108,104.489
		c0.033,61.728-128.049,99.825-128.017,160.105c0.022,41.285,66.315,74.49,66.34,121.884
		c0.037,70.049-273.081,107.929-287.877,107.937c-6.843,0.004-14.943-0.561-14.947-7.466
		c-0.009-16.204,57.374-58.051,57.327-145.327c-0.052-98.34-90.811-146.957-90.865-248.194
		c-0.035-64.723,32.613-105.522,33.282-112.281c9.98-100.82,173.411-280.61,391.821-280.726
		c162.188-0.087,131.87,97.789,180.045,97.763c4.569-0.002,22.969-3.26,32.578-3.265c14.188-0.008,57.268,12.304,57.298,68.586
		c0.004,7.231-0.999,43.687-0.983,73.746c0.11,206.559,113.411,167.8,113.463,263.98c0.057,106.428-181.59,161.65-181.546,243.705
		c0.017,31.439,52.954,28.939,52.958,37.736c0.001,2.043-1.494,3.608-3.92,3.609c-0.113,0-1.119-0.001-2.182-0.31
		c-19.152-5.569-54.164-11.527-54.18-41.092c-0.049-92.172,181.646-138.091,181.589-244.437
		c-0.048-89.632-113.512-52.53-113.627-268.706c-0.018-32.874,1.082-52.382,1.073-69.155c-0.026-48.155-36.759-60.359-49.576-60.352
		c-8.616,0.005-27.316,3.25-31.944,3.253c-8.587,0.005-16.119-3.18-22.901-9.152c-41.871-36.868-24.316-88.641-158.427-88.57
		c-237.469,0.127-381.637,210.109-381.611,258.327c0,0.133,0.119,0.306,0.24,0.641c94.261-127.405,197.658-143.309,229.485-143.326
		c39.476-0.021,73.903,21.668,73.928,68.897c0.05,93.629-145.217,198.208-227.766,198.252c-51.066,0.027-82.076-36.378-86.276-91.24
		c-0.186-0.027-0.372-0.055-0.558-0.082c-11.499,21.568-24.887,54.069-24.867,93.182c0.053,100.251,90.741,147.855,90.795,249.445
		c0.041,76.438-41.455,117.266-57.594,144.636c3.352,0.42,2.68,0.573,7.793,0.57c34.568-0.018,280.627-43.587,280.597-100.584
		c-0.025-46.492-66.316-74.677-66.342-122.066c-0.034-64.583,128.13-102.726,128.1-159.874
		c-0.016-30.619-33.139-73.716-33.155-104.493c-0.047-87.236,216.438-187.501,250.307-187.519
		c11.927-0.006,18.337,5.096,18.339,9.688c0.002,3.257-2.075,4.325-2.073,7.684c0.001,2.344,43.06,143.286,43.061,145.792
		c0.009,16.025-27.219,33.475-27.198,73.465c0.01,18.7,5.677,28.345,8.167,32.909c29.938,54.888,44.741,47.821,44.75,64.41
		c0.01,19.076-42.063,51.745-48.763,54.798c-2.646,1.205-3.683,2.99-3.682,5.574c0.001,1.049,0.169,1.5,0.171,4.177
		c0.001,1.413-0.046,2.83-0.045,4.245c0.004,7.767,4.563,8.116,4.565,12.323c0.004,6.906-17.28,7.625-27.678,18.979
		c6.671,1.009,12.545,0.957,13.235,9.907c0.865,11.218,2.76,15.997,2.761,18.025c0.001,1.737-0.716,3.179-2.196,4.581
		c-17.994,17.051-19.83,16.401-19.814,46.693c0.009,16.742,1.072,28.842,1.073,31.224c0.011,20.816-36.871,23.624-45.818,23.629
		c-6.131,0.003-84.208-10.195-117.123-21.447c0.263,1.244,0.382,2.453,0.383,3.633C516.88,766.397,492.235,768.72,445.831,885.041z
		 M338.904,213.905c-0.184,0-0.368,0.001-0.552,0.001c-100.949,5.002-188.981,86.905-229.825,152.308
		c-1.412,2.261-1.417,2.414-1.411,12.567c0.009,17.593,8.99,87.62,78.834,87.583c82.302-0.044,220.477-104.584,220.431-190.936
		C406.349,214.405,347.604,213.9,338.904,213.905z M476.225,705.283c72.464-49.184,155.219-72.934,155.183-140.286
		c-0.019-35.651-30.11-52.852-53.611-52.839c-38.097,0.02-119.382,48.557-119.339,129.089
		C458.481,683.775,475.98,704.921,476.225,705.283z M549.531,355.562c0.038,0.198,0.077,0.396,0.115,0.594
		c0.459,0,0.922,0.031,1.381,0.031c1.541-0.001,6.624-1.048,17.449-1.054c13.535-0.007,57.319,1.486,86.653,22.679
		c-0.934-12.785-26.395-32.777-50.827-32.764C573.962,345.064,559.686,351.417,549.531,355.562z M673.474,573.875
		c3.317-0.002,6.646-0.47,10.113-1.268c-2.045-3.901-3.037-7.712-3.039-11.682c-0.007-12.412,10.031-13.382,11.812-13.383
		c3.671-0.002,5.458,1.342,8.576,2.537c-1.023-3.912-3.929-15.62-13.469-15.615c-12.997,0.007-22.579,15.206-22.572,27.558
		C664.901,573.005,667.237,573.878,673.474,573.875z M687.935,561.55c0.002,3.019,0.962,5.875,2.789,8.519
		c4.216-1.469,8.371-5.662,8.37-7.752c-0.001-1.539-1.919-7.521-6.601-7.519C688.464,554.801,687.934,558.853,687.935,561.55z
		 M475.243,715.705c-1.329,1.515-2.966,3.157-2.966,4.299c0.001,2.805,15.059,9.099,23.798,11.045
		C488.998,725.836,482.26,720.873,475.243,715.705z M702.191,571.479c-2.463,1.839-4.535,3.387-6.85,5.116
		c1.682,1.572,3.201,2.99,5.095,4.759C701.055,577.871,701.58,574.915,702.191,571.479z"/>
</g>
</svg>
