<?xml version="1.0" encoding="iso-8859-1"?>
<!-- Generator: Adobe Illustrator 22.1.0, SVG Export Plug-In . SVG Version: 6.00 Build 0)  -->
<svg version="1.1" id="Layer_1" xmlns="http://www.w3.org/2000/svg" xmlns:xlink="http://www.w3.org/1999/xlink" x="0px" y="0px"
	 width="1000px" height="1000px" viewBox="0 0 1000 1000" enable-background="new 0 0 1000 1000" xml:space="preserve">
<g>
	<path fill="#603813" d="M248.708,306.413c1.524,0,3.1-0.045,4.804-0.045c-1.59-22.769-22.735-29.977-22.735-71.761
		c0-99.199,131.798-175.784,229.949-175.784c42.475,0,71.175,22.855,71.175,43.707c0,17.157-7.699,26.629-7.699,35.922
		c0,8.379,6.031,19.396,6.031,37.092c0,21.641-11.214,70.82-11.214,82.871c0,15.142,1.796,73.482,62.66,73.482
		c0.002,0,0.004,0,0.005,0c119.967-0.007,173.298-75.946,173.298-125.277c0-7.692-1.543-13.023-2.224-15.24
		c-0.711-0.049-1.42-0.161-2.123-0.161c-18.1,0-95.191,7.001-122.174,7.001c-24.229,0-85.452-0.785-85.452-48.833
		c0-44.72,44.805-71.212,87.03-71.212c58.157,0,109.98,63.223,127.941,106.11c43.955,1.478,45.926,2.218,60.627,7.208
		c33.759,11.458,41.43,34.362,41.43,71.173c0,40.133-17.361,102.845-18.349,122.981c0.512,0,0.876-0.004,1.187-0.004
		c3.488,0,6.122,0.477,7.763,5.493c0.986,3.011,1.385,6.025,1.385,9.042c0,0.074-24.929,197.214-88.625,197.214
		c-2.092,0-4.16-0.278-6.184-0.955c-17.058-5.698-18.659-13.426-21.644-21.255c-0.026-0.068-0.151-0.098-0.476-0.295
		c-25.88,134.098-25.522,112.928-25.522,118.805c0,1.197,0.481,1.513,0.481,1.935c0,31.202-82.524,149.182-155.704,197.936
		c-12.12,8.075-55.661,14.413-72.104,14.413c-0.14,0-54.738-0.884-66.081-9.408c-112.751-84.741-138.598-131.591-144.84-222.953
		c-1.061-15.527-58.118-23.141-60.027-120.886c-1.822-93.261-74.99-115.184-74.99-173.538c0-72.833,44.36-150.732,60.774-150.732
		c2.731,0,7.3,1.456,7.3,18.23c0,3.171-0.199,4.014-0.199,6.747C204.182,274.678,220.073,306.413,248.708,306.413z M656.542,651.196
		c-7.449-5.676-22.128-14.68-22.128-33.166c0-7.535,2.312-14.006,9.223-18.311c8.894-5.539,17.891-15.223,26.532-15.223
		c5.9,0,16.584,5.019,18.443,5.019c2.628,0,9.885-9.684,9.885-21.364c0-41.593-33.972-44.025-33.972-76.32
		c0-21.198,21.134-53.351,21.134-88.385c0-14.671-5.568-21.646-13.111-34.646c-0.299-0.516-1.07-0.743-1.432-1.241
		c-3.203-4.405,0.101-4.975-4.454-5.832c-1.107-0.208-2.25-0.338-3.377-0.338c-31.55,0-55.119,21.754-100.633,21.754
		c-95.666,0-103.943-72.926-103.943-80.419c0-32.021,28.272-51.117,28.272-71.026c0-2.136-1.307-2.028-5.392-2.028
		c-76.144,0-87.418,72.016-221.784,83.75c-2.483,12.627-5.692,25.097-5.692,51.053c0,15.82,0.643,34.524,0.643,47.438
		c0,61.983-19.559,76.574-19.559,116.736c0,17.545,9.648,77.868,9.666,77.941c12.345-65.349,49.722-86.341,55.557-86.341
		c5.132,0,11.133,4.684,26.719,4.684c22.382,0,35.516-6.131,42.833-17.539c-26.632,6.264-34.032,7.95-46.506,7.95
		c-19.757,0-31.841-4.874-54.25-4.874c-2.302,0-3.563,0.057-3.985,0.057c-3.267,0-5.456-1.082-5.456-3.918
		c0-4.717,65.79-29.113,81.903-29.113c1.604,0,5.834-0.304,30.468,4.606c-1.857-3.713-11.597-20.778-19.843-34.076
		c-2.182-3.519-9.439-4.501-11.926-4.501c-29.424,0-75.004,16.548-80.116,16.548c-1.854,0-3.967-1.372-3.967-3.596
		c0-6.635,61.534-37.549,88.736-37.549c17.152,0,67.036,65.127,67.036,108.553c0,32.555-20.813,88.058-20.813,108.809
		c0,22.195,26.913,37.188,33.381,41.517c2.877,1.926,5.599,1.69,6.012,1.69c5.784,0,23.137,0.576,27.388-12.104
		c0.413-1.231,1.609-1.765,1.609-4.982c0-0.844-0.099-1.826-0.099-2.945c0-10.884,15.705-42.912,36.788-42.912
		c13.407,0,20.793,15.713,20.793,24.338c0,10.966-9.838,23.841-27.383,34.09c-17.796,10.396-18.519,20.739-42.678,44.968
		c0.712,0.048,1.061,0.096,1.37,0.096c0.174,0,0.899-0.045,2.142-0.045c6.099,0,11.977,1.144,17.824,3.183
		c41.035,14.31,79.733,20.353,79.733,29.122c0,0.317-0.031,0.654-0.094,1.013c3.36,1.811,5.682,2.739,5.682,5.085
		c0,1.081-0.676,3.275-3.406,3.275c-1.64,0-4.172-1.071-5.616-1.071c-1.06,0-1.418,0.235-5.922,3.037
		c-56.628,35.221-40.945,26.057-75.686,36.126c10.033,16.86,35.186,35.461,35.186,85.168c0,7.858-1.341,10.017-2.911,15.281
		c0.522,0,0.966,0.027,1.376,0.027c1.691,0,43.719-5.334,56.037-13.745c190.885-130.337,176.165-381.754,211.231-504.913
		c1.115-3.915,2.657-7.727,6.38-10.007c-8.458-32.224-23.209-52.207-27.279-52.207c-3.369,0-20.415,20.078-20.415,49.243
		c0,15.928,5.83,46.059,5.83,63.589c0,46.389-47.118,32.753-47.118,64.14c0,21.049,35.875,48.339,35.875,79.648
		c0,0.401-0.117,22.489-17.018,22.489c-0.904,0-4.891-0.111-8.789-0.54c-7.432,11.099,1.609,15.134-24.416,51.979
		c10.894,9.17,19.268,20.067,19.268,39.603c0,15.558-12.616,29.112-28.536,29.112c-23.043,0-24.026-27.463-24.026-29.36
		C633.764,674.422,641.629,666.446,656.542,651.196z M260.667,306.416c116.022-7.486,150.948-83.894,220.089-83.894
		c8.031,0,13.125,2.294,13.125,9.066c0,19.154-28.193,44.364-28.193,70.566c0,40.023,40.596,74.206,96.458,74.206
		c44.186,0,67.989-21.652,99.009-21.652c8.621,0,12.396,2.287,14.391,5.561c10.268,16.848,16.955,26.212,16.955,42.913
		c0,37.402-21.073,68.897-21.073,88.613c0,6.015,1.65,11.625,5.142,17.042c-0.207-2.772-1.979-4.895-1.979-13.384
		c0-37.368,47.256-19.758,47.256-63.952c0-11.956-5.961-47.075-5.961-62.42c0-32.11,18.38-56.653,27.037-56.653
		c16.264,0,31.849,48.811,33.505,55.05c5.195,19.579,4.361,30.136,5.921,36.023c0.716,2.702,5.496,10.545,10.188,10.545
		c5.509,0,17.595-8.734,40.632-24.256c2.207-1.487,20.022-101.863,20.022-125.6c0-50.749-15.476-72.78-87.589-72.78
		c-1.802,0-3.628,0.05-5.507,0.05c0.641,3.812,1.766,7.984,1.766,14.978c0,76.463-84.976,132.286-179.246,132.286
		c-49.827,0-70.4-31.29-70.4-81.055c0-14.361,11.168-59.105,11.168-81.992c0-16.58-6.032-27.169-6.032-37.304
		c0-12.062,7.661-18.936,7.661-35.944c0-20.811-32.974-36.69-63.584-36.69c-91.212,0-223.86,71.651-223.86,169.791
		C237.568,269.608,255.61,277.404,260.667,306.416z M270.746,664.297c0.237-1.883,4.097-108.206,71.075-108.206
		c31.84,0,39.892,34.086,39.892,44.003c0,32.233-58.201,82.716-83.185,82.716c-9.497,0-16.692-3.354-20.466-4.942
		c5.772,56.292,11.26,106.265,88.815,169.92c56.571,46.431,53.081,49.088,67.552,50.051c2.522,0.168,32.511,3.146,50.1,3.146
		c1.87,0,3.299-0.904,3.921-2.599c2.118-5.774,2.84-6.666,2.84-14.736c0-22.679-7.937-50.127-24.231-65.117
		c-6.342-5.835-7.805-10.637-10.768-17.828c-0.584,0-1.133-0.035-1.662-0.035c-1.309,0-5.555,0.8-13.065,0.8
		c-47.59,0-48.99-23.793-50.784-30.628c-8.076,1.539-13.679,3.076-15.964,3.076c-2.191,0-3.89-1.277-3.89-3.512
		c0-1.198,0.631-2.136,1.682-2.844c2.745-1.848,17.378-5.794,18.242-7.529c14.846-29.839,19.267-34.663,29.967-34.663
		c2.347,0,10.074,0.837,10.741,0.837c3.318,0,0.865-2.694,13.453-13.831c13.223-11.698,25.745-35.795,40.484-42.957
		c12.493-6.071,24.765-19.8,24.765-28.126c0-6.274-5.057-17.917-13.974-17.917c-7.354,0-17.589,7.868-24.412,20.425
		c4.203-1.22,10.57-5.188,15.379-5.188c4.394,0,7.356,3.068,7.356,7.213c0,11.811-20.424,26.797-28.254,26.797
		c-1.088,0-2.214-0.18-3.387-0.597c-2.136,3.46-0.688,3.749-5.745,7.455c-2.936,2.151-6.14,5.145-11.21,5.738
		c-2.899,0.339-13.835,1.328-15.29,1.328c-8.352,0-46.344-21.833-46.344-50.648c0-20.012,20.721-77.461,20.721-108.021
		c0-46.432-44.691-88.821-45.35-90.729c-1.67-4.839-7.777-11.326-12.786-11.326c-10.601,0-34.935,5.098-66.426,21.139
		c5.472-0.059,33.306-10.241,58.731-10.241c2.441,0,14.527,0.603,18.384,6.909c26.574,43.444,24.773,43.473,24.773,43.968
		c0,2.509-2.369,3.283-3.707,3.283c-3.175,0-23.083-6.463-36.834-6.463c-10.843,0-19.887,1.576-60.814,19.531
		c34.826,5.158,42.105,4.61,42.62,4.61c20.108,0,49.121-10.134,54.445-10.134c3.371,0,3.755,3.205,3.755,3.634
		c0,0.823-10.353,29.764-55.021,29.764c-15.268,0-23.479-4.582-26.409-4.582c-7.247,0-49.281,40.186-49.281,91.168
		C251.177,647.903,265.788,659.931,270.746,664.297z M197.615,247.899c0-3.378-0.469-6.709-1.372-10.254
		c-2.875,1.281-53.104,54.416-53.104,146.233c0,25.87,27.203,56.923,46.29,81.066c42.889,54.25,18.839,123.302,42.105,155.648
		c1.272,1.769,11.571,15.886,14.072,18.307c0.061-0.333,0.088-0.646,0.088-0.943c0-0.074-17.338-65.195-17.338-108.755
		c0-45.413,19.646-50.834,19.646-123.37c0-14.612-0.818-27.574-0.818-41.65c0-20.048,1.819-30.427,5.528-50.644
		c-10.762-0.451-16.557-1.904-16.701-1.94c-21.185-5.175-38.585-33.908-38.585-55.169
		C197.426,253.519,197.615,250.254,197.615,247.899z M750.13,184.184c0.012-0.278,0.046-0.459,0.046-0.598
		c0-8.131-52.24-98.497-120.272-98.497c-51.576,0-80.042,33.669-80.042,64.463c0,39.494,51.511,41.82,77.851,41.82
		C655.341,191.373,684.667,187.788,750.13,184.184z M277.899,659.878c0,1.573,0.02,3.147,0.02,4.721c0,2.27-0.046,3.268-0.046,3.468
		c0,3.78,11.601,7.73,19.624,7.73c0.208,0,11.161,0.131,18.36-4.639c8.961-5.937,17.644-12.211,25.09-20.063
		c21.445-22.616,33.911-31.297,33.911-50.477c0-16.376-11.279-37.797-33.758-37.797C290.894,562.821,277.9,642.02,277.899,659.878z
		 M843.491,392.283c-20.581,9.485-38.067,28.564-51.018,28.564c-5.817,0-8.509-3.291-11.402-6.03
		c-0.042,0.075-10.996,88.452-10.996,89.864c0,1.982,0.49,3.981,2.02,5.698c9.164-5.446,6.327-56.485,29.826-64.948
		c12.974-4.673,12.743-4.58,14.02-4.58c4.782,0,6.582,5.547,6.582,11.281c0,4.177-0.93,8.261-2.263,12.262
		c-15.983,47.979-21.33,70.117-40.263,75.148c-3.044,0.809-14.33,3.411-20.578,3.411c-5.604,0-6.579-1.302-9.944-1.302
		c-9.27,0-9.288,10.51-9.288,14.551c0,29.225,14.887,34.264,23.593,34.264c53.349,0,81.345-185.097,81.345-190.394
		C845.125,396.457,844.62,394.26,843.491,392.283z M771.966,381.645c-0.227-0.024-0.455-0.048-0.682-0.072
		c-6.561,18.02-14.965,85.188-27.755,154.353c2.001-0.828,3.894-1.127,5.737-1.127c4.079,0,6.292,1.242,10.152,1.242
		c3.459,0,15.994-2.417,16.824-2.579c23.719-4.619,39.391-80.903,39.391-81.783c0-1.104-0.189-2.13-0.308-3.342
		c-3.055,0.997-5.712,2.072-8.47,2.723c-24.443,5.765-16.417,66.398-34.804,66.398c-5.997,0-9.081-7.966-9.081-15.293
		c0-5.136,11.59-79.499,11.59-99.081C774.56,401.955,773.406,388.323,771.966,381.645z M662.341,655.033
		c-12.888,13.419-21.73,20.852-21.73,34.194c0,1.972,0.991,22.549,16.92,22.549c13.277,0,21.9-11.205,21.9-21.809
		C679.431,667.145,666.026,658.125,662.341,655.033z M684.884,595.472c-8.568-2.812-11.271-4.031-14.383-4.031
		c-2.145,0-4.228,0.606-6.167,1.974c-17.681,12.469-23.219,14.096-23.219,24.945c0,14.912,15.073,24.354,20.442,27.645
		c0.225-0.414,0.401-0.855,0.676-1.223C684.456,615.016,678.291,607,684.884,595.472z M526.933,763.188
		c-0.047-0.19-0.095-0.38-0.142-0.57c-0.611,0-1.222-0.009-1.834-0.009c-3.273,0-12.385,0.506-19.486,0.506
		c-9.117,0-22.416-0.767-26.846-0.767c-5.985,0-11.886,0.797-17.741,2.114c-1.681,0.378-2.58,1.302-2.924,2.892
		c-0.379,1.751-0.85,3.917-0.85,7.155c0,6.501,1.91,11.786,3.713,18.106c0.523,0.052,0.739,0.098,0.9,0.098
		C462.516,792.711,484.278,792.543,526.933,763.188z M437.898,737.953c0,4.385,0.884,8.713,1.504,13.129
		c9.87-2.298,29.802-3.29,40.016-3.29c17.35,0,35.466,2.279,45.067,2.279c2.213,0,4.429-0.064,6.642-0.064
		c-3.713-2.263-73.015-23.182-78.674-23.182c-3.81,0-7.598,0.806-11.351,2.668C438.868,730.603,437.898,731.747,437.898,737.953z
		 M408.323,768.209c-3.357,0-6.752,0.426-10.241,0.847c-0.001,0.087-0.001,0.173-0.001,0.259c0,22.408,28.456,25.27,43.408,25.27
		c6.724,0,10.271-0.594,12.417-0.841c-1.052-3.677-3.673-11.525-3.673-19.796c0-1.825,0.179-3.677,0.275-5.74
		c-5.016,1.527-11.789,4.029-19.75,4.029C419.455,772.24,418.838,768.209,408.323,768.209z M419.253,754.806
		c4.175,0,8.384,0.47,12.634,1.484c0.361-1.463,0.512-2.85,0.512-4.205c0-3.666-1.43-8.108-1.43-13.561
		c0-2.452,0.273-3.416,0.273-3.958c0-0.419-0.08-0.884-0.114-1.495c-9.855-0.821-9.7-0.828-10.499-0.828
		c-3.774,0-6.626,1.687-9.067,4.899c-4.281,5.635-11.739,20.073-11.739,20.146c0,0.127,0.069,0.328,0.114,0.664
		C406.314,755.949,412.742,754.806,419.253,754.806z M705.573,566.382c0,8.854-2.243,17.261-8.297,24.989
		c0.147,0.205,0.294,0.41,0.441,0.615c1.9-0.256,3.83-0.38,5.685-0.823c3.463-0.826,7.129-8.724,7.129-14.207
		c0-3.529-1.528-14.138-6.176-22.769C705.12,558.329,705.573,562.401,705.573,566.382z M467.25,665.55
		c2.639-0.891,13.673-5.422,19.939-17.695c0.303-0.595,0.313-1.339,0.466-2.062c-0.544-0.143-1.063-0.208-1.559-0.208
		c-1.381,0-2.581,0.505-3.621,1.238C473.405,653.21,471.872,656.919,467.25,665.55z M452.64,759.491
		c-13.943,3.944-14.368,4.319-17.472,4.319c-4.601,0-5.868-2.025-13.6-2.025c-1.326,0-2.657,0.058-3.983,0.058
		c3.996,2.373,8.353,3.485,12.853,3.485C438.652,765.328,446.3,762.489,452.64,759.491z"/>
	<path fill="#603813" d="M588.697,415.608c-0.159-0.016-1.743-0.434-19.74-0.434c-23.656,0-48.795,2.571-51.353,2.87
		c-47.839,5.599-34.508,27.584-42.199,27.584c-1.141,0-2.833-0.773-2.833-3.046c0-17.558,12.289-34.308,98.56-34.308
		c11.733,0,23.465,0.439,35.191,1.202c22.099,1.438,24.818,1.238,24.818,5.123c0,3.181-3.467,3.397-3.752,3.397
		c-0.036,0-0.155-0.001-0.354-0.001c-9.926,0-136.368,15.567-142.871,43.138c-4.24,17.979-5.071,31.524-5.071,31.598
		c0,0.491,0.072,1.001,0.096,1.551c3.838-0.415,37.341-28.266,75.392-28.266c19.671,0,26.241,3.036,39.792,5.753
		c43.57,8.737,42.353,4.779,42.353,10.948c0,1.942-0.539,2.389-2.657,3.119c-46.345,15.969-74.988,26.71-103.841,26.71
		c-14.475,0-18.594-2.619-27.743-5.136c0.285,19.571,44.766,18.123,46.734,18.123c20.187,0,29.708-2.365,43.734-8.405
		c20.597-8.87,19.15-15.983,23.776-15.983c2.42,0,3.559,2.257,3.559,3.734c0,3.015-22.325,27.512-69.208,27.512
		c-17.503,0-55.465-1.278-55.465-24.701c0-0.201-0.155-7.679,4.667-7.679c6.282,0,11.722,5.661,30.884,5.661
		c32.002,0,87.392-21.78,87.936-22.38c-41.058-6.79-42.53-10.446-63.257-10.446c-20.499,0-30.516,3.118-66.517,23.422
		c-9.219,5.199-8.995,9.434-12.902,9.434c-3.451,0-4.14-3.53-4.14-12.442c0-55.59,17.435-57.031,116.352-77.242
		C588.658,415.882,588.678,415.745,588.697,415.608z"/>
	<path fill="#603813" d="M654.072,474.6c0-0.851,0-1.702,0-2.553c0.113-0.001,0.227-0.002,0.34-0.002c0,0.851,0,1.702,0,2.552
		C654.298,474.598,654.185,474.599,654.072,474.6z"/>
</g>
</svg>
