<?xml version="1.0" encoding="iso-8859-1"?>
<!-- Generator: Adobe Illustrator 22.1.0, SVG Export Plug-In . SVG Version: 6.00 Build 0)  -->
<svg version="1.1" id="Layer_1" xmlns="http://www.w3.org/2000/svg" xmlns:xlink="http://www.w3.org/1999/xlink" x="0px" y="0px"
	 width="1000px" height="1000px" viewBox="0 0 1000 1000" enable-background="new 0 0 1000 1000" xml:space="preserve">
<g>
	<path fill="#fff" d="M704.356,756.728c-2.503,1.732-30.799,27.937-85.014,27.937c-55.277,0-91.503-30.229-95.642-36.813
		c-6.688-10.639-7.253-11.404-7.253-13.246c0-1.458,0.757-2.76,2.28-3.95c58.281-45.507,65.858-43.901,75.66-43.901
		c19.653,0,37.4,9.335,41.731,9.335c1.11,0,2.197-0.305,3.343-0.857c20.845-10.061,24.532-9.147,27.377-10.431
		c4.178-11.96,4.869-24.656,8.281-36.942c-0.5-0.068-0.887-0.189-1.239-0.189c-0.417,0-3.335,0.562-9.054,0.562
		c-0.452,0-32.275-0.509-45.27-5.261c-23.945-8.755-23.866-14.215-30.279-14.215c-0.105,0-0.195,0.002-0.448,0.002
		c-17.722,0-45.627-14.281-45.627-38.585c0-13.482,10.062-46.114,23.824-46.114c0.196,0,7.926-0.389,7.926,10.806
		c0,4.965-2.208,16.617-2.208,23.73c0,21.428,18.99,39.442,21.938,39.442c3.24,0,45.686-31.852,56.943-31.852
		c4.353,0,7.321,2.869,7.321,7.879c0,9.861-10.927,22.659-14.734,27.197c2.448,1.249,7.852,4.222,18.079,4.222
		c41.918,0,71.357-24.363,71.357-38.272c0-18.733-57.992-113.186-57.992-150.503c0-12.55,7.411-18.911,9.591-20.695
		c3.343-2.735,6.996-2.487,11.137-2.487c11.331,0,11.323,0.317,19.065,0.317c8.883,0,59.139-0.483,74.104-22.654
		c-6.339-5.268-6.234-5.454-7.593-5.454c-1.037,0-42.864,6.745-70.715,6.745c-0.629,0-28.425,1.377-28.425-14.618
		c0-18.829,37.809-43.259,65.364-43.259c21.222,0,32.966,13.119,34.6,14.539c0.765,0.665,1.809,2.168,1.809,3.868
		c0,2.766-2.355,4.77-4.734,4.77c-5.295,0-10.489-13.36-31.098-13.36c-28.997,0-56.195,24.67-56.195,32.914
		c0,0.335-1.296,5.429,19.873,5.429c22.754,0,67.256-6.61,67.331-6.619c3.468-0.452,0.347-1.245,29.055-61.035
		c-4.113,1.269-8.949,5.009-25.027,5.009c-1.24,0-1.853-0.025-4.209-0.025c-3.826,0-78.915,0.872-95.33,13.746
		c-13.856,10.868-12.347,16.35-17.451,16.35c-0.814,0-4.755-0.683-4.755-5.169c0-8.017,38.722-73.614,94.957-73.614
		c34.894,0,44.93,21.976,54.878,29.473c1.216-1.258,12.031-10.107,12.031-34.777c0-1.667-2.819-85.624-29.521-161.095
		c-9.273-26.212-110.458-40.052-162.125-40.052c-242.697,0-474.043,165.018-474.043,258.549c0,51.214,92.197,96.062,119.922,110.636
		c19.368-24.299,44.752-39.412,73.366-50.005c-0.904-2.806-2.902-5.983-2.902-12.236c0-32.327,48.506-60.32,92.583-60.32
		c35.267,0,68.8,15.233,76.258,18.178c0.013-0.005,0.383-0.083,0.683-0.272c32.117-20.2,64.639-32.355,64.639-44.743
		c0-8.951-27.695-37.878-108.906-37.878c-88.182,0-152.562,35.174-152.562,51.812c0,5.266,24.802,5.144,25.851,5.144
		c51.14,0,113.912-21.77,171.021-21.77c18.862,0,31.518,4.38,32.7,4.38c0.207,0,0.447-0.043,0.753-0.168
		c-16.429-14.658-61.541-16.725-62.064-16.725c-3.143,0-6.328,0.291-9.586,0.291c-0.719,0-5.593,0.341-5.593-4.526
		c0-0.422-0.803-5.694,13.733-5.694c18.005,0,76.338,8.35,76.338,30.615c0,2.875-1.965,8.293-7.651,8.293
		c-4.558,0-14.732-6.744-39.984-6.744c-55.757,0-115.385,21.809-169.076,21.809c-16.808,0-36.209-1.061-36.209-14.684
		c0-23.718,65.99-61.786,162.865-61.786c103.31,0,118.042,40.371,118.042,47.586c0,21.04-42.473,35.335-65.913,51.312
		c2.262,2.86,5.356,6.297,5.356,11.81c0,10.04-11.877,17.738-22.192,17.738c-10.091,0-14.966-4.705-14.966-11.424
		c0-9.144,8.595-14.669,12.503-17.926c-15.617-6.7-41.841-14.817-65.965-14.817c-36.384,0-82.848,22.943-82.848,51.019
		c0,3.194,1.109,6.02,3.018,8.7c5.08-0.598,26.861-8.18,71.898-8.18c6.924,0,105.852,1.767,105.852,16.514
		c0,13.213-99.44,24.961-127.586,24.961c-44.01,0-48.662-21.478-54.53-21.478c-1.243,0-43.397,12.666-70.109,46.001
		c26.65,14.987,181.321,85.62,181.321,215.658c0,53.773-47.146,89.112-97.724,89.112c-120.06,0-123.059-170.895-123.059-175.003
		c0-1.135,0.128-81.845,25.06-126.292c-61.006-36.756-124.137-66.73-124.137-118.74c0-108.001,240.245-268.561,486.756-268.561
		c47.603,0,107.963,9.809,145.247,25.625c44.491,18.875,53.227,184.085,53.227,184.159c0,29.287-11.544,39.431-16.479,44.587
		c0.86,2.754,1.481,3.473,1.481,5.628c0,5.946-5.719,9.025-28.468,65.095c4.746,3.574,9.303,6.045,9.303,10.928
		c0,1.469-0.404,3.097-1.18,5.009c-4.245,10.463-8.445,11.557-8.445,14.274c0,0.074,24.458,147.44,24.458,166.755
		c0,50.99-16.611,114.362-94.279,212.52C608.963,930.089,593.64,938.347,547.189,938.347c-28.306,0-73.432-9.967-90.056-15.746
		c-0.524-0.182-5.786-2.135-5.786-6.056c0-1.288,0.606-4.71,4.633-4.71c0.074,0,50.219,16.898,91.579,16.898
		c7.067,0,14.144-0.505,21.217-1.654c43.244-7.024,141.478-138.254,141.478-146.451c0-0.788-0.059-0.944-0.059-1.642
		c0-2.159,0.567-3.891,0.567-6.734C710.762,764.745,706.369,758.2,704.356,756.728z M281.149,446.918
		C257.974,491,257.277,564.526,257.277,568.356c0,82.836,38.68,165.466,113.124,165.466c39.744,0,88.097-26.3,88.097-79.151
		C458.497,528.74,302.074,458.34,281.149,446.918z M720.827,772.595c76.707-99.647,83.835-160.419,83.835-194.371
		c0-14.214-13.708-107.64-26.074-166.596c-5.349,2.564-23.517,11.95-61.414,11.95c-1.177,0-22.181-0.279-23.428-0.279
		c-5.176,0-8.278,7.53-8.278,13.584c0,33.772,58.008,128.241,58.008,150.443c0,17.689-29.482,47.767-82.21,47.767
		c-6.249,0-7.447-0.202-8.807-0.639c-9.809-3.151-18.598-4.748-18.598-12.383c0-7.86,10.441-12.135,14.451-24.959
		c-3.945,1.085-39.215,23.378-44.161,27.878c19.282,11.632,35.69,13.323,60.18,13.323c9.887,0,12.744-1.616,14.973-1.616
		c3.81,0,6.732,3.215,6.732,7.184c0,1.77-8.63,36.985-8.63,39.924c0,0.188,0.039,0.363,0.044,0.455
		c4.452,1.563,7.467,1.626,15.082,7.917c32.779,27.085,38.175,26.408,38.175,31.626c0,1.398-0.708,2.809-2.101,4.17
		c-3.76,3.672-0.878,3.956-16.836,22.051C717.456,756.332,719.982,763.816,720.827,772.595z M529.405,741.335
		c3.265,3.555,36.414,33.539,89.859,33.539c25.235,0,53.932-6.088,76.921-24.305c-17.302-9.941-96.284-15.118-102.008-15.118
		c-19.46,0-18.006,6.616-51.846,6.616C536.46,742.066,535.017,741.726,529.405,741.335z M689.125,319.994
		c26.598-8.653,82.2-9.655,89.679-9.655c2.935,0,4.079,0.044,5.087,0.044c14.175,0,19.158-3.73,19.534-3.953
		c-17.765-20.703-29.663-25.292-46.702-25.292C724.406,281.138,698.602,306.871,689.125,319.994z M664.55,695.654
		c-9.414,2.604-22.349,10.368-27.895,10.368c-6.829,0-24.638-9.51-41.77-9.51c-6.839,0-13.335,1.501-19.278,5.673
		c-1.988,1.396-35.255,23.068-42.595,29.556c2.798,0.281,2.81,0.482,10.26,0.482c42.619,0,51.023-15.518,80.983-15.518
		c3.616,0,12.054,0.001,35.154,4.346C660.971,712.554,663.359,704.412,664.55,695.654z M368.787,389.604
		c11.928,11.384,19.927,14.984,44.311,14.984c38.4,0,106.963-14.369,108.009-14.605c-3.256-2.113-53.387-7.272-88.429-7.272
		C394.114,382.709,372.024,388.815,368.787,389.604z M675.419,694.379c-0.145,0-0.292,0.002-0.44,0.007
		c-2.071,9.963-4.112,19.779-6.165,29.654c14.95-0.967,29.548-1.912,44.733-2.895C678.218,691.546,677.89,694.379,675.419,694.379z
		 M578.082,617.285c0.097-0.142,0.194-0.285,0.291-0.427c-3.35-4.57-15.474-18.771-15.474-38.799c0-4.389,0.444-7.056,2.215-21.505
		c-0.192-0.062-0.385-0.123-0.577-0.185c-4.97,5.123-11.544,24.287-11.544,34.418C552.993,608.63,577.462,617.084,578.082,617.285z
		 M675.982,734.021c14.935,3.877,21.38,5.073,27.83,9.776c4.355-3.761,9.529-10.159,10.411-12.908
		C701.463,732.34,688.625,731.672,675.982,734.021z M517.423,341.678c-2.994,1.36-12.881,7.828-12.881,12.156
		c0,1.564,1.877,1.877,4.704,1.877c7.627,0,12.781-4.857,12.781-8.055C522.027,344.167,517.589,341.719,517.423,341.678z"/>
</g>
</svg>
