<?xml version="1.0" encoding="iso-8859-1"?>
<!-- Generator: Adobe Illustrator 22.1.0, SVG Export Plug-In . SVG Version: 6.00 Build 0)  -->
<svg version="1.1" id="Layer_1" xmlns="http://www.w3.org/2000/svg" xmlns:xlink="http://www.w3.org/1999/xlink" x="0px" y="0px"
	 width="1000px" height="1200px" viewBox="0 0 1000 1200" enable-background="new 0 0 1000 1200" xml:space="preserve">
<g>
	<g>
		<path fill="#ECE4DA" d="M228.749,372.12c-0.273-39.496-16.042-51.516-16.042-74.518c0-62.661,216.339-175.384,235.722-175.384
			c14.454,0,44.625,21.126,49.029,49.121c20.395,129.638,155.141,106.488,155.141,131.24c0,25.657-515.69,323.976-525.8,323.976
			c-8.477,0-13.189-4.668-13.189-13.217C113.609,562.441,220.402,463.369,228.749,372.12z"/>
		<path fill="#ECE4DA" d="M279,925.759c0-2.269,0.003-3.073,0.003-4.028c0-219.569,104.473-258.8,138.144-258.8
			c19.474,0,119.643,8.81,119.643,220.478c0,60.112-6.676,87.953-36.155,110.501c-21.745,16.633-140.55,90.974-172.103,90.974
			C296.118,1084.885,279,1018.308,279,925.759z"/>
	</g>
	<g>
		<path fill="#603813" d="M467.394,664.883c-0.875-0.694-14.751-15.399-48.044-15.399c-9.879,0-84.276,2.779-84.276,112.344
			c0,31.935,1.913,54.051,24.323,148.653c4.561,19.255,7.553,20.454,7.553,27.343c0,4.339-1.593,8.404-4.75,12.118
			c-9.493,11.167-36.826,35.64-42.539,35.64c-4.104,0-4.767-5.223-5.623-11.356c-7.273-52.087-46.41-82.615-46.41-132.901
			c0-21.091,7.389-33.461,23.638-103.201c27.449-117.806,95.386-124.192,95.386-185.961c0-2.954-0.721-17.58-0.721-18.334
			c0-19.735,411.292-211.257,469.731-314.73c9.87-17.476,1.223-24.256,11.449-42.339c-22.28,7.43-502.605,353.352-502.675,353.482
			c2.943,3.378,7.086,1.355,11.548,3.638c0.332,0.17,0.607,0.853,0.607,1.339c0,0.626-0.86,1.281-1.208,1.281
			c-0.019,0-0.038-0.002-0.055-0.005c-3.841-0.788-7.958-0.231-11.508-2.475c-1.85-1.17-2.809-2.26-2.809-3.549
			c0-7.744,441.303-300.369,450.838-319.2c-5.646,2.633,7.786-2.346-69.871,42.852c-362.482,210.974-455.58,356.38-516.498,356.38
			c-11.967,0-54.143-22.594-68.185-38.898c-3.015-3.501-7.154-5.884-7.154-7.792c0-0.758,0.631-1.456,2.125-2.211
			c54.974-27.778,141.222-142.298,141.222-156.65c0-3.224-41.47-113.445-41.47-135.829c0-45.602,179.19-173.461,211.727-173.461
			c47.652,0,98.931,133.959,143.597,133.959c19.146,0,162.63-41.346,178.442-41.346c4.484,0,5.606,1.722,5.606,3.209
			c0,14.825-136.847,96.323-136.918,96.381c-1.686,0.426-3.001,1.471-4.466,2.264c0.107,0.183,0.215,0.366,0.322,0.548
			c1.424-0.891,2.848-1.781,4.272-2.672c7.78-3.232,211.763-115.833,214.432-115.833c0.6,0,2.403,0.231,2.403,1.741
			c0,3.264-6.732,8.8-7.021,25.848c-1.223,72.014-170.924,149.4-219.522,179.099c2.137,0.398,3.748,0.866,5.381,0.964
			c2.443,0.148,3.288,1.358,3.288,3.565c0,0.295-0.026,2.58-0.601,5.783c-2.046,11.399-2.353,10.712-4.59,12.113
			c-0.01,0.027-0.485,1.156-0.485,2.762c0,5.625,6.099,4.643,6.099,11.231c0,1.367-0.308,2.806-0.813,4.27
			c-2.591,7.511-6.167,5.146-6.167,9.878c0,6.646,8.934,15.09,8.934,24.393c0,26.52-22.639,28.623-78.129,44.712
			c-27.197,7.887-14.987,46.76-53.411,106.129c1.315,3.353,4.479,11.227,13.436,19.224c65.832,58.778,106.373,56.628,106.373,107.39
			c0,40.805-33.335,158.33-33.335,237.271c0,10.102,1.887,42.714,1.887,50.077c0,1.444-0.223,2.897-0.385,4.339
			c-0.581,5.19-3.504,14.878-46.087,14.878c-69.683,0-99.136-59.832-203.224-59.832c-17.322,0-25.383,4.804-30.426,4.804
			c-0.53,0-1.607-0.659-1.607-1.369c0-0.441,0.209-1.038,0.485-1.245c0.881-0.661,1.917-1.424,2.948-1.52
			c21.549-1.996,156.038-78.401,180.729-78.401c6.255,0,8.488,3.9,8.488,15.391c0,13.727-6.562,53.977-6.562,79.766
			c0,16.558,2.132,19.631,2.132,23.161c0,0.057,0.121,1.736-1.587,1.736c-0.99,0-1.398-0.815-1.588-1.732
			c-2.146-10.39-2.112-19.129-2.112-19.293c0-35.052,6.414-68.754,6.414-82.659c0-7.613-0.547-8.859-0.596-9.061
			c-0.665-2.784-1.793-4.104-4.214-4.104c-14.849,0-159.53,71.191-159.754,71.339c0.288,0.042,0.576,0.113,0.865,0.122
			c122.763,3.534,140.245,59.71,209.669,59.71c1.853,0,25.15-0.718,37.424-5.36c5.941-2.247,5.633-6.473,5.633-15.961
			c0-9.979-1.677-22.451-1.677-41.36c0-81.932,33.261-199.251,33.261-239.775c0-57.76-93.741-74.484-118.289-123.56
			c-1.057,1.213-4.716,8.088-4.716,11.316c0,1.785,0.485,3.476,1.412,5.005c7.132,11.768,6.354,18.01,20.831,47.912
			c28.536,58.941,54.12,183.269,54.12,183.339c0,3.149-1.523,5.691-4.528,7.729c-11.132,7.545-64.514,26.513-65.926,26.513
			c-8.196,0-8.077-10.245-8.077-14.907c0-10.049,0.805-19.769,0.805-36.452c0-40.951-9.775-81.955-9.794-82.025
			c-2.546,7.634-12.726,45.074-65.969,45.074c-14.7,0-77.352-8.622-77.352-76.72c0-45.67,31.5-70.665,67.766-70.665
			c22.176,0,32.945,8.63,36.017,10.254c0.51,0.492,1.02,0.983,1.53,1.475c0.12-0.149,0.239-0.298,0.359-0.448
			C468.58,665.651,467.987,665.267,467.394,664.883z M295.873,400.649c31.945-54.392,43.889-234.068,106.273-234.068
			c0.534,0,20.375-1.771,20.375,32.761c0,71.76-82.694,221.659-112.293,221.659c-6.626,0-10.586-4.79-14.787-11.647
			C238.175,504.281,193.268,533.524,186.96,542.36c0.418-0.134,600.564-322.809,600.564-350.523c0-0.097-0.006-0.199-0.018-0.305
			c-22.437,1.07-158.058,41.349-180.022,41.349c-46.088,0-101.261-133.965-143.396-133.965
			c-30.085,0-208.803,125.816-208.803,170.274C255.284,279.655,281.381,365.798,295.873,400.649z M319.696,982.276
			c2.083-0.277,3.675-1.566,5.236-2.817c34.981-28.015,38.783-35.096,38.783-41.544c0-3.742-32.016-107.697-32.016-174.7
			c0-85.117,44.245-116.952,87.153-116.952c64.03,0,89.705,62.08,89.705,95.133c0,3.612-0.231,5.674-0.231,6.363
			c0,2.611,11.517,43.937,11.517,90.805c0,16.586-0.71,25.758-0.71,38.184c0,2.293-0.289,10.452,4.758,10.452
			c2.347,0,53.362-20.119,63.914-25.911c2.198-1.207,3.262-2.942,3.262-5.156c0-4.112-13.279-46.452-18.6-74.697
			c-13.814-73.328-40.346-112.285-48.313-137.967c-4.355-14.037-9.469-17.031-9.469-23.633c0-6.442,11.237-19.47,11.237-39.367
			c0-17.5-12.67-31.143-17.489-35.661c-44.852-42.052-64.382-30.001-70.926-40.535c-53.848,29.616-48.56,29.507-48.56,30.733
			c0,0.07,0.954,15.771,0.954,18.407c0,40.723-45.15,77.236-68.994,112.645c-19.117,28.389-49.849,160.835-49.849,175.177
			c0,23.989,11.194,49.733,19.953,64.438C318.584,951.975,316.303,979.904,319.696,982.276z M437.809,798.903
			c61.44-0.771,66.963-44.589,66.963-49.554c0-0.841-0.162-1.714-0.377-2.516c-9.241-34.569-18.38-88.812-72.913-88.812
			c-21.973,0-64.704,12.762-64.704,67.486C366.779,770.342,400.16,798.343,437.809,798.903z M419.307,198.309
			c-0.25-3.243-0.042-28.427-17.054-28.427c-50.992,0-75.937,151.915-76.123,152.801c-11.341,54.132-28.401,78.203-28.401,82.863
			c0,1.287,4.579,12.151,12.549,12.151C333.895,417.697,418.047,278.529,419.307,198.309z M505.174,373.99
			c-0.088-0.179-0.177-0.357-0.265-0.536c-116.581,63.437-233.163,126.875-349.759,190.32c2.44,5.267,21.198,12.868,44.204,12.868
			C318.131,576.642,358.464,475.031,505.174,373.99z M164.547,573.957c-0.091,0.13-0.181,0.259-0.272,0.389
			c5.766,5.59,47.725,32.891,61.084,32.891c29.187,0,115.065-73.688,139.144-93.665
			c290.229-240.787,365.424-244.005,445.933-305.689c-0.105-0.138-0.21-0.277-0.315-0.415
			c-2.134,1.073,17.023-9.459-255.918,139.183C402.491,429.272,331.07,579.932,198.897,579.932
			C179.627,579.932,168.109,574.854,164.547,573.957z M553.64,527.813c0.076,0.018,0.152,0.037,0.228,0.055
			c4.575-15.306,6.511-27.975,20.319-31.686c67.806-18.224,78.436-22.211,78.436-42.777c0-1.073-0.104-2.144-0.396-3.128
			c-4.578-15.447-7.703-10.578-8.651-22.751c-0.59,0-1.122-0.026-1.629-0.026c-1.038,0-1.535,0.165-3.58,0.165
			c-5.629,0-11.116-1.528-16.708-1.937c-1.421-0.104-2.145-0.832-2.145-1.865c0-2.063,21.543-31.419,25.696-31.419
			c1.054,0,2.123,0.649,3.391,1.904c0.813-3.519,1.964-6.875,1.964-10.444c0-0.204-0.004-0.408-0.012-0.613
			c-3.446-0.654-6.62-1.256-10.309-1.956c-33.026,18.575-66.555,37.432-99.943,56.21c10.746,21.636,17.303,31.866,17.303,56.19
			C557.605,507.493,555.188,518.832,553.64,527.813z M440.646,502.404c0.372,1.612,1.409,2.189,2.462,2.555
			c2.071,0.719,4.166,1.452,6.312,1.857c30.717,5.793,79.828,40.079,79.828,72.873c0,3.47-0.345,3.813-0.617,8.076
			c2.276-1.587,25.661-53.198,25.661-94.255c0-28-15.575-51.752-17.089-53.619C504.873,460.822,472.744,481.622,440.646,502.404z
			 M644.824,413.501c0-0.877-0.026-1.764-0.087-2.664c-6.004,4.083-11.714,7.966-17.701,12.036
			c3.959,1.001,7.778,1.479,11.638,1.479c1.794,0,3.597-0.103,5.428-0.305C644.389,420.496,644.824,417.076,644.824,413.501z
			 M644.656,402.923c-5.013,1.947-15.461,11.408-17.094,15.459c5.826-3.2,11.077-7.011,16.265-10.913
			C644.607,406.882,644.488,405.987,644.656,402.923z M504.563,733.359c-0.031-10.057-7.565-32.643-12.414-37.311
			C497.781,707.999,500.681,720.849,504.563,733.359z M647.674,421.825c1.928-1.703,2.903-3.846,2.903-5.784
			c0-1.723-0.771-3.285-2.329-4.232C648.057,415.132,647.871,418.373,647.674,421.825z M645.053,397.023
			c0-0.093-0.003-0.19-0.01-0.291c-0.189-0.129-0.379-0.258-0.568-0.386c-1.317,1.407-2.634,2.813-3.951,4.22
			c0.129,0.125,0.259,0.249,0.389,0.374C642.208,399.55,645.053,399.706,645.053,397.023z M645.249,292.785
			c0.077,0.14,0.154,0.281,0.231,0.421c1-0.559,2-1.118,3-1.677c-0.078-0.143-0.156-0.286-0.234-0.429
			C647.247,291.662,646.248,292.223,645.249,292.785z M640.474,295.413c0.053,0.104,0.106,0.208,0.159,0.312
			c0.663-0.34,1.326-0.679,1.989-1.019c-0.062-0.121-0.124-0.242-0.186-0.364C641.782,294.699,641.128,295.056,640.474,295.413z"/>
	</g>
</g>
</svg>
