<?xml version="1.0" encoding="iso-8859-1"?>
<!-- Generator: Adobe Illustrator 22.1.0, SVG Export Plug-In . SVG Version: 6.00 Build 0)  -->
<svg version="1.1" id="Layer_1" xmlns="http://www.w3.org/2000/svg" xmlns:xlink="http://www.w3.org/1999/xlink" x="0px" y="0px"
	 width="1000px" height="1200px" viewBox="0 0 1000 1200" enable-background="new 0 0 1000 1200" xml:space="preserve">
<g>
	<g>
		<path fill="#ECE4DA" d="M267.954,273.213c21.284,2.38,7.529,1.92,73.179,1.92c8.994,0,17.988-0.037,26.982-0.037
			c105.497,0,337.295,21.003,337.295,73.917c0,16.049-18.552,36.888-25.987,44.615C463.87,617.656,504.224,715.78,405.949,715.78
			c-116.637,0-179.261-337.222-179.261-401.992C226.688,272.239,257.956,274.195,267.954,273.213z"/>
		<path fill="#ECE4DA" d="M123.83,992.343c1.98,41.054,2.493,49.713,2.493,55.137c0,38.429-14.071,44.907-58.733,44.907
			c-38.656,0-48.775-13.47-48.775-58.355c0-9.055,1.442-48.016,1.442-93.332c0-7.994-0.221-20.755-0.221-23.549
			c0-3.22,0.768-4.115,4.033-4.391c21.602-1.825,50.363-9.613,71.662-9.613c32.098,0,24.744,16.312,27.939,89.205
			C123.722,992.348,123.776,992.345,123.83,992.343z"/>
		<path fill="#ECE4DA" d="M887.615,233.721c0-0.767,0.005-1.538,0.015-2.313c0.091-23.553,4.16-23.866,7.696-24.132
			c15.305-1.154,23.499-2.056,39.661-2.056c15.41,0,20.012,2.707,20.012,23.327c0,27.906-17.242,96.201-29.443,96.201
			C911.382,324.749,887.615,282.709,887.615,233.721z"/>
	</g>
	<g>
		<path fill="#603813" d="M283.363,339.983c-11.047-1.988-22.587-2.873-36.439-14.071c-2.496-2.018-9.72-4.032-9.72-12.875
			c0-9.004,3.018-8.956,16.397-10.021c48.354-3.848,38.474-9.291,87.144-9.291c4.482,0,8.965,0.019,13.448,0.019
			c2.974,0,2.309-0.014,2.716-0.014c0.863,0,1.48,0.374,3.551,0.374c4.417,0,8.46-2.057,12.68-3.138
			c0.062-0.016,0.097-0.141,0.227-0.346c-0.964-2.11-3.136-4.615-13.58-7.613c-14.477-4.156-15.754-15.618-33.705-18.711
			c-20.946-3.609-34.808-17.519-53.77-17.519c-0.071,0-23.56,2.183-37.699,2.183c-37.469,0-70.131-13.202-75.946-18.955
			c-1.502-1.486-12.628-2.069-12.628-10.375c0-9.573,121.45-24.396,136.758-24.396c57.831,0,234.906,84.843,309.82,84.843
			c1.594,0,43.551-12.628,167.042-17.087c49.261-1.779,40.077-2.778,46.764-2.778c2.364,0,2.989,0.363,3.449,2.646
			c1.339,6.64,2.297,10.359,2.297,18.135c0,73.898-86.83,107.983-86.901,108.047c2.341,0.461,85.668,11.852,100.616,11.852
			c6.089,0,7.039-0.505,11.6-0.505c2.261,0,4.581,0.103,7.021,0.103c-1.017-6.047-31.852-136.526-31.852-137.035
			c0-1.331,0.89-2.138,2.526-2.236c84.73-5.077,136.055-13.762,137.378-13.762c2.044,0,2.326,1.338,2.326,3.638
			c0,0.277-0.003,0.555-0.003,0.832c0,0.072,2.731,320.063,2.731,325.435c0,1.662-0.138,3.328-0.269,4.987
			c-0.138,1.74-1.514,1.592-6.727,1.592c-4.214,0-9.279-0.114-13.755-0.114c-13.719,0-51.399,2.674-55.901,2.674
			c-12.158,0-15.282-91.107-55.86-180.743c-0.032-0.07-183.957-25.919-184.028-25.919c-1.927,0-3.899,0.116-5.937,0.116
			c-4.468,17.557-116.769,120.582-116.769,171.905c0,1.775,0.461,2.348,3.035,8.144c19.879-15.61,36.965-43.072,50.955-47.485
			c141.61-44.673,131.457-50.833,144.607-50.833c1.702,0,2.623,0.895,3.292,3.136c1.096,3.668,1.613,6.887,1.613,9.094
			c0,3.034-0.968,5.834-3.869,7.81c0.45,1.266,0.655,2.447,0.655,3.557c0,21.444-113.001,60.036-122.039,70.542
			c-9.501,11.044-47.535,36.728-51.797,50.413c36.494-34.828,24.503-30.787,50.869-35.119
			c76.911-12.636,76.306-21.047,98.576-21.047c12.459,0,14.976,12.047,14.976,12.342c0,1.974-1.428,3.099-9.029,7.501
			c-3.798,2.2-1.526,5.567-9.08,10.063c-53.208,31.671-86.181,5.396-137.732,86.84c-128.379,202.826,11.605,129.961-378.64,237.852
			c-0.051,0.402-0.074,0.797-0.074,1.185c0,5.869,11.419,34.366,11.419,71.581c0,1.966-1.041,2.876-2.227,2.876
			c-1.758,0-14.385-8.378-43.916-8.378c-64.597,0-85.595,37.68-89.93,37.68c-1.631,0-1.509-2.814-1.509-2.869
			c0-0.07,0.241-241.165,0.241-252.888c0-0.285-0.005-0.57-0.005-0.855c0-2.745,0.574-3.53,2.906-3.641
			c39.519-1.88,79.233-19.725,82.435-19.725c1.106,0,2.079,0.4,2.957,1.29c9.275,9.398,9.712,12.917,16.494,35.508
			c0.165,0,0.364,0.027,0.566,0.027c0.071,0,219.818-22.235,235.612-73.057c39.101-125.815,47.985-131.437,47.985-183.523
			c0-53.295-2.964-40.757-2.964-52.483c0-19.911,15.016-30.163,16.304-81.769c-42.931,6.186-117.53,87.357-130.334,87.585
			c-5.225,0.093-9.049,3.342-13.797,3.342c-0.789,0-7.163-0.131-7.163-5.727c0-21.01,16.405-32.315,22.137-36.328
			c19.216-13.455,48.694-45.325,48.947-45.931c3.731-8.932,28.545-24.022,35.696-30.523c-3.02-1.424-22.723-8.178-23.831-8.178
			c-41.817,0-130.493,86.139-163.351,86.139c-6.098,0-13.428-2.477-13.428-9.763C205.927,403.504,268.51,354.061,283.363,339.983z
			 M940.38,580.589c4.686,0,9.385,0.095,14.101,0.313c-0.934-110.352-1.863-220.189-2.794-330.163
			c-33.361,6.687-127.324,12.856-135.504,13.907c4.488,14.818,53.48,220.577,64.143,318.568c0.48,0.149,0.728,0.297,0.957,0.297
			C884.425,583.511,916.942,580.589,940.38,580.589z M460.92,729.099c-0.131-0.072-0.263-0.143-0.394-0.215
			c-31.927,41.212-39.284,47.944-53.492,47.944c-17.29,0-20.823-16.738-57.749-16.738c-26.176,0-72.745,5.141-77.779,5.141
			c-16.611,0-26.44-8.589-40.621-8.589c-0.284,0-80.472,12.543-84.229,15.109c7.33,43.597,14.668,87.241,22.055,131.174
			c22.868-6.716,273.422-71.029,274.691-73.613c7.506-15.286,7.062-21.34,7.062-36.694c0-4.041-0.03-8.084-0.03-12.125
			C450.434,758.605,455.942,745.714,460.92,729.099z M806.511,263.107c-32.597,3.751-172.621,8.212-204.234,18.017
			c0.039,0.204,0.079,0.408,0.118,0.612c24.894,2.789,25.128,0.966,26.034,2.981c0.117,0.26,0.168,0.505,0.168,0.737
			c0,1.967-22.937,29.283-53.145,29.283c-23.102,0-35.237-7.599-35.237-12.035c0-4.936,12.748-5.108,45.218-20.092
			c-0.766-0.253-1.237-0.489-1.732-0.559c-90.876-12.954-90.184-22.668-112.494-27.946c33.563,50.545,35.429,136.072,85.575,136.072
			c37.463,0,53.426-37.653,67.929-37.653c7.667,0,7.023,9.503,7.076,9.946c0.684,5.702,1.094-0.854,3.795,14.077
			c0.776,0,1.481-0.027,2.157-0.027c10.281,0,71.179,10.953,78.394,10.953c15.705,0,92.808-40.762,92.808-107.105
			C808.943,275.953,808.604,269.809,806.511,263.107z M328.694,455.489c0.125,0.113,0.25,0.226,0.374,0.34
			c73.194-62.908,101.81-85.426,141.138-85.426c26.223,0,59.068,12.174,59.138,12.195c-43.985-59.865-31.163-85.529-61.237-127.189
			c-3.519-4.875-149.534-52.608-149.604-52.628c-0.142,1.001-0.269,1.673-0.327,2.35c-0.937,10.909-19.487,11.226-20.025,11.226
			c-3.211,0-6.196-0.968-8.857-3.119c-2.867-2.318-8.588-5.051-8.588-8.306c0-3.073,4.163-3.793,11.678-5.546
			c-0.023-0.175-0.047-0.35-0.07-0.524c-3.464-0.087-6.941-0.366-10.4-0.366c-10.654,0-83.006,9.869-83.119,9.903
			c0.602,1.581,1.352,3.312,1.352,5.657c0,11.091-22.107,15.543-32.355,15.543c-0.913,0-1.214-0.019-1.633-0.019
			c-0.762,0-1.525,0.048-2.288,0.068c-0.021,0.206-0.043,0.412-0.064,0.618c35.547,16.324,64.603,15.335,67.938,15.335
			c32.922,0,33.825-2.289,45.394-2.289c9.543,0,128.64,25.363,147.89,25.363c2.523,0,4.303-0.311,10.474-0.311
			c20.995,0,26.667,2.364,28.15,2.794c1.046,0.303,2.174,0.969,2.174,2.337c0,1.222-0.706,1.67-2.704,1.67
			c-0.792,0-1.775-0.077-2.645-0.077c-7.359,0-13.316,0.022-26.353,4.908c-25.08,9.4-74.128,14.79-104.217,27.482
			c0.381,1.454,0.566,2.855,0.566,4.205c0,10.812-15.971,23.315-25.42,23.315c-3.415,0-3.91-2.752-5.055-4.815
			c-3.048,2.412-61.945,53.278-63.732,55.063c3.542,3.527,8.008,6.93,8.008,14.793c0,7.302-3.153,10.266-10.228,17.982
			c0.135,0.01,0.267,0.014,0.396,0.014c14.892,0,90.94-68.035,137.77-79.111c40.053-9.473,97.738-33.135,115.51-33.135
			c2.35,0,3.517,1.59,3.517,3.361c0,1.032-0.346,2.599-4.169,5.347c-47.398,34.063-46.031,6.619-100.378,52.84
			c5.257,3.882,8.539,10.631,8.539,12.576c0,0.898-0.286,1.783-0.945,2.634c-2.629,3.396-4.834,3.13-8.318,3.13
			c-4.798,0-9.538-0.462-14.051-2.62c-0.55,0.457-1.123,0.871-1.623,1.359c-58.484,57.12-57.329,47.414-62.049,59.052
			c0.468-0.198,0.67-0.225,0.784-0.34c4.012-4.064,13.948-7.64,15.087-7.64c3.614,0,7.533,7.711,7.533,11.876
			C331.65,450.976,329.994,453.305,328.694,455.489z M182.093,976.062c0-0.31,0.027-0.635,0.027-0.959
			c0-0.976-44.357-208.298-44.357-225.382c0-0.674,0.49-2.103,1.605-2.103c2.18,0,4.81,7.098,8.585,11.414
			c-0.465-3.426-7.9-25.991-14.595-25.991c-4.694,0-28.759,14.349-81.268,19.649c-0.115,2.618-0.212-16.633-0.212,250.679
			c0,0.054,0.124,0.121,0.201,0.16c0.069,0.035,0.153,0.039,0.231,0.056c0.96-0.234,27.04-34.799,88.197-34.799
			C162.247,968.785,174.635,973.739,182.093,976.062z M241.196,754.353c1.156,1.025,19.644,7.642,30.86,7.642
			c5.297,0,45.183-4.987,81.166-4.987c31.2,0,39.251,16.659,54.116,16.659c20.554,0,55.662-52.857,63.055-66.465
			c9.134-16.812,22.318-25.716,22.318-36.191c0-1.636-0.264-3.288-0.608-4.928c-14.087-3.421-25.031-26.188-25.031-43.152
			c0-3.491,0.32-4.34,0.499-7.393c-0.272-0.061-0.362-0.099-0.44-0.099c-0.551,0-1.511,0.183-2.839,0.183
			c-11.37,0-14.449-12.911-14.449-17.833c0-13.129,18.825-48.323,18.825-53.21c0-1.57-2.38-3.891-2.38-15.007
			c0-44.168,12.687-57.691,12.687-63.562c0-1.494-0.138-0.484-0.138-4.354c0-3.061,0.002-7.841,2.334-30.735
			c-0.176-0.058-0.351-0.117-0.527-0.175c-19.541,29.825-27.301,25.194-28.347,31.331c-0.572,3.355-3.048,13.574-8.748,13.574
			c-1.003,0-1.722-0.22-3.331-0.591c0,0.649-0.004,1.235-0.004,1.797c0,4.801,0.531,28.081,0.531,44.911
			c0,8.782-0.255,17.624-2.469,26.179C386.168,749.318,394.87,722.772,241.196,754.353z M447.642,828.613
			c45.085-24.336,62.289-123.22,139.096-207.877c19.817-21.843,100.445-33.568,106.41-47.067
			c-8.879,2.109-14.998,3.826-19.088,3.826c-1.899,0-8.314,0.123-8.314-7.844c0-1.548,0.396-3.083,1.338-4.606
			c4.386-7.09,8.948-8.172,12.792-9.904c-0.065-0.157-0.13-0.314-0.196-0.471c-35.077,12.492-12.149,4.831-79.175,19.032
			c-6.31,10.229-22.082,25.121-28.48,25.121c-5.303,0-4.246-6.793-4.544-10.701c-0.518,0.427-0.81,0.626-1.054,0.873
			c-52.709,53.44-70.865,62.674-70.865,76.637c0,1.967,0.376,2.623,0.376,5.142c0,16.79-42.266,45.604-42.266,108.298
			c0,2.578,0.205,7.854,0.205,18.9C453.877,813.361,451.799,816.978,447.642,828.613z M492.35,663.009
			c1.506-5.864,4.314-10.407,7.919-14.466c1.719-1.936,1.174-2.169,2.271-16.954c0.762-10.267,8.849-10.01,11.425-25.673
			c3.157-19.198,40.362-18.107,52.09-27.962c13.908-11.686,21.317-16.738,26.783-23.121c9.615-11.229,122.545-52.402,122.545-69.287
			c0-0.638-0.132-1.301-0.413-1.987c-11.562,2.992-19.671,5.512-28.287,5.512c-9.365,0-10.508-6.095-11.939-7.263
			c-87.145,31.196-73.99,24.044-97.173,32.487c1.955,1.878,4.01,3.439,5.525,5.415c1.264,1.649,5.737,8.2,5.737,12.005
			c0,7.7-13.221,11.193-18.355,11.193c-6.788,0-12.737-5.685-13.836-14.089c-77.658,72.523-86.242,69.949-86.242,94.522
			C470.4,635.474,476.145,654.888,492.35,663.009z M489.626,494.299c-30.327,87.915-36.461,93.116-36.461,103.191
			c0,2.386,0.927,14.868,11.718,14.868c2.983,0,4.393-1.169,5.417-4.032c8.673-24.257,44.512-55.654,45.349-59.257
			c18.844-81.125,116.505-149.633,116.505-173.296c0-2.371-0.51-4.691-1.604-6.688c-10.076,22.497-24.286,28.172-29.241,28.172
			c-6.6,0-10.949-3.667-10.949-10.415c0-0.592,0.024-0.651,0.024-1.17c0-0.288-0.006-0.633-0.006-1.134
			c-0.072,0.055-71.587,62.688-76.376,68.005c2.032,0.242,9.917-0.402,9.917,10.071c0,11.211-12.879,37.233-25.905,37.233
			C493.492,499.846,491.648,496.809,489.626,494.299z M489.481,375.615c0,1.347,0.03,2.469,0.03,3.504
			c0,11.956-7.525,71.986-7.525,82.231c0,13.726,5.726,21.701,6.643,22.901c11.128-23.849,8.557-18.363,17.616-28.128
			c29.981-32.317,52.233-44.396,74.688-67.588c-0.328-0.136-0.577-0.189-0.783-0.189c-0.58,0-9.801,5.12-23.57,5.12
			C540.025,393.466,533.159,383.608,489.481,375.615z M469.068,373.652c-4.905,0-9.817,0.433-14.757,1.379
			c-1.237,30.575,0.355,25.232-12.002,63.928c0.386,0,0.735-0.005,1.069-0.005c10.547,0,10.087,13.304,10.087,13.525
			c0,0.489-0.016,0.556-0.016,1.421c0,0.556,0.007,1.164,0.007,1.912c2.077-1.258,17.468-11.216,28.541-35.077
			c0.76-1.638,4.628-34.281,4.628-44.1c0-0.402-0.103-0.809-0.166-1.299C480.645,374.257,474.861,373.652,469.068,373.652z
			 M352.13,297.156c-0.047-0.087-0.095-0.174-0.142-0.261c-70.866,0.972-69.556,9.396-100.753,9.415
			c-5.139,0.003-5.908,7.948-5.908,10.136c0,10.211,21.698,16.827,23.406,17.262c5.003,1.276,15.941,2.841,16.552,2.841
			c1.508,0,2.808-0.623,3.995-1.82c1.545-1.557,3.358-2.845,5.023-4.285C334.654,295.543,316.177,310.025,352.13,297.156z
			 M543.403,303.044c8.892,6.769,21.124,8.458,32.254,8.458c8.889,0,17.38-1.8,25.157-6.828
			c12.273-7.934,20.507-15.081,22.211-17.478c-1.25-0.602-29.087-3.289-29.374-3.289
			C590.068,283.907,544.039,302.67,543.403,303.044z M331.445,257.051c-0.034,0.138-0.068,0.276-0.102,0.414
			c35.342,15.27,42.285,14.251,45.197,32.761c47.656-9.179,45.187-8.559,45.778-9.624c1.714-3.089,4.167-4.383,10.452-8.374
			c-1.229-0.513-2.299-0.494-3.464-0.494c-1.916,0-3.848,0.115-5.764,0.115C412.08,271.849,374.127,262.328,331.445,257.051z
			 M872.987,555.524c0.21-0.042,0.419-0.084,0.629-0.126c-9.256-50.425-17.367-101.061-28.011-151.286
			c-2.245-0.385-4.44-0.538-6.627-0.538c-3.623,0-7.228,0.42-11.017,0.906C842.536,434.382,845.41,434.849,872.987,555.524z
			 M504.794,643.545c5.583-3.076,21.845-21.446,34.775-32.123c3.537-2.921-5.949-0.424,17.014-25.281
			c-34.935,9.143-38.191,12.849-39.499,20.863C513.653,628.02,505.388,616.229,504.794,643.545z M487.715,309.651
			c-0.104-0.225-0.209-0.45-0.313-0.675c-9.897,0.531-11.993,1.191-81.8,23.725c-0.003,0.094-0.004,0.189-0.004,0.284
			c0,4.034,2.397,8.817,5.823,11.698C430.461,330.952,460.72,333.314,487.715,309.651z M491.935,487.729
			c0,0.12,0.002,0.24,0.006,0.361c0.255,1.547,0.256,8.44,6.23,8.44c8.578,0,22.476-21.326,22.476-33.924
			c0-1.312,0.023-6.723-4.857-6.723C502.556,455.883,491.935,483.286,491.935,487.729z M480.001,474.094
			c-5.494,8.478-10.688,38.007-10.688,54.665c0,4.716,0.416,8.4,1.359,10.284c9.189-18.491,16.286-45.847,16.286-48.808
			C486.959,488.965,487.113,489.555,480.001,474.094z M705.824,562.481c-0.546-1.638-3.707-8.722-7.978-8.722
			c-1.749,0-10.511,2.672-18.843,5.376c-5.917,1.92-10.027,7.506-10.027,10.725c0,0.982,0.264,1.952,0.796,2.879
			c0.738,1.286,2.043,1.405,3.367,1.405c0.3,0,0.601-0.006,0.897-0.006c0.395,0,0.507,0.011,0.586,0.011
			C677.901,574.149,692.397,572.483,705.824,562.481z M626.886,369.736c-0.178-0.156-0.355-0.312-0.533-0.468
			c-21.767,6.207-32.779,8.63-32.779,18.113c0,6.642,7.649,6.63,7.817,6.63C605.253,394.011,614.898,390.633,626.886,369.736z
			 M560.281,529.041c0,5.312,4.591,10.52,10.935,10.52c0.081,0,0.163-0.001,0.244-0.003c7.35-0.577,14.102-4.282,14.102-7.858
			c0-2.683-6.188-14.396-11.593-14.396c-4.603,0-11.236,5.838-11.926,6.42C561.657,524.05,560.281,526.299,560.281,529.041z
			 M229.71,392.888c-0.142-0.081-0.284-0.162-0.426-0.243c-19.851,20.102-20.114,20.47-20.114,23.589
			c0,1.544,0.672,6.275,9.951,6.275C224.718,422.508,225.658,422.118,229.71,392.888z M160.635,225.736
			c0.508,0.423,0.567,0.516,0.632,0.52c1.549,0.094,3.09,0.144,4.623,0.144c12.508,0,30.925-4.558,30.925-12.327
			c0-1.488-0.511-3.016-1.554-4.287c-18.557,4.587-31.365,13.059-31.436,13.1C162.662,223.568,161.766,224.705,160.635,225.736z
			 M437.994,458.162c0.187,1.53,0.275,4.018,0.842,6.392c0.03,0.125,1.894,7.889,4.458,7.889c3.834,0,6.829-12.508,6.829-19.553
			c0-2.577-0.139-3.65-1.394-7.403c-0.986-2.948-3.936-3.29-4.71-3.29C438.379,442.196,437.998,458.092,437.994,458.162z
			 M305.816,451.435c1.023,0.893,1.836,1.828,2.844,2.44c4.592,2.788,9.799,3.573,10.954,3.573c3.399,0,8.744-5.173,8.744-10.061
			c0-3.291-1.859-5.505-2.934-7.275c-0.463-0.762-1.009-1.137-1.688-1.137c-0.363,0-0.765,0.107-1.212,0.32
			c-5.995,2.847-5.189,1.042-14.842,9.291C306.928,449.229,306.538,450.298,305.816,451.435z M314.96,204.244
			c0-0.584-0.073-1.2-0.222-1.849c-2.29-0.565-5.413-0.821-8.814-0.821c-8.251,0-18.138,1.51-21.723,3.791
			c10.006,8.494,12.598,7.719,13.676,7.719C299.817,213.084,314.96,212.311,314.96,204.244z M596.155,574.864
			c-0.148-0.195-0.297-0.39-0.445-0.585c-6.089,0.74-24.898,1.423-24.898,17.072c0,3.521,0.57,4.21,1.554,4.21
			C575.282,595.562,587.93,585.849,596.155,574.864z M372.511,284.254c-8.098-15.514-71.789-34.029-75.07-34.552
			c0.761,0.747,1.614,1.163,2.478,1.558c33.612,15.342,33.309,6.808,49.711,22.306C354.504,278.171,356.83,278.405,372.511,284.254z
			 M327.212,311.901c0-0.815-0.104-1.653-0.324-2.516c-1.632,0.096-2.703,1.063-3.776,1.888
			c-10.773,8.283-19.106,14.403-19.106,19.111c0,0.046-0.247,1.192,1.811,1.192C313.171,331.576,327.212,320.428,327.212,311.901z
			 M678.635,481.532c2.063,3.727,4.562,4.163,8.72,4.163c9.189,0,21.898-4.102,22.957-4.466c-9.962-4.288-12.828-5.839-16.501-5.839
			C690.939,475.389,691.983,475.54,678.635,481.532z M229.021,417.814c12.197-10.03,11.969-15.285,11.969-17.719
			c0-5.039-1.945-8.285-6.843-12C231.801,397.074,231.838,406.166,229.021,417.814z M600.926,373.434
			c23.971-7.186,27.153-7.794,27.393-9.775c0.089-0.735,0.145-1.492,0.145-2.248c0-0.6,0.201-5.592-3.803-5.592
			C621.445,355.819,614.061,361.805,600.926,373.434z M487.751,586.006c0.151,0.14,0.303,0.28,0.454,0.42
			c10.117-8.137,20.234-16.274,30.276-24.35c-1.526-4.331-0.737-2.524-2.933-6.911C505.47,564.987,495.842,574.805,487.751,586.006z
			 M696.335,472.108c16.724,6.045,18.087,6.885,18.913,6.885c0.203,0,3.332-0.002,3.332-5.974c0-2.729-0.799-5.358-1.76-7.95
			C711.522,465.914,701.032,469.527,696.335,472.108z M374.651,380.878c3.966,1.033,7.746,1.585,11.544,1.585
			c0.929,0,1.859-0.033,2.793-0.1c0.38-0.027,2.792-0.675,2.792-2.558c0-1.158-0.649-2.208-5.631-8.834
			c-0.378-0.502-1.039-0.791-1.387-1.045C381.398,373.569,378.2,377.034,374.651,380.878z M175.162,212.913
			c0.008-0.061,0.015-0.123,0.023-0.184c-23.166,5.343-24.001,4.893-25.797,7.045c0.993,3.679,3.159,5.344,7.644,5.862
			C159.862,219.991,165.894,217.625,175.162,212.913z M405.934,344.134c-1.433-3.67-2.69-6.886-3.984-10.2
			c-4.216,1.355-8.467,2.721-12.718,4.087c0.015,0.148,0.031,0.296,0.046,0.443C394.722,340.317,400.165,342.17,405.934,344.134z
			 M180.37,947.838c-1.864-14.31-6.073-28.021-9.259-42.177c-0.783,0.28-1.377,0.492-2.133,0.762
			C172.813,920.363,176.591,934.1,180.37,947.838z M303.958,454.338c-0.379,0.877-1.101,2.815-1.101,6.003c0,0.612-0.234,3,3.977,3
			c0.497,0,4.312-0.447,9.034-2.98C311.507,458.784,307.253,457.657,303.958,454.338z M445.29,271.909
			c-5.179,0-9.591,2.336-13.811,5.318c5.614-1.668,11.228-3.337,16.946-5.036C447.349,271.999,446.305,271.909,445.29,271.909z
			 M149.06,767.62c-1.905-3.097-3.686-5.993-5.468-8.89c0.409,3.362,1.025,6.565,2.307,9.612
			C147.014,768.087,147.848,767.897,149.06,767.62z M240.489,312.376c0,1.713,0.355,3.449,1.134,5.342
			c0.703-3.667,1.333-6.956,1.972-10.292C240.786,307.77,240.489,310.066,240.489,312.376z"/>
	</g>
</g>
</svg>
