<?xml version="1.0" standalone="no"?>
<!DOCTYPE svg PUBLIC "-//W3C//DTD SVG 20010904//EN"
 "http://www.w3.org/TR/2001/REC-SVG-20010904/DTD/svg10.dtd">
<svg version="1.0" xmlns="http://www.w3.org/2000/svg"
 width="600.000000pt" height="597.000000pt" viewBox="0 0 600.000000 597.000000"
 preserveAspectRatio="xMidYMid meet">
<metadata>
Created by potrace 1.16, written by Peter Selinger 2001-2019
</metadata>
<g transform="translate(0.000000,597.000000) scale(0.100000,-0.100000)"
fill="#000000" stroke="none">
<path d="M2165 5882 c-6 -5 -110 -46 -232 -92 -123 -45 -223 -86 -223 -91 0
-5 13 -6 29 -3 22 5 29 2 34 -13 3 -10 37 -103 77 -207 72 -191 73 -195 35
-209 -5 -3 -8 -7 -5 -10 10 -11 391 141 429 171 20 16 42 46 50 68 13 36 12
44 -7 87 -18 40 -29 51 -68 68 -53 24 -89 22 -192 -12 -35 -12 -65 -19 -68
-16 -16 15 -61 153 -53 162 5 5 38 11 72 13 68 4 109 -9 154 -51 13 -11 26
-18 29 -14 5 5 -44 157 -50 157 -1 0 -6 -4 -11 -8z m-53 -289 c17 -21 68 -156
68 -182 0 -21 -17 -38 -43 -43 -15 -2 -26 18 -62 112 -46 119 -46 130 1 130
11 0 28 -8 36 -17z"/>
<path d="M2920 5840 c0 -5 9 -10 21 -10 18 0 20 -4 15 -37 -3 -21 -8 -125 -12
-230 l-7 -193 -25 0 c-16 0 -22 -4 -17 -9 13 -11 245 -20 245 -9 0 4 -9 8 -20
8 -18 0 -20 7 -20 54 0 29 3 67 6 83 l6 30 36 -19 c56 -29 117 -20 158 25 75
81 62 258 -22 295 -39 18 -105 14 -141 -8 l-33 -20 0 25 c0 25 0 25 -95 25
-57 0 -95 -4 -95 -10z m258 -110 c2 -36 1 -93 -3 -127 -6 -58 -9 -63 -31 -63
-32 0 -38 30 -30 143 7 94 17 120 45 115 12 -2 17 -18 19 -68z"/>
<path d="M2546 5805 c-158 -56 -165 -262 -10 -321 55 -21 147 -15 201 13 125
65 138 222 24 294 -38 25 -55 29 -110 29 -37 -1 -83 -7 -105 -15z m98 -22 c11
-43 38 -264 32 -278 -6 -16 -41 -21 -50 -6 -10 15 -46 282 -40 292 10 16 52
10 58 -8z"/>
<path d="M3504 5805 c21 -16 21 -17 -30 -183 -31 -100 -38 -112 -55 -107 -10
4 -19 2 -19 -4 0 -5 15 -14 33 -20 17 -5 122 -37 232 -71 110 -33 230 -70 267
-82 87 -27 103 -45 103 -114 0 -30 3 -54 7 -54 4 0 16 30 28 67 21 67 18 82
-17 83 -24 0 -22 21 19 154 39 128 42 136 66 136 42 0 14 15 -83 43 -98 30
-126 34 -108 16 7 -7 -2 -49 -32 -146 -24 -74 -46 -137 -49 -140 -3 -4 -17 -1
-30 5 l-24 11 40 133 c22 73 47 139 56 145 8 7 14 14 11 16 -2 2 -40 14 -84
27 -44 12 -86 25 -94 28 -10 4 -13 1 -8 -11 3 -9 -12 -76 -33 -148 -22 -73
-40 -134 -40 -136 0 -6 -35 -2 -49 6 -10 7 -5 34 27 141 23 72 48 137 57 144
14 10 1 17 -87 44 -115 35 -132 38 -104 17z"/>
<path d="M4600 5532 c0 -5 7 -12 15 -16 8 -3 15 -9 15 -14 0 -4 -33 -49 -72
-99 -40 -50 -102 -128 -137 -173 -62 -79 -64 -80 -87 -65 -13 8 -24 11 -24 5
0 -8 91 -84 208 -173 7 -5 16 -7 19 -3 4 4 2 10 -4 14 -17 10 10 38 102 108
174 131 173 131 41 -35 -59 -75 -94 -110 -103 -107 -35 14 0 -22 97 -99 58
-46 109 -80 114 -77 5 2 -1 12 -12 21 -21 16 -20 18 119 194 136 172 142 178
160 161 11 -9 22 -14 26 -10 4 3 2 10 -3 14 -40 35 -214 172 -219 172 -2 0 -4
-10 -2 -22 2 -18 -21 -40 -113 -109 -63 -48 -117 -86 -118 -84 -2 2 37 55 87
119 62 78 96 113 106 109 37 -13 6 18 -88 91 -105 81 -127 95 -127 78z"/>
<path d="M2745 4860 c-6 -9 0 -10 25 -5 40 9 320 -12 420 -31 41 -8 96 -22
122 -30 81 -26 187 -104 267 -195 41 -46 109 -122 152 -169 131 -143 159 -187
159 -251 0 -16 4 -29 9 -29 13 0 5 -100 -11 -145 -8 -23 -20 -39 -27 -37 -8 2
-22 -5 -32 -14 -15 -14 -17 -19 -7 -26 8 -5 0 -8 -21 -8 l-34 0 27 25 c27 25
27 25 4 25 -22 1 -22 1 -4 15 20 15 20 15 0 15 -16 1 -15 3 6 15 l25 13 -35 5
c-34 4 -34 4 7 5 23 1 45 6 48 12 4 6 -6 7 -25 4 -25 -6 -29 -4 -24 10 5 13 1
15 -27 10 -28 -4 -31 -3 -16 6 24 15 21 27 -8 34 -22 6 -24 9 -14 27 9 17 8
20 -2 14 -9 -6 -11 -3 -6 8 4 12 2 14 -11 10 -14 -6 -15 -4 -4 9 10 13 10 17
-4 22 -9 3 -14 13 -11 20 3 8 -1 20 -8 26 -8 7 -13 16 -10 20 3 5 -5 6 -17 3
-19 -5 -21 -3 -10 8 6 7 12 20 12 28 -1 14 -3 13 -14 -1 -21 -28 -39 -22 -21
6 13 19 13 26 4 32 -7 4 -15 2 -17 -4 -2 -7 -8 -12 -13 -12 -5 0 -3 10 6 23 8
13 12 27 8 31 -4 3 -13 -4 -20 -16 l-14 -23 7 24 c4 15 1 27 -7 32 -15 9 -29
3 -29 -12 0 -6 5 -7 12 -3 7 4 8 3 4 -4 -14 -23 -28 -12 -24 18 3 20 0 30 -9
30 -7 0 -13 6 -14 13 0 6 -5 2 -11 -11 -14 -28 -32 -24 -36 9 -6 46 -15 56
-22 24 l-8 -30 -1 28 c0 15 -5 27 -11 27 -5 0 -10 6 -10 14 0 8 -7 16 -15 20
-11 4 -15 -2 -15 -27 -1 -27 -2 -29 -11 -14 -5 9 -7 22 -4 28 4 5 2 15 -3 22
-5 7 -12 21 -15 32 -4 18 -5 18 -6 -2 0 -13 -6 -23 -12 -23 -7 0 -9 -11 -5
-30 6 -32 -2 -37 -36 -19 -11 6 -16 14 -11 18 6 3 13 18 17 34 5 22 3 27 -13
27 -11 0 -22 -8 -24 -17 -3 -11 -5 -6 -7 12 -1 26 -3 27 -10 10 -4 -11 -5 -33
-2 -49 4 -24 2 -27 -14 -23 -86 27 -181 34 -254 20 -73 -13 -175 -10 -172 5 1
8 -1 11 -6 8 -14 -8 -65 51 -57 65 5 8 4 10 -3 5 -7 -4 -12 -3 -12 2 0 14
-100 36 -112 24 -8 -8 -2 -10 19 -10 61 2 103 -49 103 -126 0 -40 -11 -50 -44
-42 -40 10 -74 54 -82 104 l-8 47 -7 -34 c-9 -43 23 -98 76 -131 l36 -22 -27
-29 c-39 -40 -102 -63 -138 -50 -42 16 -45 13 -8 -9 18 -11 39 -20 47 -20 8 0
15 -3 15 -6 0 -13 -55 -58 -67 -56 -7 2 -13 -1 -13 -6 0 -6 15 -13 34 -16 36
-7 56 -34 35 -47 -17 -10 -20 -40 -6 -57 9 -12 8 -14 -7 -11 -11 2 -26 19 -35
36 -9 18 -23 35 -32 38 -17 6 -44 79 -35 94 3 4 -6 13 -19 19 -28 13 -32 30
-10 38 13 5 13 9 0 34 -11 22 -12 29 -2 33 9 3 9 8 -2 20 -11 14 -11 18 3 23
13 5 14 8 1 20 -7 8 -13 24 -11 37 4 33 37 117 47 117 5 0 9 9 9 20 0 11 5 20
10 20 6 0 10 7 10 16 0 9 5 12 12 8 6 -4 8 -3 5 3 -8 13 21 53 39 53 8 0 14 7
14 15 0 8 3 15 8 15 4 0 18 10 32 21 l25 20 -34 -17 c-19 -9 -55 -38 -80 -63
-100 -103 -147 -258 -123 -404 15 -84 78 -218 133 -281 30 -34 35 -47 32 -73
-3 -18 0 -55 7 -83 12 -49 11 -51 -13 -70 -14 -11 -39 -43 -54 -70 -29 -50
-30 -50 -48 -30 -11 12 -30 20 -49 20 -28 -1 -29 -2 -13 -14 13 -10 17 -28 17
-70 0 -62 19 -109 49 -126 46 -24 182 2 205 39 14 22 33 10 65 -39 l32 -50
-32 -39 c-54 -68 -255 -191 -310 -191 -37 0 -155 39 -182 60 -14 11 -30 20
-36 20 -7 0 -41 29 -77 65 l-66 64 -30 -15 c-18 -10 -40 -13 -59 -9 -21 5 -31
2 -35 -9 -7 -19 -55 -21 -72 -4 -19 19 -32 -8 -32 -70 0 -48 -21 -105 -58
-160 -11 -16 -174 53 -231 99 -41 32 -41 33 -76 16 -28 -13 -40 -14 -60 -5
-20 9 -28 8 -42 -4 -10 -9 -35 -18 -55 -22 -33 -6 -39 -12 -50 -48 -14 -46
-70 -107 -220 -237 -105 -92 -152 -147 -194 -231 -35 -70 -40 -128 -19 -209
23 -90 46 -131 115 -205 l60 -64 -42 -21 c-24 -11 -37 -21 -30 -21 7 0 30 9
50 19 28 14 42 17 55 9 14 -8 16 -13 6 -24 -14 -17 -5 -18 23 -3 18 9 16 5 -8
-27 l-28 -39 37 34 c42 40 45 36 16 -20 -11 -22 -18 -46 -16 -52 2 -7 9 4 16
25 12 36 37 56 52 41 4 -4 1 -41 -6 -82 -8 -41 -13 -76 -11 -78 2 -2 11 28 21
66 l17 70 24 -16 c13 -8 24 -19 24 -23 0 -10 132 -140 143 -140 5 0 37 -17 71
-38 39 -24 88 -43 136 -53 41 -9 74 -21 73 -27 -1 -5 8 -9 21 -8 13 0 22 4 19
9 -2 4 3 7 11 7 8 0 18 -4 21 -10 3 -5 13 -10 21 -10 8 0 12 5 9 10 -9 14 8
13 23 -2 8 -8 12 -8 12 -1 0 6 17 14 38 17 20 3 53 8 72 12 19 3 44 6 55 7 11
1 26 6 32 10 7 4 22 3 34 -4 18 -9 21 -9 16 4 -8 22 36 60 62 52 26 -8 16 -29
-11 -22 -10 3 -18 1 -16 -5 4 -11 8 -11 43 -2 14 3 25 10 25 15 0 15 28 10 34
-7 4 -12 1 -14 -14 -9 -15 5 -20 2 -20 -13 0 -23 28 -49 53 -49 18 0 25 17 7
17 -5 0 -10 7 -10 15 0 8 7 15 15 15 8 0 15 -7 15 -15 0 -8 6 -15 14 -15 7 0
19 -7 26 -15 7 -8 17 -15 22 -15 6 0 0 8 -12 18 -13 10 -20 24 -17 29 8 13
162 11 191 -2 11 -5 26 -4 37 3 10 7 47 12 82 12 35 0 70 5 79 12 9 7 29 52
44 100 28 86 28 87 58 82 145 -21 151 -21 168 -7 34 30 39 2 5 -37 -30 -36
-33 -43 -31 -107 1 -89 13 -114 73 -161 89 -71 120 -77 295 -65 168 12 263 37
307 79 22 21 28 38 34 96 7 64 5 71 -16 95 l-24 25 45 39 c93 81 187 100 242
49 12 -11 28 -18 36 -15 7 3 22 5 32 5 11 0 35 14 54 30 19 17 38 29 43 28 4
-1 20 6 35 16 15 10 33 16 40 13 7 -2 21 0 31 5 27 14 20 -8 -10 -32 -23 -18
-23 -19 -3 -6 63 40 63 40 58 13 -3 -17 3 -34 23 -57 24 -27 34 -31 66 -29 21
2 44 8 52 13 8 6 35 12 60 13 82 5 95 8 147 33 45 22 77 53 104 99 4 8 16 15
27 16 10 0 30 9 45 19 20 13 37 16 60 12 65 -14 174 -17 213 -7 33 8 27 9 -37
4 -71 -5 -82 -3 -134 22 -55 27 -60 28 -117 16 -32 -7 -60 -11 -62 -9 -2 2
-12 29 -23 62 -16 46 -18 65 -10 90 6 17 13 65 17 106 l6 75 40 8 c22 5 53 15
68 23 16 8 33 12 38 8 5 -3 19 2 31 10 12 9 35 16 51 16 16 0 38 5 50 12 24
12 27 13 151 23 l86 7 34 -34 c49 -49 63 -103 48 -190 -19 -108 -51 -154 -147
-209 -27 -16 -44 -29 -37 -29 23 0 119 67 147 104 33 44 65 126 65 169 0 62
-28 133 -65 166 -20 17 -44 31 -55 31 -32 0 -33 19 -3 58 73 96 84 196 32 300
-39 78 -73 107 -161 133 -61 19 -79 20 -127 11 -52 -9 -58 -8 -81 12 -46 42
-98 66 -182 87 -114 28 -123 33 -152 98 -30 66 -81 111 -126 111 -55 0 -89 29
-130 111 -65 129 -119 162 -256 157 -52 -2 -94 0 -94 3 0 3 14 18 31 35 50 47
71 83 85 141 25 106 -22 245 -114 338 -27 28 -97 105 -156 172 -145 166 -234
232 -371 276 -97 32 -515 61 -530 37z m453 -369 c23 -9 39 -21 35 -26 -4 -4 0
-5 10 -2 10 4 17 1 17 -6 0 -22 22 -38 36 -26 9 7 14 4 19 -10 5 -18 10 -19
26 -10 12 6 27 8 36 5 11 -4 13 -2 9 9 -7 20 7 19 46 -5 29 -18 31 -26 4 -21
-5 1 -3 -5 4 -14 7 -9 19 -14 27 -11 8 3 11 1 8 -4 -9 -14 9 -12 23 2 9 9 12
8 12 -4 0 -9 -8 -19 -17 -23 -17 -7 -16 -8 2 -15 11 -4 20 -16 20 -26 0 -12 8
-20 23 -22 12 -2 22 1 22 7 0 6 7 11 15 11 19 0 20 -46 3 -63 -15 -14 -58 -18
-58 -5 0 4 -6 8 -14 8 -21 0 -31 21 -15 31 12 8 12 11 -1 19 -10 6 -16 6 -18
0 -2 -6 -10 -6 -22 0 -10 6 -29 9 -42 7 -19 -2 -23 2 -21 21 3 20 0 21 -17 12
-29 -16 -110 -3 -103 16 7 19 -11 18 -27 -1 -17 -20 -31 -19 -23 3 6 15 5 15
-10 4 -13 -11 -28 -11 -92 3 -71 16 -82 16 -138 2 -128 -32 -152 -36 -155 -27
-2 6 -10 10 -18 10 -19 0 -18 19 2 27 14 5 14 7 1 15 -14 7 -14 11 -1 38 9 16
13 34 10 38 -7 12 64 33 139 42 109 13 197 10 243 -9z m-113 -171 c-3 -5 -12
-10 -18 -10 -19 -1 -63 -38 -54 -46 4 -4 17 2 30 13 33 32 85 37 156 18 33
-10 61 -22 61 -26 0 -5 6 -9 14 -9 7 0 30 -7 51 -15 28 -12 34 -19 26 -29 -14
-16 -4 -26 25 -26 19 0 30 -13 55 -67 38 -81 69 -169 69 -195 0 -20 6 -21 67
-9 28 5 51 4 72 -5 26 -11 31 -19 31 -47 0 -18 -7 -42 -15 -53 -13 -18 -14
-16 -9 16 8 51 -12 66 -74 54 -44 -8 -47 -11 -47 -41 0 -24 -9 -40 -40 -67
-40 -35 -40 -35 -13 -36 35 0 44 -17 22 -41 -25 -28 -72 -25 -86 6 -10 22 -9
28 10 41 25 18 30 65 8 83 -12 10 -18 7 -30 -18 -9 -16 -16 -37 -16 -46 0 -8
-7 -15 -14 -15 -8 0 -35 -11 -60 -24 -28 -15 -46 -20 -46 -13 0 7 -5 4 -11 -5
-12 -22 -29 -23 -29 -2 0 8 -4 13 -9 10 -12 -8 -41 3 -41 15 0 5 7 9 16 9 8 0
12 5 9 10 -4 6 -15 8 -25 5 -14 -4 -23 4 -39 39 -12 25 -31 46 -42 49 -12 3
-19 10 -16 15 6 9 -27 42 -43 42 -13 0 -13 17 0 25 6 3 10 19 10 36 0 16 4 29
9 29 5 0 11 10 13 23 3 19 9 22 48 22 25 0 50 -3 57 -8 8 -6 18 -3 28 7 19 19
35 21 35 4 0 -6 6 -4 13 7 9 11 19 15 27 10 10 -6 11 -2 6 18 -4 16 -2 27 7
30 6 2 9 8 4 13 -4 4 -28 -2 -52 -14 -62 -30 -106 -28 -147 5 -18 15 -37 33
-41 40 -10 16 -49 17 -65 1 -7 -7 -12 -20 -12 -30 0 -10 -6 -18 -14 -18 -7 0
-24 -11 -38 -24 -14 -12 -33 -26 -43 -29 -9 -4 -13 -11 -10 -17 6 -9 42 3 55
19 25 30 97 41 107 15 6 -17 -18 -76 -47 -114 l-20 -25 -19 24 c-21 27 -41 21
-41 -13 0 -34 -31 -69 -53 -61 -9 4 -17 14 -17 23 0 12 -3 13 -12 4 -16 -16
-23 -15 -42 4 -12 12 -13 20 -6 35 14 25 -14 27 -29 2 -9 -17 -11 -17 -28 1
-17 18 -17 18 7 12 24 -7 24 -6 6 8 -11 9 -24 16 -29 16 -24 0 25 36 102 75
48 23 96 51 108 61 33 27 39 74 15 104 -19 24 -21 24 -39 7 -11 -9 -25 -17
-32 -17 -7 0 -3 -9 9 -22 11 -12 17 -24 14 -27 -3 -3 -9 1 -14 9 -8 13 -19 10
-69 -17 -86 -47 -89 -46 -80 32 5 36 11 71 15 77 4 6 25 8 51 5 38 -4 43 -2
38 12 -4 14 8 20 67 33 84 18 212 23 203 8z m904 -480 c34 -9 131 -99 131
-121 0 -9 -3 -9 -14 0 -20 17 -31 -17 -13 -38 8 -9 20 -27 27 -41 12 -23 12
-24 -3 -11 -10 7 -17 9 -17 3 0 -18 30 -35 76 -44 24 -4 65 -12 90 -17 47 -8
94 -46 94 -76 0 -8 4 -15 10 -15 5 0 16 -15 24 -34 17 -41 39 -54 124 -72 65
-14 152 -56 152 -75 0 -6 -4 -7 -10 -4 -6 4 -7 -2 -2 -15 10 -26 28 -23 24 4
-2 19 -2 19 18 1 11 -10 20 -21 20 -25 0 -4 -56 -42 -125 -85 -69 -43 -124
-79 -122 -81 5 -5 91 39 95 48 2 5 16 6 30 3 21 -4 23 -4 7 3 -19 9 -19 9 2
20 12 7 28 12 36 12 24 0 70 27 55 33 -7 2 4 5 25 5 28 0 43 6 53 21 17 23 69
29 78 9 3 -10 9 -8 19 5 14 17 18 17 68 3 84 -25 120 -54 161 -131 28 -53 30
-155 4 -205 -35 -67 -116 -134 -100 -82 3 9 -8 1 -26 -18 -19 -22 -27 -27 -21
-13 18 36 13 36 -19 1 -16 -18 -30 -29 -30 -25 0 5 -10 1 -22 -7 -28 -20 -52
-21 -45 -1 4 8 1 17 -6 21 -7 4 -9 4 -5 -1 4 -4 3 -15 -2 -25 -12 -23 -83 -34
-124 -19 -31 11 -36 10 -84 -29 -28 -22 -57 -42 -63 -44 -7 -2 -11 -26 -10
-65 0 -35 -7 -86 -18 -121 -16 -52 -16 -62 -4 -66 8 -3 13 -12 11 -18 -3 -7 2
-19 9 -27 23 -23 12 -125 -17 -156 -25 -26 -85 -44 -101 -28 -5 5 -17 49 -28
98 -11 50 -27 119 -36 153 -9 35 -17 101 -18 146 l-2 82 76 85 c73 81 105 126
96 135 -2 2 -19 -14 -38 -37 -19 -22 -55 -64 -81 -92 -39 -45 -108 -153 -108
-171 0 -3 7 -6 16 -6 15 0 15 -2 1 -24 -12 -18 -13 -26 -4 -35 9 -9 9 -14 -2
-20 -17 -11 -7 -41 13 -41 19 0 48 -93 40 -126 -5 -18 0 -34 15 -54 11 -16 19
-37 17 -47 -7 -37 -31 -83 -41 -83 -19 0 -50 42 -100 135 -27 50 -59 107 -72
127 -12 21 -28 58 -35 84 -11 41 -11 47 5 55 19 11 23 39 6 39 -15 0 -7 63 22
180 23 93 25 97 129 159 61 37 139 106 129 114 -12 11 -146 -27 -172 -49 -16
-13 -35 -24 -43 -24 -8 0 -14 -4 -14 -8 0 -5 -38 -30 -85 -56 -51 -29 -91 -59
-100 -75 -8 -14 -15 -21 -15 -16 -1 6 -5 1 -10 -10 -8 -18 -9 -17 -9 6 -1 15
6 29 14 33 8 3 15 13 14 23 0 16 -1 15 -9 -2 -8 -21 -15 -13 -22 30 -2 11 -10
-15 -17 -57 -7 -43 -17 -81 -23 -84 -6 -4 -8 2 -4 17 4 19 3 18 -6 -3 -7 -16
-17 -28 -24 -28 -7 0 -14 -6 -17 -12 -2 -8 -8 -9 -13 -4 -5 5 -4 11 4 13 6 3
12 14 12 26 0 18 -2 19 -10 7 -5 -8 -10 -11 -10 -5 0 5 -5 4 -11 -2 -6 -6 -18
-9 -25 -6 -10 4 -14 -3 -13 -23 0 -24 2 -26 8 -10 7 19 8 19 14 1 9 -23 4 -28
-22 -20 -16 5 -20 12 -15 31 4 15 2 24 -6 24 -7 0 -10 -6 -8 -12 3 -7 -3 -22
-13 -32 -11 -12 -19 -14 -19 -7 0 7 -4 10 -9 6 -5 -3 -12 -1 -15 4 -3 5 3 11
14 14 21 5 29 47 9 47 -6 0 -9 -7 -5 -15 3 -8 2 -16 -2 -16 -42 -7 -62 -6 -62
2 0 5 -6 9 -12 7 -7 -1 -23 4 -34 12 l-22 13 22 19 21 18 -30 -5 c-95 -14
-105 -17 -105 -30 0 -11 -13 -15 -50 -15 -30 0 -50 4 -50 11 0 6 -13 -3 -29
-20 -16 -17 -33 -31 -38 -31 -4 0 -26 -24 -48 -52 -38 -50 -40 -56 -34 -103 3
-27 4 -69 1 -92 -4 -41 -6 -42 -38 -41 -19 1 -34 5 -34 10 0 4 4 8 10 8 5 0 7
7 4 15 -4 8 -10 12 -15 9 -10 -6 -12 13 -9 60 3 42 -16 23 -24 -24 -7 -44 -21
-52 -32 -17 -7 20 -8 20 -20 -13 -7 -19 -13 -27 -13 -18 -1 25 -21 33 -21 8 0
-13 8 -24 20 -27 11 -3 20 -9 20 -13 0 -4 -9 -10 -20 -13 -14 -3 -20 0 -20 10
0 17 -48 63 -66 63 -6 0 -19 18 -29 40 -10 23 -22 43 -27 46 -9 6 -3 -16 19
-65 16 -35 8 -50 -24 -51 -12 0 -18 -21 -14 -44 1 -5 -1 -16 -5 -25 -5 -12 -9
-9 -13 13 -6 31 -31 49 -31 22 0 -8 -4 -18 -10 -21 -6 -3 -7 1 -4 9 3 9 1 17
-5 17 -6 1 -17 2 -23 3 -7 1 -16 -3 -20 -8 -4 -6 -10 -8 -13 -4 -4 4 7 35 23
70 49 104 64 215 41 303 -6 22 -10 48 -10 58 0 9 -4 17 -9 17 -4 0 -11 15 -14
34 -12 63 -137 206 -215 246 -35 18 -41 24 -35 43 13 45 35 69 57 63 11 -3 27
0 34 6 9 7 13 7 13 0 0 -6 -4 -14 -10 -17 -5 -3 -10 -14 -10 -23 0 -12 6 -9
18 11 9 15 24 27 33 27 9 0 19 7 23 15 3 8 16 15 28 15 13 0 34 9 48 20 18 13
28 16 37 8 9 -7 22 -6 45 3 18 8 37 13 41 11 5 -1 21 7 37 18 15 11 36 20 45
20 9 0 26 5 37 11 12 7 89 12 187 14 173 2 223 9 354 52 43 14 81 23 84 20 3
-3 -11 -33 -31 -65 -75 -123 -118 -256 -131 -402 -4 -41 -13 -87 -20 -102 -11
-22 -11 -28 -1 -28 13 0 36 81 36 125 0 13 5 46 11 74 8 40 15 51 40 61 16 7
28 15 25 17 -2 3 -14 0 -25 -7 -17 -9 -21 -8 -21 5 0 9 7 18 16 22 13 5 13 7
2 15 -10 7 -9 11 6 23 11 8 15 15 9 15 -17 0 25 101 81 195 42 73 45 80 27 83
-11 2 -41 -6 -67 -17 -114 -51 -404 -102 -404 -72 0 5 9 13 21 16 13 5 19 14
17 28 -3 26 8 47 25 47 7 0 6 -4 -3 -10 -21 -13 -6 -23 17 -11 10 6 30 15 46
21 26 9 38 30 17 30 -5 0 -10 7 -10 16 0 10 6 14 14 11 17 -7 31 24 16 33 -7
4 7 10 31 14 54 9 68 17 43 28 -14 6 -11 7 9 3 21 -4 34 0 45 12 13 14 31 19
70 18 28 0 52 1 52 2 0 17 -18 33 -37 33 -24 0 -24 0 9 31 83 77 245 119 347
89z m-1828 -518 c44 -34 120 -73 176 -93 68 -23 83 -24 57 -3 -18 14 -18 15 6
8 14 -4 39 -11 55 -15 54 -14 199 -69 209 -79 5 -5 7 -12 4 -15 -9 -9 -79 6
-73 15 9 14 -14 22 -32 12 -14 -8 -13 -11 8 -22 13 -7 39 -26 57 -43 18 -18
32 -25 32 -18 0 8 -8 20 -17 27 -16 12 -15 13 15 14 44 0 114 -65 153 -143 51
-100 86 -275 59 -292 -6 -4 -10 8 -11 27 0 31 -1 31 -10 10 -5 -13 -6 -35 -3
-48 3 -13 3 -32 0 -41 -6 -15 -8 -15 -16 -3 -8 12 -10 11 -10 -6 0 -12 -7 -21
-16 -21 -12 0 -14 7 -10 30 3 17 3 28 0 24 -11 -11 -45 -117 -40 -125 7 -11
-12 -38 -20 -29 -4 4 -9 53 -11 109 -2 56 -6 104 -8 107 -3 2 -5 -7 -5 -21 0
-14 -7 -31 -15 -38 -13 -11 -15 -1 -16 76 l-2 89 -7 -75 c-4 -41 -11 -91 -15
-110 -8 -34 -8 -35 -17 -10 -5 14 -9 52 -8 85 2 99 -2 115 -10 35 -8 -80 -17
-120 -28 -120 -4 0 -20 21 -36 47 -17 25 -41 59 -55 73 -15 15 -38 40 -52 56
-39 42 -57 55 -64 45 -3 -5 -19 -12 -35 -16 -17 -4 -30 -13 -30 -20 0 -17 -14
-22 -55 -17 -29 3 -36 11 -61 65 -16 33 -35 62 -41 65 -17 5 -16 -13 1 -30 12
-13 56 -91 56 -101 0 -3 -9 -7 -20 -10 -16 -4 -25 4 -43 34 -25 44 -47 58 -47
29 0 -12 5 -17 13 -14 12 4 37 -33 37 -56 0 -20 -53 -9 -76 16 -20 20 -24 22
-24 8 0 -16 -1 -16 -15 2 -12 15 -16 16 -23 6 -7 -10 -11 -7 -16 13 -4 14 -4
31 0 37 4 5 2 13 -4 17 -6 3 -13 53 -17 111 -4 58 -9 107 -11 109 -11 11 -3
-251 8 -269 14 -22 6 -35 -17 -26 -13 5 -14 15 -9 57 5 38 4 50 -5 45 -8 -5
-10 12 -5 66 4 53 3 69 -5 58 -8 -12 -11 -5 -11 30 0 26 7 56 16 69 10 14 13
26 7 30 -11 7 -2 106 11 118 4 5 6 -16 5 -44 -2 -29 0 -56 4 -59 4 -4 7 13 7
39 0 67 17 66 30 0 16 -77 50 -186 56 -180 3 3 -6 43 -21 90 -24 80 -32 182
-12 170 4 -2 7 -10 7 -16 1 -7 7 -25 15 -42 l14 -30 -3 40 c-2 22 -7 49 -11
59 -15 36 12 8 30 -31 22 -48 86 -145 91 -140 3 2 -14 35 -36 73 -37 64 -48
94 -34 94 3 0 15 -11 26 -26 11 -14 23 -23 26 -20 2 3 -1 12 -8 21 -7 9 -10
18 -7 21 3 4 0 13 -8 21 -33 32 -12 44 26 15z m-265 -297 c-29 -107 -43 -188
-27 -165 6 8 11 26 12 40 1 37 23 93 38 98 11 4 12 -9 6 -63 -5 -48 -4 -65 4
-61 7 5 11 -10 11 -46 0 -30 5 -59 12 -66 21 -21 -1 -26 -25 -6 -57 51 -162
94 -229 94 -48 0 -57 18 -30 62 74 120 83 138 71 159 -8 17 -8 25 3 36 19 18
53 7 37 -13 -20 -24 4 -15 33 13 34 33 45 25 23 -17 -9 -18 -14 -34 -12 -37 3
-2 14 16 26 41 11 25 23 46 26 46 3 0 1 -9 -5 -21 -7 -11 -9 -23 -6 -26 3 -4
13 11 22 32 12 30 13 44 5 62 -13 29 -14 44 -2 24 7 -11 11 -8 17 10 7 19 10
10 12 -41 2 -45 -4 -91 -22 -155z m-288 100 c23 -15 45 -26 48 -23 3 3 -10 15
-28 26 -40 25 -84 70 -76 78 4 3 17 -1 30 -9 12 -8 42 -18 66 -22 25 -4 42
-12 42 -20 0 -8 7 -18 17 -23 14 -8 8 -20 -43 -80 -32 -39 -64 -71 -71 -71 -6
-1 -11 -9 -10 -18 1 -23 -32 -73 -48 -73 -15 0 -25 50 -20 103 2 21 -2 53 -9
70 -8 18 -16 52 -19 77 l-6 45 27 -55 c15 -30 43 -71 61 -90 31 -32 32 -33 14
-5 -30 45 -93 170 -93 186 0 8 17 -4 38 -27 20 -23 56 -54 80 -69z m-244 -45
l-6 -55 26 30 c16 19 26 41 25 60 0 26 -2 27 -9 10 -7 -16 -9 -13 -9 18 -1 26
3 37 13 37 12 0 15 -27 15 -150 0 -168 7 -220 27 -220 10 0 14 12 13 43 l-2
42 -6 -40 c-6 -36 -7 -38 -14 -15 -3 14 -6 72 -5 130 1 102 2 103 8 35 4 -38
7 -61 9 -50 2 16 4 15 15 -10 12 -26 15 -28 21 -12 10 24 25 4 25 -33 0 -15 5
-31 11 -37 21 -21 -2 -48 -79 -93 -75 -44 -157 -115 -200 -175 l-21 -30 -2 45
c-1 25 -1 51 0 58 1 6 -3 12 -9 12 -12 0 -13 -13 -1 -77 9 -47 -2 -118 -25
-154 -8 -14 -39 37 -59 98 -14 45 -15 46 -11 11 3 -21 16 -60 30 -89 31 -60
30 -59 10 -59 -11 0 -14 -6 -8 -22 4 -13 11 -26 17 -29 21 -14 -2 -39 -35 -38
-18 0 -46 -3 -61 -6 -24 -6 -34 -2 -63 26 -19 18 -34 38 -34 45 0 16 -30 27
-30 11 0 -7 -14 4 -30 23 -44 52 -73 134 -74 210 -1 58 4 74 43 148 36 69 59
97 130 160 95 86 154 132 166 132 4 0 0 -9 -10 -20 -45 -49 38 3 92 58 24 25
25 23 8 -20 -11 -28 9 -21 27 10 l17 27 1 -32 c0 -18 5 -33 11 -33 16 0 38 62
33 95 -4 29 -4 29 6 5 7 -14 8 -47 4 -80z m3006 -65 c0 -8 -89 -65 -102 -65
-21 0 -84 -61 -93 -90 -4 -14 -16 -33 -27 -44 -15 -13 -17 -21 -8 -26 17 -11
3 -48 -17 -46 -12 1 -18 -8 -20 -33 -2 -26 0 -32 12 -27 16 6 18 -5 9 -41 -4
-14 -14 -23 -25 -23 -11 0 -19 -4 -19 -10 0 -5 9 -10 19 -10 16 0 18 -5 11
-34 -4 -18 -11 -39 -15 -45 -3 -7 -1 -18 5 -26 7 -8 10 -22 6 -30 -3 -10 1
-15 12 -16 11 0 13 -2 4 -6 -10 -4 -8 -9 7 -19 11 -8 18 -21 15 -28 -3 -8 3
-20 13 -28 19 -14 43 -51 43 -67 0 -6 11 -22 25 -37 14 -15 24 -37 23 -50 -3
-28 -13 -22 -63 36 -21 25 -62 70 -91 100 -29 30 -62 75 -75 98 -21 42 -22 51
-15 193 4 82 12 162 17 179 14 40 267 200 316 200 18 0 33 -2 33 -5z m-2570
-202 c84 -31 155 -93 222 -192 18 -26 15 -63 -5 -89 -13 -16 -27 2 -27 34 0
25 -99 130 -150 159 -77 45 -116 64 -130 64 -8 -1 1 -7 20 -16 19 -8 49 -25
65 -37 17 -13 44 -30 61 -39 46 -24 116 -98 111 -117 -2 -10 0 -26 6 -36 9
-17 9 -18 -6 -5 -21 17 -22 8 -2 -13 14 -14 14 -17 -2 -36 -23 -26 -31 -25
-26 4 3 13 -1 27 -8 31 -9 6 -11 3 -6 -8 7 -20 -18 -24 -29 -5 -4 7 -3 8 4 4
13 -8 14 -5 17 37 2 20 -2 27 -16 27 -11 0 -19 5 -19 11 0 14 -78 89 -93 89
-6 0 4 -13 24 -29 51 -42 92 -99 85 -118 -5 -13 -9 -13 -23 -2 -9 8 -4 -5 12
-29 15 -23 24 -46 20 -50 -4 -4 -10 -1 -13 7 -7 20 -73 91 -85 91 -5 0 2 -9
17 -21 24 -19 38 -48 16 -34 -5 3 4 -21 21 -55 16 -33 32 -60 35 -60 2 0 0 9
-6 20 -6 11 -7 20 -2 20 8 0 32 -43 32 -57 0 -3 -25 -3 -55 -1 l-55 5 -6 -36
c-6 -30 -8 -33 -15 -16 -8 17 -8 17 -6 -5 2 -29 20 -32 25 -4 8 41 20 31 65
-50 26 -47 59 -98 72 -115 l26 -30 -37 -40 c-20 -23 -40 -38 -45 -35 -5 3 4
17 21 31 16 13 29 32 29 41 -1 14 -2 13 -6 -2 -4 -15 -7 -16 -14 -5 -7 11 -10
9 -15 -8 -3 -12 -19 -27 -35 -33 -16 -7 -29 -17 -29 -22 0 -5 -6 -8 -12 -7 -7
1 -21 -1 -31 -6 -9 -4 -29 -4 -43 -1 -33 9 -106 77 -141 132 -15 24 -34 46
-41 49 -22 8 28 -54 107 -133 64 -64 77 -73 100 -68 14 4 33 7 41 8 8 1 17 5
20 9 8 12 121 -2 117 -15 -6 -20 -74 -37 -103 -25 -15 5 -29 7 -32 5 -8 -9 48
-26 84 -26 41 0 43 -20 3 -31 -37 -11 -89 -10 -89 1 0 6 6 10 13 11 6 1 -4 5
-23 9 -21 5 -36 5 -38 -1 -8 -22 -89 -5 -170 35 -54 26 -177 160 -196 213 -9
22 -15 30 -15 18 0 -11 6 -31 14 -45 19 -34 18 -50 -3 -50 -21 0 -62 27 -62
41 0 6 10 3 22 -5 32 -23 42 -20 19 5 -15 16 -27 20 -48 15 -18 -4 -23 -3 -14
3 11 7 10 13 -5 35 -11 14 -25 26 -31 26 -24 0 -13 20 11 20 14 0 28 -4 31
-10 10 -15 25 -12 19 5 -3 7 -26 22 -50 31 -47 18 -49 28 -8 38 18 5 30 3 35
-6 6 -10 11 -9 22 6 13 18 15 17 25 -14 7 -18 12 -42 13 -54 0 -12 3 -15 6 -8
3 7 -3 44 -12 82 -9 37 -17 93 -18 123 -1 31 -5 53 -8 49 -10 -10 -16 -92 -7
-92 5 0 8 -11 8 -23 0 -16 -9 -28 -25 -35 -34 -15 -48 -15 -40 1 4 6 0 4 -8
-5 -29 -37 -39 -5 -11 38 16 23 15 24 -1 17 -14 -5 -17 -3 -12 10 3 9 3 17 -2
17 -5 0 -12 -12 -15 -26 -5 -17 -11 -23 -17 -17 -10 10 20 90 44 116 52 57 61
70 45 64 -21 -8 -23 -3 -5 15 28 29 67 85 62 90 -3 3 7 13 22 23 25 17 27 17
14 1 -8 -9 -16 -29 -17 -43 -2 -14 -8 -31 -13 -36 -6 -6 -11 -20 -11 -31 1
-14 10 -3 25 29 14 28 25 54 25 58 0 19 48 70 97 104 92 63 186 75 293 36z
m580 -28 c0 -2 -9 -28 -19 -57 -19 -53 -51 -260 -51 -331 0 -21 9 -62 19 -92
21 -59 9 -77 -14 -22 -9 19 -14 25 -15 14 0 -11 -5 -15 -11 -11 -7 4 -10 1 -7
-7 3 -8 11 -13 17 -11 17 3 25 -26 12 -42 -8 -9 -8 -16 -2 -20 5 -4 16 3 25
15 13 20 36 19 36 -1 0 -12 -67 -33 -80 -25 -5 3 -10 1 -10 -6 0 -7 11 -10 30
-7 29 4 29 3 16 -16 -25 -38 -45 -25 -79 49 -28 63 -31 80 -30 165 0 58 7 121
17 160 22 81 84 232 99 242 13 8 47 11 47 3z m-110 -25 c0 -6 -7 -13 -15 -16
-8 -4 -15 -11 -15 -16 0 -6 -21 -38 -46 -72 -26 -33 -52 -74 -59 -91 -7 -16
-30 -68 -51 -115 -29 -64 -38 -98 -38 -137 0 -28 -3 -50 -7 -47 -4 2 -9 -2
-12 -8 -11 -31 -26 13 -28 86 -3 65 0 80 14 91 11 8 15 19 11 29 -9 25 25 132
62 193 33 55 77 97 109 106 36 9 75 7 75 -3z m1292 -31 c15 -10 32 -19 38 -19
6 0 13 -6 16 -14 3 -8 13 -12 26 -8 17 4 20 2 15 -11 -5 -13 0 -17 20 -17 22
0 24 -2 12 -16 -12 -15 -11 -16 8 -10 13 4 24 2 29 -6 4 -6 2 -14 -4 -16 -18
-6 -14 -20 6 -18 13 1 18 -8 20 -36 3 -36 -9 -50 -23 -27 -5 7 -15 4 -29 -9
-37 -34 -224 -64 -264 -43 -15 8 -22 8 -25 -2 -3 -8 -11 -3 -23 13 -39 52 -54
91 -54 138 0 52 23 84 85 116 37 20 108 13 147 -15z m404 -53 l9 -73 -32 -34
c-32 -33 -32 -35 -26 -105 3 -45 2 -78 -6 -92 -7 -14 -8 -28 -2 -39 18 -34 34
-102 28 -117 -4 -9 -2 -16 4 -16 5 0 2 -11 -7 -25 -21 -32 -27 -32 -63 7 -21
23 -35 53 -46 103 -9 38 -27 114 -41 168 -30 124 -31 173 -2 204 12 13 16 23
9 23 -7 0 -9 5 -5 11 5 8 9 8 14 -1 6 -9 25 -3 71 23 35 19 69 35 75 36 5 0
14 -32 20 -73z m-1582 -72 c3 -8 10 -13 15 -10 5 4 16 -1 24 -9 9 -8 20 -15
26 -15 22 0 11 -59 -15 -85 -15 -15 -23 -32 -20 -41 4 -12 2 -12 -14 -4 -18
10 -20 7 -20 -25 0 -28 4 -35 20 -35 11 0 20 -4 20 -10 0 -5 -18 -10 -40 -10
-22 0 -40 5 -40 10 0 6 7 10 15 10 12 0 14 7 9 27 -4 15 -13 34 -21 41 -7 7
-13 18 -13 23 0 13 18 11 23 -3 2 -7 4 -1 4 15 0 15 -3 30 -8 33 -15 9 -10 34
7 34 8 0 12 5 8 11 -3 6 -1 15 7 19 10 7 10 11 0 24 -8 9 -9 16 -3 16 5 0 13
-7 16 -16z m1606 -89 c0 -59 13 -83 98 -180 39 -43 69 -82 66 -86 -2 -4 -30
-10 -61 -13 -32 -4 -70 -9 -84 -12 -24 -5 -27 -1 -47 61 -25 75 -31 242 -10
263 25 25 38 13 38 -33z m-224 -52 c25 -59 63 -254 50 -258 -22 -7 -436 -20
-631 -21 -110 0 -323 -8 -474 -17 -151 -9 -278 -14 -282 -11 -12 7 -86 134
-93 161 -6 20 -3 21 81 27 202 14 572 48 618 57 28 5 127 18 220 28 172 20
452 58 470 66 21 8 27 4 41 -32z m-1785 -163 c3 -25 9 -66 13 -92 l8 -48 -30
0 c-28 0 -35 7 -76 84 -26 45 -46 86 -46 89 0 9 32 14 80 13 l45 -2 6 -44z
m244 -53 c20 -55 34 -102 30 -105 -13 -14 -159 97 -186 141 -34 57 -24 66 68
64 l51 -2 37 -98z m-144 -15 c-6 -2 -11 -8 -11 -14 0 -6 7 -7 16 -4 16 6 119
-62 109 -72 -3 -3 -14 3 -24 12 -21 19 -52 18 -59 -2 -2 -7 2 -10 12 -6 12 5
15 2 10 -10 -6 -15 5 -21 29 -17 5 1 6 -3 2 -8 -3 -6 4 -15 15 -21 11 -6 18
-15 15 -19 -3 -5 6 -12 20 -15 l25 -6 -20 -22 c-11 -12 -23 -18 -27 -15 -3 4
2 14 13 22 16 13 13 13 -19 -1 -22 -8 -36 -10 -32 -5 3 6 -2 11 -13 11 -11 0
-30 15 -43 35 -13 19 -30 35 -36 35 -12 0 -18 26 -14 58 1 7 -5 15 -14 18 -8
3 -15 15 -15 26 0 18 2 19 17 7 11 -9 14 -10 9 -2 -11 19 16 44 33 30 9 -8 10
-12 2 -15z m309 -51 c0 -4 38 -47 84 -94 47 -48 81 -89 75 -92 -5 -4 -9 -11
-9 -18 0 -8 3 -8 12 1 7 7 19 12 27 12 11 0 10 -4 -4 -20 -21 -23 -67 -26
-143 -10 -41 9 -52 17 -73 50 -13 22 -28 40 -33 40 -4 0 -6 7 -3 15 4 8 2 17
-3 20 -19 11 -10 38 23 71 32 34 47 42 47 25z m930 -62 c14 -5 52 -16 84 -25
40 -10 69 -26 88 -46 15 -16 28 -27 28 -23 0 5 9 0 20 -10 15 -13 19 -27 16
-48 -6 -41 -12 -43 -25 -6 -15 42 -22 34 -12 -13 9 -37 6 -48 -12 -48 -5 0 -7
9 -4 20 3 11 2 18 -3 15 -4 -3 -11 12 -15 32 -4 22 -10 32 -14 25 -5 -8 -16
-3 -35 16 -15 16 -49 39 -76 52 -27 13 -47 27 -44 31 2 5 -9 15 -26 24 -32 17
-42 32 -12 20 9 -4 28 -11 42 -16z m-220 -7 c0 -9 13 -11 47 -6 41 5 45 3 33
-10 -9 -12 -9 -16 -1 -16 7 0 9 -5 5 -12 -4 -7 -3 -8 5 -4 6 4 9 12 6 17 -8
12 21 23 41 15 13 -5 14 -9 4 -21 -15 -18 1 -20 19 -2 10 10 11 8 5 -8 -7 -17
-6 -18 8 -7 16 12 52 6 43 -8 -2 -4 9 -7 25 -8 35 -1 73 -20 65 -33 -4 -5 1
-9 10 -9 8 0 19 -8 22 -17 4 -10 12 -22 20 -26 62 -38 -111 -167 -228 -170
-66 -1 -83 8 -203 107 -85 70 -96 83 -96 111 0 26 8 39 43 67 23 19 51 39 61
45 26 14 66 11 66 -5z"/>
<path d="M5181 4730 c-131 -67 -176 -210 -108 -341 38 -74 91 -116 157 -125
49 -7 130 10 130 27 0 7 -11 8 -32 2 -87 -22 -162 5 -188 67 -22 54 -2 79 143
174 143 94 179 104 216 65 39 -42 35 -126 -9 -182 -42 -53 -19 -50 65 9 36 25
65 50 65 55 0 6 -16 17 -35 25 -21 8 -35 21 -35 32 -1 30 -40 106 -73 140 -46
48 -102 74 -172 79 -53 4 -68 1 -124 -27z"/>
<path d="M5278 4180 c-29 -17 -41 -73 -24 -113 29 -69 65 -72 218 -16 106 39
112 40 125 23 7 -10 12 -22 10 -27 -3 -9 -243 -106 -264 -107 -7 0 -16 8 -22
17 -5 10 -12 15 -15 12 -8 -8 76 -229 87 -229 5 0 7 9 5 20 -3 18 15 28 132
75 l135 53 17 -21 c10 -12 18 -18 18 -14 0 15 -112 302 -122 312 -6 7 -8 -2
-6 -24 l3 -33 -105 -39 c-102 -38 -142 -45 -174 -33 -28 11 -17 23 17 18 66
-11 101 63 52 111 -25 26 -58 31 -87 15z"/>
<path d="M5536 3720 c-70 -22 -110 -88 -110 -185 0 -56 6 -80 27 -122 27 -52
91 -108 110 -96 5 3 -4 14 -20 24 -67 43 -101 131 -65 167 19 19 91 46 99 38
2 -1 12 -49 22 -105 10 -56 21 -104 24 -108 9 -8 48 4 85 27 38 24 71 89 72
141 0 49 -26 131 -52 164 -41 52 -122 76 -192 55z"/>
<path d="M5508 3233 c-34 -39 -41 -69 -41 -158 1 -138 26 -185 100 -185 38 0
46 4 63 33 11 17 20 46 21 62 1 29 1 28 12 -9 23 -76 97 -96 135 -38 21 32 23
184 4 219 -8 14 -9 24 -2 28 5 3 10 13 10 21 0 11 -14 14 -60 14 -33 0 -60 -3
-60 -7 1 -5 20 -17 43 -28 50 -24 74 -64 57 -95 -10 -18 -19 -21 -68 -18 -56
3 -57 3 -60 36 -4 40 -22 43 -22 2 0 -43 -49 -62 -117 -44 -26 7 -47 54 -38
85 8 23 8 23 22 -4 11 -22 21 -27 52 -27 42 0 56 11 66 53 11 43 -17 77 -64
77 -24 0 -44 -7 -53 -17z"/>
<path d="M428 3074 c-5 -19 -15 -22 -124 -28 -66 -4 -145 -9 -177 -13 -53 -5
-57 -4 -57 16 0 11 -5 21 -10 21 -6 0 -8 -20 -5 -52 3 -29 9 -110 15 -180 5
-79 15 -138 24 -157 49 -94 175 -50 177 62 0 31 0 31 17 -13 23 -59 69 -85
116 -66 52 21 58 44 51 206 -8 163 -17 238 -27 204z"/>
<path d="M5482 2805 c-6 -22 -25 -102 -42 -178 -26 -114 -29 -144 -20 -176 12
-44 25 -58 67 -70 40 -12 88 10 107 47 8 16 23 59 32 96 16 64 18 67 42 61 13
-3 37 -9 53 -12 23 -4 29 -11 29 -31 0 -14 3 -23 6 -19 8 8 54 204 54 230 -1
22 -1 22 -12 2 -6 -11 -12 -22 -14 -23 -1 -2 -66 11 -143 29 -133 31 -140 34
-143 58 -3 23 -5 22 -16 -14z"/>
<path d="M183 2601 c-43 -27 -63 -69 -63 -132 0 -100 64 -179 144 -179 131 0
184 172 87 281 -32 36 -43 42 -86 46 -38 3 -58 -1 -82 -16z"/>
<path d="M5389 2395 c-4 -5 -16 -53 -28 -106 -11 -53 -23 -103 -27 -112 -3
-10 -2 -17 4 -17 5 0 12 7 16 15 7 20 24 19 146 -10 58 -14 116 -27 129 -30
17 -4 22 -11 18 -25 -6 -25 10 -27 17 -2 19 65 47 204 43 215 -4 7 -8 3 -13
-11 -5 -17 -12 -22 -26 -19 -10 3 -74 18 -143 33 -117 26 -124 29 -127 53 -2
14 -6 22 -9 16z"/>
<path d="M421 2304 c-1 -23 -11 -28 -134 -70 -76 -25 -89 -27 -97 -14 -17 27
-11 -5 20 -95 32 -95 44 -117 38 -71 -3 28 0 30 70 54 51 17 84 22 108 18 36
-7 47 -26 15 -26 -47 0 -69 -71 -33 -103 37 -33 102 -11 116 39 10 33 -32 86
-79 100 l-40 12 30 7 c55 13 58 14 47 28 -6 7 -22 41 -36 77 -13 36 -25 56
-25 44z"/>
<path d="M459 1965 c-46 -25 -54 -64 -34 -161 19 -92 13 -121 -21 -93 -42 35
-57 129 -29 183 9 16 13 31 11 33 -6 6 -86 -39 -86 -48 0 -4 6 -9 14 -12 8 -3
19 -29 25 -58 26 -119 111 -193 181 -156 47 24 55 58 34 159 -15 76 -16 91 -4
98 19 11 24 7 44 -34 18 -39 21 -98 6 -127 -12 -22 -1 -25 33 -8 31 16 31 16
13 34 -9 9 -16 25 -16 36 0 38 -51 130 -84 150 -37 22 -52 23 -87 4z"/>
<path d="M578 1660 c-76 -41 -95 -110 -55 -193 29 -59 83 -98 133 -96 27 0 27
1 -8 12 -103 32 -103 90 0 156 86 55 127 50 147 -19 l7 -25 -24 23 c-29 27
-59 28 -81 4 -23 -25 -21 -58 3 -82 27 -27 56 -25 87 6 21 21 25 32 20 65 -6
45 -47 110 -87 139 -42 30 -98 34 -142 10z"/>
<path d="M931 1534 c11 -14 10 -19 -7 -33 -11 -9 -72 -60 -137 -115 -98 -82
-120 -96 -132 -86 -30 25 -14 -4 37 -66 53 -66 64 -74 70 -50 5 22 135 126
157 126 40 0 21 -35 -51 -95 -39 -33 -78 -62 -86 -66 -11 -4 0 -23 43 -73 31
-37 60 -65 63 -62 2 3 0 12 -7 19 -9 12 3 26 60 73 72 60 89 85 89 131 0 32
-53 83 -89 83 -24 1 -22 5 36 58 l62 57 -53 58 c-29 31 -57 57 -61 57 -4 0 -1
-7 6 -16z"/>
<path d="M1090 1165 c11 -13 2 -27 -59 -89 -58 -60 -71 -80 -71 -106 0 -44 56
-100 99 -100 36 0 83 19 75 31 -3 5 -16 2 -29 -7 -25 -16 -45 -12 -45 9 1 7
32 46 69 87 69 75 69 75 90 56 12 -11 23 -17 26 -14 3 3 -4 13 -15 23 -20 18
-19 18 15 57 37 40 39 66 5 48 -27 -14 -101 -12 -130 5 -33 19 -46 19 -30 0z"/>
<path d="M1440 1011 c0 -6 5 -11 10 -11 21 0 7 -29 -79 -165 -73 -115 -93
-140 -111 -138 -33 4 -18 -9 74 -65 87 -53 102 -60 90 -41 -7 12 41 65 131
142 l59 52 -24 -40 c-75 -124 -116 -182 -127 -178 -7 3 -13 1 -13 -4 0 -4 42
-33 92 -63 94 -56 127 -73 94 -46 -10 8 -16 19 -15 23 2 5 44 72 93 151 80
128 91 141 113 136 39 -10 26 2 -54 52 -43 26 -89 55 -102 63 -22 14 -23 14
-17 -5 6 -20 -21 -50 -138 -154 l-39 -35 23 40 c63 106 112 175 121 170 5 -4
9 -2 9 2 0 7 -156 111 -182 121 -4 2 -8 -1 -8 -7z"/>
<path d="M1955 710 c-11 -18 -44 -120 -38 -120 3 0 14 11 25 25 33 42 108 71
121 48 3 -5 -22 -80 -53 -168 -56 -153 -59 -160 -84 -158 -52 4 -23 -13 91
-52 64 -22 120 -41 125 -43 4 -2 8 1 8 7 0 6 -6 11 -14 11 -8 0 -17 4 -20 9
-5 7 53 179 106 320 l9 24 24 -23 c29 -27 45 -76 38 -114 -10 -52 13 -25 34
40 16 47 18 66 10 69 -7 3 -77 27 -157 55 -80 28 -162 58 -182 65 -23 9 -39
11 -43 5z"/>
<path d="M2354 436 c-72 -33 -101 -118 -63 -186 49 -87 213 -117 274 -50 23
25 19 25 -30 0 -78 -40 -130 -19 -129 49 1 23 3 43 5 46 2 2 43 -5 92 -14 l87
-18 0 41 c0 51 -29 100 -71 121 -44 23 -127 29 -165 11z"/>
<path d="M3556 431 c-3 -4 -37 -8 -75 -9 -84 0 -139 -23 -160 -67 l-15 -30 -6
25 c-3 14 -18 31 -32 38 -35 16 -96 -7 -121 -46 l-16 -27 -1 39 0 39 -37 -7
c-21 -3 -57 -6 -80 -6 -24 0 -43 -4 -43 -10 0 -5 6 -10 14 -10 15 0 26 -68 26
-167 0 -49 -4 -64 -17 -72 -14 -8 -5 -10 37 -10 64 1 178 16 138 18 l-28 1 0
80 c0 53 5 91 15 110 20 38 36 39 29 2 -8 -38 22 -65 68 -60 23 2 36 10 43 26
11 24 25 30 25 9 0 -38 85 -76 172 -77 72 0 92 -28 38 -50 -47 -20 -115 -7
-160 29 -21 17 -41 31 -43 31 -2 0 1 -23 7 -50 6 -29 15 -50 23 -50 7 0 13 5
13 11 0 6 15 8 44 4 65 -10 149 11 186 45 27 25 31 35 28 71 -4 59 -33 78
-137 88 -92 10 -118 24 -87 47 28 20 95 17 141 -6 21 -11 40 -19 41 -17 1 1
-1 17 -3 35 -5 31 -16 41 -27 23z"/>
<path d="M2665 375 c-29 -28 -30 -34 -12 -59 8 -11 27 -18 51 -19 47 -1 68 22
59 65 -5 26 -3 29 13 26 15 -2 20 -13 22 -54 l3 -52 -75 -4 c-59 -3 -80 -8
-95 -23 -31 -32 -35 -67 -11 -98 28 -35 75 -43 128 -22 40 16 42 16 68 -4 30
-23 69 -27 111 -9 23 9 25 12 9 16 -17 4 -18 11 -11 98 6 78 4 99 -9 119 -20
30 -72 45 -159 45 -59 0 -71 -3 -92 -25z"/>
</g>
</svg>
