<?xml version="1.0" encoding="iso-8859-1"?>
<!-- Generator: Adobe Illustrator 22.1.0, SVG Export Plug-In . SVG Version: 6.00 Build 0)  -->
<svg version="1.1" id="Layer_1" xmlns="http://www.w3.org/2000/svg" xmlns:xlink="http://www.w3.org/1999/xlink" x="0px" y="0px"
	 width="1000px" height="1200px" viewBox="0 0 1000 1200" enable-background="new 0 0 1000 1200" xml:space="preserve">
<g>
	<g>
		<path fill="#ECE4DA" d="M163.62,592.363c0-0.124,0-0.249,0-0.373c1.086-48.829,21.371-82.371,43.081-103.99
			c31.921-31.786,37.547-46.145,111.704-64.309c279.885-68.554,285.097-122.766,377.014-122.766
			c58.201,0,109.839,41.73,109.839,118.021c0,217.854-487.77,343.622-511.672,343.622
			C181.938,762.568,163.62,620.307,163.62,592.363z"/>
		<path fill="#ECE4DA" d="M671.508,906.236c-2.893,0.05-5.573,0.085-8.092,0.085c-53.308,0-57.52-34.116-57.52-38.978
			c0-5.919,1.864-11.237,5.368-15.993c33.776-45.855,104.692-19.692,166.868-53.413c88.917-48.224,75.526-84.434,108.549-84.434
			c1.787,0,2.074,0.129,3.35,0.129c0.515,0,1.032-0.017,1.546-0.017c7.052,0,32.872,5.163,32.872,47.745
			C924.45,911.89,684.361,905.434,671.508,906.236z"/>
		<path fill="#ECE4DA" d="M136.105,412.882c18.567,1.329,20.555,1.514,23.47,1.514c1.27,0,5.01-0.11,9.211-0.11
			c0.525,0,38.036-0.612,38.036,12.354c0,10.527-20.64,20.768-49.765,33.606c-73.767,32.517-51.21,61.004-83.994,61.004
			c-11.035,0-16.929-5.205-16.929-16.748c0-2.35-1.26-37.465,30.355-67.588C112.907,411.744,114.744,413.879,136.105,412.882z"/>
	</g>
	<g>
		<path fill="#603813" d="M584.919,302.203c29.855-16.046,59.792-39.007,114.549-39.007C854.54,263.197,945,426.198,945,560.131
			c0,120.69-41.028,302.004-254.811,302.004c-50.654,0-153.242-23.433-243.745-23.433c-92.974,0-114.936,32.963-133.498,32.963
			c-103.344,0-187.38-116.041-211.247-247.213c-0.859-4.722-48.145-28.811-48.145-87.026c0-24.083,13.938-52.084,42.01-70.269
			c20.997-13.601,515.84-208.633,515.902-208.633c1.766,0,2.808,1.145,2.808,3.161c0,11.201-16.779,27.771-29.586,40.136
			C584.765,301.949,584.842,302.076,584.919,302.203z M254.736,631.345C410.92,604.722,410.845,434.507,495.92,434.507
			c30.617,0,74.948,40.118,74.948,74.669c0,10.026-2.4,17.514-3.622,21.675c2.645,2.004,3.768,3.972,3.768,6.705
			c0,12.059-10.726,22.385-19.792,22.385c-2.346,0-3.501-0.79-3.501-2.431c0-5.472,8.992-12.72,8.992-34.113
			c0-43.92-24.219-81.718-55.232-81.718c-30.657,0-55.283,36.656-55.283,83.515c0,14.915,2.833,21.432,2.833,22.717
			c0,1.416-1.273,1.572-2.582,1.572c-3.795,0-5.673-0.074-5.673-2.366c0-2.309,2.23-7.16,2.23-8.239c0-1.007-0.474-1.889-1.42-2.748
			c-1.221-1.109-2.111-2.632-3.838-3.063c-1.128,1.435-1.649,2.175-1.649,5.612c0,3.069,0.646,6.052,1.595,8.949
			c1.471,4.491,2.086,6.308,6.267,6.308c3.666,0,6.221-0.989,8.339-0.989c3.339,0,4.473,18.057,12.573,18.057
			c0.062,0,33.827-0.859,49.967-2.066c6.412-0.479,12.369-6.155,12.369-9.123c0-2.688-1.931-4.473-11.379-16.513
			c-2.345,1.403-4.961,2.131-7.645,2.131c-3.641,0-10.956-0.567-13.903-0.776c-9.765-0.694-10.824-7.543-14.523-7.543
			c-0.376,0-0.486,0.043-0.813,0.043c-1.322,0-1.677-0.739-1.677-1.27c0-0.587,0.431-1.328,0.858-1.796
			c13.722-15.015,14.911-15.126,17.104-15.126c0.063,0,0.126,0.001,0.19,0.003c0.225-1.347,0.425-2.542,0.7-4.185
			c-1.87,1.329-3.651,2.068-5.392,2.068c-3.123,0-7.262-3.251-7.262-6.283c0-0.598,0.125-1.248,0.403-1.963
			c-0.774-0.205-1.405-0.372-2.16-0.573c-4.643,10.555-8.406,26.486-18.039,26.486c-6.888,0-11.553-9.617-11.553-17.296
			c0-12.157,10.521-15.624,15.271-15.624c3.208,0,6.027,0.967,12.769,2.844c1.566-2.375,3.03-4.596,4.792-7.267
			c-1.001,0-1.83-0.068-2.576-0.068c-3.748,0-11.67,3.148-18.624,3.148c-3.175,0-4.419,0.027-4.419-1.523
			c0-1.069,0.766-1.374,1.707-1.433c7.836-0.491,17.15-4.472,22.15-4.472c1.897,0,2.333,0.341,3.185,0.341
			c0.383,0,0.79-0.044,1.224-0.044c0.043-0.401,0.065-0.791,0.065-1.17c0-4.712-3.897-8.588-9.872-8.588
			c-15.528,0-20.211,13.286-21.948,13.286c-0.18,0-1.39-0.206-1.39-1.339c0-3.197,7.4-20.069,24.152-20.069
			c7.096,0,11.171,5.129,11.171,6.202c0,1.332-0.967,1.356-1.362,1.356c-1.871,0-2.799-4.619-10.202-4.619
			c-5.665,0-9.856,2.495-12.631,5.026c2.269-0.37,5.345-2.78,11.483-2.78c12.646,0,13.546,10.133,13.546,11.727
			c0,4.763-1.718,3.209-2.517,4.519c-5.052,8.282-4.228,7.059-4.923,8.604c0.846,0.216,1.596,0.548,2.317,0.548
			c2.686,0,8.315-9.787,13.338-9.787c2.205,0,14.806,2.866,16.526,2.866c1.302,0,2.575-0.319,3.948-1.101
			c-5.583-1.163-8.641-1.43-8.641-3.522c0-1.363,3.399-11.629,16.814-11.629c5.721,0,9.738,2.201,13.156,3.962
			c-0.649-2.579-9.321-8.283-18.417-8.283c-7.208,0-10.287,3.025-11.417,3.025c-0.816,0-1.124-0.952-1.124-1.306
			c0-1.612,5.818-4.587,13.013-4.587c15.323,0,25.986,13.254,25.986,19.826c0,0.667-0.212,1.32-0.852,1.928
			c-0.117,0.112-0.149,0.35-0.149,0.57c0,0.191,0.024,0.312,0.024,0.631c0,1.848-1.041,2.167-2.885,2.167
			c-0.062,0-10.886-0.388-19.787-0.388c-0.909,0-1.82,0.235-2.73,0.359c2.415,1.76,27.457,8.242,27.457,20.901
			c0,4.434-3.566,8.876-8.914,8.876c-14.724,0-20.925-13.739-25.446-19.201c-0.316,1.131-0.806,7.296-7.494,7.296
			c-3.551,0-4.927-2.108-6.993-3.814c-0.363-0.299-0.835-0.465-1.518-0.832c-0.405,2.092-0.747,3.863-1.109,5.735
			c1.119,0,2.137,0.01,3.118,0.01c1.36,0,1.656-0.019,2.083-0.019c12.061,0,14.788,13.542,17.825,15.065
			c0.557,0.279,0.985,0.733,0.985,1.329c0,0.19-0.144,1.451-1.456,1.451c-1.248,0-7.677-2.464-7.855-2.477
			c-10.874-0.813-20.193-1.406-20.447-1.406c-1.442,0-1.594,0.248-7.535,3.34c3.255,3.424,6.135,5.78,20.367,5.78
			c9.359,0,9.077-2.825,10.873-2.825c0.605,0,1.117,0.449,1.7,1.273c8.816,12.462,12.215,14.446,12.215,18.706
			c0,3.184-2.294,5.275-4.435,7.586c18.766-1.862,16.997-6.012,19.76-6.012c1.019,0,1.187,0.965,1.187,1.775
			c0,2.365-7.52,25.076-7.52,47.631c0,24.469,8.658,32.324,15.536,34.837c2.4,0.876,1.447,1.463,3.999,1.518
			c110.267,2.389,84.572,115.315,107.213,170.453c3.954-5.046,35.112-46.841,61.651-81.81c10.021-13.203,5.376-23.102,16.888-37.795
			c9.514-12.142,14.382-22.423,19.418-22.944c6.412-0.665,18.406-1.577,18.637-1.577c1.54,0,1.889,1.206,1.889,1.819
			c0,1.028-0.802,2.015-1.891,3.619c3.071-0.678,22.611-21.603,25.768-21.603c1.586,0,3.581,1.695,3.581,3.224
			c0,2.712-11.636,16.467-17.603,25.176c3.478-0.67,27.006-19.023,32.303-19.023c3.692,0,4.625,3.968,4.625,4.602
			c0,1.584,0.008,2.074-14.224,13.978c0.275,0.071,0.382,0.119,0.432,0.119c0.258,0,8.724-6.185,11.428-6.185
			c2.855,0,4.159,2.757,4.159,4.058c0,4.216-13.204,16.858-24.965,29.373c3.025-0.066,19.528-10.807,24.001-10.807
			c1.715,0,2.788,1.081,2.788,2.68c0,13.484-47.806,32.696-62.899,52.603c-10.505,13.857-18.243,9.158-26.168,20.741
			c-8.714,12.737-46.801,81.181-46.821,81.243c0.637,0,1.177,0.009,1.681,0.009c155.88,0,241.594-129.963,241.594-299.455
			c0-113.132-76.313-293.519-242.679-293.519c-92.753,0-142.865,72.687-244.779,131.758c0.13,0.018,0.256,0.027,0.378,0.027
			c9.267,0,125.01-59.504,213.283-59.504c115.304,0,145.727,91.775,145.727,130.828c0,2.728-0.089,3.423-0.089,4.852
			c0,3.029,0.297,5.031,0.297,10.276c0,78.044-79.603,174.314-119.112,174.314c-0.97,0-1.281,0.073-2.249-0.634
			c-8.943-6.518-19.417-12.709-19.417-24.517c0-54.468,137.394-69.619,137.394-158.02c0-53.842-55.038-101.381-153.618-101.381
			c-65.069,0-137.767,22.092-181.377,38.281C105.875,549.715,103.312,563.039,100.457,586.612
			c-1.336,11.03,1.745,22.314,3.207,32.266c0.391,2.665,26.556,21.2,76.418,21.2c8.188,0,20.365-0.549,27.317-1.366
			c-0.146-2.711-0.402-5.179-0.402-7.628c0-0.757,0.002-3.151,1.914-3.151c2.398,0,5.083,4.226,8.897,9.824
			c1.707-0.236,3.334-0.461,5.097-0.706c-0.014-0.062-3.09-14.009-3.09-17.59c0-2.78,0.703-6.549,4.035-6.549
			c4.094,0,5.683,5.59,13.454,22.025c1.357-0.285,2.515-0.528,3.791-0.796c-1.482-9.091-2.09-11.895-2.09-15.616
			c0-6.543,1.475-8.81,3.552-8.81C246.743,609.716,250.011,619.357,254.736,631.345z M374.41,844.181
			c3.501-0.684,34.155-8.4,68.715-8.4c93.773,0,202.175,23.148,234.213,23.148c0.466,0,0.937-0.063,1.403-0.084
			c0-0.197,0.015-0.334,0.015-0.444c0-0.063-0.005-0.116-0.02-0.167c-6.922-23.391-7.693-28.94-15.191-36.964
			c-55.448,24.476-56.338,26.92-57.692,26.92c-0.961,0-1.637-0.674-1.637-1.742c0-6.528,26.941-68.822,26.941-131.315
			c0-6.355-0.331-12.708-1.148-19.066c-1.542-12.002-30.206-31.468-54.081-39.027c-9.283-2.939-18.973-7.257-20.303-7.257
			c-2.098,0-10.061,9.475-53.249,9.475c-26.521,0-62.73-6.897-62.73-10.005c0-0.043,0.062-1.493,1.571-1.493
			c0.583,0,19.491,1.787,28.2,1.787c25.333,0,35.1-7.538,41.281-15.694c6.49-8.565,25.988-38.728,31.058-62.982
			c-71.655,61.615-103.788,68.457-105.087,68.457c-0.063,0-0.122-0.009-0.174-0.032c-0.69-0.3-1.754-0.613-1.754-1.552
			c0-0.549,0.457-0.995,1.076-1.263c10.311-4.462,24.226-18.997,24.226-33.955c0-1.178-0.056-1.179-0.056-2.841
			c0-0.534,0.006-1.067,0.006-1.601c0-8.329-1.067-21.985-1.067-22.047c0-0.836,0.154-1.088,0.154-2.104
			c0-1.863-0.669-3.4-1.921-4.993c-2.773-3.528-3.551-7.324-5.79-13.266c-2.808,0.501-6.611,0.921-8.478,0.921
			c-8.916,0-9.618-16.242-9.618-17.732c0-8.2,3.615-8.731,4.528-8.731c2.031,0,3.102,1.461,5.766,3.54
			c0-0.668,0.019-1.222,0.019-1.733c0-1.174-0.277-3.324-0.277-8.018c0-44.111,24.019-85.124,58.225-85.124
			c1.955,0,2.735,0.111,3.445,0.111c0.317,0,0.635-0.011,0.953-0.011c-2.313-0.988-4.437-1.503-9.813-1.503
			c-86.003,0-62.247,150.058-240.314,196.867c9.511,29.397,10.409,27.72,11.729,28.544c31.448,19.65,13.057,113.905,54.579,132.377
			c2.024-10.21,3.749-16.859,5.578-50.09c4.764-86.563,12.314-81.92,45.209-90.142c48.519-12.127,55.6-17.446,58.498-17.446
			c1.187,0,1.485,1.176,1.485,1.382c0,0.569-0.526,1.122-1.592,1.665c-47.432,24.133-77.241,22.707-77.241,81.951
			C354.048,747.465,359.643,802.878,374.41,844.181z M100.039,618.184c0.15-0.109,0.299-0.219,0.449-0.328
			c0-0.192,0.013-0.386,0.013-0.578c0-1.731-3.034-18.685-3.034-31.823c0-30.287,83.045-64.792,184.098-104.782
			c259.39-102.649,323.244-109.471,376.351-109.471c126.812,0,147.638,71.04,151.152,78.412c0.101-0.249,0.138-0.477,0.138-0.695
			c0-10.767-23.585-107.751-140.917-107.751c-125.949,0-269.163,105.065-366.571,105.065c-27.269,0-46.702-9.414-46.702-12.401
			c0-1.933,2.548-1.959,3.22-2.013c100.019-8.154,343.855-110.467,353.25-170.647C207.141,438.533,56.412,445.138,56.412,537.475
			C56.412,588.965,97.488,616.19,100.039,618.184z M104.711,624.55c11.751,91.273,89.766,244.069,204.351,244.069
			c14.668,0,46.352-19.129,46.634-19.309c-24.616-46.609-32.838-50.892-33.399-51.125c-45.475-18.965-27.315-115.969-54.903-131.905
			c0.944,7.341,14.77,30.225,14.77,52.138c0,10.169-4.847,26.348-22.225,26.348c-4.234,0-7.193-1.791-10.035-3.235
			c26,49.224,30.181,81.78,30.181,86.515c0,5.002-0.635,7.671-2.24,17.072c2.578-2.838,23.531-55.391,25.952-55.391
			c0.04,0,1.379-0.034,1.379,1.175c0,0.36,0.036,0.955-2.814,6.97c-27.046,57.075-25.851,64.115-29.644,64.115
			c-1.016,0-1.484-1.23-1.484-1.742c0-2.778,5.904-20.61,5.904-31.898c0-7.39-0.526-12.93-13.193-49.76
			c-12.196-35.462-28.018-49.614-28.018-53.33c0-0.368,0.076-0.747,0.263-0.967c0.63-0.74,1.293-1.104,1.935-1.104
			c3.28,0,8.303,18.65,21.597,18.65c7.647,0,19.569-4.166,19.569-24.759c0-12.602-4.841-23.103-6.277-27.029
			c-11.699-31.986-7.98-24.518-14.815-29.897c-1.65-1.299-3.383-1.863-5.193-1.863c-3.09,0-3.833,1.232-18.734,4.8
			c-0.022,0.165-0.045,0.329-0.067,0.494c19.541,10.958,24.384,4.511,24.384,9.148c0,12.991-5.993,22.159-5.993,33.483
			c0,8.365,2.761,12.379,2.761,14.078c0,0.134,0.68,2.575-9.482,2.575c-10.88,0-12.974-1.17-22.456-19.623
			c-20.2-39.313-28.39-40.499-28.39-54.808c0-1.747,0.044-4.322,2.31-4.322c4.886,0,13.252,15.114,19.55,22.313
			c-6.419-15.353-4.108-8.842-8.829-24.734c-10.14,0.649-16.656,1.257-27.091,1.257C141.331,642.947,121.707,633.714,104.711,624.55
			z M810.175,499.186c-23.38,69.144-133.784,89.429-133.784,134.11c0,10.383,8.696,14.979,16.826,21.186
			c1.328,1.014,2.752,1.407,4.256,1.407C728.549,655.889,804.335,569.719,810.175,499.186z M667.012,820.943
			c0.191,0.335,0.278,0.553,0.421,0.726c11.703,14.215,10.848,37.543,16.612,37.543c0.113,0,0.977-0.015,2.413-0.015
			c3.78,0,7.391,0.108,7.69,0.108c2.347,0,41.282-70.653,41.282-71.043c0-0.098-0.083-0.258-0.146-0.504
			c-18.63,19.836-12.97,19.349-16.238,19.349c-0.66,0-1.11-0.94-1.11-1.501c0-0.062,20.626-51.911,23.001-51.911
			c2.444,0,0.686,3.7,11.737,13.294c5.961-1.476,13.42-6.6,15.41-10.577c-2.128,1.146-2.78,1.591-3.829,1.591
			c-1.043,0-1.76-0.634-2.134-1.882c-4.321-14.418-8.313-22.937-8.313-35.563c0-12.099,3.823-19.867,7.762-29.909
			c2.144-5.466,15.535-9.147,18.428-13.793c-1.149,0-2.206-0.033-3.226-0.033c-3.695,0-6.176,0.719-9.319,0.719
			c-0.481,0-0.593-0.015-0.908-0.015c-3.026,0-4.968,1.515-6.614,3.81c-16.824,23.468-17.035,23.088-19.406,29.251
			C727.252,745.095,758.895,697.945,667.012,820.943z M260.538,434.683c3.764,2.165,17.67,8.661,41.444,8.661
			c102.554,0,232.251-97.469,255.022-120.947C554.667,322.594,387.717,421.291,260.538,434.683z M371.56,845.097
			c-20.322-64.73-20.421-116.843-20.421-122.907c0-47.696,17.685-55.827,50.031-71.058c-0.297-0.135-0.554-0.183-0.79-0.183
			c-0.244,0-0.466,0.051-0.687,0.108c-65.502,16.93-63.236,4.126-69.668,103.242c-2.128,32.802-4.719,37.319-4.719,39.98
			c0,1.348,0.501,2.498,1.495,3.69c24.932,29.892,28.73,49.746,32.144,49.746C360.091,847.715,368.495,845.782,371.56,845.097z
			 M627.548,679.183c-0.088,0.286-0.143,0.388-0.143,0.443c0,2.471,6.743,6.731,6.743,36.978
			c0,59.752-22.559,107.836-25.965,127.307c18.918-10.445,48.743-22.53,54.447-25.741c0-0.285,0.013-0.454,0.013-0.575
			c0-0.071-0.005-0.126-0.019-0.177C646.738,761.521,648.563,703.874,627.548,679.183z M540.624,567.595
			c-23.5,4.869-42.516,5.761-78.67,6.17c0,0.725-0.032,1.526-0.032,2.352c0,5.382,0.964,1.59,0.964,24.29
			c0,3.795,1.33,15.508-15.053,31.561c0.188,0.03,0.365,0.043,0.533,0.043C452.003,632.012,518.868,593.908,540.624,567.595z
			 M255.495,677.153c0-1.196-0.065-2.413-0.193-3.655c-0.163,0.004-0.325,0.005-0.486,0.005c-10.228,0-24.386-7.874-24.587-9.986
			c-0.159-1.671-13.418-21.747-13.989-22.542c-1.674,0.085-3.361-0.149-4.907,0.656c0.725,14.004,18.963,41.427,18.963,43.284
			c0,1.054-0.517,1.153-1.08,1.153c-2.246,0-21.511-28.054-29.678-37.477c-0.362-0.417-0.905-0.677-1.609-1.185
			c-0.006,0.234-0.009,0.466-0.009,0.696c0,5.298,1.84,11.504,7.82,19.502c21.514,28.777,23.845,52.398,36.409,52.398
			c0.294,0,0.373-0.01,0.735-0.01c1.38,0,2.763,0.177,4.145,0.177c2.017,0,3.566-0.161,5.129-0.801
			c-1.725-4.266-2.404-8.603-2.404-13.026C249.752,691.242,255.495,688.829,255.495,677.153z M537.31,594.32
			c-0.152-0.017-0.303-0.035-0.455-0.052c-18.92,34.56-23.589,57.986-65.359,57.986c-2.959,0-5.922-0.083-8.881-0.083
			c1.879,1.622,22.963,4.251,40.35,4.251c35.892,0,49.39-7.892,49.54-7.957c-0.518-2.223-16.23-4.407-16.23-37.353
			C536.275,604.39,536.924,598.791,537.31,594.32z M771.492,693.063c-13.523,13.995-14.667,13.491-14.667,27.898
			c0,10.921,1.936,14.933,8.065,33.995c3.916-1.96,28.824-20.297,28.824-23.661C793.714,726.677,781.644,716.362,771.492,693.063z
			 M537.505,456.273c-0.101,0.094-0.202,0.188-0.303,0.282c3.109,4.172,22.34,25.497,22.34,66.984c0,5.529-0.335,8.818-0.335,9.886
			c0,0.471,0.017,0.97,0.017,1.545c1.286-1.216,2.297-2.407,3.535-3.269c3.857-2.684,5.211-17.263,5.211-22.458
			C567.971,483.25,547.682,465.6,537.505,456.273z M792.574,722.321c17.484-14.507,37.421-36.68,37.421-39.018
			c0-0.586-0.577-1.236-1.32-1.236c-1.839,0-34.73,21.022-41.992,32.356C788.623,717.023,790.508,719.551,792.574,722.321z
			 M478.952,507.005c-4.001-0.967-8.932-2.518-11.787-2.518c-6.007,0-12.148,4.871-12.148,13.005c0,6.011,3.682,14.144,8.533,14.144
			C470.257,531.636,473.981,519.617,478.952,507.005z M783.752,710.527c3.961-3.512,42.133-36.778,43.753-38.358
			c0.268-0.261,0.442-0.797,0.442-1.241c0-0.675-0.527-1.393-1.44-1.393c-1.856,0-30.633,15.87-47.474,33.47
			C780.638,705.564,782.188,708.035,783.752,710.527z M516.18,502.328c-0.19,0.872-0.303,1.464-0.303,1.992
			c0,2.072,9.835,23.145,24.893,23.145c4.157,0,6.104-3.613,6.104-6.019C546.874,515.82,538.375,508.204,516.18,502.328z
			 M831.831,704.587c-3.74,1.259-26.452,11.057-37.015,20.862c0.763,2.449,1.457,4.677,2.164,6.949
			c28.319-15.923,33.756-25.515,34.016-25.828C831.346,706.151,831.447,705.529,831.831,704.587z M773.964,691.52
			c1.117,2.539,2.117,4.811,3.12,7.09c8.452-6.617,9.237-6.772,11.623-10.179c9.173-13.101,19.89-26.094,19.958-28.017
			c-0.228,0-0.429-0.037-0.575-0.037C807.895,660.377,785.497,680.343,773.964,691.52z M546.18,497.463
			c-2.482-6.093-10.081-11.898-18.733-11.898c-11.23,0-13.467,7.825-13.75,8.556C524.554,495.737,535.268,496.075,546.18,497.463z
			 M244.47,657.772c-3.034-6.679-5.953-13.104-8.904-19.599c-3.061,0.486-5.92,0.939-8.985,1.426
			c2.015,7.129,3.751,14.042,6.967,20.713C237.264,659.447,240.845,658.615,244.47,657.772z M748.706,767.667
			c-2.528-2.944-5.057-5.888-7.641-8.898c-3.239,6.167-12.943,29.447-13.964,33.626C739.862,778.41,744.565,775.456,748.706,767.667
			z M244.528,636.566c0.982,6.66,2.424,13.001,4.18,19.178c1.62-0.065,3.164-0.32,4.618-0.32c3.132,0,4.691,1.436,7.904,2.973
			c-2.808-7.892-5.555-15.609-8.369-23.517C250.053,635.448,247.37,635.991,244.528,636.566z M566.164,650.673
			c22.56,8.213,30.353,8.547,59.122,31.503C614.577,657.563,572.702,651.431,566.164,650.673z M234.042,635.484
			c-0.048-0.42-0.017-0.67-0.107-0.863c-7.25-15.586-8.417-18.701-10.018-18.701c-0.428,0-0.792,0.316-0.925,0.932
			c-0.186,0.862-0.318,1.777-0.318,2.672c0,1.527,1.94,12.134,3.233,17.186C228.731,636.285,231.375,635.886,234.042,635.484z
			 M568.116,537.67c0-1.454-0.314-2.895-1.974-3.936c-1.592,2.715-2.315,5.457-2.849,8.254c-0.971,5.088-4.119,9.591-5.362,9.591
			c-0.49,0-1.537-0.347-1.537-1.419c0-0.753,0.483-1.797,0.483-3.148c0-0.841-0.212-1.685-0.876-2.551
			c-1.808,4.222-3.543,8.272-5.371,12.542c0.474,0,0.802,0.026,1.069,0.026C554.027,557.03,568.116,552.301,568.116,537.67z
			 M242.651,612.88c-0.43,1.661-0.632,3.86-0.632,6.273c0,4.847,0.816,10.556,2.235,14.494c2.438-0.5,4.899-1.004,7.357-1.508
			C250.605,626.609,245.197,614.904,242.651,612.88z M493.677,505.338c1.539,0,3.096,0.888,4.463,2.675
			c2.818-3.952,4.695-5.806,7.116-5.806c1.953,0,4.259,1.207,7.698,3.495c0-1.354,0-2.704,0-4.155
			c-9.484-2.565-14.369-2.586-14.516-2.586c-0.89,0-1.597,0.336-2.249,1.023c-1.609,1.696-9.825,9.205-9.825,10.612
			c0,1.354,2.461,3.212,4.918,3.212c0.078,0,0.157-0.002,0.234-0.006c-0.975-0.604-2.986-1.599-2.986-3.63
			C488.53,508.202,491.067,505.338,493.677,505.338z M502.88,522.438c-2.038,0-4.113,0.099-6.327,0.134
			c0.634,2.408,1.593,3.499,3.326,3.499c1.041,0,1.506-0.327,2.736-0.327c3.183,0,4.454,2.165,13.424,7.204
			c0.106-0.14,0.212-0.28,0.318-0.42C511.587,525.685,510.283,522.438,502.88,522.438z M781.263,680.462
			c-0.69,0.232-0.9,0.261-1.063,0.364c-14.861,9.325-15.899,8.105-19.049,18.193c0.165,0.086,0.33,0.173,0.495,0.259
			c2.461-2.846,0.348-0.481,6.189-6.201c1.596-1.563,2.467-3.942,5.015-4.425C775.53,686.042,778.211,683.433,781.263,680.462z
			 M482.69,533.924c3.133-1.021,3.115-0.259,12.197-7.645c-0.484-1.243-0.918-2.357-1.404-3.605
			C489.387,525.875,486.206,529.668,482.69,533.924z M223.628,639.983c-1.355,0.173-2.595,0.331-4.166,0.532
			c2.582,3.964,4.547,7.864,7.618,11.064C225.967,647.839,224.853,644.1,223.628,639.983z M507.897,531.65
			c0.074-0.16,0.148-0.32,0.222-0.479c-4.999-2.888-4.248-2.719-6.559-2.719c-0.565,0-1.131,0.014-1.696,0.014
			c-1.158,0-1.328-0.06-1.871-0.06c-1.406,0-2.075,0.484-2.921,2.091C499.347,530.881,503.622,531.266,507.897,531.65z
			 M505.42,505.097c-0.575,0-1.152,0.202-1.641,0.902c5.521,0.135,6.83,3.954,6.83,5.608c0,2.492-2.91,2.369-3.874,2.369
			c-0.568,0-1.169-0.012-1.86-0.012c0.984,1.01,2.208,1.507,3.403,1.507c0.99,0,3.993-0.64,3.993-3.892
			C512.27,508.504,508.582,505.097,505.42,505.097z M238.576,637.683c1.822,4.069,3.532,7.888,5.242,11.707
			c0.104-0.044,0.207-0.089,0.311-0.133c-0.872-3.999-1.745-7.998-2.642-12.11C240.429,637.342,239.635,637.488,238.576,637.683z
			 M210.429,632.118c-0.205,0.077-0.409,0.154-0.614,0.23c0.208,1.97,0.416,3.939,0.641,6.069c1.394-0.106,2.485-0.188,4.061-0.308
			C212.987,635.867,211.708,633.992,210.429,632.118z M493.764,508.271c-1.032,0-1.746,0.853-2.343,2.001
			c0.906,0.538,1.725,0.823,2.564,0.823c0.358,0,0.719-0.052,1.092-0.158c0.18-0.452,0.299-0.897,0.299-1.291
			C495.376,508.249,493.804,508.271,493.764,508.271z M507.534,510.825c-0.589-2.118-2.222-1.992-2.322-1.992
			c-1.098,0-1.844,0.702-2.223,1.992C504.547,510.825,505.968,510.825,507.534,510.825z M560.984,539.027
			c-1.183,1.31-1.717,2.298-1.717,3.38c0,0.598,0.163,1.224,0.47,1.95C560.21,542.336,560.597,540.681,560.984,539.027z
			 M445.675,546.444c-0.255-1.024-0.489-1.961-0.722-2.898c-0.123,0.007-0.246,0.015-0.37,0.022
			c-0.247,0.91-0.495,1.819-0.782,2.876C444.499,546.444,444.934,546.444,445.675,546.444z"/>
	</g>
</g>
</svg>
