<?xml version="1.0" encoding="iso-8859-1"?>
<!-- Generator: Adobe Illustrator 22.1.0, SVG Export Plug-In . SVG Version: 6.00 Build 0)  -->
<svg version="1.1" id="Layer_1" xmlns="http://www.w3.org/2000/svg" xmlns:xlink="http://www.w3.org/1999/xlink" x="0px" y="0px"
	 width="1000px" height="1200px" viewBox="0 0 1000 1200" enable-background="new 0 0 1000 1200" xml:space="preserve">
<g>
	<g>
		<path fill="#ECE4DA" d="M861.602,378.969c-5.018,174.709-267.312,483.034-382.419,483.034c-31.796,0-46.866-30.268-46.866-55.624
			c0-22.939,11.299-49.527,31.432-81.827c142.594-228.762,195.005-416.603,326.881-416.603
			C796.059,307.948,853.162,310.051,861.602,378.969z"/>
		<path fill="#ECE4DA" d="M250.176,919.006c-0.166,2.108-0.294,4.219-0.505,6.322c-1.189,11.836-14.217,24.089-31.556,24.089
			c-27.587,0-101.496-62.117-101.496-97.774c0-5.524,1.787-22.616,23.989-22.616c2.489,0,51.76,0.349,105.368,70.19
			c3.894,5.073,3.674,10.057,4.425,19.767C250.326,918.992,250.251,918.999,250.176,919.006z"/>
	</g>
	<g>
		<path fill="#603813" d="M624.118,300.427c22.149-32.137-0.294-2.352,34.33-47.495c26.14-34.086,161.106-72.923,161.613-72.923
			c5.126,0,7.794,3.305,7.794,7.102c0,31.809-98.957,69.689-123.085,103.941c-19.651,27.897-44.715,51.345-44.715,59.993
			c0,1.439,0.579,2.153,1.722,2.153c5.587,0,95.3-55.63,142.599-55.63c1.447,0,3.033,0.044,7.119,0.044
			c38.041,0,41.413-3.564,51.414-3.564c8.652,0,8.677,6.175,8.677,7.25c0,0.243-0.234,8.76-5.387,14.885
			c-37.396,44.457-91.088,18.323-135.567,60.898c0.755,0.082,1.27,0.195,1.764,0.195c12.528,0,36.727-4.202,40.218-4.202
			c4.757,0,7.42,1.431,16.66,6.979c22.065,13.25,29.22,16.817,29.22,22.981c0,7.488-16.049,16.49-26.474,16.49
			c-7.823,0-18.11-3.167-19.997-3.167c-53.894,0-81.671,71.449-120.764,141.305c0.409,0.766,1.104,1.522,1.104,2.289
			c0,0.674-0.55,1.392-0.877,2.075c-69.797,146.109-113.233,159.509-199.23,265.713c-56.808,70.156-43.529,65.078-50.455,66.452
			c-7.949,1.577-13.401,5.056-27.004,5.056c-47.457,0-72.764-37.11-80.866-67.838c-0.032,0.091-1.856,4.163-1.856,10.88
			c0,5.244,1.219,10.355,3.679,15.289c27.797,55.757,94.119,52.883,94.119,58.08c0,8.997-148.223,131.219-210.772,131.219
			c-14.975,0-48.248-11.524-48.248-50.108c0-0.535,0.07-23.791,7.516-50.461c12.179-43.623,336.296-265.33,336.296-438.968
			c0-0.337-0.022-0.688-0.022-1.066c-6.248-3.589-8.107-9.717-9.082-16.194c-0.011-0.07-7.914-67.758-7.914-75.684
			c0-8.393,1.578-14.81,1.578-28.045c0-20.85-6.785-38.852-6.785-60.207c0-8.146,2.076-15.756,6.309-22.873
			c44.229-74.351,46.392-87.844,58.576-87.844c13.567,0,13.375,31.462,13.375,34.181c0,25.988-10.482,53.36-10.482,70.012
			c0,15.024,4.014,21.458,13.187,64.943c5.804-15.432,24.833-82.373,52.134-147.804c22.823-54.699,146.234-119.159,156.961-119.159
			c4.17,0,11.498,2.24,11.498,9.548c0,12.432-63.295,64.838-93.503,101.567c-4.969,6.041-36.774,71.169-36.87,71.433
			C623.789,300.243,623.954,300.335,624.118,300.427z M478.283,506.837c-1.024,7.207-1.229,166.738-329.234,418.776
			c-3.834,2.946-14.855,43.119-14.855,72.585c0,26.739,22.382,45.428,44.903,45.428c50.548,0,173.626-89.346,206.909-127.301
			c-91.034-16.897-97.184-67.192-97.184-73.772c0-5.879,1.699-12.208,2.808-16.532c0.226-0.882,0.995-2.008,2.146-2.008
			c4.415,0,13.024,71.979,81.03,71.979c11.723,0,17.977-2.937,26.338-5.097c1.51-0.39,2.321-1.159,2.986-2.563
			c32.207-67.981,195.668-200.625,240.05-318.548c-3.516,2.296-47.68,78.895-65.532,78.895c-10.322,0-15.247-18.763-15.247-32.646
			c0-45.88,28.682-94.522,28.682-188.442c0-23.433-1.833-38.979-1.858-39.22c-12.862,18.881-31.503,18.577-37.748,18.577
			c-9.688,0-12.638-2.728-18.096-6.044C520.507,473.546,493.28,505.082,478.283,506.837z M710.419,446.759
			c0.481-0.377,0.793-0.552,1.013-0.805c22.886-26.278,59.19-33.126,59.825-33.126c1.134,0,11.407,3.393,20.38,3.393
			c11.589,0,23.574-9.171,23.574-13.174c0-6.055-35.951-26.64-42.854-26.64c-0.777,0-1.567,0.056-2.371,0.169
			c-40.648,5.672-39.355,2.703-43.167,6.066c-0.07,0.062-22.517,18.65-22.576,18.656c-0.38,0.037-0.838,0.123-1.228,0.123
			c-0.277,0-0.52-0.043-0.676-0.179c-0.259-0.224-0.421-0.781-0.421-1.263c0-0.788,0.964-1.958,2.099-3.016
			c40.757-37.98,44.434-44.091,106.915-55.068c51.135-8.984,57.374-36.045,57.374-40.353c0-2.734-1.55-4.205-4.664-4.205
			c-8.215,0-17.673,3.135-34.088,3.304c-61.866,0.635-35.902,0.794-93.406,19.891c-29.888,9.926-65.503,36.091-74.941,36.091
			c-2.06,0-2.895-1.005-3.094-1.449c-0.708-1.582-1.293-3.246-1.293-4.939c0-8.248,28.075-36.617,44.85-60.48
			c25.428-36.171,122.921-73.271,122.921-102.345c0-2.638-1.694-4.17-4.422-4.17c-0.995,0-1.676,0.174-1.962,0.258
			c-158.877,46.651-152.706,63.843-194.551,122.8c-0.086,0.121-0.839,1.411-2.025,1.411c-1.467,0-2.194-2.103-2.194-2.893
			c0-8.912,15.419-31.097,24.602-51.49c24.378-54.145,106.694-111.428,106.694-126.531c0-3.983-4.799-5.954-8.107-5.954
			c-4.744,0-13.133,4.296-14.461,4.971c-133.981,68.131-140.563,107.845-156.222,155.079c1.578,2.437,3.332,4.005,6.109,4.005
			c0.014,0,0.019,0,0.025,0c0.589,0,1.221,0.241,1.76,0.515C654.039,323.095,710.376,446.689,710.419,446.759z M707.507,449.181
			c-26.054-66.097-99.232-150.353-130.703-161.206c-0.077,0.378-0.125,0.503-0.125,0.575c0,1.618,18.734,37.992,18.734,139.585
			c0,91.256-28.735,145.123-28.735,187.697c0,14.949,5.169,29.568,12.024,29.568C603.098,645.399,700.945,464.203,707.507,449.181z
			 M462.691,385.1c0,7.003-1.775,24.424-1.775,29.183c0,8.092,4.29,42.705,4.297,42.775c2.982,27.116,3.174,46.456,12.818,46.456
			c22.279,0,53.124-79.765,53.124-105.186c0-23.56-14.185-57.163-14.185-78.968c0-17.596,10.463-44.515,10.463-69.179
			c0-2.486-0.351-31.455-10.109-31.455c-3.79,0-7.68,2.04-14.207,13.77c-47.527,85.406-47.399,78.29-47.399,93.242
			C455.719,346.626,462.691,368.505,462.691,385.1z M570.503,285.173c-2.74,6.198-35.439,101.338-35.439,109.022
			c0,4.253,6.06,9.495,18.84,9.495c24.11,0,35.796-16.287,35.796-24.187C589.7,358.502,579.08,289.093,570.503,285.173z"/>
	</g>
</g>
</svg>
