<?xml version="1.0" encoding="iso-8859-1"?>
<!-- Generator: Adobe Illustrator 22.1.0, SVG Export Plug-In . SVG Version: 6.00 Build 0)  -->
<svg version="1.1" id="Layer_1" xmlns="http://www.w3.org/2000/svg" xmlns:xlink="http://www.w3.org/1999/xlink" x="0px" y="0px"
	 width="1000px" height="1200px" viewBox="0 0 1000 1200" enable-background="new 0 0 1000 1200" xml:space="preserve">
<g>
	<g>
		<path fill="#ECE4DA" d="M394.258,329.52c71.126,0.586,60.304,73.146,87.287,73.146c13.429,0,56.704-28.605,99.986-28.605
			c23.615,0,41.747,17.151,41.747,43.424c0,31.249-31.511,62.814-51.455,79.5c-111.75,93.494-124.232,109.714-165.361,109.714
			c-66.357,0-92.269-118.089-92.269-169.153C314.194,331.632,380.227,330.804,394.258,329.52z"/>
		<path fill="#ECE4DA" d="M359.52,825.452c27.72,0.466,53.529,7.851,77.066,7.851c76.039,0,74.579-70.392,146.326-70.392
			c46.669,0,42.914,33.411,42.914,34.35c0,78.132-160.358,102.01-181.947,102.01c-23.929,0-29.995-8.519-66.873-8.519
			c-24.562,0-39.185,3.763-58.778,3.763c-44.341,0-46.606-22.712-46.606-26.358C271.622,839.921,323.818,827.85,359.52,825.452z"/>
		<path fill="#ECE4DA" d="M912.131,219.384c0,19.515-9.359,38.746-24.76,38.746c-1.52,0-3.088-0.19-4.703-0.575
			c-50.423-12.03-71.273-12.056-71.273-43.971c0-13.852,11.115-48.062,41.389-48.062
			C884.142,165.522,912.131,194.65,912.131,219.384z"/>
	</g>
	<g>
		<path fill="#603813" d="M416.083,537.523c1.025,0,2.071,0.093,3.143,0.299c9.78-39.104,29.439-72.019,47.695-90.44
			c-9.019-4.36-26.671-11.782-26.671-20.354c0-1.096,0.286-2.208,0.877-3.322c3.079-5.808,5.561-9.473,17.242-9.473
			c11.314,0,22.915,3.95,24.293,3.95c3.092,0,4.103-4.631,11.516-4.631c0.775,0,4.776-0.124,14.62,4.354
			c2.736,1.245,2.874,1.569,4.633,5.875c0.349,0.055,0.696,0.079,1.041,0.079c20.227,0,56.59-37.059,76.324-57.863
			c-59.58-14.552-71.603,2.699-120.05-89.563c-19.215-36.593-19.605-34.751-19.605-41.32c0-1.902,0.073-3.655,2.338-5.407
			c4.452-3.444,6.493-7.056,11.565-7.056c21.931,0,30.992,50.185,68.994,79.552c1.26-4.5,8.181-8.492,19.321-8.492
			c0.803,0,1.645,0.009,2.592,0.009c-1.173-2.282-42.778-62.348-46.5-75.785c-6.659-24.034-12.853-26.474-12.853-36.882
			c0-2.369,0.519-4.167,2.948-5.42c3.076-1.587,6.028-3.811,10.123-3.811c12.797,0,21.327,21.723,24.223,25.918
			c47.474,68.757,46.19,63.594,65.709,72.105c0.118-0.269,0.233-0.434,0.233-0.51c0-2.777-27.764-36.674-34.966-55.083
			c-7.245-18.519-17.074-29.901-17.074-36.569c0-0.192-0.237-7.087,8.543-7.087c19.303,0,12.855,15.326,77.673,73.684
			c0.063-0.037,67.37-51.662,154.547-51.662c46.28,0,59.401,19.13,64.194,19.134c26.217,0.022,72.951,40.077,72.951,41.168
			c0,0.406-0.229,0.924-0.504,1.196c-0.082,0.081-0.22,0.108-0.385,0.108c-1.779,0-48.74-39.385-68.755-39.385
			c-0.219,0-0.489,0.017-0.887,0.017C895.48,260.69,937,354.94,937,376.03c0,10.716-3.627,12.894-6.311,12.894
			c-2.12,0-4.791-1.478-7.147-3.443c-98.769-82.395-122.388-88.981-122.388-95.522c0-1.431,1.359-4.702,1.743-5.469
			c23.684-47.35,7.051-63.546,43.41-72.418c-0.06-0.956-19.514-16.551-56.133-16.551c-45.335,0-131.779,24.204-153.413,50.806
			c20.629,18.889,41.771,20.057,42.362,20.057c3.792,0,35.073-45.638,75.861-45.638c15.758,0,38.603,9.631,38.603,25.235
			c0,20.651-34.167,40.025-57.037,40.025c-7.746,0-15.174-2.356-18.814-3.637c-70.334-24.747-53.57-4.132-122.539-70.738
			c-16.318-15.759-22.045-38.077-39.19-38.077c-2.371,0-5.135,0.613-5.135,4.17c0,0.343,0.025,0.707,0.076,1.094
			c1.16-0.813,2.358-1.227,3.584-1.227c3.786,0,9.877,4.529,9.877,14.832c0,2.904-0.928,4.121-3.805,5.092
			c3.273,7.385,6.543,14.762,9.888,22.308c1.753-1.623,4.578-4.58,8.926-4.58c3.842,0,12.969,3.925,12.969,10.686
			c0,3.813-2.538,7.571-5.723,8.666c-1.701,0.584-3.537,0.773-5.527,1.188c0.064-0.099,0.083-0.134,0.083-0.136c0,0,0,0,0,0
			c-0.004,0-0.073,0.142-0.073,0.233c0,0.248,1.339,2.161,15.35,22.839c0.837-1.386,3.205-7.943,10.171-7.943
			c6.585,0,17.438,6.531,17.438,16.439c0,7.927-5.653,10.913-6.916,11.994c21.707,16.13,20.645,20.6,44.222,20.6
			c4.794,0,6.546-0.323,13.958-0.323c45.136,0,53.954,3.312,53.954,11.261c0,7.425-17.656,28.087-35.09,28.087
			c-31.225,0-37.451-39.14-106.884-71.209c-28.552-13.187-62.475-93.06-77.844-93.06c-1.355,0-2.744,0.427-4.413,1.259
			c3.811,4.561,5.38,9.457,5.38,14.562c0,6.841-2.374,10.388-2.374,13.079c0,1.555,4.219,14.124,4.276,14.273
			c3.674-3.744,7.333-3.871,9.431-3.871c8.455,0,14.215,6.373,14.215,13.897c0,5.611-3.07,11.426-8.973,11.426
			c-0.853,0-1.772-0.102-2.765-0.302c0.615,2.666,24.601,40.446,27.991,44.017c0-0.708-0.001-1.361-0.001-1.994
			c0-1.832-0.115-10.778,9.75-10.778c10.872,0,17.387,16.277,17.387,22.914c0,8.629-6.203,9.373-7.371,9.872
			c100.415,64.251,98.66,59.641,106.318,59.641c4.889,0,16.042-9.516,16.941-10.292c44.142-38.087,92.532-58.109,97.901-58.109
			c1.356,0,1.374,1.354,1.374,1.393c0,1.894-2.008-0.047-15.714,6.835c-75.568,37.94-75.772,51.566-94.906,61.486
			c-6.338,3.286-21.905,17.358-28.979,17.366c-1.987,0.002-3.652,2.95-7.56,5.127c-68.443,38.135-64.233,67.679-138.593,72.628
			c-9.125,34.634-26.708,64.487-50.063,91.495c6.418,5.29,9.328,7.916,9.328,10.705c0,3.979-10.767,10.373-25.123,10.373
			c-4.282,0-7.353-0.45-8.248-0.45c-2.696,0-3.366,1.603-7.553,1.603c-3.145,0-4.468-1.22-5.546-3.977
			c-4.386,2.687-24.618,17.526-37.175,27.144c-1.816,1.391-15.804,42.37-15.804,42.433c0,0.128,0.027,0.275,0.1,0.454
			c4.592-6.312,14.84-25.377,21.814-25.377c0.488,0,5.88-0.778,8.933,15.852c38.086-17.668,30.343-24.273,128.444-33.4
			c14.908-1.387,14.344-4.431,25.22-4.431c6.173,0,17.145,1.841,17.145,6.748c0,2.762-3.414,4.589-3.959,4.977
			c0.532,0.873,1.38,1.636,1.38,2.542c0,28.129-75.122,15.042-133.064,58.495c0.073,0.144,0.146,0.288,0.219,0.432
			c115.088-7.477,108.542-9.637,120.553-9.637c14.01,0,17.431,5.145,17.431,9.793c0,5.152-3.511,5.015-4.367,7.95
			c-4.304,14.761-17.272,9.981-38.657,17.167c-36.141,12.143-62.218,1.042-121.987,38.184c-0.314,0.195-0.561,0.496-0.67,1.069
			c16.208-7.159,14.278-7.553,39.296-10.365c75.801-8.518,58.576-12.469,84.02-12.469c6.571,0,7.882,2.627,7.882,4.596
			c0,0.845-0.256,1.762-0.797,2.707c-3.918,6.848-4.086,18.886-40.618,25.289c-20.808,3.647-100.837,43.892-105.79,43.892
			c-0.865,0-1.603-0.404-2.807-1.257c-7.56,21.962-32.539,25.058-103.142,115.673c-12.564,16.125-21.248,17.989-22.514,20.643
			c-19.936,41.793-149.717,82.877-168.055,82.877c-1.226,0-1.669-0.488-1.669-1.758c0-11.92,114.584-186.043,116.391-188.499
			c131.776-179.134,87.024-158.738,127.328-218.856C349.446,572.595,402.726,537.523,416.083,537.523z M132.348,935.536
			c42.801-22.011,110.369,11.675,151.905-41.765c66.404-85.435,101.029-99.839,101.029-112.546c0-1.695-10.583-7.949-32.236-16.307
			c-0.497,1.255-0.676,2.476-0.676,3.679c0,9.219,6.291,15.404,6.291,18.642c0,8.08-139.655,86.979-144.601,86.979
			c-6.146,0-7.013-8.476-7.013-13.615c0-26.349,49.429-107.881,114.308-107.881c14.324,0,26.652,6.384,29.957,7.798
			c5.549-8.33,12.321-12.369,31.441-20.732c24.89-10.887-4.482-0.932,63.193-35.277c10.795-5.479,63.091-10.654,83.07-17.427
			c21.282-7.214,31.903-2.502,36.286-14.138c-2.328,0.43-4.852,1-8.364,1c-9.477,0-19.787-5.82-19.787-12.57
			c0-0.505,0.042-0.765,0.042-0.913c0-0.261-0.064-0.579-0.126-1.257c-29.484,3.607-58.975,5.734-88.916,7.448
			c1.842,1.439,5.337,2.559,5.337,7.725c0,9.638-11.477,17.88-21.031,17.88c-5.892,0-13.011-4.378-13.011-10.305
			c0-3.13,1.509-5.243,4.003-10.238c-64.085,39.51-69.286,44.677-79.891,44.677c-1.681,0-3.477-0.004-3.477-2.341
			c0-5.024,5.766-6.475,29.639-14.487c8.287-2.781,59.238-34.493,59.301-34.545c52.674-43.237,123.32-33.435,134.485-56.969
			c-0.235-0.019-0.334-0.038-0.398-0.038c-0.243,0-4.674,1.524-10.336,1.524c-15.69,0-21.804-10.798-24.794-10.798
			c-0.063,0-56.14,4.473-82.061,12.259c3.82,1.311,6.937,1.898,6.937,8.593c0,0.745-0.938,19.124-19.846,19.124
			c-9.958,0-10.984-10.355-10.984-11.465c0-2.936,1.014-4.297,2.583-7.646c-38.378,19.949-11.361,3.764-60.368,39.968
			c-0.063,0.047-57.766,28.567-64.821,28.567c-0.737,0-1.484-0.154-2.247-0.551c-0.36,0.671-23.183,43.12-40.393,63.624
			C211.284,805.411,171.784,878.541,132.348,935.536z M934.254,376.2c-1.28-32.316-70.142-161.405-85.261-161.405
			c-21.684,0-26.211,17.01-29.264,30.989c-5.964,27.306-15.595,40.423-15.595,44.047c0,0.564-0.235,1.661,5.192,5.178
			c100.742,65.287,114.129,91.014,121.258,91.014C933.657,386.023,933.876,379.247,934.254,376.2z M349.539,768.618
			c0-1.665,0.194-3.372,0.62-5.128c-9.192-5.492-21.351-7.802-28.904-7.802c-63.985,0-111.275,81.542-111.275,104.954
			c0,11.061,3.418,10.597,4.238,10.597c6.083,0,141.73-78.677,141.73-84.053C355.949,784.987,349.539,778.418,349.539,768.618z
			 M518.325,342.201c1.203-3.683,1.655-11.271,16.516-11.271c14.304,0,20.326,6.082,20.326,11.429c0,1.189,0.607,8.024-19.213,8.024
			c-0.432,0-0.864-0.003-1.295-0.003c2.311,2.129,19.216,6.027,29.047,7.824c88.425,16.166,77.155,20.254,89.372,20.254
			c2.947,0,5.764-0.77,8.394-2.666c10.6-7.641,11.726-7.745,14.833-10.642c-22.242-6.165-38.991-17.527-45.293-21.959
			c-38.961-27.4-3.635-8.138-83.334-31.44c-44.341-12.964-61.263-86.188-82.389-86.188c-2.25,0-4.292,1.129-6.355,3.4
			c8.499,0.891,9.841,14.982,9.841,19.145c0,7.487-1.838,8.905-4.327,9.468c2.797,5.485,5.5,10.787,8.084,15.855
			c1.925-1.392,3.258-3.484,8.264-3.484c8.72,0,12.882,9.243,12.882,14.389c0,2.083-1.005,7.771-7.174,7.771
			c-0.901,0-0.375-0.043-3.251-0.244C498.181,318.941,511.574,335.813,518.325,342.201z M258.114,920.331
			c-0.11-0.128-0.22-0.256-0.33-0.384c-55.833,18.968-103.965-0.176-131.121,24.274c-2.259,2.033-27.837,40.196-30.673,53.484
			c0.448,0.117,0.883,0.166,1.308,0.166C97.361,997.87,215.598,972.683,258.114,920.331z M379.614,598.572
			c-5.568-1.327-7.776-11.219-7.776-13.116c0-2.034,0.201-5.699,12.094-11.507c49.607-24.225,33.315-0.329,58.596-30.173
			c-4.579-0.961-24.583-3.259-25.93-3.259c-7.742,0-18.353,6.277-23.425,9.647c-43.273,28.755-57.718,31.726-84.331,108.602
			c2.245-1.561,5.795-7.08,13.187-7.08c9.124,0,8.171,2.328,36.384,6.421C365.43,638.402,372.496,618.559,379.614,598.572z
			 M683.555,267.306c32.516,11.171,42.221,15.832,52.949,15.832c18.004,0,54.143-16.384,54.143-37.038
			c0-14.127-21.606-22.416-35.845-22.416C721.276,223.684,692.519,257.254,683.555,267.306z M543.065,451.495
			c-1.422-0.778-6.332-2.782-6.332-7.924c0-10.424,16.455-21.727,29.245-21.727c2.9,0,10.941,1.027,10.941,7.759
			c0,1.709-0.429,2.415-0.876,4.375c5.014-3.591,9.662-7.453,14.398-11.204c44.886-35.56,50.232-34.903,59.292-41.424
			c-23.071-6.347-32.098-9.647-34.199-9.647c-22.859,0-31.04,42.961-101.284,55.21c0,2.417,0.029,4.753,0.029,7.054
			c0,12.08-2.324,11.233-2.324,13.362c0,1.16,0.929,1.963,0.929,4.26c0,1.753-0.48,2.264-0.916,4.084
			C521.273,455.645,535.951,454.395,543.065,451.495z M501.666,713.481c-28.816,7.896-30.213,4.419-58.956,8.723
			c2.412,2.799,3.603,6.283,3.603,9.942c0,13.8-17.079,14.229-18.3,14.229c-0.397,0-12.738,0.376-12.738-10.493
			c0-3.593,1.238-5.435,2.506-8.317c-7.877,3.751-15.554,6.691-22.742,10.24c2.333,4.853,5.193,8.856,5.193,15.907
			c0,4.039-0.557,8.34-8.597,25.916c4.828-1.66-7.412,3.394,84.757-37.247c20.477-9.029,48.405-8.299,54.698-22.984
			c-6.605,2.276-10.205,3.447-14.917,3.447C511.224,722.843,501.817,720.857,501.666,713.481z M644.215,301.048
			c28.283,29.403,39.114,34.902,50.013,34.902c16.697,0,32.218-20.37,32.218-25.143c0-10.022-42.692-8.166-49.168-8.166
			c-2.711,0-5.423,0.013-8.135,0.013C649.127,302.654,650.129,302.041,644.215,301.048z M493.983,458.683
			c-19.955,65.627-69.493,106.677-69.493,109.503c0,1.279,1.308,1.774,2.928,1.774c14.471,0,66.496-56.096,78.071-110.687
			C501.5,459.068,497.79,458.878,493.983,458.683z M490.972,458.329c-5.282-1.832-6.439-2.339-7.324-2.339
			c-11.129,0-47.767,79.022-47.767,82.724c0,0.312,0.03,0.629,0.099,0.951c7.465,1.222,6.752,1.166,7.379,1.166
			C447.095,540.831,479.705,499.642,490.972,458.329z M432.692,539.244c7.21-21.488,32.447-71.433,47.188-85.15
			c-3.483-1.781-6.795-3.475-10.137-5.185c-26.296,24.869-42.7,68.386-47.592,89.192
			C425.851,538.503,429.31,538.878,432.692,539.244z M353.756,761.99c18.918,8.39,32.708,13.497,34.497,18.1
			c5.252-11.534,9.007-19.61,9.007-26.565c0-5.087-1.756-9.864-5.318-14.3C365.321,749.565,360.147,753.987,353.756,761.99z
			 M494.491,434.519c0-3.366-0.325-6.783-0.954-10.202c-0.532-0.193-22.757-7.214-35.38-7.214c-11.157,0-12.631,4.401-14.405,8.015
			c1.771-0.767,3.432-1.102,5.015-1.102c8.186,0,20.502,12.13,20.502,16.862c0,2.034-1.528,3.05-1.528,3.232
			c0,0.089,0.047,0.209,0.048,0.216c5.496,3.091,10.891,6.215,16.953,8.624c-0.425-2.579-0.495-2.84-0.495-3.594
			c0-5.007,4.896-6.43,9.898-8.913C494.377,438.493,494.491,436.515,494.491,434.519z M354.705,660.872
			c-0.031-0.157-0.062-0.314-0.093-0.471c-0.623-0.118-1.242-0.308-1.87-0.343c-12.147-0.686-22.553-5.509-30.374-5.509
			c-3.932,0-7.142,1.845-9.831,4.903c-5.073,5.771-13.296,21.63-13.296,24.706c0,0.203,0.005,0.423,0.005,0.662
			c0,0.19-0.003,0.392-0.014,0.608C318.86,679.019,336.555,669.432,354.705,660.872z M610.259,370.258
			c-2.521-0.84-13.972-3.361-14.729-3.361c-6.467,0-12.808,18.626-63.824,54.179c0.322,0.084,0.622,0.118,0.908,0.118
			C553.859,421.194,585.627,382.927,610.259,370.258z M599.844,321.976c0.122-0.196,0.243-0.392,0.365-0.587
			c-2.132-0.953,7.816,4.096-30.509-16.314c-9.346-4.977-7.89-8.466-17.337-8.466c-9.466,0-15.245,4.166-15.245,6.032
			C537.119,307.981,584.27,319.229,599.844,321.976z M547.537,449.279c20.197-4.211,26.561-17.612,26.561-19.697
			c0-0.271,0.299-4.675-9.024-4.675c-10.69,0-25.417,10.264-25.417,18.563C539.657,448.222,544.975,448.617,547.537,449.279z
			 M362.088,657.524c36.975-26.463,34.306-27.42,34.306-28.873c0-1.605-2.321-12.323-5.947-12.323
			C385.308,616.329,362.831,652.235,362.088,657.524z M423.341,564.092c-0.073-0.154-0.147-0.307-0.22-0.461
			c-22.756,4.395-48.406,15.918-48.406,22.031c0,0.508,0.094,1.036,0.293,1.583c2.617,7.182,2.865,6.544,4.249,8.315
			C383.914,592.731,423.277,564.153,423.341,564.092z M433.207,689.37c13.169-1.389,17.399-11.435,17.399-15.079
			c0-2.477-1.52-4.01-4.726-4.967c-1.889-0.564-11.873-1.348-11.937-1.348c-1.94,0-3.51,0.815-4.893,2.266
			c-2.291,2.404-6.671,7.114-6.671,11.522C422.379,686.016,427.496,689.278,433.207,689.37z M424.954,627.678
			c0,4.369,3.481,8.071,8.39,8.117c15.683-0.37,16.716-15.122,16.716-16.659c0-3.409-1.737-5.078-5.571-5.078
			C431.088,614.057,424.954,621.697,424.954,627.678z M570.511,299.898c3.316,0,5.937-2.092,5.971-7.936
			c-0.851-6.77-6.342-18.893-14.739-18.893c-6.469,0-6.556,5.905-6.556,6.797C555.187,287.7,562.271,299.898,570.511,299.898z
			 M443.528,732.331c-0.898-4.984-0.243-8.844-8.666-8.844c-0.65,0-16.694,2.103-16.694,12.054c0,3.115,0.868,7.886,10.218,7.886
			C430.958,743.427,443.237,742.493,443.528,732.331z M621.232,267.066c-1.433-11.507-12.942-13.331-14.494-13.331
			c-4.023,0-6.883,2.923-6.883,6.596c0,6.046,9.175,16.158,14.556,16.158C617.624,276.489,620.865,272.86,621.232,267.066z
			 M537.587,347.446c15.005-0.715,14.72-4.15,14.72-5.058c0-3.965-6.349-8.566-17.329-8.566c-12.894,0-13.296,6.711-13.296,7.622
			C521.682,346.752,531.042,347.255,537.587,347.446z M533.128,227.811c0-5.396-3.735-10.967-11.688-11.055
			c-4.817,0.107-7.553,3.108-7.553,4.429c0,0.29,7.701,15.239,13.38,15.239C529.837,236.424,533.128,233.068,533.128,227.811z
			 M508.597,427.189c-3.892,0-7.756-0.831-11.735-2.087c0.345,4.986,0.565,6.336,0.565,10.849c0,1.586-0.025,3.184-0.025,4.81
			c4.346,0.581,8.671,1.128,12.289,3.869c1.328-2.651,2.134-7.907,2.134-12.161c0-2.265-0.229-4.245-0.729-5.398
			C510.262,427.151,509.429,427.189,508.597,427.189z M582.557,232.789c0.905-0.287,6.823-1.018,6.823-6.526
			c0-5.766-7.853-8.079-9.863-8.079c-2.961,0-6.604,2.402-6.604,4.384c0,0.469,0.14,0.987,0.424,1.588
			C576.634,231.133,578.445,232.439,582.557,232.789z M480.792,272.889c-0.062,0-0.124,0-0.187,0.001
			c-1.346,0.182-5.006,0.081-5.006,2.592c0,1.761,4.164,13.814,10.901,13.814c0.634,0,4.272-0.233,4.272-5.304
			c0-0.531-0.042-1.179-0.27-1.761C488.82,277.949,487.33,272.889,480.792,272.889z M567.457,598.394
			c-1.771-3.136-10.131-4.112-13.741-4.112c-5.727,0-10.727,1.757-17.479,3.4c1.84,1.754,11.073,4.499,21.569,4.499
			C561.877,602.182,564.99,601.355,567.457,598.394z M465.004,254.384c0.522-2.313,0.864-2.55,0.864-6.209
			c0-2.711-0.884-16.351-7.587-16.351c-4.505,0-4.252,1.361-4.252,3.42C454.028,243.423,461.583,251.704,465.004,254.384z
			 M516.622,719.874c5.41,0,10.515-1.87,15.539-4.425c-0.106-2.129,0.131-3.37-14.972-3.37c-12.598,0-12.54,1.124-12.54,2.157
			C504.648,716.094,508.257,719.874,516.622,719.874z M496.944,443.74c-0.731,4.069-1.416,7.878-2.128,11.837
			c2.275,0.372,4.522,0.671,6.769,0.671c6.028,0,8.414-2.028,8.414-4.562C509.999,444.058,497.533,443.786,496.944,443.74z
			 M449.165,426.777c-1.278,0.19-4.229,0.214-4.229,2.09c0,3.045,14.607,12.941,20.013,12.941c0.898,0,1.336-0.333,1.336-0.952
			c0-0.729-0.97-2.653-1.721-3.454C455.379,427.601,452.353,427.802,449.165,426.777z M452.227,557.27
			c-4.746,3.801-9.356,7.494-13.958,11.18c1.291,0.261,2.8,0.384,4.428,0.384c7.283,0,16.948-2.451,20.162-5.889
			C458.793,562.097,455.276,560.209,452.227,557.27z M540.745,660.232c-0.516,0.531-0.723,1.051-0.723,1.542
			c0,2.262,6.169,9.279,16.839,9.279c4.279,0,6.8-0.893,7.521-1.084C560.075,666.94,558.339,665.828,540.745,660.232z
			 M554.976,657.885c-2.998,0-5.998,0.241-8.993,0.581c-0.01,0.17-0.02,0.34-0.03,0.51c14.115,4.842,8.348,2.446,22.057,9.162
			c1.275-0.991,1.913-2.363,1.913-3.732C569.923,658.761,560.634,657.885,554.976,657.885z M506.132,198.629
			c0.84-2.774,1.32-5.521,1.32-8.234c0-5.223-2.182-12.129-5.473-12.129c-0.388,0-2.512,0.052-2.512,2.517
			C499.468,187.306,503.095,192.75,506.132,198.629z M494.579,416.509c1.379,4.857,1.231,5.392,2.764,5.751
			c4.526,1.058,7.246,2.047,10.43,2.047c0.858,0,1.728-0.066,2.609-0.2c-0.236-2.108-1.389-3.274-3.015-3.878
			C495.875,415.965,496.569,416.683,494.579,416.509z M561.095,194.393c0.147-0.766,0.436-1.438,0.436-2.037
			c0-0.102-0.008-0.201-0.027-0.299c-0.916-4.773-1.807-11.387-6.918-11.387c-0.92,0-1.659,0.337-1.659,1.264
			c0,0.425,0.152,0.89,0.319,1.282C555.395,188.254,556.8,192.579,561.095,194.393z M343.309,712.926
			c0.254,0.05,0.547,0.075,0.875,0.075c5.173,0,18.963-5.994,21.357-9.199C342.463,711.975,345.254,711.503,343.309,712.926z
			 M493.931,444.17c-2.497,0.313-6.893,2.333-6.893,5.447c0,0.78,0.277,4.383,4.889,5.277
			C492.59,451.345,493.226,447.946,493.931,444.17z M559.841,605.23c-7.485,0-14.862-0.811-22.013-3.212
			c4.914,3.025,9.996,4.606,15.271,4.606c2.856,0,5.768-0.464,8.74-1.413C561.172,605.224,560.506,605.23,559.841,605.23z
			 M463.066,559.599c0.321,0,0.65-0.019,0.987-0.06c-1.473-2.703-4.103-3.956-6.147-6.033c-1.049,0.862-1.92,1.577-2.98,2.447
			C457.59,557.785,459.963,559.599,463.066,559.599z M491.385,416.727c-1.587,0.86-2.852,1.546-4.117,2.232
			c0.027,0.183,0.054,0.366,0.08,0.549c1.691,0.431,3.381,0.862,5.459,1.392C492.286,419.37,491.913,418.275,491.385,416.727z
			 M528.095,709.109c-0.014,0.122-0.027,0.245-0.041,0.368c4.625,0.95,2.835,0.194,6.882,2.895c0.168-0.698,0.27-1.214,0.27-1.603
			C535.206,709.334,533.79,709.469,528.095,709.109z"/>
	</g>
</g>
</svg>
