<?xml version="1.0" encoding="iso-8859-1"?>
<!-- Generator: Adobe Illustrator 22.1.0, SVG Export Plug-In . SVG Version: 6.00 Build 0)  -->
<svg version="1.1" id="Layer_1" xmlns="http://www.w3.org/2000/svg" xmlns:xlink="http://www.w3.org/1999/xlink" x="0px" y="0px"
	 width="1000px" height="1200px" viewBox="0 0 1000 1200" enable-background="new 0 0 1000 1200" xml:space="preserve">
<g>
	<g>
		<path fill="#ECE4DA" d="M921.534,860.892c0,38.314-13.903,122.383-31.489,122.383c-21.37,0-58.42-68.037-174.343-68.037
			c-65.257,0-96.51,26.996-109.303,26.996c-7.332,0-7.562-6.365-7.562-10.297c0-8.255,3.344-29.088,3.344-49.282
			c0-63.655-32.32-107.023-32.32-107.093c0-0.23,0.278-0.603,0.278-1.649c0-1.337-0.431-2.292-0.431-3.988
			c0-9.908,87.952-78.397,192.467-78.397C898.214,691.528,921.534,815.12,921.534,860.892z"/>
		<path fill="#ECE4DA" d="M373.447,289.779c-20.601,151.172,17.623,185.586-54.929,243.729
			c-103.613,83.033-88.014,80.48-94.705,80.48c-12.403,0-94.087-112.468-94.087-213.234c0-96.322,69.188-168.841,86.961-168.841
			c3.76,0,12.983,4.543,14.286,5.301c49.848,28.993,138.842,7.38,142.22,52.514C373.278,289.744,373.362,289.762,373.447,289.779z"
			/>
	</g>
	<g>
		<path fill="#603813" d="M324.826,642.066c0.211,0,0.467-0.043,0.899-0.07c83.617-175.877,78.131-164.552,78.131-165.771
			c0-7.283-28.662-27.925-28.662-91.419c0-76.902,24.438-117.294,26.648-121.8c-12.231,4.116-24.202,8.145-36.397,12.249
			c-3.515,170.138-116.923,148.323-116.923,240.183c0,23.7,6.542,29.999,6.542,32.901c0,1.348-1.064,1.784-1.769,1.784
			c-1.194,0-22.647-9.846-22.647-34.027c0-65.693,96.438-106.429,96.438-200.377c0-33.496-14.1-33.438-14.1-37.547
			c0-0.866,0.604-1.901,2.945-1.901c0.658,0,1.017,0.065,2.058,0.065c10.392,0,33.813-10.401,35.235-12.957
			c-0.47-0.047-0.849-0.12-1.224-0.12c-0.098,0-2.988,0.045-6.708,0.045c-78.105,0-126.585-20.297-126.585-40.896
			c0-22.117,74.033-71.973,161.781-71.973c73.316,0,195.509,44.481,195.509,127.542c0,0.391-0.004,0.539-0.004,0.681
			c0,10.164,12.425,18.512,14.854,99.832c0.63,0.074,1.199,0.202,1.766,0.202c0.04,0,0.108-0.001,0.256-0.001
			c54.546,0,80.768,98.231,88.093,116.758c18.042,45.637,14.551,30.482,17.208,63.087c0.285,3.49,10.993,30.528,10.993,37.461
			c0,10.892-13.738,19.71-24.254,70.796c-5.432,26.386-0.215,13.049-13.636,32.038c0.307,0.198,0.501,0.43,0.706,0.439
			c63.415,2.794,64.687,1.767,64.687,8.311c0,17.659-5.993,32.034-5.993,79.85c0,34.67,1.047,34.284,2.854,36.729
			c35.722,48.319,77.087,45.297,98.373,107.342c10.832,31.573,21.506,144.877,21.506,144.947c0,2.197-1.534,2.13-1.574,2.13
			c-19.45,0-20.809-172.515-74.264-172.515c-139.233,0-321.352,200.485-321.422,200.485c-2.038,0-2.612-2.597-2.612-6.264
			c0-37.587,33.85-123.425,33.85-144.283c0-4.34-0.673-5.062-1.526-5.062c-0.833,0-2.203,0.85-3.282,1.684
			c-97.07,75.001-94.787,109.501-103.006,109.501c-3.598,0-3.065-8.365-3.065-9.901c0-19.642,11.157-97.703,31.894-131.964
			c-26.267,9.233-33.593,12.431-44.389,104.827c-4.409,37.738-24.432,78.744-26.338,78.744c-0.646,0-1.794-0.818-1.794-2.864
			c0-136.903,69.813-241.142,69.813-271.724c0-67.276-65.454-160.417-78.114-181.256c-6.035-9.934-77.718,0.832-77.718-33.174
			c0-22.676,142.669-143.315,142.739-143.315c1.707,0,1.681,0.997,1.681,1.382c0,7.495-141.006,116.102-141.006,142.107
			c0,10.453,8.96,16.981,19.149,19.25C274.362,634.667,324.268,642.066,324.826,642.066z M550.053,561.387
			c-0.275,0.182-26.801,18.471-28.936,21.043c-8.36,10.065-22.502,14.221-25.76,14.221c-3.045,0-5.54-1.458-5.54-16.081
			c0-4.067,0.402-8.131,1.227-12.201c1.843-9.101,35.971-35.152,41.592-42.06c-3.976,1.342-12.258,4.846-27.291,4.846
			c-58.727,0-81.663-27.826-98.641-51.841c-0.841,1.565-77.455,162.229-77.455,164.005c0,7.998,79.769,108.328,79.769,186.72
			c0,56.082-43.495,30.635-69.314,262.625c0.978-0.66,17.283-34.718,21.116-69.138c18.326-164.575,162.054-301.103,247.827-326.649
			c-6.755-9.666-11.783-20.074-16.064-31.097c-43.381,26.827-44.053,42.665-66.032,42.665c-12.687,0-18.677-11.997-18.677-19.42
			c0-30.163,78.173-72.181,80.653-82.498c-1.611,0.698-45.388,22.764-56.143,35.032c-12.004,13.692-35.177,22.139-41.729,22.139
			c-1.57,0-2.934-0.641-3.84-1.993c-1.457-2.176-2.909-4.437-3.836-6.863c-0.666-1.743-2.794-9.623-2.794-12.409
			c0-19.029,42.722-44.306,74.138-68.735C552.907,569.618,551.532,565.654,550.053,561.387z M466.942,885.745
			c58.928,50.275,67.339,76.075,74.898,76.075c3.441,0,101.006-121.563,186.613-131.522c0-1.064-0.015-2.091-0.015-3.104
			c0-1.423,0.029-1.847,0.029-2.144c0-8.347-11.973-4.758-60.518-121.592c-10.091,17.061-17.407,37.285-23.876,37.285
			c-5.64,0-17.702-18.185-17.702-41.841c0-34.939,19.776-39.407,25.083-75.93c-54.78,47.409-20.034,18.152-56.008,41.115
			c3.126,12.171,18.009,33.843,18.009,34.266c0,0.51-0.361,0.86-1.165,1.15C471.64,750.171,389.057,923.586,388.378,926.446
			c0.178,0.018,0.328,0.067,0.441,0.067c0.04,0,0.075-0.006,0.105-0.022c51.247-27.588,50.638-4.696,73.247-39.854
			c-7.66-4.855-10.624-6.425-10.624-8.236c0-7.602,90.853-112.859,104.031-112.859c0.427,0,1.742-0.062,1.742,2.064
			C557.322,770.764,507.189,824.287,466.942,885.745z M456.94,1098.939c0,1.028,0.048,2.093,0.161,3.206
			c182.502-195.372,317.408-199.438,321.007-199.438c46.788,0,50.918,111.135,69.788,159.722c0.187-0.493,0.248-0.949,0.248-1.389
			c0-0.26-0.021-0.514-0.051-0.767c-14.337-123.369-11.848-149.675-72.434-192.408c-34.929-24.636-39.66-36.684-43.605-39.578
			c-0.612,4.269-0.139,4.933-4.597,5.552c-83.598,11.613-181.989,131.463-185.47,131.463c-10.413,0-32.373-43.86-76.989-76.611
			c-16.782,23.937-11.649,20.423-46.986,28.021c-18.533,3.984-38.209,107.597-38.209,137.033c0,1.033,0.093,2.101,0.163,3.719
			c0.774-0.992,1.168-1.417,1.47-1.899C430.365,977.547,485.273,947.454,486,947.454c5.044,0,4.79,7.33,4.79,8.694
			C490.791,973.374,456.94,1067.754,456.94,1098.939z M585.228,476.57c-5.232,24.221-87.32,72.916-91.483,96.11
			c-0.415,2.311-0.611,4.996-0.611,7.682c0,3.989,0.432,7.98,1.223,10.752c1.35-9.365,13.661-22.012,23.448-22.012
			c2.974,0,5.714,1.38,6.671,5.56c0.033,0.143,0.22,0.251,0.497,0.549c0.07-0.048,78.046-54.901,78.108-55.049
			c20.063-47.85,31.88-55.075,35.151-55.075c2.12,0,2.754,2.088,2.754,3.691c0,18.206-36.968,57.203-37.007,57.274
			c-28.141,50.766-120.46,90.533-120.46,116.418c0,2,1.759,8.895,2.762,11.292c7.498-16.858,23.381-26.857,32.644-26.857
			c8.914,0,8.698,7.226,8.698,10.407c0,0.112,0,0.225,0,0.337c0,1.23,0.015,1.416,0.015,1.579c0,0.71-0.206,1.426-0.312,2.138
			c1.217-0.628,2.102-1.448,2.886-2.357c13.118-15.223,59.758-35.388,64.949-40.99c69.971-75.519,66.641-93.481,77.458-93.481
			c1.018,0,2.532,0.792,2.532,2.537c0,0.979-0.624,12.292-55.076,74.536c-16.2,18.518-22.447,17.742-26.099,23.271
			c-15.493,23.457-82.685,55.689-82.685,84.232c0,8.963,7.381,15.959,15.169,15.959c2.286,0,4.634-0.494,7.002-1.304
			c-0.19-0.02-0.38-0.027-0.57-0.027c-0.519,0-1.038,0.055-1.557,0.055c-3.16,0-4.138-0.069-5.152-0.311
			c-4.743-1.132-7.937-5.041-7.937-9.323c0-8.683,15.621-23.181,29.192-23.181c6.894,0,13.357,3.361,17.217,9.203
			c52.105-38.363,31.116-10.473,87.629-62.779c0.919-0.851,19.498-45.358,42.945-57.103c-4.502-35.865,8.135,1.301-40.589-125.16
			C639.74,447.761,597.843,474.643,585.228,476.57z M571.672,268.413c0-0.692,0.04-1.161,0.04-1.535
			c0-50.558-93.572-113.1-191.068-113.1c-86.695,0-158.636,49.298-158.636,68.569c0,14.37,36.984,37.624,123.666,37.624
			c13.226,0,14.017-0.093,15.575-1.159c67.473-46.146,64.049-68.921,111.182-68.921C532.046,189.891,568.021,261.97,571.672,268.413
			z M537.82,521.15c46.302-36.637,49.727-34.748,49.727-132.858c0-113.764-31.138-141.628-40.881-141.628
			c-9.865,0-39.9,12.973-39.9,109.694C506.766,390.217,509.595,479.314,537.82,521.15z M546.204,243.438
			c1.823,0,3.693,0.279,5.692,0.708c-0.821-1.754-31.154-50.887-80.114-50.887c-41.013,0-42.917,20.161-104.923,66.029
			c1.347,0,2.438,0.042,3.429,0.042c2.171,0,14.812-1.225,33.78-2.75c5.271-0.424,6.397-14.688,29.551-14.688
			c29.654,0,41.369,35.029,41.369,55.001c0,19.242-9.412,38.908-10.353,41.168c0.802-0.114,1.176-0.204,1.852-0.204
			c4.489,0,5.574,95.669,57.795,167.518c0.02-0.138,0.029-0.271,0.029-0.399c0-2.287-20.866-45.605-20.866-150.447
			C503.443,260.537,534.35,243.438,546.204,243.438z M533.602,522.19c-66.47-88.654-64.771-168.531-68.723-180.226
			c-10.71,11.592-11.183,14.36-18.771,18.778c-14.298,8.324-23.294,25.238-23.294,27.263c0,2.262,3.765,9.623,3.765,22.391
			c0,17.988-7.236,25.237-14.123,25.237c-13.864,0-21.478-23.453-22.758-26.776c0.892,35.009,19.889,57.922,19.889,63.126
			c0,1.965-1.096,3.073-1.096,3.451c0,0.08,0.008,0.168,0.008,0.259c0,0.024-0.001,0.049-0.002,0.074
			c28.365,45.243,66.832,52.054,96.552,52.054C519.603,527.821,528.152,524.53,533.602,522.19z M396.996,367.567
			c4.189-1.091,4.64-1.81,11.517-1.81c1.054,0,2.109,0.02,3.16,0.045c0.788,0.018,2.102,0.888,2.102,1.838
			c0,0.595-0.443,1.155-0.929,1.623c-7.824,7.523-10.091,18.943-10.091,19.223c0,2.62,4.738,6.05,8.136,6.05
			c8.428,0,11.381-24.361,34.429-37.3c14.994-8.418,26.311-41.938,26.311-60.689c0-20.862-12.195-51.245-38.156-51.245
			c-42.329,0-54.944,97.724-54.944,140.056c0,55.293,20.993,73.422,27.176,86.745c0.212-0.161,0.425-0.321,0.637-0.482
			c-2.405-6.661-20.545-30.899-20.545-69.954c0-18.49,5.058-45.254,20.917-70.271c3.071-4.844,7.191-2.352,14.265-6.402
			c-13.776-32.094-13.106-42.86-13.106-45.175c0-19.302,10.318-23.788,21.8-23.788c17.269,0,29.206,14.777,29.206,28.727
			c0,18.701-12.07,36.584-23.961,41.465c-1.191,0.489-3.436,3.483-8.108,8.273C413.25,348.402,397.956,340.344,396.996,367.567z
			 M319.128,279.945c9.391,8.316,11.382,24.979,11.382,35.21c0,94.711-96.498,138.78-96.498,201.247
			c0,17.925,13.274,26.462,15.522,27.705c-0.195-2.296-4.384-10.218-4.384-28.662c0-94.206,116.784-76.716,116.784-235.32
			c0-0.839-0.001-1.679-0.001-2.518c0-1.969-0.119-4.705,3.69-5.913c0.306-0.097,26.962-8.749,31.519-10.936
			c-0.561-0.132-1.094-0.175-1.614-0.175c-1.434,0-17.055,1.408-31.66,2.403C356.407,263.493,347.094,275.016,319.128,279.945z
			 M696.811,566.618c-26.48,45.429-38.945,46.403-40.68,52.797c-1.059,3.906-2.133,7.832-2.783,11.819
			c-4.169,25.536-23.63,36.519-23.63,67.543c0,15.601,5.804,31.605,13.448,38.112c0.287,0.244,0.854,0.158,1.583,0.265
			c-2.961-3.237-5.082-5.034-5.082-16.057c0-17.021,8.096-24.884,8.902-25.826c2.11-2.466,5.347-3.26,7.779-3.26
			c7.9,0,9.182,7.657,9.531,8.593c5.001-7.98,11.845-14.432,12.575-17.832c16.869-78.619,27.304-76.896,27.304-87.007
			C705.757,590.838,697.105,567.225,696.811,566.618z M677.77,702.682c-2.1,0-4.252,0.048-6.534,0.048
			c10.362,29.046,24.298,65.16,56.389,112.585c0.242-0.413,0.318-0.738,0.318-1.055c0-2.71-0.718-15.618-0.718-27.987
			c0-42.103,6.244-66.522,6.244-77.979c0-2.117-0.714-2.432-3.45-2.643C702.148,703.507,680.543,702.682,677.77,702.682z
			 M585.893,473.012c11.904-2.381,66.542-37.192,66.542-41.112c0-5.487-31.083-49.92-58.798-49.92c-0.902,0-1.815,0.131-2.74,0.504
			C590.85,412.686,589.755,442.753,585.893,473.012z M449.711,307.025c5.982-12.266,5.823-21.447,5.823-21.685
			c0-13.608-11.266-25.835-25.177-25.835c-9.261,0-19.093,1.987-19.093,20.521c0,12.804,6.687,27.27,7.178,27.494
			c0.762-1.079,2.902-8.924,15.386-8.924C445.941,298.596,448.755,304.179,449.711,307.025z M544.876,778.534
			c-0.136-0.138-0.272-0.276-0.408-0.415c-10.94,7.991-59.385,54.826-89.144,99.935c1.719,1.509-0.578,0.014,8.741,5.763
			C489.171,847.192,515.709,811.856,544.876,778.534z M393.674,373.794c-3.043,4.87-3.337,13.553-3.337,16.013
			c0,20.296,11.439,42.488,22.189,42.488c8.148,0,10.72-13.61,10.72-21.971c0-6.1-1.1-12.143-2.909-18.136
			c-0.028-0.093-0.271-0.121-0.774-0.328c-0.275,0.87-0.691,1.702-0.782,2.567c-0.267,2.528-0.224,5.099-0.634,7.599
			c-1.095,6.681-6.535,11.143-10.035,11.143c-4.425,0-9.904-6.036-9.904-15.94c0-3.285,0.489-4.817,0.489-6.025
			C398.697,387.552,396.866,389.171,393.674,373.794z M547.28,674.164c-2.223,0.474-4.552,0.67-6.649,1.472
			c-9.448,3.614-19.011,12.645-19.011,18.599c0,3.204,3.137,6.323,7.826,6.323c1.431,0,11.582-0.727,20.626-7.847
			c11.09-8.731,11.198-9.558,11.198-10.866C561.271,679.104,555.815,674.845,547.28,674.164z M489.835,655.843
			c0,1.938,0.77,2.542,1.966,2.542c0.151,0,0.308-0.01,0.472-0.027c9.703-0.724,32.236-7.04,32.236-21.978
			c0-2.604-0.746-6.112-5.108-6.112C507.136,630.268,489.835,647.597,489.835,655.843z M598.93,527.719
			c-16.128,9.986-30.462,21.518-45.998,31.544c1.421,4.149,2.751,8.033,4.176,12.192C588.89,546.466,596.294,536.597,598.93,527.719
			z M646.881,733.772c0.977-1.339,15.22-29.539,15.22-33.752c0-3.001-3.693-4.639-5.903-4.639c-7.458,0-13.194,12.365-13.194,26.89
			C643.004,733.104,646.693,733.699,646.881,733.772z M433.96,301.721c-3.627,0.794-12.424,1.077-12.424,9.124
			c0,6.97,6.47,12.572,9.912,12.572c0.66,0,1.303-0.29,1.85-0.935c11.541-13.586,12.614-14.21,12.614-15.596
			c0-0.744-0.527-1.403-1.579-2.156C442.059,303.101,441.61,303.27,433.96,301.721z M693.422,565.661
			c-9.64,3.311-31.846,36.772-33.969,44.583C673.461,597.202,685.525,583.288,693.422,565.661z M609.286,514.739
			c0.22,0.174,0.44,0.348,0.66,0.523c0.036-0.07,25.943-32.281,27.484-46.489C621.3,481.985,609.326,514.608,609.286,514.739z
			 M498.01,590.263c0,0.582,0.203,1.214,0.769,1.916c1.003-0.5,1.988-0.871,2.843-1.437c17.531-11.607,19.373-12.372,19.373-15.588
			c0-1.01-0.607-2.641-3.102-2.641C508.758,572.512,498.01,586.038,498.01,590.263z M424.858,324.382
			c0.037,0.252,0.054,0.488,0.054,0.709c0,2.17-1.691,2.858-3.323,3.511c-12.515,5.005-9.035-1.14-18.045,15.04
			c14.481-5.975,16.028-5.561,25.917-16.954C427.843,325.877,426.528,325.219,424.858,324.382z M410.786,397.86
			c-3.139,0-5.891-1.552-8.508-3.721c-0.201,0.065-0.402,0.13-0.603,0.194c0,1.069-0.038,2.141-0.038,3.211
			c0,8.735,4.624,12.191,6.489,12.191c1.361,0,7.175-2.679,7.175-12.9c0-0.004,0-0.008,0-0.013
			C413.701,397.543,412.204,397.86,410.786,397.86z M638.009,554.309c9.635-8.878,31.999-40.058,32.888-45.342
			C663.713,513.206,665.766,516.977,638.009,554.309z M407.557,368.838c-3.861,0-7.124,0.9-10.387,2.405
			c0.024,4.564,0.992,8.837,2.879,13.512c2.113-5.911,4.64-11.014,8.296-15.905C408.079,368.842,407.817,368.838,407.557,368.838z
			 M613.542,583c0.131,0.135,0.263,0.27,0.395,0.405c1.074-1.161,2.148-2.321,3.221-3.482c-0.126-0.117-0.251-0.234-0.377-0.351
			C615.701,580.714,614.622,581.857,613.542,583z"/>
	</g>
</g>
</svg>
