<?xml version="1.0" encoding="iso-8859-1"?>
<!-- Generator: Adobe Illustrator 22.1.0, SVG Export Plug-In . SVG Version: 6.00 Build 0)  -->
<svg version="1.1" id="Layer_1" xmlns="http://www.w3.org/2000/svg" xmlns:xlink="http://www.w3.org/1999/xlink" x="0px" y="0px"
	 width="1000px" height="1200px" viewBox="0 0 1000 1200" enable-background="new 0 0 1000 1200" xml:space="preserve">
<g>
	<g>
		<path fill="#ECE4DA" d="M936.669,629.746c-6.646,182.092-31.278,216.579-213.127,258.73
			c-279.554,64.797-303.708,99.939-382.437,99.939c-73.296,0-228.536-164.14-228.536-251.128
			c0-56.492,60.296-108.719,74.369-108.719c27.666,0,144.216,218.918,235.73,218.918c84.709,0,331.799-292.878,459.44-292.878
			c9.434,0,17.82,2.161,25.971,7.648C938.391,582.66,935.368,607.796,936.669,629.746z"/>
		<path fill="#ECE4DA" d="M365.358,246.934c9.137,0,16.434,3.774,21.87,11.146c27.258,36.966,10.283,33.85,98.271,52.068
			c20.007,4.143,53.427,27.765,53.427,60.472c0,11.887-4.572,26.677-11.06,39.625c-90.034,179.674-83.774,209.744-92.739,209.744
			c-6.801,0-157.254-222.334-157.254-267.357c0-17.534,15.122-23.364,38.006-40.385
			C358.522,280.529,319.451,246.934,365.358,246.934z"/>
	</g>
	<g>
		<path fill="#603813" d="M187.623,827.098c191.767,54.75,197.758,106.368,218.962,113.671
			c-3.15-29.743-117.68-89.999-155.19-116.546c-79.947-56.581-55.032-204.257-150.622-204.257c-14.699,0-21.362,5.479-24.491,5.479
			c-1.68,0-2.654-1.079-2.654-3.168c0-57.996,95.996-215.321,177.376-215.321c11.903,0,10.203,6.659,14.478,6.659
			c4.716,0,115.829-22.233,115.829-125.15c0-32.861-6.648-59.461-6.648-60.75c0-1.189,1.044-1.529,1.445-1.529
			c5.076,0,8.76,54.472,8.875,54.663c6.377-15.556,4.03-64.673,155.817-64.673c0.343,0,23.689-0.363,23.689,8.342
			c0,16.889-203.702,147.73-232.838,164.258c0.042,0.178,0.085,0.355,0.127,0.533c111.73-11.497,250.063-151.657,250.128-151.657
			c0.872,0,1.474,0.683,1.474,1.711c0,1.785-9.56,27.409-9.56,53.661c0,30.15,16.268,38.687,16.268,61.32
			c0,0.766-0.019,1.207-0.019,1.329c0,0.365,0.063,0.753,0.116,1.409c17.659,2.045,17.645,1.421,27.081,2.548
			c39.731,4.746,45.506,20.266,49.619,20.266c1.744,0,14.229-5.558,33.272-5.558c70.05,0,89.715,69.362,89.715,71.356
			c0,24.201-322.236,197.632-322.236,280.063c0,0.011,0,0.023,0,0.034c0.065-0.059,175.978-208.719,333.454-229.73
			c0.078-0.495,0.171-0.806,0.171-1.113c0-51.282-2.459-50.846-2.459-52.202c0-0.179,0.025-0.346,0.088-0.493
			c0.395-0.915,0.748-2.11,2.047-2.11c0.159,0,101.031,106.514,101.031,128.992c0,1.877-0.897,3.456-2.704,4.515
			C741.74,666.042,782.254,786.031,700.958,837.176c0.63,1.367,1.226,2.66,1.974,4.282
			c64.345-38.869,103.645-226.941,190.71-226.941c21.184,0,49.357,18.093,49.357,52.198c0,35-20.03,50.97-25.375,55.42
			c-14.807,12.327-212.751,125.237-212.82,125.237c-1.114,0-2.222-0.379-3.315-1.398c-5.081,2.662-15.531,9.916-40.538,16.751
			c-169.869,46.428-234.959,88.858-247.839,88.858c-0.067,0-90.533-91.667-192.48-112.749
			C112.825,816.54,53.353,730.069,53.353,682.415c0-29.861,27.387-45.744,49.129-45.744c34.125,0,86.038,41.94,86.038,168.228
			C188.521,815.114,187.926,820.202,187.623,827.098z M77.067,621.672c3.5-1.139,11.644-5.097,23.923-5.097
			c42.573,0,73.442,45.467,82.8,74.006c60.693,185.106,58.901,94.624,220.952,235.722c0-0.691,0.013-1.16,0.013-1.546
			c0-1.774-1.867-22.825-1.867-55.889c0-10.075,0.17-14.98,0.17-25.744c0-133.987-76.133-309.51-83.447-324.351
			c-23.114-46.905-1.801-31.715-43.859-85.614c-18.608-23.847-18.609-22.838-24.776-22.838
			C177.702,410.322,85.377,546.281,77.067,621.672z M805.002,499.416c0.875,10.378,0.844,9.836,0.844,10.484
			c0,4.039,9.011,3.264-123.515,87.764C453.109,743.818,447.037,905.553,429.569,905.553c-2.203,0-2.096-2.819-2.096-3.096
			c0-5.611,23.331-95.897,23.331-133.883c0-5.74-105.957-235.165-140.784-285.86c-0.122,0.295-0.165,0.537-0.165,0.751
			c0,9.071,96.73,205.251,96.73,356.687c0,7.242-0.316,13.635-0.316,29.292c0,36.229,2.067,55.749,2.067,58.161
			c0,2.318-0.604,2.434-0.604,3.787c0,1.186,3.377,12.224,4.852,15.077c36.355-80.991,133.576-171.457,202.191-171.457
			c52.298,0,80.954,53.499,84.834,58.828c11.485-5.99,31.055-18.821,52.765-74.027c77.159-196.204,146.199-178.409,146.199-191.051
			c0-15.432-81.258-108.024-92.275-117.041c0.6,4.631,10.688,27.953,10.688,42.261C816.985,499.885,812.197,498.364,805.002,499.416
			z M325.04,393.624c4.514,16.617,5.064,21.519,9.287,31.931c26.16,64.5,44.103,157.841,97.428,188.249
			c34.073-120.969,154.871-202.225,154.871-259.726c0-21.367-16.2-30.184-16.2-60.964c0-22.075,6.737-44.111,7.85-47.935
			c-0.171-0.08-0.343-0.161-0.514-0.241C573.908,250.655,458.157,369.31,325.04,393.624z M449.872,754.946
			C550.544,528.81,786.47,488.541,786.47,445.599c0-4.583-22.154-67.958-85.392-67.958c-16.178,0-29.087,4.398-32.244,5.26
			c4.07,5.95,19.267,21.714,19.267,71.104c0,14.857-1.762,29.621-3.151,44.401c-0.308,3.273-1.982,3.314-2.251,3.314
			c-1.114,0-1.902-0.948-3.884-3.781c-17.876-25.552-76.205,1.096-76.205-47.13c0-47.749,60.127-69.457,60.191-69.486
			c-0.359-0.263-21.167-18.198-45.555-18.198c-47.981,0-43.384,291.176-152.695,291.176c-19.578,0-31.477-6.287-33.304-6.576
			c0,0.904,0.005,1.751,0.005,2.576c0,1.57-0.02,1.926-0.02,4.051C431.23,689.511,437.219,726.201,449.872,754.946z
			 M802.393,508.766c0-3.003-0.582-5.964-0.798-8.846c-0.474-0.169-0.628-0.27-0.773-0.27
			c-114.802,0-346.741,223.684-346.741,255.837c0,1.389,0.321,1.737,0.321,2.362c0,0.226-0.026,0.459-0.026,0.686
			c0,0.129,0.037,1.142,0.037,2.734c0,46.26-20.59,124.972-22.045,131.839c1.251-1.627,2.07-3.376,2.879-5.13
			C578.357,577.512,802.393,548.873,802.393,508.766z M709.593,841.486c0.058,0.094,0.116,0.187,0.174,0.281
			c0.695-0.34,1.421-0.629,2.081-1.027c201.115-121.623,227.733-118.199,227.733-173.43c0-28.183-21.32-49.403-46.062-49.403
			c-21.821,0-62.555,18.623-98.345,92.372C745.73,812.163,713.776,835.822,709.593,841.486z M696.483,835.604
			c-11.413-22.523-42.274-57.209-81.357-57.209c-93.854,0-196.186,148.865-196.186,162.406c0,0.129,0.008,0.263,0.026,0.403
			C533.45,859.504,629.403,868.836,696.483,835.604z M183.983,825.598c0.698-1.805,1.22-15.99,1.22-19.897
			c0-7.348-2.245-40.39-2.786-47.724c-5.007-67.851-44.147-117.937-80.048-117.937c-12.666,0-45.64,9.55-45.64,41.854
			C56.729,749.305,143.662,810.983,183.983,825.598z M589.698,360.586c-21.527,76.369-133.657,152.333-154.652,254.987
			c0.22,0.118,12.47,7.394,28.935,7.394c94.343,0,103.457-209.903,145.232-260.552C602.609,361.796,596.272,361.202,589.698,360.586
			z M357.042,367.944c0.084,0.115,0.168,0.23,0.252,0.345c1.136-0.662,203.858-127.19,203.858-143.746
			c0-3.309-11.363-4.976-20.359-4.976C330.829,219.568,417.835,300.297,357.042,367.944z M267.236,416.9
			c106.869,150.167,133.583,241.141,170.19,314.594c0.015-0.174,0.022-0.344,0.022-0.51c0-3.116-9.571-32.287-9.571-76.218
			c0-4.27,0.097-7.154,0.097-7.454c0-1.352-0.432-2.207-1.619-2.999c-43.153-28.8-99.556-236.697-106.271-248.044
			C303.675,406.324,286.063,412.7,267.236,416.9z M681.67,495.664c0.486-2.513,3.03-25.972,3.03-42.078
			c0-53.134-18.998-69.035-20.048-69.035c-4.324,0-58.657,23.49-58.657,66.326c0,28.453,22.523,27.656,41.11,29.975
			C675.67,484.415,677.756,492.419,681.67,495.664z M434.721,619c-1.482,1.99-3.141,22.316-3.141,23.974
			c0,3.044,16.655,8.306,33.217,8.306c62.801,0,80.913-90.547,80.913-98.811c0-0.205-0.075-0.5-0.142-1.136
			c-26.251,57.629-62.426,74.609-81.404,74.609C448.94,625.941,437.939,620.381,434.721,619z M697.936,838.887
			c-114.107,37.065-239.691,58.837-279.532,107.34c5.046-1.463,10.479-3.599,12.193-4.343c208.164-90.32,228.125-73.366,269.3-98.86
			C699.189,841.53,698.575,840.236,697.936,838.887z M428,641.79c1.041-8.585,2.024-16.682,3.009-24.809
			c-10.35-6.785-25.522-13.821-50.49-59.39c-0.015,0.14-0.022,0.277-0.022,0.41C380.497,558.068,401.55,623.068,428,641.79z
			 M813.347,493.612c0-7.305-5.036-27.541-9.054-34.581c0,0.344-0.002,0.688-0.002,1.032c0,37.132,0.568,35.111,0.701,35.82
			c2.919-0.237,5.628-0.458,8.235-0.67C813.309,494.79,813.347,494.25,813.347,493.612z M351.414,483.23
			c-2.793-8.466-5.587-16.931-8.38-25.397c-0.153,0.05-0.305,0.1-0.458,0.15C344.853,466.612,347.847,475.007,351.414,483.23z
			 M352.202,485.641c-0.09,0.089-0.18,0.177-0.27,0.266c0.208,0.383,0.416,0.767,0.624,1.15c0.076-0.04,0.152-0.081,0.228-0.121
			C352.59,486.504,352.396,486.072,352.202,485.641z"/>
	</g>
</g>
</svg>
