<?xml version="1.0" encoding="iso-8859-1"?>
<!-- Generator: Adobe Illustrator 22.1.0, SVG Export Plug-In . SVG Version: 6.00 Build 0)  -->
<svg version="1.1" id="Layer_1" xmlns="http://www.w3.org/2000/svg" xmlns:xlink="http://www.w3.org/1999/xlink" x="0px" y="0px"
	 width="1000px" height="1200px" viewBox="0 0 1000 1200" enable-background="new 0 0 1000 1200" xml:space="preserve">
<g>
	<g>
		<path fill="#ECE4DA" d="M63.061,715.26c-0.003-0.47-0.004-0.941-0.004-1.411c0-60.318,19.63-86.098,21.792-148.424
			c2.47-71.197,169.919-126.055,198.024-126.055c24.419,0,40.568,9.199,59.445,78.132
			c57.755,210.892,132.052,247.254,132.052,298.443c0,63.05-224.93,193.881-286.887,193.881
			C95.664,1009.825,69.471,806.537,63.061,715.26z"/>
		<path fill="#ECE4DA" d="M791.68,398.16c-0.838,75.487-66.607,74.939-67.862,74.939c-87.501,0-141.802-187.738-141.802-197.979
			c0-22.924,117.401-69,144.984-69c10.099,0,19.768,0.729,26.143,13.364C758.052,229.21,791.374,377.201,791.68,398.16z"/>
	</g>
	<g>
		<path fill="#603813" d="M205.001,815.81c-0.074,0.128-0.22,0.265-0.22,0.385c0,0.036,0.193,1.447,0.193,3.409
			c0,4.075-16.223,87.723-16.223,106.039c0,0.923,0.079,1.878,0.293,2.879c203.14-160.69,289.489-166.481,292.95-166.481
			c3.892,0,5.486,0.952,6.173,0.952c1.096,0,61.175-27.911,68.853-27.911c0.095,0,2.401,0.038,2.401,1.457
			c0,3.723-72.363,96.121-133.364,147.224c0.104,0.168,0.207,0.335,0.311,0.503c3.928-0.391,45.574-13.276,91.969-13.276
			c28.159,0,130.435,9.148,130.435,65.347c0,7.572-1.612,40.481-64.554,133.064c-1.356,1.995-1.918,5.575-4.581,5.575
			c-0.644,0-1.963-0.463-1.963-1.845c0-2.303,67.304-93.105,67.304-137.013c0-45.603-80.309-61.301-126.161-61.301
			c-39.396,0-78.228,9.452-97.174,15.068c-4.304,1.276-196.804,180.067-207.539,180.067c-3.641,0-3.924-4.307-3.924-6.475
			c0-10.323,6.348-36.819,35.535-85.227c22.623-37.522,159.044-87.116,169.133-90.33c9.252-2.948,130.927-128.315,136.338-146.92
			c-8.679,2.552-21.148,7.168-41.772,16.59c-35.024,16.002-7.34,5.741-32.534,22.451c-126.608,83.973-199.695,168.66-217.806,168.66
			c-2.644,0-4.311-1.698-4.311-4.369c0-49.872,227.106-178.472,227.126-178.542c-118.754,13.433-293.255,167.857-293.874,167.857
			c-1.619,0-3.074-1.264-3.074-6.704c0-20.562,16.09-105.431,16.09-106.887c0-8.129-1.597-8.691-7.653-9.838
			c-16.83-3.187-30.811-3.193-31.111-3.193c-9.223,0-17.596,2.101-25.856,2.101c-2.226,0-7.721,0.397-7.721-4.096
			c0-0.582-1.774-1.463,16.409-17.586c24.959-22.131,24.044-30.062,30.579-30.748c-0.614-4.264-24.534-96.211-24.534-164.745
			c0-16.904,1.777-34.395,6.299-58.141c5.174-27.169,154.534-183.805,165.633-183.805c0.048,0,0.096,0.001,0.144,0.002
			c1.568-1.253,2.604-2.338,3.855-3.038c24.497-13.695,31.983-37.137,48.357-45.878c2.955-1.577,3.792-5.734,20.048-5.734
			c10.967,0,15.021,1.814,26.452,1.814c32.936,0,42.568-9.62,42.568-23.847c0-5.572-3.172-16.171-3.172-22
			c0-25.45,56.963-26.837,73.019-29.246c40.455-6.069,14.697-18.031,39.237-18.031c8.689,0,31.564,2.813,53.966,2.813
			c38.749,0,90.903-12.339,90.903-34.775c0-1.483-0.138-1.94-0.511-4.877c1.242,0,2.334,0,3.647,0
			c0.477,1.737,0.718,3.437,0.718,5.101c0,20.375-36.844,30.596-36.914,30.619c6.86,11.489,43.55,67.405,43.55,131.636
			c0,59.809-32.733,74.19-32.733,78.217c0,1.694,5.617,20.216,5.617,25.885c0,1.203,0.761,8.336-17.293,8.336
			c-32.23,0-64.366-21.774-65.218-22.285c-0.202-0.121-1.57-0.951-1.57-2.095c0-0.224,0.172-1.78,1.727-1.78
			c2.121,0,32.813,22.392,63.776,22.392c16.485,0,14.758-4.801,14.758-4.995c0-3.188-5.121-22.93-5.818-23.813
			c-4.421,1.911-16.389,10.224-39.359,10.224c-16.691,0-38.828-5.617-38.828-8.219c0-0.267,0.062-1.684,2.463-1.684
			c1.063,0,1.29,0.398,2.969,0.398c1.506,0,2.973-0.407,4.443-0.8c54.635-14.633,70.561-74.791,71.722-76.871
			c0.342-0.614,0.785-1.123,1.466-1.123c1.551,0,1.486,1.509,1.486,1.751c0,16.804-3.583,42.676-3.583,58.524
			c0,7.24,0.327,8.706,0.513,10.485c10.312-7.624,29.601-27.991,29.601-72.871c0-59.733-34.014-115.623-41.526-126.729
			c-0.171,0.068-0.342,0.137-0.513,0.205c-2.936,29.793-2.365,101.92-7.182,101.92c-2.083,0-2.354-4.106-6.813-4.106
			c-0.768,0-1.64,0.112-2.668,0.318c1.773,1.186,8.12,3.316,8.12,10.58c0,3.315-1.733,10.26-7.805,13.306
			c-27.171,13.633-21.834,22.623-26.508,22.623c-0.47,0-0.656-0.096-0.887-0.096c-0.527,0-1.279,0.363-1.544,0.767
			c-6.471,9.87-5.83,9.683-5.83,10.49c0,4.619,0.251,11.621,0.251,11.692c0,4.578-1.942,8.06-6.131,10.259
			c-14.426,7.572-0.297-4.307-21.231,20.702c3.873,7.245-6.725-22.75,197.056,393.325
			c17.571,35.877,133.177,159.296,133.177,209.443c0,1.182-0.878,1.839-1.864,1.839c-5.231,0-2.905-41.659-81.136-137.071
			C681.406,665.587,653.859,350.44,496.502,350.44c-67.916,0-105.21,63.047-105.21,106.661c0,46.044,27.322,68.977,27.958,69.644
			c0.501,0.526,1.162,0.898,2.133,1.038c-3.258-6.97-17.843-34.945-17.843-72.06c0-41.642,24.228-95.761,88.442-95.761
			c65.693,0,126.825,68.046,126.825,98.696c0,22.829-39.154,91.535-137.034,91.535c-32.58,0-43.467-7.74-47.963-8.762
			c30.398,54.548,62.07,45.625,77.734,75.394c109.305,207.74,183.665,251.167,186.762,251.482
			c-8.149-15.52-41.585-71.451-41.585-113.993c0-24.175,10.865-43.102,27.819-43.102c36.57,0,91.304,92.319,91.304,136.533
			c0,27.519-15.551,42.071-35.939,42.071c-14.124,0-26.517-7.848-28.321-7.848c-0.156,0-0.322,0.01-0.502,0.033
			c47.164,80.643,144.723,161.78,144.723,165.542c0,0.677-0.679,1.806-1.827,1.806c-2.409,0-96.406-85.677-143.246-160.544
			c-22.531-36.013-39.511-3.685-174.224-212.297c-12.138,39.993-213.043,147.781-313.847,147.781
			C207.054,824.286,206.637,816.73,205.001,815.81z M596.396,394.54c-1.364-11.902-37.016-55.612-111.492-55.612
			c-44.141,0-87.293,26.464-116.159,26.464c-27.29,0-39.359-12.208-44.141-12.208c-12.562,0-147.336,152.697-157.568,164.882
			c-7.547,8.987-12.056,55.689-12.056,73.289c0,72.026,28.258,194.116,38.102,196.811c2.926-2.406,3.589-2.624,3.589-4.257
			c0-0.865-7.653-58.965-7.653-98.628c0-117.28,50.571-242.19,100.452-242.19c57.212,0,87.957,118.746,87.957,153.435
			c0,94.702-75.633,105.248-174.8,187.755c-0.879,0.731-1.504,1.489-1.504,2.641c0,0.233,0.026,0.482,0.08,0.751
			c6.556,32.456,9.721,32.745,23.207,32.745c55.057,0,194.046-52.57,270.263-106.085c-16.126-44.399-23.262-89.286-23.262-99.158
			c0-16.143,7.862-19.933,8.299-20.281c-5.805-4.664-30.426-19.955-52.191-55.978c-2.652-4.39-40.065-24.033-40.065-81.817
			c0-47.969,40.37-110.46,107.672-110.46C512.25,346.641,560.021,350.37,596.396,394.54z M200.214,781.274
			c98.479-83.199,173.417-91.283,173.417-184.393c0-42.97-33.802-149.961-84.19-149.961c-47.949,0-96.506,124.988-96.506,238.889
			C192.934,721.17,198.503,769.556,200.214,781.274z M482.16,546.368c1.467,0,2.961-0.016,4.484-0.046
			c108.645-7.649,128.466-79.644,128.466-88.84c0-22.44-54.894-93.672-123.323-93.672c-72.034,0-84.345,66.874-84.345,92.493
			c0,27.273,7.785,52.595,21.044,76.451C429.133,533.918,442.453,546.368,482.16,546.368z M495.972,331.988
			c0.037-0.377,0.064-0.509,0.064-0.589c0-0.613-2.061-6.045-2.061-13.633c0-21.403,20.761-49.879,34.631-49.879
			c21.988,0,64.191,63.233,64.191,68.674c0,8.823-16.604,8.163-19.986,8.163c-5.877,0-33.951-2.327-35.48-2.327
			c-0.31,0-0.598,0.013-0.821,0.013c20.335,8.876,26.239,10.457,41.2,22.086c0.194-1.263,1.255-15.736,14.607-15.736
			c8.295,0,17.839,7.611,17.839,19.893c0,5.824-3.42,12.626-8.102,12.626c-2.48,0-7.548-1.314-7.548-3.263
			c0-1.269,1.273-2.022,1.838-2.501c-1.372-0.556-2.453-0.994-3.732-1.513c2.348,10.003,2.009,13.112,10.979,13.112
			c2.514,0,4.992-0.255,7.469-0.817c9.655-2.192,17.254-3.42,17.254-10.302c0-2.288-0.272-3.646-0.272-9.176
			c0-11.163,2.205-34.381,8.143-51.357c0.484-1.384,1.423-2.155,2.842-2.457c4.556-0.97,9.546-2.501,13.562-2.501
			c10.026,0,12.929,7.642,16.28,11.76c1.227-1.765,1.783-3.574,1.783-5.469c0-4.586-2.963-6.93-6.668-6.93
			c-1.52,0-2.567,0.34-3.41,0.34c-1.771,0-2.128-1.484-2.128-1.991c0-1.708,4.062-6.29,9.051-6.29c2.084,0,4.552,0.506,7.06,0.822
			c1.548-32.472,3.106-65.154,4.681-98.198c-11.47,2.219-24.822,6.183-50.373,6.183c-18.844,0-42.082-2.7-52.543-2.7
			c-8.549,0-11.829-0.208-13.254,4.786c-6.317,22.137-97.983,7.708-97.983,39.315c0,6.221,3.308,13.808,3.308,20.969
			c0,10.847-3.65,27.91-46.427,27.91c-11.929,0-15.691-1.819-26.58-1.819c-9.58,0-12.549,1.364-13.219,1.593
			c-0.915,0.313-1.492,0.871-1.492,1.783c0,5.373,6.151,16.225,8.12,19.743c9.745,17.407,29.882,24.94,32.886,24.94
			c6.335,0,26.692-11.04,68.515-12.177c-0.386-0.672-0.777-0.841-1.182-0.962c-15.733-4.715-16.723-4.238-17.792-7.626
			c-3.102-9.837-3.036-16.514-3.036-18.477c0-44.591,46.97-75.207,95.49-75.207c65.622,0,88.591,44.383,88.591,45.632
			c0,2.475-8.042,3.221-8.824,3.221c-6.722,0-7.268-3.126-7.349-3.345c-9.206-25.075-30.596-34.183-42.046-34.183
			c-17.285,0-21.575,14.041-21.575,16.786c0,1.765,1.388,3.681,2.668,3.681c0.984,0,5.066-2.253,11.983-2.253
			c10.287,0,20.542,5.571,20.542,14.79c0,8.381-8.291,11.333-8.291,14.202c0,1.328,3.077,9.101,3.077,11.091
			c0,0.961-0.498,2.053-1.713,2.053c-1.971,0-31.389-34.087-31.389-35.165c0-0.652,0.501-1.323,1.458-2.632
			c-1.758-1.476-2.387-3.146-2.387-4.929c0-1.421,0.4-2.913,0.947-4.433c5.203-14.469,16.048-15.669,21.986-17.25
			c-3.794-1.498-15.783-3.41-27.067-3.41c-56.23,0-92.245,36.065-92.245,70.865c0,5.146,0.727,10.383,2.195,15.711
			c0.519,1.885,1.369,2.974,3.352,3.511C486.56,329.173,491.439,331.018,495.972,331.988z M771.968,847.604
			c0-42.606-53.579-132.563-87.363-132.563c-11.055,0-24.057,11.684-24.057,39.311c0,6.699-1.116,40.177,44.826,118.264
			c1.728,2.937,19.893,13.371,34.669,13.371C766.964,885.988,771.968,861.235,771.968,847.604z M409.282,894.539
			c-0.117-0.174-0.234-0.347-0.351-0.521c-15.887,4.797-90.928,35.669-148.172,69.383c-4.695,2.765-46.802,72.224-46.802,100.146
			c0,0.804,0.143,1.63,0.676,2.484C230.378,1056.773,372.079,929.209,409.282,894.539z M566.388,340.69
			c0.603,0.031,1.209,0.104,1.81,0.104c18.13,0,20.737-1.44,20.737-4.373c0-4.326-41.13-64.694-60.577-64.694
			c-9.909,0-30.586,25.512-30.586,46.252c0,3.565,0.471,7.115,1.299,10.662c0.543,2.327,1.745,3.774,4.261,3.93
			C506.147,332.746,532.176,339.801,566.388,340.69z M498.834,711.484c34.435-22.475,33.414-32.398,33.414-35.561
			c0-10.313-25.791-77.74-48.347-77.74c-8.851,0-8.628,17.66-8.628,17.967C475.273,633.63,493.152,709.209,498.834,711.484z
			 M482.453,771.33c-0.122-0.158-0.244-0.316-0.365-0.475C387.408,815.479,258.646,923.2,258.646,943.44
			c0,0.428,0.117,0.875,0.423,1.337c0.077,0.003,0.153,0.004,0.229,0.004C270.076,944.781,286.894,917.696,482.453,771.33z
			 M329.608,350.057c6.321,5.839,23.123,11.529,38.683,11.529c19.957,0,46.513-11.982,46.58-12.053
			c-0.151-0.187-0.228-0.367-0.363-0.437c-33.443-17.274-33.859-37.489-37.934-43.939
			C356.224,318.197,360.506,329.176,329.608,350.057z M694.142,354.746c0-0.467-0.023-0.937-0.023-1.404
			c-0.179-0.066-0.357-0.132-0.536-0.198c-15.161,41.986-56.414,60.736-65.783,64.182c1.299,1.033,13.522,3.525,24.753,3.525
			c21.787,0,39.178-9.044,39.178-12.243c0-0.619-0.611-4.996-0.611-12.538C691.12,382.095,694.142,358.038,694.142,354.746z
			 M176.23,758.627c-30.065,37.357-28.928,29.504-43.616,46.392c1.395,0.179,2.236,0.38,3.064,0.38
			c7.958,0,16.604-2.168,27.934-2.168c6.15,0,32.118,1.454,39.081,6.76c-1.809-7.029-3.521-13.678-5.284-20.528
			c-2.847,1.938-3.843,2.764-4.984,2.764C186,792.226,177.945,763.786,176.23,758.627z M603.552,376.25
			c0.063-0.07,2.766-2.396,2.766-7.825c0-3.937-3.206-15.799-14.139-15.799c-8.193,0-10.386,8.249-10.386,11.471
			c0,5.936,3.23,6.354,5.982,9.855c0.794-2.09,0.952-4.169,3.337-4.169C593.205,369.782,600.171,372.194,603.552,376.25z
			 M643.841,327.115c3.806,0,6.626,2.327,7.976,6.861c4.884-2.744,9.592-5.388,14.375-8.075
			c-5.223-12.069-11.739-11.585-13.513-11.585c-3.172,0-7.249,1.251-11.204,1.981c-1.692,0.312-2.651,1.238-3.015,2.869
			c-1.946,8.734-1.867,8.303-1.867,8.753c0,0.313,0.033,0.665,0.033,1.096C638.952,328.18,641.255,327.115,643.841,327.115z
			 M596.786,286.534c0.301,0,0.454,0.014,0.542,0.014c0.071,0,6.424-3.011,6.424-9.423c0-9.695-14.184-10.975-16.321-10.975
			c-3.798,0-6.109,0.75-9.843,1.528C584.388,274.356,590.686,280.542,596.786,286.534z M640.481,344.86
			c5.562-6.467,7.059-9.251,7.059-11.127c0-1.705-1.289-2.704-3.597-2.704c-3.465,0-6.49,1.927-8.55,3.317
			C637.073,337.816,638.655,341.088,640.481,344.86z M647.081,277.492c-2.626-6.269-14.647-18.902-19.726-20.866
			c14.819,17.731,10.111,21.474,15.299,21.474C644.445,278.1,645.148,277.808,647.081,277.492z M599.905,391.136
			c1.262,3.238,2.53,6.492,3.838,9.85c2.48-2.295,7.285-8.803,7.86-10.526C607.803,390.68,603.983,390.9,599.905,391.136z
			 M579.733,275.375c-0.114,0.134-0.227,0.268-0.341,0.402c5.434,6.15,10.869,12.3,16.662,18.856c0.027-0.3,0.04-0.584,0.04-0.855
			c0-1.975-0.691-3.229-1.855-4.359C578.246,273.901,582.566,277.816,579.733,275.375z M632.587,352.746
			c0.2,0.068,0.4,0.135,0.6,0.203c3.655-4.231,4.098-4.551,4.098-5.455c0-0.335,0.011-0.279-2.628-5.684
			c-0.234,0.038-0.469,0.075-0.703,0.113C633.499,345.53,633.043,349.138,632.587,352.746z"/>
	</g>
</g>
</svg>
