<?xml version="1.0" encoding="iso-8859-1"?>
<!-- Generator: Adobe Illustrator 22.1.0, SVG Export Plug-In . SVG Version: 6.00 Build 0)  -->
<svg version="1.1" id="Layer_1" xmlns="http://www.w3.org/2000/svg" xmlns:xlink="http://www.w3.org/1999/xlink" x="0px" y="0px"
	 width="1000px" height="1200px" viewBox="0 0 1000 1200" enable-background="new 0 0 1000 1200" xml:space="preserve">
<g>
	<g>
		<path fill="#ECE4DA" d="M291.522,732.655c2.403-110.031,91.648-228.71,160.194-315.91
			c46.726-59.443,100.842-182.092,220.534-182.092c68.468,0,70.69,67.942,70.69,74.019c0,62.041-60.935,111.932-68.461,118.781
			C467.891,615.469,411.537,809.537,336.185,809.537C292.747,809.537,291.799,736.471,291.522,732.655z"/>
		<path fill="#ECE4DA" d="M892.121,142.801c0.009,0.335,0.014,0.669,0.014,1.002c0,4.782-1.194,31.07-29.885,31.07
			c-14.572,0-28.019-7.826-34.121-11.294c-48.773-27.719-63.631-29.22-63.631-44.351c0-15.41,20.555-37.277,48.674-37.277
			C863.156,81.951,891.377,106.948,892.121,142.801z"/>
		<path fill="#ECE4DA" d="M320.553,1004.23c-0.502,0-1.005,0.014-1.508,0.014c-5.074,0-13.498-1.805-13.498-14.538
			c0-23.713,44.874-68.484,78.886-68.484c9.677,0,23.716,7.485,23.716,21.897c0,21.73-54.58,59.044-87.591,61.219
			C320.555,1004.302,320.554,1004.266,320.553,1004.23z"/>
	</g>
	<g>
		<path fill="#603813" d="M624.959,430.369c-0.151,0.017-0.296,0.026-0.435,0.026c-1.301,0-2.079-0.749-2.56-2.03
			c-14.553-38.799-10.316-26.423-15.131-43.943c-2.607,0.417-3.37,0.935-5.976,0.935c-9.644,0-15.89-9.605-31.204-9.605
			c-10.699,0-16.052,6.11-26.49,6.11c-16.308,0-30.042-13.577-42.433-24.347c-41.1-35.722-55.816-27.971-61.029-31.206
			c-0.256-0.159-1.795-1.088-1.795-2.278c0-3.445,41.44-11.914,45.134-11.914c19.359,0,29.255,17.918,47.901,17.918
			c6.153,0,30.31-3.596,36.111-3.596c24.377,0,26.637,30.976,37.833,48.077c0.179-0.099,0.358-0.197,0.537-0.296
			c-0.462-1.329-8.643-18.844-8.643-55.558c0-64.438,22.555-112.152,22.805-112.8c-11.912-13.506-17.138-33.728-17.138-48.504
			c0-48.432,46.811-95.152,49.004-95.152c3.726,0,8.951,10.799,10.372,17.777c3.722,18.284,10.708,23.481,10.708,35.685
			c0,3.239,0.49,6.75-11.826,27.481c9.703-4.022,21.171-15.163,65.764-15.163c5.721,0,10.128,0.1,14.013,0.1
			c15.439,0,15.749-0.264,16.149-0.302c-0.944-2.661-2.199-4.072-2.199-7.545c0-11.426,17.143-26.528,36.346-26.528
			c12.079,0,24.719,4.655,24.719,12.688c0,2.853-1.385,5.172-2.207,6.87c0.018,0.07,21.105,27.472,21.162,27.542
			c17.128,21.159,23.201,24.816,23.201,32.26c0,9.154-9.512,8.369-38.432,12.613c-19.625,2.88-24.052,10.805-38.317,10.805
			c-8.189,0-10.327-2.984-13.597-2.984c-0.331,0-0.585,0.035-1.287,0.035c-16.703,0-26.286-29.197-26.286-36.571
			c0-13.314,7.227-22.901,7.367-23.142c-0.418,0-0.87-0.035-1.328-0.035c-0.072,0-50.337,3.135-76.825,24.224
			c-11.902,9.476-19.939,12.894-20.75,15.614c-10.754,36.048-37.668,73.473-37.668,122.12c0,13.242,3.312,38.823,4.185,40.763
			c2.006-6.24,4.2-12.336,8.034-17.407c-4.74-9.413-5.843-19.276-5.843-29.247c0-5.386,0.204-17.893,5.412-35.162
			c7.995-26.508,44.975-60.196,45.045-60.196c0.996,0,1.51,1.275,1.994,2.119c0.076,0.132,0.093,0.296,0.093,0.471
			c0,0.146-0.012,0.299-0.012,0.445c0,1.573,2.157,30.405,2.157,36.714c0,26.361-7.458,33.738-8.514,37.944
			c6.683-5.688,21.815-21.777,74.996-25.895c3.647-0.282,13.278-16.581,38.785-16.581c18.205,0,40.243,12.184,40.243,26.632
			c0,20.009-26.172,19.92-26.597,19.92c-0.083,0-0.117,0-0.148,0c-1.616,0-2.419,0.459-3.178,1.939
			c-12.315,24.022-35.01,25.768-35.685,25.768c-1.96,0-3.932-0.33-5.928-0.982c-3.359,4.127-11.038,8.259-15.982,8.259
			c-6.064,0-13.654-5.949-13.654-21.988c0-28.036,16.257-34.075,18.364-38.419c-58.261,7.225-84.273,28.603-84.273,108.343
			c0,0.396,0.012,0.823,0.012,1.328c2.32-1.443,6.772-16.6,31.238-28.358c17.342-8.332,18.783-16.493,34.894-16.493
			c1.873,0,3.792,0.158,5.755,0.48c14.814,2.429,16.563,2.156,16.563,4.965c0,2.105,0.391,3.088-32.498,15.136
			c-25.62,9.385-23.049,24.456-31.416,34.328c-11.121,13.122-10.479,10.309-14.643,31.048
			c-3.723,18.541-14.162,22.349-15.841,24.446c4.107-0.385,25.497-5.872,29.314-5.872c4.309,0,8.002,4.916,8.002,8.945
			c0,1.817-0.716,2.231-1.161,6.506c-1.918,18.437-37.729,27.968-37.855,33.736c-0.146,6.699-0.83,8.285-0.83,14.373
			c0,6.791,0.769,10.534,0.769,15.164c0,3.18-0.349,6.368-1.363,9.611c25.621,1.613,30.25,2.262,34.067,9.583
			c3.143,6.028,7.668,18.477,7.668,21.144c0,10.883-21.359,15.977-39.367,25.569c0.332,3.923,0.641,7.558,0.964,11.374
			c0.07-0.028,10.335-4.021,14.002-4.021c11.036,0,17.708,18.923,17.708,27.658c0,14.472-8.482,21.208-19.876,33.28
			c3.998,6.232,5.013,13.352,5.013,23.276c0,19.456-5.111,37.474-16.401,53.762c-66.449,95.861-95.341,77.804-157.253,126.134
			c-91.448,71.386-34.639,44.11-85.295,84.79c-72.338,58.093-94.662,98.56-133.234,98.56c-39.934,0-70.659-98.727-70.659-115.078
			c0-13.972,2.731-23.267,77.06-96.661c151.638-149.731,106.409-199.13,195.953-284.027
			c122.568-116.205,103.402-71.144,153.594-93.566c0.374,0.126,0.72,0.19,1.041,0.19c0.85,0,1.515-0.452,2.008-1.409
			c1.978-3.84,3.359-7.774,3.359-11.887c0-5.541-4.996-16.694-5.382-17.336c-0.085,0.568-0.114,1.126-0.114,1.676
			c0,2.081,0.179-0.977,0.179,13.61C626.001,431.041,626.07,427.192,624.959,430.369z M468.3,531.214
			c-8.015,3.889-29.427,27.804-41.21,53.272C313.942,829.052,201.804,855.317,201.804,903.832
			c0,23.299,34.774,112.277,64.96,112.277c13.928,0,32.005-3.105,71.919-43.303c52.408-52.781,75.114-60.481,85.343-78.698
			c-0.145-0.094-0.29-0.187-0.436-0.281c-3.789,4.345-15.378,18.953-26.375,18.953c-16.873,0-22.699-23.749-22.699-30.921
			c0-6.858,3.668-29.814,24.535-29.814c10.761,0,32.795,5.562,32.795,24.353c0,0.152-0.001,0.192-0.001,0.273
			c0,0.802,0.097,1.605,0.147,2.408c0.229,0.13,0.458,0.261,0.687,0.391c31.372-43.235,127.891-88.833,152.766-105.472
			c-4.209-2.025-5.934-3.521-8.396-7.348c-1.498-2.327-14.315-24.808-22.357-47.239c-16.77-46.772-58.168-64.821-58.168-114.564
			c0-14.054,3.639-24.667,3.639-29.028C500.163,561.807,475.251,537.972,468.3,531.214z M653.665,635.513
			c-4.02,2.76,0.97,0.391-29.756,23.798c-10.373,7.902-16.562,20.004-23.276,28.485c-7.807,9.863-22.038,15.457-25.773,15.457
			c-3.487,0-3.621-2.273-3.621-2.771c0-15.621,101.348-67.339,101.348-100.432c0-8.033-5.743-24.383-14.662-24.383
			c-24.584,0-106.476,71.413-128.595,71.413c-2.396,0-3.811-1.267-3.811-3.133c0-13.288,39.262-28.658,57.596-43.643
			c60.476-49.428,96.036-48.315,96.036-61.261c0-0.968-0.235-1.999-0.709-3.116c-3.92-9.24-5.486-20.422-13.545-21.492
			c-11.911-1.582-16.75-2.312-23.813-2.312c-61.938,0-91.567,55.724-137.319,64.341c-2.219,12.034-3.835,18.493-3.835,28.211
			c0,9.234,1.953,29.378,16.767,49.073c56.244,74.771,56.958,116.804,70.366,116.804c1.732,0,70.687-54.271,70.687-115.448
			C657.752,646.794,656.597,638.934,653.665,635.513z M637.872,431.338c-70.214,15.637-75.907,18.929-76.658,19.216
			c-10.849,4.149-84.359,70.687-90.273,78.32c35.454,35.308,30.566,42.781,32.706,44.194c7.385-8.411,82.26-88.712,94.743-93.3
			c0.247-0.091,77.703-26.228,77.703-41.253c0-0.169-0.016-0.346-0.051-0.534c-2.199,1.679-12.94,10.76-26.942,10.76
			c-11.262,0-13.754-5.928-13.754-9.667C635.346,436.021,636.658,433.818,637.872,431.338z M541.43,554.601
			c3.703-2.386,55.477-40.251,66.659-42.187c19.115-3.31,17.769-1.97,18.049-5.646c0.216-2.841,0.361-5.699,0.361-8.551
			c0-7.159-1.161-16.135-1.161-20.365c0-1.155,0.037-2.365,0.037-3.714c-28.068,9.652-31.158,9.582-38.739,17.826
			c-44.199,48.069-45.521,44.012-45.521,49.534C541.114,541.501,541.388,554.158,541.43,554.601z M620.553,201.894
			c0.233-0.052,0.467-0.104,0.7-0.155c2.415-5.909,5.276-12.68,5.939-26.879c4.237-90.679,31.003-89.312,31.003-95.013
			c0-0.247-1.66-8.201-6.873-14.034c-39.997,43.845-45.347,74.495-45.347,91.535C605.976,183.637,620.312,201.537,620.553,201.894z
			 M456.581,325.296c-0.316,0-0.635,0.045-0.952,0.061c-0.021,0.102-0.041,0.204-0.062,0.307
			c55.863,25.872,63.074,52.762,87.609,52.762c9.33,0,14.481-6.1,26.501-6.1c15.515,0,23.817,9.768,31.096,9.768
			c0.56,0,1.127-0.173,1.69-0.26c-25.861-7.54-13.571-29.936-71.872-33.877C492.931,345.412,494.164,325.296,456.581,325.296z
			 M839.811,178.36c0.166,0.267,0.332,0.533,0.498,0.8c8.368-1.139,13.874-1.514,13.874-5.984c0-4.694-38.299-51.265-43.209-56.956
			c-9.311,8.128-20.38,11.937-32.252,14.7c2.264,2.309,11.284,7.795,11.284,25.005c0,23.824-15.711,35.919-15.793,36.215
			c2.536,0.427,4.005,0.907,6.938,0.907c6.418,0,12.024-2.209,25.346-8.206c-3.023-1.607-10.641-4.624-10.641-12.558
			c0-8.587,9.16-19.198,23.966-19.198c14.387,0,24.827,9.744,24.827,17.312C844.648,175.92,839.881,178.312,839.811,178.36z
			 M428.332,878.166c0-0.223,0.005-0.447,0.005-0.67c0.042-0.003,0.084-0.006,0.126-0.008c-0.139-1.576-0.167-3.17-0.438-4.723
			c-2.797-16.083-28.207-17.294-28.783-17.294c-15.517,0-21.22,15.618-21.22,26.912c0,11.418,8.231,26.949,18.932,26.949
			c8.29,0,18.667-11.561,19.579-12.626c9.443-11.032,11.82-11.282,11.82-17.476C428.355,878.682,428.332,878.597,428.332,878.166z
			 M456.748,321.311c0.003,0.181,0.006,0.361,0.009,0.542c9.124,0.494,22.156,0.408,37.362,10.229
			c19.98,12.903,30.313,11.255,56.795,14.813c32.415,4.354,35.34,28.123,51.609,30.603c-13.923-23.295-13.76-47.553-36.353-47.553
			c-7.125,0-27.781,3.506-34.134,3.506c-23.585,0-28.646-17.828-49.335-17.828C478.432,315.623,478.144,315.81,456.748,321.311z
			 M658.152,85.083c-29.313,24.63-27.71,78.895-27.71,92.336c0,0.262,0.081,0.569,0.18,1.32
			c14.921-22.188,38.356-47.332,38.356-63.462C668.978,106.111,662.529,95.843,658.152,85.083z M622.376,418.796
			c0.378-0.145,0.447,0.39,0.447-5.177c0-30.705-9.324-31.943-9.324-55.894c0-0.913,0.017-1.171,0.017-2.05
			c0-14.122-6.428-28.014-6.428-59.868c0-49.793,28.221-90.472,36.797-120.246c-0.229-0.12-0.32-0.2-0.375-0.2
			c-0.064,0-5.384,1.595-7.528,2.301c-1.551,0.511-35.772,63.134-35.772,143.139c0,10.27,2.785,32.604,2.795,32.674
			c2.275,16.058,7.64,20.606,7.64,27.767c0,1.156-0.108,1.401-0.108,2.114C610.537,389.874,621.35,418.254,622.376,418.796z
			 M786.42,155.404c0.012-0.303,0.017-0.611,0.017-0.924c0-15.313-10.881-22.857-15.587-22.857c-0.09,0-5.278,0.175-10.15,0.665
			c-3.198,0.321-11.403,7.366-11.403,19.665c0,1.984,0.346,18.708,17.988,36.345c0.77,0.77,1.558,1.099,2.382,1.099
			C774.837,189.397,786.367,175.509,786.42,155.404z M634.035,410.034c10.872-40.638-0.43-77.006,19.416-122.834
			c-1.25,0.807-2.121,1.861-2.92,2.966c-17.617,24.373-30.54,38.351-30.54,67.625C619.99,383.261,633.841,409.854,634.035,410.034z
			 M663.268,204.697c-0.204-0.067-0.409-0.135-0.613-0.202c-34.894,31.569-42.4,57.465-42.4,85.271
			c0,5.422,1.765,22.073,4.524,24.732C629.963,251.462,652.841,274.878,663.268,204.697z M666.494,211.166
			c-0.192,0.012-0.384,0.023-0.576,0.035c-12.833,62.15-37.477,56.845-37.477,102.438c0,0.207,0.186,0.427,0.374,0.845
			c34.316-45.139,39.291-54.917,39.291-79.22C668.107,234.099,668.141,225.705,666.494,211.166z M745.567,244.676
			c0.066,0.116,0.132,0.232,0.199,0.349c3.492-1.094,7.634-3.015,14.776-3.015c14.117,0,29.995,7.224,29.995,23.819
			c0,2.307-0.256,2.811-0.8,6.686c0.511,0.227,0.424,0.337,1.662,0.337c6.527,0,22.253-3.193,22.253-16.413
			c0-11.755-19.497-23.293-36.989-23.293C760.011,233.147,747.165,243.05,745.567,244.676z M636.765,424.796
			c0.148,0.135,0.295,0.271,0.443,0.406c15.404-6.524,18.465-18.676,19.614-25.711c4.892-29.953,16.616-25.918,20.865-41.717
			c5.752-21.389,34.555-26.441,55.385-35.787c-2.125-1.756-14.837-2.794-16.931-2.794c-31.958,0-40.188,47.712-67.397,71.047
			C645.672,392.874,650.165,395.563,636.765,424.796z M820.252,156.501c-17.046,0.216-20.953,12.374-20.953,15.949
			c0,4.58,5.151,10.116,15.344,10.116c10.044,0,26.567-4.412,26.567-12.28C841.21,165.198,832.865,156.813,820.252,156.501z
			 M751.447,300.379c10.055,0,27.682-10.852,32.817-24.566c-12.519-2.888-22.119-10.971-32.956-17.428
			c1.091,6.479,2.078,12.683,2.078,18.952c0,5.845-0.8,11.807-5.351,22.504C749.025,300.206,750.175,300.379,751.447,300.379z
			 M808.25,113.624c-5.487-5.568-11.029-8.535-20.231-8.535c-10.571,0-19.406,5.423-21.717,9.564
			c-1.502,2.691-3.873,9.01-3.873,10.497c0,0.728,0.193,1.488,0.713,2.253c1.304,0,2.669-0.145,4.011-0.145
			c2.761,0,2.977,0.66,6.315,0.66C781.907,127.918,802.177,120.877,808.25,113.624z M742.538,301.355
			c-2.837-2.036-10.615-8.379-10.615-20.598c0-14.761,5.209-22.072,5.209-26.137c0-0.269-0.011-0.547-0.036-0.837
			c-5.48,4.262-17.689,12.499-17.689,35.478c0,15.128,7.042,18.529,9.824,18.529C735.085,307.791,740.793,302.889,742.538,301.355z
			 M785.704,272.628c0.1-0.239,1.338-2.522,1.338-6.728c0-11.22-9.38-20.411-26.614-20.411c-7.029,0-11.475,1.731-15.024,3.438
			C745.523,249.036,763.629,265.827,785.704,272.628z M648.101,445.369c19.574-1.059,29.827-13.036,29.827-16.402
			c0-1.271-1.452-5.272-5.065-5.272c-0.273,0-5.255,0.093-26.805,6.058c-5.753,1.592-7.265,7.488-7.265,9.469
			C638.793,444.464,644.826,444.675,648.101,445.369z M732.546,132.102c-0.031-0.16-0.063-0.32-0.094-0.481
			c-0.899-0.045-1.798-0.136-2.696-0.136c-19.083,0-30.906,0.327-46.644,5.458c-33.824,11.028-32.036,23.952-32.913,30.183
			C680.242,149.282,669.967,142.759,732.546,132.102z M579.382,616.206c11.515-8.276,36.156-24.728,48.585-31.428
			c0.918-0.495,1.512-1.067,1.512-2.155c0-9.007-0.066-7.119-0.941-10.117c-12.555,7.009-28.409,18.546-39.858,27.657
			C584.591,603.415,580.19,604.828,579.382,616.206z M741.572,251.686c-3.253,12.965-6.151,17.315-6.151,29.703
			c0,10.681,8.003,16.287,9.009,17.104c2.168-3.671,5.586-13.391,5.586-21.6c0-3.618-0.431-7.243-0.993-10.844
			C747.527,256.452,746.581,252.841,741.572,251.686z M682.942,335.745c-0.113-0.1-0.226-0.2-0.339-0.301
			c-35.447,14.201-32.59,47.829-32.687,49.108C658.242,378.854,668.926,357.929,682.942,335.745z M677.273,266.236
			c-0.326-0.034-0.526-0.095-0.651-0.095c-0.043,0-0.077,0.007-0.104,0.025c-39.955,26.141-26.625,75.415-39.77,149.321
			c0.169,0.052,0.338,0.103,0.507,0.155C659.2,363.901,629.582,309.814,677.273,266.236z M528.859,643.701
			c11.626-1.608,27.791-11.799,39.148-20.028c5.817-4.215,8.112-6.797,8.995-14.101
			C536.047,629.732,530.469,641.323,528.859,643.701z M810.377,110.65c1.076-1.551,1.622-2.978,1.622-4.283
			c0-5.41-11.238-9.204-20.292-9.204c-20.674,0-33.829,15.138-33.829,23.258c0,1.233,0.282,2.439,1.127,3.583
			c1.005-2.84,1.93-5.564,2.931-8.261c4.139-11.146,19.917-14.142,26.931-14.142C801.318,101.602,807.922,108.7,810.377,110.65z
			 M538.246,548.61c0-1.778-0.194-3.579-0.539-5.406c-2.064,1.314-25.996,25.536-27.333,27.687c0.769-0.226,1.349-0.336,1.88-0.563
			C534.488,560.836,538.246,559.391,538.246,548.61z M606.96,672.691c0-0.057-0.063-0.167-0.133-0.383
			c-3.502,2.385-24.73,18.677-31.317,26.961c0.124,0.18,0.248,0.359,0.373,0.539C598.267,691.921,606.96,672.761,606.96,672.691z
			 M762.78,189.566c-0.288-1.294-16.922-18.515-16.922-37.669c0-7.515,2.711-11.998,3.331-13.894
			c-3.403,2.361-5.919,12.363-5.919,18.506C743.271,169.476,755.131,188.059,762.78,189.566z M637.498,469.745
			c-4.97,1.742-8.765,2.812-8.765,8.651c0,0.757,0.975,15.079,1.22,17.298C633.555,487.444,636.291,479.088,637.498,469.745z
			 M630.723,507.455c2.393,0.298,3.967,0.532,4.933,0.532c0.808,0,3.15,0.802,3.15-8.911c0-3.309-0.5-9.74-0.711-13.268
			C635.283,492.921,632.301,499.855,630.723,507.455z M638.385,173.287c0.174,0.185,0.348,0.37,0.522,0.555
			c7.996-4.225,6.217-1.826,8.837-12.14c-0.19-0.088-0.381-0.176-0.571-0.265C644.087,165.27,641.081,169.162,638.385,173.287z
			 M640.5,574.051c0-1.132-0.206-2.532-0.562-4.33c-2.455,3.056-4.44,6.343-5.685,10.414
			C638.848,578.305,640.5,577.252,640.5,574.051z M631.387,571.003c0.454,1.224,0.787,2.12,1.284,3.458
			c1.145-2.008,2.01-3.526,2.875-5.044c-0.134-0.132-0.268-0.264-0.403-0.396C633.966,569.643,632.787,570.265,631.387,571.003z
			 M623.937,324.164c-2.321,2.707-3.972,6.844-4.356,10.052C621.116,330.673,622.527,327.419,623.937,324.164z"/>
	</g>
</g>
</svg>
