<?xml version="1.0" encoding="iso-8859-1"?>
<!-- Generator: Adobe Illustrator 22.1.0, SVG Export Plug-In . SVG Version: 6.00 Build 0)  -->
<svg version="1.1" id="Layer_1" xmlns="http://www.w3.org/2000/svg" xmlns:xlink="http://www.w3.org/1999/xlink" x="0px" y="0px"
	 width="1000px" height="1200px" viewBox="0 0 1000 1200" enable-background="new 0 0 1000 1200" xml:space="preserve">
<g>
	<g>
		<path fill="#ECE4DA" d="M360.664,104.837c139.023,0.007,160.389,89.517,163.698,102.952
			c27.894,113.242,118.347,92.889,118.347,203.027c0,62.299-60.893,107.79-121.779,107.79c-39.801,0-82.506-17.24-166.783-17.24
			c-55.027,0-110.745,10.66-140.56,10.66c-120.573,0-131.637-134.275-131.637-155.996
			C81.952,211.531,213.87,106.147,360.664,104.837z"/>
		<path fill="#ECE4DA" d="M726.746,854.877c-19.129-0.345-72.23-1.826-72.23-37.679c0-10.267,6.093-13.139,21.896-15.852
			c95.216-16.345,122.841-62.712,207.226-62.712c19.779,0,56.362,17.208,56.362,42.497c0,10.239-4.315,18.775-12.223,25.766
			C911.526,821.261,791.754,853.753,726.746,854.877z"/>
	</g>
	<g>
		<path fill="#603813" d="M425.681,421.262c-14.449-35.093-17.893-79.374-17.893-93.674c0-64.975,50.117-65.653,51.169-65.653
			c2.16,0,6.3-0.257,8.393,4.56c5.847,13.461,22.516,81.306,22.516,92.69c0,8.133-1.985,12.588-2.52,15.41
			c55.404,23.98,228.262,284.615,319.272,356.986c33.657,26.764,111.567,130.141,111.567,155.715
			c0,70.46-196.454,149.217-436.627,149.217c-209.566,0-266.474-60.474-266.474-72.865c0-1.042,0.306-1.172,0.306-2.511
			c0-1.953-1.385-15.657-1.385-48.267c0-23.959,0.941-76.541,0.941-96.593c0-155.936-11.811-165.717-11.811-194.725
			c0-15.525,2.691-26.249,3.469-30.862c-3.92-1.524-8.743-0.217-12.267-4.417c-0.565,9.991-0.574,45.57-29.593,45.57
			c-4.438,0-10.568-0.776-16.744-4.229c-15.489-8.659-20.212-11.744-20.212-21.695c0-9.571,6.464-35.168,36.822-58.73
			c-14.797-17.632-18.991-21.009-18.991-29.152c0-8.15,5.69-13.71,10.456-19.954c-0.573-0.085-1.142-0.127-1.704-0.127
			c-1.957,0-3.835,0.513-5.57,1.542c-8.125,4.818-3.898,10.922-7.505,10.922c-0.901,0-1.449-0.681-1.817-1.502
			c-25.202-56.244-31.315-69.334-31.315-97.827c0-44.084,25.425-63.268,27.386-66.505c-5.245-18.519-30.634-16.822-37.15-16.822
			c-1.061,0-66.537-1.875-66.537,56.001c0,72.275,73.27,68.412,73.27,178.839c0,12.029-0.823,39.624-0.823,59.305
			c0,72.346,30.519,120.878,65.176,120.878c5.555,0,7.036-1.141,9.32-1.141c0.246,0,2.028-0.117,2.028,1.822
			c0,0.927-0.51,1.539-1.474,1.706c-3.491,0.605-6.969,1.253-10.523,1.253c-58.471,0-68.1-98.816-68.1-128.707
			c0-13.761,0.611-31.888,0.611-54.571c0-110.695-73.057-103.406-73.057-179.714c0-61.441,69.709-59.221,71.018-59.221
			c28.33,0,31.734,6.678,37.468,14.983c13.568,3.171,51.036,24.679,123.907,24.679c36.399,0,55.594-6.092,62.521-6.092
			c5.897,0,23.855,66.981,88.106,66.981c3.363,0,6.799-0.206,10.327-0.62c-36.075-37.762-42.721-77.134-42.721-98.01
			c0-45.22,24.656-104.423,70.757-104.423c36.591,0,62.723,43.983,62.723,120.758c0,11.142-0.444,21.999-0.444,24.36
			c0,0.837,0.012,1.77,0.012,2.968c59.6-43.817,57.366-119.638,57.366-122.458c0-126.362-111.952-126.578-113.662-126.578
			c-70.477,0-115.295,57.468-115.295,114.703c0,21.571,9.202,31.865,9.202,35.469c0,1.445-1.254,2.243-2.311,2.243
			c-0.766,0-1.162-0.594-1.513-2.04c-0.852-3.503-8.892-13.608-8.892-35.818c0-53.249,40.355-118.029,119.049-118.029
			c38.994,0,116.988,25.258,116.988,128.788c0,82.88-55.053,128.368-62.78,128.368c-1.273,0-1.965-1.058-1.965-3.094
			c0-3.022,0.498-12.844,0.498-19.703c0-115.42-42.338-126.413-58.903-126.413c-38.28,0-67.289,48.282-67.289,101.384
			C382.457,376.483,419.489,420.334,425.681,421.262z M558.895,1029.943c1.386-5.465,8.815-41.734,8.815-109.234
			c0-250.22-64.897-365.196-64.897-365.274c0-1.301,1.346-1.619,1.741-1.619c9.434,0,66.767,149.472,66.767,367.191
			c0,61.014-6.15,94.731-8.439,108.562c33.274-2.599,219.439-19.092,314.501-87.915c2.15-1.557,1.924-2.039,1.924-14.917
			c0-124.923-57.75-179.11-74.325-191.896c-89.69-69.191-269.868-340.822-318.898-356.563
			c-3.365,10.967-12.251,44.172-29.952,44.172c-7.767,0-17.87-7.931-17.87-21.267c0-8.504,4.069-14.144,7.244-19.164
			c-0.177-0.117-0.354-0.235-0.531-0.352c-0.318,0.351-2.355,2.974-3.578,2.974c-0.604,0-1.221-1.148-1.605-1.909
			c-0.089-0.176-0.114-0.387-0.114-0.609c0-0.424,0.054-0.432,0.054-1.436c0-11.387-8.136-15.584-8.136-24.56
			c0-15.492,21.05-22.185,28.623-24.873c-2.528-0.736-4.883-1.057-7.147-1.057c-7.376,0-15.992,4.248-20.556,4.248
			c-7.865,0-7.823-9.965-7.823-11.08c0-14.501,11.682-24.883,20.106-24.883c15.268,0,25.108,31.847,25.108,50.061
			c0,11.993-4.245,16.865-10.559,25.088c4.224-0.608,8.281-0.929,12.239-0.929c4.012,0,7.922,0.329,11.8,1.021
			c1.734-3.635,3.004-10.337,3.004-14.749c0-6.661-15.957-76.116-22.149-90.706c-0.77-1.814-2.198-2.771-4.14-2.771
			c-25.767,0-48.603,19.118-48.603,61.901c0,59.885,20.618,97.272,20.618,97.349c0,0.878-0.514,1.553-1.52,1.909
			c-1.568,0.556-12.356,1.75-18.793,1.75c-63.149,0-87.056-64.477-87.221-64.841c-1.127,0.958-82.15,73.601-82.15,83.616
			c0,2.031,5.238,16.773,5.238,56.248c0,23.88-4.554,41.006-27.292,41.006c-13.191,0-21.92-7.415-24.468-9.414
			c0.998,6.726,2.923,16.937,2.923,27.888c0,10.053-1.716,16.65-1.716,19.417c0,4.138,2.395,2.807,13.919,5.729
			c13.189-42.926,72.967-76.361,118.459-76.361c32.544,0,136.969,46.273,144.084,46.273c3.315,0,55.337-67.696,59.441-67.696
			c0.608,0,1.323,0.203,2.293,0.574c11.503,4.4,12.015,5.039,12.015,7.097c0,2.542-21.854,56.021-69.607,64.973
			c55.768,49.812,72.009,216.433,72.009,327.999c0,76.613-5.937,131.378-5.937,137.373c0,0.805,0.03,1.659,0.03,2.638
			C549.053,1030.585,553.878,1030.271,558.895,1029.943z M213.371,673.666c-0.18,0.018-0.36,0.035-0.541,0.053
			c0.049,0.888,5.656,71.576,5.656,136.864c0,29.075-0.636,48.869-0.636,86.851c0,39.778,0.005,45.392,1.314,65.419
			c1.398,21.404,102.582,66.125,178.314,66.125c0.602,0,1.234-0.039,1.929-0.039c-3.693-49.627-6.818-80.151-6.818-180.822
			c0-69.09-1.297-117.625,25.95-117.625c1.926,0,3.92,0.314,5.977,0.916c2.558,0.749,3.091,2.43,3.091,5.492
			c0,2.573-0.543,5.053-1.568,7.389c-28.124,64.06-29.804,47.373-29.804,104.032c0,109.636,6.384,175.429,6.853,177.272
			c30.626-40.019,120.479-81.22,141.154-109.065c2.21-2.976,1.792-2.005,1.792-18.669c0-205.041-38.641-325.409-87.306-341.903
			c-7.067-2.395-48.802-19.671-70.305-25.367c1.561,2.441,48.499,35.683,48.499,101.064c0,74.451-81.75,107.381-125.233,107.381
			C266.841,739.033,236.232,720.739,213.371,673.666z M310.406,735.936c123.451-11.634,122.975-100.497,122.975-103.734
			c0-42.936-29.73-116.87-105.228-116.87c-42.286,0-118.625,33.894-118.625,105.075C209.528,682.656,242.202,734.25,310.406,735.936
			z M141.589,501.301c0.006,0,0.011,0,0.017,0c0.047,0,0.101,0.007,0.148,0.007c0.932,0,3.257-6.969,14.257-6.969
			c5.284,0,6.077,2.299,6.077,2.892c0,2.474-12.835,9.676-12.835,20.843c0,10.313,19.544,25.587,19.544,29.57
			c0,0.73-0.601,1.283-1.833,2.107c-22.148,14.818-35.531,43.598-35.531,55.882c0,3.202,0.473,7.665,4.527,10.28
			c13.905,8.972,18.864,12.302,28.432,12.302c22.424,0,26.222-24.668,26.222-39.657c0-18.748-6.506-30.16-7.8-32.792
			c-0.218,0.024-0.435,0.048-0.653,0.072c-13.097,36.609-17.274,61.484-28.02,61.484c-7.22,0-9.019-12.922-9.019-17.395
			c0-18.399,21.054-52.562,32.011-52.562c1.931,0,3.272,0.699,3.42,0.699c0.123,0,0.264-0.09,0.264-0.095c0,0,0,0,0,0
			c0,0,0,0-0.001,0c3.161-6.585,6.262-13.048,9.334-19.449c-1.181-3.745-3.059-6.25-3.059-27.214c0-5.674,0.321-8.289,0.321-9.1
			c0-6.827-15.963-29.995-15.963-42.032c0-3.773,1.469-31.902,38.914-65.157c-0.224-0.034-0.437-0.049-0.64-0.049
			c-5.449,0-43.347,19.816-43.347,54.756c0,2.272,0.189,5.584,0.189,6.66c0,0.385,0.058,2.29-1.851,2.29
			c-1.461,0-2.089-1.314-2.089-7.516c0-44.694,48.652-64.675,66.701-64.675c1.939,0,2.092,1.576,2.092,1.902
			c0,0.887-0.784,1.577-2.248,1.71c-20.546,1.866-54.198,45.424-54.198,70.929c0,1.911,0.283,3.811,1.113,5.67
			c18.608,41.678,13.878,23.042,15.097,58.92c0.776,22.821,24.33,25.213,30.157,25.213c22.314,0,22.692-22.196,22.692-40.027
			c0-2.53,0.005-27.05-4.204-49.218c-0.213-0.008-0.427-0.015-0.64-0.023c-12.739,26.257-8.645,74.092-21.037,74.092
			c-6.036,0-17.524-16.176-17.524-40.447c0-28.099,18.404-51.669,28.879-51.669c6.463,0,9.331,5.816,11.138,8.748
			c8.489-16.724,73.256-72.459,80.445-80.949c-21.191,4.117-42.139,6.195-62.858,6.195c-39.663,0-78.489-7.614-116.585-23.109
			c-13.248,10.113-29.891,32.669-29.891,66.44C111.754,449.331,130.563,476.784,141.589,501.301z M404.958,1029.003
			c0.151,0.258,0.302,0.517,0.453,0.775c25.238,2.12,50.489,3.129,75.816,3.129c19.419,0,38.884-0.593,58.423-1.734
			c2.343-21.333,6.153-83.05,6.153-108.246c0-0.574-0.143-1.153-0.212-1.729c-0.193-0.106-0.386-0.211-0.579-0.317
			C527.937,945.56,435.668,988.241,404.958,1029.003z M882.84,933.521c0,0.608,0.007,1.327,0.007,2.348
			c3.246-2.646,31.703-23.07,31.703-48.572c0-24.073-64.737-104.377-65.799-104.914c7.204,13.431,34.192,57.959,34.192,142.21
			C882.943,929.713,882.84,932.155,882.84,933.521z M204.036,485.051c0.388,4.058,0.609,8.14,1.2,12.168
			c2.018,13.755,10.098,24.716,12.694,24.716c5.468,0,9.235-40.706,10.043-46.425c2.951-20.882,9.539-25.596,9.539-29.847
			c0-2.284-3.207-8.545-8.002-8.545C222.104,437.117,204.339,458.075,204.036,485.051z M482.415,377.659
			c-1.488-0.991-7.885-1.363-10.94-1.363c-5.248,0-10.484,0.653-15.715,1.48c-0.73,0.115-13.91,9.307-13.91,23.913
			c0,10.101,8.009,17.143,14.34,17.143C471.601,418.833,481.021,382.521,482.415,377.659z M478.959,558.97
			c9.808-0.097,38.789-9.977,64.979-60.717c-6.086-2.552-9.261-4.007-10.164-4.007C532.308,494.246,483.266,553.772,478.959,558.97z
			 M443.259,378.496c3.161-1.24,6.047-2.352,8.914-3.514c1.65-0.669,14.279-11.371,14.279-26.703c0-5.376-1.189-10.135-1.852-13.477
			c-0.574,0-1.022-0.037-1.414-0.037c-3.924,0-27.974,7.588-27.974,21.168C435.211,363.433,442.591,368.048,443.259,378.496z
			 M179.539,552.148c-0.863-0.86-1.727-1.226-2.571-1.226c-6.335,0-28.227,29.363-28.227,48.96c0,5.803,2.139,13.755,5.495,13.755
			C160.748,613.636,165.132,594.282,179.539,552.148z M396.779,791.255c0,2.417,0.012,4.934,0.012,7.692
			c0.593-1.061,0.906-1.499,1.098-1.984c11.228-28.408,26.472-51.462,26.472-60.543c0-0.935-0.523-1.638-1.681-1.819
			c-1.028-0.161-1.748-0.563-4.037-0.563C395.433,734.038,396.779,786.617,396.779,791.255z M452.89,326.687
			c3.296,0,6.563,0.398,10.019,1.566c-0.856-4.475-6.979-26.083-18.201-26.083c-6.498,0-16.362,8.475-16.362,21.827
			c0,1.374,0.335,2.797,0.762,4.113c0.613,1.891,1.677,2.778,3.372,2.778C436.241,330.887,443.637,326.687,452.89,326.687z
			 M195.102,561.881c0-9.174-1.379-18.285-3.268-27.403c-4.123,5.709-7.595,15.448-7.595,16.124c0,3.088,4.423,2.289,9.375,26.957
			C194.659,572.303,195.102,567.081,195.102,561.881z"/>
	</g>
</g>
</svg>
