<?xml version="1.0" encoding="iso-8859-1"?>
<!-- Generator: Adobe Illustrator 22.1.0, SVG Export Plug-In . SVG Version: 6.00 Build 0)  -->
<svg version="1.1" id="Layer_1" xmlns="http://www.w3.org/2000/svg" xmlns:xlink="http://www.w3.org/1999/xlink" x="0px" y="0px"
	 width="1000px" height="1200px" viewBox="0 0 1000 1200" enable-background="new 0 0 1000 1200" xml:space="preserve">
<g>
	<g>
		<path fill="#ECE4DA" d="M165.559,378.031c0-0.378,0.002-0.756,0.007-1.135c0-0.1,0-0.2,0-0.3
			c0-94.922,119.959-268.636,452.449-268.636c75.885,0,78.249,50.94,78.249,57.216c0,37.63-43.611,56.054-68.396,66.508
			c-204.935,86.439-215.006,232.211-376.153,232.211C192.995,463.896,165.559,419.913,165.559,378.031z"/>
		<path fill="#ECE4DA" d="M551.287,964.302c1.193-61.272,42.197-204.502,42.197-261.181c0-18.534-7.154-37.184-7.154-44.136
			c0-1.485,0.621-2.751,1.613-3.935c2.777-3.315,5.919-4.627,14.463-4.627c86.735,0,230.951,119.203,230.951,186.179
			c0,34.205-191.061,184.43-232.19,184.43C548.087,1021.031,551.537,969.222,551.287,964.302z"/>
	</g>
	<g>
		<path fill="#603813" d="M560.055,586.943c-1.462,3.293-2.575,19.337-2.575,30.674c0,4.803,0.2,8.761,0.657,10.548
			c29.691,3.314,114.583-10.47,114.583,78.17c0,21.463-7.024,34.736-7.024,35.836c0,0.078,0.02,0.208,0.036,0.509
			c23.704,18.701,87.546,68.505,87.546,139.728c0,84.552-89.117,127.692-122.818,141.416c-17.01,6.928-73.802,86.892-156.531,86.892
			c-14.123,0-19.401-3.468-19.401-39.005c0-11.786,0.877-20.925,0.877-23.555c0-1.049-0.062-2.121-0.244-3.24
			c-0.406,0.71-0.842,1.404-1.212,2.132c-9.41,18.51-20.705,22.451-22.807,22.451c-10.561,0-110.792-164.861-110.792-260.742
			c0-18.407,1.575-50.154,32.863-116.944c37.084-79.163,31.095-192.722,46.579-192.722c1.827,0,2.593,2.332,2.859,2.835
			c64.013,121.345,107.113,100.808,116.422,131.095c11.539-2.404,23.013-4.054,34.877-4.504c0.006-0.968,0.009-1.933,0.009-2.894
			c0-2.507-0.016-4.993-0.016-7.467c0-14.959,0.799-18.349,2.069-32.447c-99.88-32.463-105.752-68.658-124.051-109.241
			c-1.335,1.72-6.479,11.342-15.484,11.342c-5.771,0-17.912-4.682-29.914-17.699c-2.476-2.685-55.651-11.036-55.651-37.399
			c0-8.384,2.052-14.832,11.062-36.507c-28.326,13.688-60.2,29.795-87.489,29.795c-17.026,0-47.644-5.999-47.644-45.897
			c0-120.438,224.522-267.554,397.098-267.554c98.821,0,144.995,44.872,144.995,97.591c0,74.378-85.878,109.234-85.878,145.948
			c0,4.911,1.922,28.604,4.14,38.988c0.669,0,1.255,0.004,1.81,0.004c1.154,0,2.407-0.033,4.11-0.033
			c26.552,0,24.82,15.739,24.82,20.361c0,14.925-16.213,50.387-38.484,50.387c-2.992,0-4.833-0.652-7.207-1.35
			c-0.021,0.302-0.077,0.528-0.077,0.715c0,0.327,1.041,2.867,1.041,6.75c0,2.769-0.535,5.513-1.557,8.216
			c-31.862,84.27-30.042,112.041-62.675,112.041C585.954,592.168,581.292,592.089,560.055,586.943z M399.728,505.116
			c-4.528,12.399-9.086,27.119-15.073,83.645c-11.586,109.375-60.698,138.37-60.698,219.92c0,98.249,100.87,257.104,107.097,257.104
			c40.203,0,29.009-184.43,70.43-253.158c0.703-1.167,1.592-2.243,3.012-2.243c2.772,0,3.208,3.176,3.244,3.332
			c0.296,1.279,0.602,2.604,0.602,3.902c0,38.368-50.232,177.387-50.232,254.519c0,34.639,5.585,35.069,15.133,35.069
			c0.569,0,25.028,0.152,52.782-12.032c112.862-49.549,98.482-102.247,98.482-123.564c0-1.741-0.015-2.757-0.015-6.155
			c0-110.648,25.565-193.213,25.565-196.671c0-0.228-0.077-0.536-0.137-1.138c-3.201,3.887-27.569,38.587-73.78,38.587
			c-49.213,0-64.499-43.682-64.499-71.059c0-36.58,22.598-67.891,40.276-102.744c-0.785,0-1.411-0.026-1.976-0.026
			c-173.523,0-187.221,193.872-187.292,193.872c-2.035,0-1.852-2.272-1.852-2.427c0-13.311,0.7-148.124,154.535-190.151
			c-0.776-2.94-2.2-5.156-4.112-7.003C471.382,588.21,465.981,620.523,399.728,505.116z M380.593,464.222
			c0.08-0.133,0.161-0.266,0.241-0.4c-7.202-9.982-19.426-24.185-19.426-44.059c0-28.898,17.62-27.303,18.476-27.303
			c1.956,0,3.894,0.294,5.799,0.84c28.177,8.064,32.216,19.485,39.158,19.485c47.382,0,26.916-124.234,139.912-124.234
			c97.75,0,91.717,33.433,96.076,55.813c12.77-29.221,84.468-70.76,84.468-134.6c0-58.053-56.242-93.593-141.714-93.593
			c-170.801,0-393.112,146.161-393.112,263.958c0,8.895,0.807,42.295,44.796,42.295c29.479,0,88.32-29.932,89.685-32.926
			c4.512-9.893,8.507-20.33,8.507-29.739c0-29.39-40.863-34.403-40.863-59.192c0-24.855,42.88-72.803,105.221-72.803
			c29.802,0,56.184,11.334,56.184,36.548c0,58.862-126.715,129.039-127.199,130.116c-4.206,9.343-12.291,26.523-12.291,38.803
			C334.513,450.329,364.137,459.556,380.593,464.222z M574.277,632.003c-2.95,0-5.902,0.024-8.854,0.024
			c-4.627,0-6.57-0.066-6.94-0.066c-1.796,0-2.938,0.552-3.681,2.322c-8.449,20.129-39.525,61.591-39.525,100.826
			c0,17.642,8.684,67.55,61.28,67.55c66.838,0,92.543-68.195,92.543-96.458C669.101,631.219,607.559,634.841,574.277,632.003z
			 M414.359,454.753c-1.154,12.432-9.85,13.281-10.088,13.281c-5.931,0-8.71-9.246-13.403-24.237
			c-5.064-16.176-15.983-9.714-15.983-19.363c0-5.737,3.418-13.612,3.486-13.777c1.497-3.652,3.522-5.309,6.68-5.309
			c16.493,0,14.525,18.516,30.657,36.274c22.408,24.667,13.312,26.974,35.434,68.629c27.492,51.768,99.822,70.648,106.3,71.841
			c20.536-38.091,54.109-30.528,54.109-45.93c0-0.972-0.114-1.921-0.337-2.804c-5.599-0.762-31.758-3.03-31.758-9.26
			c0-1.957,2.138-2.199,2.322-2.241c2.649-0.607,5.332-1.062,8.019-1.062c1.086,0,2.174,0.074,3.259,0.243
			c17.129,2.665,19.501,4.478,21.642,8.054c2.634-0.877,5.234-1.654,7.757-2.631c1.331-0.516,3.742-3.116,3.742-4.547
			c0-0.521-0.355-2.224-2.169-2.224c-0.954,0-3.735,0.793-8.77,0.793c-13.871,0-23.866-6.08-26.664-6.08
			c-1.398,0-11.865,1.848-17.108,1.848c-0.713,0-3.037,0.092-3.037-2.073c0-1.126,0.773-1.703,1.765-2.086
			c13.353-5.16,14.529-6.459,24.021-10.925c31.108-14.637,14.431,2.703,30.122-19.556c-0.577,0.102-1.119,0.149-1.632,0.149
			c-2.599,0-4.455-1.195-6.314-2.441c-1.682-1.127-3.513-2.036-5.165-3.201c-1.471-1.037-2.971-1.43-4.683-1.43
			c-1.244,0-2.869,0.287-7.835,0.287c-5.572,0-11.595,0.44-11.595-9.543c0-0.474,0.006-0.95,0.006-1.423
			c0-0.656-0.011-0.843-0.011-1.002c0-0.614,0.106-1.241,0.172-2.03c-2.45,0.679-4.459,2.269-9.054,2.269
			c-12.604,0-35.157-17.043-35.157-41.923c0-6.571,1.392-11.856,2.054-14.641c-1.766,0-3.428,0.055-5.046,0.055
			c-20.563,0-58.098-8.208-81.367-11.106c0.303,0.83,0.712,1.27,1.208,1.562c56.829,33.414,91.239,34.204,91.239,103.258
			c0,12.292-2.018,36.319-17.46,36.319c-4.955,0-10.885-1.102-16.323-3.606c-26.49-12.197-60.874-24.157-60.874-86.75
			c0-19.201,3.777-40.641,3.777-43.846c0-1.292-0.043-0.997-6.832-5.883c-9.206,7.649-20.413,19.783-28.57,19.783
			c-8.375,0-25.163-20.25-46.224-20.25c-13.255,0-13.64,20.624-13.64,23.936c0,28.334,35.387,64.089,51.447,64.089
			c6.654,0,12.436-8.215,12.436-12.422C428.914,467.898,417.758,456.581,414.359,454.753z M575.614,378.932
			c-4.864-1.8-15.578-3.996-26.011-3.996c-19.623,0-31.321,7.079-33.463,7.079c-1.442,0-1.774-1.397-1.774-1.816
			c0-2.502,26.85-16.327,50.82-16.327c20.401,0,43.71,8.272,43.71,16.946c0,4.374-5.609,4.619-13.122,4.619
			c-11.268,0-11.481-2.602-20.655-2.602c-3.725,0-11.894,0.685-16.715,5.107c2.263-0.205,6.422-3.089,15.132-3.089
			c3.485,0,6.96,0.46,10.411,1.221c30.216,6.656,31.216,21.852,32.531,24.834c1.761-0.563,3.401-1.088,5.188-1.66
			c-0.135-1.005-0.198-1.992-0.198-2.962c0-24.016,23.612-29.002,34.494-32.476c-0.07-0.051-3.786-3.225-9.357-3.225
			c-13.504,0-18.61,16.256-21.311,16.256c-0.247,0-0.477-0.041-0.643-0.13c-0.554-0.297-0.902-1.583-0.902-1.848
			c0-1.06,8.493-17.912,22.818-17.912c6.104,0,9.957,2.822,13.63,5.052c-4.738-52.285-1.519-79.868-94.561-79.868
			c-28.742,0-69.534,2.41-95.27,68.567c-7.866,20.222-13.135,27.822-14.148,30.9c0.07,0.018,72.094,11.837,84.432,11.837
			c2.057,0,3.159,0.129,4.207-2.096C554.492,380.873,560.35,381.052,575.614,378.932z M350.255,386.721
			c0.136,0.152,0.272,0.305,0.408,0.457c54.014-29.42,119.705-85.68,119.705-122.95c0-23.039-25.361-32.808-52.176-32.808
			c-59.201,0-102.008,44.935-102.008,69.422c0,21.281,40.898,28.996,40.898,58.267C357.081,370.681,352.405,381.214,350.255,386.721
			z M665.269,746.84c-0.154,0.149-0.309,0.298-0.463,0.448c3.012,5.177,30.375,44.352,30.375,107.043
			c0,101.386-63.303,160.664-68.062,166.819c2.526-0.817,122.539-43.441,122.539-138.315
			C749.658,809.024,677.793,756.836,665.269,746.84z M625.035,1017.577c13.558-13.135,66.365-70.752,66.365-165.481
			c0-60.185-28.188-101.328-29.778-101.328c-0.096,0-0.197,0.005-0.304,0.016C627.863,811.173,628.552,985.05,625.035,1017.577z
			 M463.992,403.877c-0.347,1.629-3.891,29.13-3.891,42.384c0,51.004,25.486,66.625,33.589,71.192
			c28.291,15.946,35.787,15.682,40.064,15.682c12.906,0,13.775-25.24,13.775-32.915c0-3.954-0.782-48.755-24.441-63.486
			C503.211,424.357,464.639,404.132,463.992,403.877z M546.537,420.701c0.402,3.139,0.702,6.294,1.227,9.412
			c2.133,12.665,17.836,29.528,30.48,29.528c17.491,0,34.411-36.709,34.411-45.804c0-1.624-0.211-3.256-0.613-4.896
			c-1.649-6.727-17.565-6.913-17.845-6.913c-3.888,0-8.612,0.695-13.168,1.232c-33.695,3.976-31.692,3.082-32.536,5.474
			C547.128,412.609,546.583,416.588,546.537,420.701z M561.036,583.19c2.203,0.869,22.19,5.365,27.844,5.365
			c12.617,0,19.149-6.381,23.618-12.458c7.33-9.968,19.656-57.2,19.669-57.27c-1.036,0.096-1.79,0.166-2.749,0.255
			c0.318,0.895,0.461,1.735,0.461,2.527c0,7.982-12.534,10.447-14.776,11.152c0,0.917-0.006,1.841-0.006,2.769
			c0,1.232,0.01,1.589,0.01,1.834C615.107,554.011,578.548,548.644,561.036,583.19z M647.562,452.919
			c1.247-1.052,38.262-34.768,38.262-51.221c0-2.863-10.245-3.016-12.139-3.016c-30.991,0-31.522,26.233-31.522,27.017
			C642.163,431.072,643.631,442.427,647.562,452.919z M464.589,996.416c0.154,0.028,0.309,0.055,0.463,0.083
			c22.761-115.249,39.749-147.947,39.749-175.961c0-1.918-0.159-2.861-0.296-4.62c-0.183-0.034-0.365-0.069-0.548-0.103
			C480.623,857.86,468.211,964.336,464.589,996.416z M689.974,402.948c-0.337,0.168-0.465,0.191-0.481,0.247
			c-8.592,29.482-40.035,49.664-40.035,53.965c0,0.92,3.64,5.037,9.775,5.037c4.196,0,11.946-1.599,17.18-8.373
			c19.17-24.811,17.926-36.438,17.926-38.929C694.339,412.557,693.978,405.328,689.974,402.948z M613.986,473.478
			c6.485,4.141,6.979,4.687,8.561,4.687c3.964,0,20.981-11.456,20.981-21.797c0-8.468-13.301-22.486-21.25-43.561
			c-5.001,1.405-5.685,1.195-6.134,3.505c-1.816,9.336-5.099,12.278-12.133,27.956c2.487-0.918,9.925-4.567,19.994-4.567
			c10.124,0,14.432,5.804,14.432,10.899c0,9.706-14.463,15.232-18.721,17.368C617.253,469.205,618.028,468.61,613.986,473.478z
			 M641.791,411.587c4.872-6.737,10.861-12.534,19.502-15.311c-0.336-6.813-0.668-13.522-1.005-20.355
			c-7.541,2.424-27.141,7.477-31.473,17.32c-3.453,7.845-3.779,10.388-3.779,12.355c0,1.023,0.119,2.019,0.35,2.95
			C630.902,409.569,636.153,410.542,641.791,411.587z M423.846,458.016c0.095-0.077,0.19-0.153,0.286-0.23
			c-2.503-3.772-7.581-9.779-9.297-11.622c-18.659-20.04-16.13-37.185-29.867-37.185c-1.496,0-2.3,0.696-2.983,2.595
			c-1.712,4.762-3.547,10.975-3.547,13c0,5.279,10.004,1.524,15.287,16.522c4.184,11.879,6.828,23.248,10.566,23.248
			c1.919,0,6.378-4.045,6.378-8.814c0-7.11-12.103-5.77-12.103-13.423c0-2.392,1.434-4.477,3.487-4.477
			c4.04,0,8.693,8.641,9.534,9.868C413.115,449.73,418.478,453.225,423.846,458.016z M649.555,471.872
			c0-3.436-1.029-6.766-3.247-10.029c-7.103,14.237-18.324,15.186-26.488,33.338c10.741,1.612,6.22,12.576,13.503,20.329
			C640.993,491.288,649.555,481.68,649.555,471.872z M610.305,462.165c2.388,0,4.717,0.857,6.995,2.838
			c5.297-2.151,17.488-7.245,17.488-14.376c0-3.995-3.323-7.233-11.792-7.233c-6.128,0-11.957,1.705-17.58,4.454
			c-1.282,0.626-3.343,4.858-3.343,9.762c0,4.552,0.995,5.825,1.333,6.608C605.761,462.923,608.059,462.165,610.305,462.165z
			 M605.623,400.02c0.061-0.1,0.122-0.201,0.183-0.301c-1.776-1.459-14.237-11.128-32.563-11.128
			c-18.306,0-21.709,13.24-22.076,14.605c14.828-1.014,33.761-4.772,42.428-4.772C597.901,398.424,599.983,398.987,605.623,400.02z
			 M605.272,380.861c-1.925-6.595-21.809-13.339-40.024-13.339c-0.225,0-12.401-0.241-23.774,3.782
			c0.299,0.255,0.534,0.323,0.757,0.323c0.203,0,3.302-0.334,7.62-0.334c26.834,0,38.86,10.456,43.395,10.456
			C604.117,381.749,604.678,381.028,605.272,380.861z M626.211,412.612c2.91,9.214,7.888,16.762,13.172,24.77
			c-0.284-4.005-0.743-7.456-0.743-10.877c0-3.747,0.617-7.408,1-11.301C635.458,413.864,631.19,412.665,626.211,412.612z
			 M616.883,498.128c-0.18-0.02-0.378-0.03-0.594-0.03c-6.651,0-30.033,9.349-33.381,13.324c2.373-0.261,4.584-0.452,6.745-1.401
			C600.927,505.073,612.289,511.107,616.883,498.128z M597.671,471.25c1.729,0,3.506-0.025,5.396-0.025
			c-3.108-6.348-4.376-7.809-4.376-13.202c0-2.094,0.223-5,0.293-6.089c-1.724,1.395-8.46,6.751-8.46,13.472
			c0,1.07,0.178,2.143,0.554,3.213C592.074,471.451,593.562,471.25,597.671,471.25z M627.941,514.964
			c-0.056-0.491-0.01-0.782-0.124-0.979c-3.33-5.732-2.164-8.511-4.766-13.049c-0.487-0.849-1.187-1.639-2.425-1.639
			c-0.042,0-0.085,0.001-0.128,0.003c-1.242,3.914-3.872,6.703-6.953,9.144C615.875,510.328,624.408,514.209,627.941,514.964z
			 M605.996,511.303c-2.994,0-6.238,0.526-9.712,1.587c5.013,2.426,12.53,3.92,18.182,3.92c1.967,0,3.709-0.181,5.04-0.567
			C615.864,512.968,611.326,511.303,605.996,511.303z M590.369,524.747c-1.173,0-2.354,0.053-3.547,0.165
			c2.837,2.535,20.531,4.335,20.602,4.335c0.832,0,1.217-0.216,2.059-0.69C603.109,526.368,596.87,524.747,590.369,524.747z
			 M609.963,465.857c-1.553,0-3.099,0.486-4.641,2.018c2.971,2.222,3.297,2.669,4.513,2.669c1.504,0,3.991-1.536,3.991-2.955
			C613.825,467.406,613.608,465.857,609.963,465.857z M402.925,441.623c-0.223,0.185-0.447,0.37-0.67,0.556
			c0.372,1.608,1.46,2.522,2.903,3.09c0.162-0.149,0.325-0.298,0.487-0.447C404.738,443.756,403.832,442.689,402.925,441.623z"/>
	</g>
</g>
</svg>
