<?xml version="1.0" encoding="iso-8859-1"?>
<!-- Generator: Adobe Illustrator 22.1.0, SVG Export Plug-In . SVG Version: 6.00 Build 0)  -->
<svg version="1.1" id="Layer_1" xmlns="http://www.w3.org/2000/svg" xmlns:xlink="http://www.w3.org/1999/xlink" x="0px" y="0px"
	 width="1000px" height="1200px" viewBox="0 0 1000 1200" enable-background="new 0 0 1000 1200" xml:space="preserve">
<g>
	<g>
		<path fill="#ECE4DA" d="M143.583,769.493c6.203-227.888,234.586-238.358,239.161-238.358c43.707,0,52.555,37.037,52.723,37.737
			c18.411,76.79,107.137,126.287,107.137,278.145c0,109.726-97.655,141.227-129.564,141.227c-4.177,0-21.986-0.371-41.021-9.608
			C244.657,916.833,144.315,930.986,143.583,769.493z"/>
		<path fill="#ECE4DA" d="M682.583,335.813c-1.414,0.034-2.818,0.051-4.214,0.051c-61.416,0-129.216-36.825-129.216-120.314
			c0-36.135,17.573-68.075,39.257-68.075c28.106,0,31.625,42.763,50.688,42.763c14.197,0,38.209-17.175,63.563-17.175
			c19.14,0,30.382,13.03,30.382,24.548c0,5.315-3.178,15.737-3.178,19.984c0,1.719,0.138,6.005,5.067,7.776
			c10.862,3.903,62.433,8.248,62.433,42.296C797.365,289.403,771.891,331.292,682.583,335.813z"/>
	</g>
	<g>
		<path fill="#603813" d="M526.354,457.793c5.702-17.688,48.626-122.819,60.771-164.593c-5.347,0.928-9.181,1.91-15.53,1.91
			c-36.559,0-65.233-31.362-65.233-51.349c0-6.794,3.927-10.366,7.974-10.366c13.062,0,39.229,51.262,62.064,51.262
			c0.213,0,0.474-0.07,0.927-0.123c-4.926-3.852-17.921-12.685-29.552-21.573c-24.335-18.597-27.483-62.825-27.483-66.725
			c0-44.325,43.96-52.716,47.936-52.716c14.701,0,24.417,21.548,25.977,24.851c5.1-6.09,15.371-22.949,42.524-22.949
			c17.396,0,47.175,11.297,47.175,41.754c0,18.242-8.613,32.547-13.554,41.516c5.277-0.769,14.763-3.283,27.438-3.283
			c23.221,0,33.548,10.382,33.548,20.472c0,22.707-42.501,36.243-42.571,36.273c9.366,3.521,16.134,5.904,16.134,11.348
			c0,1.701-0.744,3.502-2.266,5.287c-11.935,13.998-36.995,13.43-41.844,13.741c7.5,3.331,27.349,3.895,27.349,12.582
			c0,5.163-5.737,7.113-14.273,7.113c-38.825,0-74.35-37.065-77.838-39.543c-0.567-0.403-1.158-0.624-1.792-0.624
			c-0.495,0-1.017,0.135-1.574,0.423c-17.204,68.727-43.987,127.409-45.119,147.814c3.925-7.427,9.22-13.366,17.096-16.418
			c0-0.244,0.027-0.42,0.027-0.538c0-0.463-3.237-2.628-3.237-8.808c0-13.658,21.889-48.028,60.736-48.028
			c12.086,0,19.933,2.863,49.723,11.41c33.775,9.69,54.378,6.411,54.378,14.002c0,6.776-14.977,29.373-87.31,29.373
			c-13.893,0-10.306-0.304-47.68-0.304c-8.776,0-12.623,4.378-20.772,4.378c-0.354,0-0.517-0.009-0.6-0.009
			c-0.279,0-14.633,1.069-24.544,27.853c-2.051,5.543-6.051,10.913-6.343,13.27c4.503-3.946,8.801-7.608,13.407-11.697
			c5.847-5.191,9.017-13.351,19.903-13.351c2.581,0,3.344,0.42,5.226,0.42c2.29,0,5.169-1.03,10.763-1.03
			c39.57,0,50.492,53.771,53.494,66.935c6.443,28.25,26.051,40.055,26.051,42.076c0,4.805-40.241,5.223-41.253,5.223
			c-69.721,0-81.107-62.33-81.107-71.341c0-10.205,2.707-16.476,5.032-22.711c-0.215-0.039-0.394-0.113-0.497-0.113
			c-0.028,0-0.051,0.006-0.066,0.019c-39.93,34.168-16.536,41.314-45.423,106.55c7.656,4.909,6.377,3.219,14.372,10.052
			c1.21,1.034,1.832,2.289,1.832,3.58c0,3.28-3.659,5.07-5.829,6.698c-1.862,26.681-12.45,44.911-12.45,48.215
			c0,19.815,0.427,19.302,0.673,19.864c0.976-1.528,3.129-7.219,10.518-7.219c11.934,0,17.969,17.398,18.639,19.662
			c1.456,4.919,3.171-0.484,13.818,13.684c35.294,46.964,33.764,51.292,33.764,58.65c0,12.989-8.79,53.741-8.79,79.481
			c0,3.553,6.803,46.221,6.803,50.369c0,7.555-6.688,17.211-10.182,22.473c0.349,2.575,0.68,3.318,0.68,5.559
			c0,15.394-23.373,28.273-25.654,32.846c-10.072,20.195-159.288,118.029-189.913,118.029c-9.445,0-11.347-5.409-11.347-22.395
			c0-44.399,23.223-101.95,23.223-102.326c0-0.142-0.058-0.355-0.109-0.802c-38.07,44.866-124.444,82.778-153.742,82.778
			c-0.404,0-25.137,0.759-25.137-18.721c0-38.298,122.284-146.908,122.284-201.71c0-7.432-4.883-26.051-4.883-121.01
			c0-25.6,3.35-32.388,10.474-38.901c32.53-29.743,56.375-81.795,85.194-81.795c2.947,0,3.046,0.338,6.071,0.338
			c1.415,0,2.839-0.074,4.256-0.074c48.819,0,60.317,2.128,81.964,14.042c14.751-29.82,16.204-54.925,22.302-83.187
			c6.907-32.014,12.028-35.193,12.028-48.315c0-32.039-69.703-36.235-69.703-97.291c0-33.583,23.262-63.896,24.029-63.896
			c1.166,0,1.699,0.722,2.014,2.054c9.475,40.058,53.976,73.121,53.976,115.855c0,30.993-10.039,51.136-10.039,69.455
			c0,1.425,0.21,2.855,0.311,4.282C526.113,457.784,526.233,457.789,526.354,457.793z M379.742,556.099
			c-2.768,1.204-18.299,15.848-35.543,40.651c-28.156,40.502-37.902,24.488-37.902,67.759c0,7.376,0.637,23.9,0.637,40.563
			c0,4.211-0.035,5.186-0.035,8.807c0,73.409,9.776,93.675,11.202,97.728c23.986,68.133,25.459,121.279,27.617,127.962
			c18.779-15.84,58.232-80.701,58.528-81.198c-2.822-1.953-8.402-4.067-14.645-14.768c-6.509-11.158-7.669-12.945-7.669-15.923
			c0-6.81,8.669-6.585,10.562-6.585c1.36,0,2.728,0.051,4.086,0.051c0.289,0,0.423-0.002,0.499-0.002
			c0.892,0,1.786,0.155,2.677,0.155c0.07,0,7.534-0.073,10.803-0.487c0.201-1.158,0.303-2.318,0.303-3.465
			c0-16.893-29.244-31.676-29.244-56.904c0-1.113,0.05-1.79,0.05-1.934c0-0.359-0.098-0.754-0.194-1.542
			c-3.851,4.11-8.642,5.26-13.4,6.574c-25.08,6.925-27.93,8.409-30.597,8.409c-3.061,0-3.76-2.913-3.76-3.953
			c0-5.8,20.553-30.077,43.833-37.64c31.484-10.229,26.242-16.901,29.262-16.901c0.88,0,1.741,0.95,2.285,2.075
			c6.858,14.166,8.706,17.112,8.706,23.662c0,3.674-0.639,4.029-0.639,8.464c0,10.608,8.64,12.176,8.794,12.176
			c3.667,0,6.738-5.388,13.151-14.325c0.162-0.226,0.094-0.617,0.147-1.04c-0.016,0-0.032,0-0.047,0
			c-9.245,0-9.399-15.034-9.399-16.304c0-1.732,0.576-20.853,10.916-20.853c1.399,0,2.144,0.304,2.47,0.304
			c0.237,0,0.494-0.066,0.76-0.086c-2.001-6.334-7.985-19.144-10.218-21.721c-0.572,4.169-2.199,13.666-10.613,13.666
			c-9.341,0-15.617-8.563-15.617-15.15c0-6.841,6.072-10.149,10.257-13.051c-8.936-0.828-29.7-1.118-29.771-1.118
			c-8.852,0-32.511,13.32-49.537,13.32c-9.067,0-10.981-3.261-10.981-5.68c0-13.186,45.587-10.771,54.506-10.849
			c5.987-0.053,30.183-10.978,35.489-10.978c3.373,0,2.608-0.506,32.789,18.55c1.646-2.745,4.028-4.06,7.22-4.723
			c-3.085-2.271-9.68-6.637-9.68-16.483c0-12.743,11.885-12.306,12.776-12.439c-3.286-5.368-19.654-21.475-23.228-22.949
			c-0.031,0.077-0.094,0.157-0.094,0.23c0,0.302,0.459,2.433,0.459,4.982c0,9.459-8.567,19.568-21.507,19.568
			c-7.787,0-26.585-5.614-26.585-20.981c0-4.283,1.222-6.528,2.517-10.184c-29.852,14.807-70.052,38.966-72.498,38.966
			c-0.846,0-2.218-0.431-2.218-2.971c0-2.968,2.575-16.969,12.655-28.626c8.341-9.645,87.017-38.496,99.659-38.496
			c8.693,0,11.48,2.888,14.318,2.888c1.635,0,3.374-0.99,7.868-0.99c9.042,0,19.336,3.745,33.554,3.745
			c6.514,0,10.593-0.737,14.402-1.262c-17.519-11.377-24.147-13.428-24.147-16.44c0-0.216-0.246-4.602,12.696-7.291
			c-10.473-5.618-17.797-13.137-76.691-13.137c-0.518,0-1.042,0.177-1.813,0.314c1.745,1.671,5.592,5.662,5.592,12.764
			c0,11.665-12.132,25.299-24.068,25.299c-4.041,0-15.4-2.698-15.4-16.816C376.048,563.884,378.073,559.906,379.742,556.099z
			 M392.931,841.899c-0.06,0.3-0.138,0.478-0.138,0.599c0,11.544,27.007,15.504,64.537,40.303
			c4.072,2.69,16.543,6.715,22.503,11.407c0.671,0.528,1.176,1.224,1.176,2.068c0,0.077-0.015,2.447-2.8,2.447
			c-10.786,0-17.95-8.35-18.997-9.328c-20.689,36.426-114.493,55.918-114.493,137.765c0,17.121,2.089,19.105,8.01,19.105
			c26.687,0,136.317-72.791,162.493-93.326c-6.38-7.308-8.148-16.154-8.148-22.649c0-5.071,2.85-23.935,22.65-26.117
			c-6.972-10.664-13.822-21.141-20.93-32.013c-0.557,2.754-1.266,16.855-14.117,16.855c-13.326,0-21.671-15.413-21.671-24.16
			c0-9.733,7.373-14.226,9.543-15.807c-0.071-0.034-48.06-21.412-71.541-24.754c1.614,1.971,9.358,5.943,9.358,11.711
			c0,6.595-9.044,9.146-14.319,9.146C399.978,845.15,394.48,842.542,392.931,841.899z M309.047,794.098
			c-35.668,101.633-120.17,152.647-120.17,194.224c0,15.12,20.071,15.14,21.999,15.14c40.626,0,131.773-57.132,131.773-62.369
			C342.648,941.022,340.577,888.803,309.047,794.098z M559.391,911.35c-0.596,0-0.989-0.024-1.302-0.024
			c-0.677,0-1.203,0.228-2.744,0.228c-8.324,0-14.547-9.446-14.547-18.808c0-2.954,0.315-5.289,2.238-8.034
			c4.757-6.791,11.6-6.387,14.998-6.652c-1.859-6.886-28.842-52.816-32.267-54.899c-0.059,0.263-0.149,0.517-0.17,0.776
			c-0.537,6.648-7.195,12.815-14.894,12.815c-9.409,0-17.392-9.286-17.392-15.723c0-6.588,1.931-16.117,11.546-21.434
			c-7.928-4.197-59.02-28.588-78.475-33.424c0.285,1.004,0.416,1.926,0.416,2.778c0,7.079-11.855,12.769-19.933,12.769
			c-13.967,0-19.881-12.332-20.28-12.923c-0.166,0.303-0.236,0.557-0.236,0.779c0,0.165,2.152,6.775,5.206,11.034
			c7.729,10.779,8.053,11.587,11.146,12.706c34.448,12.454,25.793,6.624,72.545,43.769c8.387,6.664,8.956,9.552,14.367,11.351
			c18.033,5.995,38.726,53.739,47.263,57.792c5.84,2.773,8.304,10.532,8.304,14.953c0,0.348-0.01,0.413-0.01,1.17
			c0,0.524,0.005,1.136,0.005,1.989C550.532,920.264,555.11,916.29,559.391,911.35z M528.7,408.91c0,2.089-0.034,4.179-0.034,6.268
			c0.143,0.018,0.287,0.036,0.43,0.054c1.126-4.586,3.401-17.477,3.401-31.619c0-40.995-45.007-75.063-53.33-111.318
			c-3.355,4.449-20.26,29.666-20.26,57.637c0,40.598,35.484,58.235,43.484,63.613c18.374,12.352,20.581,19.53,23.013,21.361
			c0.149-1.206,0.144-0.295,0.144-3.395c0-59.419-51.335-56.44-51.335-109.601c0-7.642,1.9-15.267,3.96-15.267
			c0.183,0,1.58,0.147,1.58,1.421c0,1.991-2.319,4.609-2.319,14.891C477.436,351.142,528.7,353.386,528.7,408.91z M560.721,773.606
			c-2.301,2.711-5.895,9.228-17.61,9.228c-12.028,0-22.371-10.09-22.371-20.626c0-6.601,8.552-16.639,20.98-16.639
			c0.874,0,0.886,0.013,4.912,0.23c-4.655-5.544-5.945-8.138-58.217-53.628c0.105,2.335,0.145,3.012,0.145,3.57
			c0,2.838-1.041,8.892-9.539,8.892c-6.664,0-16.176-4.574-27.446-17.025c0,0.754-0.028,1.269-0.028,1.691
			c0,29.396,66.342,72.014,66.342,93.127c0,5.283-3.608,8.821-5.569,11.171c7.113-1.943,9.998-2.934,14.423-2.934
			c23.323,0,18.266,34.605,30.611,76.062c0.158-0.699,0.211-1.371,0.211-2.028c0-1.559-0.389-4.063-0.389-7.252
			c0-5.802,1.621-12.67,7.418-12.67c2.876,0,5.195,1.841,6.587,2.711C570.929,839.999,561.865,776.217,560.721,773.606z
			 M656.757,550.169c-1.711-1.888-53.805-8.978-66.215-81.332c-2.994-17.457-10.488-23.01-13.808-23.01
			c-2.039,0-10.781,3.342-18.352,8.656c-2.789,1.958-9.679,15.458-9.679,29.385c0,11.292,3.412,21.66,9.773,31.12
			c28.052,41.716,62.787,36.775,68.335,36.775C643.847,551.764,647.081,550.989,656.757,550.169z M406.914,860.316
			c-26.259,41.418-39.913,51.44-55.984,120.341c0.38-0.126,0.599-0.129,0.679-0.236c43.475-58.513,87.72-63.817,105.371-93.891
			C441.713,874.881,425.302,866.182,406.914,860.316z M602.578,211.382c9.612-13.046,19.044-24.67,35.256-24.67
			c3.496,0,15.896,0.963,15.896,13.145c0,14.894-19.84,37.543-25.546,45.857c3.787-1.632,17.04-9.186,35.866-15.012
			c1.935-0.599,16.655-21.719,16.655-43.452c0-31.072-32.575-38.633-43.981-38.633c-25.821,0-34.827,15.779-39.797,21.775
			c-0.716,0.864-1.037,1.715-1.037,2.669C595.89,176.285,599.585,179.844,602.578,211.382z M719.15,390.399
			c-0.605-0.206-1.076-0.443-1.572-0.524c-71.048-11.577-72.16-20.071-95.7-20.071c-35.792,0-57.229,32.122-57.229,43.976
			c0,3.571,1.438,7.958,4.432,7.958c11.201,0,55.063-22.274,94.994-22.274c9.988,0,19.894,1.073,27.651,1.073
			C712.651,400.537,718.846,392.099,719.15,390.399z M320.801,646.044c0.155,0.116,0.31,0.232,0.465,0.348
			c81.684-48.453,91.228-45.022,92.268-45.022c3.455,0,6.838,0.849,10.114,2.756c63.973,37.24,44.667,71.433,65.877,82.238
			c-1.593-5.786-2.803-15.834-2.803-16.778c0-5.803,4.33-9.688,8.327-9.688c1.283,0,2.526,0.402,3.562,1.274
			c0.169,0.142,0.477,0.12,0.709,0.172c0.207-0.458,0.334,1.119,0.334-14.677c0-11.561-0.278-9.766-1.84-16.795
			c-1.179-5.305-37.685-31.777-41.891-34.32c-1.08,6.453-4.501,10.892-13.374,10.892c-10.782,0-29.606-6.653-29.606-15.586
			c0-1.73,0.533-2.596,0.533-3.019c0-0.169-0.027-0.371-0.027-0.63c-8.462,2.425-47.89,18.923-49.415,19.505
			C346.286,613.486,327.527,612.557,320.801,646.044z M576.416,251.499c0.163-0.043,0.327-0.086,0.49-0.128
			c-0.4-5.914-0.784-10.046-0.784-16.68c0-39.714,15.596-59.87,15.596-62.906c0-2.434-10.423-25.068-23.495-25.068
			c-2.428,0-44.688,7.159-44.688,48.948c0,9.975,2.107,17.324,3.029,21.48c0.193-0.016,0.386-0.033,0.58-0.049
			c1.496-9.52,4.262-14.535,11.018-14.535C555.59,202.561,568.367,236.195,576.416,251.499z M588.536,444.009
			c-1.906,0-3.831,0.169-5.769,0.482c17.311,23.122,14.815,91.979,77.225,102.335c-6.061-7.075-15.403-17.511-19.482-31.964
			C635.398,496.747,625.899,444.009,588.536,444.009z M510.088,652.764c-5.157,2.316-5.467,12.319-5.467,14.198
			c0,7.612,3,17.278,19.427,41.71c6.276,9.334,3.115,13.713,6.97,17.015c41.181,35.264,31.142,48.921,37.652,76.882
			c0.532-1.213,0.609-2.342,0.728-3.467c4.551-43.049,6.535-41.821,6.535-46.753c0-0.417-0.028-0.837-0.096-1.262
			c-1.674,0.474-3.138,0.726-4.475,0.726c-8.718,0-14.041-12.146-14.041-21.695c0-10.754,4.414-13.091,8.412-13.77
			c-1.967-3.276-25.595-40.835-32.234-42.056c-0.031,0.683,0.248,5.973-4.522,5.973C521.943,680.265,511.34,666.893,510.088,652.764
			z M602.56,263.411c2.514-1.738,14.644-10.932,15.86-11.859c2.55-1.943,32.141-36.676,32.141-51.389
			c0-9.699-9.924-10.246-12.724-10.246c-18.986,0-34.98,24.066-34.98,29.914c0,0.895,0.512,9.342,0.512,20.066
			C603.369,251.028,602.886,256.178,602.56,263.411z M670.9,277.476c-0.034,0.138-0.068,0.277-0.102,0.415
			c1.78,0.372,3.635,0.538,5.326,1.155c1.852,0.676,3.658,0.968,5.446,0.968c9.087,0,46.537-16.08,46.537-34.195
			c0-10.768-14.024-17.232-30.064-17.232c-10.086,0-29.341,2.787-31.453,5.541c-8.033,10.478-9.98,12.339-11.457,14.82
			c7.325-1.124,12.219-2.541,21.817-2.541c4.03,0,23.544,0.698,23.544,10.698C700.495,269.209,674.162,276.308,670.9,277.476z
			 M582.683,280.926c-8.509-35.209-31.113-75.195-44.555-75.195c-8.127,0-7.452,12.978-7.452,14.442
			C530.676,239.433,557.61,271.297,582.683,280.926z M611.144,289.03c-0.037,0.168-0.075,0.336-0.112,0.504
			c38.367,19.054,47.15,19.653,55.217,19.653c18.055,0,35.41-9.858,35.41-15.587c0-1.648-1.371-3.066-4.175-4.354
			c-1.434-0.659-12.602-5.188-14.956-5.188c-2.642,0-10.453,2.952-25.059,2.952c-9.118,0-20.76-1.604-23.792-1.604
			C632.527,285.406,633.858,285.218,611.144,289.03z M627.698,275.461c2.279-0.132,5.539-0.393,11.188-0.393
			c12.123,0,20.187,1.215,22.226,1.215c0.657,0,36.174-7.699,36.174-19.103c0-6.101-14.924-7.552-21.468-7.552
			c-7.912,0-15.69,1.35-23.369,3.475C649.634,253.882,627.768,275.39,627.698,275.461z M586.548,289.749
			c-0.815-0.466-1.027-0.664-1.267-0.71c-47.058-8.958-57.129-52.422-70.977-52.422c-2.172,0-4.603,1.671-4.603,7.438
			c0,16.208,25.263,47.831,61.884,47.831C579.787,291.887,584.759,290.195,586.548,289.749z M597.529,416.872
			c0.011,0.183,0.023,0.367,0.034,0.55c3.668,0.31,32.374,0.651,41.208,0.651c66.471,0,84.158-20.295,84.158-25.402
			c0-0.327-0.081-0.674-0.284-1.05c-0.116,0.184-6.205,11.911-27.929,11.911c-14.167,0-21.644-0.863-29.357-0.863
			C634.793,402.669,608.675,412.972,597.529,416.872z M414.338,639.558c0.026,0,0.052,0,0.078,0
			c10.294,0,20.045-5.928,20.045-17.004c0-4.339-1.575-8.802-5.277-11.443c-8.127-5.797-12.271-6.55-14.668-6.55
			c-8.913,0-21.758,4.162-21.758,17.773C392.759,633.438,408.119,639.025,414.338,639.558z M586.904,273.622
			c0.179-0.025,0.357-0.05,0.536-0.075c0-0.422-0.005-0.844-0.005-1.265c0-48.467,11.865-45.124,11.865-61.015
			c0-5.075-3.058-27.408-6.046-34.274c-2.118,1.993-14.004,26.261-14.004,57.92C579.249,262.887,584.278,268.219,586.904,273.622z
			 M517.72,950.989c18.983-14.49,24.28-20.789,24.28-29.069c0-2.923-1.275-14.441-12.877-14.441
			c-7.092,0-18.819,8.199-18.819,23.054C510.305,942.5,516.459,949.274,517.72,950.989z M395.086,666.564
			c0.03,0.124,0.059,0.248,0.089,0.373c13.357,0.978,6.526-0.893,30.139,2.365c6.313,0.871,25.609,39.31,25.609,53.154
			c0,13.533-14.809,37.002-23.613,40.654c4.872,1.385,9.382,2.668,14.018,3.986c7.818-18.241,13.577-49.355,15.741-54.495
			c0.051,0.154,0.074,0.209,0.078,0.209c0,0,0,0,0-0.001c0-0.303-8.914-12.156-8.914-25.679c0-3.695,0.615-0.887,1.151-9.716
			c-31.857-20.409-31.211-18.381-31.874-18.381C416.852,659.033,417.811,658.255,395.086,666.564z M471.987,731.296
			c-1.745,7.444-3.453,14.736-5.201,22.194c0.411-0.027,0.813-0.041,1.206-0.041c16.235,0,16.984,22.604,25.842,35.37
			c0.508-0.604,12.904-14.062,12.904-20.683c0-3.865-29.473-31.085-34.128-36.625C472.562,731.454,472.449,731.452,471.987,731.296z
			 M412.349,560.832c0-7.089-5.195-12.916-12.602-12.916c-0.327,0-0.658,0.011-0.993,0.034
			c-14.68,0.109-19.503,15.167-19.503,21.564c0,8.151,5.255,13.659,11.924,13.659C399.823,583.174,412.349,573.072,412.349,560.832z
			 M502.068,565.737c3.832-9.051,21.256-55.862,21.256-94.636c0-8.825-0.755-14.824-0.894-16.113
			c-0.215-0.001-0.43-0.003-0.645-0.004c-9.845,39.928-5.604,24.402-11.107,52.646c-7.101,36.447-15.927,49.917-16.529,53.027
			C496.745,562.323,499.252,563.931,502.068,565.737z M527.06,793.89c-6.199,0-11.847,2.324-18.031,4.359
			c12.502,9.528,10.69,9.923,17.44,19.464c13.497,19.078,22.003,35.641,24.686,39.396c0.169-0.369,0.229-0.677,0.229-0.96
			c0-0.165-0.02-0.322-0.051-0.476C541.864,807.45,541.33,793.89,527.06,793.89z M600.384,290.843
			c-0.08,0.156-0.159,0.313-0.239,0.469c0.921,1.022,36.662,37.731,73.484,37.731c9.974,0,11.207-2.354,11.207-3.952
			c0-3.343-9.007-5.365-10.085-5.561C643.893,313.906,638.815,302.822,600.384,290.843z M542.009,748.623
			c-9.778,0.089-18.081,7.862-18.081,13.52c0,7.929,7.825,17.441,19.163,17.441c1.438,0,15.199-0.458,15.199-11.802
			c0-5.21-3.48-10.991-4.983-13.62C550.592,749.412,546.46,749.369,542.009,748.623z M414.135,817.947
			c0,1.076-0.078,2.183-0.242,3.324c51.458,14.983,13.442,3.266,63.353,22.071c-0.377-0.898-0.94-1.423-1.543-1.897
			c-38.82-30.475-41.885-35.607-71.123-43.913C409.912,803.792,414.135,810.04,414.135,817.947z M385.074,763.376
			c0.232,0.004,0.465,0.008,0.697,0.012c0.104-0.586,0.279-1.17,0.301-1.759c0.161-4.372,3.326-8.543,8.478-8.543
			c4.127,0,12.034,4.08,25.391,7.949c0.097-0.145,0.193-0.29,0.29-0.436c-0.196-0.133-6.288-3.544-6.288-11.862
			c0-3.565,0.688-8.283,0.688-10.304c0-4.147-0.723-4.85-7.669-20.342c-4.876,5.555-11.002,8.457-17.219,11.422
			c0.778,1.761,1.108,3.512,1.108,5.254c0,7.831-5.979,12.642-5.979,24.399C384.872,761.634,384.954,761.688,385.074,763.376z
			 M384.963,731.173c-4.287,1.56-8.348,2.97-12.357,4.516c-13.873,5.353-32.615,23.171-35.78,33.072
			c1.584-0.287,2.71-0.345,3.734-0.699C382.311,753.638,380.346,765.566,384.963,731.173z M476.179,865.155
			c1.98,13.017,10.593,20.629,18.511,20.629c10.56,0,10.664-13.351,10.664-13.576c0-11.054-14.016-20.711-18.654-20.711
			C483.738,851.496,476.634,855.302,476.179,865.155z M526.876,474.82c0,1.352,0.073,2.716,0.23,4.096
			c11.586-19.465,22.14-54.707,23.678-60.56c20.758-78.971,31.996-91.323,37.631-116.012
			C588.344,302.409,526.876,460.031,526.876,474.82z M510.656,833.515c6.136,0,11.815-4.875,11.984-11.26
			c-0.322-1.543-0.491-3.137-0.993-4.619c-2.359-6.976-9.502-14.807-14.046-14.807c-6.077,0-11.114,9.272-11.114,17.97
			C496.488,825.64,503.135,833.515,510.656,833.515z M511.779,590.557c0-0.881-0.041-1.77-0.131-2.669
			c-1.075-0.119-2.107-0.018-2.952-0.368c-1.117-0.462-2.205-0.649-3.285-0.649c-0.551,0-6.321,0.224-7.908,3.532
			c-0.506,1.054-7.735,14.117-7.735,24.411c0,3.836,8.108,5.957,11.342,14.491C502.998,625.606,511.779,602.489,511.779,590.557z
			 M442.819,603.324c2.017-0.409,9.754-0.632,9.754-7.723c0-2.3-1.695-3.688-3.57-4.732c-8.554-4.765-14.308-6.892-20.53-6.892
			c-6.153,0-12.302,2.975-12.302,6.745C416.172,595.31,426.685,602.191,442.819,603.324z M565.182,898.651
			c0-3.425-2.32-11.618-4.159-14.633c-1.584-2.597-3.527-2.512-5.365-2.512c-2.6,0-11.661,1.432-11.661,11.133
			c0,7.221,4.575,15.723,11.588,15.723C556.741,908.362,565.182,907.901,565.182,898.651z M489.296,788.022
			c-8.709-21.563-12.032-31.321-20.373-31.321c-2.805,0-3.21,0.485-3.763,2.673c-4.296,17.016-3.544,14.407-3.696,16.378
			C470.687,779.819,479.766,783.821,489.296,788.022z M661.875,234.95c-0.071,0.013-37.222,9.018-52.739,33.777
			c0.572-0.192,0.756-0.215,0.895-0.307c21.382-14.113,37.126-15.652,39.872-18.837C662.168,235.355,661.528,235.51,661.875,234.95z
			 M567.185,888.349c6.759-10.523,7.484-14.831,7.484-18.979c0-5.746-3.028-21.424-10.093-21.424c-3.67,0-4.124,7.116-4.124,8.839
			C560.451,869.62,562.919,875.072,567.185,888.349z M430.481,684.037c0-0.023,0-0.047,0-0.071
			c-0.677-8.857-4.084-11.131-5.676-11.131c-1.805,0-14.051,3.524-14.051,11.488c0,5.073,5.245,11.902,12.076,11.902
			C429.906,696.226,430.481,687.049,430.481,684.037z M450.909,652.896c0.534,10.422,7.678,14.819,12.203,14.819
			c4.853,0,7.791-3.954,7.791-7.578c0-0.841-0.156-1.686-0.492-2.499c-4.788-11.568-6.799-13.427-11.408-13.427
			C452.646,644.212,451.71,649.299,450.909,652.896z M432.78,728.084c0.08,1.203,0.938,13.087,5.774,13.087
			c4.497,0,9.041-10.102,9.041-18.282c0-10.334-4.68-12.389-6.756-12.389c-1.446,0-2.88,0.748-3.986,2.241
			C434.331,716.147,434.362,718.638,432.78,728.084z M447.462,760.299c8.59-6.752,21.909-30.255,21.909-31.993
			c0-0.64-0.319-1.202-0.857-1.814c-10.939-12.454-7.516-9.222-9.969-11.038C456.671,730.878,451.651,745.167,447.462,760.299z
			 M576.561,740.917c-0.1-0.013-0.2-0.025-0.299-0.038c0-0.445,0.021-0.892,0.021-1.338c0-7.668-5.22-19.752-10.45-19.752
			c-5.465,0-5.262,8.596-5.262,10.48c0,10.836,5.796,18.461,11.249,18.461C576.113,748.73,576.158,743.277,576.561,740.917z
			 M454.664,685.341c-0.076,0.213-0.153,0.425-0.229,0.637c11.899,13.068,21.009,15.499,24.435,15.499
			c6.762,0,6.511-4.928,6.511-5.69c0-5.102-5.174-10.746-13.046-10.746C466.96,685.041,460.147,685.24,454.664,685.341z
			 M590.744,263.743c0,4.059,0.226,8.156,0.641,12.287c1.296-1.637,2.38-3.52,3.933-4.859c3.176-2.739,4.154-6.196,4.154-10.123
			c0-0.115-0.001-0.192-0.001-0.203c0-0.268,0.672-8.054,0.672-20.91c0-14.727-0.36-15.062-0.432-15.59
			C593.282,236.948,590.744,250.131,590.744,263.743z M525.401,720.683c-0.344-3.463-1.139-5.795-2.522-7.952
			c-19.472-30.369-14.785-26.382-19.097-32.417c0,0.809-0.01,1.42-0.01,1.955c0,1.8,0.244,3.908,0.244,5.897
			c0,5.741-2.443,5.807-8.13,6.338C505.843,703.337,515.462,711.868,525.401,720.683z M643.359,256.677
			c-0.088-0.147-0.177-0.294-0.265-0.442c-11.362,1.559-43.029,21.089-43.029,24.545c0,0.2,0.043,0.419,0.141,0.66
			c0.158,0,0.293,0.023,0.406,0.023c0.698,0,4.869-3.133,18.43-4.973C621.696,276.13,622.238,276.216,643.359,256.677z
			 M374.117,670.441c-3.796-0.14-7.588-0.261-11.373-0.261c-24.046,0-31.993,5.391-31.993,7.537c0,1.601,2.992,2.539,7.577,2.539
			C349.787,680.255,365.881,673.731,374.117,670.441z M394.499,773.491c3.733,3.167,7.77,5.143,12.381,5.143
			c8.069,0,16.801-6.103,16.801-9.514c0-2.626-5.176-3.783-6.63-3.783C411.475,765.337,403.386,771.849,394.499,773.491z
			 M466.253,742.003c-0.158-0.038-0.316-0.075-0.475-0.113c-0.349,0.491-0.732,0.961-1.042,1.476
			c-9.925,16.486-16.407,19.998-19.743,25.311c4.458,1.944,8.707,3.796,13.082,5.704
			C460.841,763.428,463.547,752.715,466.253,742.003z M496.091,791.213c7.559,4.079,7.345,4.142,8.259,4.142
			c0.619,0,1.198-0.262,1.767-0.78c4.147-3.779,8.621-6.811,8.621-11.846c0-4.435-4.434-10.464-5.454-11.863
			C506.53,778.834,501.453,784.882,496.091,791.213z M413.264,762.376c-16.158-5.583-17.137-6.108-18.832-6.108
			c-0.146,0-5.08-0.184-5.08,6.277c0,1.318,0.192,2.664,0.497,3.931c0.603,2.503,1.545,3.517,3.503,3.517
			C397.796,769.993,404.506,766.411,413.264,762.376z M464.974,597.886c4.009,2.861,7.844,5.598,12.052,8.601
			c2.004-5.87,3.889-11.392,5.823-17.056c-11.36-1.085-9.197-0.969-9.885-0.969C469.187,588.462,465.877,594.208,464.974,597.886z
			 M412.05,841.027c1.209-0.534,5.056-1.846,5.056-5.078c0-3.439-7.401-11.786-24.453-11.786c-3.019,0-2.004-0.05-3.86,0.726
			C399.173,826.987,406.131,833.038,412.05,841.027z M487.949,564.596c-3.057,0-5.979,1.386-8.912,3.665
			c2.398,1.453,4.414,2.692,6.452,3.891c0.071,0.042,23.075,3.846,23.146,3.846c0.581,0,1.202-0.104,1.885-0.422
			C503.7,570.517,492.643,564.596,487.949,564.596z M385.158,827.306c0.132,6.933,11.425,14.605,19.854,14.605
			c1.265,0,2.465-0.173,3.553-0.547C402.63,833.556,394.939,828.891,385.158,827.306z M490.011,670.419
			c0,5.144,1.16,10.135,2.826,15.531c2.439-3.246,6.257-8.567,6.257-15.656c0-3.495-1.839-7.166-4.102-7.166
			C494.264,663.129,490.011,663.791,490.011,670.419z M474.395,681.579c-4.015-3.397-10.839-8.503-16.104-8.503
			c-3.565,0-5.902,2.358-5.902,5.79c0,0.92,0.168,1.918,0.526,2.969c1.32,0.119,2.704,0.372,4.085,0.372
			C458.86,682.205,471.772,681.678,474.395,681.579z M514.275,653.343c-0.276,0.124-0.552,0.249-0.828,0.373
			c2.969,17.712,13.66,23.381,15.253,23.381c0.895,0,1.597-0.718,1.597-1.863c0-0.75-0.307-1.549-0.891-1.928
			C522.475,668.799,521.509,661.494,514.275,653.343z M451.993,585.539c-0.928,0-1.86,0.032-2.795,0.101
			c-0.113,0.267-0.225,0.534-0.338,0.8c4.391,3.097,8.782,6.193,13.054,9.206c1.865-2.824,3.542-5.365,5.367-8.127
			C462.178,586.513,457.131,585.539,451.993,585.539z M494.803,576.725c2.622,1.814,9.206,7.823,16.537,7.823
			c2.886,0,5.903-1.298,5.903-3.517c0-0.303-0.058-0.582-0.187-0.739c-0.757-0.923-1.642-1.589-3.02-1.589
			c-0.475,0-2.415,0.211-4.967,0.211C503.673,578.913,500.283,577.816,494.803,576.725z M629.123,281.823
			c6.767,0,13.415-1.297,20.005-3.196c-1.023-0.09-2.208-0.354-9.141-0.354c-19.414,0-19.082,1.792-19.702,2.768
			C623.257,281.581,626.201,281.823,629.123,281.823z M477.627,679.614c-1.63-4.586-3.26-9.172-4.981-14.014
			c-1.966,2.907-4.459,4.665-7.796,5.317C469.262,673.92,473.437,676.762,477.627,679.614z M647.37,282.966
			c3.628,0.455,7.231,0.684,10.817,0.684c5.273,0,10.512-0.494,15.745-1.49c-0.565-0.243-6.1-2.038-11.411-2.038
			c-2.432,0-4.867,0.343-7.313,1.165C652.823,282.089,651.724,281.853,647.37,282.966z M490.004,598.178
			c-3.533,3.791-6.66,7.146-9.917,10.641c2.248,1.723,4.201,3.221,6.125,4.696C487.477,608.399,488.665,603.594,490.004,598.178z
			 M482.185,601.489c0.11,0.059,0.221,0.117,0.331,0.176c3.831-4.128,7.663-8.256,11.901-12.822
			c-3.279,0.193-5.918,0.348-8.584,0.504C484.577,593.531,483.381,597.51,482.185,601.489z M500.48,680.955
			c-0.157-0.054-0.314-0.108-0.472-0.162c-3.11,5.061-4.905,7.755-4.905,8.799c0,0.379,0.185,0.929,0.303,0.94
			c1.038,0.102,2.095,0.244,3.134,0.244c1.581,0,2.268-0.116,2.268-1.676C500.809,687.293,500.522,681.91,500.48,680.955z
			 M528.509,668.243c-0.736-4.611-5.737-12.363-8.355-13.027C523.077,659.427,524.711,664.327,528.509,668.243z M610.072,262.346
			c-0.183-0.173-0.366-0.346-0.55-0.519c-7.768,6.971-7.844,6.666-7.844,8.367c0,0.448,0.065,0.951,0.175,1.523
			C604.755,268.409,607.413,265.378,610.072,262.346z M475.32,895.216c-2.707-2.289-8.046-4.769-10.147-4.769
			c-0.021,0-0.041,0-0.061,0.001C468.23,892.982,471.602,894.457,475.32,895.216z M597.794,273.738c0-0.053-0.001-0.107-0.002-0.162
			c-2.544,2.271-4.291,4.968-5.048,7.999C594.808,278.878,597.794,277.478,597.794,273.738z"/>
	</g>
</g>
</svg>
