<?xml version="1.0" encoding="iso-8859-1"?>
<!-- Generator: Adobe Illustrator 22.1.0, SVG Export Plug-In . SVG Version: 6.00 Build 0)  -->
<svg version="1.1" id="Layer_1" xmlns="http://www.w3.org/2000/svg" xmlns:xlink="http://www.w3.org/1999/xlink" x="0px" y="0px"
	 width="1000px" height="1200px" viewBox="0 0 1000 1200" enable-background="new 0 0 1000 1200" xml:space="preserve">
<g>
	<g>
		<path fill="#ECE4DA" d="M176.855,1050.299c-47.426-1.413-49.19-16.307-49.19-32.077c0-12.737,5.612-19.024,10.294-22.244
			c8.286-5.698,10.361-9.487,25.018-17.065c148.491-76.772,102.115-163.482,229.87-183.341
			c193.124-30.018,284.11-224.511,391.649-224.511c17.839,0,24.818,9.671,24.818,21.269c0,51.526-84.624,117.55-149.876,178.957
			c-85.645,80.597-19.011,135.378-167.983,175.019C309.995,994.593,309.817,1040.343,176.855,1050.299z"/>
		<path fill="#ECE4DA" d="M366.483,493.026c-5.758-0.489-14.812-1.1-23.823-2.096c-25.941-2.869-64.592-54.044-64.592-114.15
			c0-83.519,77.068-186.425,198.089-186.425c106.225,0,155.912,87.34,155.912,87.41c0,1.465-0.802,5.547-27.73,30.582
			C484.299,419.946,486.309,492.591,366.483,493.026z"/>
	</g>
	<g>
		<path fill="#603813" d="M541.039,396.433c43.536,16.053,42.701,16.742,42.701,18.666c0,4.427-17.61,33.375-44.729,33.375
			c-19.721,0-39.447-8.768-50.845-8.768c-0.07,0-45.367,1.861-51.038,13.197c-20.788,41.551-26.161,41.558-27.018,46.054
			c34.4-8.232,42.478-10.34,52.301-10.34c28.441,0,106.884,70.692,115.856,84.749c30.493,47.772,49.869,57.591,49.869,66.778
			c0,1.27-0.618,2.355-1.993,3.325c-3.936,2.777-16.19,15.473-25.849,15.473c-3.588,0-5.058-1.455-6.526-1.455
			c-1.691,0-49.773,36.653-50.092,37.008c13.166,45.933,25.327,47.775,25.327,57.128c0,10.152-22.89,10.598-23.201,10.598
			c-10.892,0-30.693-14.78-40.066-39.221c-11.576-30.188-66.959-73.338-72.276-73.338c-0.491,0-1.057,0.072-3.159,0.072
			c-1.381,0-2.788-0.031-4.255-0.031c0.06,0.071,60.65,48.278,66.33,58.286c16.31,28.738,32.516,44.897,32.516,49.47
			c0,2.544-2.779,3.784-4.975,4.935c0.008,0.115,0.012,0.225,0.012,0.333c0,0.742,0.582,3.826-9.607,3.826
			c-5.458,0-9.426-1.439-11.601-2.111c-62.761,66.19-47.539,146.289-219.568,196.072c-97.31,28.16-141.192,54.23-162.612,54.23
			c-0.403,0-0.807-0.005-1.209-0.005c-0.693,0-0.83,0.014-1.04,0.014c-1.275,0-1.919-0.45-1.919-1.318
			c0-0.07,34.155-81.36,34.155-124.684c0-7.842-0.699-10.674-0.699-19.562c0-89.641,54.118-105.998,97.784-261.968
			c9.11-32.539,17.832-35.922,19.549-39.528c0.827-1.737,0.622-3.938,1.055-5.894c6.359-28.769,36.579-40.625,36.579-43.527
			c0-0.216-0.014-0.318-0.014-0.748c0-6.262,0.922-11.341,6.08-14.364c8.688-5.092,14.653-12.889,21.001-20.263
			c89.868-104.388,48.469-88.605,147.419-97.956c9.847-0.931,2.396,6.909,42.401-57.33c36.237-58.189,80.271-70.946,81.261-71.05
			c3.714-0.387,13.098-2.401,19.239-3.313c7.789-1.156,16.446-42.194,35.283-43.42c4.144-0.27,2.739-3.45,8.462-3.45
			c12.134,0,18.148,7.746,18.215,7.816c13.566-23.253,16.857-50.5,28.773-55.993c4.4-2.028,0.84-12.05,15.887-12.05
			c2.551,0,5.093,0.308,7.624,0.869c7.316,1.623,10.895,11.145,10.895,16.575c0,3.372-2.209,5.67-2.209,7.34
			c0,1.089,1.634,3.869,1.634,10.337c0,47.973-75.143,219.174-75.143,227.576c0,0.534,0.055,1.088,0.181,1.675
			c11.546-15.902,75.978-139.344,94.468-190.081c6.867-18.843,26.77-41.718,37.347-41.718c4.018,0,7.813,1.926,10.328,5.511
			c2.841,4.049,3.519,6.044,3.519,18.026c0,30.607-35.472,94.201-35.472,105.129c0,0.657,0.532,1.547,0.532,4.201
			c0,41.257-38.867,115.546-39.321,117.556c2.21-2.831,14.154-21.514,33.06-27.215c0.492-0.902,1.408-2.929,3.188-2.929
			c3.605,0,6.895,7.237,6.895,18.818c0,9.674-1.99,18.407-5.707,28.063c-10.557,27.428-1.041,11.268-12.326,57.596
			c-1.814,7.444-6.675,5.099-7.767,9.244c-5.574,21.16-127.834,115.425-130.419,115.425c-1.092,0-1.896-0.958-1.896-1.798
			c0-4.875,58.279-55.187,62.543-99.106c1.216-12.528,11.04-29.538,11.04-58.246c0-3.912,0.339-14.245-10.887-24.713
			c-19.982-18.633-145.652-48.488-145.723-48.493C541.137,396.007,541.088,396.22,541.039,396.433z M495.628,763.211
			c-5.849-2.868-17.07-7.907-27.117-18.922c-41.102-45.062-82.615-57.319-91.435-57.319c-7.755,0-17.02,2.28-25.808,4.419
			c-24.111,5.868-28.151,2.105-31.847,13.196c-36.612,109.871-56.288,102.332-140.446,228.278
			c-40.412,60.478-60.192,75.999-60.207,78.42c0.242,0,0.438,0.017,0.614,0.017c17.52,0,63.128-26.233,157.149-53.359
			C440.62,910.6,423.596,847.79,495.628,763.211z M120.1,1003.606c0.194,0.099,0.389,0.198,0.583,0.297
			c41.058-46.119,58.214-81.704,136.653-184.112c71.663-93.562,49.094-120.945,68-126.324c0.241-0.068,40.553-9.656,51.866-9.656
			c52.66,0,100.095,79.527,132.276,79.527c0.916,0,1.868-0.062,2.868-0.198c-2.564-1.508-15.83-8.127-15.83-24.328
			c0-3.867,1.261-7.485,4.76-10.396c-10.917-16.885-11.814-19.828-14.387-22.147c-59.052-53.223-58.099-53.208-67.775-54.497
			c-65.344-8.703-110.234-35.599-111.179-36.237c-0.388-0.262-1.627-1.343-1.627-2.494c0-1.643,1.909-1.607,2.165-1.607
			c13.259,0,48.308,35.049,121.211,35.049c2.059,0,3.466-0.022,3.682-0.022c9.138,0,66.755,51.232,72.518,67.359
			c13.024,36.444,33.599,45.187,39.869,45.187c1.599,0,3.241-0.257,4.943-0.754c-5.137-8.258-7.238-26.513-7.238-31.379
			c0-8.355,1.702-13.537,1.702-15.106c0-0.313-0.032-0.62-0.111-0.904c-5.308-19.137-5.948-22.71-11.682-29.4
			c-15.141-17.665-64.469-71.994-65.877-73.353c-0.429,5.7,0.16,18.765-18.572,18.765c-13.853,0-29.292-10.079-29.292-21.927
			c0-12.435,11.924-14.796,16.952-16.561c-73.602-20.289-145.147-23.543-146.565-23.543c-16.139,0-21.717,1.921-26.435,7.336
			c-6.736,7.733-13.217,23.054-13.217,23.525c0,3.271,5.496,6.098,5.496,23.058c0,7.533-0.745,13.12-0.745,18.919
			c0,9.852,0.479,39.467,0.479,51.439c0,77.084-36.159,156.237-69.337,156.237c-10.46,0-19.863-10.836-19.863-27.123
			c0-23.15,17.985-58.456,24.004-71.866c-0.172-0.081-0.344-0.161-0.516-0.242c-31.839,52.102-40.752,90.785-40.752,124.89
			c0,9.314,0.72,11.839,0.72,18.733C149.847,926.014,120.123,1003.536,120.1,1003.606z M487.479,381.661
			c4.327,0.576,10.124,0.133,23.416,3.341c170.461,41.14,190.114,52.063,190.114,84.009c0,23.961-6.993,42.189-9.707,51.583
			c0.07-0.022,78.001-147.55,83.763-205.055c-1.55,1.145-19.946,42.524-36.28,42.524c-0.415,0-14.749,0.197-14.749-22.541
			c0-10.22,4.017-44.589,24.306-44.589c1.532,0,13.575,0.178,27.479,12.458c25.072-68.5,26.722-57.174,32.712-89.125
			c-5.627,3.327-9.206,5.44-14.642,5.44c-8.589,0-15.023-6.411-15.023-15.763c0-1.578,0.168-2.68,0.455-5.294
			c-7.805,4.324-98.594,215.891-111.695,215.891c-3.609,0-3.333-4.161-3.333-4.346c0-13.277,12.58-35.823,39.543-100.062
			c-2.579,0.693-12.049,10.157-23.538,10.157c-9.427,0-18.142-7.059-18.142-23.431c0-16.899,13.619-28.53,26.209-28.53
			c13.585,0,20.895,11.116,24.039,14.79c0.028-0.07,27.372-83.292,27.372-102.309c0-1.139-0.11-2.284-0.386-3.447
			c-1.221,0.576-2.953,6.941-10.311,6.941c-1.501,0-7.657-0.263-13.666-4.551c-5.373-3.834-5.372-8.026-6.17-17.892
			c-9.626,5.313-51.068,121.576-82.696,185.471c-5.995,12.112-12.858,45.187-19.846,45.187c-2.687,0-2.931-4.807-2.931-5.26
			c0-7.05,66.533-135.5,69.138-156.379c-1.266,0.258-2.493,0.379-3.686,0.379c-2.894,0-16.267-1.663-16.267-13.195
			c0-1.63,0.155-1.174,0.372-5.02c-6.126,0.749-9.875,3.305-17.61,18.358c-14.747,28.701-14.381,22.463-32.219,50.631
			c0.157,0.129,0.314,0.257,0.47,0.386c5.229-4.266,8.568-7.259,15.426-7.259c10.526,0,21.549,6.843,21.549,14.234
			c0,0.938-1.674,21.733-23.157,21.733c-17.632,0-19.485-16.776-19.847-17.911c-1.314,2.778-28.687,70.796-54.881,92.407
			c-0.323,0.266-0.883,0.403-1.407,0.403c-1.668,0-1.681-1.302-1.681-1.508c0-3.312,30.776-47.81,32.238-59.216
			c-6.412,4.05-9.425,5.647-13.691,5.647c-8.255,0-15.541-7.875-15.541-16.865c0-12.151,12.576-25.014,24.061-25.014
			c15.747,0,15.931,17.896,16.125,19.601c7.054-5.396,7.066-5.488,10.169-12.952c6.277-15.098,11.272-21.112,13.539-25.043
			c-7.157-0.578-9.108-2.531-10.422-10.483C549.877,278.696,511.813,338.097,487.479,381.661z M593.623,601.712
			c-2.144-2.754-2.866-2.773-17.991-26.507c-12.453-19.542-74.42-65.422-84.337-71.473c0.051,0.609,0.076,1.205,0.076,1.788
			c0,9.807-9.373,20.762-25.337,20.762c-15.799,0-25.582-9.657-25.582-19.222c0-0.94,0.125-7.949,6.993-12.863
			c-0.131-0.167-0.262-0.335-0.393-0.502c-13.534,1.922-27.238,8.499-64.626,12.609c-5.863,9.551-11.223,16.63-11.223,29.52
			c0,9.691,7.105,34.562,18.328,34.562c1.894,0,60.669-10.739,61.158-10.739c2.28,0,4.329,0.669,6.404,2.029
			c21.579,14.143,69.147,23.873,81.695,46.331c6.599,11.81,46.951,47.599,61.876,47.599c4.089,0,6.376-1.817,14.171-6.627
			c0.353-0.218,0.543-0.702,0.904-1.194c-12.232-0.375-27.956-13.483-27.956-33.196
			C587.783,608.407,588.836,604.219,593.623,601.712z M512.371,390.603c0.722,1.053,1.026,2.02,1.026,2.923
			c0,1.385-0.713,2.623-1.728,3.802c-13.919,16.172-20.258,15.474-21.903,15.474c-3.712,0-6.579-1.016-7.65-4.589
			c-3.102-10.347-3.696-15.309-3.696-19.317c0-0.296,0.004-0.592,0.012-0.889c-53.863,5.326-45.88,3.684-57.825,5.267
			c0.868,0.622,10.688,3.8,10.688,13.27c0,13.084-19.179,29.469-38.646,29.469c-12.181,0-11.654-5.795-12.072-11.763
			c-0.067,0.071-49.647,60.835-59.007,70.615c-12.073,12.615-17.529,10.754-17.529,20.285c0,1.083,0.105,2.246,0.32,3.494
			c56.642-9.943,43.509-11.842,97.329-17.708c3.881-0.423,3.375-1.054,14.082-16.301c19.215-27.365,12.703-41.116,43.436-44.947
			c0.07-0.009,27.722-3.214,28.934-3.214c12.103,0,30.874,8.659,50.242,8.659c24.484,0,39.462-22.882,41.928-29.716
			c-0.917-0.429-1.682-0.787-2.514-1.176c-5.794,7.55-12.501,13.552-20.175,13.552c-2.407,0-30.442-5.703-30.442-19.871
			c0-5.201,4.193-9.018,6.776-10.604C530.364,395.384,517.226,391.271,512.371,390.603z M248.379,600.253
			c-27.342,118.138-78.769,173.678-78.769,218.078c0,12.365,6.612,23.803,16.698,23.803c31.101,0,66.137-80.55,66.137-148.25
			c0-11.355-0.597-28.527-0.597-44.612c0-20.424,0.867-25.4,0.867-30.832C252.716,613.909,251.77,603.244,248.379,600.253z
			 M392.087,573.439c0.001,0.119,0.002,0.238,0.002,0.357c18.09,5.116-7.804-2.503,55.082,14.384
			c17.588,4.723,78.061,81.44,91.03,93.902c4.536-28.226,23.598-33.287,36.369-33.287c0.923,0,1.853,0.023,2.791,0.068
			c-0.621-0.815-1.249-1.371-1.917-1.875c-55.059-41.48-30.669-45.047-80.527-64.603c-37.059-14.535-40.618-19.694-43.85-19.694
			C450.76,562.692,392.158,573.424,392.087,573.439z M365.273,509.087c-35.027,8.099-52.873,11.319-53.398,11.417
			c-31.234,5.797-44.515,36.012-45.1,44.484c0.892-0.307,6.427-3.362,23.712-3.362c24.079,0,74.315,9.166,90.339,10.275
			c-0.731-0.857-1.507-1.235-2.272-1.634c-13.176-6.878-23.026-24.036-23.026-35.906
			C355.528,526.176,359.628,515.836,365.273,509.087z M771.269,406.163c-0.177-0.166-0.354-0.332-0.531-0.499
			c-12.271,5.451-37.848,23.15-49.12,75.389c3.922-1.384,7.724-2.152,11.405-2.152c8.061,0,24.787,5.487,24.787,26.67
			c0,0.349-0.004,0.7-0.013,1.052c2.178-0.863,2.603-1.313,3.258-3.549c10.26-35.025,2.001-19.351,10.136-52.362
			c-5.076-0.138-6.91-1.958-6.91-6.761C764.281,439.63,764.598,441.279,771.269,406.163z M700.642,510.428
			c-4.311,7.722-11.757,23.812-18.349,41.062c-14.845,38.851-34.939,48.718-47.562,66.697c0.093,0.008,0.179,0.011,0.26,0.011
			c0.631,0,108.224-82.422,118.007-105.066c-11.235,3.925-24.344,12.457-36.52,12.457
			C704.022,525.591,701.721,517.693,700.642,510.428z M727.272,335.049c0,0.774-0.031,1.551-0.031,2.325
			c0,10.5,5.36,17.454,11.726,17.454c12.555,0,35.081-41.771,35.081-47.226c0-3.929-15.528-13.465-25.654-13.465
			C728.524,294.138,727.285,334.631,727.272,335.049z M664.982,297.123c0.64,3.3,1.183,19.96,15.071,19.96
			c9.894,0,30.276-11.48,30.276-27.328c0-8.695-12.143-18.276-22.051-18.276C677.268,271.479,665.5,282.051,664.982,297.123z
			 M716.624,522.445c10.817-0.092,25.35-8.648,36.443-13.332c1.165-0.492,1.437-1.16,1.437-4.773
			c0-14.582-11.34-22.281-21.909-22.281c-16.875,0-28.468,19.739-28.468,29.363C704.128,522.812,716.476,522.43,716.624,522.445z
			 M392.363,432.92c4.54-0.292,8.477-0.333,12.057-1.966c0.288-0.131,23.621-9.57,23.621-24.285c0-4.12-2.897-10.817-15.248-10.817
			c-12.749,0-28.863,18.621-28.863,29.823C383.93,432.411,386.303,432.161,392.363,432.92z M465.833,523.141
			c2.525-0.319,5.13-0.346,7.56-1.012c13.991-3.835,14.782-15.64,14.782-16.058c0-10.241-20.243-13.63-25.367-13.63
			c-11.24,0-19.125,6.84-19.125,14.601C443.683,507.8,444.755,522.755,465.833,523.141z M449.216,623.62
			c0.665,0,1.333,0.037,1.998,0.037c8.496,0,12.992-6.426,12.992-13.061c0-4.816-3.499-12.159-9.944-14.903
			c-0.66-0.281-9.285-3.911-14.755-3.911c-4.162,0-16.695,2.412-16.695,13.426C422.811,612.803,433.01,622.827,449.216,623.62z
			 M580.013,307.648c-0.142-1.422-0.541-15.302-13.035-15.302c-9.154,0-20.762,10.722-20.762,21.742
			c0,8.223,5.983,13.461,12.569,13.461c6.263,0,11.978-5.271,13.691-7.365C579.715,311.335,579.971,311.441,580.013,307.648z
			 M618.98,278.341c-6.628,0-10.035,4.466-17.158,10.191c-0.69,0.555-0.954,1.146-0.954,1.845c0,0.798,0.61,17.577,17.284,17.577
			c17.052,0,19.511-16.484,19.511-18.198C637.663,281.9,624.949,278.341,618.98,278.341z M541.264,685.924
			c0,1.739,0.721,3.272,1.645,4.922c15.588-11.659,31.071-23.24,46.896-35.076c-4.75-2.07-4.379-3.494-16.357-3.494
			C547.937,652.276,541.264,675.061,541.264,685.924z M574.059,413.901c-2.523-1.355-30.394-13.823-36.391-13.823
			c-5.198,0-7.243,5.715-7.243,7.985c0,10.376,24.185,16.486,26.926,16.486C565.63,424.549,572.158,416.157,574.059,413.901z
			 M781.976,205.676c0,6.466,5.685,10.604,12.149,10.604c7.677,0,15.905-5.208,15.905-11.48c0-4.24-6.379-14.211-19.126-14.211
			C786.4,190.589,781.976,193.937,781.976,205.676z M594.323,605.075c-2.784,2.527-3.346,4.34-3.346,8.666
			c0,20.356,16.264,30.796,22.961,30.796c1.382,0,2.792-0.197,4.221-0.463C609.29,626.053,604.308,614.011,594.323,605.075z
			 M487.373,387.45c-1.767,0-3.578,0.162-5.456,0.554c-0.042,0.845-0.216,1.739-0.216,2.604c0,0.311,0.022,0.619,0.082,0.92
			c3.605,18.309,3.22,18.06,7.982,18.06c7.319,0,20.233-14.211,20.233-16.226C509.997,390.082,490.136,387.45,487.373,387.45z
			 M378.02,507.551c-0.535-0.035-0.823-0.093-1.031-0.093c-3.489,0-18.228,7.762-18.228,26.926
			c0,15.913,15.583,29.775,18.276,31.103c-3.111-6.228-9.058-17.222-9.058-29.61C367.978,521.9,374.995,512.275,378.02,507.551z
			 M713.12,160.331c-0.391,1.654-0.571,3.279-0.571,4.889c0,10.001,5.156,12.502,7.009,13.3c2.18,0.94,6.178,2.543,9.014,2.543
			c4.688,0,8.086-3.583,8.086-8.408c0-11.322-16.25-12.628-21.31-12.628C713.572,160.026,714.081,160.04,713.12,160.331z
			 M739.336,166.686c0.241-1.093,0.723-2.178,0.723-3.225c0-15.032-14.024-14.131-15.244-14.131c-1.01,0-9.662-0.589-10.321,7.013
			c4.079,0.691,8.171,1.205,12.176,2.108C736.804,160.736,737.394,166.015,739.336,166.686z M547.57,721.457
			c-0.19,0.037-0.38,0.073-0.57,0.11c-0.23,1.96-0.35,3.916-0.35,5.868c0,3.259,0.334,6.507,1.05,9.74
			c2.896,13.081,3.624,20.054,8.23,20.054c0.708,0,1.555-0.152,2.63-0.435c0.077-1.083,0.301-2.253,0.301-3.411
			C558.861,749.38,556.69,741.533,547.57,721.457z M776.316,430.5c0-5.712-1.564-11.341-2.613-17.254
			c-1.146,1.713-6.266,24.995-6.266,30.63c0,2.764,0.913,3.484,2.097,3.484c0.948,0,2.912-0.3,3.795-2.992
			C775.126,438.892,776.316,435.492,776.316,430.5z M656.993,213.264c-0.526,1.779-0.939,3.535-0.939,5.193
			c0,5.764,6.541,9.567,12.835,9.567c4.188,0,4.432-0.704,4.432-3.17C673.321,218.432,667.026,215.236,656.993,213.264z
			 M550.69,371.705c0.179,0.146,0.357,0.293,0.536,0.439c21.331-28.255,32.845-54.692,35.343-61.283
			c-0.153-0.102-0.306-0.203-0.459-0.305C571.781,327.578,578.067,329.408,550.69,371.705z M500.009,739.35
			c0,8.626,6.946,19.708,14.574,20.326c-4.364-8.961-8.594-17.648-12.922-26.537C500.518,734.858,500.009,737.014,500.009,739.35z
			 M789.944,187.024c7.624,0.624,13.675,2.093,20.106,9.614c0.013-0.354,0.02-0.703,0.02-1.046c0-8.604-5.117-13.677-10.317-13.677
			C794.63,181.916,791.139,185.739,789.944,187.024z M710.112,490.409c8.83-9.54,8.514-10.429,8.788-12.034
			c2.107-12.369,5.06-17.842,5.06-18.584c0-0.172-0.033-0.358-0.033-0.53C718.905,469.482,713.676,479.532,710.112,490.409z
			 M621.597,642.833c2.186-1.357,3.118-2.076,3.118-3.115c0-3.251-12.738-16.848-13.031-17.043
			C614.844,629.474,617.374,636.489,621.597,642.833z M508.12,738.087c0.827,3.29,8.819,19.356,10.345,21.084
			c2.121-0.589,3.067-1.001,3.067-1.824C521.532,756.746,522.249,757.252,508.12,738.087z M676.067,221.214
			c0.207,0.01,0.413,0.02,0.62,0.03c0.152-1.179,0.482-2.377,0.482-3.54c0-1.768-0.889-3.057-1.482-3.478
			c-4.036-2.866-8.49-4.615-13.459-4.615c-1.789,0-1.185,0.046-2.699,0.81C666.516,212.331,673.047,214.141,676.067,221.214z
			 M605.147,258.74c3.645,3.918,2.255,2.132,5.381,6.73c2.036-2.8,4.257-5.134,5.988-8.444
			C612.515,257.629,609.022,258.156,605.147,258.74z M562.112,754.196c0,0.551-0.018,1.11-0.055,1.677
			c1.441-0.733,3.786-2.523,3.786-4.8c0-0.81,0.174-0.374-6.311-11.245c-0.199,0.076-0.399,0.152-0.598,0.228
			C560.56,744.545,562.112,749.047,562.112,754.196z M615.122,369.739c-5.116,7.111-7.87,13.061-7.87,16.894
			c0,0.514,0.049,0.989,0.149,1.424C611.249,382.316,613.254,376.052,615.122,369.739z M778.932,416.096
			c0-4.6-0.665-9.147-3.038-13.679c-0.734,1.071-1.009,1.921-1.009,2.757c0,0.848,3.476,14.889,3.819,16.147
			C778.837,419.57,778.932,417.829,778.932,416.096z M604.741,267.311c0.749,0,1.577-0.165,2.489-0.456
			c-1.327-3.296-3.562-5.278-6.456-6.84c-0.5,0.766-0.695,1.462-0.695,2.109c0,1.249,0.728,2.318,1.401,3.361
			C602.314,266.779,603.398,267.311,604.741,267.311z"/>
	</g>
</g>
</svg>
