<?xml version="1.0" encoding="iso-8859-1"?>
<!-- Generator: Adobe Illustrator 22.1.0, SVG Export Plug-In . SVG Version: 6.00 Build 0)  -->
<svg version="1.1" id="Layer_1" xmlns="http://www.w3.org/2000/svg" xmlns:xlink="http://www.w3.org/1999/xlink" x="0px" y="0px"
	 width="1000px" height="1200px" viewBox="0 0 1000 1200" enable-background="new 0 0 1000 1200" xml:space="preserve">
<g>
	<g>
		<path fill="#ECE4DA" d="M293.125,352.389c0.973-69.707,65.094-129.792,83.05-166.306c7.551-15.354,12.028-24.092,12.028-43.163
			c0-4.884-0.401-6.219-0.401-12.806c0-14.398,0.174-32.864,17.172-32.864c77.425,0,94.949,137.623,96.024,145.399
			c31.247,226.179,188.22,178.723,188.22,298.465c0,17.443-8.431,37.112-27.175,37.112c-16.7,0-33.487-14.274-36.003-16.407
			C446.323,409.497,304.798,503.478,293.125,352.389z"/>
		<path fill="#ECE4DA" d="M448.628,701.113c33.357,0.069,64.076,6.726,64.076,20.011c0,10.716-12.735,24.233-12.735,33.83
			c0,32.057,141.56,37.146,141.56,73.298c0,0.524,1.772,13.441-34.115,23.387c-211.666,58.667-131.316,73.49-227.525,73.49
			c-41.896,0-83.234-21.556-83.234-40.584c0-13.77,21.936-32.112,21.936-41.461c0-21.071-115.524-2.441-115.524-46.306
			C203.065,761.455,318.779,701.683,448.628,701.113z"/>
	</g>
	<g>
		<path fill="#603813" d="M457.191,854.277c-5.808,1.162-11.15,3.434-16.447,5.805c-2.534,1.134-6.832,22.802-23.505,22.802
			c-3.037,0-5.738-0.827-8.368-2.536c-19.814-12.879-18.958-22.355-23.292-25.568c-17.293-12.82-14.843-27.314-19.783-29.437
			c-6.65-2.857-10.717-9.088-10.717-16.099c0-6.102,4.407-21.66,4.407-42.475c0-3.483-0.123-6.971-0.382-10.465
			c-0.333-4.494-9.531-8.238-9.531-20.062c0-0.906,0.06-1.829,0.182-2.767c4.169-32.154-0.632-52.08,10.071-66.44
			c-8.381-0.889-8.935-1.388-8.935-10.851c0-60.232,43.325-71.54,44.399-72.75c-14.052-1.701-28.975-2.948-29.261-2.948
			c-1.924,0-2.804,0.748-5.156,0.748c-6.811,0-15.968-9.659-15.968-22.096c0-12.632,9.915-22.182,19.875-29.845
			c-4.903-14.202-8.162-28.942-14.506-43.07c-31.943,6.27-23.957,0.095-64.614,41.751c-16.388,16.791-21.677,72.42-53.848,72.42
			c-2.111,0-4.8-0.332-6.191-0.332c-1.083,0-4.249,1.587-6.997,1.587c-2.375,0-3.345-1.051-3.345-3.592
			c0-4.025,1.826-13.012,1.839-13.082c-8.883-5.385-8.682-5.916-11.099-6.271c-1.608-0.236-2.499-1.442-2.499-2.901
			c0-1.615,1.531-4.044,2.49-5.254c8.474-10.693,10.255-18.077,19.817-36.032c1.725-3.238,1.073-6.461,3.349-11.257
			c14.565-30.698,23.64-32.734,24.682-34.27c16.219-23.913,31.597-39.25,34.548-42.801c-0.703-0.039-1.202-0.104-1.663-0.104
			c-0.951,0-3.081,0.355-4.713,0.355c-0.263,0-0.336-0.007-0.609-0.007c-11.395,0-22.117,22.392-56.55,22.392
			c-7.598,0-17.044-3.408-17.044-5.549c0-0.733,0.633-1.625,1.866-2.928c-0.917-0.228-4.59-0.649-4.59-3.457
			c0-4.086,17.176-14.433,18.711-15.303c24.457-13.864,22.73-21.785,35.217-25.104c29.111-7.737,33.161-17.764,62.896-20.605
			c-4.946-10.621-7.604-22.289-11.231-33.975c-14.889,8.179-66.251,40.71-93.675,40.71c-22.303,0-26.693-21.24-26.693-26.376
			c0-60.845,188.623-111.201,188.623-224.433c0-52.314-46.969-58.887-68.245-69.106c0,0.438-0.038,0.834-0.038,1.204
			c0,0.945,1.064,4.655,1.064,10.982c0,20.379-13.394,39.057-13.394,41.84c0,2.815,6.449,14.34,6.449,33.83
			c0,100.389-138.049,126-138.049,192.571c0,3.123,0.095,32.88,31.805,46.783c0.208-0.077,0.396-0.103,0.528-0.203
			c0.505-0.381,1.021-0.969,1.604-0.969c1.116,0,1.365,1.739,1.365,2.48c0,0.987-0.586,1.68-1.616,1.957
			c-38.764,10.425-64.785,53.556-84.249,53.556c-13.043,0-14.857-22.568-14.857-33.019c0-104.824,192.59-271.755,192.59-297.765
			c0-0.24-1.116-14.413-43.836-50.596c0,0.614-0.013,1.067-0.013,1.462c0,0.872,0.119,1.555,0.119,3.721
			c0,104.536-196.98,187.133-196.98,306.379c0,35.392,30.242,38.41,30.242,43.05c0,0.213-0.176,1.412-1.449,1.412
			c-0.271,0-31.991-9.364-31.991-44.865c0-120.253,197.015-204.159,197.015-305.621c0-6.5-1.585-9.071-1.585-10.685
			c0-1.105,0.951-1.652,1.595-1.652c0.566,0,1.065,0.362,1.504,0.79c19.016,18.512,28.525,19.769,47.637,52.838
			c1.566-1.167,12.362-20.927,12.362-36.978c0-4.862-0.701-9.701-1.793-14.519c-0.302-1.333-3.498-4.286-3.498-5.539
			c0-1.586,1.321-4.122,1.646-4.751c0.196-0.379,0.53-0.552,0.895-0.552c0.391,0,0.817,0.199,1.144,0.557
			c1.492,1.629-0.422,2.886,4.396,6.53c42.197,31.905,123.515-11.183,123.515,99.758c0,100.404-108.371,165.297-108.371,174.223
			c0,2.492,11.385,51.236,24.282,51.236c1.836,0,7.258-1.032,17.715-1.032c12.515,0,23.116,1.847,47.37,1.847
			c24.473,0,32.988-2.728,49.067-2.728c13.988,0,27.279,2.878,39.034,11.364c210.857,152.207,200.743,221.607,270.987,406.473
			c11.17,29.397,94.907,63.859,94.907,142.326c0,7.129-0.831,91.702-65.991,91.702c-83.113,0-119.373-105.224-223.422-134.224
			c-39.479-11.003-45.15-14.66-47.601-14.83c0.292,1.261,43.456,99.993,43.456,127.315c0,7.137-1.081,13.037-2.199,20.807
			c-0.132,0.919-1.082,2.62-2.276,2.62c-1.513,0,2.677,9.564-66.91-161.726C501.528,883.805,475.988,880.863,457.191,854.277z
			 M573.121,634.996c-0.086,0.144-0.172,0.289-0.258,0.433c70.604,80.562,46.346,174.721,84.068,315.382
			c0.733,2.734,90.016,98.05,147.083,98.05c64.307,0,62.596-86.892,62.596-88.436c0-40.738-23.748-74.182-66.95-110.365
			C609.716,690.971,645.362,656.87,573.121,634.996z M652.223,946.934c-35.361-191.08-28.002-216.388-51.943-263.423
			c-26.037-51.153-32.314-56.44-122.306-82.631c-0.525,1.784-19.486,244.957-19.486,245.089c0,9.396,12.579,36.072,127.17,70.12
			C626.594,928.253,647.706,944.675,652.223,946.934z M371.328,404.419c-2.91,0-5.923,0.098-9.19,0.098
			c2.318,2.005,6.681,5.324,6.681,11.294c0,12.008-17.323,26.684-31.26,26.684c-3.581,0-16.282-1.606-16.282-14.153
			c0-4.638,2.02-8.795,3.024-11.158c-15.577,8.506-67.957,68.937-67.957,74.351c0,0.569,0.488,1.489,0.488,3.797
			c0,1.412-0.206,2.813-0.527,4.192c-5.696,24.495-11.317,26.914-15.051,32.804c38.483-0.438,54.211-40.861,65.233-44.883
			c25.878-9.444,35.039-25.375,58.04-25.375c14.383,0,74.69,4.175,94.591,4.175c2.663,0,4.163-1.318,9.557-1.318
			c28.948,0,74.096,49.082,74.096,60.988c0,3.125,1.947,13.272-51.035,13.272c-46.032,0-78.322-14.192-100.525-14.192
			c-26.099,0-43.227,21.244-43.227,33.953c0,6.875,3.842,13.551,7.801,16.614c-0.52-2.271-1.842-4.701-1.842-9.343
			c0-15.595,17.782-31.93,24.32-31.93c4.866,0,10.693,6.326,10.693,14.951c0,1.749-0.151,15.812-17.186,28.489
			c10.82,1.12,21.189,2.193,31.939,3.305c-1.665-2.35-3.311-4.097-3.311-7.626c0-9.77,14.406-23.27,34.24-23.27
			c19.631,0,33.404,13.933,33.404,25.158c0,13.194-14.319,13.918-17.559,14.537c0.838,0.609,1.597,0.82,2.358,1.024
			c100.079,26.739,134.681,53.299,192.865,53.299c16.534,0,41.92-11,41.92-38.539c0-9.108-3.093-17.969-8.262-24.214
			c-2.41-2.912-157.856-178.027-217.928-178.027c-4.606,0-26.324,2.794-48.389,2.794
			C394.183,406.17,379.166,404.419,371.328,404.419z M381.934,663.133c-0.004,0.159-0.008,0.318-0.012,0.477
			c7.179,2.229,26.378,7.703,26.378,22.598c0,9.798-10.187,24.344-25.625,24.344c-17.282,0-26.069-19.855-26.557-20.781
			c-0.663,1.271-3.255,47.096-3.255,47.167c0,5.622,3.192,9.796,7.051,13.909c0.205-0.38,3.386-9.914,32.434-17.614
			c9.986-2.647,2.021-9.049,11.758-12.26c4.64-1.531,57.987-5.497,58.057-5.497c0.095,0,0.184,0.014,0.264,0.049
			c1.164,0.516,1.768,0.894,1.768,1.435c0,7.986-102.294,16.449-102.294,38.962c0,1.834,0.735,5.132,0.735,13.055
			c0,17.551-4.365,35.984-4.365,40.145c0,0.227-0.054,9.974,9.127,13.391c1.451-14.949,18.135-24.617,24.106-24.617
			c3.779,0,6.611,1.924,8.789,3.115c1.056-2.933,1.376-9.316,10.132-13.105c10.482-4.535,37.471-8.172,37.541-8.172
			c1.461,0,2.03,1.122,2.03,1.805c0,1.533-8.757,13.184-21.954,18.907c-6.148,2.666-37.741,13.672-37.741,50.027
			c0,13.845,17.562,26.555,21.036,26.555c2.205,0,6.668-1.677,10.411-5.021c20.092-17.951,10.663-11.351,34.232-21.096
			c-0.584-1.551-0.763-3.098-0.763-4.647c0-1.361,18.467-232.754,19.32-246.268c-8.165-3.151-56.519-14.311-69.209-14.311
			c-31.085,0-51.045,39.338-51.045,64.086c0,0.519,0.063,1.052,0.242,1.596c1.52-1.137,9.207-8.412,32.888-8.412
			c7.461,0,14.896,0.93,22.26,2.819c43.844,11.25,58.857,4.807,58.857,9.271C468.533,658.794,459.38,654.683,381.934,663.133z
			 M349.019,94.352c0.617,1.669,33.095,15.89,33.095,58.205c0,19.956-7.192,29.531-7.192,37.469c0,0.911,0.065,1.228,0.065,1.554
			c0,43.544-106.318,116.777-106.318,154.882c0,13.246,18.161,16.539,25.622,16.539c22.246,0,137.368-94.393,137.368-186.119
			C431.66,92.687,379.255,97.731,349.019,94.352z M295.82,140.243C133.199,332.282,104.502,379.1,104.502,434.04
			c0,0.39-0.202,29.52,11.64,29.52c8.918,0,20.149-11.263,39.391-27.801c22.704-19.515,36.006-22.457,38.495-24.25
			c-3.021-1.7-6.055-3.148-8.81-5.01c-15.166-10.249-21.693-31.428-21.693-43.324c0-69.218,137.918-93.695,137.918-192.127
			C301.442,153.615,296.378,141.673,295.82,140.243z M595.62,640.678c0.157,0.298,0.197,0.494,0.316,0.579
			c63.588,45.472,110.731,147.995,178.304,184.41c-0.023-0.073-73.758-214.917-83.714-227.782c-0.101,0.482-0.136,0.936-0.136,1.374
			c0,1.297,0.365,2.856,0.365,6.432c0,19.728-14.986,41.685-45.147,41.685C627.848,647.375,601.9,641.918,595.62,640.678z
			 M370.923,196.659c-0.136-0.047-0.272-0.094-0.408-0.14c-60.211,105.777-176.911,126.199-176.911,179.394
			c0,8.806,6.332,23.521,23.614,23.521c22.057,0,66.928-25.594,78.76-32.998c-0.706-0.066-30.516-0.297-30.516-19.948
			C265.461,307.423,358.765,244.892,370.923,196.659z M447.649,531.645c12.587,3.579,36.902,4.288,43.439,4.288
			c47.232,0,48.477-7.253,48.477-10.003c0-8.153-42.063-57.907-71.105-57.907c-1.47,0-2.987,0.143-4.59,0.448
			c3.207,3.299,5.236,7.73,5.236,19.336c0,6.812-3.454,25.241-11.707,33.498C455.893,522.812,455.232,527.034,447.649,531.645z
			 M241.524,535.567c-2.291,0-4.612-0.177-6.982-0.604c-2.244,3.308-3.54,10.347-3.54,10.914c0,3.491,7.318,4.427,7.318,19.652
			c0,21.855-10.033,29.207-10.033,30.886c0,0.846,1.331,0.899,1.837,0.899c31.752,0,36.742-54.561,52.831-71.135
			c49.035-50.512,20.256-32.493,159.003-56.627c-0.021-0.183-0.043-0.365-0.064-0.548c-3.197-0.197-68.183-3.512-74.338-3.512
			c-3.873,0-7.749,0.054-11.62,0.063c-7.523,0.016-28.244,17.494-49.316,25.379C298.04,494.143,279.849,535.567,241.524,535.567z
			 M384.497,480.994c0.07,0.056,55.771,41.28,63.691,41.28c9.856,0,17.72-21.015,17.72-35.358c0-6.901-1.172-10.301-2.353-13.488
			c-0.801-2.16-2.535-2.877-4.727-2.877C454.412,470.55,457.778,470.531,384.497,480.994z M570.992,1046.006
			c0.191-0.056,0.382-0.112,0.573-0.168c0.074-0.182,1.512-7.454,1.512-15.145c0-26.924-43.148-128.901-46.382-130.349
			c-20.266-9.069-15.12-6.926-18.327-8.137C529.378,943.807,550.185,994.906,570.992,1046.006z M298.758,404.789
			c-0.106-0.124-0.212-0.249-0.318-0.373c-9.972,4.333-19.943,8.666-29.729,12.918c0.986,2.124,2.414,3.892,2.414,7
			c0,5.683-6.48,13.279-15.164,13.279c-2.128,0-4.367-0.417-6.688-1.26c-4.271,11.793-20.711,14.427-36.774,26.525
			c5.147,2.466,9.145,2.718,12.24,2.718c33.111,0,43.826-21.688,55.731-22.313c26.026-1.367,12.928-16.037,60.831-39.589
			c-4.897-1.116-9.155-2.261-13.74-2.713c0.236,0.909,0.345,1.765,0.345,2.577c0,8.272-13.464,16.163-21.628,16.163
			c-9.994,0-10.276-6.844-10.276-7.954C296.001,408.379,298.064,405.853,298.758,404.789z M446.223,586.763
			c3.909-0.443,18.611,0.152,18.611-11.43c0-8.376-11.044-21.995-30.443-21.995c-19.805,0-30.778,13.793-30.778,19.906
			c0,1.875,0.745,3.677,2.403,5.366C409.245,581.901,402.076,580.72,446.223,586.763z M375.797,666.397
			c-18.343,0.804-17.929,15.166-17.929,15.491c0,10.215,11.811,25.439,24.654,25.439c12.106,0,22.541-11.607,22.541-20.859
			C405.063,675.342,389.284,666.733,375.797,666.397z M438.125,529.711c0.075-0.195,0.149-0.39,0.224-0.585
			c-31.342-22.836-51.174-47.124-60.407-47.124c-0.844,0-1.725,0.131-2.663,0.408c-2.337,0.691-2.449,0.08-6.849,1.326
			c-0.118,1.006-0.193,1.975-0.193,2.919c0,4.281,1.161,4.346,2.701,10.063c2.709,10.051,4.175,10.025,9.569,26.048
			c4.183-0.574,6.917-1.05,10.905-1.05C402.998,521.715,437.674,529.614,438.125,529.711z M352.333,405.627
			c-0.274,0-0.553,0.004-0.834,0.011c-11.172,0.562-27.022,7.822-27.022,23.055c0,8.819,9.327,10.575,13.106,10.575
			c11.289,0,27.967-12.541,27.967-23.369C365.55,415.681,365.467,405.627,352.333,405.627z M385.817,549.351
			c-0.306-8.374-5.362-11.844-7.494-11.844c-5.046,0-21.237,15.523-21.237,28.406c0,0.165,0.08,10.85,5.9,10.85
			C376.018,576.762,384.165,560.402,385.817,549.351z M413.845,650.461c-0.696-0.849-12.696-4.164-26.792-4.164
			c-20.331,0-32.547,4.397-32.547,14.879c0,1.815,0.686,2.603,2.528,2.603c4.558,0,41.839-6.678,42.714-8.5
			C401.955,650.686,406.093,651.082,413.845,650.461z M404.352,807.85c0,0.824-0.1,1.666-0.245,2.532
			c14.008-12.031,32.581-13.454,40.25-26.811c-23.056,3.914-41.063,5.041-41.063,19.882
			C403.294,804.433,404.352,805.037,404.352,807.85z M370.803,821.972c0,0.516,0.036,1.045,0.112,1.59
			c0.864,0.06,1.721,0.214,2.559,0.214c13.28,0,21.65-8.542,24.591-11.21c1.647-1.494,1.927-3.164,1.927-4.913
			c0-0.692-0.044-1.396-0.064-2.107c-0.024-0.839-3.471-4.361-8.411-4.361C385.576,801.185,370.803,812.026,370.803,821.972z
			 M371.647,827.203c0.853,8.181,9.783,22.168,15.296,23.958c0.81-11.567,3.608-22.556,9.677-32.595
			C386.121,825.673,383.408,826.336,371.647,827.203z M305.641,416.614c10.354-0.684,19.111-8.605,19.111-13.095
			c0-4.097-5.531-3.686-5.78-3.686c-8.244,0-19.812,5.961-19.812,12.056C299.161,416.153,305.125,416.491,305.641,416.614z
			 M341.225,400.474c-7.349-11.298-11.031-23.561-15.078-36.083c-0.143,0.859-0.204,3.137-0.204,6.122
			c0,9.018,0.555,24.492,1.072,26.815C331.52,398.326,336.051,399.329,341.225,400.474z M255.878,434.663
			c5.54-0.51,12-4.938,12-10.788c0-2.917-1.853-4.807-4.703-4.807c-3.086,0-13.959,3.773-13.959,10.05
			C249.216,430.771,250.079,434.577,255.878,434.663z M354.058,485.83c3.49,10.397,6.887,20.515,10.311,30.716
			c0.186-1.459,0.696-25.165,0.696-25.235c0-2.157-0.981-3.918-1.984-5.696c-0.385-0.683-0.993-0.894-1.666-0.894
			C360.982,484.721,361.183,484.707,354.058,485.83z M232.279,560.977c0-3.226-0.942-6.413-3.104-9.646
			c-3.911,12.808-6.915,25.344-9.345,38.055C222.892,585.394,232.279,569.657,232.279,560.977z M313.951,360.903
			c2.607,11.469,7.447,26.427,9.12,28.305c-0.218-11.197-0.439-22.48-0.662-33.932C319.506,357.207,316.841,358.981,313.951,360.903
			z M400.998,730.576c0.33-0.058,43.829-9.688,45.179-10.143C399.152,721.6,401.436,724.795,400.998,730.576z M253.069,495.857
			c0-0.427-0.017-0.826-0.051-1.194c-15.673,28.901-15.12,34.366-15.301,35.487C246.122,524.679,253.069,504.527,253.069,495.857z
			 M367.874,525.084c3.593-0.474,6.206-1.793,8.817-4.542c-2.845-6.914-5.726-13.915-8.817-21.428
			C367.874,508.119,367.874,516.602,367.874,525.084z M235.043,567.946c-0.174-0.036-0.349-0.071-0.523-0.107
			c-10.855,24.617-10.538,19.688-13.946,28.869C233.904,592.305,234.867,569.605,235.043,567.946z M246.066,435.027
			c0-0.257-0.028-0.526-0.089-0.81c-0.661,0.093-1.321,0.028-1.816,0.284c-1.862,0.962-3.918,1.749-5.451,3.109
			c-0.07,0.062-12.678,11.384-14.248,13.962C243.359,443.153,246.066,436.89,246.066,435.027z M234.433,531.14
			c0.473-11.334,8.362-20.535,11.298-29.144c-1.715,0.676-14.781,21.126-15.676,29.144
			C231.651,531.14,232.925,531.14,234.433,531.14z M450.039,525.594c-10.917-1.209-12.116-3.775-30.869-16.138
			c1.335,3.171,23.353,19.504,25.382,19.504C445.106,528.96,448.147,528.33,450.039,525.594z M217.866,557.483
			c0.17,0.126,0.339,0.252,0.509,0.378c2.62-2.141,3.946-5.642,7.314-7.005c1.559-0.63,4.616-14.844,4.968-16.333
			c-0.318-0.02-0.566-0.037-0.768-0.037C228.861,534.486,229.933,532.878,217.866,557.483z M222.117,559.466
			c0-0.056-0.057-0.131-0.063-0.147c-10.58,9.183-11.39,9.222-15.315,16.141c0.719,0.075,1.253,0.126,1.694,0.126
			C212.972,575.586,222.117,561.383,222.117,559.466z M426.046,655.81c-0.535-0.416-0.706-0.661-0.909-0.689
			c-4.267-0.608-8.529-1.328-12.839-1.328c-9.219,0-9.411,2.179-9.411,3.312c0,0.18,0.014,0.372,0.044,0.578
			C410.571,657.063,418.115,656.452,426.046,655.81z M208.81,456.558c0.106,0.001,0.211,0.001,0.316,0.001
			c3.158,0,6.136-0.347,8.423-2.785c9.488-10.112,7.631-8.11,8.726-9.54C219.821,447.56,213.836,451.336,208.81,456.558z
			 M418.093,879.823c5.973,0,12.047-5.298,14.703-13.408c-10.028,8.982-5.743,5.531-16.456,13.253
			C416.921,879.772,417.507,879.823,418.093,879.823z M220.891,569.14c-3.196,3.288-5.972,6.144-8.747,9
			c1.915,1.814,3.295,2.607,5.831,3.224C218.902,577.476,219.83,573.588,220.891,569.14z"/>
	</g>
</g>
</svg>
