<?xml version="1.0" encoding="iso-8859-1"?>
<!-- Generator: Adobe Illustrator 22.1.0, SVG Export Plug-In . SVG Version: 6.00 Build 0)  -->
<svg version="1.1" id="Layer_1" xmlns="http://www.w3.org/2000/svg" xmlns:xlink="http://www.w3.org/1999/xlink" x="0px" y="0px"
	 width="1000px" height="1200px" viewBox="0 0 1000 1200" enable-background="new 0 0 1000 1200" xml:space="preserve">
<g>
	<g>
		<path fill="#ECE4DA" d="M800.406,532.214c0-27.18-33.906-48.316-33.906-69.553c0-14.166,3.373-25.061,3.373-38.845
			c0-5.496,0.241-16.413-27.82-16.413c-65.657,0-124.04,45.154-140.488,45.154c-3.075,0-3.888-1.035-3.888-2.642
			c0-24.137,90.018-96.589,91.544-110.116c0.571-5.062,0.848-12.589,0.848-12.682c0-4.396-4.437-6.899-8.425-6.899
			c-33.7,0-129.039,65.252-147.336,109.061c-14.477,34.662-14.9,52.117-14.9,61.35c0,1.632,0.061,4.532,0.061,10.757
			c0,71.584-10.826,85.776-10.826,145.09c0,94.704,54.534,181.023,77.49,181.023c22.716,0,28.805-60.165,63.319-123.613
			C696.212,617.927,800.406,571.344,800.406,532.214z"/>
		<path fill="#ECE4DA" d="M221.116,427.04c0.128-15.24,14.547-40.348,14.547-46.939c0-3.374-5.787-0.395-25.872-17.546
			c-6.744-5.758-9.58-13.465-10.652-22.066c-5.319-42.682-62.4-32.682-62.4-60.919c0-23.989,32.401-59.662,35.147-74.085
			c0.888-4.663,1.787-20.389,18.804-29.372c21.557-11.378,96.675-29.153,153.097-29.153c65.542,0,92.189,13.642,92.189,35.522
			c0,7.794-3.449,18.436-4.457,21.651c-42.092,134.375-9.775,164.14-40.171,201.137c-15.059,18.329-112.45,101.961-116.98,101.961
			c-1.653,0-3.057-0.867-4.299-2.633c-14.333-20.367-1.8-57.63-17.763-60.238C223.496,439.654,223.021,443.884,221.116,427.04z"/>
	</g>
	<g>
		<path fill="#603813" d="M226.713,337.047c0,1.745,0.545,3.426,1.199,5.107c0.872,0.186,1.727,0.279,2.566,0.279
			c6.047,0,9.431-5.051,16.477-5.051c22.25,0,52.317,30.582,55.707,31.062c1.489,0.211,2.91,1.86,2.91,2.889
			c0,5.886-56.316,6.055-56.316,29.954c0,2.298,0.431,4.79,1.227,7.496c0.497,1.69,3.801,4.413,7.748,4.413
			c1.141,0,2.335-0.203,3.588-0.613c0.534-5.94,4.397-9.517,8.841-12.802c18.769-13.875,22.402-18.089,26.301-18.089
			c2.181,0,4.378,1.664,4.378,4.526c0,20.625-35.555,29.074-35.826,29.163c0.995,3.717,2.511,7.042,4.559,10.13
			c9.785,14.753,7.322,72.157,60.796,72.157c40.159,0,128.833-47.711,172.798-76.047
			c-100.877-35.962-105.377-75.024-115.724-142.361c-1.187-7.725-23.416-13.705-23.416-102.196c0-30.517,2.348-28.208,3.348-28.208
			c1.65,0,18.698,91.155,22.735,125.678c0.517,4.426,27.782,39.109,119.034,39.109c44.071,0,140.103-14.686,214.764-14.686
			c68.139,0,84.838,13.021,84.838,50.73c0,83.634-50.125,171.091-52.799,191.894c38.251-7.411,110.018-44.304,124.255-44.304
			c1.923,0,6.379,0.428,6.379,8.186c0,15.483-35.222,56.596-63.151,147.106c-74.819,242.469-39.992,224.653-148.903,302.543
			c-61.238,43.797-90.759,101.482-97.42,101.482c-2.891,0-1.009-0.643-24.138-10.696c-274.555-119.338-95.164-31.874-405.92-247.669
			C96.75,762.954,42.032,735.635,42.032,683.447c0-92.06,183.163-106.309,255.469-192.744
			c-10.047-10.934-19.664-18.247-25.208-53.696c-0.797-5.097-8.436-12.676-9.874-20.875c-2.491,0.126-3.101,0.169-3.785,0.169
			c-5.316,0-12.621-2.685-12.621-15.058c0-12.305,11.056-16.907,14.688-18.901c-32.573-13.391-37.14-42.441-37.14-45.611
			c0-3.912,1.118-5.209,1.118-15.921c0-3.513-0.133-7.031-0.241-10.548c-0.21-6.818-61.777-16.35-61.777-45.698
			c0-9.555,11.89-23.628,17.966-31.129c12.632-15.593,8.663-20.059,12.207-20.059c0.667,0,1.112,1.186,1.112,1.634
			c0,13.593-27.973,35.126-27.973,49.677c0,19.998,33.402,29.922,61.37,41.609c4.03-2.404,8.056-5.28,10.944-9.774
			c-13.764-5.454-33.119-8.931-33.119-17.334c0-3.896,5.342-3.978,6.46-3.978c2.707,0,6.739,1.253,9.014,2.302
			c19.401,8.949,16.47,16.532,23.477,16.532c4.614,0,11.433-6.913,11.433-16.489c0-16.185-15.841-22.483-15.841-27.458
			c0-1.372,1.193-3.505,3.962-3.505c8.487,0,28.364,13.777,28.364,27.543c0,3.755-1.381,7.204-3.843,10.331
			c-10.597,13.457-20.142,12.409-22.969,14.194c-16.652,10.514-17.39,11.054-17.39,13.682c0,0.256,0.007,0.531,0.007,0.837
			c0,1.128,0.091,3.75,0.091,7.062C227.932,331.675,226.713,335.186,226.713,337.047z M186.576,569.139
			c-0.081,0-0.255-0.031-0.452-0.031c-13.568,0-140.823,56.966-140.823,114.32c0,47.238,52.462,77.087,68.106,87.681
			c272.181,184.31,220.696,185.635,392.511,250.875c33.66,12.781,68.424,30.556,72.165,30.556c1.098,0,1.55-0.598,1.844-2.107
			c35.768-183.237,112.805-410.551,112.805-429.063c0-0.141,0-0.294,0-0.461c0-3.348-1.466-8.161-1.466-21.184
			c0-1.729,0.02-3.286,0.02-4.703c0-6.736-0.46-10.264-5.757-13.68c-2.206-1.422-14.623-8.765-25.32-9.081
			c-12.974-0.384-16.961-7.697-33.503-15.783c-133.291-65.158-121.016-68.884-126.102-68.884c-2.8,0-17.722,10.519-17.722,46.576
			c0,64.648,11.878,89.81,11.878,146.445c0,26.115-2.987,62.597-4.249,73.561c-2.138,18.575-26.03,17.495-26.03,27.398
			c0,1.458,0.472,3.085,0.472,11.586c0,16.105-55.128,151.818-58.108,151.818c-1.458,0-20.44-34.757-28.194-55.357
			C324.551,745.897,200.494,626.59,186.576,569.139z M311.333,497.921c8.89,205.016,126.809,331.952,126.809,334.136
			c0,11.876-22.142,64.187-29.595,102.898c1.927-1.369,53.326-127.597,53.326-141.617c0-2.906-0.725-10.326-0.725-11.299
			c0-13.935,24.767-10.975,26.269-29.258c1.253-15.25,4.098-46.697,4.098-73.198c0-56.347-11.908-79.155-11.908-144.912
			c0-40.376,17.459-50.347,21.027-50.347c8.637,0,2.552,9.986,93.821,53.057c60.861,28.721,41.159,22.108,54.76,28.489
			c4.433-6.853,16.212-5.553,24.004-12.027c13.137-10.916,34.577-24.667,42.829-24.667c2.332,0,4.63,0.653,6.846,1.848
			c12.505,6.737,11.302,14.488,16.24,17.854c5.79,3.946,8.666,4.268,9.522,4.268c0.167,0,0.257-0.012,0.277-0.012
			c0.106,0,6.418-0.228,6.418-3.346c0-0.439-0.078-0.951-0.217-1.565c-4.861-21.555-1.664-23.829-5.615-27.587
			c-27.914-26.547-37.509-39.786-49.27-39.786c-2.096,0-4.254,0.384-6.488,1.157c-61.646,21.349-79.484,51.237-95.79,51.237
			c-1.793,0-2.909-1.11-2.909-2.588c0-3.28,4.326-5.805,12.791-10.213c62.449-32.518,29.273-18.663,83.724-55.339
			c24.323-16.383,69.042-18.065,69.342-39.231c-0.99,0.23-3.576,0.959-7.33,0.959c-14.257,0-20.219-8.906-20.219-9.768
			c0-0.577,0.409-1.163,1.282-1.163c0.495,0,1.063,0.16,1.553,0.271c0.276,0.062,0.491,0.483,0.694,0.769
			c3.45,4.854,13.209,6.683,17.441,6.683c2.326,0,4.572-0.527,6.744-1.431c2.281-0.949,3.34-2.644,3.34-5.389
			c0-0.008,0-0.016,0-0.024c-9.822-2.994-32.399-5.282-33.853-5.282c-81.992,0-176.341,90.352-187.244,90.352
			c-3.18,0-3.367-2.369-3.367-2.897c0-1.5,1.338-3.472,2.378-4.245c51.503-38.233,12.099,13.179,77.601-89.591
			c20.246-31.766,79.641-40.229,79.641-70.067c0-0.07-0.099-5.173-0.564-7.087c-0.469,0.258-0.796,0.368-1.035,0.579
			c-12.774,11.266-32.756,13.057-34.862,13.057c-0.578,0-6.7-0.605-6.7-4.054c0-1.525,0.973-2.689,2.087-4.364
			c-29.506,7.537-31.609,9.098-36.989,12.858c-92.814,64.86-47.094,30.482-101.467,111.443
			c-14.996,22.329-16.571,29.061-43.491,29.061c-21.386,0-53.842-13.182-58.856-13.182c-7.304,0-53.448,27.591-86.896,27.591
			C321.836,500.95,317.116,499.352,311.333,497.921z M584.546,1043.555c0.196,0.034,0.393,0.068,0.589,0.102
			C718.276,869.83,723.77,994.118,772.661,774.243c45.423-204.276,77.883-224.113,100.861-272.312
			c-5.276,1.544-16.884,5.975-21.1,7.8c-76.893,33.3-90.848,33.412-94.759,35.365c0.591,2.188,0.971,3.335,0.971,4.785
			c0,5.844-7.999,6.484-9.667,6.484c-3.734,0-5.711-1.338-9.94-3.563c0.732,3.008,2.15,8.471,2.15,12.229
			c0,20.409-47.795,43.25-47.795,68.718c0,1.562,0.183,2.058,0.183,2.954C693.565,767.057,661.799,679.133,584.546,1043.555z
			 M582.972,470.415c0.074,0.091,0.148,0.183,0.222,0.274c12.858-6.771,24.543-12.527,35.889-21.938
			c36.761-30.491,105.956-40.645,111.608-40.645c0.557,0,1.114,0.04,1.656,0.11c26.147,3.364,35.604,4.056,35.604,8.993
			c0,1.007-0.361,2.219-1.034,3.722c-1.2,2.68-2.002,1.005-3.116,7.092c-4.885,26.682-36.313,10.602-102.581,63.506
			c3.235-0.154,28.891-14.047,39.218-14.047c14.743,0,54.913,40.406,54.913,50.518c0,0.1-0.001,0.126-0.001,0.194
			c0,1.174,0.193,1.95,0.441,3.398c44.82-104.962,50.191-153.075,50.191-182.018c0-30.799-8.565-47.355-81.278-47.355
			c-72.993,0-171.731,14.685-214.669,14.685c-88.521,0-113.609-31.091-118.313-34.53c1.522,11.119,3.859,28.296,7.871,43.444
			c18.82,71.067,99.965,92.577,106.911,92.577c5.438,0,7.052-4.992,47.051-27.159c11.125-6.165,17.235-20.762,46.062-35.85
			c20.412-10.684,21.847-15.817,40.214-20.492c48.281-12.288,50.531-19.068,59.369-19.068c2.39,0,3.472,2.164,3.472,4.041
			c0,0.647-0.343,4.698-0.343,6.762c0,2.93,0.211,5.881,0.211,8.807c0,40.009-59.393,19.874-105.321,113.579
			C590.893,461.924,584.243,468.437,582.972,470.415z M300.49,492.394c-49.264,53.372-109.988,74.39-109.988,78.188
			c0,15.987,26.014,50.77,36.121,63.346c130.305,162.139,158.212,274.139,178.573,301.898c8.836-45.724,29.64-90.989,29.64-104.319
			c0-0.071-117.8-133.138-126.848-334.958C305.519,495.18,303.141,493.863,300.49,492.394z M883.732,504.317
			c0-2.392-0.827-3.778-3.208-3.778c-0.769,0-1.7,0.144-2.817,0.446c-99.707,194.458-51.346,100.607-137.518,395.125
			c1.32-0.89,21.571-23.446,36.977-87.095C839.686,550.723,883.732,526.717,883.732,504.317z M713.145,595.852
			c0.098,0.078,0.196,0.155,0.294,0.233c0.267-0.164,0.568-0.291,0.795-0.499C728.216,582.797,738,575.081,738,564.464
			c0-4.967-6.027-32.015-21.899-32.015c-11.4,0-41.637,24.903-58.436,36.266c7.561,0.862,10.504-0.097,25.122,7.263
			c10.666,5.371,11.843,10.061,11.843,18.595c0,2.416-0.094,5.14-0.094,8.275c0,3.992,0.153,8.65,0.848,14.187
			c0.365-0.406,16.873-43.71,28.818-43.71c1.294,0,2.219,1.045,2.219,2.55C726.422,579.824,717.374,589.182,713.145,595.852z
			 M536.178,421.016c-0.288-0.078-0.455-0.167-0.596-0.167c-0.693,0-8.303,2.023-17.455,2.023c-4.372,0-6.281-0.39-7.482-0.39
			c-1.711,0-3.133,0.51-4.628,1.498c-52.762,34.862-75.067,42.177-79.087,45.026c11.099,0.193,37.015,0.737,46.861,0.737
			c16.477,0,26.669-1.05,35.336-10.712C523.009,443.555,536.14,421.087,536.178,421.016z M259.845,378.101
			c0-0.23,0.017-0.45,0.017-0.663c0-0.474-0.145-0.873-0.145-2.015c0-5.406,4.013-9.53,9.684-9.53c4.301,0,11.419,2.395,26.971,3.8
			c0.073-0.177,0.146-0.353,0.219-0.53c-21.293-21.102-44.647-28.587-49.66-28.587c-5.832,0-9.606,4.933-16.551,4.933
			c-0.347,0-0.699-0.014-1.056-0.043C234.451,361.185,246.225,374.294,259.845,378.101z M386.54,270.632
			c0.155-0.485,0.217-0.596,0.217-0.673c0-5.672-14.088-86.347-18.477-106.52c-0.364,0.721-0.497,0.336-0.497,11.299
			C367.783,244.196,380.188,261.895,386.54,270.632z M431.345,472.385c-0.587,0-1.175,0.007-1.763,0.007
			c-0.024,0.141-0.048,0.282-0.072,0.422c0.414,0.212,29.647,10.416,47.347,10.416c17.445,0,24.14-3.93,28.035-9.583
			c14.178-20.578,11.656-16.44,12.54-18.4c-11.132,9.715-10.207,17.829-46.431,17.829
			C457.883,473.075,434.838,472.385,431.345,472.385z M690.003,643.942c-0.164-0.018-0.329-0.035-0.493-0.052
			c-17.158,77.663-17.622,86.326-29.999,121.789C661.114,764.692,685.358,722.373,690.003,643.942z M253.661,292.248
			c2.66-1.57,15.144-8.618,15.144-18.198c0-11.024-17.691-24.03-24.105-24.03c-0.435,0-1.007,0.149-1.894,0.224
			c9.05,8.92,15.942,14.817,15.942,27.195C258.748,287.123,254.232,290.914,253.661,292.248z M553.949,395.574
			c-7.166,2.581-38.377,21.749-39.852,24.009c0.694,0,1.333-0.003,1.951-0.003c0.98,0,1.081,0.008,1.715,0.008
			c6.51,0,12.893-0.972,19.226-2.462C539.509,416.532,539.541,417.447,553.949,395.574z M265.297,411.844
			c29.355-6.613,32.863-24.967,32.863-25.237c0-1.131-1.079-1.647-1.668-1.647c-0.855,0-1.698,0.673-2.385,1.191
			C266.392,407.035,266.176,406.593,265.297,411.844z M659.78,337.326c1.293,0.826,2.545,1.078,3.815,1.078
			c14.059,0,34.883-11.557,34.883-15.415c0-0.598-0.385-1.284-1.133-2.41C659.723,333.836,660.757,335.52,659.78,337.326z
			 M264.413,380.242c0.426-0.124,0.756-0.197,1.07-0.315c15.474-5.84,22.052-5.13,25.658-7.114
			c-17.446-3.132-19.709-3.63-22.344-3.63c-3.54,0-6.127,3.223-6.127,6.244C262.67,376.809,262.973,377.073,264.413,380.242z
			 M211.08,278.312c-0.841,0-1.66,0.213-2.388,0.793c0.436,1.877,0.558,2.332,1.996,3.26c6.938,4.477,24.428,9.59,24.498,9.607
			C228.873,284.172,216.595,278.312,211.08,278.312z M599.176,529.724c7.766-1.522,13.505-6.691,19.758-10.936
			C612.218,522.198,605.066,524.825,599.176,529.724z M543.4,498.513c4.154-0.519,11.066-5.099,13.309-8.719
			C552.072,492.457,546.883,493.836,543.4,498.513z M709.725,594.047c3.055-2.805,11.227-13.881,11.932-16.225
			C716.41,582.679,712.615,588.029,709.725,594.047z M653.474,565.895c0.145,0.217,0.29,0.434,0.435,0.651
			c1.696-0.874,3.392-1.747,5.089-2.621c-0.092-0.183-0.183-0.366-0.275-0.549C656.973,564.216,655.223,565.055,653.474,565.895z"/>
	</g>
</g>
</svg>
