<?xml version="1.0" encoding="iso-8859-1"?>
<!-- Generator: Adobe Illustrator 22.1.0, SVG Export Plug-In . SVG Version: 6.00 Build 0)  -->
<svg version="1.1" id="Layer_1" xmlns="http://www.w3.org/2000/svg" xmlns:xlink="http://www.w3.org/1999/xlink" x="0px" y="0px"
	 width="1000px" height="1200px" viewBox="0 0 1000 1200" enable-background="new 0 0 1000 1200" xml:space="preserve">
<g>
	<g>
		<path fill="#EFD6BB" d="M598.825,919.227c-0.169,0-0.34,0-0.511,0c-55.386-0.75-139.167-26.749-211.973-72.049
			C201.648,732.262,154.437,756.462,154.437,674.33c0-63.974,42.784-217.469,221.033-283.784
			c172.336-64.115,229.376-139.218,293.4-139.218c15.738,0,144.766,13.98,144.766,137.906c0,69.13-47.028,107.66-47.028,229.068
			c0,34.11,4.214,83.734,4.214,112.753C770.822,892.614,647.122,919.227,598.825,919.227z"/>
	</g>
	<g>
		<path fill="#603813" d="M512.703,671.056c-4.315,24.668-0.807,44.443-15.628,53.745c-2.278,1.43-3.324,3.024-5.376,3.024
			c-3.724,0-3.373-3.97-6.252-17.89c-0.176,0.006-0.353,0.012-0.529,0.018c-8.216,25.012-25.606,25.989-25.945,25.989
			c-1.926,0-2.8-0.84-3.039-2.939c-0.707-6.214-2.522-35.96-2.522-38.248c0-6.367,1.217-10.217,1.217-11.279
			c0-0.313-0.051-0.646-0.191-1.016c-2.393,2.827-5.071,7.503-15.434,16.887c-18.04,16.336-10.547,31.176-35.449,91.636
			C385.564,834.664,276.2,931.869,217.153,967.475c-1.709,1.031-3.655,1.529-5.605,1.529c-6.139,0-14.649-5.27-14.649-21.842
			c0-27.185,160.4-447.674,160.4-455.512c0-4.623-16.747-70.83-25.656-128.081c-4.602-29.578-38.489-73.097-43.427-92.08
			c-1.149-4.419-3.784-6.504-3.784-13.487c0-1.121,0.19-4.076,0.19-10.517c0-9.495-0.545-23.641-0.545-26.722
			c0-12.26,10.929-63.239,16.78-63.239c1.507,0,4.254,1.788,5.492,5.901c2.201,7.316,7.941-9.074,16.999,72.642
			c3.757,33.889,31.068,45.853,34.403,46.074c0.149-1.181,0.43-2.326,0.43-3.464c0-2.443-0.826-29.234-0.826-52.712
			c0-5.011-0.076-5.71,1.112-12.605c2.475-14.362,59.596-58.556,64.488-58.556c1.833,0,6.394,2.289,6.394,9.562
			c0,2.85-0.618,5.606-1.621,8.263c-12.712,33.671-24.21,26.59-24.21,59.939c0,3.547,0.574,28.743,2.422,29.975
			c0-0.64-0.01-1.28-0.01-1.919c0-38.767,2.417-43.886,6.19-50.707c4.226-7.639,45.116-58.026,56.468-58.026
			c4.441,0,4.849,7.807,5.711,9.397c10.132-42.036,9.397-70.402,21.118-70.402c10.941,0,15.123,32.852,15.123,65.982
			c0,17.056-0.931,18.787-0.931,30.192c0,10.485,0.801,21.039,0.888,31.996c3.14-4.721,4.06-9.916,10.686-14.596
			c3.247-2.294,5.057-4.18,7.172-4.18c7.956,0,16.801,39.774,16.833,39.844c16.418,36.297,18.495,24.372,19.259,58.942
			c1.172,53.01,2.853,37.465,2.853,50.347c0,17.324-8.873,25.385-24.902,71.789c-46.948,135.917-36.06,85.866-60.628,143.836
			c0.792-0.214,1.192-0.265,1.542-0.424c41.028-18.665,124.975-33.107,127.299-33.107c22.922,0,312.888,274.155,312.888,431.194
			c0,26.562-11.218,49.089-37.997,49.089c-76.093,0-120.233-242.983-198.475-264.139
			C628.003,731.69,555.295,679.647,512.703,671.056z M359.676,496.062c-0.03,0.076-159.562,426.832-159.562,453.123
			c0,10.406,6.019,16.773,11.765,16.773c11.627,0,172.196-122.674,189.838-180.995c82.521-272.8,90.809-223.827,131.431-347.424
			c-1.938,1.091-50.807,70.03-134.851,70.03C376.698,507.568,366.433,502.77,359.676,496.062z M497.362,720.261
			c0.197,0.055,0.393,0.11,0.59,0.165c2.745-2.433,4.709-5.48,5.687-8.969c8.94-31.902-5.822-39.942,30.024-73.911
			c2.068-1.96,4.07-2.753,6.344-2.753c54.377,0,72.483,58.391,163.269,116.884c75.412,48.596,111.674,256.965,183.247,256.965
			c22.29,0,33.737-19.477,33.737-46.146c0-65.604-80.252-218.067-152.447-262.5c-48.234-29.686-128.965-132.543-130.592-144.794
			c-16.948-4.823-21.939-8.081-42.249-14.101c-4.709-1.396-3.508-2.581-5.743-2.581c-0.072,0-70.293,13.714-101.744,27.665
			c1.86,1.957,2.646,3.976,2.646,6.036c0,4.789-4.841,10.212-7.218,16.072c72.349-35.579,95.13-41.735,106.457-41.735
			c15.108,0,33.826,17.82,33.826,20.334c0,1.225-1.809,1.832-3.02,1.832c-1.084,0-13.383-1.959-21.239-1.959
			c-6.761,0-13.464,0.888-20.139,2.127c-3.624,0.673-71.041,41.839-72.438,42.873c4.714,1.952,6.653,4.201,6.653,8.088
			c0,5.922-9.865,24.577-21.14,24.577c-3.17,0-4.64-2.285-6.591-4.796c-4.021,9.549-5.839,19.017-5.839,28.446
			c0,11.167,2.55,22.281,7.013,33.411c0.784-0.197,1.538-0.296,2.258-0.296c5.51,0,9.128,6.754,9.128,13.636
			C497.842,716.49,497.733,716.282,497.362,720.261z M523.763,207.362c0-0.215,0.002-0.431,0.007-0.649
			c-9.649,5.871-14.985,25.641-14.985,41.463c0,9.825,5.023,23.093,5.023,46.834c0,10.84-0.818,21.668-1.637,32.491
			c-0.084,1.113-0.732,5.464-3.775,5.464c-6.294,0-8.101-18.192-8.101-32.08c0-25.044,6.974-60.618,6.974-82.503
			c0-7.013-0.798-14.269-0.798-24.418c0-14.302,0.78-22.008,0.78-38.545c0-47.306-8.031-61.073-11.656-61.073
			c-7.339,0-9.526,24.987-16.663,61.269c-20.745,105.454-14.45,123.652-25.4,123.652c-4.885,0-8.013-1.497-8.013-47.876
			c0-24.287,24.888-39.26,24.888-72.101c0-0.975-0.437-1.999-0.83-2.929c-0.302-0.714-0.8-1.152-1.451-1.152
			c-3.367,0-10.741,5.215-47.783,48.212c-19.515,22.652-6.228,72.844-14.4,72.844c-4.821,0-5.625-42.903-5.625-44.214
			c0-4.301,0.105-8.607,0.308-12.919c0.682-14.442,25.391-37.465,25.391-55.109c0-1.941-0.195-5.699-3.434-5.699
			c-2.618,0-7.375,4.01-8.104,4.622c-55.985,47.024-54.156,40.57-54.156,72.69c0,8.889,0.997,37.395,0.997,46.282
			c0,3.562-3.89,3.474-3.987,3.474c-1.219,0-2.37-0.38-3.523-0.912c-43.806-20.213-28.594-58.298-44.596-112.134
			c-0.145-0.487-0.602-0.882-1.245-1.781c0,0.985,0.046,1.738,0.046,2.396c0,1.123-0.937,7.761-1.696,10.959
			c-1.231,5.188-5.538,8.075-8.243,8.075c-1.672,0-3.289-0.846-4.834-2.534c-0.094-0.102-0.29-0.111-0.74-0.269
			c-1.212,4.941-2.415,9.849-3.638,14.835c3.385,0.086,4.307,0.547,5.912,3.151c2.637,4.278,3.539,8.656,3.539,11.757
			c0,4.322-2.398,8.319-6.049,8.319c-2.115,0-3.422-1.239-4.635-2.166c0,10.019,0,19.783,0,29.546
			c1.922-2.102,3.469-11.178,8.901-11.178c6.807,0,20.681,21.102,20.681,36.523c0,8.776-4.809,10.664-8.037,10.664
			c-3.106,0-5.929-1.456-11.92-6.852c0.515,5.287,13.248,18.174,34.15,66.905c1.7-0.914,1.19-55.753,99.942-55.753
			c24.929,0,35.005,7.055,45.228,14.223c3.101,2.174,4.407,4.874,4.407,8.136c0,11.21-10.423,19.03-18.009,28.877
			c5.728-2.619,14.874-8.185,31.569-8.185c2.771,0,5.56,0.158,8.362,0.454c39.535,4.178,45.069,0.066,45.069,41.088
			c0,6.207-1.282,14.62-1.282,18.027c0,0.471,0.019,0.996,0.019,1.662c0.446-0.577,0.658-0.758,0.752-0.987
			c15.422-37.77,16.714-39.177,16.714-48.365c0-7.379-2.87-16.416-2.87-35.9c0-0.268,0.001-0.553,0.001-1.258
			c0-49.794-1.475-32.142-17.674-68.598c-2.402-5.405-2.779-2.113-6.142-6.894C528.352,224.231,523.763,217.704,523.763,207.362z
			 M359.354,486.274c5.426-0.975,16.384-20.841,17.244-22.474C436.378,350.395,477.8,337.537,477.8,317.265
			c0-5.932-17.67-19.153-46.945-19.153c-25.823,0-96.076,5.839-96.076,57.811C334.779,377.333,357.3,477.475,359.354,486.274z
			 M451.998,382.008c0.939,56.368,20.35,82.014,38.713,82.014c12.688,0,54.057-20.036,54.057-86.269
			c0-29.691-6.393-30.649-8.731-31.376c-10.179-3.164-39.285-5.156-41.257-5.156c-9.453,0-22.152,1.937-32.819,9.962
			C452.737,358.122,453.661,363.187,451.998,382.008z M359.944,489.763c4.533,12.147,24.68,14.65,37.642,14.65
			c26.154,0,75.906-11.621,102.453-38.485c-0.38-0.094-0.5-0.148-0.574-0.148c-0.554,0-4.003,1.447-8.714,1.447
			c-28.686,0-41.857-47.142-41.857-82.596c0-15.541,2.523-25.599,2.605-26.02C398.578,414.116,376.438,484.016,359.944,489.763z
			 M466.713,730.048c7.546-3.127,15.887-16.761,15.887-27.767c0-4.947-6.48-17.177-6.48-33.752c0-8.019,1.385-15.991,3.949-23.93
			c5.161-15.976,3.551-18.735,9.894-25.485c7.447-7.925,75.795-45.006,82.826-50.872c-1.535-1.59-2.135-3.258-2.135-4.963
			c0-3.633,2.464-6.86,4.942-11.015c-18.018,3.426-85.429,35.957-85.499,35.994c3.771,1.786,5.285,4.472,5.285,7.778
			c0,8.281-11.232,21.878-22.845,21.878c-1.132,0-2.304-0.118-3.52-0.37c-0.014,0.072-12.395,68.813-12.395,78.14
			c0,2.222,0.091,4.449,0.227,6.683c9.841,1.883,11.019,14.769,11.019,17.576C467.866,722.655,467.15,726.71,466.713,730.048z
			 M589.378,700.046c2.664-5.583,3.278-15.102,3.278-20.235c0-19.468-4.046-23.404-8.339-25.637
			c-1.144-0.595-8.343-6.014-12.442-7.386c-6.821-2.283-29.849-9.057-31.584-9.057c-4.059,0-18.848,15.101-26.233,29.986
			C540.158,676.451,564.943,687.51,589.378,700.046z M797.772,717.147c0.086-0.113,0.171-0.225,0.257-0.338
			c-18.35-32.618-155.442-158.965-157.261-159.845c0.558,2.038,1.045,4.677,6.296,11.438
			C736.68,683.791,755.656,687.327,797.772,717.147z M595.838,680.214c0,7.123-0.933,14.161-3.264,21.232
			c6.277,3.354,67.746,39.317,93.235,42.279c-71.423-55.774-69.564-61.078-91.664-81.676
			C595.182,668.209,595.838,674.241,595.838,680.214z M426.002,710.066c0.151,0.101,0.301,0.202,0.452,0.302
			c2.082-5.94,6.603-9.911,11.024-13.963c22.163-20.313,19.754-23.497,29.97-89.868c-1.008-0.629-1.815-1.132-2.839-1.771
			C442.667,657.926,451.792,634.936,426.002,710.066z M472.204,176.007c-0.146-0.033-0.291-0.067-0.437-0.1
			c-12.219,31.847-23.085,38.311-23.085,56.624c0,0.07,0.441,35.788,2.438,41.528c0.528,1.519,1.62,1.85,2.427,1.85
			C458.287,275.91,456.296,266.473,472.204,176.007z M290.345,262.995c0,0.039,0,0.079,0,0.118c0.224,3.246,0.349,6.401,2.177,9.214
			c3.169,4.88,10.849,15.075,16.614,15.075c1.983,0,4.966-1.237,4.966-7.181c0-14.493-13.337-33.492-17.433-33.492
			C293.681,246.729,290.345,255.339,290.345,262.995z M617.986,565.131c-1.053-1.036-1.593-1.715-2.268-2.208
			c-11.91-8.695-16.713-12.954-25.863-12.954c-11.026,0-15.932,9.695-15.932,13.414c0,2.231,1.466,2.317,3.135,2.317
			c5.446,0,8.177-2.121,21.434-2.121C609.123,563.579,617.916,565.121,617.986,565.131z M509.83,620.821c0-0.02,0-0.039,0-0.059
			c0-2.959-1.261-5.694-5.172-5.694c-4.793,0-17.584,7.619-17.584,18.243c0,4.186,2.812,7.92,4.842,7.92
			C496.024,641.23,507.378,632.702,509.83,620.821z M507.26,262.014c-0.217,0.006-0.434,0.012-0.651,0.017
			c-0.547,3.593-2.972,18.487-2.972,36.761c0,28.597,4.343,30.093,4.639,30.386c1.521-3.138,2.289-28.063,2.289-35.61
			C510.565,276.912,509.126,275.544,507.26,262.014z M492.408,596.641c-0.178-3.569-1.753-5.242-5.14-5.242
			c-1.542,0-7.498,0.752-10.062,6.331c-4.379,9.53-7.052,5.887-7.052,14.694c0,1.706,0.555,2.394,1.933,2.394
			C473.442,614.817,486.64,613.966,492.408,596.641z M636.811,551.47c-0.194-2.955-6.714-16.683-25.752-16.683
			c-5.371,0-10.716,1.119-16.085,2.631C596.374,538.294,631.161,550.523,636.811,551.47z M487.018,571.861
			c0-2.045-1.516-3.755-3.506-3.796c-1.769,0.519-3.789,0.8-4.746,3.216c-7.507,18.944-11.694,27.644-11.694,30.228
			c0,1.013,0.641,1.654,1.541,1.654C472.274,603.162,487.018,574.318,487.018,571.861z M456.879,705.91
			c1.767,21.82,1.851,23.312,2.434,26.954c5.321-2.207,5.419-10.477,5.419-11.442C464.733,721.253,464.493,707.116,456.879,705.91z
			 M295.048,218.692c0-3.991-1.887-9.085-4.652-11.334c-0.38,0.326-0.675,0.522-0.895,0.782c-1.039,1.23-1.504,5.311-1.504,6.989
			c0,4.028,2.025,8.859,4.12,8.859C294.87,223.988,295.048,219.39,295.048,218.692z M304.734,174.368
			c0-1.574-0.165-3.04-0.524-4.233c-9.344,16.785-8.763,15.274-8.763,16.04c0,0.854,0.883,2.566,2.265,2.566
			C298.386,188.741,304.734,187.288,304.734,174.368z M491.688,724.496c0.482-0.3,0.762-0.385,0.892-0.573
			c1.327-1.912,2.02-6.124,2.02-8.834c0-7.509-3.829-10.658-5.484-10.658c-0.465,0-0.952,0.148-1.441,0.476
			C489,711.373,490.315,717.792,491.688,724.496z M295.299,178.609c0.127,0.117,0.254,0.234,0.382,0.351
			c3.161-4.668,5.396-9.798,7.338-15.209c-0.479-0.914-0.7-2.201-2.212-2.577C298.948,167.057,297.123,172.833,295.299,178.609z
			 M527.947,206.116c-0.281,0.074-0.563,0.148-0.844,0.222c-0.068,0.663-0.101,1.317-0.101,1.961c0,4.914,1.909,9.315,4.521,13.524
			C530.33,216.588,529.138,211.352,527.947,206.116z M533.013,212.779c0.956,5.765,2.244,11.37,5.853,16.111
			C537.668,223.235,535.579,217.903,533.013,212.779z"/>
	</g>
</g>
</svg>
