<?xml version="1.0" encoding="iso-8859-1"?>
<!-- Generator: Adobe Illustrator 22.1.0, SVG Export Plug-In . SVG Version: 6.00 Build 0)  -->
<svg version="1.1" id="Layer_1" xmlns="http://www.w3.org/2000/svg" xmlns:xlink="http://www.w3.org/1999/xlink" x="0px" y="0px"
	 width="1000px" height="1200px" viewBox="0 0 1000 1200" enable-background="new 0 0 1000 1200" xml:space="preserve">
<g>
	<g>
		<path fill="#ECE4DA" d="M850.557,605.503c-0.562,55.549-29.859,155.397-159.277,206.562
			c-179.598,71.002-263.845,230.188-328.014,230.188c-18.112,0-29.53-17.284-32.038-60.721
			c-15.058-260.787-70.992-283.622-70.992-337.447c0-14.347,3.342-17.985,4.87-19.593c4.854-5.107,9.938-11.277,17.796-11.277
			c40.835,0,74.747,137.117,160.633,137.117c131.55,0,252.755-229.058,339.566-229.058
			C784.444,521.274,843.199,519.12,850.557,605.503z"/>
		<path fill="#ECE4DA" d="M522.816,295.055c-94.159,1.773-180.26,25.436-246.281,25.436c-49.292,0-85.493-13.543-85.493-45.513
			c0-43.828,71.62-52.96,88.235-55.612c133.754-21.346,127.843-100.49,223.341-100.49c18.965,0,23.831,4.377,24.103,4.56
			c69.766,46.849,271.357,6.207,271.357,101.305c0,2.005-0.107,4.051-0.32,6.138c-1.486,14.608-17.557,80.59-121.566,80.59
			C624.607,311.469,616.781,299.297,522.816,295.055z"/>
	</g>
	<g>
		<path fill="#603813" d="M445.706,364.437c-34.41,2.211-47.882,2.107-48.379,2.107c-7.456,0-15.868-0.293-22.404-0.293
			c-5.253,0-10.344,0.39-15.419,0.39c-13.23,0-92.863-3.753-92.863-72.413c0-38.291,26.468-37.464,35.08-37.464
			c23.678,0,101.887,18.431,211.17,18.431c142.769,0,225.049-35.441,225.049-56.498c0-10.724-26.525-22.989-75.104-22.989
			c-63.493,0-147.097,20.433-208.797,20.433c-9.013,0-41.72,0.326-41.72-13.367c0-19.711,79.618-22.806,79.618-46.187
			c0-10.872-13.591-18.943-13.591-20.96c0-0.693,0.642-1.448,1.417-1.448c2.276,0,15.57,11.592,15.57,22.571
			c0,25.512-79.579,30.699-79.579,45.886c0,10.921,33.87,10.168,39.367,10.168c57.792,0,144.308-20.423,209.634-20.423
			c49.761,0,76.549,13.629,76.549,26.113c0,22.099-75.758,60.04-226.114,60.04c-114.158,0-189.008-18.4-213.352-18.4
			c-20.481,0-31.769,8.201-31.769,33.57c0,69.648,84.029,69.386,90.486,69.386c4.119,0,8.24-0.064,12.359-0.064
			c7.639,0,12.857,0.195,21.338,0.195c85.944,0,203.745-23.047,207.735-23.047c2.079,0,4.006,0.555,6.714,0.555
			c1.631,0,6.37-0.505,10.344-0.505c6.188,0,16.013,1.736,16.013,7.652c0,8.372-22.515,18.061-53.16,31.801
			c-6.016,2.697-0.926,15.265-21.325,38.136c-41.759,46.819-36.919,42.342-48.238,44.307c-2.118,0.368-22.745,3.595-26.503,3.595
			c-12.293,0-22.075-8.834-39.815-25.606c-0.574,11.485-0.071,11.633-2.619,24.926c-2.948,15.377-9.485,8.246-9.485,33.153
			c0,10.078,1.796,20.261,1.796,27.647c0,6.575-3.831,12.885-12.015,12.885c-18.277,0-45.463-22.356-45.463-33.613
			c0-0.948,0.144-1.93,0.464-2.951c-1.531-0.467-41.655-1.079-41.914-1.079c-0.922,0-13.704-0.046-17.806,1.903
			c0.49,0.083,0.979,0.239,1.469,0.239c0.001,0,0.009,0,0.021,0c31.556,0,69.018,22.776,69.018,32.613
			c0,1.759-0.929,3.376-2.793,5.049c-40.635,36.452-53.388,78.145-53.388,78.216c0,0.791,0.35,1.498,0.948,2.269
			c65.094,83.896,66.084,123.614,76.034,143.251c119.965-199.379,248.29-259.603,269.997-264.548
			c-0.066-0.291-17.178-25.106-43.018-25.106c-42.712,0-67.339,88.369-87.885,88.369c-7.654,0-18.595-9.997-46.651-9.997
			c-2.897,0-5.795,0.042-8.689,0.07c-3.843,0.038-20.746,12.134-23.404,12.134c-1.15,0-1.888-0.316-1.888-1.851
			c0-1.555,4.741-8.681,13.38-25.277c10.838-20.82,9.777-50.26,14.207-50.26c2.942,0,5.139,4.697,5.139,46.048
			c0,0.041,0.072,1.417-0.505,1.988c-0.392,0.388-1.079,0.689-1.638,0.689c-0.664,0-1.387-0.798-1.387-2.317
			c0-0.384,0.026-0.774,0.026-1.158c0-0.07-0.202-31.714-1.149-35.432c-5.85,27.047-4.408,30.707-22.339,61.872
			c1.166-0.559,1.783-0.793,2.337-1.13c59.929-36.497,82.473-48.252,82.473-63.509c0-13.177-15.231-45.572-15.231-53.711
			c0-1.768,1.128-1.797,1.482-1.797c1.167,0,1.409,1.025,1.599,2c2.665,13.697,55.634,43.015,55.634,45.374
			c0,3.668-33.522,20.755-33.774,20.755c-1.955,0-2.219-4.169-6.326-11.096c-2.839,19.039-33.213,32.587-64.22,53.234
			c1.065,0.047,1.756,0.126,2.369,0.126c0.586,0,2.392-0.202,5.641-0.202c22.595,0,36.026,10.008,42.612,10.008
			c19.101,0,42.718-88.251,87.305-88.251c5.716,0,20.997,0.502,35.398,14.444c17.148,16.602,14.938,15.469,16.305,18.151
			c11.471,22.508,11.02,26.038,50.895,46.988c11.725,6.16,19.339,2.671,19.339,16.42c0,29.089-13.8,54.665-13.8,72.796
			c0,5.791,0.948,8.186,0.948,10.129c0,1.504-0.618,2.22-2.012,2.22c-4.436,0-50.925-4.313-50.925-54.446
			c0-6.294,1.074-20.366,4.441-20.366c2.578,0,9.18,9.386,26.239,9.386c6.224,0,8.055-0.914,8.332-0.998
			c-21.021-6.322-32.431-15.092-48.67-15.092c-10.441,0-19.928,3.775-28.522,10.521c-13.903,10.914-35.234,44.438-35.349,45.405
			c26.9-29.742,54.007-38.71,62.111-38.71c4.283,0,10.025,1.687,10.025,14.334c0,6.923-1.672,23.315-1.672,27.888
			c0,45.938,48.92,47.3,48.92,152.304c0,28.241-6.862,44.975-11.287,54.515c-10.089,21.753-11.398,23.685-15.318,23.685
			c-5.638,0-14.021-7.887-16.745-7.887c-57.835,0-283.203,177.275-313.336,177.275c-15.728,0-17.27-15.257-17.27-28.664
			c0-35.676,21.977-137.776,21.977-149.161c0-0.567-0.081-1.152-0.282-1.777c-8.649,17.299-48.992,151.088-51.729,151.088
			c-2.664,0-7.939-6.705-9.272-22.279c-21.766-254.242-69.389-144.344-69.389-280.762c0-47.108,10.956-74.54,10.956-77.767
			c0-3.518-9.609-19.763-9.609-40.995c0-23.378,11.542-50.938,27.89-59.315c3.602-1.846,8.626-23.252,50.495-23.252
			c5.615,0,23.574,0.959,35.169,0.959c9.309,0,18.575-0.611,27.543-3.568c42.732-14.087,44.35-25.991,44.35-54.635
			c0-11.683-31.632-31.102-31.632-54.499c0-20.109,25.928-19.952,34.831-21.078C445.718,364.746,445.712,364.592,445.706,364.437z
			 M316.547,604.124c0.329,0.477,0.659,0.954,0.988,1.431c0.146-0.136,0.291-0.271,0.437-0.407
			c-0.444-0.369-0.888-0.738-1.332-1.108c-0.793-1.901-18.618-29.099-20.165-30.842
			C296.798,575.056,303.731,590.305,316.547,604.124z M415.816,978.121c2.673-5.997,10.039-28.968,29.622-62.088
			c134.79-227.958,234.498-143.079,234.498-267.685c0-32.92-13.062-40.688-19.18-40.688c-56.964,0-136.625,207.045-160.854,207.045
			c-11.657,0-28.737-23.812-54.232-23.812c-14.774,0-17.858,6.288-21.678,6.288c-17.706,0-12.092-71.408-90.772-171.736
			c-4.015-5.12-2.769-1.381-6.051-4.704c-35.437-35.879-39.233-59.366-42.636-67.254c0,1.483-0.037,2.721-0.037,3.866
			c0,51.443,44.273,151.887,71.008,180.171C429.504,815.807,400.104,940.797,415.816,978.121z M692.13,850.267
			c-6.162-5.164-38.63-36.795-90.284-36.795c-63.727,0-106.955,55.044-109.92,55.044c-0.434,0-1.436,0.066-1.436-1.717
			c0-28.601,143.985-132.179,144.055-132.233c-149.961,69.219-216.758,247.881-218.606,247.881
			c-11.301,0-4.354-70.195-20.02-162.117c-2.963,4.371-28.05,157.168-28.05,182.959c0,6.847-0.541,23.951,13.452,23.951
			c9.972,0,22.165-5.542,51.134-25.806C632.231,861.689,685.975,853.817,692.13,850.267z M269.154,625.585
			c-0.144,0.528-10.057,32.042-10.057,73.383c0,49.47,17.263,89.95,31.379,106.366c45.988,53.481,28.157,185.641,43.99,192.769
			c35.342-121.912,47.904-140.277,56.789-175.738c1.017-4.059,3.502-5.245,3.502-7.957
			C394.757,766.324,352.264,757.844,269.154,625.585z M505.955,850.937c16.258-12.918,48.74-40.719,96.228-40.719
			c66.529,0,95.953,47.595,109.674,47.595c3.334,0,23.18-33.877,23.18-74.521c0-104.171-48.889-105.166-48.889-152.94
			c0-6.733,1.586-21.336,1.586-27.514c0-9.503-2.788-10.966-6.745-10.966c-11.38,0-37.852,16.393-40.579,19.871
			c2.541-0.389,11.414-7.46,20.259-7.46c1.086,0,22.527-0.354,22.527,44.889C683.196,754.677,577.257,746.659,505.955,850.937z
			 M424.038,793.936c7.164-4.065,12.434-6.488,22.155-6.488c25.85,0,43.25,23.804,53.374,23.804
			c7.143,0,31.687-40.048,62.534-95.432c41.065-73.728,45.827-70.792,45.827-73.656c0-0.232-0.123-0.473-0.123-1.137
			c0-2.983,7.489-15.853,13.662-24.366c18.279-25.204,32.521-48.87,62.31-48.87c3.452,0,5.319,0.403,9.931,1.15
			c-4.754-6.877-5.615-9.011-8.93-9.011c-43.583,0-211.791,128.134-269.145,219.624
			C417.821,784.472,419.631,789.752,424.038,793.936z M741.761,649.094c-0.281-3.319-0.561-5.46-0.561-8.622
			c0-20.145,13.752-42.161,13.752-74.801c0-4.446-1.323-5.574-6.198-7.078c-12.472-3.847-19.696-8.892-27.434-12.889
			c-32.878-16.983-34.268-42.368-38.583-42.368c-72.748,0-270.003,232.463-270.003,265.914c0,1.938,0.729,3.765,1.576,5.817
			c149.358-179.819,253.108-218.476,270.145-218.476c6.118,0,7.609,4.223,14.152,13.216c0.619,0.85,27.71,12.36,37.422,13.935
			c3.712,0.602,4.869,0.741,4.869,2.309c0,1.008-0.676,1.442-1.618,1.675c-4.729,1.166-9.408,2.98-16.704,2.98
			c-13.34,0-22.354-6.74-24.869-8.293c-0.711,2.393-1.784,8.759-1.784,16.189C695.921,608.588,696.479,641.033,741.761,649.094z
			 M446.5,435.464c22.603,24.903,33.791,26.829,40.487,26.829c5.942,0,21.744-2.99,29.181-4.268
			c2.313-0.398,4.342-1.376,5.985-3.115c49.215-52.093,51.235-56.975,54.995-81.161c-0.139-0.128-0.278-0.257-0.417-0.385
			c-19.038,14.954-41.06,21.487-65.328,23.117c6.123,4.612,8.912,5.155,13.804,10.083c0.424,0.427,0.738,0.979,0.738,1.57
			c0,0.81-0.695,1.814-1.703,1.814c-1.021,0-3.14-1.452-5.533-1.452c-3.516,0-9.545,4.181-21.487,4.181
			c-7.668,0-11.502-1.556-21.946-4.598c-0.486,1.29-0.724,2.565-0.724,3.822c0,8.564,10.862,15.291,22.435,15.291
			c4.759,0,9.526-1.215,14.276-3.641c9.39-4.796,6.743-11.499,9.539-11.499c1.062,0,1.615,1.325,1.615,1.986
			c0,7.218-10.425,16.415-25.536,16.415c-6.276,0-12.221-1.494-17.585-5.094c-8.164-5.479-7.601-10.918-8.366-16.175
			c-1.395-0.461-2.105-0.969-2.105-1.676c0-1.173,11.187-14.082,26.954-14.082c1.552,0,2.27,0.101,2.869,0.101
			c1.889,0,1.76-1.082,4.835-1.082c1.643,0,5.485,0.541,8.57,0.541c47.271,0,88.969-42.604,92.76-48.217
			c-5.656,0.009-133.067,19.299-139.78,21.244c5.218,0.356,8.968-0.682,8.968,2.514C474.001,371.463,463.458,399.915,446.5,435.464z
			 M330.478,616.236c27.018-66.968,55.591-75.456,55.591-80.597c0-6.208-34.023-29.056-64.88-29.056
			c-31.306,0-34.792,24.263-34.792,26.95C286.397,561.291,328.939,614.593,330.478,616.236z M470.51,369.571
			c-1.16-0.072-1.845-0.155-2.51-0.155c-54.771,0-53.716,8.049-53.716,16.723c0,7.962,1.069,13.816,29.65,46.567
			C455.799,410.23,458.662,400.708,470.51,369.571z M281.862,569.401c-0.105,0.006-0.21,0.012-0.315,0.018
			c-4.585,35.758-10.478,45.669-10.478,50.492c0,9.394,46.367,76.602,62.631,92.693C333.065,706.638,297.78,662.35,281.862,569.401z
			 M381.849,503.941c-0.151,0.488-0.217,0.956-0.217,1.408c0,8.208,23.865,29.976,43.061,29.976c6.613,0,7.642-7.546,7.642-10.337
			c0-9.188-1.797-14.857-1.797-26.931c0-7.984,0.912-12.213,0.912-13.106c0-0.292-0.024-0.571-0.024-0.797
			C415.991,493.448,399.185,499.007,381.849,503.941z M260.565,579.915c0,11.312,2.394,23.236,7.836,35.138
			c1.033-1.724,9.639-28.728,9.639-49.538c0-3.766-1.694-30.881-1.888-32.45C266.645,545.413,260.565,561.887,260.565,579.915z
			 M598.815,487.183c-26.59-17.471-6.537-0.186-47.937-34.31c2.765,11.786,17.504,48.61,19.434,51.015
			C579.338,497.709,589.452,493.624,598.815,487.183z M580.025,376.552c0.37-0.036,51.593-21.29,51.593-28.586
			c0-0.964-0.684-1.789-2.058-2.444c-3.493-1.665-4.257-1.612-9.739-1.612c-19.563,0-4.841-0.248-21.676,12.983
			C577.901,372.807,580.614,367.82,580.025,376.552z M494.942,396.858c-6.492,0-11.92,2.594-16.89,6.595
			c3.36-0.294,6.711-0.582,10.063-0.582c2.568,0,5.136,0.169,7.711,0.636c0.444-2.4,0.821-4.435,1.215-6.56
			C496.329,396.887,495.629,396.858,494.942,396.858z M500.867,397.297c-0.734,1.708-1.351,3.346-1.351,4.934
			c0,0.358,0.031,0.712,0.099,1.065c5.582,0.165,10.926,0.323,16.128,0.477C510.216,399.426,506.643,397.454,500.867,397.297z
			 M488.553,406.232c-1.598,0-3.25,0.093-4.999,0.252c2.993,1.91,8.52,2.719,13.938,2.719c5.949,0,11.767-0.975,13.953-2.535
			c-2.03,0-3.927-0.063-5.766-0.063c-3.909,0-5.297,0.363-8.128,0.363C493.948,406.968,493.574,406.232,488.553,406.232z
			 M282.124,532.465c0-1.986,1.152-3.671,1.152-5.594c0-0.276-0.024-0.557-0.078-0.845c-2.384,1.185-3.781,2.73-3.781,5.323
			c0,0.071,0.805,14.991,1.478,18.072c0.877-14.564,1.457-11.41,1.457-14.595C282.352,533.581,282.124,533.411,282.124,532.465z
			 M448.177,364.205c0,0.028,0.001,0.056,0.001,0.084c0.368,0,0.736,0,1.104,0c0-0.028-0.001-0.056-0.001-0.084
			C448.913,364.205,448.545,364.205,448.177,364.205z"/>
	</g>
</g>
</svg>
