<?xml version="1.0" encoding="iso-8859-1"?>
<!-- Generator: Adobe Illustrator 22.1.0, SVG Export Plug-In . SVG Version: 6.00 Build 0)  -->
<svg version="1.1" id="Layer_1" xmlns="http://www.w3.org/2000/svg" xmlns:xlink="http://www.w3.org/1999/xlink" x="0px" y="0px"
	 width="1000px" height="1200px" viewBox="0 0 1000 1200" enable-background="new 0 0 1000 1200" xml:space="preserve">
<g>
	<g>
		<path fill="#ECE4DA" d="M153.119,922.435c9.287-66.307,19.928-99.505,19.928-150.982c0-64.683-19.434-75.01-19.434-107.769
			c0-3.963-1.729-24.407,26.111-61.264c212.427-281.239,31.138-386.913,342.678-386.913c36.369,0,44.095,12.481,44.095,17.75
			c0,24.472-106.933,53.646-106.933,180.234c0,45.342,24.225,166.541,24.225,198.337c0,11.964-5.406,23.341-23.26,36.386
			C190.526,845.488,178.756,931.301,157.36,931.301C153.342,931.301,153.528,925.839,153.119,922.435z"/>
		<path fill="#ECE4DA" d="M749.353,877.058c0-3.246,0.044-6.492,0.044-9.738c0.185-4.644,0.304-9.289,0.304-13.93
			c0-75.323-31.927-199.879-31.927-208.977c0-12.388,5.192-20.433,11.761-20.433c1.062,0,2.177,0.195,3.342,0.585
			c131.357,44.049,153.638,51.891,165.564,86.786c10.809,31.628,26.096,136.635,26.096,146.698
			c0,51.375-154.093,63.23-154.163,63.23C753.386,921.28,749.353,917.197,749.353,877.058z"/>
	</g>
	<g>
		<path fill="#603813" d="M704.579,147.352c-83.95,89.006-112.402,184.827-116.012,184.862c-8.468,0.082-19.221,3.551-19.687,5.047
			c3.974-0.23,4.818-0.614,8.705-0.614c5.47,0,12.95,1.172,12.95,3.789c0,0.07-42.602,134.791-42.602,185.344
			c0,2.107,0.317,4.686,0.317,5.832c0,1.422-0.408,2.088-1.383,2.088c-0.671,0-22.028-4.462-50.933-42.252
			c-0.355,0.685-0.68,1.145-0.845,1.658c-4.245,13.157-18.916,24.593-20.526,24.593c-2.187,0-1.905-2.812-1.905-3.253
			c0-3.824,0.763-5.895,0.763-10.554c0-23.312-19.978-19.634-19.978-32.901c0-5.311,3.981-9.025,8.076-13.636c0,0,0,0,0,0
			c0,0,0,0,0,0c0-0.001-0.18-0.085-0.369-0.085c-0.127,0-1.083,0.182-2.495,0.182c-18.023,0-42.031-35.38-42.031-74.176
			c0-0.282,0.017-24.658,9.527-26.125c56.47-8.711,166.596-44.789,182.388-76.473c37.408-75.052,92.394-137.615,97.663-137.615
			c0.071,0,43.721,57.114,43.721,219.16c0,211.364-85.994,368.562-85.994,372.987c0,0.139,0.01,0.281,0.031,0.427
			c22.654-45.53,37.105-89.831,55.108-89.831c0.115,0,2.917-0.332,11.003,3.186c105.538,45.919,124.571,53.338,124.571,98.466
			c0,8.685-1.139,21.236-1.139,22.578c0,0.07,53.523,83.654,53.523,154.984c0,70.964-66.838,76.805-77.577,76.805
			c-10.972,0-13.714-5.142-13.714-16.48c0-38.729,35.604-145.429,35.604-241.908c0-25.414-13.293-36.572-20.162-41.494
			c-24.588-17.617-107.838-52.869-112.154-52.869c-11.782,0-23.417,25.303-52.676,89.535c4.161,0.436,33.264,1.397,36.134,1.397
			c8.078,0,18.582,0.971,18.582-8.508c0-13.641-18.431-34.438-18.431-40.517c0-3.13,2.973-3.631,9.934-3.631
			c4.747,0,47.011,2.493,89.022,24.413c33.292,17.371,34.549,35.426,34.549,53.566c0,91.746-62.435,255.644-66.087,255.644
			c-0.89,0-1.322-0.787-1.322-1.637c0-1.66,32.675-119.65,32.675-205.527c0-61.891-12.158-63.61-19.885-63.61
			c-111.888,0-201.377,261.688-201.447,261.691c-0.53-0.998-2.705-31.92-2.825-62.423c-0.491-124.672-37.034-119.684-37.034-301.766
			c0-52.611,1.703-71.765,2.252-80.032c-0.476,0.687-0.709,0.915-0.815,1.192c-12.952,33.88-37.653,54.115-37.653,89.999
			c0,32.013,15.755,103.334,19.753,106.821c20.593,17.961,24.504,15.895,24.504,20.207c0,0.294-3.39,19.019-9.835,19.019
			c-1.107,0-2.351,0.189-12.758-10.979c-2.637-2.83-4.658-26.345-7.813-29.264c-64.835-59.978-102.398-151.115-102.398-160.965
			c0-11.416,28.244-32.119,28.244-127.15c0-4.735-0.164-9.471-0.517-14.206c-0.41-5.501-40.46-20.087-52.936-91.605
			c-19.217,75.451,7.542,69.957-62.813,191.556c3.099,1.729,4.695,4.746,41.787,6.59c25.97,1.291,43.646,12.368,43.646,15.83
			c0,0.925-1.083,0.997-1.083,3.327c0,73.883,63.163,136.465,68.857,143.363c28.736,34.812,40.586,72.659,40.586,72.731
			c0,1.766-0.679,2.035-1.549,2.035c-4.568,0-61.923-76.312-73.231-76.312c-6.043,0-48.342,35.678-99.431,35.678
			c-7.086,0-11.991-0.557-11.991-3.906c0-9.254,52.977-66.456,52.977-156.952c0-0.242-0.011-0.562-0.011-1.089
			C255.026,760.184,224.038,740.828,171.747,889.068c-29.888,84.729-36.811,88.36-37.154,93.697
			c80.412-64.447,132.173-11.992,132.173-141.405c0-4.952-32.564-16.509-32.564-53.478c0-16.224,5.087-25.417,12.045-25.417
			c15.361,0,23.93,36.562,23.93,70.839c0,1.829-0.084,2.394-0.084,2.837c0,1.381,0.562,2.268,1.852,3.018
			c195,113.447,168.442,77.554,224.444,163.268c0.168-1.206,0.34-1.837,0.34-2.433c0-20.84-3.77-62.369-3.77-89.316
			c0-34.875,4.602-54.778,9.949-67.609c11.422-27.411,43.785-41.453,47.377-41.453c1.032,0,4.355-0.18,4.355,12.171
			c0,5.672-1.205,15.988-1.205,41.454c0,113.662,14.817,174.837,14.817,176.465c0,0.817-0.723,1.474-1.189,1.474
			c-5.384,0-16.679-75.807-16.679-187.66c0-10.674,0.984-24.463,0.984-30.267c0-2.905-0.237-5.817-0.382-8.723
			c-0.024-0.48-0.335-0.946-0.625-1.714c-53.171,21.189-54.08,66.08-54.08,104.647c0,32.592,3.766,66.453,3.766,90.59
			c0,1.702-0.218,3.413-0.356,5.116c-0.192,2.372-1.905,2.518-2.298,2.518c-0.903,0-1.553-0.644-2.067-1.378
			c-48.744-69.645-13.737-48.68-194.184-146.607c-11.737-6.37-24.891-14.345-30.986-17.635
			c-2.496,24.823,1.149,90.486-50.339,103.326c-63.358,15.801-88.928,46.65-90.478,46.65c-0.353,0-1.808-0.332-1.808-1.72
			c0-0.409,0.125-0.842,0.302-1.261c61.541-146.043,63.225-193.124,137.246-260.253c119.426-108.306,130.1-146.634,132.55-146.634
			c0.531,0,1.592,0.452,1.592,1.48c0,3.492-7.127,4.316-9.565,39.187c-5.096,72.904-31.219,99.207-51.442,138.504
			c1.175,0.209,4.147,0.979,10.227,0.979c47.226,0,90.15-35.893,97.984-35.893c13.222,0,62.787,68.88,68.093,69.432
			c-28.366-79.111-100.595-98.065-105.707-209.891c-0.798-17.445-84.235-10.546-84.235-24.13c0-1.132,0.462-2.408,1.382-3.871
			c99.65-158.457,13.236-345.728,245.958-345.728c34.172,0,46.712,4.25,46.712,13.96c0,65.679-224.719,86.576-224.719,144.037
			c0,3.886,0.894,13.048,5.653,25.138c24.967,63.432,46.266,57.098,46.555,65.266c0.238,6.716,0.682,13.435,0.682,20.149
			c0,84.036-27.774,114.593-27.774,123.305c0,29.4,81.604,149.673,98.424,155.059c-5.699-24.647-16.716-68.916-16.716-99.728
			c0-26.706,9.295-38.323,27.111-69.759c17.243-30.423,12.916-37.07,16.318-44.544c0.4-0.879,1.029-1.316,1.719-1.316
			c0.558,0,1.799,0.423,1.799,1.524c0,0.07-4.271,31.137-4.271,100.379c0,132.607,32.312,230.061,32.94,230.75
			c0-0.47,0.02-0.942,0.02-1.413c0-25.723-15.66-120.216-15.66-224.669c0-210.604,107.665-406.155,111.883-406.155
			c1.131,0,1.497,1.646,1.497,2.177c0,212.018-93.644,575.475-93.644,640.539c0,5.435,0.133,9.959,0.133,34.451
			c0,7.201-0.01,14.403-0.01,21.604c0,16.702-0.125,21.671,0.896,33.124c21.506-211.225,165.188-304.782,165.188-614.922
			C746.654,205.051,713.87,172.432,704.579,147.352z M578.38,852.588c0.121-0.008,0.243-0.015,0.364-0.023
			c14.778-110.506,55.824-163.217,91.649-599.233c-2.726,1.184-106.528,190.16-106.528,400.135
			C563.865,725.071,576.389,842.342,578.38,852.588z M779.823,987.766c0.149,0.04,0.297,0.08,0.446,0.119
			c4.526-10.391,52.621-141.906,52.621-222.6c0-63.208-106.649-74.675-123.053-74.675c-1.261,0-2.572,0.306-4.102,0.468
			c6.214,13.909,18.641,27.787,18.641,40.38c0,10.326-9.515,11.895-16.389,11.895c-2.919,0-42.887-1.143-43.266-1.143
			c-0.059,0-0.119,0.001-0.178,0.001c-0.078,0-2.124,0.033-2.124-1.882c0-0.824,0.33-1.865,0.524-2.727
			c-0.072,0.056-70.645,115.794-79.236,255.189c0.56-0.445,0.562-0.174,1.058-1.704c56.311-173.692,164.99-244.141,196.972-244.141
			c15.257,0,22.973,15.474,22.973,68.043C804.708,889.991,786.89,948.731,779.823,987.766z M393.914,354.239
			c0.101,0.041,0.201,0.082,0.302,0.123c32.51-40.389,221.112-82.421,221.112-128.104c0-6.931-10.905-10.732-42.023-10.732
			C412.088,215.526,403.775,315.446,393.914,354.239z M545.005,529.683c-0.061-1.849-0.09-3.691-0.09-5.526
			c0-18.95,3.13-37.149,7.311-55.253c-2.03,1.921-5.168,8.056-12.369,8.056c-13.135,0-27.076-22.749-27.076-61.305
			c0-8.415,1.092-39.156,17.878-39.156c7.118,0,26.89,4.832,41.327,13.951c3.426-16.852,9.273-33.05,15.022-49.379
			c-1.561-0.728-3.676-1.248-8.598-1.248c-15.423,0-26.905,8.035-28.51,8.035c-0.497,0-1.132-0.203-1.301-0.5
			c-0.161-0.282-0.258-0.715-0.258-1.114c0-0.318,0.062-0.613,0.203-0.791c0.692-0.874,1.623-1.615,2.58-2.214
			c15.965-10.008,20.095-12.845,38.723-14.538c2.545-11.918,7.169-22.987,11.675-34.126c-0.9,0.433-1.593,0.965-2.268,1.518
			c-30.153,24.698-68.744,33.554-70.613,38.654c-6.708,18.309-23.735,30.192-36.254,30.192c-11.26,0-27.414-10.364-31.839-10.364
			c-0.935,0-1.866,0.181-2.871,0.464c-19.443,5.473-32.817,1.603-35.012,9.886c-0.883,3.334-2.73,8.096-2.73,18.444
			c0,36.909,22.967,70.833,38.59,70.833c0.539,0,11.789-0.422,11.789-16.262c0-13.945-7.502-15.535-13.783-15.653
			c-1.448,2.662-2.599,5.211-2.599,7.893c0,2.667,0.997,3.676,0.997,4.684c0,0.595-0.011,1.788-1.989,1.788
			c-6.478,0-26.157-14.129-26.157-42.742c0-20.201,10.907-30.279,19.934-30.279c18.969,0,17.077,24.284,17.077,34.119
			c0,3.499-0.038,7.837-0.038,8.717c0,23.902,12.241,12.281,14.343,41.159c0.502,0.353,18.726,10.261,18.726,35.421
			c0,0.91-0.02,1.291-0.02,1.627C496.802,490.291,520.281,519.427,545.005,529.683z M853.262,777.095
			c-16.324,132.486-34.244,177.535-34.244,208.278c0,12.927,4.825,13.229,10.03,13.229c13.417,0,74.7-5.76,74.7-73.446
			C903.747,877.135,870.173,796.609,853.262,777.095z M516.051,416.267c0,0.329,0.001,0.655,0.004,0.979
			c0.599,28.839,10.018,56.452,23.836,56.452c15.296,0,31.129-76.323,31.129-76.394c0-2.319-1.103-4.093-3.451-5.68
			c-4.113-2.781-25.813-11.872-36.837-11.872C515.561,379.752,516.051,415.66,516.051,416.267z M266.908,835.375
			c0-0.802,0.021-1.483,0.021-2.119c0-12.281-3.539-67.511-20.848-67.511c-6.484,0-8.671,14.574-8.671,22.132
			C237.409,818.239,264.115,834.522,266.908,835.375z M460.307,391.565c0.111-0.805,0.162-1.811,0.162-2.933
			c0-22.742-13.009-21.811-13.62-21.811c-5.895,0-16.752,6.843-16.752,27.361c0,15.165,7.38,33.029,20.225,37.54
			c0.989-6.461,0.348-3.889,2.455-9.853c-1.311-0.432-10.685-2.693-10.685-11.495c0-10.583,9.328-20.445,13.944-20.445
			C457.912,389.929,458.789,390.821,460.307,391.565z M475.783,451.582c-8.65,6.414-19.107,13.113-19.107,19.477
			c0,10.142,20.097,8.222,20.097,32.789c0,2.211-0.144,3.027-0.848,9.085c0.279-0.256,16.955-13.675,16.955-24.626
			C492.881,483.899,485.632,480.275,475.783,451.582z M466.902,352.948c17.463,7.505,20.076,8.739,25.373,8.739
			c12.88,0,28.594-13.955,32.8-27.211C505.461,340.626,486.056,345.831,466.902,352.948z M545.015,785.804
			c-13.97-9.6-8.306-5.457-21.321-15.639c4.179,21.796,3.916,21.201,4.85,22.162c9.385,9.65,8.677,8.447,9.928,9.196
			C541.227,799.127,541.227,799.127,545.015,785.804z M460.469,404.918c0-0.189-0.003-0.379-0.01-0.569
			c0-0.37,0.028-0.654,0.028-0.897c0-0.14-0.009-0.267-0.039-0.389c-1.367-5.552-1.836-9.822-4.198-9.822
			c-2.923,0-10.795,8.556-10.795,16.538c0,7.495,7.337,8.793,8.629,8.793c0.603,0,1.086-0.2,1.507-0.8
			C458.366,413.823,460.469,409.644,460.469,404.918z M493.242,480.692c-0.524-10.932-4.536-20.205-13.052-27.321
			C483.153,463.126,487.617,472.177,493.242,480.692z M470.393,451.268c3.115-2.448,4.435-4.201,4.435-6.887
			c0-1.393-0.355-3.038-0.999-5.16C472.382,446.731,473.331,443.48,470.393,451.268z M461.005,415.283
			c-0.892,1.507-1.489,2.516-2.23,3.767c1.248,0.219,2.202,0.387,3.457,0.607C461.798,418.107,461.479,416.971,461.005,415.283z"/>
	</g>
</g>
</svg>
