<?xml version="1.0" encoding="iso-8859-1"?>
<!-- Generator: Adobe Illustrator 22.1.0, SVG Export Plug-In . SVG Version: 6.00 Build 0)  -->
<svg version="1.1" id="Layer_1" xmlns="http://www.w3.org/2000/svg" xmlns:xlink="http://www.w3.org/1999/xlink" x="0px" y="0px"
	 width="1000px" height="1200px" viewBox="0 0 1000 1200" enable-background="new 0 0 1000 1200" xml:space="preserve">
<g>
	<g>
		<path fill="#ECE4DA" d="M661.436,679.239c1.1-46.583,6.518-65.793,6.518-91.617c0-95.073-195.184-97.711-195.184-212.867
			c0-17.072,19.3-84.034,129.961-84.034c33.66,0,219.728,51.419,219.728,116.79c0,50.304-92.51,107.169-92.51,185.372
			c0,68.656,59.419,101.439,59.419,151.269c0,31.925-38.326,54.168-64.633,54.168C709.917,798.321,664.212,791.121,661.436,679.239z
			"/>
		<path fill="#ECE4DA" d="M286.55,859.611c1.277-0.026,2.55-0.039,3.821-0.039c74.045,0,106.277,40.866,145.315,40.866
			c15.38,0,15.222-3.149,24.165-3.149c13.161,0,19.884,12.045,19.884,24.718c0,28.528-45.974,50.909-94.032,50.909
			c-33.867,0-48.396-16.589-94.735-16.589c-24.832,0-43.633,2.234-64.105,2.234c-34.034,0-66.839-5.401-66.839-26.773
			C160.024,910.138,202.963,861.947,286.55,859.611z"/>
	</g>
	<g>
		<path fill="#603813" d="M674.555,630.111c-0.533,5.759-1.073,11.598-1.624,17.549c0.098-0.007,0.191-0.009,0.277-0.009
			c0.135,0,0.255,0.005,0.359,0.005c0.392,0,9.25-8.029,25.117-8.029c9.01,0,19.932,10.768,19.932,25.897
			c0,18.3-13.5,30.036-24.866,42.983c1.232,0.092,1.995,0.199,2.748,0.199c0.048,0,0.139-0.001,0.315-0.001
			c4.695,0,22.719-0.201,22.719,23.003c0,5.511-0.866,10.905-7.436,25.274c1.478,0.84,15.955,5.443,15.955,32.735
			c0,1.944-0.111,3.118-0.111,3.372c0,2.726,2.826,2.093,2.826,6.559c0,14.008-49.821,79.294-75.474,96.861
			c-4.869,3.334-3.828,1.61-4.053,7.492c-0.223,5.803-0.658,15.985-0.658,22.967c0,4.602,0.714,8.627,0.714,13.786
			c0,7.592-23.216,117.143-26.73,117.143c-2.641,0-4.949,0.569-4.949-51.707c0-75.173,2.009-59.997,3.474-86.473
			c-11.841,5.908-32.564,20.314-39.437,20.314c-0.852,0-1.05-0.207-2.084-0.207c-38.924,0-253.514,211.894-307.757,211.894
			c-25.77,0-27.841-28.874-27.841-32.077c0-0.615,0.846-26.691,7.623-53.123c62.941-245.485,187.142-147.071,238.41-289.145
			c32.125-89.023,6.738-78.234,77.934-129.271c66.539-47.698,41.299-50.061,70.96-77.936c-0.542-1.642-6.86-2.151-23.804-19.544
			c-92.648-95.101-151.817-78.143-151.817-89.923c0-1.865,0.985-4.552,21.84-4.552c72.25,0,144.128,57.995,151.787,63.605
			c15.097,11.06,21.528,28.235,23.019,29.057c0.146-0.157,0.433-0.321,0.453-0.513c0.289-2.718,0.857-5.454,0.857-8.162
			c0-107.745-82.601-86.716-82.601-231.966c0-33.116,11.701-68.219,16.352-68.219c1.076,0,2.141,1.073,2.807,2.33
			c0.375,0.707,0.336,1.66,0.38,2.509c8.198,158.363,72.268,115.106,72.268,216.014c0,26.218-4.944,75.343-4.944,92.938
			c0,0.471,0.002,0.584,0.002,0.887c0,15.555-5.424,32.935-5.424,46.815c0,2.539,0.229,5.066,0.907,7.592
			c1.606,5.981-0.374,7.566,3.167,15.791c2.4,5.576,2.391,8.23,3.95,9.448c3.997-35.27,13.822-68.46,13.822-83.427
			c0-17.614-8.492-33.185-8.492-61.487c0-12.735,2.097-17.199,2.097-20.108c0-0.287-0.025-1.318-0.025-3.173
			c0-91.541,35.564-176.736,35.564-177.455c0-1.251-4.57-22.599-5.159-24.516c-14.492,2.472-24.406,11.098-30.98,11.098
			c-1.902,0-3.04-1.11-3.04-2.595c0-1.489,1.071-2.787,2.341-4.128c11.459-12.093,21.425-11.705,23.587-12.943
			c-2.381-3.265-5.584-5.463-8.75-7.802c-1.671,2.071-2.29,5.764-7.417,5.764c-8.594,0-11.45-5.23-16.018-5.23
			c-3.844,0-19.651,6.076-30.555,6.076c-17.064,0-35.954-12.137-35.954-28.082c0-3.88,1.947-11.899,11.682-11.899
			c22.297,0,51.663,28.771,57.248,28.771c0.801,0-0.279,0.107,11.01-1.947c-0.212-1.613-30.852-20.432-30.852-35.068
			c0-3.383,1.148-6.735,2.793-10.003c0.862-1.714,2.324-2.584,4.069-2.584c5.751,0,14.468,7.627,26.473,20.018
			c-4.246-16.444-36.814-43.879-36.814-82.318c0-1.918,0.434-25.445,8.113-25.445c0.836,0,1.75,0.252,2.747,0.766
			c46.2,23.799,52.384,66.38,52.384,118.504c0,0.972-0.007,1.615-0.007,1.69c0,0.529,0.082,1.059,0.502,1.622
			c4.718-31.135,6.18-73.127,20.543-73.127c3.835,0,7.446,4.113,7.446,10.472c0,8.955-8.375,32.982-8.375,33.161
			c0,0.067,0.092,0.184,0.266,0.551c27.7-34.084,45.145-34.898,48.33-34.898c5.119,0,9.101,3.469,9.101,11.307
			c0,20.789-39.907,43.259-50.977,50.187c-20.359,12.742-13.599,14.865-25.724,26.59c0.023,0.337,0.084,1.219,0.193,2.792
			c4.711-5.353,15.519-20.145,34.04-20.145c2.856,0,3.366,1.522,3.366,2.393c0,1.255-1.187,2.081-3.042,3.317
			c-18.813,12.538-25.399,23.199-31.388,23.199c-0.394,0-0.814-0.017-1.256-0.017c-0.247,0-0.5,0.005-0.759,0.021
			c1.211,5.594,2.476,11.436,3.741,17.279c0.185,0.016,0.37,0.032,0.556,0.048c2.002-3.998,13.148-28.791,17.361-28.791
			c3.186,0,2.981,3.797,3.069,6.574c1.961,61.849,17.801,88.664,17.801,138.084c0,51.942-36.533,96.288-42.873,106.14
			c0.142,0.12,0.285,0.239,0.427,0.359c51.574-53.688,107.276-68.194,107.353-68.194c0.141,0,2.188,0.219,2.188,1.621
			c0,3.248-1.917,0.881-7.827,10.593c-41.95,68.938-28.351,103.076-125.084,115.199c-1.441,0.181-2.304,0.858-2.589,2.492
			c-2.721,15.586-3.456,16.756-3.71,21.197c1.595-0.63,10.513-5.124,16.676-5.124c6.829,0,14.99,7.566,14.99,19.585
			C714.311,618.056,706.623,613.1,674.555,630.111z M512.583,724.739c-16.12,66.493-41.047,108.598-47.762,110.862
			c-0.168,0.057-0.286,0.247-0.441,0.356c-43.598,30.599-90.259,53.962-106.548,63.546
			c-91.985,54.124-107.81,207.213-107.81,220.695c0,9.397,5.97,27.449,22.488,27.449c51.353,0,208.381-162.245,305.448-211.403
			c-13.777-15.441-26.798-27.649-26.798-62.135c0-162.191,108.85-197.699,108.85-254.365c0-13.084-9.096-36.518-11.967-39.716
			c-0.482,0.953-9.164,35.342-22.244,35.342c-3.585,0-5.526-2.492-7.7-4.879c-17.651,26.023-64.389,51.093-80.323,68.3
			c3.24,0.246,19.781,0.305,19.781,20.524c0,13.393-10.208,39.236-28.126,39.236C515.596,738.552,513.879,728.757,512.583,724.739z
			 M599.582,734.192c0-4.095,0.235-8.249,0.612-12.457c-1.734,1.535-11.925,17.174-14.898,22.344
			c-20.558,35.753-30.059,111.157-30.059,130.974c0,16.773,3.701,32.417,14.648,45.837c12.432,15.241,13.391,14.875,15.296,14.875
			c0.888,0,1.831-0.257,2.829-0.819c36.841-20.75,35.292-19.473,35.42-24.342c0.785-29.861,2.35-76.391,2.35-79.664
			c0-1.102-0.287-1.896-1.446-2.499c-3.39-1.763-7.336-7.006-7.336-11.158c0-1.677,0.413-2.491,1.14-4.732
			c-3.306,0.981-7.25,2.385-10.33,2.385c-4.146,0-24.306-9.919-24.306-24.833c0-6.624,13.729-14.481,24.25-21.861
			C601.554,757.435,599.582,746.057,599.582,734.192z M686.998,535.889c38.465-61.514,63.535-89.524,63.535-139.764
			c0-31.879-9.998-74.234-11.172-79.759c-8.978-42.249-4.763-40.017-6.749-56.329c-6.679,9.939-14.62,27.097-14.62,30.438
			c0,3.26,3.455,13.496,3.455,35.282c0,81.376-39.937,132.436-39.937,148.574c0,1.976,0.323,13.109,0.323,21.293
			c0,3.741-0.047,4.788-0.047,6.323C681.785,513.945,684.552,527.718,686.998,535.889z M596.292,249.319
			c-1.602,1.039-11.542,25.975-11.542,57.562c0,87.355,34.737,122.293,39.494,127.745c38.16,43.733,38.308,72.109,41.227,82.318
			c1.045-2.04,2.916-49.642,2.916-55.835C668.387,363.465,603.698,400.364,596.292,249.319z M687.739,552.357
			c0,2.052,0.106,4.165,0.106,6.378c0.728,0.094,1.453,0.134,2.177,0.134c61.266,0,81.5-28.007,121.977-115.928
			c-47.934,13.01-105.678,67.229-116.173,87.519C688.313,544.985,687.739,545.317,687.739,552.357z M486.606,460.158
			c-4.199,0-8.392,0.237-12.573,0.824c-0.036,0.244-0.073,0.488-0.109,0.732c122.043,27.358,148.257,105.292,173.651,105.292
			c2.936,0,5.858-1.053,8.819-3.11c3.197-2.221,4.59-2.836,4.59-4.468C660.984,527.618,558.346,460.158,486.606,460.158z
			 M654.643,109.802c-0.03,0.076-3.819,7.17-3.819,21.42c0,15.51,3.875,30.407,26.458,62.539
			c13.989,19.904,11.781,27.972,15.178,32.749c14.164,19.916,12.153,17.549,13.22,17.882c0.227-1.823,0.224-0.733,0.224-3.17
			c0-5.021-0.023-10.042-0.023-15.063c0-1.256,0.001-1.789,0.001-2.096c0-13.372-2.28-46.486-7.829-65.754
			C689.481,128.542,658.867,111.356,654.643,109.802z M651.381,893.541c0.308,0,0.507,0.025,0.648,0.025
			c0.635,0,21.466-13.316,37.687-36.948c15.194-22.136,36.906-46.972,36.906-56.711c0-1.258-0.432-1.832-1.594-1.832
			c-0.314,0-3.447,0.254-6.035,1.302c-62.78,25.415-68.892,27.537-68.892,68.028C650.102,867.48,650.214,884.289,651.381,893.541z
			 M677.697,720.011c-0.086-0.101-0.172-0.202-0.258-0.303c-13.754,7.292-47.283,36.97-58.298,45.228
			c-17.751,13.308-31.464,19.538-31.464,25.947c0,1.092,0.361,2.227,0.991,3.486c6.429-8.946,11.487-19.516,30.069-19.516
			c0.29,0,13.824,0.234,13.824,11.27c0,12.825-11.388,18.54-22.748,24.091c0.546,0.133,0.771,0.24,0.921,0.24
			c0.025,0,0.047-0.003,0.069-0.009c18.522-5.135,18.786-9.024,20.674-9.024c0.018,0,0.055,0.001,0.128,0.001
			c2.746,0,4.968-1.529,7.416-2.35c1.084-0.363,2.168-1.178,2.892-2.077c10.252-12.717,64.454-34.633,67.36-44.653
			c-4.141,2.978-11.973,11.61-24.738,11.61c-2.32,0-17.009-0.548-17.009-19.23C667.528,731.121,675.448,722.756,677.697,720.011z
			 M715.016,297.945c-0.214-0.037-0.428-0.074-0.642-0.112c-29.683,74.926-32.488,156.286-32.488,157.762
			c0,0.56,0.153,1.13,0.222,1.695c0.078-0.055,35.227-60.156,35.227-130.945C717.336,316.291,717.003,307.929,715.016,297.945z
			 M624.548,1045.653c0.165,0.026,0.331,0.052,0.496,0.078c0.02-0.076,22.287-100.555,22.287-103.629
			c0-4.518-0.979-8.659-0.979-18.608c0-9.054,0.983-13.478,0.983-19.102c0-0.546-0.082-1.108-0.124-1.754
			c-25.311,6.222-23.424,30.205-23.424,102.973C623.788,1039.23,624.329,1041.619,624.548,1045.653z M632.008,736.676
			c0.181-0.178,0.362-0.356,0.543-0.534c-1.281-1.469-12.353-13.733-12.353-18.722c0-4.043,10.504-21.985,31.161-21.985
			c5.944,0,9.254,3.204,9.254,8.456c0,14.183-18.537,29.751-22.345,33.383c1.404,0.74,2.914,1.099,4.366,1.099
			c7.292,0,17.672-16.654,42.359-27.13c2.99-1.269,4.946-5.043,17.354-18.75c-0.265-0.077-0.493-0.109-0.696-0.109
			c-0.736,0-8.357,3.47-16.508,3.47c-2.553,0-21.563-2.258-21.563-24.104c0-4.662,0.955-7.899,1.77-11.263
			c-2.828,0.879-19.819,14.339-42.963,44.513c-0.759,0.99-3.49,4.992-3.49,10.067C618.899,715.318,618.922,729.939,632.008,736.676z
			 M714.186,666.104c0-0.148-0.001-0.296-0.004-0.444c-0.198-1.883-0.369-3.77-0.6-5.649c-0.56-4.557-5.662-14.628-15.843-14.628
			c-14.459,0-30.08,6.552-30.08,26.612c0,13.636,9.717,19.69,17.501,19.69C703.941,691.685,714.186,678.64,714.186,666.104z
			 M712.216,244.366c0.241,0.097,0.482,0.195,0.722,0.292c17.614-27.892,70.724-43.805,70.724-68.88c0-4.089-1.167-7.24-5.29-7.24
			C763.154,168.537,720.555,205.281,712.216,244.366z M671.529,745.038c0.131,1.625,0.084,14.871,12.974,14.871
			c11.158,0,30.603-12.396,30.603-30.715c0-3.018-2.847-13.293-16.66-13.293C682.672,715.901,671.883,729.445,671.529,745.038z
			 M516.348,718.532c0.829,6.193,0.322,15.94,12.883,15.94c15.912,0,24.268-25.136,24.268-34.741
			c0-16.868-13.291-16.727-14.72-16.727C523.681,683.004,516.642,708.37,516.348,718.532z M695.863,768.225
			c-4.07,1.44-45.454,25.949-48.213,28.554c2.021,0.762,3.338,2.173,4,4.154c0.923,2.76,1.439,5.441,1.439,8.018
			c0,8.652-5.425,12.725-10.268,16.735c0.482,0.114,0.936,0.167,1.367,0.167c1.198,0,17.883-5.101,20.027-6.644
			c10.47-7.533,28.622-12.467,35.961-17.077c-2.837-1.114-10.804-2.123-10.804-14.798
			C689.373,780.495,692.273,775.823,695.863,768.225z M627.426,910.944c0.816-0.394,1.253-0.533,1.608-0.787
			c18.57-13.252,18.292-12.579,18.292-14.553c0-0.847-1.212-7.88-1.212-26.003c0-34.482,5.842-36.87,9.477-42.478
			c-7.178,2.342-14.065,3.847-21.25,3.847c-1.468,0-2.948-0.063-4.446-0.194C629.071,857.563,628.255,884.054,627.426,910.944z
			 M639.649,742.669c-0.063-0.244-0.127-0.487-0.19-0.731c-1.538-0.345-3.076-0.966-4.613-0.966c-0.006,0-0.009,0-0.019,0
			c-9.231,0-19.888-12.829-19.888-25.721c0-7.874,3.295-12.486,13.352-24.526c19.794-23.695,18.065-16.698,18.065-23.02
			c0-1.262-0.028-2.581-0.028-4.019c-46.735,51.406-42.76,54.728-42.76,68.893c0,7.603,1.064,23.857,7.834,33.099
			C621.506,758.701,629.858,749.8,639.649,742.669z M663.006,244.579c-0.104-0.109-32.467-26.156-50.244-26.156
			c-5.297,0-7.469,3.371-7.469,8.02c0,13.676,16.915,23.748,31.961,23.748C648.894,250.19,662.736,244.868,663.006,244.579z
			 M723.701,792.696c0.143-0.771,0.245-0.472,0.245-2.976c0-2.324-1.106-26.836-12.734-26.836
			c-10.415,0-17.712,17.064-17.712,24.259c0,6.636,2.146,10.915,9.913,10.915C706.704,798.057,707.414,797.625,723.701,792.696z
			 M687.244,239.452c0-2.3-0.001-4.495-0.001-6.647c0-3.031,0.002-4.609,0.002-4.655c0-8.152-24.25-30.443-29.666-30.443
			c-2.209,0-3.174,6.679-3.174,8.364C654.405,218.288,683.903,237.832,687.244,239.452z M702.28,613.167
			c-1.483-4.623-2.916-8.83-4.174-13.088c-1.744-5.907-8.147-8.508-11.501-8.508c-3.953,0-5.559,1.333-5.96,3.64
			c-2.461,14.156-5.073,27.371-5.073,28.206c0,0.317,0.032,0.628,0.032,0.901C684.562,620.573,693.337,616.906,702.28,613.167z
			 M716.173,217.926c0.223,0.081,0.445,0.163,0.668,0.244c14.315-26.388,17.58-51.983,17.58-52.656c0-2.914-1.626-6.154-3.471-6.154
			C721.498,159.361,717.381,207.65,716.173,217.926z M655.329,707.095c-0.206-0.16-0.412-0.319-0.618-0.479
			c-3.859,2.379-10.484,5.618-13.678,6.77c-5.51,1.988-13.094,1.859-14.731,3.564c0.616,3.75,5.245,11.406,9.582,15.786
			C644.524,725.78,651.941,717.949,655.329,707.095z M609.05,790.393c6.003,0,12.044,0.627,18.247,1.174
			c0.486-1.823,1.185-3.653,1.185-5.54c0-7.153-10.009-7.036-11.197-7.036c-1.53,0-14.864-0.004-21.379,12.682
			C600.299,790.728,604.664,790.393,609.05,790.393z M663.692,629.272c-0.773,0.868-0.556,0.365-0.953,1.822
			c-5.708,20.967-12.074,22.188-12.074,29.08c0,0.523,0.035,0.654,0.035,1.289c0,1.773-0.326,3.609-0.51,5.811
			c0.825-0.548,1.222-0.759,1.558-1.043c16.941-14.312,16.595-13.457,16.595-15.601
			C668.345,650.313,668.436,643.047,663.692,629.272z M625.164,821.58c1.952,2.321,3.477,3.29,5.644,3.29
			c3.924,0,18.182-4.063,18.182-15.89c0-2.058-0.425-4.166-1.084-6.317c-0.299-0.974-0.881-1.305-1.826-1.305
			c-2.607,0-3.85,1.891-4.505,3.037C634.729,816.356,627.743,815.843,625.164,821.58z M624.9,795.736
			c-2.682-0.911-19.391-1.013-19.467-1.013c-2.152,0-3.609,0.076-8.458,1.331c-1.84,0.476-2.596,1.286-2.596,2.665
			c0,5.065,6.666,9.664,8.292,9.664C603.712,808.383,616.906,803.646,624.9,795.736z M643.135,582.049
			c0-0.218-0.027-0.517-0.027-1.009c-1.023,0.756-0.862,0.056-11.839,11.485c-5.026,5.233-8.821,14.789-8.821,15.859
			c0,1.68,2.242,2.879,3.483,2.879C634.401,611.262,643.135,582.816,643.135,582.049z M706.127,611.131
			c2.017-0.769,2.921-2.265,3.218-3.936c0.404-2.27,0.735-4.598,0.735-6.899c0-8.849-6.453-14.55-10.274-14.55
			c-1.721,0-6.556,1.313-8.958,1.857c-0.011,0.211-0.023,0.422-0.034,0.632C703.205,594.338,700.112,595.768,706.127,611.131z
			 M662.674,564.694c-6.922,4.399-6.867,4.732-15.961,7.174c6.316,4.733,7.341,11.644,11.903,21.216
			C660.007,583.357,661.303,574.289,662.674,564.694z M628.618,711.474c8.668,0,19.506-4.281,26.789-10.516
			c-1.83-1.211-2.342-1.526-3.834-1.526c-15.418,0-23.223,11.275-23.877,12.026C628,711.468,628.308,711.474,628.618,711.474z
			 M738.69,240.427c-9.05,1.809-20.386,10.48-23.795,17.956c0.554,0.27,1.081,0.395,1.586,0.395c0.933,0,1.944-0.231,5.334-3.55
			C735.605,241.73,736.574,243.054,738.69,240.427z M701.979,248.45c-1.022-3.577-6.974-12.149-10.283-14.915
			c0,3.113,0,5.982,0,8.931C694.928,244.347,698.268,246.29,701.979,248.45z M700.606,260.022c-6.194,0-14.734,4.113-19.116,9.612
			c7.39-3.1,14.356-7.122,22.657-9.039C703.11,260.205,701.91,260.022,700.606,260.022z M621.099,816.986
			c0,0.477,0.114,0.984,0.363,1.519c11.342-9.572,12.705-9.442,14.167-13.279C628.21,808.378,621.099,814.205,621.099,816.986z
			 M683.205,245.387c-2.521,0-5.012,0.465-7.501,1.278c1.028,0.74,3.944,2.721,7.781,2.721c2.21,0,2.897-0.937,2.923-3.743
			C685.334,245.47,684.267,245.387,683.205,245.387z M703.787,253.431c1.27,1.729,2.097,2.856,2.924,3.982
			c0.18-0.082,0.36-0.164,0.54-0.246c-0.121-1.142-0.242-2.283-0.372-3.501C705.901,253.591,705.188,253.537,703.787,253.431z
			 M639.277,577.677c0.225,0.185,0.45,0.37,0.676,0.555c0.893-1.064,1.787-2.128,2.68-3.192c-0.186-0.159-0.372-0.317-0.558-0.476
			C641.143,575.602,640.21,576.64,639.277,577.677z"/>
	</g>
</g>
</svg>
