<?xml version="1.0" encoding="iso-8859-1"?>
<!-- Generator: Adobe Illustrator 22.1.0, SVG Export Plug-In . SVG Version: 6.00 Build 0)  -->
<svg version="1.1" id="Layer_1" xmlns="http://www.w3.org/2000/svg" xmlns:xlink="http://www.w3.org/1999/xlink" x="0px" y="0px"
	 width="1000px" height="1200px" viewBox="0 0 1000 1200" enable-background="new 0 0 1000 1200" xml:space="preserve">
<g>
	<g>
		<path fill="#ECE4DA" d="M665.853,849.026c-27.555-0.148-45.781-10.578-73.399-26.158
			c-101.813-57.434-137.996-37.456-137.996-57.141c0-4.111,85.541-250.418,106.628-259.552
			c93.313-40.423,16.85,0.474,165.059-90.316c1.992-1.221,3.904-1.802,5.755-1.802c2.392,0,4.682,0.972,6.914,2.795
			C866.593,521.229,899.344,519.801,899.344,543.8c0,17.88-36.875,44.593-80.831,95.252
			C727.956,743.415,771.212,846.527,665.853,849.026z"/>
		<path fill="#ECE4DA" d="M418.463,151.703c1.471,0,2.948,0.062,4.429,0.165c110.404,6.617,134.767,56.067,134.767,72.501
			c0,8.004-3.952,18.885-3.952,53.801c0,29.126,2.862,61.363,2.862,85.798c0,33.095-3.258,47.444-7.19,58.529
			c-16.293,45.928-168.457,65.599-170.486,65.599c-7.851,0-14.221-3.538-18.996-10.633c-8.12-12.065-64.376-137.776-64.376-167.79
			c0-40.864,54.768-76.541,72.539-120.486c8.325-20.591,9.203-26.692,20.021-29.758
			C405.703,154.433,408.087,151.703,418.463,151.703z"/>
		<path fill="#ECE4DA" d="M336.905,985.419c-0.132,0-0.264-0.001-0.395-0.002c-74.991-1.941-74.338-69.045-74.338-162.852
			c0-37.976,3.721-43.27,9.987-45.164c18.481-5.587,84.684-19.081,96.991-19.081c6.13,0,12.569,1.095,12.569,8.45
			c0,9.955-14.084,49.088-14.084,100.3c0,44.409,13.523,63.069,13.523,86.493C381.158,978.662,350.317,985.419,336.905,985.419z"/>
	</g>
	<g>
		<path fill="#603813" d="M448.773,471.779c-32.636-15.722-36.845-65.624-59.343-98.824c-1.748,0.2-3.478,0.316-5.195,0.316
			c-29.039,0-47.889-39.406-47.889-57.929c0-23.663,23.381-36.961,41.493-36.961c9.749,0,22.036,2.96,35.738,9.975
			c5.233-1.554,10.584-3.143,15.97-4.743c-0.628-4.145-8.798-7.778-16.194-7.778c-9.126,0-16.165,3.589-16.324,3.589
			c-0.017,0-0.066-0.001-0.177-0.001c-0.234,0-0.475,0.006-0.716,0.006c-0.412,0-2.391,0.105-2.391-1.721
			c0-2.414,6.546-12.755,17.765-12.755c5.668,0,10.22,2.451,15.459,4.419c-0.096-0.318-5.118-15.068-17.834-15.068
			c-19.799,0-29.869,10.183-31.646,10.183c-0.456,0-1.665-0.33-1.665-1.401c0-2.356,9.822-19.015,31.184-19.015
			c3.28,0,15.439-0.882,23.115,14.128c8.108,15.855,7.503,16.768,7.503,17.994c0,4.475-17.205,46.864-17.205,51.479
			c0,2.172,1.02,3.098,1.248,3.403c0.627-4.639-0.432-15.526,11.695-15.526c9.866,0,15.227,8.543,15.227,14.803
			c0,6.914-8.214,11.78-14.754,11.78c-3.53,0-6.216-1.128-7.676-1.638c0.395,3.283,1.256,5.985,3.776,7.922
			c0.248-0.211,0.347-0.253,0.356-0.31c0.436-2.801,1.835-4.358,3.738-4.358c3.417,0,6.11,4.323,8.247,6.722
			c3.125-1.736,6.597-3.664,10.425-5.791c-1.588-0.524-4.804-1.185-4.804-3.532c0-2.467,4.614-4.898,8.675-4.898
			c2.884,0,5.608,1.092,7.955,2.077c0.605,0.254,2.722,1.381,2.722,4.009c0,1.065-0.683,2.155-1.138,3.496
			c0.785,0.691,1.686,1.008,2.698,1.008c1.382,0,7.092-1.487,7.092-5.441c0-4.556-16.232-21.411-16.232-44.119
			c0-28.498,28.043-36.996,56.694-36.996c12.481,0,24.265,2.469,25.122,2.469c0.147,0,0.319-0.087,0.662-0.177
			c-3.643-8.289-12.702-14.278-26.229-14.278c-23.579,0-21.328,13.527-33.794,16.68c-6.704,1.696-12.144,3.47-13.176,3.47
			c-2.183,0-2.158-2.807-2.158-4.849c0-10.112,2.134-34.763,49.809-34.763c18.239,0,30.01,7.997,34.094,9.061
			c-3.889-8.951-20.8-15.173-35.713-15.173c-16.424,0-55.362,11.712-55.362,16.171c0,2.219,2.023,3.682,2.023,5.084
			c0,0.833-0.846,1.333-1.391,1.333c-1.238,0-3.613-3.316-3.613-6.577c0-1.889,0.717-3.436,2.372-4.47
			c6.372-3.981,37.717-14.83,56.075-14.83c35.186,0,41.882,22.411,41.882,23.041c0,0.84-0.777,1.684-1.573,1.684
			c-2.63,0-17.605-12.082-39.113-12.082c-49.197,0-45.937,27.272-46.372,32.521c4.481-0.749,4.677-1.156,9.912-2.354
			c12.692-2.905,10.95-17.14,36.253-17.14c25.954,0,30.805,19.871,30.805,20.29c0,0.792-0.264,1.815-1.367,1.815
			c-0.43,0-13.378-3.553-25.352-3.553c-0.302,0-0.607,0.079-0.886,0.113c10.311,6.849,12.376,7.12,18.051,16.527
			c22.682-5.305,71.244-15.987,92.754-25.727c-45.191-21.71-66.836-129.415-138.401-129.415c-8.367,0-9.347,2.358-9.779,3.053
			c-16.501,26.577-82.506-4.285-92.243,72.249c-8.337,65.527-78.426,72.992-78.426,139.51c0,27.528,15.285,33.128,15.285,36.709
			c0,0.331-0.071,0.646-0.22,0.791c-0.333,0.322-0.961,0.56-1.473,0.56c-4.304,0-25.897-29.419-25.897-58.703
			c0-46.175,45.627-82.239,47.556-100.709c-82.807,111.773-88.475,134.373-88.475,155.147c0,48.212,49.699,39.064,49.699,100.326
			c0,42.36-23.863,75.262-23.863,107.605c0,40.873,33.702,46.484,35.042,48.149c0.311,0.386,0.543,0.998,0.543,1.511
			c0,0.109-0.01,0.214-0.033,0.311c-0.097,0.419-1.159,0.839-1.669,0.839c-0.868,0-37.162-8.493-37.162-50.81
			c0-32.789,23.92-66.428,23.92-107.512c0-59.546-49.747-50.161-49.747-100.424c0-36.609,31.155-73.885,67.083-123.17
			c50.755-69.624,32.46-95.63,62.469-117.904c4.09-3.035,25.828-33.727,48.041-33.727c19.69,0,26.634,19.633,26.634,20.146
			c0,2.226-1.781,3.49-27.651,3.939c-59.377,1.03-63.297,34.769-73.955,72.587c-18.707,66.379-55.166,74.718-55.166,123.738
			c0,13.95,4.561,25.557,5.932,26.848c0-0.429,0.011-0.767,0.011-1.07c0-0.763-0.188-2.34-0.188-5.573
			c0-66.709,71.641-78.874,78.036-136.398c6.942-62.447,44.88-59.419,75.728-66.906c26.19-6.357,10.484-14.354,29.999-14.354
			c90.43,0,88.259,132.954,161.138,132.954c0.84,0,1.099-0.008,1.896-0.008c8.728,0,17.323,1.063,25.857,2.822
			c11.9,2.453,22.858,1.456,22.858,27.91c0,22.634-18.341,80.214-44.4,80.214c-1.818,0-16.399-0.467-16.399-20.907
			c0-6.052,1.503-11.733,4.979-16.945c16.741-25.101,19.824-52.828,31.04-52.828c7.604,0,7.251,16.658,7.251,20.433
			c0,0.551-0.017,1.104-0.017,1.657c2.518-0.145,2.818-0.341,3.394-2.424c0.934-3.378,1.369-6.735,1.369-10.068
			c0-5.013-0.984-9.971-2.733-14.862c-1.408-3.938-4.123-5.853-7.942-5.853c-2.039,0-7.857,0.748-19.144,5.626
			c-45.358,19.602-20.586,5.539-42.96,76.098c-13.865,43.724-55.372,53.893-60.795,53.893c-13.288,0-19.184-12.319-19.184-23.442
			c0-42.308,90.111-90.632,90.415-96.125c0.453-8.188,1.425-17.903,1.425-19.675c0-0.561-0.022-1.143-0.022-1.774
			c-32.043,10.422-23.751,8.917-90.625,24.577c-0.058,0.416-0.126,0.622-0.126,0.755c0,0.687,5.274,10.328,5.274,31.445
			c0,40.93-26.751,39.527-27.786,39.527c-19.223,0-37.109-15.067-37.109-25.419c0-2.018,0.418-4.125,1.255-6.316
			c12.031-31.499,52.444-41.135,53.15-42.189c-6.047-12.215-22.999-16.933-26.415-16.933c-7.368,0-44.408,2.966-44.408,33.106
			c0,21.14,16.161,38.951,16.161,43.875c0,5.629-5.633,7.64-6.328,8.025c-1.283,0.711-2.567,1.072-3.854,1.072
			c-4.019,0-5.577-3.245-10.132-3.245c-6.591,0-13.842,7.205-17.551,7.205c-0.571,0-1.11-0.098-1.409-0.377
			c-3.74-3.493-14.49,4.277-17.258-13.964c-0.64-4.218-5.372-5.954-5.372-12.295c0-4.586,13.01-36.686,13.671-40.931
			c-5.053,0.912-15.034,4.787-16.732,4.787c-3.908,0-17.592-9.604-35.911-9.604c-18.188,0-38.576,12.457-38.576,34.166
			c0,16.66,18.18,54.15,45.007,54.15c1.851,0,1.691-0.099,2.287-0.339c-3.219-8.059-25.418-32.733-25.418-48.711
			c0-9.657,4.926-22.532,19.479-22.532c23.563,0,37.392,29.096,37.392,42.415c0,22.769-25.179,31.311-25.249,31.375
			c34.27,69.118,19.428,56.037,39.983,82.4c6.506,8.344,11.157,14.965,24.874,14.965c6.499,0,11.053-1.27,29.78-1.27
			c15.963,0,33.54,0.891,33.611,0.891c2.356,0,4.499-0.588,6.709-1.51c80.556-33.621,103.423-37.973,111.214-96.278
			c-7.361,4.636-57.951,47.294-93.597,47.294c-21.519,0-34.45-20.61-42.379-20.61c-5.38,0-22.686,25.491-49.433,25.491
			c-19.19,0-25.032-15.319-26.037-16.682c-2.593-0.558-3.127-0.822-3.127-2.727c0-6.5,3.084-25.071,12.878-25.071
			c0.956,0,1.56,0.237,3.368,0.237c8.489,0,7.876-5.203,16.045-5.203c0.889,0,9.202,0.11,16.873,4.597
			c17.092,9.997,28.221,9.649,28.221,12.64c0,0.099,0.167,1.44-1.983,1.885c-26.181,5.416-35.03-5.221-69.375,11.763
			c6.181,13.993,17.83,15.325,22.939,15.325c25.784,0,42.043-25.361,49.682-25.361c10.978,0,20.969,20.459,42.506,20.459
			c36.962,0,91.509-48.566,95.206-48.566c1.062,0,1.761,0.739,1.761,2.016c0,65.417-54.784,74.5-113.947,102.117
			c8.766,3.332,31.773,3.708,37.367,3.708c70.988,0,70.489-45.591,80.377-69.58c13.394-32.493,67.29-70.142,68.001-70.142
			c1.058,0,1.635,0.417,1.635,1.635c0,3.283-35.664,30.841-48.229,76.237c-3.083,11.139-13.365,90.382-96.444,103.716
			c4.6,4.031,23.083,9.221,39.471,9.221c79.051,0,72.43-77.228,79.739-77.228c1.374,0,1.903,1.132,2.132,2.285
			c7.813,39.314,26.4,61.442,46.849,61.442c3.637,0,1.601-2.338,5.742-2.338c0.54,0,1.123,0.4,1.641,0.691
			c85.978,48.363,99.894,68.519,99.894,93.129c0,11.457-3.632,43.192-16.955,75.03c-24.352,58.19-43.739,61.739-71.587,63.432
			c-247.486,15.052-258.968,275.087-372.169,275.087c-15.952,0-64.173-14.119-64.173-141.047c0-16.164,0.642-30.665,0.642-32.328
			c0-0.573-0.011-1.194-0.011-1.949c-10.193,6.001-101.3,94.689-122.178,150.485c2.66,1.262,7.473,4.094,34.086,12.687
			c101.393,32.74,113.596,63.37,156.735,63.37c85.791,0,263.479-317.263,332.304-317.263c1.249,0,1.532,1.162,1.532,1.571
			c0,0.712-0.598,1.173-1.238,1.562c-148.686,90.432-238.411,317.322-333.103,317.322c-18.061,0-35.04-6.678-58.427-19.817
			c-80.092-44.995-135.126-50.702-135.126-59.292c0-1.098,0.533-2.478,1.488-4.388c51.13-102.209,124.389-144.412,124.389-154.504
			c0-0.578-0.019-1.166-0.019-1.744c0-0.361,0.008-0.718,0.032-1.067C343.743,540.995,351.479,498.159,448.773,471.779z
			 M745.058,513.243c0,1.051,0.037,1.888,0.037,2.64c0,0.665,0.404,22.4-16.133,53.618
			C615.968,782.808,474.219,708.199,327.481,837.544c-1.057,0.931-1.977-1.342-1.977,39.174c0,131.27,52.329,137.332,61.009,137.332
			c8.815,0,59.098-9.819,115.74-102.637c117.861-193.136,227.088-164.967,272.984-174.301
			c54.24-11.031,68.665-121.503,68.665-132.422C843.902,595.348,849.811,569.761,745.058,513.243z M690.9,458.232
			c-0.18,0.02-0.36,0.04-0.539,0.06c-5.021,19.415-13.103,70.817-79.697,70.817c-20.909,0-44.385-7.983-44.385-13.576
			c0-4.139,76.846-5.048,94.715-87.395c5.24-24.149,10.501-41.37,36.136-75.075c-0.039-0.002-0.077-0.002-0.114-0.002
			c-2.456,0-28.955,25.967-29.492,26.501c-35.991,35.853-12.224,98.509-102.957,98.509c-43.817,0-15.248-6.317-88.146-6.317
			c-0.406,0-0.813,0.165-1.376,0.286c0.556,0.532,62.55,13.319,62.55,86.231c0,73.037-104.905,122.122-140.688,122.122
			c-45.914,0-44.172-55.868-44.172-63.664c0-58.759,21.084-90.695,22.046-93.635c-2.05,1.246-13.026,20.131-17.892,38.099
			c-11.534,42.595-30.314,270.756-30.314,270.859c0,0.441,0.103,0.906,0.184,1.658c59.221-47.16,50.157-42.79,170.253-87.147
			c34.435-12.717,61.124-60.995,65.998-60.995c0.249,0,0.478,0.044,0.637,0.143c0.531,0.331,0.724,1.819,0.724,1.861
			c0,0.572-4.535,10.94-4.535,20.928c0,7.599,2.495,12.031,3.051,13.31c140.964-42.938,178.974-195.443,178.974-203.17
			c0-0.987-0.056-1.985-0.184-2.998c-0.487-0.04-0.882-0.107-1.267-0.107c-0.117,0-0.461,0.017-1.056,0.017
			C705.322,515.55,691.812,462.743,690.9,458.232z M534.571,558.142c0-0.058,0-0.117,0-0.175
			c-3.43-38.101-23.122-83.438-72.462-83.438c-6.143,0-12.334,0.783-18.56,2.224c-2.665,0.616-87.408,16.483-87.408,136.74
			c0,16.566-0.372,63.62,41.042,63.62C424.941,677.112,534.571,633.616,534.571,558.142z M627.641,287.061
			c-20.483,10.997-86.438,57.937-86.438,89.048c0,8.588,4.005,20.26,16.031,20.26c2.875,0,5.645-0.712,8.355-1.704
			C608.876,378.82,618.287,346.108,627.641,287.061z M535.51,284.434c-24.979,5.031-52.863,28.98-52.863,45.092
			c0,8.95,17.008,22.124,34.353,22.124c19.253,0,24.054-21.694,24.054-35.022C541.054,298.532,538.067,290.501,535.51,284.434z
			 M390.496,368.912c0.565,0.035,0.805,0.071,0.96,0.071c4.241,0,23.735-9.899,23.735-28.129c0-12.013-13.241-39.099-33.668-39.099
			c-14.889,0-16.83,14.01-16.83,18.439C364.692,330.81,373.424,342.207,390.496,368.912z M655.014,328.102
			c0-1.545,0.214-3.097,0.317-4.646c-0.105-0.072-0.211-0.144-0.316-0.216c-4.016,5.658-9.109,11.066-9.109,21.342
			c0,2.688,0.106,17.905,13.436,17.905c21.708,0,40.938-52.916,40.938-77.531c0-14.812-4.136-22.336-14.018-22.583
			c0.437,0.383,7.61,4.74,7.61,22.628c0,13.629-3.976,15.694-8.048,15.888c-0.914,2.076-0.365,8.845-8.939,15.866
			c-17.326,14.188-18.235,14.52-19.854,14.52C654.881,331.276,655.014,328.532,655.014,328.102z M427.788,402.917
			c5.573-2.784,18.387-11.253,39.199-11.253c2.578,0,3.762,0.136,8.315,0.136c7.91,0,11.422-0.383,17.084-0.713
			c-0.521-0.671-1.1-0.991-1.717-1.19c-16.082-5.202-21.555-12.407-32.857-12.407c-8.665,0-7.817,5.221-14.161,5.221
			c-1.786,0-3.698-0.393-4.725-0.393C432.32,382.317,428.769,391.633,427.788,402.917z M455.618,118.389
			c-3.87-5.792-8.983-16.221-23.84-16.221c-16.426,0-36.485,23.812-36.526,23.889c0.366-0.063,0.625-0.057,0.839-0.152
			C413.549,118.112,427.984,120.923,455.618,118.389z M631.732,280.613c22.099-11.356,30.444-16.348,45.848-20.15
			c-11.261-2.868-25.066-0.949-44.506-4.702C632.627,264.028,632.184,272.24,631.732,280.613z M559.68,723.108
			c-1.739-4.338-3.065-8.532-3.065-12.905c0-3.481,0.918-10.676,1.343-15.033c-12.276,15.677-23.886,31.476-39.969,43.131
			c0.108,0.15,0.217,0.299,0.325,0.449C532.01,733.571,545.705,728.392,559.68,723.108z M434.256,338.865
			c0.078,0,0.158,0,0.237-0.001c3.676-0.152,10.822-3.194,10.822-8.595c0-6.041-5.587-11.471-11.829-11.471
			c-8.975,0-8.192,6.472-8.192,15.967C425.295,337.366,430.581,338.865,434.256,338.865z M658.154,326.622
			c0.226,0.115,0.452,0.229,0.678,0.344c21.843-16.098,22.292-18.445,23.34-26.242c-1.829-0.332-3.552-0.488-5.232-0.488
			c-4.97,0-7.769,0.916-9.355,4.184C657.459,325.296,659.544,321.527,658.154,326.622z M678.954,297.03
			c1.137,0,2.34-0.012,3.719-0.012c0-0.755,0.017-1.446,0.017-2.111c0-3.664-0.407-16.428-4.131-16.428
			c-4.824,0-12.363,18.255-13.868,23.539c2.939-4.11,7.047-5.014,11.536-5.014C677.019,297.004,677.239,297.03,678.954,297.03z
			 M383.875,256.375c0.635,0.049,0.836,0.081,0.926,0.081c0.794,0,10.292-5.42,23.769-5.42c18.911,0,24.286,24.626,24.286,26.377
			c0,1.586-0.964,2.017-0.964,2.744c0,0.443,0.381,0.757,0.846,1.183c1.005-1.914,1.693-3.754,1.693-5.641
			c0-1.336-0.344-2.695-1.164-4.121c-5.779-10.049-8.26-24.23-25.89-24.23C394.022,247.348,385.791,254.93,383.875,256.375z
			 M411.458,268.273c-5.068,0-9,2.573-12.875,6.517c5.476-1.005,8.594-2.063,14.934-2.063c7.292,0,9.618,1.841,15.573,4.058
			C428.89,276.565,423.31,268.273,411.458,268.273z M460.94,343.029c0.929,0,1.86-0.232,2.857-0.735
			c-1.565-1.796-3.941-2.73-6.392-2.73c-1.685,0-3.405,0.441-4.924,1.346C460.581,343.047,459.716,343.029,460.94,343.029z"/>
	</g>
</g>
</svg>
