<?xml version="1.0" encoding="iso-8859-1"?>
<!-- Generator: Adobe Illustrator 22.1.0, SVG Export Plug-In . SVG Version: 6.00 Build 0)  -->
<svg version="1.1" id="Layer_1" xmlns="http://www.w3.org/2000/svg" xmlns:xlink="http://www.w3.org/1999/xlink" x="0px" y="0px"
	 width="1000px" height="1200px" viewBox="0 0 1000 1200" enable-background="new 0 0 1000 1200" xml:space="preserve">
<g>
	<g>
		<path fill="#ECE4DA" d="M498.346,114.675c6.381,0,13.094,0.041,20.665,0.041c278.513,10.9,269.297,78.431,272.828,130.534
			c3.846,56.744,75.199,92.536,75.199,106.519c0,8.706-70.21,98.328-176.24,98.328c-17.7,0-37.383-2.124-57.194-5.435
			c-229.445-38.349-389.013-30.142-389.013-69.926c0-5.513,5.131-10.847,8.019-13.119c109.218-85.93,61.623-29.891,134.068-162.523
			C426.317,126.526,415.304,114.675,498.346,114.675z"/>
		<path fill="#ECE4DA" d="M463.521,941.206c-0.53,0-1.06-0.001-1.591-0.004c-0.597,0.004-1.195,0.006-1.794,0.006
			c-39.636,0-88.282-9.783-127.825-9.783c-117.404,0-188.549,64.523-219.267,64.523c-23.565,0-29.899-31.249-29.899-48.085
			c0-91.047,121.179-199.861,188.817-199.861c32.483,0,127.369,25.184,202.786,25.184c109.618,0,171.58-37.034,193.201-37.034
			c25.332,0,25.608,39.933,25.608,42.366C693.559,903.876,540.335,941.206,463.521,941.206z"/>
		<path fill="#ECE4DA" d="M741.805,788.711c0.247-0.268,0.751-1.16,1.263-1.16c1.728,0,20.791,87.257,20.791,87.327
			c0,1.119-1.17,1.232-1.336,1.232C757.282,876.11,746.41,808.614,741.805,788.711z"/>
	</g>
	<g>
		<path fill="#603813" d="M723.156,356.732c1.145,0,2.175,0.033,3.157,0.033c1.495,0,1.75-0.073,2.34-0.073
			c1.728,0,3.194,0.605,4.593,1.683c45.481,35.035,172.925,98.987,174.402,98.987c0.47,0,0.825-0.072,1.232-0.072
			c1.148,0,1.77,0.522,1.77,1.524c0,55.934-163.958,69.408-196.767,72.718c1.813,7.809,3.149,9.891,3.149,13.071
			c0,10.045-15.194,14.372-15.194,32.608c0,6.989,2.18,17.374,2.18,23.464c0,9.791-1.817,21.049-29.461,21.049
			c-15.063,0-61.535-7.258-61.727-7.258c-3.262,0-49.493,47-49.493,66.651c0,7.523,4.955,14.965,15.065,14.965
			c38.879,0,124.809-73.662,197.464-73.662c6.867,0,10.451,0.583,11.516,0.583c1.002,0,1.868-0.248,2.674-0.922
			c30.494-25.519,76.811-31.642,87.729-31.642c10.912,0,9.98,2.029,9.98,2.23c0,0.536-0.313,1.197-0.945,1.991
			c-154.781,194.464-70.679,498.384-335.391,498.384c-153.941,0-261.667-148.067-401.488-148.067
			c-44.761,0-56.91,6.704-57.588,6.704c-0.041,0-0.247-0.023-0.774-0.023c-0.28,0-0.564,0.006-0.845,0.006
			c-1.874,0-2.876-0.451-2.876-1.655c0-0.686,0.323-1.473,0.508-2.141c30.288-108.94,91.655-98.081,156.517-126.006
			c134.62-57.957,145.219-92.218,145.219-173.912c0-89.445-17.238-84.344-39.433-155.816c-21.886-5.535-43.865-11.094-65.912-16.67
			c-0.211,0.402-0.296,0.798-0.296,1.185c0,35.307,104.474,76.253,104.474,157.817c0,32.855-30.012,47.525-47.521,47.525
			c-26.95,0-62.55-32.261-62.55-81.239c0-36.503,22.235-80.305,22.235-87.429c0-3.613-1.599-6.878-4.177-9.914
			c-14.883-17.527-16.361-28.29-16.361-28.641c0-1.742,1.188-2.733,3.366-2.733c5.803,0,188.126,56.957,397.277,56.957
			c25.268,0,193.667-0.879,225.232-68.276c-1.021-0.631-1.899-1.363-2.909-1.769c-39.697-15.95-176.101-99.034-176.171-99.034
			c-0.763,0-0.922,0.095-1.99,0.095c-1.204,0-2.42-0.136-3.628-0.136c-2.602,0-112.289,87.353-354.356,87.353
			c-165.273,0-211.25-17.046-211.25-42.328c0-22.223,55.003-69.257,113.06-69.257c57.793,0,152.534,27.073,296.241,27.073
			c51.131,0,110.487-6.945,128.234-6.945c8.292,0,23.637,0.538,23.709,0.538c2.96,0,7.827-7.192,7.827-14.665
			c0-0.713-0.036-1.439-0.108-2.177c-9.071-92.9-7.224-134.498-39.777-148.266c-47.489-20.085-259.129-37.163-264.838-37.163
			c-16.041,0-26.296,1.683-34.788,4.826c-21.491,7.954-66.776,77.338-66.776,119.385c0,53.865,59.17,57.215,112.922,57.215
			c76.898,0,206.011-21.024,206.011-69.538c0-27.421-51.317-44.715-104.193-44.715c-122.486,0-141.628,39.871-141.698,39.931
			c-0.479,0.412-1.22,0.829-1.812,0.829c-0.45,0-1.217-0.252-1.217-1.385c0-12.269,46.517-42.609,145.254-42.609
			c53.195,0,106.981,17.713,106.981,47.809c0,33.054-66.86,72.961-213.181,72.961c-71.642,0-112.325-12.682-112.325-61.062
			c0-2.743,0.089-25.858,14.054-52.119c37.696-70.885,52.227-74.916,90.857-74.916c5.556,0,11.113,0.28,16.664,0.799
			c245.448,22.953,263.329,33.743,273.841,62.326c12.251,33.31,17.389,127.429,17.389,127.499
			C728.464,350.547,724.37,354.025,723.156,356.732z M197.853,843.477c0.003,0.128,0.006,0.255,0.009,0.383
			c91.307,17.333,163.135,102.305,294.312,102.305c248.93,0,293.152-312.89,294.949-319.586c-0.72-0.155-2.654-0.79-11.153-0.79
			c-70.807,0-156.811,73.591-197.597,73.591c-10.928,0-18.427-7.891-18.427-17.918c0-21.809,41.515-61.362,47.366-67.817
			c-138.637-30.671-136.07-73.504-136.07-75.421c0-9.387,19.987-11.043,29.34-11.043c56.823,0,173.658,23.901,173.658,33.011
			c0,5.504-41.921,32.76-59.094,51.203c2.921,0.481,44.212,6.909,59.32,6.909c21.312,0,26.238-5.92,26.238-17.195
			c0-4.575-2.224-17.496-2.224-23.805c0-19.054,15.212-25.2,15.212-32.736c0-2.5-0.889-2.727-3.189-12.846
			c-0.439,0-0.913-0.008-1.4-0.008c-3.378,0-11.678,0.628-34.421,0.628c-127.094,0-249.201-25.361-252.202-25.361
			c-0.397,0-0.833,0.035-1.353,0.035c1.149,4.463,2.915,7.017,4.555,12.14c8.796,27.477,28.664,28.802,28.664,46.93
			c0,20.883-17.547,37.8-32.879,37.8c-1.366,0-27.473-3.149-30.35-31.2c-0.18-1.754,0.294-1.004-7.188-7.831
			c1.525,9.572,9.439,52.234,9.439,83.019C393.369,726.139,384.697,779.977,197.853,843.477z M91.794,948.539
			c3.841-1.309,16.941-6.915,57.816-6.915c143.086,0,245.699,148.155,400.494,148.155c100.259,0,174.947-42.394,214.122-200.633
			c62.104-250.852,101.02-267.366,118.093-294.589c-0.608-0.225-0.308-0.516-6.438-0.516c-22.229,0-62.235,12.565-83.439,30.36
			c-40.528,34.013,9.869,391.544-217.255,391.544c-139.227,0-352.372-168.629-386.261-168.629
			C135.199,847.317,99.794,913.717,91.794,948.539z M714.663,360.062c-0.085-0.18-0.169-0.36-0.254-0.54
			c-2.271-0.187-14.812-0.401-19.889-0.401c-27.769,0-66.298,6.61-125.627,6.61c-159.344,0-234.92-26.799-301.958-26.799
			c-51.253,0-107.508,44.762-107.508,65.858c0,21.148,41.163,38.987,208.248,38.987C598.876,443.777,711.78,362.241,714.663,360.062
			z M200.228,847.655c-0.938,0-1.895,0.101-2.879,0.37c291.626,164.541,305.171,164.62,377.616,164.62
			c149.902,0,167.119-122.614,204.852-348.253c-3.145,3.795-46.325,285.1-289.81,285.1
			C357.374,949.492,255.213,847.655,200.228,847.655z M304.609,513.065c-1.977,13.444-22.47,51.413-22.47,87.673
			c0,45.781,32.892,78.005,59.182,78.005c16.898,0,44.368-14.475,44.368-44.323c0-53.071-43.532-86.047-50.523-92.039
			C308.187,519.256,307.989,515.751,304.609,513.065z M507.277,530.332c-7.441,0.402-32.647,0.052-32.647,8.347
			c0,36.358,110.565,71.618,134.554,71.618c1.495,0,2.626-0.575,3.89-1.748c32.539-30.191,58.006-45.243,58.006-48.416
			C671.079,557.268,564.252,531.286,507.277,530.332z M391.375,567.116c0.526-1.92,3.368-15.339,14.056-15.339
			c8.509,0,15.429,9.328,15.429,16.136c0,7.306-11.069,10.069-14.781,10.069c-4.945,0-7.842-2.093-11.645-4.145
			c5.109,25.73,26.498,26.614,27.022,26.614c13.861,0,29.618-15.931,29.618-33.324c0-10.137-5.498-14.285-16.289-24.975
			c-1.078,7.433-7.901,7.704-8.979,7.704c-7.545,0-18.597-12.74-20.055-14.204c-31.331-31.473-35.518-30.363-35.518-33.166
			c0-2.104,3.041-1.952,3.339-1.952c0.134,0,0.268,0.001,0.401,0.001c0.307,0,2.097-0.007,6.881-0.007
			c2.214,0,4.428,0.001,6.642,0.001c0.018-0.149,0.036-0.298,0.055-0.448c-10.869-2.382-21.738-4.765-33.089-7.253
			C356.146,499.79,374.768,554.045,391.375,567.116z M383.26,503.621c-2.4,0-4.86,0.074-7.412,0.173
			c39.367,32.959,41.476,42.802,50.249,42.802c1.68,0,5.16-1.43,5.16-3.96c0-0.795-0.108-1.71-3.435-6.603
			c-10.619-15.619-6.698-25.69-11.983-27.378C412.562,507.609,395.259,503.621,383.26,503.621z M405.975,574.736
			c2.111-0.099,11.606-1.853,11.606-7.032c0-3.871-4.787-12.666-12.156-12.666c-8.013,0-10.798,11.47-10.798,13.708
			c0,0.501,0.236,1.17,0.578,1.408C398.459,572.422,401.77,574.612,405.975,574.736z"/>
	</g>
</g>
</svg>
