<?xml version="1.0" encoding="iso-8859-1"?>
<!-- Generator: Adobe Illustrator 22.1.0, SVG Export Plug-In . SVG Version: 6.00 Build 0)  -->
<svg version="1.1" id="Layer_1" xmlns="http://www.w3.org/2000/svg" xmlns:xlink="http://www.w3.org/1999/xlink" x="0px" y="0px"
	 width="1000px" height="1300px" viewBox="0 0 1000 1300" enable-background="new 0 0 1000 1300" xml:space="preserve">
<g>
	<path fill="#42210B" d="M434.078,663.216c0.028,4.081,7.22,4.371,8.834,4.371c9.598,0,13.37-4.871,15.301-4.871
		c1.236,0,1.465,0.424,1.465,1.107c0,3.755-15.651,13.827-29.061,13.827c-12.063,0-14.764-10.271-18.03-10.271
		c-0.075,0-5.772,0.342-11.539,1.638c93.435,41.476,170.904,27.469,214.251,55.242c27.64,17.709,211.213,176.415,213.637,178.746
		c91.166,87.659,130.319,98.738,130.319,170.238c0,56.17-13.225,67.611-13.822,68.46c-3.703,5.269-26.346,7.308-32.822,7.308
		c-25.521,0-30.758-9.298-34.822-9.298c-1.057,0-7.951,1.947-18.703,1.947c-57.732,0-233.526-98.865-269.44-98.865
		c-0.746,0-1.456,0.208-2.128,0.72c-9.731,7.411-14.953,11.147-15.999,19.912c-0.634,5.313-2.672,10.445-3.531,15.748
		c-6.862,42.346-3.191,50.578-13.505,52.496c-26.653,4.957-57.925,7.986-61.5,7.986c-5.833,0-6.971-0.771-9.852-1.561
		c-14.665,14.098-28.456,23.282-43.822,23.282c-2.867,0-4.035-0.236-5.072-0.236c-4.784,0-27.793,14.054-40.864,14.054
		c-6.177,0-8.91-1.596-10.263-4.122c-13.134,9.71-33.543,15.768-46.781,15.768c-10.643,0-15.088-2.043-16.933-2.591
		c-5.728,3.956-13.295,4.776-13.897,4.776c-16.698,0-22.64-2.59-22.64-11.809c0-5.936,4.957-7.282,18.714-11.115
		c-4.311-1.195-13.287-2.558-13.287-6.782c0-3.307,68.15-35.498,68.828-35.654c22.853-5.253,27.37-11.037,67.142-32.161
		c35.642-18.93,82.608-91.173,114.571-115.855c1.426-1.101,2.86-1.745,4.335-1.745c1.413,0,2.864,0.591,4.382,1.937
		c4.801-4.95,10.045-9.251,17.287-11.198c-28.04-11.096-43.135-31.263-53.156-189.371c-2.324,0.231-4.464,0.444-6.883,0.685
		c-0.082,0.811-0.229,1.578-0.229,2.344c0,29.68,9.05,99.017,9.05,142.94c0,9.43-0.206,18.861-0.403,28.289
		c-1.86,89.07-104.628,116.894-134.185,116.894c-10.446,0-6.91-3.571-11.367-3.571c-0.746,0-5.44,0.487-12.564,0.487
		c-5.791,0-76.533-0.107-101.874-47.508c-30.545-57.135-55.457-269.75-55.457-269.823c0-0.879,0.04-1.8,0.04-2.827
		c-5.042,1.36-10.195,3.05-15.742,3.05c-0.575,0-1.154-0.018-1.738-0.057c0.01,0.074,33.386,118.851,33.386,169.588
		c0,17.933-7.292,24.821-7.292,29.566c0,48.943,117.528,172.38,117.528,185.611c0,7.882-33.616,24.559-71.805,24.559
		c-10.389,0-47.223,0.343-57.023-23.097c-0.552,0.756-0.622,1.439-0.622,2.07c0,0.212,0.008,0.418,0.008,0.619
		c0,0.073-0.442,9.464-0.985,13.171c-5.986,40.888-70.978,44.337-72.135,44.337c-42.908,0-65.489-46.763-65.489-173.954
		c0-49.216,22.265-99.377,22.265-105.58c0-1.247-29.479-43.937-29.479-87.225c0-6.696,1.108-17.566,9.121-28.235
		c31.002-41.272,38.286-25.434,40.865-65.523c2.613-40.627,15.089-38.982,19.215-93.336c-3.843-1.073-7.573-2.222-11.356-3.154
		c-48.242-11.879-60.544-55.193-60.544-69.633c0-38.841,90.691-131.269,107.252-178.959c9.055-26.075,16.499-26.245,16.499-29.572
		c0-0.228-0.048-0.932-0.048-2.12c0-34.671,67.791-97.898,110.988-97.898c6.66,0,23.74-0.832,31.923,22.797
		c10.653-5.774,24.124-15.737,35.098-15.737c12.032,0,18.251,9.353,19.897,13.651c5.727,14.956,26.588,11.03,37.753,33.572
		c16.569,33.451,20.526,40.144,20.526,51.679c0,1.363-0.088,1.745-0.088,2.501c0,1.793,0.472,3.377,1.353,4.968
		c11.36,20.518,20.806,31.286,35.074,31.286c13.752,0,14.388-8.476,16.811-8.476c0.682,0,1.361,0.812,1.361,1.542
		c0,1.709-11.595,17.726-21.795,17.726c-10.198,0-18.801-7.507-22.626-10.221c0.45,3.883,4.698,19.156,8.08,28.392
		c18.629,50.881,89.251,48.3,89.251,108.277c0,68.003-77.944,108.075-78.006,108.148
		C445.914,658.59,437.617,661.184,434.078,663.216z M445.701,1092.69c6.36-2.322,14.53-7.806,15.717-11.025
		c-5.595,3.816-10.74,7.326-15.886,10.835c-0.802,0.403-1.604,0.807-2.406,1.21c0.092,0.163,0.184,0.325,0.276,0.488
		C444.169,1093.696,444.935,1093.193,445.701,1092.69z M372.975,1062.051c1.307,1.185,2.757,1.312,4.134,1.312
		c7.05,0,133.614-0.719,133.614-137.364c0-30.585-3.551-60.135-9.393-149.739c-53.739,6.03-88.849,56.158-144.057,56.158
		c-4.474,0-22.81-2.007-22.81-5.55c0-1.127,1.02-1.428,1.62-1.428c1.633,0,2.549,1.353,7.461,1.353
		c3.663,0,12.427-0.605,23.45-5.851C486.957,763.854,502.944,713.9,512.292,713.9c0.713,0,1.222,0.531,1.222,1.388
		c0,0.525-8.801,24.574-8.801,54.9c0,0.856,0.055,1.725,0.084,2.717c2.435-0.307,4.492-0.567,6.587-0.831
		c0.077-0.838,0.187-1.45,0.187-2.05c0-5.057-0.582-24.926-0.582-26.198c0-27.25,9.018-35.398,10.636-39.186
		c-0.558-0.125-0.976-0.246-1.404-0.312c-90.327-13.822-106.805-30.218-121.482-32.315c-0.175-0.025-7.748-4.059-10.766-5.885
		c-4.474-2.708-5.294-35.146-5.294-35.633c0-0.186,0-0.303,0-0.319c0-0.529-0.223-1.06-0.421-1.945
		c-20.083,30.299-122.909,96.954-124.871,96.954c-15.013,0-20.469-42.61-33.404-58.649c-0.1,0.297-0.132,0.561-0.132,0.808
		c0,0.484,0.121,0.873,0.121,1.553c0,1.787-0.888,2.107-5.678,2.107c-11.669,0-17.094-4.085-17.167-4.125
		c-10.26,22.892-16.982,29.469-22.643,73.717c0.67,0,1.204,0.032,1.683,0.032c25.348,0,49.868-17.054,54.873-20.561
		c6.346-4.445,5.419-7.295,7.456-7.295c2.138,0,2.584,4.395,7.334,20.261c3.161,10.56,24.022,12.422,32.028,39.795
		c15.327,52.403,43.701,64.938,43.751,65.011c0.483,0.706,1.085,1.311,1.085,1.979c0,0.898-0.799,1.15-1.603,1.15
		c-0.029,0-1.813-0.045-2.952-0.272c-98.583-19.638-111.718-85.476-120.82-87.954c28.32,247.004,47.239,307.555,154.654,307.555
		c7.871,0,11.033-0.662,11.376-0.711c-1.417-3.359-1.881-6.717-1.881-10.079c0-16.26,5.003-29.774,5.669-31.993
		c0.327-1.089,0.827-2.284,2.29-2.284c2.97,0,5.987,11.344,5.987,18.266C379.414,1062.094,376.691,1060.037,372.975,1062.051z
		 M532.921,706.284c45.774,36.282,45.56,32.315,45.56,34.736c0,0.601-0.367,1.215-1.115,1.844
		c-29.99,25.227-41.227,27.067-62.45,32.02c-0.045,0.435-0.119,0.769-0.119,1.089c0,187.48,49.717,187.311,63.812,187.397
		c-1.145-1.056-21.387-8.306-21.387-22.741c0-34.635,49.794-59.55,57.786-59.55c1.056,0,1.754,0.695,1.754,1.643
		c0,1.752-10.974,14.232-14.758,33.348c3.45-4.102,15.273-19.651,31.271-19.651c40.369,0,84.081,69.113,115.16,84.236
		c-3.613-6.034-37.177-33.079-37.177-66.227c0-17.073,19.114-19.848,25.545-19.848c36.234,0,122.634,67.229,122.634,77.559
		c0,1.691-0.882,3.32-2.644,5.179c-13.482,14.228-26.262,16.973-60.834,16.973c-51.583,0-207.378-26.948-224.283-26.948
		c-8.01,0-12.89,1.448-21.9,10.64c0.908,2.246,4.891,8.113,4.891,34.141c0,3.211-0.659,27.399-0.958,34.367
		c-0.826,19.268-37.271,26.283-56.621,26.283c-0.083,0-10.03,0.067-24.551-2.398c-0.895-0.152-2.263-1.091-2.263-1.98
		c0-0.073,71.936-83.002,74.872-90.405c-0.62-0.674-1.267-1.033-1.956-1.033c-5.949,0-59.134,62.359-92.217,98.539
		c-15.978,17.473-76.742,46.851-82.815,48.305c-5.058,1.211,6.638,2.955-28.568,32.127c-16.586,13.743-37.542,10.005-51.674,17.977
		c-1.324,0.747-1.926,1.889-1.926,3.439c0,7.292,6.33,8.649,16.03,8.649c17.455,0,74.781-39.464,97.937-71.589
		c0.81-1.124,1.419-2.233,11.14-6.595c27.336-12.267,49.396-30.795,54.006-30.795c1.319,0,2.263,1.152,2.263,2.119
		c0,14.367-59.183,28.09-68.732,42.635c-17.132,26.094-65.013,53.453-75.475,60.382c3.18,1.02,8.906,1.68,13.942,1.68
		c11.891,0,42.726-9.545,42.726-16.15c0-0.893-0.198-1.147-0.198-1.751c0-5.819,3.741-7.616,4.391-7.959
		c55.792-29.485,69.143-57.059,96.427-81.651c1.066-0.961,2.279-1.487,3.617-1.487c1.976,0,3.622,0.95,3.622,2.563
		c0,3.392-10.34,13.223-13.746,16.118c-31.114,26.453-21.13,20.293-31.306,28.639c-50.578,41.481-58.109,37.19-58.109,43.931
		c0,6.359,8,6.05,8.882,6.05c2.758,0,5.477-0.547,8.181-1.452c68.514-22.952,97.038-67.387,103.038-67.387
		c0.687,0,2.528,0.569,2.528,2.528c0,9.328-67.422,51.714-68.013,52.444c0.293,0.007,0.583,0.011,0.871,0.011
		c19.657,0,26.812-10.914,115.183-83.444c9.401-7.716,8.203-20.499,10.477-29.718c0.479-1.942,2.573-6.234,4.781-6.234
		c2.196,0,2.858,3.004,2.858,4.104c0,0.136-0.438,4.833-2.27,10.44c2.323-0.692,11.88-13.687,19.59-13.687
		c30.003,0,216.922,98.891,268.63,98.891c10.443,0,15.625-1.718,15.698-1.737c-19.479-14.76-65.346-65.955-65.346-109.307
		c0-32.019,24.428-32.175,38.103-32.175c58.442,0,76.076,55.134,76.076,80.21c0,10.302-2.662,20.156-6.803,29.67
		c-10.976,25.215-30.31,31.133-34.169,33.039c8.719,7.78,28.733,7.547,28.849,7.547c8.292,0,16.431-1.281,24.584-3.003
		c4.705-0.994,7.701-3.405,9.925-7.302c9.108-15.954,9.985-60.135,9.985-60.733c0-72.776-37.835-81.513-125.744-166.182
		c-25.808-24.857-25.821-20.263-54.407-45.393C592.027,701.522,614.724,718.541,532.921,706.284z M280.121,470.553
		c-39.895,3.005-69.146-0.79-75.793,6.985c-6.828,7.989-15.716,7.624-25.457,19.482c-55.227,67.236-36.213,51.739-43.844,77.331
		c-0.45,1.508-0.478,3.794-2.718,3.794c-1.943,0-2.225-2.035-2.653-3.497c-3.998-13.671-3.556-14.155-3.556-14.502
		c0-2.302,0.827-4.421,2.322-6.413c63.96-85.211,60.546-76.328,72.613-79.615c5.746-1.565,36.242-55.672,36.242-71.709
		c0-4.456-2.267-8.763-6.46-11.552c-18.389,33.065-20.091,34.951-52.537,67.804c-8.321,8.426-19.756,58.95-34.323,58.95
		c-1.176,0-1.914-0.881-1.914-2.292c0-0.699,0.232-1.886,0.765-3.344c14.812-40.519,31.433-50.786,31.433-57.194
		c0-0.467-0.112-2.211-0.112-5.549c0-3.364,0.588-30.311,0.588-34.465c0-13.918-9.839-32.109-13.835-32.109
		c-3.224,0-6.874,20.567-8,36.389c-8.856,124.463-32.23,109.539-32.23,137.298c0,9.881,3.781,23.661,3.781,44.099
		c0,59.638-20.359,110.706-20.43,111.464c-1.112,11.799-1.247,10.916-1.247,12.278c0,0.073,50.522,134.049,50.522,149.515
		c0,21.145-41.943,52.479-57.728,52.479c-0.224,0-7.977,0.776-14.349-10.266c-0.029,0.074-22.122,57.336-22.122,103.611
		c0,137.535,29.223,155.172,30.632,156.541c-3.274-8.881-8.763-19.156-8.763-49.842c0-62.348,32.049-121.354,58.297-121.354
		c31.64,0,50.033,55.788,50.063,55.861c0.557-0.931,2.928-65.141,2.928-65.215c0-35.64-19.058-66.179-19.058-194.941
		c0-27.308,2.389-51.27,2.389-55.193c0-1.473-0.056-1.772-0.056-3.091c0-9.576,7.101-37.703,7.47-44.074
		c-15.172,3.255-25.914,6.766-34.476,6.766c-2.967,0-13.645-0.033-13.645-12.019c0-2.886,1.577-4.365,5.175-5.079
		c22.223-4.409,37.1-7.729,45.042-7.729c2.504,0,2.402,1.606,2.402,4.732c0,0.968-0.01,1.937-0.01,2.905
		c1.543-0.716,17.236-28.712,17.236-67.38c0-12.639-10.156-31.462-16.433-37.191c1.724,7.964,15.026,32.435,15.026,40.11
		c0,6.832-11.546,28.645-15.626,28.645c-3.372,0-6.873-10.663-6.873-24.916c0-73.068,11.303-90.326,15.633-100.877
		c0.731-1.781,2.011-3.003,3.801-3.73c23.455-9.525,17.342-9.734,21.071-10.268c2.766-0.396,5.513-1.002,8.312-1.002
		c3.645,0,4.994,1.124,10.73,1.124c12.633,0,20.171-7.921,20.171-9.882c0-0.052-0.002-0.105-0.005-0.16
		c-23.709-2.543-30.697-8.209-39.149-8.209c-24.247,0-33.842,14.418-65.982,55.503c-7.291,9.32-9.642,37.571-14.424,37.571
		c-1.245,0-2.061-0.755-2.342-1.957c-0.264-1.128-0.529-2.313-0.529-3.462c0-1.486,1.126-11.031,1.6-16.099
		c1.205-12.865,8.652-9.818,12.763-18.685c8.88-19.154,28.66-46.098,35.063-47.305c16.08-3.033,20.233-10.098,38.432-10.098
		c1.263,0,13.486,2.559,19.017,2.559c0.498,0,37.508-2.591,37.508-9.608C282.467,482.405,281.718,473.86,280.121,470.553z
		 M197.459,433.87c0.131,0.091,0.262,0.182,0.393,0.273c23.798-25.067,28.087-46.7,33.224-46.7c2.475,0,9.506,7.72,9.506,14.84
		c0,4.26-1.364,4.627-3.289,13.281c7.257,2.054,36.732,12.824,42.108,15.868c1.217,0.689,1.598,1.162,1.598,2.061
		c0,0.99-0.614,3.149-0.614,5.865c0,25.419,1.405,26.392,1.558,26.742c2.541,5.822,3.71,16.374,3.71,16.849
		c0,9.811-35.25,11.762-45.12,12.422c10.915,3.157,24.181,2.875,24.181,5.766c0,2.959-8.186,14.252-24.228,14.252
		c-5.787,0-8.248-1.116-11.128-1.116c-2.554,0-5.034,0.64-7.546,1.02c-0.661,0.1-1.239,0.721-1.866,1.084
		c-17.661,10.212-19.436,7.367-21.19,12.105c-3.658,9.881-11.011,22.445-11.769,47.567c4.983,6.413,20.731,24.554,20.731,45.763
		c0,3.311-0.091,3.319-1.623,20.061c4.627,2.076,67.505,23.29,69.743,23.714c0.098-0.404,0.184-0.584,0.184-0.73
		c0-0.224-1.047-6.313-1.047-16.213c0-11.876,1.899-30.724,1.899-32.936c0-0.642-0.081-1.296-0.113-1.986
		c-4.378,0.302-6.013,1.401-11.09,1.401c-20.013,0-29.05-15.114-29.05-19.653c0-0.726-1.435-3.631,14.78-3.631
		c7.785,0,13.422,0.507,21.345,3.772c7.083,2.919,6.758,9.098,7.461,14.823c1.928,0.473,4.026,0.694,6.215,0.694
		c12.74,0,28.547-7.475,31.632-16.108c-11.778-1.465-62.746-4.863-73.434-4.863c-4.297,0-5.821,0.207-7.192,0.207
		c-2.45,0-2.801-0.45-2.801-2.018c0-0.662,0.094-0.844,0.221-1.64c-5.35,0.782-5.397,0.805-5.867,0.805
		c-1.704,0-1.873-1.436-1.873-1.683c0-1.481,26.193-23.496,42.485-23.845c9.081-0.194,12.348-12.361,21-12.448
		c9.946-0.1,21.57-3.001,21.57-10.372c0-3.198-3.262-11.32-11.46-11.32c-2.771,0-5.362,1.021-7.728,3.08
		c-0.329,0.286-0.489,0.765-0.968,1.546c0.899-0.283,2.286-0.886,4.222-0.886c0.187,0,7.075-0.39,7.075,8.543
		c0,3.439-0.402,6.11-3.269,6.11c-2.986,0-5.351-3.064-10.258-8.044c-5.777,5.906-6.728,7.225-8.286,7.225
		c-1.893,0-4.624-2.75-6.137-3.989c-2.282,0.664-3.883,1.447-6.876,1.447c-7.074,0-16.942-5.992-16.942-15.466
		c0-4.027,1.572-10.865,14.523-20.516c26.17-19.501,26.564-25.479,33.564-25.479c1.474,0,9.513,0.909,15.072,1.393
		c4.816,0.42,10.386,12.295,30.668,12.295c2.067,0,9.214-0.148,14.499-4.968c-0.575-0.051-0.854-0.103-1.096-0.103
		c-0.181,0-1.693,0.118-3.994,0.118c-19.607,0-33.575-8.215-36.805-9.897c-1.031-0.537-1.536-1.192-1.536-1.842
		c0-0.698,0.583-1.392,1.723-1.93c11.156-5.265,13.801-6.082,17.496-6.082c15.748,0,29.121,11.859,41.667,11.859
		c0.302,0,0.609-0.003,0.922-0.01c-16.81-20.462-20.244-21.445-28.901-21.445c-16.439,0-33.327,11.727-38.019,11.727
		c-1.664,0-8.77-5.803-8.77-19.618c0-8.931,3.609-13.52,6.115-20.349c1.437-3.916,4.248-5.402,8.201-5.567
		c2.87-0.12,36.373-3.558,39.454-3.558c3.944,0,7.544,1.305,10.607,4.075c1.877,1.697,25.927,24.509,25.927,26.294
		c0,0.618-0.591,1.383-1.322,1.383c-3.248,0-18.978-15.439-34.199-15.439c-7.344,0-31.682,4.297-34.587,4.297
		c-6.956,0-11.05-4.68-11.05-7.147c0-0.848,0.839-1.269,1.34-1.269c2.37,0,0.655,5.2,9.633,5.2c8.375,0,21.558-3.908,32.839-3.908
		c11.43,0,13.413,1.731,21.948,5.904c-10.21-11.285-14.021-16.304-21.217-16.304c-0.076,0-2.299-0.003-7.58,0.506
		c-36.339,3.504-35.396,2.717-36.745,5.894c-3.833,9.022-6.262,12.609-6.262,20.004c0,3.896,0.75,12.08,6.004,16.468
		c14.281-5.61,23.842-11.753,37.384-11.753c6.649,0,12.759,1.764,17.757,7.197c17.178,18.678,16.492,17.997,16.492,19.147
		c0,1.14-1.791,1.447-2.061,1.447c-18.32,0-30.69-11.887-45.09-11.887c-5.285,0-9.97,2.353-14.928,4.957
		c7.587,4.591,20.788,8.494,33.592,8.494c5.272,0,7.568-0.648,9.501-0.648c0.623,0,1.56,0.359,1.742,0.796
		c0.077,0.184,0.108,0.395,0.108,0.619c0,3.578-9.337,10.26-21.46,10.26c-20.046,0-27.551-11.862-30.452-12.173
		c-4.695-0.502-14.701-1.311-14.949-1.311c-1.624,0-2.882,0.738-4.131,1.87c-26.714,24.215-40.652,30.538-40.652,40.832
		c0,6.912,7.2,10.427,8.163,11.081c0.443,0.301,1.096,0.292,1.787,0.457c-0.15-1.328-0.298-1.972-0.298-3.05
		c0-5.413,3.961-9.344,7.743-9.344c1.218,0,4.786,0.614,4.786,4.791c0,1.711-0.451,2.754-1.987,6.887
		c0.233-0.038,0.452-0.055,0.658-0.055c2.979,0,3.45,3.664,6.284,4.106c6.799-6.793,7.141-6.753,7.141-8.193
		c0-0.418-0.083-0.583-0.083-1.145c0-4.282,6.692-7.989,12.251-7.989c12.224,0,14.288,13.086,14.288,14.668
		c0,4.952-4.743,12.376-24.442,13.215c-3.321,0.142-2.867,0.313-14.418,10.724c28.896,3.924,22.471,2.432,41.391,23.224
		c7.407,8.14,10.525,5.661,10.525,8.521c0,0.91-0.496,1.776-2.324,1.776c-1.071,0-3.208-0.41-4.637-0.626
		c-13.469,17.478-25.455,17.772-39.298,17.772c-0.615,0-1.242-0.019-1.898-0.019c-1.548,23.413-2.06,22.752-2.06,33.506
		c0,16.219,0.725,18.571,4.985,19.143c1.522,0.204,8.745,1.133,15.778,1.133c42.445,0,82.699-26.434,90.265-63.91
		c-5.943,4.65-12.671,10.496-29.697,10.496c-2.355,0-4.719-0.159-7.09-0.493c-5.649-0.797-27.868-2.214-27.868-72.25
		c0-5.95,0.176-10.323,1.124-19.162c2.085-19.438,53.87-20.511,57.131-20.511c27.724,0,27.734,10.251,27.734,19.349
		c0,19.539-7.185,37.75-11.536,61.196c2.416,1.172,4.765,1.665,7.161,1.665c5.876,0,8.74-1.931,8.74-9.937
		c0-0.268-0.005-0.352-0.005-0.671c0-16.193,20.516-28.207,20.516-57.483c0-13.898-6.732-13.54-6.948-13.54
		c-3.919,0-4.843,3.605-4.905,3.789c-0.285,0.855-1.692,6.33-1.692,7.114c0,3.343,5.313,5.307,5.313,13.625
		c0,3.83-1.315,6.62-2.876,9.105c-11.14,17.739-14.801,32.863-15.249,33.255c-0.426,0.374-0.988,0.884-1.453,0.884
		c-0.488,0-1.273-0.679-1.348-1.164c-0.192-1.234-0.361-2.502-0.361-3.751c0-15.141,11.222-27.73,11.222-35.177
		c0-0.446-0.037-1.082-0.037-2.44c0-7.167,1.235-9.857,1.235-10.962c0-0.982-0.497-1.763-1.135-2.649
		c-23.697-32.891,1.428-181.343-86.273-181.343c-26.063,0-34.887,14.247-50.572,14.247c-6.532,0-28.009-4.64-35.887-4.64
		C205.642,342.465,216.793,390.154,197.459,433.87z M448.371,650.391c-2.254-0.556-2.734-0.824-2.734-1.9
		c0-0.297,2.111-25.426,2.111-37.459c0-26.03-9.032-29.476-9.032-40.365c0-14.312,12.895-32.498,12.895-49.484
		c0-34.598-41.173-64.863-41.173-95.906c0-9.776,1.744-10.082,3.257-10.082c7.13,0,17.255,9.443,27.846,29.342
		c24.166,45.407,73.618,56.654,73.618,87.72c0,26.099-46.769,90.809-54.874,108.214c0.138,0.147,0.277,0.293,0.415,0.44
		c29.207-17.098,69.541-56.665,69.541-101.614c0-57.931-69.151-56.062-88.481-105.637c-5.558-14.255-9.74-33.869-9.74-35.211
		c0-1.673,1.392-1.888,1.63-1.888c1.375,0,12.411,13.293,24.871,13.293c3.993,0,7.068-2.249,10.293-5.09
		c-0.601-0.037-0.899-0.088-1.114-0.088c-0.268,0-2.116,0.516-5.018,0.516c-21.269,0-31.105-21.441-38.473-32.942
		c-1.917,2.55-4.122,3.438-6.477,3.438c-9.537,0-44.059-25.727-59.275-47.942c-16.984-24.795-28.634-23.218-28.634-31.621
		c0-4.969,6.783-8.762,15.007-8.762c3.129,0,6.222,0.52,9.281,1.297c50.78,12.892,54.402,47.196,68.073,71.636
		c0.172-0.519,0.237-1.002,0.237-1.463c0-8.047-10.747-26.082-18.184-42.554c-11.716-25.952-32.208-19.806-39.158-36.237
		c-4.787-11.32-13.972-12.535-17.303-12.535c-9.839,0-24.731,10.279-34.136,15.788c-0.019,0.231-0.059,0.397-0.059,0.539
		c0,0.292,1.487,5.537,1.487,13.497c0,5.058-0.58,10.115-1.557,15.176c-2.774,14.366-20.283,22.393-34.838,22.393
		c-9.556,0-25.682-4.157-36.295-4.157c-17.429,0-37.475,13.292-43.216,13.292c-1.47,0-2.359-0.877-2.359-2.275
		c0-7.971,39.117-61.795,92.193-61.795c8.78,0,11.733,1.23,15.36,1.23c1.628,0,3.324-0.14,5.123-0.14
		c-7.212-20.672-19.852-20.593-28.604-20.593c-42.922,0-108.179,61.714-108.179,97.313c0,17.861,9.605,43.259,9.605,66.159
		c0,13.772-2.429,23.16-3.139,27.414c0.362-0.072,0.582-0.051,0.704-0.15c40.817-33.279,12.088-111.805,65.234-111.805
		c11.273,0,20.818,4.528,35.511,4.528c13.198,0,23.705-14.015,49.961-14.015c69.649,0,76.298,107.283,76.298,122.367
		c0,0.014,0,0.027,0,0.058c0,30.98,0.991,41.568,10.609,57.49c0.283,0.469,0.807,0.793,1.442,1.393
		c0.848-3.636,2.182-11.78,9.284-11.78c10.249,0,10.159,15.249,10.159,15.746c0,20.353-8.772,33.621-16.766,46.456
		c-8.039,12.908,1.635,25.231-15.396,25.231c-4.519,0-3.31-0.057-5.391-0.354c-2.982,4.862-14.536,31.393-14.536,35.251
		c0,0.073,1.642,27.013,5.525,41.177c0.668,2.438,2.158,2.351,8.983,2.351c5.428,0,10.47-1,11.822-1c5.95,0,6.702,10.31,18.32,10.31
		c1.499,0,7.803-0.233,14.312-3.872c-1.924-0.244-3.82-0.104-5.688-0.275c-8.11-0.742-8.74-6.64-8.74-6.881
		C430.803,658.807,437.091,660.739,448.371,650.391z M190.048,1126.342c0-5.386,0.024-10.772,0.024-16.159c-0.127,0-0.254,0-0.38,0
		c0-4.607-0.037-9.214-0.037-13.821c0-6.663,0.076-8.563,0.076-10.108c0-46-34.872-78.327-50.403-78.327
		c-21.57,0-55.288,52.381-55.288,118.161c0,42.196,9.476,63.32,38.17,63.32c27.573,0,62.4-17.458,65.277-32.04
		c1.291-6.544,2.609-13.109,2.609-19.844C190.095,1136.65,190.048,1133.821,190.048,1126.342z M204.164,949.552
		c-0.228,0.004-0.456,0.007-0.684,0.011c-7.913,19.605-10.73,71.744-10.73,121.392c0,68.875,1.54,81.289,69.56,81.289
		c17.572,0,58.536-14.439,58.536-21.513C320.845,1111.201,250.36,1067.508,204.164,949.552z M920.86,1076.048
		c-4.222-55.596-39.098-77.652-73.017-77.652c-21.562,0-35.159,4.764-35.159,29.601c0,47.254,60.172,107.71,67.161,107.71
		C881.787,1135.707,917.285,1125.606,920.86,1076.048z M792.868,991.457c9.657-0.439,19.418-0.858,29.176-1.332
		c21.273-1.035,34.213-15.217,34.213-18.065c0-8.571-84.733-74.319-119.481-74.319c-14.411,0-22.552,7.541-22.552,16.44
		c0,17.307,13.71,47.738,48.812,74.51C763.387,988.957,761.396,988.707,792.868,991.457z M449.122,645.516
		c3.615-0.897,6.086-2.293,7.532-5.286c7.942-16.434,55.394-81.546,55.394-107.712c0-17.661-24.355-35.266-29.111-38.554
		c-46.217-31.959-49.009-71.655-68.787-75.595c-0.101,0.569-0.68,3.08-0.68,7.161c0,28.869,41.173,60.176,41.173,95.533
		c0,19.406-12.848,36.35-12.848,48.95c0,12.31,9.049,11.722,9.049,43.595C450.845,622.873,449.917,634.077,449.122,645.516z
		 M753.496,987.905c-0.713-0.682-0.876-0.916-1.099-1.04c-43.97-24.346-80.562-87.344-119.057-87.344
		c-4.482,0-8.791,1.279-12.939,3.791c-20.608,12.482-22.574,27.234-26.832,63.735C638.826,972.006,559.04,962.884,753.496,987.905z
		 M327.239,541.262c0.152,0.005,0.304,0.009,0.457,0.014c0,1.615-0.028,3.231-0.028,4.847c0,2.421-0.014,24.252,7.224,46.721
		c3.773,11.714,7.883,18.428,24.136,18.428c25.737,0,34.149-15.642,35.251-21.446c5.731-30.174,13.061-49.583,13.061-68.382
		c0-6.29,1.804-16.509-23.622-16.509C317.371,504.935,328.018,528.863,327.239,541.262z M102.875,733.517
		c-0.277,0.845-0.406,1.073-0.422,1.308C88.265,936.298,82.022,893.221,82.022,911.497c0,0.571,0.155,1.126,0.625,1.667
		c4.999,5.758,7.009,9.918,12.969,9.918c14.314,0,54.56-30.918,54.56-49.225C150.176,866.255,119.503,772.645,102.875,733.517z
		 M97.387,759.603c-31.602,32.268-45.659,42.945-45.659,66.196c0,33.619,23.707,80.612,27.885,82.013
		C92.895,860.602,92.758,843.069,97.387,759.603z M216.743,734.58c0.071-0.002,0.142-0.003,0.212-0.003
		c2.236,0,6.397-0.873,20.832,28.156c18.692,37.59,41.819,51.031,41.819,53.629c0,0.952-1.217,1.503-2.071,1.503
		c-28.258,0-56.386-75.856-75.421-75.856c-0.772,0-1.489,0.182-2.12,0.655c8.137,14.487,8.848,16.356,27.75,41.709
		c33.456,44.876,88.217,52.128,88.289,52.128c0.22,0,0.486-0.075,0.858-0.112c-0.379-0.434-0.532-0.661-0.733-0.832
		c-43.395-37.117-25.9-70.599-61.206-91.867c-10.345-6.232-8.564-15.801-12.88-25.627
		C235.841,724.297,229.855,727.186,216.743,734.58z M310.587,284.086c-1.414,0.22-2.777,0.306-4.104,0.306
		c-4.876,0-11.36-1.385-17.443-1.385c-45.71,0-81.706,41.53-88.581,57.172c0.149,0.152,0.299,0.303,0.448,0.455
		c18.886-7.499,26.579-12.947,41.712-12.947c11.008,0,25.948,4.086,35.899,4.086c37.252,0,33.483-31.943,33.483-34.43
		C312.001,292.176,311.303,289.063,310.587,284.086z M82.573,505.799c-0.131-0.044-0.261-0.088-0.392-0.131
		c-0.166,0.216-0.358,0.417-0.494,0.65c-12.7,21.748-13.509,22.181-13.509,26.793c0,4.472,5.934,20.79,5.961,20.863
		c10.412,28.825,6.904,49.611,13.832,49.611c25.153,0,61.038-184.586,61.038-197.255c0-0.253-0.023-0.51-0.023-0.763
		c-0.183-0.065-0.367-0.131-0.55-0.196c-8.82,14.77-17.639,29.539-26.514,44.403c1.191,0.801,1.476,1.841,1.476,2.952
		c0,5.75-9.57,108.004-34.597,108.004c-6.013,0-12.332-6.715-12.332-23.036C76.468,524.584,80.388,513.225,82.573,505.799z
		 M216.412,649.001c-0.129,0.129-0.258,0.259-0.387,0.388c30.285,44.161,29.517,72.679,41.386,72.679
		c4.811,0,7.704-3.845,80.652-57.883c-0.21-0.029-0.414-0.041-0.611-0.041c-2.945,0-17.094,6.854-38.234,6.854
		C274.677,670.998,272.028,667.547,216.412,649.001z M547.375,980.528c-0.064,0.074-72.321,87.076-72.374,87.15
		c3.597,0.818,14.329,1.985,22.607,1.985c0.428,0,21.239,0.447,39.717-8.378c14.84-7.087,14.224-8.615,14.224-49.067
		C551.549,986.688,548.147,981.917,547.375,980.528z M121.239,601.094c0-13.645-1.38-27.336-3.94-41.193
		c-5.386,13.585-15.743,46.792-29.353,46.792c-2.997,0-7.182-1.366-9.04-19.074c-3.097-29.503-13.754-42.561-13.754-54.169
		c0-7.305,3.565-10.253,6.828-17.668c-0.441,0.57-23.052,28.717-23.052,50.008c0,1.237,2.45,57.166,69.22,69.955
		C120.249,624.18,121.239,612.654,121.239,601.094z M180.177,756.306c-0.165,0.023-0.33,0.047-0.495,0.07
		c-2.399,16.393-3.168,40.544-3.168,48.376c0,49.028,20.3,116.615,28.026,135.738c3.51-7.948,6.172-13.465,6.172-25.284
		C210.712,890.099,192.643,795.097,180.177,756.306z M344.911,290.55c-0.023,0-0.046,0-0.069,0c-0.516,0-1.036-0.029-1.553-0.029
		c-5.325,0-10.384,2.948-10.384,5.599c0,4.929,12.331,8.583,22.033,21.592c31.823,42.674,58.735,54.977,62.91,54.977
		c2.886,0,4.262-2.746,4.262-4.123c0-1.956-0.034-0.6-19.099-41.409C393.033,305.8,359.967,290.55,344.911,290.55z M354.073,829.066
		c-0.03,0.107-0.059,0.215-0.089,0.322c0.629,0,1.258,0.001,1.888,0.001c55.702,0,81.537-45.212,145.537-56.39
		c0.801-17.559,2.321-34.789,6.503-51.786C501.767,725.811,458.913,790.09,354.073,829.066z M574.276,741.221
		c-36.29-24.981-42.218-34.141-48.371-34.141c-4.883,0-11.976,15.706-11.976,35.767c0,0.073,0.8,27.436,0.96,28.584
		C538.213,768.169,557.179,756.682,574.276,741.221z M486.872,1136.21c1.105,0.096,1.87,0.236,2.593,0.236
		c0.073,0,67.948-1.47,69.619-13.84c9.812-72.62,7.792-47.724,9.981-62.715c-2.385,2.217-6.285,16.445-16.135,22.049
		c-24.419,13.891-28.434,30.311-41.594,36.149C503.933,1121.374,489.034,1131.488,486.872,1136.21z M119.95,456.246
		c-0.208-0.066-0.415-0.132-0.623-0.198c-18.665,24.278-39.862,46.709-39.862,81.586c0,10.327,3.084,19.975,9.376,19.975
		C108.216,557.61,115.435,487.589,119.95,456.246z M610.422,886.231c-0.074-0.02-0.222-0.112-0.341-0.112
		c-7.674,0-49.816,26.831-49.816,53.991c0,15.593,28.525,23.539,28.598,23.539c0.189,0,0.389-0.074,0.504-0.087
		C592.307,936.623,598.044,910.524,610.422,886.231z M178.285,855.879c-0.135,0.402-0.273,0.62-0.273,0.832
		c0,46.627,9.243,77.777,15.519,121.543c2.188-11.363,3.529-22.9,9.182-33.661C191.263,916.209,185.364,885.994,178.285,855.879z
		 M219.257,453.892c0.367,0,0.615,0.026,0.808,0.026c0.576,0,4.355-1.643,11.401-1.643c17.943,0,31.057,8.746,45.81,10.733
		c-0.19-2.507-0.479-4.582-0.479-6.656c0-0.01,0-0.013,0-0.023c0-5.908-2.661-9.994-8.265-11.844
		c-18.482-6.1-23.248-6.701-29.506-6.701c-3.842,0-4.81,0.314-7.253,0.314c-1.193,0-2.389-0.056-3.572-0.056
		C225.225,443.315,222.288,448.519,219.257,453.892z M359.117,1126.252c-8.778,2.862-67.14,33.193-67.213,33.233
		c1.114,1.432,2.572,1.813,3.932,2.064c1.969,0.364,11.176,1.897,13.186,1.897C325.037,1163.446,357.485,1129.535,359.117,1126.252z
		 M187.685,648.624c9.207-12.28,12.507-21.786,12.507-25.294c0-5.86-13.906-34.895-13.941-34.969
		c-0.044-0.094-0.268-0.103-0.525-0.192c-0.597,3.708-1.854,38.007-1.854,38.083C183.872,626.456,183.769,641.73,187.685,648.624z
		 M184.494,682.916c-11.351,1.545-46.517,7.054-46.517,10.222c0,9.075,7.696,8.582,9.56,8.582c12.467,0,23.566-4.029,36.3-6.907
		C184.042,691.109,184.251,687.315,184.494,682.916z M231.953,435.053c4.986-0.246,8.099-0.272,8.209-0.272
		c0.405,0,19.657-0.149,37.263,11.712c0-4.45,0-8.525,0-12.728c-12.318-6.178-25.606-9.771-38.413-14.542
		C236.609,424.612,234.329,429.724,231.953,435.053z M242.537,595.45c-0.866,0-1.736,0.313-2.621,0.48
		c0.006,0.114,0.007,0.218,0.007,0.314c0,0.051,0,0.099,0,0.145c0,3.127,9.049,15.56,25.985,15.56c3.581,0,7.238-0.608,10.986-1.837
		C276.015,598.104,274.679,595.45,242.537,595.45z M208.463,740.006c-0.042,0.178-0.084,0.356-0.126,0.534
		c18.527,10.326,38.82,60.706,61.756,71.826c-0.889-2.223-7.805-8.698-17.173-19.97c-16.167-19.452-28.951-54.556-35.491-54.556
		C216.689,737.84,216.682,737.895,208.463,740.006z M306.919,590.903c-0.385-0.549-0.454-0.761-0.594-0.828
		c-13.527-6.495-21.817-11.531-32.368-11.531c-5.951,0-28.705,5.556-32.605,8.445C263.362,587.912,285.025,588.423,306.919,590.903z
		 M278.9,575.974c11.964,1.199,23.684,10.136,39.134,15.768c-19.527-23.062-16.639-22.388-39.553-24.843
		C278.621,569.932,278.749,572.71,278.9,575.974z M127.216,529.123c11.993-13.477,15.369-49.166,21.838-100.521
		c-0.046-0.001-0.092-0.002-0.138-0.002C141.704,462.011,134.491,495.422,127.216,529.123z M275.755,571.915
		c0-2.289-1.081-4.372-1.081-6.569c0-0.414,0.038-0.833,0.13-1.257c-2.088,0.305-4.043,0.758-6.014,0.843
		c-12.433,0.539-33.78,17.745-34.542,18.609c16.546-2.309,9.648-3.684,40.981-9.046
		C275.614,573.598,275.755,572.743,275.755,571.915z M274.643,466.341c0.934,0,1.868-0.018,2.802-0.051
		c-12.938-0.895-27.6-10.891-45.683-10.891c-13.426,0-13.011,2.888-18.29,10.908c2.399-0.575,11.072-4.949,26.034-4.949
		C256.763,461.358,259.118,466.341,274.643,466.341z M159.932,379.152c4.963,1.499,6.821,3.048,9.273,7.654
		c7.995,15.02,8.71,22.43,8.71,26.713c0,5.873-0.649,4.162-0.649,19.087c0,3.665,0.026,7.371,0.026,11.173
		c1.237-2.756,1.907-12.624,1.907-19.364c0-10.502-1.321-20.902-3.977-31.195c-3.871-14.996-4.27-24.587-5.522-29.896
		C165.273,368.233,162.486,373.587,159.932,379.152z M220.58,667.946c-1.558-10.149-6.795-17.008-15.087-22.044
		c-0.825,2.213-3.026,16.352-3.026,16.459C202.468,667.447,216.282,667.8,220.58,667.946z M373.543,1020.252
		c-2.702,5.436-4.976,19.346-4.976,30.646c0,2.829,0.456,5.689,2.161,8.133c3.832-0.874,3.885-0.866,4.398-4.534
		c0.461-3.299,1.294-16.276,1.294-19.282C376.42,1035.051,376.577,1026.471,373.543,1020.252z M145.645,513.252
		c0.16,0.131,0.319,0.261,0.478,0.392c12.005-10.305,21.437-41.658,21.437-41.73c0-0.135-0.102-0.35-0.213-0.82
		C158.649,484.625,150.427,498.055,145.645,513.252z M262.033,468.515c-2.143-1.09-11.868-4.133-22.293-4.133
		c-15.316,0-24.61,4.914-24.682,4.947c0.064,0.135,0.129,0.269,0.193,0.404C230.634,469.333,246.018,468.932,262.033,468.515z
		 M191.145,502.205c-2.421,0.032-4.236,0.429-5.633,1.879c-12.078,12.529-23.643,31.389-23.686,31.462
		c0.149,0.097,0.298,0.195,0.448,0.292C171.069,524.101,180.291,512.731,191.145,502.205z M131.936,571.663
		c0.216-0.01,0.432-0.019,0.648-0.029c1.151-7.505,2.302-15.011,3.533-23.035c-5.011,6.806-6.838,8.67-6.838,11.234
		C129.279,563.137,131.125,568.407,131.936,571.663z M412.651,549.806c0.09,0.027,0.18,0.055,0.27,0.082
		c10.7-18.93,11.085-18.709,11.085-23.039c0-2.729-0.847-5.278-3.007-7.719c-0.647,2.73-1.033,5.169-1.033,7.585
		c0,1.313,0.098,1.649,0.098,2.85C420.063,536.765,416.935,539.098,412.651,549.806z M361.152,1129.484
		c-10.523,10.613-20.847,21.408-33.399,29.719C336.638,1156.159,357.218,1137.909,361.152,1129.484z M148.616,556.209
		c-5.601,2.525-5.854,6.395-7.438,23.595c0.184,0.027,0.368,0.053,0.552,0.08C149.038,554.531,147.603,559.453,148.616,556.209z
		 M483.842,1078.203c-3.118,1.135-15.872,13.585-19.561,19.096C471.354,1092.814,482.54,1081.894,483.842,1078.203z
		 M267.315,535.247c0,1.468,0.489,2.988,1.492,4.308c2.357-1.39,4.759-5.692,4.759-8.144c0-0.844-0.294-1.876-1.418-1.876
		C270.238,529.535,267.315,531.449,267.315,535.247z M296.417,534.571c-1.085,0-2.342,0.401-3.701,1.243
		c1.304,2.919,4.845,6.417,7.393,7.179c0.067-1.088,0.205-2.129,0.205-3.161C300.314,534.359,296.542,534.571,296.417,534.571z
		 M198.938,478.199c-5.11,0.774-9.604,2.59-12.319,7.409C190.743,483.168,195.259,481.39,198.938,478.199z M567.756,1052.375
		c1.03-2.33,2.207-4.644,2.207-7.238c0-0.494-0.043-0.999-0.137-1.516C567.955,1046.233,567.995,1049.329,567.756,1052.375z
		 M502.501,1108.041c-2.139,1.13-3.958,2.609-5.191,4.744C499.398,1111.619,501.414,1110.371,502.501,1108.041z"/>
</g>
</svg>
