<?xml version="1.0" encoding="iso-8859-1"?>
<!-- Generator: Adobe Illustrator 22.1.0, SVG Export Plug-In . SVG Version: 6.00 Build 0)  -->
<svg version="1.1" id="Layer_1" xmlns="http://www.w3.org/2000/svg" xmlns:xlink="http://www.w3.org/1999/xlink" x="0px" y="0px"
	 width="1000px" height="1300px" viewBox="0 0 1000 1300" enable-background="new 0 0 1000 1300" xml:space="preserve">
<g>
	<path fill="#42210B" d="M657.198,544.583c87.219,16.51,85.478,150.198,85.478,394.091c0,12.076-0.057,24.151-0.057,36.227
		c0,24.938,0.269,29.066,0.269,59.218c0,32.752-63.17,98.311-95.15,98.311c-6.531,0-18.151-1.677-18.151-47.719
		c0-2.179,0.1-3.698,0.1-8.553c0-33.539-4.469-42.173-4.469-72.012c0-12.903,0.691-16.291,0.691-25.463
		c0-0.079-12.193-183.209-12.224-183.288c-12.822,50.255-37.065,67.306-54.201,67.306c-12.678,0-12.405-16.244-12.405-28.688
		c0-19.951,13.033-235.155,13.033-237.776c0-0.612-0.068-1.249-0.304-1.949c-22.468,59.091-11.31,244.274-31.495,269.649
		c-12.948,16.277-160.31,30.639-160.389,30.639c-13.92,0-13.875-9.105-13.875-10.654c0-16.07,9.735-38.89,9.735-54.028
		c0-20.525-3.086-22.494-39.746-34.197c0.886,2.294,4.898,15.399,24.757,25.263c3.685,1.831,10.053,1.872,10.053,3.527
		c0,1.005-0.236,2.132-0.785,2.903c-0.937,1.315-11.968,7.055-24.363,7.055c-42.115,0-57.718-44.043-59.628-48.108
		c-11.81,18.919-13.989,37.219-13.989,47.087c0,26.64,14.678,35.793,14.847,36.194c0.233,0.551,0.573,1.228,0.573,1.761
		c0,0.81-1.21,1.511-1.814,1.511c-13.418,0-82.655-26.65-82.655-87.948c0-18.39,6.361-31.604,11.434-44.196
		c-0.099-0.014-0.251-0.066-0.338-0.066c-0.145,0-18.459,20.567-18.459,49.194c0,17.486,6.068,29.547,6.068,31.749
		c0,1.319-0.718,2.088-1.92,2.088c-6.095,0-46.399-20.753-46.399-86.948c0-27.585,9.198-47.466,9.198-48.659
		c0-0.143-0.018-0.328-0.018-0.605c-0.701-0.067-1.423-0.197-2.145-0.197c-0.026,0-0.109,0-0.254,0
		c-27.035,0-60.659-23.88-60.659-26.77c0-2.179,2.238-2.242,3.057-2.315c92.308-8.253,134.731-126.352,137.436-126.352
		c1.634,0,1.719,1.977,1.719,2.007c0,0.078-26.819,65.094-26.853,65.172c-16.992,39.148-31.39,51.237-46.268,84.12
		c113.061-12.142,221.253-378.137,221.253-382.561c0-3.604,0.203-9.122-4.008-9.122c-21.919,0-71.367,266.371-115.586,266.371
		c-2.393,0-8.574-0.795-8.574-15.128c0-12.523,5.295-27.74,6.296-30.677c77.416-227.35-3.46-396.544,281.126-396.544
		c80.176,0,73.152,24.265,89.672,24.265c0.87,0,1.128-0.059,2.082-0.059c11.178,0,22.875,14.83,29.217,15.743
		c32.502,4.68,42.34,57.748,42.34,78.014c0,13.604-3.475,31.109-3.475,43.101c0,28.107,14.472,49.849,14.472,82.56
		c0,7.897-2.019,15.406-4.768,22.733C661.541,502.191,676.594,499.217,657.198,544.583z M630.33,1025.447
		c-0.058,1.183-0.116,2.366-0.174,3.548c0.056-0.001,0.113-0.001,0.169-0.002c0-1.176,0-2.352,0-3.528
		c-0.181-2.627-0.362-5.254-0.543-7.88c-0.142,1.48-0.208,2.955-0.208,4.426C629.574,1025.077,629.666,1024.061,630.33,1025.447z
		 M240.036,692.056c1.099-1.229,13.917-15.556,13.917-15.582c0-0.045-0.082-0.177-0.204-0.459
		c-1.468,1.522-9.373,9.965-13.934,15.831c-1.609,1.162-2.786,2.673-3.868,4.26c0.148,0.124,0.295,0.248,0.443,0.372
		C237.604,695.003,238.82,693.529,240.036,692.056z M694.237,255.842c0.957-0.659,1.057-1.578,1.057-2.508
		c0-0.246-0.007-0.492-0.007-0.735c0-1.523,1.6-9.275,1.6-18.84c0-15.444-4.529-32.865-11.243-49.818
		c-6.894-17.408-19.795-22.24-23.304-23.856c34.08,37.378,32.771,80.018,32.771,81.008c0,4.919-0.32,9.859-0.84,14.815
		c-0.073,1.5-0.145,3-0.218,4.5c0.153-0.001,0.306-0.003,0.459-0.005C694.421,258.883,694.329,257.363,694.237,255.842z
		 M184.96,818.746c-1.839-6.731-4.881-15.446-4.881-29.25c0-30.183,17.833-50.305,29.526-64.048
		c6.047-7.107,9.37-15.997,24.688-33.187c114.432-128.417,116.461-209.912,127.37-209.912c0.547,0,1.671,0.353,1.671,1.787
		c0,0.542-0.143,1.215-0.432,2.037C290.327,692.661,194.66,703.92,194.66,784.799c0,41.727,35.053,71.748,73.536,83.781
		c-4.567-6.223-11.637-15.059-11.637-35.268c0-22.559,8.293-38.76,16.571-53.248c0.291-0.509,0.891-0.841,1.438-1.333
		c1.808,2.037,2.517,4.26,3.26,6.502c14.184,42.811,50.447,45.586,55.668,45.586c11.16,0,18.797-4.319,19.499-4.665
		c-34.309-11.995-43.064-48.282-43.064-84.486c0-15.339,1.576-21.194,1.576-24.822c0-1.875-0.46-2.186-1.322-2.186
		c-15.849,0-40.378,62.019-70.033,62.019c-2.145,0-15.405-0.075-15.405-19.199c0-43.974,80.052-117.083,96.481-117.083
		c2.615,0,6.072,1.187,6.072,9c0,9.313-11.442,63.61-11.442,63.689c0,0.079,22.954,65.85,60.643,65.85
		c8.273,0,16.081-2.587,23.624-6.245c-0.201-0.225,0.472-0.18-4.221-0.18c-0.338,0-0.636,0-0.67,0
		c-29.786,0-52.127-33.351-52.127-67.962c0-77.825,67.813-138.134,79.547-219.02c-3.921,4.944-13.073,46.703-31.362,46.703
		c-26.23,0-23.303-58.617-23.303-65.427c0-55.726,17.689-120.23,40.046-120.23c0.629,0,21.99-2.021,21.99,66.023
		c0,10.5-0.447,16.332-0.447,20.554c0,1.915,0.04,3.938,0.04,6.249c3.666-14.458,11.546-63.547,13.2-66.892
		c0.261-0.528,1.323-0.939,2.053-0.939c0.579,0,1.338,0.294,1.338,1.746c0,9.498-14.888,78.453-14.888,81.834
		c0,2.193,0.289,7.073,11.756,13.952c48.715,29.222,44.617,32.428,59.516,44.427c0.46,0.37,1.112,0.5,2.018,0.887
		c-3.304-5.402-3.483-5.49-4.179-11.959c-4.383-40.715-13.311-33.815-20.954-61.257c-1.613-5.79-22.877-21.332-22.877-49.823
		c0-6.389,1.131-10.995,1.692-14.076c-4.725-3.405-30.553-20.808-30.553-56.674c0-16.505,7.7-36.573,11.504-36.573
		c1.281,0,3.903,1.007,4.707,1.527c16.82,10.891,18.663,11.283,18.663,15.895c0,2.229-0.891,4.086-1.289,9.198
		c3.447-2.342,2.874-5.615,7.099-5.615c2.077,0-4.298-0.155,11.834,0.773c26.949-54.317,36.984-38.43,77.562-90.374
		c-3.539,0.077-71.494,50.106-146.235,50.106c-72.185,0-72.753-24.998-72.753-35.478c0-61.764,84.34-77.979,87.036-78.548
		c15.902-3.357,25.345-29.626,111.983-29.626c20.618,0,35.107,1.736,48.918,2.96c0.033-0.191,0.066-0.382,0.099-0.574
		c-7.453-1.572-20.002-5.2-49.193-5.2c-189.53,0-216.955,91.893-225.502,142.964c-52.131,311.522-58.856,240.118-58.856,280.632
		c0,3.664,0.475,11.589,5.059,11.589c46.876,0,84.721-266.521,115.975-266.521c2.272,0,7.322,1.564,7.322,13.004
		c0,0.474,0.775,13.198-13.076,48.773c-97.921,251.497-136.527,324.939-213.595,337.75c-3.092,6.945-9.982,26.145-9.982,49.479
		C145.022,760.351,152.651,804.13,184.96,818.746z M573.241,551.905c-0.219-0.198-0.437-0.395-0.656-0.593
		c-69.06,49.646-130.633,144.508-155.454,144.508c-7.861,0-17.975-15.636-17.975-44.567c0-67.579,19.579-142.67,59.425-142.67
		c12.124,0,37.81,10.316,51.513,14.212c-0.862-2.068-32.665-20.527-32.989-20.71c-16.394-9.276-49.295-8.301-49.295-13.341
		c0-0.706,0.361-1.528,1.102-2.424c2.028-2.45,4.116-4.735,17.051-4.735c8.379,0,13.518,3.454,19.158,6.215
		c-0.267-0.565,1.022-0.948-18.687-12.555c-18.284-10.768-14.852-12.388-17.246-12.739c-19.85,126.198-82.436,161.82-82.436,241.603
		c0,40.242,25.605,64.798,49.094,64.798c4.032,0,10.637-0.706,14.511-0.706c2.248,0,2.339,1.662,2.339,2.034
		c0,3.135-26.757,12.411-36.129,12.411c-38.349,0-56.508-54.318-61.635-62.404c-0.684,2.963-1.354,18.197-1.354,22.403
		c0,9.307,2.045,45.795,11.401,49.343c32.152,12.199,42.42,10.482,42.42,37.943c0,14.778-9.828,40.497-9.828,53.897
		c0,3.44,2.765,6.852,6.98,7.016c1.597,0.062,3.205,0.135,4.807,0.135c1.353,0,2.702-0.052,4.035-0.208
		C652.109,858.261,470.268,813.019,573.241,551.905z M633.454,1086.337c-0.098,1.033-0.182,1.485-0.182,1.898
		c0,0.538-0.386,40.498,13.319,40.498c34.927,0,92.615-70.065,92.615-87.566c0-2.896-0.161-10.413-0.161-60.668
		c0-0.684,0-1.367,0-2.05c0-217.479-3.878-375.39-37.044-402.206c3.659,10.688,13.803,31.019,13.803,71.285
		c0,31.763-10.378,120.568-32.646,120.568c-26.628,0-84.387-110.751-84.387-155.277c0-15.568,5.623-28.268,10.395-36.706
		c6.747-11.932,17.718-18.81,43.21-18.81c23.608,0,35.288,6.171,38.39,6.825c-9.543-17.778-47.501-17.779-106.689-20.097
		c-25.394,15.274-33.42,259.979-33.42,290.796c0,10.468-0.022,12.395,1.835,18.739c1.076,3.676,3.782,5.501,7.458,5.501
		c37.259,0,53.37-69.439,53.37-84.521c0-2.635-0.36-3.756-0.36-4.45c0-1.627,1.41-1.976,2.014-1.976
		c4.697,0,4.459,114.263,12.784,182.318c2.772-6.141,2.583-28.501,23.985-48.742c62.154-58.783,56.984-57.883,62.149-57.883
		c10.942,0,15.408,30.881,15.408,45.367c0,46.609-36.845,207.348-79.05,207.348C638.06,1096.527,635.78,1090.515,633.454,1086.337z
		 M508.112,512.823c8.531-11.002,24.022-33.025,37.654-33.025c19.084,0,40.561,16.01,60.721,16.01
		c24.118,0,23.364-18.015,23.364-18.502c0-4.588-1.564-8.567-1.564-13.317c0-1.056,0.083-2.114,0.284-3.178
		c-0.346-0.281-0.542-0.543-0.798-0.632c-9.536-3.326-10.613-13.339-20.631-21.837c-6.817-5.782-6.275-8.728-10.279-9.866
		c-0.182-0.052-1.287-1.028-1.287-2.034c0-0.515,0.46-1.775,1.604-1.775c2.208,0,1.959,2.49,15.878,3.382
		c12.94,0.829,15.115,7.516,27.457,7.516c2.852,0,4.554-1.359,5.967-4.337c5.551-11.702,5.189-11.544,5.189-12.433
		c0-1.224-0.606-1.842-1.974-2.221c-1.29-0.358-2.557-0.554-3.805-0.554c-7.622,0-14.049,9.733-29.087,9.733
		c-24.289,0-35.744-11.431-51.512-15.493c-29.598-7.624-75.574-62.405-75.574-93.552c0-33.367,70.337-66.041,72.614-81.573
		c1.451-9.897,32.668-24.774,41.775-30.831c-3.324-1.573-10.12-1.856-11.958-1.856c-4.491,0-21.096,1.133-28.572,11.258
		c-20.57,27.858-29.571,32.981-57.239,58.335c-19.158,17.556-20.369,37.505-25.603,37.505c-0.11,0-11.213-0.747-11.502-0.747
		c-1.165,0-2.003,0.414-2.797,1.463c-2.671,3.53-5.854,5.994-5.854,7.792c0,13.428,10.185,17.734,10.185,32.465
		c0,8.484-2.281,8.69-2.992,8.69c-0.263,0-1.431-0.039-2.849-1.907c-10.971-14.443-26.604-9.235-26.604-33.163
		c0-9.582,4.865-22.015,11.138-22.015c2.061,0,3.511,1.632,3.511,4.355c0,3.251-1.868,5.638-1.868,10.97
		c0,0.535,0.019,1.085,0.06,1.654c4.648-3.436,5.615-3.772,5.966-5.683c0.145-0.788,1.833-10.738,1.833-11.481
		c0-1.468-0.573-2.673-1.978-3.599c-17.892-11.789-13.438-9.022-17.159-10.511c-1.302,1.713-8.4,14.721-8.4,31.944
		c0,41.481,30.518,52.511,30.518,57.282c0,1.796-1.749,6.368-1.749,14.128c0,57.529,89.156,82.002,89.156,83.597
		c0,0.473-0.291,1.765-1.718,1.765c-20.288,0-63.237-32.12-63.315-32.165c3.682,12.703,11.016,20.705,12.617,25.753
		C508.021,505.081,500.942,505.71,508.112,512.823z M712.27,644.07c-1.327-17.874-0.639-36.329-15.014-69.256
		c-5.464-12.515-38.979-13.891-44.888-13.891c-6.537,0-13.061,0.613-19.571,1.99c-28.131,5.95-30.404,45.73-30.404,49.911
		c0,40.884,55.978,151.696,80.789,151.696C697.637,764.52,711.64,698.399,712.27,644.07z M577.94,544.09
		c-79.878-17.778-104.039-32.093-120.361-32.093c-20.237,0-54.834,36.883-54.834,138.026c0,26.486,8.531,42.144,14.395,42.144
		C441.012,692.167,507.408,588.214,577.94,544.09z M725.835,890.595c-2.025-41.076-11.531-43.144-11.994-43.144
		c-2.387,0-9.719,8.407-9.806,8.509c-41.823,49.049-73.996,48.231-73.996,118.996c0,2.303,0.093,4.613,0.325,6.932
		c7,70.181,1.622,86.221,7.343,104.537c0.075,0.241,1.061,6.572,13.313,6.572C686.552,1092.996,724.726,942.49,725.835,890.595z
		 M573.885,281.543c-0.731,0.241-2.757,1.082-3.633,1.082c-0.642,0-1.983-0.475-1.983-1.55c0-1.223,1.744-1.665,3.344-2.292
		c20.764-8.14,22.692-9.544,29.733-9.544c15.047,0,45.373,18.574,45.373,21.488c0,1.942-3.629,4.371-6.885,7.746
		c-1.025,1.063-2.118,1.523-3.276,1.523c-5.819,0-24.435-18.147-46.953-18.147c-10.813,0-15.935,4.296-15.935,6.33
		c0,0.767,2.292,5.763,5.265,7.894c6.337-2.255,13.573-4.919,23.461-4.919c16.078,0,23.265,7.816,23.265,16.046
		c0,3.224-0.733,5.602-3.596,11.946c10.253,2.22,10.791,1.892,10.791,3.841c0,3.793-13.39,3.516-21.047,8.833
		c6.06,4.495,9.517,5.018,9.517,6.985c0,0.711-0.351,2.009-2.499,2.009c-2.371,0-2.854-0.194-12.637-2.055
		c0.079,0.058,49.072,28.824,49.072,37.027c0,0.299-0.055,0.555-0.177,0.651c-0.375,0.295-1.029,0.525-1.558,0.525
		c-2.406,0-4.908-6.759-13.965-6.759c-6.544,0-12.412,4.599-12.412,12.19c0,4.017,2.614,11.256,7.454,11.256
		c4.359,0,9.314-7.159,18.579-7.159c3.15,0,3.797,2.832,3.797,3.412c0,1.044-0.654,2.104-1.972,3.2
		c-4.986,4.146-9.735,4.181-15.487,4.943c2.223,1.16,4.228,1.947,6.216,1.947c3.518,0,26.357-11.83,26.357-18.821
		c0-8.459-28.597-40.167-28.597-63.202c0-14.844,8.954-18.711,8.954-22.623c0-0.264-0.019-0.537-0.05-0.822
		c-8.495-76.875-6.255-75.193-11.584-77.845c-6.825-3.398-29.977-11.307-31.123-11.307c-1.483,0-42.451,23.653-43.501,29.465
		c-3.561,19.696-72.819,49.458-72.819,81.974c0,18.624,19.456,50.205,31.063,58.698c-1.161-4.395-3.052-10.562-3.052-17.865
		c0-22.07,16.268-31.916,36.041-31.916c16.741,0,29.071,5.281,40.056,8.956c0.779-1.523,1.154-2.109,1.971-2.109
		c1.259,0,8.203,2.918,9.971,2.918c0.174,0,0.349-0.005,0.522-0.005c0.099,0,0.198,0.002,0.295,0.006
		c-1.859-3.146-13.908-4.956-20.569-12.149c-3.305-3.569-12.502-14.551-12.502-16.875c0-1.037,0.917-1.909,1.812-1.909
		c0.535,0,1.076,0.256,1.596,0.573c13.327,8.105,32.386,12.951,36.214,12.951c1.71,0,2.201-0.972,3.652-4.047
		c0.435-0.923,1.668-3.544,1.668-6.644c0-8.525-9.085-12.627-19.67-12.627c-13.23,0-21.091,4.996-23.717,4.996
		c-1.255,0-2.332-0.561-3.219-1.796c-6.028-8.4-5.631-9.242-5.631-9.915C569.878,286.037,570.931,285.09,573.885,281.543z
		 M566.676,198.774c0-1.406-0.293-2.871-0.952-4.412c-3.431-0.228-15.924-0.874-22.753-0.874c-48.04,0-82.848,23.509-125.427,23.509
		c-2.193,0-23.884,0.311-23.884-16.321c0-21.322,25.501-41.442,28.946-44.436c-14.025,0.684-80.154,23.835-80.154,74.205
		c0,17.94,14.301,31.479,69.03,31.479C479.732,261.923,566.676,212.706,566.676,198.774z M693.258,271.697
		c-0.105-0.003-0.211-0.005-0.316-0.008c-0.006,0.079-2.221,25.675-2.221,45.79c0,22.299,8.59,24.526,8.59,38.345
		c0,2.024-0.215,4.072-0.659,6.141c-3.416,15.928-4.847,17.792-7.891,17.792c-1.22,0-14.34-2.466-14.34-37.607
		c0-20.438,5.066-54.174,5.066-72.294c0-20.437-7.19-59.745-32.288-65.265c-11.633-2.558-26.6-5.497-26.6-20.151
		c0-25.907,27.436-29.208,27.912-29.309c-19.08-14.576-18.524-11.587-29.549-12.363c2.11,4.021,4.685,7.957,4.685,15.418
		c0,16.736-11.961,23.123-16.435,26.117c-12.233,8.186-17.377,8.75-39.176,10.343c0,3.025,0,5.749,0,8.438
		c7.863-2.008,14.982-4.234,22.279-4.234c2.077,0,4.163,0.185,6.261,0.622c50.14,10.433,62.847,14.278,62.847,95.879
		c0,3.079-0.108,6.472-0.108,15.226c0,53.157,19.164,44.851,19.164,71.929c0,8.747-3.646,23.607-10.708,36.685
		c-24.032,44.503-11.919,99.89-53.222,99.89c-15.434,0-41.385-17.351-62.625-17.351c-18.722,0-29.845,8.961-29.845,14.269
		c0,5.335,13.791,5.346,13.991,5.346c9.725,0,20.2-2.656,33.666-2.656c5.505,0,11.002,0.44,16.486,1.515
		c64.071,12.56,53.974,22.501,63.575,22.501c0.754,0,6.002,3.851,17.903-54.698c16.922-83.254,38.125-104.76,38.125-129.214
		C707.828,325.381,694.625,314.124,693.258,271.697z M426.056,427.683c0.187-5.349,0.323-10.698,0.323-16.044
		c0-44.909-10.727-61.465-18.281-61.465c-14.531,0-36.403,45.656-36.403,120.932c0,16.345,0.043,57.575,19.61,57.575
		C392.436,528.682,423.242,525.201,426.056,427.683z M560.816,190.482c1.318,0,2.661-0.053,4.06-0.053
		c-3.993-23.977-73.83-38.684-106.349-38.684c-8.424,0-16.822,0.635-25.197,2.071c-4.536,0.778-36.09,25.839-36.09,46.217
		c0,8.15,5.183,13.273,21.43,13.273c40.802,0,74.253-23.421,125.849-23.421C553.883,189.885,557.738,190.482,560.816,190.482z
		 M569.124,190.706c1.159,0.043,2.31,0.065,3.455,0.065c28.967,0,49.494-14.908,49.494-32.5c0-3.736-0.852-7.376-2.565-10.461
		c-5.315-9.574-6.5-22.253-80.77-22.253c-27.914,0-70.919,1.761-99.093,23.161c0.691,0.225,1.27,0.301,1.807,0.301
		c0.951,0,7.292-0.981,17.436-0.981C477.781,148.036,556.085,154.951,569.124,190.706z M579.577,408.671
		c33.67-1.995,34.321-30.101,34.321-34.269c0-4.137-0.514-14.132-7.038-26.133c-3.816-7.02-3.809-7.054-11.141-10.098
		c-16.351-6.788-28.281-8.809-38.233-8.809c-10.213,0-32.445,3.002-32.445,28.481C525.041,396.32,564.182,408.423,579.577,408.671z
		 M310.963,710.858c0.472,0,0.959,0.033,1.462,0.104c2.513-12.689,11.159-48.617,11.159-61.896c0-3.109-0.302-5.174-2.826-5.174
		c-11.791,0-92.524,69.316-92.524,113.733c0,3.284,0.413,15.434,11.909,15.434C267.634,773.06,291.135,710.858,310.963,710.858z
		 M639.787,543.201c1.035,0,2.071-0.032,3.106-0.032c-6.704-5.337-13.582-9.88-21.829-11.834c-6.545-1.55-33.628-9.085-50.071-9.085
		c-12.405,0-22.015,2.765-32.116,2.765c-18.233,0-18.47-7.689-18.47-8.902c0-4.033,7.401-18.126,33.565-18.126
		c20.178,0,50.3,17.524,62.712,17.524c26.116,0,28.137-24.897,35.216-55.628c10.396-45.126,24.952-53.079,24.952-77.163
		c0-6.279-1.583-12.335-4.918-18.089c-12.235-21.106-14.268-18.595-14.268-60.616c0-2.176,0.009-4.352,0.009-6.527
		c0-37.097-6.245-66.211-6.259-66.289c-0.316-1.677-0.889-3.341-2.387-5.101c0,0.832-0.027,1.444-0.027,1.973
		c0,1.777,7.07,66.16,7.07,67.188c0,5.802-8.923,8.098-8.923,21.853c0,25.009,28.231,51.946,28.231,63.791
		c0,13.446-25.875,19.241-25.875,23.876c0,8.065,5.576,9.159,5.576,14.096c0,1.013-0.229,2.047-0.649,3.087
		c-6.101,15.085-7.144,15.677-9.577,16.37c1.236,3.061,1.808,5.94,1.808,8.557c0,8.383-5.863,14.093-14.541,14.572
		c-0.041,1.136-0.178,2.305-0.178,3.467c0,3.601,1.567,7.238,1.567,12.141c0,0.609,0.997,22.401-28.058,22.401
		c-15.923,0-47.137-16.373-58.007-16.373c-9.113,0-15.91,5.008-38.302,34.337c33.313,17.682,67.363,23.226,80.073,23.226
		c1.292,0,1.593-0.025,2.773-0.025C597.848,540.637,636.387,543.201,639.787,543.201z M690.953,375.971
		c4.385-9.21,4.657-18.755,4.657-19.757c0-15.337-8.253-12.483-8.253-38.77c0-38.926,4.101-59.003,4.101-77.829
		c0-16.819-9.408-55.641-26.102-71.068c-9.084-8.394-9.365-9.776-12.354-9.776c-16.28,0-26.804,12.792-26.804,25.766
		c0,26.26,58.859-3.459,58.859,86.052c0,18.984-5.109,57.643-5.109,73.446C679.948,362.845,685.734,375.226,690.953,375.971z
		 M206.253,581.035c-0.177-0.08-0.354-0.16-0.531-0.241c-53.071,77.305-105.383,78.127-111.503,81.144
		c10.566,8.644,34.001,21.821,55.432,21.821c2.051,0,3.096-0.435,3.934-2.513C163.378,656.981,194.866,617.911,206.253,581.035z
		 M640.627,366.293c-6.189-6.226-26.152-19.649-31.152-20.981c1.577,3.297,8.006,14.176,8.006,28.799
		c0,35.911-34.441,38.069-35.751,38.488c5.555,4.021,22.825,9.612,35.205,9.612c7.464,0,9.086-1.487,25.966-9.606
		c-2.879-2.996-5.24-6.048-5.24-9.902c0-0.372,0.022-0.751,0.068-1.139c-4.642-4.229-4.947-4.604-5.716-4.757
		c-4.755-0.944-8.503-8.788-8.503-14.584C623.509,366.874,640.135,366.362,640.627,366.293z M456.787,319.509
		c-4.382,3.385-5.43,3.771-5.43,5.944c0,0.796,0.177,1.057,0.177,2.312c0,2.755-0.602,6.189-4.052,6.189
		c-2.894,0-3.752-2.379-3.752-4.303c0-5.322,3.654-5.292,3.654-8.738c0-0.273-0.035-0.785-0.035-1.814
		c0-7.464,2.065-10.54,2.065-11.89c0-0.392-0.101-0.791-0.379-1.197c-3.556,0.593-7.056,10.475-7.056,18.228
		c0,8.714,2.86,15.825,11.746,19.689c7.406,3.22,10.053,7.451,13.192,9.994c0.323-1.261,0.446-2.433,0.446-3.557
		C467.362,337.903,460.158,337.147,456.787,319.509z M642.781,291.223c-21.408-14.217-34.57-18.463-41.613-18.463
		c-5.596,0-9.162,1.964-18.86,5.588c0.462,0.244,0.891,0.341,1.302,0.341c0.596,0,2.794-0.479,6.716-0.479
		c22.273,0,41.471,18.148,45.851,18.148C637.308,296.359,637.195,296.217,642.781,291.223z M604.571,431.141
		c1.417,1.46,2.304,2.634,3.432,3.491c12.265,9.321,13.401,20.891,22.039,22.28c4.624-9.281,5.387-10.094,5.387-13.892
		c0-7.363-1.66-2.801-13.769-9.381C618.256,431.79,616.083,431.995,604.571,431.141z M433.031,487.629
		c11.881,2.231,23.294,4.374,34.708,6.517c-11.404-9.065-20.985-9.064-23.883-9.064C436.27,485.082,434.343,486.379,433.031,487.629
		z M638.896,443.143c0,5.047-2.762,9.52-4.751,14.267c2.056-0.421,9.033-1.67,9.033-11.078c0-3.113-1.641-7.143-3.473-7.143
		c-0.373,0-0.797,0.124-1.279,0.411C638.753,440.818,638.896,441.995,638.896,443.143z M607.889,329.448
		c1.107,0,2.106-0.475,3.019-1.63c-6.859-3.187-13.764-6.395-21.348-9.919c1.448,1.577,2.411,2.737,3.488,3.781
		C596.723,325.239,605.814,329.448,607.889,329.448z M597.847,317.431c5.848,3.119,11.598,6.634,18.226,6.634
		c1.798,0,3.66-0.259,5.606-0.854C613.735,321.285,605.791,319.358,597.847,317.431z M318.137,585.52
		c7.789-13.013,14.645-26.632,19.732-41.089C331.292,558.127,324.714,571.823,318.137,585.52z M646.625,410.73
		c-0.337-2.677-0.612-4.86-0.911-7.243c-1.427-0.222-2.802-0.436-4.534-0.706C641.941,406.43,643.798,408.622,646.625,410.73z
		 M643.346,393.772c3.793-0.214,6.532-1.262,9.353-3.56C648.857,390.383,646.508,391.266,643.346,393.772z M693.712,264.193
		c-0.041,0.021-0.082,0.041-0.123,0.062c0,1.019,0,2.038,0,3.057c0.041,0,0.082,0,0.123,0
		C693.712,266.272,693.712,265.232,693.712,264.193z M256.773,673.203c-0.155-0.084-0.31-0.168-0.464-0.251
		c-0.487,0.638-0.973,1.277-1.46,1.915c0.132,0.096,0.263,0.192,0.395,0.288C255.754,674.504,256.263,673.853,256.773,673.203z"/>
	<path fill="#42210B" d="M249.354,1075.179c14.765-8.309,33.623-34.045,37.423-38.964c-0.078-0.059-71.181-36.663-71.181-90.406
		c0-23.017,12.276-59.458,53.772-59.458c42.614,0,55.257,56.685,55.257,74.968c0,25.492-11.76,41.901-32.066,73.414
		c2.952,1.035,24.384,10.73,55.195,10.73c117.671,0,254.228-102.418,263.37-102.418c1.559,0,8.909,2.209,8.909,14.662
		c0,38.122-53.662,82.69-53.662,139.417c0,2.718,0.107,4.94,0.107,5.51c0,2.859-0.961,4.326-3.819,4.781
		c-53.899,8.595-73.803,30.793-182.739,30.793c-84.602,0-108.096-24.332-162.137-24.332c-35.233,0-56.771,12.453-59.684,12.453
		c-1.43,0-1.955-1.378-1.955-2.002c0-11.755,89.515-46.945,89.593-46.981c0.004-0.194,0.006-0.387,0.006-0.579
		c0-15.317-24.896-35.762-24.896-44.657c0-3.815,3.385-4.318,5.894-13.542C143.194,972.037,92.903,864.88,92.903,864.802
		c0-4.087,1.872-6.552,8.607-14.551c32.081-38.102,43.718-59.263,49.432-59.263c0.366,0,1.589,0.422,1.589,1.321
		c0,0.494-0.228,1.153-0.534,1.355c-6.469,4.266-10.152,10.966-14.577,16.936c-33.122,44.691-40.872,48.183-40.872,54.219
		c0,6.045,6.625,8.874,41.482,65.297c49.568,80.236,92.511,80.238,92.511,87.978c0,3.089-5.939,12.616-5.939,14.357
		C224.602,1037.782,248.472,1060.678,249.354,1075.179z M610.955,946.588c-40.483,22.438-156.243,102.461-263.272,102.461
		c-32.185,0-53.871-10.087-57.376-11.449c-50.638,65.281-62.138,39.242-120.734,80.14c0.287,0.049,0.558,0.07,0.819,0.07
		c2.553,0,19.103-7.54,47.056-7.54c54.844,0,80.164,24.394,160.579,24.394c107.769,0,105.198-15.386,184.449-30.943
		c3.543-73.317,54.078-110.068,54.078-145.323C616.554,951.164,614.325,947.939,610.955,946.588z M289.124,1032.961
		c34.904-46.437,31.859-69.196,31.859-70.201c0-3.574-4.738-72.817-51.506-72.817c-11.283,0-50.23,5.668-50.23,55.984
		C219.247,987.388,267.828,1023.679,289.124,1032.961z"/>
</g>
</svg>
