<?xml version="1.0" encoding="iso-8859-1"?>
<!-- Generator: Adobe Illustrator 22.1.0, SVG Export Plug-In . SVG Version: 6.00 Build 0)  -->
<svg version="1.1" id="Layer_1" xmlns="http://www.w3.org/2000/svg" xmlns:xlink="http://www.w3.org/1999/xlink" x="0px" y="0px"
	 width="1000px" height="1300px" viewBox="0 0 1000 1300" enable-background="new 0 0 1000 1300" xml:space="preserve">
<g>
	<path fill="#42210B" d="M287.314,212.684c22.505,9.208,16.874,37.252,34.293,37.252c15.586,0,49.978-17.794,57.441-23.089
		c-11.735-23.831-13.398-26.612-13.398-29.422c0-1.621,0.89-2.529,2.646-2.529c0.238,0,0.492,0.017,0.762,0.051
		c17.364,2.179,23.802,2.869,23.802,13.293c0,11.321-4.685,15.524-8.207,19.842c15.064,27.437,14.265,30.292,14.265,32.376
		c0,16.464-35.199,20.517-50.627,22.884c7.514,12.467,26.948,34.859,26.948,73.375c0,50.034-38.846,109.507-56.767,154.689
		c2.495-0.461,6.031-3.524,14.921-3.524c11.556,0,30.411,5.961,31.91,6.421c103.692,31.802,94.405,26.312,106.164,52.723
		c9.785-22.176,4.174-36.731,72.248-36.731c22.924,0,42.303,3.143,42.388,3.174c0.654,0.239,1.244,0.347,1.786,0.347
		c13.036,0,40.914-85.148,40.914-102.811c0-3.793-56.384-105.055-56.384-121.039c0-8.417,7.145-14.61,18.071-14.61
		c5.412,0,10.459,1.298,14.698,2.1c-3.3-3.074-56.664-29.361-62.387-30.648c3.304,10.867,16.377,44.113,16.377,64.038
		c0,1.445,2.371,43.219-64.837,43.219c-6.647,0-13.305-0.477-19.968-1.466c-76.922-11.412-78.384-10.847-78.384-15.736
		c0-6.574,27.756-38.02,36.673-47.398c21.198-22.292,73.881-54.628,84.256-54.628c6.317,0,9.596,2.25,18.681,4.535
		c-8.32-25.44-29.954-65.745-29.954-70.674c0-1.18,0.891-1.813,1.893-1.813c0.995,0,1.522,0.72,1.8,1.769
		c1.806,6.817,2.98,6.586,21.311,47.684c16.365,36.69-3.182,15.838,50.512,44.013c132.86,69.715,34.217,0.206,170.037,139.223
		c58.845,60.23,218.16,93.904,218.16,195.505c0,92.943-316.371,67.073-387.51,105.987c-2.279,1.247-4.541,16.426-4.541,25.684
		c0,4.425,0.28,6.048,0.28,7.901c0,16.409-15.08,11.21-15.08,40.975c0,3.382,0.218,4.86,0.218,6.064
		c0,4.656-2.562,3.475-2.562,6.386c0,1.909,1.803,9.622,1.803,11.627c0,8.107-16.128,15.591-35.754,34.268
		c-6.078,5.784-7.299,2.362-7.299,11.548c0,56.945,52.977,55.799,52.977,186.683c0,29.599-4.723,47.375-5.087,94.783
		c-0.055,7.116-28.917,13.598-62.028,13.598c-76.931,0-103-27.604-104.315-28.65c-22.332,8.563-82.511,33.26-143.003,33.26
		c-120.625,0-120.328-94.681-120.328-109.722c0-26.12,6.188-48.988,6.188-50.281c0-0.975-0.646-1.29-2.732-2.282
		c-1.581,2.862-19.483,48.797-19.483,61.57c0,7.751,20.655,28.884,20.655,41.619c0,0.89-0.144,5.233-2.813,5.233
		c-9.198,0-45.609-45.147-45.609-53.122c0-6.567,40.876-86.936,40.876-98.452c0-2.968-80.76-177.63-80.76-213.271
		c0-54.844,120.396-361.615,194.332-441.991c11.875-12.909,18.616-24.778,68.843-24.778c10.719,0,14.577,0.732,22.425,0.732
		c6.323,0,55.982-5.1,55.982-20.419c0-6.84-11.228-25.614-13.647-29.753c-19.454,10.344-43.155,23.529-60.002,23.529
		c-12.013,0-14.822-9.686-22.473-25.434c-6.058-12.468-15.558-11.174-15.558-14.678c0-0.432,0.114-0.936,0.332-1.543
		c5.17-14.441,5.5-13.684,6.95-13.684c1.204,0,1.332,1.606,1.332,1.805C291.968,200.693,292.362,199.318,287.314,212.684z
		 M323.853,283.89c-2.041-0.173-2.511-0.345-8.47-0.345c-11.133,0-22.182,1.119-33.161,3.058
		C221.88,297.259,110.839,564.481,86.089,640.639c3.02-1.939,10.807-18.495,25.555-18.495c11.316,0,22.469,10.353,22.469,29.579
		c0,30.09-36.086,112.211-60.8,112.211c-7.927,0-12.847-6.994-15.727-12.658c-0.2,0.056-0.4,0.112-0.601,0.167
		c8.918,43.98,76.697,198.011,79.974,202.922c4.486-8.32,21.557-63.143,21.557-86.786c0-49.583-29.548-101.654-29.548-146.667
		c0-37.184,136.765-220.147,136.765-248.961c0-29.87-28.337-107.769-28.337-128.888c0-6.487,2.309-12.021,7.786-16.573
		c22.085-18.359,24.419-17.773,26.099-17.773c6.177,0,6.178,7.713,6.178,53.579c0,112.649-7.087,100.315-7.087,112.377
		c0,1.382,9.507,70.229,15.481,91.231c0.315,1.107,0.736,2.311,2.417,2.325C300.121,473.522,311.963,378.902,323.853,283.89z
		 M391.73,793.007c45.162-59.82,78.118-218.017,78.118-218.931c0-0.628-0.118-1.255-0.418-1.913
		c-6.833-14.974-8.339-22.791-19.67-26.838c-0.083-0.03-97.395-33.612-116.532-33.612c-29.621,0-41.154,59.779-41.154,64.488
		c0,10.378,6.782,30.234,6.782,55.08c0,53.464-29.735,101.262-29.777,101.342C270.371,735.711,293.598,765.482,391.73,793.007z
		 M534.633,783.104c-0.132-0.091-0.263-0.183-0.395-0.274c-1.829,1.12-24.121,22.918-84.75,22.918c-2.048,0-3.301-0.028-3.568-0.028
		c-1.911,0-3.572,0.464-5.268,1.348c-156.865,81.715-249.874,67.017-257.7,81.66c-0.043,0.081-43.644,76.306-43.644,99.291
		c0,0.987-0.531,18.215,24.59,18.215c44.663,0,314.162-108.881,350.891-149.479c2.013-2.226,0.15-3.695,2.188-15.835
		c-0.437,0.038-0.835,0.058-1.198,0.058c-2.19,0-3.076-0.723-3.076-2.548c0-3.627,6.713-21.167,13.978-31.249
		c-0.913-1.535-1.308-2.316-1.308-3.311C525.372,799.954,530.518,790.812,534.633,783.104z M147.074,1007.054
		c-0.643,2.183-6.106,25.827-6.106,47.889c0,27.438,6.767,106.438,116.204,106.438c57.662,0,127.993-26.365,139.704-32.456
		c-59.73-75.38-36.532-155.061-77.94-155.061c-0.59,0-1.19,0.022-1.799,0.066c-25.054,1.818-29.947,0.051-38.865,3.933
		c-46.223,20.119-112.518,32.383-114.331,32.383C158.675,1010.246,155.83,1009.219,147.074,1007.054z M161.613,850.495
		c56.99-79.731,133.419-117.099,133.419-218.865c0-25.91-6.65-41.947-6.65-53.776c0-0.727,0.018-1.016,0.018-1.295
		c0-2.181-0.815-3.629-2.619-4.717c-8.457-5.098-15.322-77.392-18.851-90.478c-45.121,95.351-134.145,204.156-134.145,238.914
		C132.786,756.472,156.615,813.733,161.613,850.495z M515.363,863.974c0-0.424-0.071-0.887-0.129-1.7
		c-40.44,36.863-172.152,84.594-219.695,108.254c0.89,0.449,1.692,0.556,2.477,0.556c1.212,0,20.414-1.012,21.74-1.012
		c28.005,0,32.625,41.879,32.717,42.339c19.615,98.38,47.979,114.359,49.196,114.359c1.349,0,2.763-0.717,12.447-4.934
		c-7.658-6.965-31.887-27.566-31.887-63.554c0-56.509,53.962-114.707,103.333-114.707c22.564,0,55.709,15.025,55.709,53.125
		c0,65-89.917,101.51-119.242,125.893c25.688,19.018,82.823,30.465,111.9,30.465c14.543,0,27.455-4.628,29.055-5.987
		c0-0.571-0.005-1.185-0.005-1.815c0-34.69,5.108-70.76,5.108-98.182c0-118.863-52.786-125.017-52.786-180.006
		C515.301,865.327,515.363,864.156,515.363,863.974z M944.629,654.113c-3.676,0.201-6.863,0.602-9.962,0.602
		c-27.242,0-59.386-21.267-62.218-23.012c-32.784-20.199-29.73-25.989-35.282-37.442c-251.083,84.215-238.815,77.547-241.459,83.136
		c-29.674,62.734-65.92,78.108-144.191,123.948c0.082,0.204,0.164,0.407,0.246,0.611c0.424,0,0.85,0.015,1.274,0.015
		c95.985,0,99.438-60.925,114.307-60.925c0.111,0,3.139-0.102,3.139,4.362c0,2.36-0.038,0.951-2.179,20.738
		c3.394-3.198,5.436-6.55,5.436-10.678c0-1.375-0.306-2.996-0.306-7.536C573.433,670.183,846.898,705.47,944.629,654.113z
		 M689.75,361.285c-0.188,0.125-0.376,0.25-0.564,0.375c2.067,8.303,9.311,31.963,9.311,60.591c0,2.663-0.116,5.332-0.399,8.01
		c-5.712,54.046-11.115,57.944-25.839,65.855c54.71,31.088,109.086,61.987,163.776,93.064c-0.284-4.056-0.777-5.423-0.777-9.811
		c0-19.807,19.353-56.311,46.034-56.311c35.418,0,79.271,46.746,79.271,93.597c0,8.576-1.192,14.558-2.24,21.339
		c2.486-3.081,7.225-9.685,7.225-22.971c0-8.423-2.262-28.823-18.516-51.478C878.407,467.89,830.426,521.553,689.75,361.285z
		 M654.335,488.153c-1.084,1.989-54.494,180.959-54.505,181.04c77.657-25.842,154.927-51.556,232.704-77.438
		C800.246,571.883,659.911,496.198,654.335,488.153z M579.503,700.463c31.536-52.772,52.441-151.543,52.441-153.063
		c0-6.948-74.865-13.267-88-13.267c-50.787,0-59.635,7.606-64.924,23.049c-0.05,0.145-4.603,14.151-4.603,15.809
		c0,0.997,0.258,1.958,0.732,2.96C511.961,653.779,531.192,694.518,579.503,700.463z M418.29,1119.915
		c112.766-65.045,118.987-99.191,118.987-122.775c0-41.972-38.871-49.648-51.32-49.648c-50.619,0-99.954,60.191-99.954,109.96
		C386.003,1094.494,412.298,1115.563,418.29,1119.915z M577.159,704.612c-0.253-0.328-0.298-0.449-0.364-0.462
		c-53.889-10.586-68.806-54.638-104.18-123.935c-0.385,1.204-0.598,1.768-0.746,2.349
		c-50.272,197.295-60.339,180.879-75.786,211.435c3.724,1.609,29.087,7.664,44.522,7.664
		C442.552,801.664,544.636,751.687,577.159,704.612z M265.977,735.565c-30.47,36.781-74.517,85.208-74.517,120.503
		c0,17.592,14.154,19.47,21.709,19.47c1.483,0,95.609-8.042,133.016-36.185c21.999-16.552,37.581-35.515,42.955-42.926
		C375.99,792.187,292.523,769.786,265.977,735.565z M399.648,356.588c7.881,2.625,80.282,13.618,94.493,13.618
		c43.248,0,61.362-17.19,61.362-40.325c0-14.941-15.934-64.786-19.17-65.825c-18.262-5.861-18.928-5.547-19.919-5.547
		c-7.356,0-48.132,26.817-55.113,31.676C430.608,311.545,401.049,351.823,399.648,356.588z M956.63,616.535
		c0-0.187,0-0.375-0.001-0.563c0.015-0.525,0.023-1.055,0.023-1.588c0-42.814-42.85-87.432-74.956-87.432
		c-25.628,0-42.602,35.651-42.602,52.587c0,5.834,1.722,25.74,18.409,37.476c14.562,10.242,47.825,33.869,78.576,33.869
		C949.912,650.883,956.63,644.006,956.63,616.535z M647.427,322.509c2.867,16.066,3.212,23.356,3.212,36.489
		c0,43.007-9.447,82.006-9.447,87.586c0,0.879,0.119,1.765,0.395,2.544c11,31.009,16.899,43.604,26.673,43.604
		c4.136,0,14.955-5.734,18.262-17.526c2.045-7.29,8.098-25.47,8.098-52.654c0-27.339-5.183-44.093-11.061-65.974
		C682.157,351.359,664.988,333.548,647.427,322.509z M59.235,734.832c0,0.762-0.021,1.525-0.021,2.287
		c0,8.994,3.469,22.807,13.923,22.807c20.954,0,57.179-78.178,57.179-108.376c0-15.839-8.688-25.57-18.456-25.57
		C83.495,625.982,59.469,720.594,59.235,734.832z M312.632,513.305c0.207,0.057,0.414,0.114,0.621,0.171
		c52.978-108.851,58.124-130.995,58.124-156.903c0-16.807-5.453-36.573-11.378-47.311c-2.867-5.196-12.52-20.595-15.608-23.929
		C333.753,361.692,323.193,437.499,312.632,513.305z M630.22,423.1c0.662-3.401,6.692-39.897,6.692-71.311
		c0-14.156-0.925-21.883-1.828-34.407c-0.101-1.398-0.258-2.694-1.777-3.554c-23.537-13.315-38.031-14.637-42.44-14.637
		c-15.189,0-14.58,10.811-14.58,11.126C576.286,321.787,626.282,417.578,630.22,423.1z M294.762,547.266
		c0.256,0.019,0.513,0.037,0.769,0.056c20.297-49.114,44.889-263.153,44.896-263.233c-4.455,0-8.534,0-12.73,0
		C316.702,371.943,305.732,459.605,294.762,547.266z M271.483,312.063c-2.151,1.183-3.842,1.887-5.276,2.941
		c-18.804,13.825-25.054,18.445-25.054,26.542c0,24.646,14.253,47.324,27.228,120.938c0.234-0.005,0.467-0.01,0.701-0.014
		c0.161-1.111,4.358-17.949,4.358-99.415C273.44,320.034,273.5,319.49,271.483,312.063z M200.549,877.864
		c-0.015-0.193-0.03-0.386-0.045-0.58c-7.889-3.776-12.779-8.79-12.779-22.114c0-21.796,19.973-51.36,23.349-56.925
		c-0.031-0.001-0.061-0.002-0.09-0.002c-0.599,0-48.668,47.704-48.668,65.105c0,0.996,0.131,3.637,0.131,7.313
		c0,33.995-26.363,88.22-26.363,106.953c0,0.571,0.249,1.145,0.454,2.033c12.968-33.514,20.158-55.313,36.803-81.544
		C183.986,881.326,177.019,882.027,200.549,877.864z M137.771,1106.69c0-0.466,0.02-0.87,0.02-1.249
		c0-10.812-20.634-32.277-20.634-40.302c0-13.218,20.037-65.421,20.037-65.502c0-3.105-2.368-2.058-5.178-20.139
		c-0.043,0.082-34.761,75.214-34.761,78.478C97.254,1063.466,129.559,1105.254,137.771,1106.69z M639.506,455.065
		c-0.352,1.099-0.607,1.723-0.752,2.372c-13.819,61.847-27.543,78.23-27.543,79.052c0,0.134,0.055,0.323,0.073,0.563
		c7.305,1.452,14.65,2.913,22.005,4.375c0.566-0.74,17.842-56.684,17.842-57.326C651.133,482.64,640.185,456.583,639.506,455.065z
		 M343.982,845.841c14.759-2.959,86.125-35.193,90.586-40.456c-26.543-3.507-37.799-7.516-40.231-7.516
		C390.397,797.869,387.517,811.759,343.982,845.841z M606.42,536.306c17.561-23.207,30.286-86.822,30.286-88.309
		c0-0.451,0.222,0.13-4.552-11.229c-0.403,0.599-0.557,0.736-0.595,0.901c-19.98,85.755-34.039,89.478-36.788,96.866
		C598.631,535.122,602.396,535.694,606.42,536.306z M404.696,1130.367c6.39,5.054,31.04,26.42,104.851,26.42
		c1.444,0,1.719-0.008,4.291-0.008c1.671,0,3.342,0.004,5.012,0.004c-1.062-0.742-2.129-1.023-3.214-1.126
		c-66.052-6.32-96.802-30.899-98.12-30.899c-0.428,0-0.874,0.117-1.374,0.345C406.67,1129.438,407.177,1128.66,404.696,1130.367z
		 M637.806,439.992c1.496-1.629,9.024-47.043,9.024-81.834c0-42.792-7.269-40.407-7.747-40.47c0.218,3.693,1.645,14.13,1.645,32.108
		c0,41.712-7.457,77.723-7.457,79.297C633.271,430.255,633.391,430.248,637.806,439.992z M555.928,801.467
		c0-3.726-0.323-7.466-1.43-11.297c-5.14,2.584-29.294,15.681-36.511,43.466C560.039,804.028,555.928,805.752,555.928,801.467z
		 M556.307,810.005c-32.072,24.499-33.673,23.985-34.369,27.03c-0.734,3.213-2.482,12.169-2.482,13.153
		c0,0.682,0.248,2.645,1.246,2.645c0.677,0,1.366-0.126,5.119-3.648c17.529-16.45,32.287-23.698,32.287-29.938
		C558.108,818.462,558.194,819.175,556.307,810.005z M530.048,800.659c0.172,0.152,0.344,0.305,0.516,0.457
		c3.223-2.446-0.279,1.111,30.994-27.62c1.266-1.163,2.364-2.042,5.093-27.702C561.297,749.885,538.663,780.748,530.048,800.659z
		 M369.484,198.548c4.401,9.036,8.028,17.615,12.946,25.744c0.174-0.142,6.569-4.474,6.569-15.981
		C389,201.089,385.103,201.027,369.484,198.548z M560.516,780.527c-0.153-0.126-0.305-0.253-0.458-0.379
		c-2.035,1.842-4.07,3.684-6.281,5.686c3.584,0.862,2.344,0.061,4.92,2.772C559.332,785.788,559.924,783.158,560.516,780.527z
		 M668,332.73c-4.906-5.251-10.366-9.755-16.915-12.796C656.723,324.199,662.362,328.464,668,332.73z"/>
</g>
</svg>
