<?xml version="1.0" encoding="iso-8859-1"?>
<!-- Generator: Adobe Illustrator 22.1.0, SVG Export Plug-In . SVG Version: 6.00 Build 0)  -->
<svg version="1.1" id="Layer_1" xmlns="http://www.w3.org/2000/svg" xmlns:xlink="http://www.w3.org/1999/xlink" x="0px" y="0px"
	 width="1000px" height="1300px" viewBox="0 0 1000 1300" enable-background="new 0 0 1000 1300" xml:space="preserve">
<g>
	<path fill="#42210B" d="M828.234,1039.275c-0.427,0-0.877-0.04-1.353-0.122c-2.81,5.24-5.037,10.592-11.971,10.8
		c-1.137,2.382-3,7.941-9.071,7.941c-2.014,0-2.926-0.572-4.437-0.572c-2.814,0-2.816,2.327-6.33,2.327
		c-0.727,0-3.7-0.386-3.7-4.026c0-3.41,5.502-18.34,5.502-33.393c0-11.367-14.531-68.665-17.485-71.354
		c-0.345,3.92-0.877,7.878-0.877,11.691c0,11.939,6.059,32.738,6.059,41.488c0,10.671-4.459,16.99-8.836,16.99
		c-2.167,0-4.172-1.487-4.913-4.21c-12.622-46.358-11.807-56.043-11.807-62.437c0-13.838,4.389-46.18,4.389-52.546
		c0-1.985-0.199-3.962-0.795-5.921c-1.078-3.542-61.59-88.797-61.67-88.867c2.18,13.929,5.2,44.42,5.2,69.064
		c0,153.548-36.539,259.192-40.557,259.192c-1.156,0-1.865-1.66-1.865-2.318c0-0.248,35.228-102.695,35.228-183.48
		c0-0.671-0.036-1.315-0.036-1.876c-15.542,0.846-30.91,1.682-46.319,2.521c-0.395,0.677-28.722,77.7-87.457,132.471
		c-43.267,40.347-48.216,51.723-55.525,51.723c-13.385,0-2.1-52.877-24.322-156.978c-5.12,2.784-25.311,18.471-63.442,18.471
		c-102.237,0-138.029-71.376-138.029-138.941c0-4.256,0.203-8.568,0.303-13.256c-3.984,12.369-10.033,45.708-10.033,85.601
		c0,140.108,56.976,207.793,56.976,209.693c0,1.418-0.589,2.199-1.419,2.199c-13.008,0-43.297-89.539-43.363-89.62
		c3.602,16.434,5.961,21.37,5.961,25.545c0,4.172-3.32,4.063-3.463,4.063c-11.58,0-15.477-31.938-24.457-50.574
		c-2.132,3.931-4.713,17.728-4.713,29.654c0,3.464-0.261,22.813,10.213,22.813c0.126,0,0.343-0.004,0.808-0.004
		c12.917,0,15.172,1.51,15.172,7.249c0,3.198-2.306,3.693-12.74,6.355c16.489,10.415,21.609,4.971,24.1,10.479
		c0.355,0.784,0.533,1.524,0.533,2.199c0,3.774-5.573,3.932-6.079,3.932c-35.075,0-38.686-6.857-41.066-9.101
		c-2.788-2.629-5.234-5.838-8.455-7.727c-5.405-3.17-26.728-5.292-26.728-17.229c0-7.814,3.051-26.857,3.051-32.068
		c0-0.285-0.003-0.354-0.003-0.641c0-6.274,1.223-8.761,1.223-16.811c0-9.651-3.729-37.037-3.729-80.387
		c0-26.109,6.233-35.309,6.233-39.562c0-3.473-6.25-30.545-6.25-106.412c0-99.618,13.802-196.594,13.802-242.477
		c0-75.83-23.071-162.671-23.071-228.926c0-90.999,26.719-117.363,53.731-124.585c0.97-1.393-0.279-4.894,6.095-6.881
		c10.486-3.27,21.164-4.577,31.996-4.577c7.689,0,9.601,0.417,11.939,0.916c3.663,0.782,4.205,1.493,4.441,5.607
		c0.647,0,1.31,0.045,1.972,0.045c12.714,0,22.345-6.312,38.777-7.035c21.643-0.952,40.406-14.608,40.406-38.836
		c0-30.464-26.814-50.761-26.814-55.708c0-1.418,0.91-2.347,2.193-2.347c2.582,0,145.506,122.242,278.24,122.242
		c5.217,0,5.581-1.651,10.778-1.651c11.239,0,52.422,16.303,52.422,21.082c0,2.23-4.765,18.561-5.692,21.598
		c2.281-1.443,3.923-2.734,6.498-2.734c7.141,0,12.12,11.556,12.12,40.739c0,31.174-5.887,55.322-9.489,69.625
		c-0.748,2.97-16.525,244.188-16.525,244.269c0,55.588,102.195,248.195,113.704,289.765c6.06,21.889,29.757,45.48,30.79,65.035
		c0.151,2.847,9.315,20.66,9.315,25.027c0,4.313-13.091,31.24-19,41.349C833.045,1037.373,831.199,1039.275,828.234,1039.275z
		 M699.284,943.201c0.42-3.682,3-46.38,3-66.979c0-66.333-9.256-85.035-17.4-98.052c-76.313-121.982-60.63-167.15-71.35-221.756
		c-58.708,100.04-325.953,107.572-325.953,300.135c0,32.012,7.06,135.422,133.863,135.422c41.173,0,62.321-18.726,62.797-19.104
		c-2.635-11.839-8.208-33.633-8.208-62.745c0-34.309,5.748-37.626,12.296-37.626c8.02,0,15.357,5.912,17.866,7.607
		c-1.711-7.03-3.917-14.341-3.917-28.858c0-26.621,9.488-87.505,51.771-87.505c64.418,0,107.65,89.852,107.65,135.481
		c0,21.158-4.718,35.579-7.78,46.795C669.172,945.485,684.067,945.259,699.284,943.201z M558.13,205.995
		c-103.917-33.499-166.811-86.312-174.357-92.468c1.231,3.25,16.128,20.111,16.128,43.423c0,32.329-30.173,39.82-32.954,40.799
		c49.574,14.704,58.666,35.305,58.666,91.015c0,67.985,0.543,198.367-82.666,198.367c-30.249,0-37.914-23.878-38.325-24.697
		c-0.389,0.481-0.476,0.893-0.476,1.296c0,0.08,0.766,34.825,3.984,66.836c3.09,30.741,99.61,62.42,132.558,62.42
		c26.839,0,47.288,4.408,171.955-82.638c3.736-87.36,13.985-82.75,28.167-119.297c24.776-63.849,59.844-108.226,68.113-150.592
		c-3.13-1.639-29.822-14.72-48.262-17.968c-0.054,0.199-0.108,0.398-0.162,0.597c4.84,2.716,10.23,2.909,10.23,18.624
		c0,10.156-33.735,232.287-108.511,232.287c-41.944,0-61.981-130.01-61.981-175.451C500.236,222.697,539.12,214.873,558.13,205.995z
		 M259.865,211.267c-24.084,4.827-49.38,34.244-49.38,123.129c0,65.764,23.091,145.726,23.091,227.932
		c0,34.514-13.905,158.615-13.905,239.183c0,75.855,6.038,105.167,6.306,106.971c1.73-0.491,3.581-1.219,6.787-1.219
		c13.703,0,12.33,10.321,23.664,34.289c0.22-0.018,0.439-0.036,0.659-0.054c0.276-1.623,0.741-3.24,0.796-4.871
		c3.905-115.68,28.896-174.022,40.393-248.202c-3.192,1.456-7.56,9.076-18.841,9.076c-29.259,0-43.569-48.892-43.569-79.248
		c0-48.963,24.44-55.135,31.931-55.135c41.896,0,33.24,75.64,35.575,102.151c1.639-2.335,2.833-18.347,2.833-27.46
		c0-14.531-2.245-77.669-2.245-86.761c0-4.952,0.472-17.034,0.472-18.028c0-1.129,0.716,12.77-5.906-101.907
		c-0.263-4.552-42.431-42.106-42.431-163.766C256.094,247.669,258.039,229.674,259.865,211.267z M503.848,300.187
		c0,1.07,0.011,2.142,0.032,3.215c9.54,118.288,36.732,166.775,58.241,166.775c60.017,0,104.759-184.323,104.759-228.976
		c0-9.775-1.345-15.477-18.701-16.662c-43.558-2.974-78.951-15.961-83.419-15.961c-1.03,0-2.056,0.16-3.078,0.534
		C535.034,218.869,503.848,231.89,503.848,300.187z M421.703,317.459c0-8.516,0.039-16.62,0.039-24.56
		c0-16.11,0.201-30.127-2.885-45.668c-6.075-30.597-41.881-46.551-64.696-46.551c-46.254,0-54.959,32.261-54.959,110.192
		c0,140.497,3.483,172.417,43.186,172.417C429.719,483.29,421.067,331.187,421.703,317.459z M657.927,899.933
		c-0.827-68.181-58.405-132.33-103.839-132.33c-41.412,0-48.052,65.432-48.052,83.929c0,48.705,34.796,95.062,131.81,95.062
		c11.089,0,11.767,0.015,12.539-2.466C654.839,929.807,657.801,915.247,657.927,899.933z M519.585,911.476
		c0,25.844-10.798,46.595-30.855,63.096c19.728,97.761,11.938,106.798,19.056,152.251c0.212,1.356,0.597,2.757,2.171,3.828
		c14.394-8.828,106.446-89.421,138.24-180.445c-1.019,0-1.876,0.007-2.673,0.007c-31.459,0-35.497-0.838-57.726-5.679
		c-53.711-11.697-64.719-34.758-68.291-36.886C519.559,908.936,519.585,910.212,519.585,911.476z M333.315,561.925
		c-0.115,0.123-0.231,0.246-0.346,0.368c33.46,52.699,32.677,90.507,32.677,91.758c0,21.261-10.309,40.484-32.647,78.784
		c0.975-0.314,1.62-0.867,2.219-1.466c89.178-89.065,277.622-116.746,277.622-198.392c0-17.587-0.398-17.036-0.557-18.025
		c-122.045,85.294-142.461,81.806-172.247,81.806C388.551,596.759,334.345,562.338,333.315,561.925z M828.977,945.626
		c0.691,0,1.494,0.074,2.438,0.207c-12.617-19.894-9.842-16.478-20.425-37.486c-5.143-10.208-47.867-5.833-47.867-39.086
		c0-2.82,0.342-5.642,1.14-8.456c3.865-13.627,2.594-16.589,6.09-34.176c0.396-1.992,1.093-3.857,3.17-4.489
		c-42.981-93.478-39.642-84.15-74.8-192.292c-0.996,2.87-7.523,56.136-39.709,56.136c-14.699,0-19.998-11.356-23.975-16.838
		c15.139,64.783,131.136,224.235,131.143,224.319c0.28,3.173,0.73,6.378,0.73,9.548c0,8.304-4.029,37.374-4.029,51.236
		c0,23.065,12.263,62.794,12.296,62.875c2.341-0.85,3.709-2.199,4.282-4.514c0.727-2.933,1.282-5.888,1.282-8.886
		c0-6.987-6.01-27.694-6.01-41.621c0-20.648,4.239-16.344,4.239-21.969c0-1.197-0.165-1.626-0.165-2.792
		c0-5.813,3.218-7.661,7.109-7.661c0.763,0,1.533,0.068,2.284,0.181c27.013,4.088,34.615,23.953,34.833,24.242
		C824.697,948.252,825.029,945.626,828.977,945.626z M696.134,602.918c0.138-0.028,0.276-0.056,0.414-0.084
		c4.799-72.215,9.599-144.429,14.409-216.8c-0.507,0.156-0.642,0.156-0.677,0.215c-18.948,32.31-50.84,45.269-59.787,45.269
		c-9.291,0-15.647-5.859-16.973-14.472c-19.062,28.382-16.999,98.353-16.999,103.998c0,56.088,9.037,99.678,9.267,100.786
		c0.359-0.264,0.469-0.303,0.476-0.356c4.126-32.1,32.209-41.348,43.619-41.348C688.338,580.128,692.087,592.855,696.134,602.918z
		 M307.464,542.973c0,0.935-0.013,1.665-0.013,2.318c0,0.082,2.474,65.27,2.474,92.483c0,35.616-48.788,202.349-48.788,304.377
		c0,2.02,0.465,3.867,1.626,5.74c3.607,5.819,5.48,10.246,8.468,14.962c0-0.902,0.017-1.554,0.017-2.113
		c0-1.541-0.984-14.032-0.984-31.266c0-160.407,91.527-215.454,91.527-275.837c0-39.918-31.453-93.437-38.619-96.993
		C315.406,552.789,314.283,550.355,307.464,542.973z M721.942,301.342c-0.01-0.69,0.471-38.43-8.447-38.43
		c-9.471,0-76.16,134.525-76.16,153.295c0,5.651,5.347,11.516,12.915,11.516C664.336,427.723,721.57,406.676,721.942,301.342z
		 M310.719,200.893c-1.303-0.284-4.718-1.337-11.939-1.337c-0.277,0-17.564-0.006-31.426,4.66c-1.805,0.608-2.627,1.481-2.84,3.331
		c-0.047,0.403-4.611,32.6-4.611,59.451c0,16.692,4.424,117.912,38.117,155.325c0-0.747,0.007-1.257,0.007-1.68
		c0-0.984-2.645-67.672-2.645-105.058C295.381,247.99,301.784,241.324,310.719,200.893z M299.113,661.175
		c0-5.355,0.006-10.862,0.006-16.679c-1.326-24.29,0.469-77.621-31.315-77.621c-14.386,0-28.107,17.545-28.107,51.162
		c0,30.811,14.594,75.69,39.426,75.69c12.863,0,20.019-13.399,20.019-17.144C299.141,675.949,299.113,672.01,299.113,661.175z
		 M629.328,631.163c4.267,43.607,20.382,51.034,30.038,51.034c22.313,0,35.163-35.346,35.163-59.156
		c0-19.408-5.177-39.125-24.688-39.125c-5.531,0-22.142,2.771-34.793,20.805C631.006,610.482,631.325,613.425,629.328,631.163z
		 M223.471,918.789c-1.52,3.947-3.734,16.534-3.734,27.782c0,49.694,3.747,73.533,3.747,81.982c0,9.519-1.388,14.292-1.388,19.311
		c0,8.704,1.94,12.58,23.043,43.381c1.249,1.823,1.497,2.055,14.997,2.055c14.336,0,18.598-2.04,21.606-2.996
		c0.017-0.198,0.025-0.385,0.025-0.562c0-6.458-21.097,1.326-29.922-8.177c-7.809-8.409-14.005-15.913-14.005-25.533
		c0-22.438,22.236-44.2,22.236-87.258c0-5.184,0.015-10.487-1.557-17.243C235.931,947.666,231.655,938.408,223.471,918.789z
		 M487.585,969.97c0.968-0.446,28.034-19.676,28.034-57.113c0-23.808-16.989-36.476-27.382-36.476
		c-1.097,0-8.359-4.084-8.359,34.318C479.878,931.735,482.754,949.583,487.585,969.97z M288.708,1077.03
		c-18.326-70.607-9.997-97.303-24.985-120.024c0.058,7.484,0.162,14.823,0.162,22.158c0,26.045-22.083,59.335-22.083,76.208
		c0,5.363,1.84,10.267,5.351,14.788c8.04,10.353,9.308,10.903,13.421,11.487c-4.079-5.248-4.755-10.748-4.755-22.391
		c0-11.399,3.113-33.02,7.965-33.02C272.882,1026.237,278.647,1074.504,288.708,1077.03z M773.957,827.323
		c-0.626,3.493-1.345,6.406-1.641,9.362c-2.672,26.687-5.298,22.832-5.298,32.498c0,3.024-0.52,16.923,16.84,23.387
		c7.411,2.759,23.884,8.412,23.964,8.412c0.145,0,0.356-0.12,0.738-0.23C801.641,874.361,793.014,848.814,773.957,827.323z
		 M808.189,985.31c10.284-2.999,12.818-10.538,12.818-19.492c0-26.656-31.925-32.18-34.936-32.18c-2.694,0-3.448,0.751-3.448,3.481
		C782.624,955.099,793.954,976.016,808.189,985.31z M791.118,973.522c-0.136,0.074-0.272,0.148-0.408,0.222
		c1.448,5.297,9.803,37.694,9.803,48c0,15.091-4.235,28.241-5.222,33.581c0.252,0.044,0.486,0.064,0.704,0.064
		c5.233,0,12.265-35.496,12.265-40.966c0-0.66-0.028-1.316-0.086-1.964c-2.117-23.628-2.329-24.479-5.232-26.303
		C798.245,983.206,795.53,979.274,791.118,973.522z M802.746,1053.257c1.274,0.459,2.344,0.697,3.264,0.697
		c2.011,0,3.303-1.136,4.429-3.585c4.796-10.433,9.872-30.003,9.872-33.236c0-2.851-0.59-6.357-5.66-30.653
		c-1.84,0.861-3.364,1.575-5.19,2.43c2.561,22.307,2.731,23.222,2.731,26.127C812.193,1018.894,807.496,1042.669,802.746,1053.257z
		 M233.037,911.047c-2.171,0-4.398,0.684-6.301,2.114c0.257,4.478,3.44,27.692,27.372,33.341
		C241.63,915.295,241.014,911.047,233.037,911.047z M816.835,1045.337c0.148,0.121,0.296,0.242,0.444,0.364
		c9.356-7.502,14.619-33.083,14.619-37.341c0-6.286-6.49-22.855-6.49-26.644c0-0.375,0.037-0.484,0.037-0.88
		c0-1.869-0.966-3.304-1.682-4.788c-1.975,2.984-3.849,5.817-5.782,8.737c6.34,30.38,6.201,28.57,6.201,31.873
		C824.181,1023.64,819.977,1032.12,816.835,1045.337z M829.056,1034.786c0,0.147,0.108,0.391,0.234,0.959
		c5.353-6.59,20.232-38.155,20.232-42.116c0-3.483-4.203-12.094-5.877-15.872c-1.795,3.948-3.092,7.497-6.984,9.276
		c1.922,1.913,2.623,4.034,2.623,6.254C839.284,1001.556,829.056,1034.706,829.056,1034.786z M828.619,949.31
		c-0.213,0.556-2.032,3.293-2.032,13.94c0,4.208,0.444,8.409,1.434,12.595c1.141,4.831,6.508,7.154,7.413,7.154
		c0.759,0,1.384-0.45,1.95-1.412c0.624-1.06,3.194-6.02,3.194-8.266c0-1.564-0.575-3.068-1.397-4.584
		C833.791,958.797,833.383,952.719,828.619,949.31z M221.286,1060.904c-0.41,0.421-0.65,0.549-0.663,0.698
		c-0.161,1.832-1.441,15.752-1.441,17.601c0,2.424,1.264,4.415,3.491,5.47c12.656,5.993,15.502,6.143,17.318,6.631
		c0.125-0.166,0.251-0.333,0.376-0.499C233.554,1081.167,226.149,1071.907,221.286,1060.904z M289.418,1109.294
		c1.282,0,2.566-0.041,3.848-0.041c0.035-0.325,0.07-0.65,0.104-0.975c-5.575-1.297-10.428-1.421-19.486-6.588
		c-4.893-2.791-3.729-4.664-7.165-4.664c-18.684,0-15.756,0.024-18.484,0.246c3.421,2.939,6.269,5.42,9.167,7.842
		C258.085,1105.686,272.751,1109.294,289.418,1109.294z M835.456,993.434c0-2.899-1.548-4.154-5.055-6.709
		c1.351,4.547,2.523,8.493,3.856,12.982C835.038,996.895,835.456,994.942,835.456,993.434z M314.223,206.299
		c-0.684,2.014-1.301,3.832-1.867,5.5c1.916-1.805,3.821-3.599,5.839-5.5C316.893,206.299,315.729,206.299,314.223,206.299z"/>
</g>
</svg>
