<?xml version="1.0" encoding="iso-8859-1"?>
<!-- Generator: Adobe Illustrator 22.1.0, SVG Export Plug-In . SVG Version: 6.00 Build 0)  -->
<svg version="1.1" id="Layer_1" xmlns="http://www.w3.org/2000/svg" xmlns:xlink="http://www.w3.org/1999/xlink" x="0px" y="0px"
	 width="1000px" height="1300px" viewBox="0 0 1000 1300" enable-background="new 0 0 1000 1300" xml:space="preserve">
<g>
	<path fill="#42210B" d="M783.329,1054.161c-22.802-8.591-22.172-8.464-23.473-8.464c-0.056,0-0.099,0.001-0.221,0.001
		c-5.251,0-8.796-3.366-12.425-6.442c-1.076-0.912-1.426-2.015-1.426-3.197c0-0.08,24.694-109.111,31.772-120.549
		c1.395-2.254,2.524-3.2,4.303-3.2c0.87,0,1.896,0.226,3.185,0.637c-0.034-0.43-0.049-0.855-0.049-1.276
		c0-3.004-0.003-5.384,10.805-32.186c0.249-0.618,0.364-1.195,0.364-1.737c0-2.985-59.475-57.128-59.555-57.16
		c6.324,18.146,15.529,27.312,15.529,73.029c0,266.147-236.151,266.742-258.019,266.742c-73.483,0-71.402-44.134-71.402-45.045
		c0-3.032,0.94-5.315,4.117-9.091c-0.419-1.455-0.877-3.045-1.478-5.129c-5.15,6.801-24.042,47.293-76.551,47.293
		c-19.316,0-27.752-10.502-32.983-16.195c-24.081,20.442-38.166,54.808-44.395,55.609c-8.826,1.135-17.655,2.174-26.536,2.174
		c-16.993,0-22.521-4.303-22.521-7.344c0-10.621,32.263-43.19,32.263-79.612c0-28.326-17.394-39.143-17.394-70.452
		c0-53.858,54.475-105.31,54.475-119.717c0-0.08-40.542-145.84-40.542-223.081c0-1.781,0.073-3.566,0.073-5.348
		c0-0.746-28.075-181.81-28.075-279.812c0-168.447,16.741-223.939,17.856-225.853c1.057-1.817,0.108-6.132,6.14-9.128
		c7.389-3.67,71.496-30.971,73.463-34.312c1.065-1.81,5.199-1.415,13.962-2.251c1.759-0.168,3.849-0.946,5.536-0.946
		c0.838,0,29.353,11.322,97.383,11.322c3.477,0,28.74-0.249,33.643-1.794c-1.485-10.56-2.999-16.749-2.999-29.477
		c0-9.097,0.506-22.934,6.606-22.934c1.367,0,2.646,0.909,3.087,2.523c3.897,14.258,46.243,27.001,69.95,27.001
		c13.808,0,16.182-3.356,18.234-3.356c4.517,0,2.233,88.92,62.983,88.92c27.399,0,51.601-18.559,53.191-18.559
		c0.647,0,1.643,0.599,1.643,1.665c0,0.522-0.193,1.078-0.322,1.621c-23.614,99.163-28.57,188.701-116.347,188.701
		c-54.502,0-156.849-39.39-164.566-39.39c-1.315,0-2.133,0.089-2.133,7.717c0,83.269,91.51,107.374,123.793,120.836
		c91.44,38.129,84.084,72.173,98.146,72.173c6.947,0,21.921-17.847,33.81-29.932c12.378-12.582,15.425-12.29,15.649-18.657
		c4.158-118.503,20.064-118.68,20.064-125.118c0-2.13-19.739-26.927-19.739-92.454c0-10.141,2.531-71.116,27.446-71.116
		c4.191,0,11.951,2.647,15.902,4.626c53.72,26.921,50.607,32.09,50.607,37.353c0,30.168-32.4,135.269-32.418,135.349
		c-18.975,81.974-71.286,178.278-71.286,216.332c0,52.794,94.007,150.563,133.328,200.513C845.77,859.492,858,844.344,858,921.603
		c0,22.315-1.725,45.028-1.725,45.562c0,0.375,0.039,0.834,0.039,1.958c0,6.454-1.514,12.608-3.517,18.774
		c-21.868,67.31-18.744,65.648-25.913,68.741c-43.761,18.881-50.314,28.724-57.867,28.724c-5.067,0-6.685-4.91-6.685-10.009
		c0-5.123,1.757-9.813,4.728-14.095c2.765-3.985,6.889-4.631,16.26-6.601C783.323,1054.492,783.326,1054.327,783.329,1054.161z
		 M359.055,563.493c-3.35,8.636-4.389,10.069-4.389,14.921c0,3.097,1.572,15.531,9.536,23.969
		c46.955,49.754,76.29,86.873,155.055,86.873c102.294,0,126.624-63.913,129.533-63.913c8.676,0,71.189,140.78,83.61,182.493
		c2.853,9.582,61.518,58.995,67.337,67.786c0.443,0.67,0.656,1.375,0.656,2.116c0,3.2-11.033,27.353-11.033,32.606
		c0,8.096,14.007,24.062,14.007,42.592c0,2.487-0.753,2.518-0.753,4.081c0,3.791,18.507,32.59,18.507,35.51
		c0,7.07-34.671,26.841-44.608,35.153c0.692,0.224,1.309,0.311,1.889,0.311c13.747,0,46.351-26.229,53.378-26.229
		c1.284,0,2.031,0.824,2.031,2.237c0,1.218-0.177,1.081-3.052,10.654c0.382,0,0.638,0.002,0.846,0.002
		c0.294,0,0.319-0.003,0.457-0.003c1.807,0,2.746,0.63,2.746,1.838c0,4.248-10.923,13.862-10.923,24.958
		c0,3.666,0.93,7.358,2.434,11.083c2.015-0.573,2.389-2.171,2.865-3.679c20.282-64.248,17.686-55.808,18.337-58.848
		c-2.506,1.327-4.874,1.884-7.146,1.884c-19.829,0-41.369-41.452-41.369-81.544c0-36.838,14.399-46.682,22.188-46.682
		c11.211,0,20.572,10.931,29.707,17.378c-7.711-42.124-192.335-214.507-192.335-279.292c0-0.67,0.031-0.886,0.031-2.096
		c0-1.936-0.095-3.875-0.095-5.809c0-38.114,63.481-164.18,69.286-207.36c-3.15,1.927-5.842,3.956-10.429,3.956
		c-12.586,0-17.852-17.082-21.009-24.039c-26.136,52.29-14.102,124.965-25.267,134.445c-19.812,16.822-37.361,42.41-48.709,42.41
		c-2.417,0-7.406-0.82-16.264-13.901c-52.331-77.279-209.735-63.853-209.735-183.362c0-7.92,0.926-11.748,6.026-11.748
		c5.946,0,45.764,13.823,56.298,16.669c-0.363-1.325-0.882-2.181-1.517-2.94c-67.448-80.487-122.787-73.881-122.787-162.125
		c0-6.986,1.342-43.838,1.342-46.419c0-0.702-0.012-1.452-0.012-2.335c-11.925,0.88-11.825,0.332-12.639,2.673
		c-2.383,6.849-3.768,13.69-3.768,20.543c0,16.635,17.482,47.487,18.849,116.181c0.026,1.31,1.028,2.77,1.028,3.942
		c0,0.081-15.278,158.025-15.278,158.55c0,3.614-2.492-4.31,26.651,78.756c32.944,93.898,207.06,115.101,249.024,115.101
		c8.069,0,11.45-0.984,12.681-0.984c2.466,0,2.676,2.191,2.676,2.538c0,1.771-23.181,22.296-77.832,22.296
		C486.862,656.689,423.122,643.233,359.055,563.493z M355.203,599.862c-0.265,0.504-0.503,0.579-0.668,2.567
		c-1.915,23.019-18.917,35.175-18.917,40.671c0,0.082,77.191,393.899,94.808,460.696c28.407-13.847,50.289-41.006,50.613-41.812
		c-27.524-3.322-49.214-9.259-49.214-23.249c0-11.778,22.031-25.787,32.217-32.941C653.198,872.949,704.3,808.834,727.718,805.664
		c-19.096-53.615-57.92-142.03-78.828-175.22c-31.824,55.725-97.553,62.899-129.434,62.899c-38.081,0-62.057-10.308-66.583-11.473
		c1.617,2.279,29.64,19.783,52.867,26.14c128.764,35.239,146.3,12.415,146.3,29.354c0,4.326-6.572,29.173-29.325,55.516
		C497.213,938.182,473.391,950.146,448.183,950.146c-53.542,0-83.349-287.178-83.349-290.391c0-3.748,1.725-5.625,5.006-5.625
		c8.155,0,70.542,34.332,95.061,40.89C461.003,689.922,410.926,669.581,355.203,599.862z M748.254,904.226
		c-0.098-0.01-0.196-0.02-0.294-0.03c0-4.399,0.053-8.799,0.053-13.198c0-12.552-0.318-30.816-7.54-49.762
		c-11.687-30.659-11.598-31.375-13.656-31.375c-4.29,0-39.881,26.431-99.232,77.51
		c-121.442,104.516-191.626,133.408-191.626,151.296c0,13.492,37.364,19.313,48.269,19.313c8.731,0,102.634-140.269,195.077-140.269
		c12.717,0,35.977,6.698,35.977,28.832c0,49.314-132.673,115.812-221.91,115.812c-2.372,0-3.924-0.046-4.132-0.046
		c-1.5,0-2.514,0.578-3.539,1.629c-51.265,52.546-58.781,40.12-58.781,51.674c0,17.331,14.846,40.658,67.336,40.658
		C751.764,1156.269,746.662,925.642,748.254,904.226z M368.976,657.935c0,1.389-0.024,2.495-0.024,3.496
		c0,8.168,30.07,284.412,79.379,284.412c45.652,0,199.72-177.675,199.72-209.009c0-1.726-0.667-2.146-2.893-2.393
		C436.1,711.25,403.925,666.044,368.976,657.935z M320.768,1032.261c0.189,0,0.384,0.032,0.567,0.032
		c1.338,0,4.874-2.933,29.532-6.229c29.723-3.972,37.214-8.126,41.192-8.126c0.587,0,3.891-2.236,21.649,31.94
		c0.189-0.071,0.379-0.142,0.568-0.213c-73.42-348.003-28.064-192.755-82.231-403.13c-0.08,0.072-42.687,49.699-66.006,49.699
		c-5.169,0-8.042-2.943-11.087-5.546c16.457,204.954,66.203,261.892,66.203,324.506
		C321.158,1017.602,321.108,1018.803,320.768,1032.261z M233.301,250.98c0-0.888-0.012-1.777-0.012-2.665
		c-0.143-0.019-0.287-0.039-0.43-0.058c-1.39,8.613-5.586,26.163-5.586,155.022c0,37.99,1.542,65.271,7.548,115.101
		c17.38,144.194,14.944,173.731,31.375,173.731c18.694,0,64.309-46.287,64.309-52.065c0-1.06-14.38-71.627-29.626-107.21
		c-12.058-28.142-38.252-29.896-38.252-47.26c0-5.933,3.273-12.293,6.385-18.339c46.697-90.698,43.022-124.509,50.174-124.509
		c2.446,0,2.254,3.432,2.254,3.493c0,0.898-3.001,67.623-3.001,85.962c0,38.444,5.745,54.879,13.404,66.544
		c13.366,20.357,21.603,66.357,21.773,66.96c2.716-5.999,3.079-8.71,5.273-8.71c4.712,0,55.07,95.656,182.418,95.656
		c39.779,0,62.823-15.138,63.381-15.559c-134.925-5.933-239.337-50.188-260.487-125.788c-11.222-40.116-24.434-62.535-24.434-72.506
		c0-13.237,14.285-108.331,14.285-162.504c0-1.305-0.03-2.68-0.03-4.239c-1.406,1.646-14.033,95.768-54.771,95.768
		c-23.661,0-46.091-37.155-46.091-105.027C233.156,256.249,233.301,253.087,233.301,250.98z M471.877,146.219
		c-6.402,0.382-16.789,1.283-34.794,1.283c-58.06,0-96.954-10.823-97.035-10.831c-0.299,5.928-1.487,36.582-1.487,46.874
		c0,98.823,69.026,83.586,126.314,168.032c1.52,2.24,4.509,3.538,7.371,3.538c12.071,0,82.383-44.097,91.169-52.466
		C507.652,255.207,477.889,175.165,471.877,146.219z M678.448,192.728c-25.451,13.735-38.548,15.727-49.021,15.727
		c-4.099,0-6.797-0.395-7.239-0.395c-4.473,0-14.196,9.138-38.487,9.138c-63.899,0-96.921-44.67-102.703-51.23
		c-0.042,0.294-0.061,0.575-0.061,0.847c0,1.927,3.144,14.26,14.238,33.993c61.1,108.676,74.028,95.245,74.028,101.465
		c0,9.337-89.108,55.25-89.188,55.318c25.564,7.647,65.325,16.085,87.04,16.085C637.609,373.677,661.096,305.309,678.448,192.728z
		 M330.216,252.091c0.024-0.972,0.037-1.941,0.037-2.91c0-20.636-13.702-74.548-13.744-74.628
		c-5.615-10.883-12.05-12.214-20.233-12.214c-11.984,0-37.298,6.884-49.051,15.612c-4.286,3.183-9.999,59.976-9.999,84.104
		c0,60.481,18.666,101.587,42.075,101.587C306.51,363.642,329.529,304.852,330.216,252.091z M313.137,1128.688
		c-1.095-2.648-7.644-10.733-7.644-27.163c0-31.702,11.603-58.248,11.603-85.147c0-31.624-23.332-96.506-23.385-96.586
		c-0.283,0.31-0.457,0.436-0.544,0.606c-15.507,30.553-51.82,66.806-51.82,112.128c0,30.639,17.415,40.747,17.415,70.414
		c0,33.814-23.945,59.509-32.239,79.35c3.098,1.985,7.374,3.64,17.541,3.64c4.813,0,9.619-0.423,14.424-0.829
		C285.628,1182.809,258.717,1185.606,313.137,1128.688z M491.591,1058.233c1.155,0,2.02,0.004,2.779,0.004
		c82.778,0,216.813-64.015,216.813-111.611c0-15.287-14.358-24.836-33.126-24.836c-9.062,0-40.425,2.256-73.834,26.84
		C574.16,970.752,496.109,1052.622,491.591,1058.233z M309.587,1101.754c0,21.469,15.077,42.486,39.432,42.486
		c54.995,0,74.621-49.103,74.621-50.266c0-17.08-25.409-71.453-33.394-71.453c-0.555,0-1.167,0.095-1.857,0.284
		c-33.63,9.203-30.038,3.974-65.098,13.286c-3.093,0.821-4.744,2.984-5.278,6.278
		C314.714,1062.733,309.587,1082.167,309.587,1101.754z M614.256,206.743c-36.918-14.849-45.354-46.527-50.191-85.944
		c-5.209,1.529-10.354,2.032-15.499,2.032c-9.28,0-25.303-1.408-44.89-8.549c-25.263-9.21-27.968-17.949-29.881-19.597
		c-1.165,2.774-1.532,5.486-1.532,14.336c0,98.34,99.958,104.018,112.068,104.018C601.121,213.038,611.49,207.92,614.256,206.743z
		 M333.871,635.92c0.292,0.138,0.584,0.276,0.876,0.415c3.915-8.957,16.329-16.433,16.329-43.014c0-2.795-1.939-4.448-1.939-10.078
		c0-4.182,1.031-5.189,1.031-8.853c0-1.101-0.104-2.198-0.301-3.301c-16.52-92.604-35.441-64.263-35.441-130.616
		c0-4.126,0.162-21.916,2.249-80.067c-0.891,1.178-1.347,2.468-1.698,3.785c-19.251,72.148-48.257,109.064-48.257,121.514
		c0,2.695,0.885,5.146,2.794,7.248C294.018,519.939,303.009,493.731,333.871,635.92z M743.654,291.494c0-0.221,0-0.442-0.001-0.663
		c-0.03-0.699,1.297-53.624-22.779-53.624c-22.651,0-31.779,42.827-31.779,69.086c0,24.122,11.493,80.106,28.474,80.106
		c6.851,0,12.252-8.466,13.312-13.869C739.468,328.771,743.654,316.588,743.654,291.494z M852.376,920.156
		c-0.15-7.679-0.437-15.061-0.437-22.407c0-1.762,0.015-2.663,0.015-2.938c0-12.822-23.58-27.062-30.655-27.062
		c-13.396,0-18.237,26.844-18.237,42.206c0,36.121,19.093,77.894,37.782,77.894C850.695,987.848,849.516,972.785,852.376,920.156z
		 M693.023,358.142c0.14-0.608,0.247-0.849,0.247-1.012c0-1.442-8.336-24.251-8.336-50.774c0-34.225,12.63-73.262,35.967-73.262
		c3.92,0,26.741,1.406,26.741,56.635c0,19.758-2.768,35.31-2.835,35.779c1.048-1.489,17.365-66.844,17.365-82.548
		c0-4.038-1.562-5.314-6.439-8.691c-2.659-1.842-42.952-28.302-55.833-28.302c-16.368,0-23.602,39.589-23.602,67.02
		C676.298,335.166,692.977,358.062,693.023,358.142z M781.873,917.354c-0.261-0.021-0.523-0.042-0.784-0.064
		c-7.356,15.003-31.093,118.007-31.093,118.287c0,0.565,0.189,1.085,0.776,1.478c6.822,4.566,7.115,4.464,7.527,4.464
		c0.609,0,1.168-0.377,1.686-1.031c13.004-16.382,16.307-18.388,17.531-27.357c3.961-29.025,19.526-55.235,19.526-58.625
		C797.041,950.056,782.378,918.436,781.873,917.354z M816.944,992.692c-5.951-10.701-11.664-20.974-17.396-31.28
		c-5.833,6.247-18.368,44.867-18.625,57.394C808.952,1001.07,809.323,999.759,816.944,992.692z M784.324,1031.237
		c0.759,2.518,1.295,4.861,2.169,7.07c2.438,6.165,8.463,11.875,10.962,11.875c0.778,0,1.562-0.31,2.361-0.985
		c26.429-22.341,26.722-34.102,28.9-41.928C816.067,1012.95,802.968,1025.222,784.324,1031.237z M819.875,1042.288
		c0-2.649,0.379-5.408,0.549-8.545c-22.556,26.863-23.129,21.181-45.498,27.017c-7.781,2.03-8.467,13.642-8.467,14.788
		c0,4.87,1.407,5.655,2.806,5.655c2.137,0,5.671-2.134,12.707-6.454c27.892-17.125,35.977-18.114,40.13-20.633
		C821.093,1049.688,819.875,1046.636,819.875,1042.288z M315.253,159.364c0-5.959,1.061-11.635,2.698-17.248
		c-0.167-0.185-0.333-0.369-0.5-0.554c-11.757,5.895-23.513,11.791-35.27,17.686c0.324,0.059,0.639,0.081,0.947,0.081
		c1.58,0,10.397-1.158,15.288-1.158c10.04,0,13.878,4.957,17.178,7.005C315.362,163.205,315.253,161.27,315.253,159.364z
		 M780.441,1032.169c-0.146-0.004-0.289-0.005-0.431-0.005c-2.245,0-4.035,0.45-5.6,1.633c-3.396,2.569-6.611,5.326-9.46,9.083
		c8.833,2.509,16.332,7.355,25.315,8.224C785.153,1045.778,781.728,1039.658,780.441,1032.169z M793.218,930.466
		c-0.196,0.109-0.391,0.217-0.587,0.326c1.395,3.589,2.485,7.308,4.233,10.747c0.277-0.116,0.553-0.232,0.83-0.348
		C796.201,937.616,794.71,934.041,793.218,930.466z"/>
</g>
</svg>
