<?xml version="1.0" encoding="iso-8859-1"?>
<!-- Generator: Adobe Illustrator 22.1.0, SVG Export Plug-In . SVG Version: 6.00 Build 0)  -->
<svg version="1.1" id="Layer_1" xmlns="http://www.w3.org/2000/svg" xmlns:xlink="http://www.w3.org/1999/xlink" x="0px" y="0px"
	 width="1000px" height="1300px" viewBox="0 0 1000 1300" enable-background="new 0 0 1000 1300" xml:space="preserve">
<g>
	<path fill="#42210B" d="M680.81,687.024c-3.08-1.151-6.046-1.842-8.899-1.842c-16.909,0-199.795,186.418-212.23,199.933
		c4.094,12.444,65.404,185.431,65.404,186.944c0,1.446-1.482,1.655-1.731,1.655c-2.465,0-58.769-166.636-61.571-170.681
		c11.394,54.646,21.145,88.13,21.145,119.698c0,4.774-0.155,4.212-0.155,10.511c0,0.688,0.001,1.376,0.001,2.063
		c0,25.749-5.83,32.51-9.128,37.311c-21.459,31.245-18.074,37.973-22.679,37.973c-2.138,0-2.535-2.118-2.618-2.543
		c-0.377-1.912-0.824-3.861-0.824-5.79c0-9.234,2.343-38.488,2.343-63.021c0-42.947-14.404-117.207-14.404-118.846
		c0-0.596,0.699-1.746,1.524-1.746c3.354,0,16.511,85.111,16.511,120.946c0,14.983-2.551,53.539-2.551,59.4
		c0,1.847,0.091,3.698,0.113,5.547c0.211,0.038,0.422,0.076,0.632,0.114c22.177-46.354,27.777-33.375,27.777-76.787
		c0-46.418-19.909-109.861-23.769-138.769c-57.811,55.043-71.344,69.77-94.888,69.77c-105.459,0-230.83-151.563-230.902-151.601
		c11.044,40.179,41.322,81.12,42.267,182.415c0.707,75.817,43.53,117.46,43.53,121.43c0,0.93-0.83,1.28-1.614,1.28
		c-3.236,0-45.08-52.659-45.505-120.426c-0.754-120.406-50.566-173.25-50.566-228.277c0-13.099,7.232-54.423,52.647-54.423
		c1.068,0,2.197,0.015,3.49,0.015c-2.971-12.141-4.499-24.25-4.499-36.383c0-10.183,1.076-20.382,3.279-30.631
		c-29.796,49.816-34.562,76.38-52.312,76.38c-17.274,0-51.045-41.577-51.045-72.741c0-22.695,8.396-43.122,53.063-81.906
		C300.542,409.53,385.267,279.873,406.048,266.851c9.319-5.839,34.462-15.788,41.391-15.788c2.399,0,4.817,0.397,7.256,1.299
		c2.081-1.684,4.364-2.148,6.696-2.148c0.611,0,7.199,0.137,12.261,2.428c28.593,12.943,79.896,10.677,84.351,28.394
		c3.424,13.617,11.013,51.309,11.013,55.991c0,9.263-4.21,13.196-21.627,31.237c-4.512,4.673-0.962,16.925-8.131,16.925
		c-4.159,0-9.127-4.624-11.895-6.95c-0.355,0.876-1.005,3.351-3.133,3.351c-1.791,0-4.172-1.926-4.52-2.22
		c-13.455-11.368-12.07-10.187-17.511-26.239c-1.958,0.649-3.832,1.269-5.893,1.952c0.46,4.076,0.74,6.419,0.74,7.489
		c0,12.015-49.559,11.022-89.518,22.146c-46.4,12.917-142.743,157.135-146.833,163.833c3.913-0.594,12.891-4.915,28.38-4.915
		c19.859,0,48.814,10.669,50.871,10.669c0.809,0,1.568-0.265,2.389-0.869c95.113-69.925,187.061-54.238,187.061-93.992
		c0-11.773-9.51-42.939-9.51-45.172c0-0.557,0.221-1.053,0.763-2.294c43.839,6.818,47.083,7.867,88.672,7.867
		c18.797,0,33.561,0.444,41.833-10.67c2.091-2.81,13.767-18.218,13.767-26.841c0-1.574-1.086-2.046-3.38-2.046
		c-23.192,0-58.871,32.4-116.462,32.4c-52.762,0-81.405-27.265-81.405-28.452c0-0.78,0.728-1.687,1.594-1.687
		c2.657,0,25.826,26.639,81.095,26.639c36.829,0,76.598-14.282,107.227-41.657c-0.094-0.164-0.188-0.328-0.282-0.492
		c-1.954,0.611-25.822,8.97-40.302,8.97c-11.653,0-33.552-6.512-33.552-29.742c0-11.354,14.17-81.246,57.051-81.246
		c33.134,0,37.274,35.66,37.274,52.245c0,18.927-6.412,34.942-6.412,35.707c0,0.069,0.08,0.177,0.205,0.473
		c20.223-17.752,41.843-43.782,64.022-43.782c10.806,0,13.547,7.218,13.547,11.509c0,1.785,0.156,4.003-7.908,13.046
		c-31.732,35.584-32.787,41.077-48.291,41.077c-2.343,0-3.329-0.17-7.717-0.615c-1.421,3.566-4.736,12.096-4.736,24.985
		c0,15.221,5.96,28.755,15.579,28.755c0.381,0,12.208-1.339,21.939-7.846c63.834-42.685,71.161-36.295,71.161-52.721
		c0-32.669-34.402-51.744-34.402-85.317c0-4.093,1.937-19.026,21.314-19.026c14.506,0,48.215,15.202,48.215,58.693
		c0,69.585-84.854,75.578-84.854,104.298c0,11.041,5.923,14.664,6.11,14.811c97.426,76.211,159.002,344.215,159.002,368.12
		c0,2.41-28.194,292.493-31.612,292.493c-145.663,0-188.274-65.332-240.706-240.193c-4.603-15.349-24.689-26.2-24.689-64.089
		C603.549,732.622,651.657,720.745,680.81,687.024z M867.352,1098.336c0.551-4.266,29.693-276.729,29.693-289.21
		c0-45.783-72.143-280.374-130.661-336.615c-11.094-10.662-23.569-27.019-28.062-29.445c-1.954,2.845-6.933,9.291-6.933,33.04
		c0,62.286,15.441,140.413,15.441,151.451c0,10.581-8.598,36.479-61.212,36.479c-97.321,0-93.303-68.835-93.303-86.566
		c0-158.342,134.971-139.674,141.325-140.615c0-0.253,0.016-0.421,0.016-0.552c0-0.885-1.799-3.908-1.799-8.983
		c0-19.319,9.861-17.338,37.672-36.173c-0.031-0.001-0.061-0.001-0.091-0.001c-11.495,0-56.243,40.598-76.979,40.598
		c-17.355,0-19.497-25.386-19.497-32.464c0-13.11,4.318-24.265,4.773-25.694c-4.404-2.244-5.685-2.565-5.685-4.106
		c0-0.422,0.111-0.92,0.325-1.536c11.199-32.229,46.93-40.926,48.675-40.926c1.164,0,2.298,0.742,2.298,1.226
		c0,0.432-0.393,1.192-0.726,1.619c-16.914,21.724-16.505,26.173-20.925,26.173c-0.881,0-0.936-0.104-4.008-0.838
		c-5.931,4.417-10.887,9.493-14.625,16.088c2.008,0.317,3.949,0.483,5.819,0.483c7.589,0,13.999-2.737,18.945-9.217
		c15.885-20.81,33.768-35.31,33.768-41.481c0-1.404-0.371-7.864-10.128-7.864c-25.308,0-57.037,42.111-88.58,67.65
		c10.178-2.177,14.419-3.896,19.071-3.896c3.115,0,6.429,0.47,6.429,6.097c0,0.647-0.057,1.294-0.235,1.888
		c-10.88,36.283-30.759,38.537-49.666,38.537c-72.039,0-81.653-6.896-90.982-6.896c-0.298,0-0.599,0.024-0.893,0.024
		c13.394,25.567,34.478,80.516,37.897,108.848c33.356-21.671,40.504-31.612,43.178-31.612c0.909,0,1.566,0.719,1.566,1.904
		c0,69.501-246.429,256.34-273.224,290.036c0.311,0.063,0.418,0.104,0.496,0.104c0.32,0,3.97-1.018,8.803-1.018
		c48.868,0,56.108,103.468,56.108,120.005c0,23.611-1.202,26.181-2.945,32.706c35.727-30.116,252.736-255.904,273.048-255.904
		c2.537,0,7.109,0.444,12.244,2.864c10.58-8.749,20.274-18.63,29.497-18.63c23.641,0,45.405,67.05,45.405,67.123
		c0,1.365-0.867,2.107-2.519,2.107c-18.43,0-51.129-35.889-71.852-46.326c-48.766,44.382-77.29,55.654-77.29,109.172
		c0,6.567,0.497,26.449,15.961,47.718c0.089-0.352,0.125-0.674,0.125-0.978c0-0.67-9.042-34.42-9.042-53.917
		c0-38.207,51.064-41.397,91.667-41.397c34.228,0,171.829,12.436,171.829,71.763c0,17.477-15.153,68.889-85.676,68.889
		c-43.599,0-96.907-11.447-96.983-11.462c-68.194-13.474-52.985-15.261-63.789-19.279
		C704.913,1111.12,758.629,1072.81,867.352,1098.336z M415.62,344.568c0-1.085,0.05-2.175,0.05-3.26
		c-0.225-0.108-0.45-0.216-0.675-0.325c-32.864,35.623-44.644,47.776-61.216,47.776c-2.518,0-2.807-2.279-2.807-2.613
		c0-0.234-0.584-0.846,5.302-8.256c35.854-45.141,41.223-57.707,55.767-57.707c7.071,0,7.386,7.032,7.691,9.369
		c10.519-12.801,15.065-25.161,23.147-25.161c11.813,0,13.149,16.811,28.969,35.615c0.68,0.808,1.401,1.115,2.36,1.115
		c0.659,0,3.03-0.337,7.122-0.337c9.705,0,11.895,6.741,13.82,10.678c3.324-0.302,8.399-2.464,8.399-4.48
		c0-1.432-3.295-7.709-5.1-10.265c-15.436-21.857-10.404-30.47-19.511-33.111c-17.923-5.197-34.162-27.728-60.663-27.728
		c-19.329,0-38.131,23.642-39.903,25.845C157.681,575.978,73.148,576.985,73.148,646.289c0,30.16,33.363,68.865,47.338,68.865
		c22.345,0,48.436-101.316,87.248-124.723c35.468-21.39,80.497-89.942,159.605-185.89c27.203-32.993,86.095-27.186,124.316-39.588
		c2.063-0.67,1.885-2.047,1.885-3.147c0-2.202-0.313-4.359-1.205-6.484c-0.194,0.005-0.387,0.008-0.579,0.008
		c-12.239,0-18.503-10.438-21.251-10.438c-7.343,0-41.523,9.727-46.407,9.727C417.443,354.62,415.62,349.874,415.62,344.568z
		 M341.716,764.792c0.405,0,0.661,0.01,0.859,0.01c0.133,0,6.45-0.376,12.325-3.511c11.194-5.974,152.292-135.086,152.358-135.163
		c-1.95,0.399-3.745,0.604-5.409,0.604c-18.637,0-20.49-28.686-20.49-36.745c0-19.633,4.576-24.363,11.68-27.169
		c53.923-21.302,67.914-35.433,67.914-36.447c0-19.148-29.708-96.848-35.099-103.758c1.147,9.14,7.057,25.082,7.057,36.685
		c0,17.092-16.157,26.186-35.213,31.822c-153.603,45.434-135.958,57.756-152.733,64.392c5.182,3.942,125.805,35.087,125.805,74.596
		c0,23.033-50.252,67.194-67.066,67.194c-37.637,0-37.988-117.457-141.465-117.457c-23.455,0-42.455,8.163-49.371,11.685
		c-2.248,1.145-4.165,25.849-4.165,42.314c0,170.733,95.207,153.313,117.858,153.313c1.501,0,2.459-0.648,3.069-2.02
		c7.497-16.847,6.022-13.02,6.487-15.482c-0.425-0.04-0.685-0.094-0.915-0.094c-0.918,0-6.714,1.072-14.663,1.072
		c-68.432,0-75.463-72.259-75.463-89.737c0-44.954,29.364-73.684,49.987-73.684c38.422,0,55.424,77.891,55.424,109.992
		C350.487,737.233,345.723,751.148,341.716,764.792z M787.625,886.452c1.483,0,3.643,0.002,6.057,0.002
		c77.008,0,80.385-65.088,80.385-65.935c0-57.902-160.384-67.565-164.691-67.565c-69.286,0-91.753,10.255-91.753,39.653
		c0,5.894,2.02,26.85,10.882,58.113C633.909,869.785,746.811,885.833,787.625,886.452z M735.594,440.432
		c-1.706-0.036-3.154-0.144-4.529-0.144c-1.388,0-25.184,1.576-36.862,2.585c-96.322,8.326-98.366,131.613-98.366,134.57
		c0,21.142-1.103,83.122,89.714,83.122c46.847,0,57.862-21.321,57.862-33.357c0-8.389-15.437-88.343-15.437-150.599
		C727.976,452.005,732.004,447.131,735.594,440.432z M333.422,950.387c0.083-0.15,0.166-0.3,0.248-0.45
		c-36.06-30.326-40.005-65.093-40.005-88.729c0-53.606,28.644-68.537,28.924-70.546c-1.161,0-2.31,0.044-3.45,0.044
		c-125.639,0-142.836-74.428-143.992-77.568c-0.623,0-1.179-0.011-1.709-0.011c-16.719,0-51.719,8.627-51.719,50.379
		C121.72,851.922,300.351,937.741,333.422,950.387z M219.125,584.419c12.601-3.727,24.951-8.11,43.284-8.11
		c105.426,0,106.67,117.588,141.106,117.588c12.447,0,63.788-40.257,63.788-63.871c0-36.485-150.753-82.957-178.603-82.957
		c-4.606,0-18.521,0.961-29.571,6.458C242.163,561.965,219.19,584.346,219.125,584.419z M397.559,918.114
		c0-2.824,0.005-5.647,0.005-8.471c0.14-2.481,0.214-4.96,0.214-7.435c0-6.57-0.515-13.115-1.653-19.603
		c-7.864-44.833-13.647-94.209-50.191-94.209c-48.426,0-48.777,69.96-48.777,71.96c0,58.05,35.364,95.009,62.405,95.009
		c19.236,0,38.006-9.995,38.006-31.905C397.567,923.206,397.559,921.639,397.559,918.114z M320.398,767.241
		c5.737,0,11.549-0.614,17.449-1.753c4.013-13.662,9.209-28.354,9.209-48.259c0-14.056-11.077-106.525-52.011-106.525
		c-19.606,0-46.496,28.495-46.496,69.394C248.55,714.902,264.936,767.241,320.398,767.241z M670.363,315.59
		c-1.435-13.647-2.227-47.094-33.826-47.094c-42.112,0-53.636,72.293-53.636,77.712c0,18.85,16.874,26.282,30.152,26.282
		c7.939,0,29.171-4.57,44.238-10.923C664.868,358.373,670.042,333.165,670.363,315.59z M255.881,778.26
		c0.162-0.192,0.323-0.383,0.485-0.575c-4.703-2.409-51.171-39.689-51.171-144.362c0-17.147,1.493-28.562,2.535-38.241
		c-0.171,0-0.318-0.026-0.436-0.026c-2.283,0-34.135,22.812-34.135,79.022c0,52.103,25.202,78.56,48.213,90.489
		C234.587,771.416,254.063,778.001,255.881,778.26z M788.709,368.177c0,4.007-0.761,7.97-3.062,11.795
		c30.332-20.642,31.172-47.121,31.172-57.647c0-46.214-37.257-55.308-44.905-55.308c-17.08,0-17.594,13.302-17.594,15.424
		C754.32,317.112,788.709,331.991,788.709,368.177z M560.716,532.756c-0.758,0.062-0.97,0.016-1.1,0.099
		c-62.918,40.051-74.831,24.323-74.831,55.473c0,18.615,5.461,35.146,16.982,35.146
		C514.522,623.473,554.259,578.122,560.716,532.756z M426.942,260.452c9.499,4.66,52.902,25.23,62.514,51.194
		c7.847,21.196,17.654,28.596,17.654,35.568c0,2.456-1.68,2.556-1.68,4.484c0,0.459,0.106,0.927,0.275,1.411
		c5.197,14.871,3.428,12.377,16.572,23.862c0.303,0.265,0.751,0.363,1.505,0.71c-0.697-8.869-2.062-15.326-2.062-28.639
		c0-6.434,0.332-9.288,0.332-11.687c0-1.75-0.153-3.496-0.707-5.231c-12.661-39.689-12.581-48.674-29.106-58.29
		c-7.369-4.288-37.815-19.344-44.718-19.344C443.541,254.491,440.64,255.881,426.942,260.452z M462.57,253.719
		c-0.976,0-1.995,0.108-3.08,0.39c13.522,7.983,44.963,14.169,52.765,37.994c3.078,9.4,10.843,9.236,13.153,17.97
		c0.07,0.263,8.957,34.701,8.957,38.819c0,8.904-6.673,11.704-6.673,17.957c0,9.05,7.86,14.746,11.062,14.746
		c1.162,0,1.687-0.881,1.959-2.894c2.711-20.063,8.489-24.598,8.489-33.278c0-4.907-10.225-41.5-14.352-53.004
		C531.308,282.549,474.398,253.719,462.57,253.719z M753.91,731.351c0.156-0.162,0.313-0.325,0.469-0.487
		c-11.933-26.778-22.639-61.441-41.11-61.441c-9.155,0-25.589,16.732-25.808,17.08C707.839,696.914,724.083,719.98,753.91,731.351z
		 M500.84,264.044c-0.039,0.121-0.079,0.242-0.118,0.363c12.839,8.831,34.127,17.241,37.076,26.033
		c8.384,24.99,14.989,50.297,14.989,54.883c0,1.813,0.172,3.156-4.347,16.025c19.27-16.298,17.088-23.339,17.088-24.205
		c0-1.455-0.164-2.948-0.464-4.473C552.005,266.379,563.936,275.92,500.84,264.044z M603.728,501.711
		c-0.145-0.087-0.289-0.173-0.434-0.26c-23.685,17.686-20.102,15.955-37.322,27.192c-6.513,4.25,9.004,13.448-34.999,75.231
		C546.527,589.435,579.878,560.733,603.728,501.711z M468.34,341.425c-14.986-19.958-17.426-33.616-25.405-33.616
		c-1.555,0-3.046,0.772-4.479,2.295c-3.455,3.672-18.935,25.337-19.013,26.062c-0.242,2.253-0.521,4.511-0.521,6.767
		c0,6.64,1.852,8.239,4.737,8.239C429.608,351.172,444.689,345.553,468.34,341.425z M355.51,384.83
		c16.265-1.881,26.415-12.053,59.194-48.943c1.332-1.499,1.216-1.72,1.216-4.334c0-5.848-0.071-7.773-4.196-7.773
		c-2.351,0-7.728,1.4-11.163,4.533C394.471,333.869,355.562,384.756,355.51,384.83z M478.654,299.811
		c0.146-0.226,0.292-0.452,0.438-0.678c-16.282-14.078-45.384-35.144-56.019-35.144c-12.237,0-24.403,13.604-25.407,14.902
		c2.77-0.556,8.231-6.565,20.259-6.565C444.27,272.327,465.639,295.659,478.654,299.811z M716.091,332.353
		c-0.081-0.14-0.162-0.279-0.242-0.419c-15.337,4.801-31.602,16.592-40.143,36.667c1.393,0.664,2.49,1.188,3.691,1.76
		c3.997-6.628,8.729-12.252,14.657-16.743c-0.857-1.337-1.268-2.581-1.268-3.672c0-2.985,3.113-4.347,6.044-4.347
		c3.768,0,3.672,2.851,3.672,2.955c0,1.453-0.845,2.511-1.564,3.794c0.075-0.004,0.149-0.005,0.221-0.005
		c0.242,0,0.464,0.017,0.641,0.017C702.222,352.36,700.948,354.088,716.091,332.353z M515.815,303.114
		c2.806,11.716,9.656,26.056,9.656,35.839c0,2.064-0.192,3.016-0.192,8.476c0,3.275,0.103,8.484,0.103,9.504
		c0,0.259-0.013,0.529-0.013,0.805c0,0.747,0.095,1.539,0.798,2.293c2.559-3.975,4.713-6.702,4.713-11.218
		c0-1.179-0.164-2.389-0.503-3.631c-0.455-1.667-0.626-3.41-1.029-5.094C521.143,305.803,522.241,307.807,515.815,303.114z
		 M336.007,780.385c3.119-2.052,13.711-11.819,14.545-13.362C338.288,769.128,341.201,766.662,336.007,780.385z M481.196,343.96
		c-1.361,0-2.784,0.259-4.225,0.799c3.211,3.89,8.872,6.804,12.921,6.804c0.397,0,0.779-0.028,1.142-0.086
		C489.401,346.704,485.624,343.96,481.196,343.96z M695.863,350.283c0.408,0.149,0.734,0.215,0.997,0.215
		c0.837,0,1.031-0.666,1.162-1.442C697.436,349.389,696.851,349.721,695.863,350.283z"/>
</g>
</svg>
