<?xml version="1.0" encoding="iso-8859-1"?>
<!-- Generator: Adobe Illustrator 22.1.0, SVG Export Plug-In . SVG Version: 6.00 Build 0)  -->
<svg version="1.1" id="Layer_1" xmlns="http://www.w3.org/2000/svg" xmlns:xlink="http://www.w3.org/1999/xlink" x="0px" y="0px"
	 width="1000px" height="1300px" viewBox="0 0 1000 1300" enable-background="new 0 0 1000 1300" xml:space="preserve">
<g>
	<path fill="#42210B" d="M430.093,791.057c3.738-22.719,7.02-24.463,7.02-86.856c0-105.785-14.578-115.931-74.45-115.931
		c-4.21,0-31.656,1.458-33.132,1.458c-1.592,0-3.08-0.366-4.353-1.332c-3.485-2.644-7.186-5.086-10.304-8.119
		c-34.961-34.018-52.642-45.36-53.021-49.248c-0.05-0.513-0.998-0.968-1.574-1.395c-11.683-8.664-15.645-10.12-15.645-17.358
		c0-9.724,7.366-20.805,8.541-21.118c3.115-0.83,4.032-8.7,20.328-21.302c-6.269-4.183-13.77-7.616-13.77-17.583
		c0-0.339,0.008-0.481,0.008-0.613c0-1.476-0.735-2.178-1.839-2.897c-10.558-6.881-17.639-14.658-17.639-17.944
		c0-2.357,2.375-4.865,9.41-4.865c14.124,0,28.039,5.695,28.2,5.798c0.807,0.515,1.542,0.726,2.231,0.726
		c1.476,0,2.741-0.971,4.045-2.015c-3.793-0.833-47.242-8.034-47.242-22.592c0-6.181,8.19-8.404,13.391-8.404
		c21.06,0,37.45,4.089,45.832,4.986c41.993-86.94,61.489-86.296,81.024-86.296c9.421,0,17.872,2.457,22.035,2.457
		c2.059,0,6.501-1.15,7.556-1.15c0.491,0,99.523,6.626,100.953,6.626c7.98,0,11.454-6.857,32.057-6.857
		c19.769,0,37.133,8.889,49.593,8.889c13.069,0,24.325-1.2,28.637-2.136c0-0.28,0.038-0.534,0.038-0.761
		c0-0.271-7.968-25.439-20.013-43.803c-20.762-31.653-53.35-43.701-53.836-43.701c-0.06,0-0.153,0.096-0.321,0.199
		c29.379,33.444,57.806,49.684,57.806,58.38c0,4.582-3.997,18.527-63.271,18.527c-97.904,0-105.237-55.683-105.237-61.899
		c0-16.289,14.156-30.205,51.516-30.205c23.825,0,35.657,4.207,39.456,4.519c-1.818-2.121-24.315-16.762-52.992-16.762
		c-48.84,0-80.727,46.461-80.727,101.039c0,0.732,0.042,1.475,0.155,2.238c4.791-8.213,13.139-17.49,22.608-17.49
		c11.205,0,45.761,19.027,45.824,19.099c0.286,0.333,0.622,0.858,0.622,1.237c0,0.529-0.794,1.085-1.201,1.466
		c-0.078,0.073-13.499,1.399-16.759,1.399c-16.371,0-23.18-7.722-37.228-7.722c-5.973,0-11.846,7.143-15.151,7.143
		c-1.275,0-1.989-1.055-1.989-3.108c0-86.947,66.649-137.362,149.045-137.362c38.986,0,68,5.703,88.579,30.495
		c34.797,41.921,21.829,18.576,47.919,119.766c132.421,18.86,176.2,20.357,194.204,51.574c5.71,9.901,20.626,19.017,20.626,46.484
		c0,7.777-1.195,15.397-2.937,22.957c-110.469,479.307-220.259,255.407-220.259,585.588c0,44.369,6.935,48.243,6.935,98.334
		c0,7.927-0.795,8.482-0.795,15.055c0,17.848,7.151,28.849,7.151,36.636c0,1.563-0.131,3.149-0.256,4.775
		c-6.235,0.688-28.821,1.071-41.979,1.071c-174.802,0-403.158-57.274-452.411-183.568c-14.871-38.133-39.659-386.825-39.659-386.897
		c0-100.776,57.213-107.312,64.971-107.312c78.451,0,118.126,128.397,221.101,277.708
		C429.712,791.077,429.903,791.067,430.093,791.057z M436.51,801.927c-0.12,0.07-0.24,0.14-0.359,0.21
		c1.132,2.598,6.644,9.38,8.768,25.332c8.53,64.046,54.954,196.323,54.954,205.018c0,8.044-3.282,14.883-9.673,14.883
		c-30.227,0-71.694-85.367-71.694-155.714c0-31.886,10.522-85.869,10.522-91.042c0-0.902-88.764-166.616-184.939-166.616
		c-13.378,0-22.434,5.714-31.692,12.836c-10.512,8.087-12.734,19.394-12.734,32.659c0,141.691,252.345,400.507,320.843,400.507
		c5.312,0,21.845-0.589,31.811-8.111c5.923-4.471,17.152-17.641,17.152-19.471c0-1.081-0.368,0.345-2.651-10.569
		C525.559,844.636,493.82,848.652,436.51,801.927z M567.531,664.917c-0.158-0.08-0.315-0.159-0.473-0.239
		c-5.003,16.841-4.447,43.154-4.447,43.228c0,86.811,17.605,184.789,17.605,266.919c0,48.723,6.279,109.204-59.881,109.204
		c-79.645,0-324.642-270.937-324.642-404.432c0-40.833,35.365-49.553,48.319-49.553c73.561,0,127.644,80.851,129.665,83.107
		c-0.009-0.073-92.297-195.823-165.378-195.823c-10.602,0-60.85,8.721-60.85,103.597c0,12.11,28.542,341.365,32.847,358.272
		c0.348-1.281,18.712-87.57,50.839-87.57c1.14,0,6.542-3.128,32.161,25.375c190.563,212.013,331.174,177.931,331.174,212.588
		c0,3.582-10.55,43.432-66.431,43.432c-51.217,0-209.489-28.678-324.645-136c0.991,5.972,112.877,150.73,417.831,150.73
		c19.018,0,44.739-0.46,49.261-0.46c0.317,0,0.655,0.042,0.997,0.042c0.539,0,1.089-0.104,1.586-0.639
		c-88.202-111.058-109.804-480.486-109.804-480.559C563.263,683.14,566.658,669.527,567.531,664.917z M390.143,323.074
		c-6.458-1.185-7.575-1.5-11.06-1.5c-54.725,0-86.235,105.146-86.731,106.997c-0.316,1.181-1.029,1.961-2.246,2.542
		c-1.868,0.891-3.552,2.167-5.271,3.252c0.149,0.771,0.243,1.313,0.243,1.735c0,0.928-0.453,1.268-1.756,2.173
		c-14.372,9.984-14.418,10.444-15.599,10.444c-0.873,0-1.527-0.683-1.527-1.547c0-1.086,0.266-1.879,10.899-12.043
		c-3.047-1.065-14.462-5.7-26.798-5.7c-3.297,0-4.997,0.101-6.737,1.617c12.835,16.505,19.734,13.844,19.734,19.513
		c0,0.69-0.107,1.017-0.107,2.085c0,19.276,57.283,23.094,64.553,23.094c2.301,0,3.142-0.074,3.894-0.074
		c1.529,0,3.072,0.213,4.594,0.409c3.026,0.389,4.022,1.059,4.022,3.389c0,9.404-6.819,14.161-8.209,15.445
		c1.14,0.298,1.72,0.481,2.21,0.481c0.473,0,0.861-0.17,1.588-0.57c32.135-17.699,47.95-50.036,56.128-60.582
		c13.788-17.783,18.543-16.211,33.394-16.211c12.516,0,105.494,24.653,284.21,52.615c6.785-64.98,81.211-96.06,125.457-96.06
		c19.523,0,26.335,6.049,29.376,7.715c-2.215-6.876-14.62-15.423-16.67-16.738c-27.857-17.858-179.588-33.901-179.66-33.901
		c-0.448,0-3.162,0.016-8.501,0.016c-7.45,0-14.9-0.03-22.35-0.03c-20.255,0-23.249,0.357-34.615,0.357
		c-8.185,0-13.571-0.339-23.161-0.339c-8.105,0-9.006,0.25-14.981,0.25c-29.885,0-153.585-8.829-156.126-8.829
		c-0.775,0-1.558,0.086-2.347,0.117c-0.161,0.897-0.367,1.397-0.367,3.666c0,0.886,0.246,3.872,0.246,9.155
		c0,18.84-8.136,119.977-62.105,119.977c-2.421,0-36.457-0.918-36.457-16.521c0-2.879,1.341-8.14,2.521-11.47
		C342.191,336.699,359.387,333.53,390.143,323.074z M527.308,1169.379c5.267-0.457,10.556-0.767,15.806-1.398
		c30.801-3.702,47.476-29.619,47.476-38.392c0-4.131-2.411-7.347-13.231-10.957c-295.779-98.704-312.113-223.14-346.035-223.14
		c-27.09,0-48.848,83.678-48.848,94.39C182.477,1035.528,329.664,1154.135,527.308,1169.379z M290.745,551.865
		c-0.18,0.202-0.359,0.403-0.539,0.604c8.067,5.131,32.742,33.379,40.497,33.379c0.073,0,26.938-1.659,32.957-1.659
		c30.293,0,61.614,4.592,68.639,34.004c6.835,28.617,8.556,62.661,8.556,73.718c0,95.869-6.898,90.34-6.898,100.536
		c0,1.068,0.371,1.961,1.272,2.794c47.584,44.044,90.604,35.276,129.808,224.52c0.464-0.564,0.535-1.075,0.535-1.584
		c0-5.144-0.379-30.596-0.379-47.945c0-4.454,0.017-5.542,0.017-9.539c0-91.777-25.162-208.82-31.378-216.366
		c-0.687-0.834-0.137-6.207-5.778-24.765c-22.027-72.467-21.682-150.393-47.147-159.732c0.737,8.694,3.586,20.115,3.586,33.69
		c0,19.615-4.143,18.882-5.317,18.882c-5.352,0-56.383-41.645-56.383-54.278c0-8.584,27.129-8.774,27.554-8.774
		c11.59,0,20.019,2.46,25.093,3.698c0-0.539,0.031-0.989,0.031-1.399c0-0.238-0.011-0.463-0.044-0.684
		c-2.094-13.882-1.608-23.405-14.965-28.918c-5.578-2.302-31.534-13.706-58.522-13.706c-0.434,0-0.545,0.002-0.808,0.002
		c-13.219,0-74.075-10.155-75.002-10.155c-1.187,0-4.277,1.424-10.366,1.424c-14.366,0-28.668-7.919-28.668-14.939
		c0-2.394,2.899-2.475,4.349-2.475c5.905,0,29.704,11.31,34.071,11.31c2.475,0,9.932-4.412,10.726-13.547
		c-2.468-0.14-4.836-0.43-7.184-0.43c-0.901,0-1.399,0.048-3.199,0.048c-15.692,0-42.178-6.516-47.271-6.516
		c-0.702,0-1.415,0.086-2.094,0.211c-1.999,0.37-2.451,1.048-2.451,3.129c0,1.613,0.214,3.23,0.214,4.842
		c0,0.504-0.02,0.652-0.02,1.325c0,44.19,101.062,44.449,101.062,61.842c0,2.112-2.865,2.242-3.468,2.242
		c-0.932,0-10.835-2.389-15.618-4.098c-87.355-31.21-82.407-33.245-87.135-63.532c-5.007,4.569-9.868,9.124-9.868,13.649
		c0,2.196,1.045,9.049,1.266,13.669c0.447,9.376,50.201,41.994,82.503,46.013c55.542,6.911,61.056,19.762,61.056,20.587
		c0,1.381-1.838,1.757-2.166,1.757c-0.803,0-1.641-0.419-2.453-0.672c-71.274-22.18-64.137-14.464-87.451-26.392
		c-61.377-31.406-55.862-32.486-58.071-49.913c-0.237-0.023-0.475-0.046-0.712-0.069c-1.153,2.126-4.522,8.467-4.522,14.918
		c0,2.279,0.853,4.167,2.764,5.592c13.728,10.234,51.93,37.199,71.641,45.875c8.424,3.708,59.121,6.469,64.117,10.428
		c0.852,0.675,1.277,1.582,1.277,2.19c0,1.825-2.765,1.866-3.377,1.866C320.794,578.523,292.659,553.208,290.745,551.865z
		 M687.924,612.785c-90.921,13.118-121.561,8.251-121.561,92.406c0,7.824,40.107,350.651,50.542,384.674
		c13.523,44.089,55.582,90.678,55.655,90.744c-12.565-39.397-31.308-156.073-31.308-267.755
		C641.252,765.21,677.143,657.451,687.924,612.785z M590.875,628.958c7.908-5.504,12.455-5.975,97.148-19.086
		c7.169-1.11-0.77-31.733,23.008-79.079c2.641-5.258,7.297-9.235,16.065-9.235c5.894,0,12.213,2.166,26.921,2.166
		c9.921,0,14.396-0.843,47.573-4.859c44.807-5.425,55.643-27.475,58.777-27.475c0.691,0,1.614,0.596,1.614,1.494
		c0,0.488-0.237,1.006-0.514,1.495c-129.333,228.236-70.484,170.298-158.94,333.811c0.206,0.157,0.412,0.313,0.618,0.47
		c1.245-2.175,16.111-19.959,31.083-35.703c124.768-131.196,150.368-366.006,150.368-366.079c0-19.739-9.834-32.681-12.768-35.276
		c0.311,4.925,0.761,8.881,0.761,13.679c0,91.558-99.808,110.138-116.188,110.138c-46.893,0-46.227-34.643-46.983-40.721
		c-25.48-4.29-50.927-8.574-76.395-12.861c-4.549,6.654-8.36,13.749-15.578,17.86c0.792,1.777,1.075,3.524,1.075,5.245
		c0,2.176-0.452,4.312-0.9,6.418c1.61,1.299,6.142,4.152,6.142,10.042c0,5.246-3.119,7.456-9.592,12.682
		c4.666,4.231,8.108,9.915,8.108,27.53c0,55.65-5.104,53.457-9.265,53.457c-1.71,0-3.574-0.671-5.376-2.087
		c-9.761-7.668-11.165-19.865-11.165-43.347c0-21.338,2.243-26.324,11.341-35.755c-2.102-5.153-2.742-6.292-2.742-8.47
		c0-4.677,3.292-6.321,7.453-11.697c-5.189-3.697-7.501-4.507-7.501-7.592c0-1.256,0.418-2.589,0.82-3.878
		c-3.679-0.705-6.669-2.137-9.046-5.182c-1.706,3.949-3.438,7.573-4.858,11.315c-9.61,25.306-26.586,30.129-28.233,34.545
		c-13.58,36.401-12.695,33.8-12.695,34.293c0,0.049,0,0.1,0,0.154c0,0.092-0.001,0.194-0.007,0.306
		c0.905-0.2,4.118-1.003,5.963-1.003c8.805,0,7.399,27.096,19.954,65.391c0.959,2.925,3.076,4.683,6.271,4.936
		C584.491,627.102,585.198,627.361,590.875,628.958z M705.732,815.535c7.108-10.93,42.253-86.418,46.413-100.824
		c0.344-1.19,2.595-5.151,3.663-7.937c68.182-177.807,75.262-158.079,96.715-203.811c-3.161,1.188-17.546,14.186-41.632,17.569
		c-50.22,7.054-56.51,6.319-57.167,6.319c-11.74,0-21.572-2.282-26.994-2.282c-6.013,0-10.864,2.838-13.609,8.799
		c-20.261,43.994-18.5,70.88-18.5,83.799c0,37.693,13.133,100.305,13.133,167.776C707.754,802.232,706.297,810.872,705.732,815.535z
		 M712.425,472.907c0.709,5.686-1.515,39.574,44.288,39.574c4.218,0,112.904-11.877,112.904-108.244
		c0-15.712-3.368-17.481-5.547-18.413c-3.428-1.466-8.809-8.265-29.42-8.265C787.326,377.56,713.456,414.435,712.425,472.907z
		 M667.303,1142.902c0.793-3.77,1.159-7.569,1.159-11.391c0-14.214-7.001-73.392-7.001-92.834
		c0-200.925,43.101-183.474,43.101-251.091c0-50.394-13.336-170.794-13.353-170.867c-5.245,11.135-46.857,147.402-46.857,293.716
		C644.352,1052.795,658.03,1091.614,667.303,1142.902z M444.676,460.607c11.291-2.221,12.266-2.51,13.8-2.51
		c2.351,0,4.419,0.916,6.098,2.897c14.679,17.316,32.056,24.441,32.056,26.515c0,3.9-12.667,10.395-32.831,10.395
		c-27.597,0-36.066-8.614-46.98-24.26c-0.114,1.235-0.276,2.005-0.276,2.689c0,0.111,0.598,7.85,1.286,12.04
		c4.591,27.942,51.184,20.937,58.271,44.263c3.527,11.608,3.106,8.873,8.521,20.227c24.64-4.553,56.741-22.968,62.545-22.968
		c1.44,0,2.474,1.164,2.474,2.384c0,0.21-0.498,5.519-8.35,14.182c-30.056,33.161-38.359,30.872-40.666,32.492
		c0.917,2.845,1.827,5.669,2.81,8.722c35.701-26.622,41.047-24.048,42.933-29.668c0.024-0.073,13.256-38.439,17.209-41.002
		c28.099-18.219,27.404-46.636,32.73-46.636c3.211,0,2.099,7.965,10.676,7.965c3.359,0,3.637-6.989,3.637-10.321
		c0-1.051-0.021-2.103-0.021-3.154c0-0.204,0.002-0.764,0.002-2.319c0-1.171-0.001-2.366-0.001-3.623
		c-39.438-7.93-78.681-15.821-117.921-23.711c-3.91,7.092-10.238,8.146-15.108,8.146c-11.531,0-19.806-8.107-24.697-8.795
		c-1.451-0.204-2.91-0.644-4.451-0.644c-0.674,0-1.364,0.084-2.076,0.309c1.36,3.622,1.725,4.104,1.725,5.926
		C448.071,442.972,446.538,446.075,444.676,460.607z M571.844,1046.177c0.234-0.031,0.468-0.062,0.701-0.093
		c0.931-2.969,3.764-8.076,3.764-73.271c0-74.235-17.901-182.502-17.901-262.169c0-56.74,12.08-59.316,26.164-79.255
		c-16.636-4.072-10.159-8.741-27.226-71.055c-6.36,1.63-8.183,1.471-9.818,5.381c-11.988,28.673-12.57,31.513-21.043,31.513
		c-8.481,0-18.524-2.403-21.448-2.961c3.381,65.45,64.14,200.103,64.14,364.99c0,9.182-0.132,17.765-0.132,29.109
		C569.047,1026.875,571.015,1038.459,571.844,1046.177z M541.98,311.794c1.994,0,4.018-0.014,6.073-0.039
		c7.556-0.589,50.451-1.898,50.451-15.462c0-2.373-2.017-5.063-8.248-10.165c-53.009-43.4-43.114-60.356-106.246-60.356
		c-47.26,0-47.799,22.787-47.799,27.124C436.21,277.184,464.534,311.794,541.98,311.794z M402.421,336.123
		c0-3.713-0.128-7.441-0.402-11.188c-0.546-0.34-1.073-0.458-1.584-0.458c-0.074,0-26.746,3.477-44.59,20.149
		c-19.804,18.502-45.075,87.786-45.075,94.887c0,11.606,33.035,13.038,33.109,13.038
		C383.817,452.55,402.421,383.282,402.421,336.123z M433.146,804.548c-0.176,0.031-0.352,0.063-0.528,0.094
		c-9.011,56.516-10.208,75.24-10.208,88.38c0,73.616,44.367,150.301,67.473,150.301c0.195,0,6,0.946,6-11.072
		c0-5.142-1.405-10.076-3.113-14.878C436.333,858.775,448.934,832.425,433.146,804.548z M606.538,210.7
		c-0.677,0-1.362,0.02-2.054,0.061c-11.081,1.529-37.404,3.942-37.404,12.452c0,5.827,63.483,81.747,77.175,81.747
		c10.407,0,11.065-20.013,11.065-21.783c0-10.338-4.987-34.892-25.001-62.547C630.009,220.2,621.172,210.7,606.538,210.7z
		 M622.557,210.99c-21.508-25.11-49.019-29.409-86.897-29.409c-47.138,0-83.118,16.733-95.052,29.45
		c4.231-0.366,9.553-8.042,35.229-8.042c30.262,0,50.891,9.963,65.627,21.832c21.651,17.439,13.914,6.242,52.165,37.549
		c-4.824-8.334-29.619-30.263-29.619-39.276c0-12.252,36.254-15.232,42.834-15.232C616.512,207.86,620.002,210.608,622.557,210.99z
		 M437.948,455.89c0.937,0,1.893,0.219,2.877,0.762c0.826-1.622,3.328-16.266,3.328-16.561c0-0.686-0.069-0.692-2.312-6.086
		c-8.815-1.365-16.222-3.78-19.211-12.268c-0.924,0-1.844,0.02-2.762,0.02c-1.481,0-1.641-0.048-2.594-0.048
		c-5.548,0-10.252,1.937-14.277,6.034c-18.791,19.122-17.905,26.487-17.905,34.312c0,11.792,4.666,43.076,22.123,43.076
		c0.487,0,0.659-0.017,1.409-0.017c5.73,0,15.795,1.417,15.868,1.426c-0.296-1.375-11.906-6.376-11.906-28.884
		c0-5.193,0.732-7.651,0.732-9.054c0-0.545-0.109-0.962-0.109-1.722c0-1.535,0.591-1.993,2.546-2.278
		C426.265,463.069,432.758,455.89,437.948,455.89z M478.847,608.534c0.991-2.814,1.679-6.252,1.679-14.539
		c0-11.828-2.073-23.46-3.879-35.118c-0.202-1.302-1.033-1.595-2.038-1.822c-8.255-1.869-14.452-3.804-24.244-3.804
		c-4.093,0-23.557,1.413-23.557,5.289C426.808,565.205,462.592,598.667,478.847,608.534z M380.912,457.743
		c-11.527,14.855-24.41,28.088-40.295,38.576c7.199,2.131,44.584,7.127,51.905,7.127c0.495,0,0.853-0.023,1.054-0.071
		C383.791,489.744,381.053,474.154,380.912,457.743z M612.497,284.199c-0.079,0.065-0.157,0.13-0.236,0.196
		c26.896,42.845,24.347,43.953,29.243,43.953c0.06,0,0.495-0.001,1.217-0.001c8.851,0,21.673,0.208,24.318,0.208
		c0.784,0,1.569-0.135,2.342-0.204c0.075-0.359,0.192-0.618,0.192-0.835c0-0.034-0.368-1.998-0.804-3.284
		c-7.823-23.068-7.235-35.01-10.234-43.354c-0.345,1.904,0.443,27.104-14.332,27.104
		C633.491,307.983,623.897,295.476,612.497,284.199z M294.708,408.034c-6.184-1.839-34.978-5.187-41.99-5.187
		c-2.413,0-4.87,0.463-7.266,0.869c-2.316,0.392-5.051,1.371-5.051,4.559c0,8.611,35.529,18.57,46.733,18.57
		c0.505,0,1.017-0.015,1.538-0.046C290.662,420.612,292.659,414.403,294.708,408.034z M545.412,534.587
		c-0.179-0.183-0.358-0.367-0.536-0.55c-15.454,5.345-27.929,14.638-58.788,21.942c1.193,1.68,1.998,3.247,3.193,4.418
		c8.297,8.129,8.352,14.681,10.826,14.681C508.716,575.078,538.459,546.934,545.412,534.587z M419.945,471.212
		c10.364,14.67,17.222,22.728,43.284,22.728c14.24,0,19.652-2.626,24.606-4.194c0.859-0.272,1.605-0.896,2.873-1.631
		c-12.705-4.078-29.955-7.206-43.301-9.787C420.611,473.144,424.388,471.583,419.945,471.212z M564.866,244.155
		c-0.098,0.156-0.197,0.312-0.295,0.468c45.719,31.195,56.562,79.629,57.29,83.97c1.286,0,2.6,0.028,3.923,0.028
		c2.301,0,2.286-0.07,3.692-0.07c0.383,0,0.768,0.004,1.154,0.004c1.376,0,2.76-0.054,4.122-0.55
		C634.722,327.934,609.974,272.258,564.866,244.155z M441.517,316.453c3.154,0,6.362-0.369,9.656-1.086
		c-0.341-0.269-26.884-15.993-37.794-15.993c-9.348,0-17.218,11.015-17.855,11.961c2.044-0.279,3.985-2.547,10.409-2.547
		C418.732,308.787,426.987,316.453,441.517,316.453z M506.275,590.629c6.717,1.642,13.164,2.692,19.743,2.692
		c1.302,0,5.13,0.23,7.046-4.171c10.785-24.773,8.223-17.896,9.692-22.384C537.176,569.103,509.449,587.167,506.275,590.629z
		 M454.685,208.388c0.051,0.182,0.103,0.363,0.154,0.545c0.142,0.016,0.29,0.063,0.429,0.063c0.284,0,7.093-1.611,16.451-1.611
		c16.581,0,37.261,4.521,61.433,21.795c3.234,2.311,10.356,4.853,24.177,11.154c0.007-0.062,0.01-0.118,0.01-0.17
		c0-0.395-0.191-0.508-0.382-0.62c-18.813-10.968-34.311-33.423-80.883-33.423C463.215,206.12,461.098,207.272,454.685,208.388z
		 M614.538,556.642c0-14.345-1.724-30.694-4.559-36.018c-0.1,0.256-3.158,5.698-3.158,21.91c0,18.958,3.928,33.293,5.955,34.155
		C613.988,572.213,614.538,564.747,614.538,556.642z M477.994,479.5c-17.443-16.922-17.327-17.279-19.582-17.279
		c-0.141,0-6.517-0.017-13.778,3.122c-0.009,0.372-0.014,0.725-0.014,1.06c0,4.873,1.052,5.885,6.061,6.94
		C457.552,474.79,474.17,478.899,477.994,479.5z M616.801,579.28c-0.437,0.288-0.634,0.353-0.724,0.488
		c-1.045,1.57-2.134,2.358-3.238,2.358c-6.492,0-9.97-25.018-9.97-38.737c0-8.327,0.719-12.824,0.977-17.134
		c-2.481,4.305-3.371,8.045-3.371,24.52c0,7.716,0.397,15.427,1.086,23.138c0.908,10.173,8.754,17.27,11.332,17.27
		C615.857,591.182,615.876,586.654,616.801,579.28z M517.354,326.611c30.31,1.892,29.599,2.203,52.143,2.203
		c0.755,0,1.511-0.15,2.266-0.228c-0.338-0.135-15.555-6.23-31.851-6.23C527.301,322.356,520.577,325.227,517.354,326.611z
		 M422.302,467.406c6.454,2.909,12.786,4.66,19.651,5.787c-1.251-3.415-1.534-6.664-1.534-9.957c0-0.122,0-0.203,0-0.215
		c0-1.272-1.396-3.116-2.667-3.116C436.603,459.905,435.723,460.5,422.302,467.406z M627.817,462.493
		c-4.441-0.781-8.384-1.474-12.164-2.138c-1.334,14.461-1.276,13.989-1.276,14.164c0,0.588,0.19,1.217,0.31,2.068
		C620.948,473.406,624.156,468.003,627.817,462.493z M611.259,511.4c5.225-4.433,8.602-6.338,8.602-10.11
		c0-2.143-1.258-4.228-3.611-5.596c-5.703,6.294-7.179,7.352-7.179,9.684C609.071,507.644,611.18,511.249,611.259,511.4z
		 M439.895,424.595c4.105,4.675,3.861,4.999,6.49,5.379c0.074,0.011,11.66,1.557,12.313,1.557c2.001,0,3.987-0.588,5.922-1.968
		C456.444,427.92,448.351,426.294,439.895,424.595z M477.757,432.19c-0.344,4.402-1.491,4.17-8.012,5.325
		c2.17,1.379,4.943,2.02,7.686,2.02c4.722,0,9.355-1.902,10.67-5.218C484.704,433.618,481.344,432.927,477.757,432.19z
		 M315.916,495.652c0.043-0.194,0.085-0.387,0.128-0.581c-0.971-0.441-17.392-7.62-23.919-8.784
		C294.912,490.801,299.732,494.33,315.916,495.652z M359.776,539.851c0.08-0.242,0.16-0.484,0.24-0.727
		c-9.995-4.583-20.28-8.376-30.809-11.509c-0.07,0.187-0.139,0.375-0.209,0.562C339.257,532.069,349.516,535.96,359.776,539.851z
		 M426.323,421.91c1.439,3.983,6.7,7.591,11.068,7.776c-1.613-1.631-4.065-2.666-4.065-5.302c0-0.334,0.039-0.694,0.125-1.085
		C431.031,422.827,428.765,422.386,426.323,421.91z M613.84,489.419c0.468-1.539,0.714-2.945,0.714-4.322
		c0-3.126-0.793-3.581-1.739-3.581c-2.285,0-3.711,2.39-3.711,4.159C609.104,487.545,611.22,488.191,613.84,489.419z
		 M617.994,536.811c0-4.76-0.391-9.324-2.496-13.622c0.82,4.883,1.64,9.765,2.488,14.818
		C617.991,537.606,617.994,537.208,617.994,536.811z M382.917,565.071c0.07-0.237,0.14-0.474,0.21-0.711
		c-3.289-0.944-6.578-1.888-9.867-2.832c-0.053,0.18-0.106,0.359-0.159,0.539C376.373,563.068,379.645,564.069,382.917,565.071z
		 M479.635,550.48c0.146,4.067,0.146,4.067,2.338,4.675C481.232,553.672,480.575,552.359,479.635,550.48z"/>
</g>
</svg>
