<?xml version="1.0" encoding="iso-8859-1"?>
<!-- Generator: Adobe Illustrator 22.1.0, SVG Export Plug-In . SVG Version: 6.00 Build 0)  -->
<svg version="1.1" id="Layer_1" xmlns="http://www.w3.org/2000/svg" xmlns:xlink="http://www.w3.org/1999/xlink" x="0px" y="0px"
	 width="1000px" height="1300px" viewBox="0 0 1000 1300" enable-background="new 0 0 1000 1300" xml:space="preserve">
<g>
	<path fill="#42210B" d="M472.507,796.102c2.092-5.361,2.949-10.657,2.949-15.928c0-20.616-17.904-81.121-17.904-146.588
		c0-25.294,3.276-39.658,5.746-50.151c0.999-4.246,0.571-6.276,2.545-6.276c0.971,0,1.907,0.491,1.907,1.774
		c0,4.38-6.639,18.966-6.639,54.169c0,68.939,17.735,123.678,17.735,145.943c0,6.647-1.107,13.215-3.257,19.728
		c-33.987,102.983-91.07,119.909-91.07,158.268c0,3.129,1.833,5.543,3.84,8.215c7.502-3.863,96.272-81.161,96.331-81.238
		c125.786-163.47,89.366-233.033,107.276-268.091c0.217-0.424,0.916-0.87,1.384-0.87c0.499,0,1.215,0.73,1.269,1.199
		c0.037,0.319,0.053,0.643,0.053,0.969c0,0.764-0.089,1.54-0.207,2.293c-20,127.75-15.876,122.888-56.173,191.048
		c-60.848,102.919-55.943,65.787-57.504,96.822c-1.479,29.414-84.143,95.034-84.143,120.02c0,0.193,0.678,10.67,2.956,18.77
		c18.159-19.607,19.203-21.654,24.315-21.654c1.103,0,1.875,0.351,1.875,1.506c0,2.375-3.256,1.007-6.708,4.375
		c-23.331,22.76-22.468,28.093-22.735,30.381c1.968-0.468,3.206-1.692,4.491-2.757c160.55-133.037,113.422-126.266,165.602-213.4
		c43.823-73.18,33.827-114.445,39.987-114.445c0.285,0,1.588,0.015,1.588,1.742c0,4.705-6.294,37.587-8.199,46.941
		c-5.975,29.338-28.859,64.755-28.859,65.795c0,1.174,17.198,41.699,17.198,57.922c0,24.903-32.902,93.253-32.902,140.019
		c0,21.883,9.143,46.235,17.982,46.235c5.804,0,60.662-153.687,60.662-168.398c0-2.387-25.321-348.082-25.321-351.891
		c0-0.073,11.617-39.018,11.617-65.067c0-13.875-53.999-285.738-53.999-289.413c0-1.168,0.805-1.905,1.309-1.905
		c3.004,0,56.087,279.775,56.087,291.185c0,34.562-11.039,52.591-11.039,71.716c0,4.535,24.569,336.529,24.569,344.815
		c0,7.698-1.214,15.26-3.849,22.598c-52.008,144.839-52.69,149.898-60.004,149.898c-10.727,0-21.31-24.681-21.31-46.298
		c0-51.39,32.824-121.234,32.824-143.369c0-11.078-12.763-46.861-16.474-54.217c-35.798,55.79-31.752,83.255-33.882,101.928
		c-4.065,35.636-89.031,122.082-90.521,122.082c-3.864,0-8.214-5.779-8.214-13.95c0-0.995,0.049-10.134,1.66-26.142
		c-3.448,0.199-36.643,32.652-41.727,32.652c-0.962,0-2.732-0.486-2.732-4.331c0-4.772,4.184-9.73,4.184-11.852
		c0-0.882-3.922-11.278-3.922-22.157c0-5.148,5.696-17.062,13.481-26.4c76.886-92.229,68.591-70.15,71.438-104.321
		c-29.119,17.492-80.493,72.69-89.958,72.69c-3.317,0-7.099-7.652-7.099-12.455c0-16.963,14.792-35.16,31.111-53.533
		c47.222-53.163,59.225-101.941,59.225-102.413c0-0.856-32.697-32.128-33.542-32.905c-0.249,0.416-0.485,0.666-0.56,0.957
		c-21.375,83.048-83.19,157.778-90.997,157.778c-5.363,0-18.697-14.136-18.697-40.631c0-52.351,52.538-97.221,52.538-192.825
		c0-13.791-0.716-43.367-0.716-60.062c0-57.631,5.444-44.797,90.567-133.456c2.442-2.543,3.451-6.836,3.451-7.428
		c0-5.857-99.414-304.215-99.414-304.288c0-0.736,0.769-1.445,1.496-1.445c5.788,0,101.47,305.906,101.47,306.093
		c0,3.904-2.205,7.289-4.98,10.128c-89.91,91.99-89.091,77.65-89.091,130.071c0,34.363,0.814,52.083,0.814,58.089
		c0,97.82-52.8,147.193-52.8,192.26c0,29.703,13.19,40.031,15.345,40.031c7.57,0,88.23-112.597,88.23-157.187
		c0-1.071-0.426-1.949-1.426-2.872c-14.681-13.542-13.421-13.505-13.421-13.821c0-0.768,0.716-1.615,1.569-1.615
		C423.178,747.163,424.052,750.025,472.507,796.102z M532.801,929.516c0-0.613-0.065-1.227-0.095-1.84
		c-0.127-0.023-0.253-0.047-0.379-0.07c-22.278,44.256-89.966,95.917-91.066,102.969c-1.705,10.927-2.135,27.396-2.135,27.689
		c0,7.938,3.895,10.695,4.833,10.695c1.379,0,4.074-2.686,4.971-3.704C538.212,963.957,532.801,960.575,532.801,929.516z"/>
</g>
</svg>
