<?xml version="1.0" encoding="iso-8859-1"?>
<!-- Generator: Adobe Illustrator 22.1.0, SVG Export Plug-In . SVG Version: 6.00 Build 0)  -->
<svg version="1.1" id="Layer_1" xmlns="http://www.w3.org/2000/svg" xmlns:xlink="http://www.w3.org/1999/xlink" x="0px" y="0px"
	 width="1000px" height="1300px" viewBox="0 0 1000 1300" enable-background="new 0 0 1000 1300" xml:space="preserve">
<g>
	<path fill="#42210B" d="M196.267,362.053c-7.358,7.032-8.063,7.899-9.103,7.899c-2.154,0-7.755-14.244-7.755-22.33
		c0-15.316,10.236-22.376,10.236-28.443c0-0.079-1.546-20.091-2.186-20.93c-3.398,1.945-21.647,14.426-21.808,14.537
		c-8.682,5.961-10.534,53.191-21.786,57.281c-2.693,0.979-5.257,2.296-8.23,2.296c-3.837,0-4.507-0.95-4.507-2.562
		c0-1.046,0.135-0.753,0.301-3.679c-4.679,7.666-7.45,11.405-13.461,11.405c-3.475,0-8.352-1.959-8.352-5.376
		c0-0.983,0.598-5.024,0.815-6.695c-12.731,7.958-13.458,7.386-14.169,7.386c-2.429,0-7.263-1.646-7.263-5.709
		c0-1.201,0.447-2.456,1.338-3.661c27.695-37.479,71.305-116.033,80.397-129.836c9.165-13.913,144.578-83.513,147.149-83.513
		c1.239,0,1.921,0.596,2.183,0.596c0.16,0,1.559-0.427,3.818-0.427c0.079,0,334.329,84.345,383.067,107.505
		c14.15,6.724,31.974,212.032,31.974,239.788c0,4.154-0.896,102.618-0.896,115.914c0,10.637,0.246,21.276,0.246,31.914
		c0,18.839-5.443,100.149-21.346,130.653c-67.261,129.021-32.478,92.68-77.969,194.45c2.804,0.848,3.845,1.672,3.845,3.718
		c0,0.184-0.342,7.733-5.565,13.47c-24.329,26.718-32.61,57.919-33.84,70.055c-2.044,20.169-19.624,10.226-19.624,56.148
		c0,9.98,0.656,23.084,0.656,25.473c0,2.337-0.968,4.171-2.724,5.682c-26.155,22.519-22.468,21.646-40.944,21.646
		c-68.96,0-153.311-54.868-235.014-54.868c-45.174,0-60.866,13.794-71.201,22.328c-12.811,10.579-10.624,12.803-13.592,12.803
		c-3.123,0-21.483-167.729-21.483-168.616c0-14.867,6.746-33.646,9.383-33.646c1.529,0,2.007,0.622,7.799,0.622
		c6.55,0,51.904-3.894,58.469-10.992c25.441-27.51,38.527-36.093,38.527-46.837c0-0.995-2.671-47.412-2.671-55.575
		c0-76.252,54.533-77.284,56.054-77.284c28.462,0,33.115,34.475,33.115,40.364c0,47.462-87.631,108.376-100.099,134.879
		C356.931,887.842,409.1,887.396,409.1,796.375c0-4.697,0.107-6.818-2.089-15.07c-9.203-34.589-26.141-35.986-26.141-48.515
		c0-13.448,20.884-36.349,20.884-60.693c0-3.54-0.066,0.598-0.31-22.674c-0.045-4.32,0.157-3.404-19.02-5.197
		c0.092,0.73,0.05,1.06,0.177,1.3c1.262,2.381,1.719,4.807,1.719,7.258c0,49.474-85.74,124.403-85.74,160.383
		c0,11.954,8.235,38.874,8.235,59.835c0,11.703-4.088,22.161-11.962,31.324c-16.828,19.583-60.024,38.899-60.103,38.899
		c-0.27,0-2.509-0.35-2.509-1.767c0-5.909,57.927-53.667,57.927-94.835c0-9.088-1.852-10.78-1.852-19.086
		c0-22.372,8.515-27.237,8.515-34.859c0-0.103-0.002-0.31-0.002-0.738c0-52.041,46.599-114.377,46.599-130.215
		c0-14.25-16.042-17.91-37.253-20.049c-0.022,0.078-19.075,119.902-57.161,119.902c-7.013,0-11.37-5.322-11.37-17.046
		c0-6.008,1.551-51.083,40.996-112.044c-2.804-3.733-3.623-7.777-3.623-11.919c0-3.013,1.898-38.323,20.414-38.323
		c3.895,0,6.053,1.804,8.517,3.54c0.339-0.481,0.622-0.011,0.622-5.214c0-8.928-2.745-19.52-7.52-19.52
		c-22.575,0-81.53,107.376-81.53,166.014c0,61.164,36.489,106.983,36.489,132.242c0,28.617-58.691,79.407-60.268,79.407
		c-0.957,0-1.648-0.759-1.648-2.021c0-1.185,5.191-19.016,5.191-29.637c0-21.612-32.441-49.885-32.441-79.925
		c0-53.174,46.584-96.492,46.584-175.215c0-16.172-3.265-30.279-3.265-31.882c0-10.913,42.559-19.137,57.865-51.798
		c-0.652,0.24-0.985,0.285-1.22,0.461c-52.859,39.514-47.326,34.127-78.392,71.773c-14.876,18.026-16.056,28.553-20.051,28.553
		c-1.18,0-1.756-1.025-1.756-3.039c0-22.693,36.129-55.758,41.883-63.722c1.742-2.412,1.761-5.135,1.761-8.175
		c0-11.337-2.964-20.137-2.964-77.449c0-30.255,0.341-71.964,0.341-79.784C203.631,395.154,197.659,369.384,196.267,362.053z
		 M146.939,282.783c1.732-0.979,3.964-5.528,9.128-7.121c1.451-0.448,5.197-6.003,25.197-19.551
		c24.141-16.353,34.035-34.642,41.174-34.642c2.853,0,1.613,1.825,12.367,5.236c0-1.375-0.059-2.654-0.059-3.889
		c0-16.149,19.003-25.813,51.321-51.821c-0.172-0.036-0.333-0.052-0.485-0.052c-5.003,0-83.984,43.323-107.158,60.226
		c-9.336,6.81-31.286,50.695-31.429,51.664c-8.056,6.692-12.727,24.811-54.443,83.947c1.769,1.674,2.673,2.466,3.755,2.466
		c0.8,0,1.696-0.433,3.111-1.262c14.459-8.473,14.961-11.233,17.95-19.592c14.645-40.951,16.986-51.078,24.129-52.066
		C143.358,291.698,145.148,287.24,146.939,282.783z M255.641,1043.804c47.708,3.75,92.29,43.587,205.83,43.587
		c88.659,0,130.701-20.966,133.109-21.143c3.221-0.237,3.914-2.091,5.226-9.006c8.318-43.859,27.622-61.6,30.435-67.068
		c-64.423-11.6-74.355-81.205-74.355-107.273c0-25.725,6.601-38.36,6.601-42.766c0-0.655-0.063-1.316-0.184-2.001
		c-11.184-63.18-6.534-46.387-8.901-80.992c-14.698,16.63-17.355,36.95-17.355,59.373c0,44.056,12.822,55.621,12.822,58.643
		c0,1.124-1.215,1.728-1.872,1.728c-2.325,0-29.69-36.145-29.69-59.327c0-24.359,19.825-46.494,27.708-59.307
		c-5.443,1.473-10.326,2.795-15.258,4.13c-0.195,5.844-2.08,11.047-4.465,16.036c-85.354,178.553-207.721,210.14-240.2,227.789
		C280.774,1008.554,255.694,1043.725,255.641,1043.804z M455.989,481.167c13.16-37.807,11.629-58.739,15.709-77.342
		c7.951-36.251,5.548-50.223,11.365-64.8c0.317-0.795,1.022-1.404,1.82-1.404c1.013,0,2.058,1.075,2.591,1.939
		c0.405,0.656,0.395,1.653,0.395,2.432c0,1.331-0.05,2.67-0.211,3.989c-6.685,55.059-0.465,59.483-16.395,96.115
		c-2.937,6.754-15.243,56.247-15.243,57.203c0,2.375,1.26,3.133,1.26,6.772c0,2.443-0.559,3.01-0.559,5.136
		c0,6.409,5.578,12.437,11.69,12.437c6.979,0,36.873-97.398,36.873-98.261c0-9.554-2.678-10.738-2.678-20.045
		c0-3.767,9.47-64.615,15.753-64.615c0.1,0,3.289-0.135,3.289,6.664c0,60.396-46.571,175.88-46.571,176.531
		c0,3.62,5.466,8.314,8.34,8.314c3.688,0,4.971-4.881,11.946-12.593c64.905-71.757,40.56-193.834,51.3-193.834
		c1.761,0,2.055,1.557,2.477,2.783c6.399,18.6,15.16,20.03,24.693,42.24c-2.256-16.445-1.11-28-3.537-37.707
		c-18.921-75.688-27.976-85.386-60.319-92.349c-22.599-4.865-23.25-15.064-38.906-15.064c-0.752,0-85.379,6.657-141.832,13.841
		c-7.602,0.967-12.394,16.195-12.394,27.004c0,18.231,11.291,31.441,18.97,31.441c15.136,0-4.035-12.946,61.321-12.946
		c3.27,0,6.542,0.028,9.812,0.028c6.534,0,38.002-0.402,45.693-0.402c2.307,0,4.631,0.347,6.918,0.713
		c2.518,0.403,2.317,2.084,2.317,2.88c0,2.245-1.786,12.263-6.088,21.498c-2.917,6.262-6.499,30.778-6.499,34.246
		c0,7.664,2.263,9.196,2.263,18.549c0,4.182-6.928,64.54-6.928,80.934C444.625,478.939,450.698,479.47,455.989,481.167z
		 M326.7,441.024c-14.372,6.633-18.124,10.77-23.559,10.77c-0.754,0-6.829,2.377-6.829-28.249c0-1.664,0.126-20.256,1.856-33.766
		c7.859-61.37,3.545-61.76,35.256-61.76c10.138,0,19.005,0.89,24.639,1.259c-0.703-3.866-1.458-7.414-1.973-10.996
		c-1.095-7.608-7.917-17.407-14.559-17.407c-23.331,0-63.118,44.045-63.118,158.955c0,0.769-0.599,14.134,5.379,54.97
		c0.908-0.764,1.326-1.602,1.68-2.467c5.43-13.283,11.93-17.681,14.813-17.681c5.583,0,5.295,11.2,5.295,11.331
		c0,37-31.421,48.198-35.72,58.465c-16.582,39.594-59.994,47.141-59.994,55.725c0,1.673,2.983,16.141,2.983,29.823
		c0,78.788-46.408,128.758-46.408,177.082c0,28.606,32.524,56.536,32.524,79.651c0,4.975-2.978,18.44-3.424,24.107
		c2.08-0.564,52.855-47.45,52.855-71.578c0-25.652-36.5-66.911-36.5-130.633c0-58.232,59.146-171.193,85.291-171.193
		c8.812,0,11.026,16.331,11.026,23.638c0,5.284-0.763,7.937-0.763,9.525c0,2.258,2.552,5.649,2.552,15.692
		c0,6.962-1.669,17.494-3.294,31.56c17.935,2.91,40.337,4.432,40.337,23.866c0,18.451-40.823,66.623-46.813,126.95
		c0.852-0.285,80.582-99.824,80.582-137.244c0-3.851-2.929-7.208-6.623-8.306c-10.829-3.221-8.092-2.257-37.969-14.022
		c-10.385-4.089-21.814-21.046-21.814-34.944c0-1.885,0.155-3.772,0.417-5.658c1.649-11.876,1.654-13.243,4.02-13.243
		c2.946,0,3.008,5.353,11.492,20.337c16.557,29.244,48.624,44.685,49.039,44.725c29.156,2.775,25.995-3.274,25.995,31.615
		c0,26.93-21.088,49.187-21.088,61.474c0,2.235,0.414,4.203,2.133,5.616c8.104,6.664,12.169,14.836,15.438,19.319
		c2.732-9.109,7.41-16.766,12.147-24.386c53.035-85.307,61.44-47.834,92.21-91.325c-1.08,0.218-1.878,0.718-2.655,1.247
		c-124.57,84.783-105.679,95.621-111.742,95.621c-0.051,0-1.619,0.054-1.619-1.969c0-0.587,0.109-1.194,0.259-1.756
		c18.976-71.204,58.188-66.71,86.355-100.243c-20.135,5.037-29.89,10.216-43.261,10.216c-25.768,0-81.163-21.447-94.15-55.463
		c-5.739-15.031-28.636-27.065-28.636-37.317c0-2.426,0.854-4.656,4.628-15.411c-4.409-11.793-8.997-22.819-8.997-40.167
		C306.393,487.529,308.043,463.812,326.7,441.024z M702.396,259.071c-49.911-20.117-27.375-6.438-124.665-39.343
		c-66.224-22.397-47.391-7.361-215.738-54.135c-18.083-5.024-35.709-11.932-38.342-11.932c-0.805,0-1.65,0.131-2.562,0.432
		c-0.125,1.497-0.388,2.989-0.388,4.469c0,0.719,1.717,27.229,1.717,68.624c0,1.137-0.01,2.348-0.01,3.761
		c6.799-4.975,7.133-5.64,9.321-5.64c3.329,0,23.78,5.76,34.221,5.76c2.955,0,104.403-8.697,105.176-8.697
		c6.082,0,11.854,1.375,17.219,5.066c20.159,13.867,52.888,10.248,64.664,40.402c4.364,11.173,1.457,1.48,14.918,13.839
		c89.65,82.311,113.521,160.733,122.445,160.733c2.087,0,2.32-5.737,2.32-5.846c0-13.827-16.997-110.237-16.997-127.702
		C675.696,285.493,691.218,271.452,702.396,259.071z M223.524,1139.464c13.307-10.905,26.795-31.244,83.196-31.244
		c80.55,0,164.757,54.947,235.637,54.947c10.516,0,14.194-0.364,16.447-4.424c0.202-0.365,2.644-1.534,4.118-2.743
		c18.07-14.823,17.905-14.384,17.905-16.924c0-0.219-0.654-16.86-0.654-25.258c0-21.936,1.096-29.653,12.352-42.857
		c-0.097-0.004-0.192-0.006-0.286-0.006c-4.182,0-39.64,20.023-132.912,20.023c-4.657,0-9.315-0.009-13.972-0.009
		c-1.08,0-1.643,0-1.82,0c-82.363,0-156.705-43.377-187.596-43.377c-3.329,0-3.017,0.166-3.963,0.166
		c-1.948,0-2.092-1.734-2.092-1.979c0-1.681,20.358-26.754,25.227-34.583c-4.803,1.991-6.473,2.467-14.62,8.379
		c-39.573,28.715-37.341,70.745-37.341,86.618C223.149,1135.568,223.219,1129.365,223.524,1139.464z M680.828,837.263
		c0.198,0.014,0.396,0.028,0.595,0.042c29.469-58.743,53.299-86.554,53.299-195.237c0-7.892-0.339-11.991-0.339-25.734
		c0-14.641,1.032-110.523,1.032-110.605c0-16.337-11.614-203.232-29.635-244.393c-17.097,16.333-16.411,29.434-16.411,29.829
		c0,26.536,22.145,143.697,22.145,220.885c0,63.116-33.804,204.432-35.077,204.432c-0.52,0-2.601-0.676-2.601-4.751
		c0-0.131,0.003-0.365,0.003-0.86c0-39.136-34.659-105.623-51.918-124.038c0,0.768-0.023,1.36-0.023,1.885
		c0,103.51,59.886,111.063,59.886,226.835C681.782,825.251,681.291,827.014,680.828,837.263z M434.669,708.605
		c0.24,0.09,0.353,0.155,0.397,0.155c0.575,0,13.181-13.681,31.903-21.669c37.111-15.834,68.877-51.651,70.904-51.651
		c0.793,0,1.669,0.743,1.669,1.587c0,3.619-27.276,38.186-69.095,61.582c-33.378,18.674-48.456,63.412-50.504,75.505
		c3.458-3.54,21.816-50.828,64.028-71.512c4.089-2.003,8.626-5.451,9.536-5.451c0.581,0,1.921,0.709,1.921,1.985
		c0,1.145,0.529-0.913-21.329,43.723c-17.102,34.923-48.239,48.985-48.239,86.444c0,4.928,0.97,7.119,1.264,8.112
		c7.606-49.643,23.317-29.093,46.978-76.647c7.389-14.851,29.559-45.303,37.12-45.303c8.401,0,12.232,28.902,18.263,43.184
		c56.181-12.795,57.22-53.404,57.22-59.829c0-8.447-1.635-14.92-1.744-15.48c-0.475,3.715-0.394,7.382-0.833,10.985
		c-2.114,17.342-16.804,39.056-31.583,39.056c-12.297,0-25.577-13.076-25.577-39.177c0-22.255,12.42-50.675,27.485-50.675
		c13.427,0,22.946,13.672,23.11,13.878c0.127-0.454,0.177-0.866,0.177-1.251c0-11.381-19.905-41.098-19.905-63.996
		c0-9.351,1.504-8.793,2.367-8.793c1.101,0,1.57,0.897,1.861,1.938c7.63,27.318,28.506,18.967,43.955,74.108
		c2.898-2.872,13.628-42.708,13.628-53.624c0-1.661-2.257-34.55-2.257-36.621c0-11.407,0.452-32.196,0.452-46.68
		c0-2.417-0.005-4.835-0.005-7.252c0-24.44,0.757-20.797,0.757-23.806c0-0.606-0.213-1.228-0.346-1.835
		c-12.116-55.521-2.323-129.948-21.471-139.638c-19.783-10.011-17.295-9.469-21.582-10.924c2.206,37.115,2.996,31.166,2.996,41.001
		c0,1.9-0.064,2.28-0.064,3.496c0,3.742,5.762,64.608,5.762,83.8c0,10.645-9.763,66.091-17.355,71.652
		c-5.877,67.616-43.638,83.121-51.79,98.61C495.14,674.84,452.795,674.161,434.669,708.605z M677.076,698.284
		c3.797-14.202,30.834-118.487,30.834-186.665c0-32.227-11.087-110.273-11.777-133.133c-1.61-53.285-10.503-57.832-10.503-82.351
		c0-3.938,0.314-7.918,1.039-11.96c-2.368,2.589-7.344,13.458-7.344,24.016c0,18.752,17.165,120.793,17.165,125.938
		c0,3.726-0.526,12-6.119,12c-5.742,0-10.458-9.213-14.408-17.686c-22.66-48.616-94.444-136.803-118.908-150.384
		c0.357,1.085,0.503,1.642,0.72,2.171c15,36.571,13.23,52.834,18.932,55.631c52.755,25.884,25.891,16.295,41.415,136.564
		c6.933,53.712,58.77,59.708,58.77,138.78c0,31.609-0.653,33.023-2.985,33.023c-3.239,0-32.113-30.738-51.989-93.452
		c-0.142,0.438-0.806-1.031-0.806,23.783C621.113,587.159,663.329,625.906,677.076,698.284z M198.81,359.567
		c9.219,23.32,8.325,87.042,8.325,96.952c0,1.069,0,2.138,0,3.207c0,0.167,0,0.334,0,0.5c0,0.04,0,0.08,0,0.121
		c0,21.586-0.195,43.172-0.195,64.758c0,45.474,2.915,58.325,2.915,68.927c0,18.914-24.789,25.164-39.538,59.182
		c2.443-2.847,4.329-5.98,6.57-8.834c67.608-86.079,86.7-50.967,86.7-129.932c0-26.151-4.406-44.416-4.406-64.787
		c0-72.802,16.392-120.538,70.438-149.618c-15.748-10.506-16.393-28.747-16.393-34.345c0-8.787,2.432-17.144,7.892-25.149
		c-27.153,5.648-36.405,51.675-73.716,70.125C234.528,317.04,237.784,316.675,198.81,359.567z M360.203,898.469
		c-0.316-0.042-0.51-0.109-0.642-0.109c-0.12,0-19.823,9.119-28.221,13.138c-31.528,15.09-35.991,35.383-39.701,35.383
		c-0.251,0-0.494-0.036-0.698-0.11c-0.478-0.174-0.88-1.233-0.88-1.733c0-32.562,106.479-97.588,106.479-150.017
		c0-7.737-1.888-20.36-15.17-32.558c-2.466-2.265-5.417-4.215-14.259-4.215c-7.429,0-52.436,5.539-52.436,71.35
		c0,17.685,2.607,58.358,2.607,58.874c0,4.196-1.178,8.032-4.3,11.141c-13.82,13.757-32.884,40.379-45.977,42.743
		c-37.375,6.746-47.035,6.276-47.517,6.276c-3.104,0-6.229-0.134-9.366-0.134c-1.503,2.544-7.043,15.804-7.043,29.893
		c0,12.679,6.634,43.817,15.731,134.963c0.381-2.879,0.496-5.742,0.496-8.601c0-1.967-0.046-2.676-0.046-4.942
		c0-38.462,14.685-74.178,58.809-94.248C282.188,1003.687,360.148,898.548,360.203,898.469z M423.034,543.499
		c0.33,0,0.711-0.007,1.23-0.007c-7.355-17.98-7.282-18.665-8.69-18.665c-2.595,0-5.789,11.403-14.719,11.403
		c-7.463,0-15.984-9.532-15.984-20.933c0-14.56,9.441-13.621,10.872-14.477c-0.916-4.685-1.997-7.649-5.304-35.292
		c-0.957-7.997-7.192-16.759-10.284-16.759c-0.283,0-0.586,0.031-0.915,0.093c-25.576,4.805-38.224,4.435-47.231,17.806
		c2.642-0.731,11.514-8.174,25.2-8.174c18.516,0,22.503,11.745,22.503,13.09c0,1.019-0.758,1.669-2.399,2.436
		c-34.096,15.92-33.224,16.152-37.068,16.152c-1.575,0-3.172-0.364-4.849-1.205c-2.47-1.238-6.231-0.89-6.231-4.335
		c0-3.144,12.594-3.343,46.238-14.1c-1.923-3.903-7.423-8.375-17.21-8.375c-21.801,0-28.871,14.635-32.46,14.635
		c-0.287,0-0.557-0.043-0.784-0.144c-0.473-0.21-0.805-1.238-0.805-1.921c0-0.839,0.393-1.738,0.747-2.584
		c8.977-21.437,25.483-21.934,51.506-26.549c-1.654-4.183-2.559-8.265-7.347-8.265c-0.079,0-16.636,0.451-26.539,1.215
		c-20.205,1.558-32.572,35.113-32.572,59.338c0,32.409,16.46,46.243,33.097,92.071c11.822,32.564,70.482,52.329,91.239,52.329
		c9.718,0,9.793-1.684,44.152-11.065c19.061-5.204,50.18-43.551,53.508-70.182c-20.166,4.018-57.444,56.005-112.108,56.005
		c-2.207,0-2.335-1.59-2.335-1.961c0-0.87,0.769-1.469,2.25-1.811c13.668-3.161,37.024-13.271,38.546-14.586
		c-2.041,0-4.05,0.049-6.043,0.049c-37.514,0-45.022-10.571-89.648-49.228c-12.275-10.633-18.645-10.531-18.645-13.174
		c0-0.279,0.254-1.7,1.811-1.7c5.606,0,26.302,17.668,50.424,37.774c9.625-11.127,9.704-28.933,25.446-28.933
		C422.343,543.469,422.438,543.499,423.034,543.499z M599.126,789.62c-0.141-0.099-0.282-0.198-0.423-0.298
		c-11.834,12.468-27.795,35.35-27.795,63.009c0,0.479-0.579,11.316,5.384,44.355c6.13,33.965,39.795,75.167,56.662,75.167
		c3.912,0,45.279-100.604,45.279-157.229c0-103.002-41.14-100.723-57.202-192.033c-0.509,0.75-0.741,1.496-0.888,2.258
		c-7.446,38.805-16.699,37.306-16.699,79.239c0,15.375,2.679,20.232,2.679,45.319c0,13.036-0.899,22.196-1.461,29.01
		c3.857-2.69,12.806-9.624,22.814-9.624c28.184,0,26.603,32.989,26.603,37.004c0,42.202-15.599,93.945-36.702,93.945
		c-8.506,0-23.474-19.555-23.474-55.694C593.904,819.501,598.596,793.18,599.126,789.62z M288.716,999.576
		c0.099,0.157,0.198,0.313,0.297,0.47c0.079-0.036,180.724-66.435,236.468-232.924c0.411-1.229,0.327-2.624,0.475-4
		c-3.79,0.422-7.195,0.8-10.708,1.191c-59.172,90.318-109.724,118.792-129.23,118.792c-2.91,0-4.483-0.472-4.919-0.472
		C375.16,882.632,347.635,921.125,288.716,999.576z M440.898,441.282c0.012-0.131,6.978-78.612,6.978-78.706
		c0-10.018-2.314-11.135-2.314-18.197c0-6.493,3.91-22.666,4.515-29.689c-27.506-12.016-52.717-24.722-78.526-24.722
		c-18.546,0-24.688,6.581-25.822,7.581c13.805,9.385,13.392,17.365,16.212,32.604c17.335,4.954,14.668,13.931,25.279,23.363
		c1.191-8.634,0.43-11.124,2.923-11.124c3.459,0,6.62,55.254,6.62,62.949c0,12.435-1.538,20.654-1.538,22.81
		c0,2.045,0.544,3.809,1.692,5.553c4.908,7.457,6.446,7.13,9.237,7.13c2.62,0,6.995-0.221,9.087-0.305
		c0.056-1.126,0.143-1.943,0.143-2.723c0-37.268-10.477-72.745-10.477-85.035c0-0.97,0.324-5.648,3.194-5.648
		c2.207,0,3.262,2.899,3.56,4.314c12.085,57.545-1.997,46.915,16.251,84.901C428.951,438.501,430.678,438.556,440.898,441.282z
		 M383.847,879.311c0.909,0.061,1.537,0.149,2.132,0.149c50.538,0,127.684-118.94,129.852-118.94c0.972,0,1.323,0.198,2.711,0.198
		c2.344,0,4.682-0.665,6.964-1.388c-0.016-0.082-9.974-38.633-13.921-40.274c-8.977,2.763-28.626,31.991-36.331,47.028
		c-19.871,38.776-44.509,32.308-44.509,76.357c0,6.895,0.904,10.043,0.904,11.575c0,1.786-0.909,2.308-1.783,2.308
		c-0.928,0-1.683-0.805-2.208-2.655c-5.157-18.174-5.363-19.767-5.363-23.634c0-46.467,35.611-47.565,66.226-125.43
		c-49.192,18.775-71.843,91.344-75.828,92.75c0,0.701,0.015,1.354,0.015,1.987C412.707,846.641,398.333,859.408,383.847,879.311z
		 M350.831,433.252c-6.85-12.77-8.829-16.969-8.829-24.398c0-20.12,20.002-42.33,20.002-47.083c0-0.517,0.3,2.28-3.467-28.456
		c-9.714-1.691-24.545-1.645-24.749-1.645c-13.059,0-16.429,0.985-18.69,1.434c-9.993,1.987-15.081,64.166-15.081,95.322
		c0,2.849,0.311,15.581,3.206,19.93C324.203,441.529,309.617,438.655,350.831,433.252z M597.37,844.167
		c0.164,3.239,0.385,8.754,0.735,14.26c1.181,18.597,13.414,37.702,19.29,37.702c11.117,0,33.018-30.521,33.018-90.594
		c0-6.352,0.673-33.07-22.715-33.07c-6.856,0-14.554,3.319-22.698,10.601C602.157,785.608,598.099,819.087,597.37,844.167z
		 M281.426,635.017c-37.016,53.206-40.239,104.336-40.239,110.593c0,5.834,1.789,12.364,7.633,12.364
		c29.611,0,53.25-95.18,53.25-115.453c0-0.422-0.037-0.864-0.037-1.338C294.812,640.123,287.667,639.559,281.426,635.017z
		 M515.893,553.795c0,0.035,0,0.072,0,0.111c0,0.156-0.001,0.342-0.015,0.566c10.394-9.247,17.341-24.93,19.505-24.93
		c1.901,0,1.869,1.766,1.869,2.365c0,1.399-1.8,22.933-1.8,25.105c0,1.304,0.138,2.619,0.138,3.918
		c0,37.259-55.713,76.89-55.785,76.968c-23.305,25.41-55.387,35.591-67.499,56.865c-3.17,5.568-13.067,25.15-13.698,28.708
		c42.723-50.455,78.217-60.61,113.722-90.871c8.019-6.835,29.513-67.557,30.617-83.982c1.026-15.251,2.022-12.144,11.991-13.131
		c-5.162-5.982-8.778-6.428-8.778-26.653c0-9.895,1.662-29.339,1.662-31.797c0-1.962-0.33-3.8-1.086-5.815
		c-4.051-10.787-6.211-20.328-8.004-24.002c-1.262,5.75-2.629,10.887-3.473,16.108c-1.949,12.067-6.545,17.232-6.545,21.483
		c0,3.881,3.281,6.337,3.281,12.121c0,3.485,0.017,1.027-10.05,38.721C516.797,554.931,515.893,551.96,515.893,553.795z
		 M317.839,231.462c0.569-1.544,0.811-10.979,0.811-22.745c0-21.501-0.808-50.788-1.907-53.953
		c-4.91,2.713-78.49,50.017-78.49,67.235c0,1.455,0.314,2.935,0.967,4.408c1.05,2.366,2.01,3.062,4.512,3.062
		c21.833,0,48.779-1.833,51.471-1.833C306.367,227.636,309.625,229.697,317.839,231.462z M220.209,290.077
		c-14.5,28.508-37.163,33.288-37.163,57.55c0,5.405,2.9,14.363,4.372,17.709c3.391-2.869,19.589-19.257,28.586-30.227
		c30.298-36.939,27.132-19.62,42.736-42.139c18.218-26.291,23.223-34.851,23.223-39.102c0-0.802-0.19-1.643-0.654-2.514
		c-21.36,2.901-66.884,27.075-73.208,33.088c4.376,0.451,8.172,0.824,11.962,1.252c0.08,0.009,22.97,6.932,25.533,8.169
		c0.75,0.362,1.336,0.911,1.336,1.689c0,0.284-0.232,1.911-1.868,1.911C244.761,297.462,245.792,298.021,220.209,290.077z
		 M581.079,687.865c0-0.934-0.027-1.878-0.082-2.834c-0.158-2.526-0.529-5.064-0.529-7.581c0-1.15,0.068-1.394,0.068-2.44
		c0-12.521-14.065-27.849-25.883-27.849c-10.493,0-24.114,21.908-24.114,46.191c0,33.896,19.435,36.508,22.025,36.508
		C564.721,729.861,581.079,708.506,581.079,687.865z M472.176,526.748c-1.34,0.267-2.597,0.394-3.778,0.394
		c-6.888,0-11.227-4.32-14.615-10.46c-2.67,2.894-5.75,4.464-9.476,4.684c-1.716,0.101-2.462,2.316-10.449,2.316
		c-0.264,0-0.374-0.002-0.467-0.002c-3.755,0-4.745,1.734-7.286,2.606c-1.432,0.492-3.005,0.574-4.834,0.891
		c2.056,5.426,4.141,10.641,6.987,15.819c5.62-4.241,6.68-5.455,9.489-5.455c7.068,0,26.818,13.479,39.424,15.759
		c1.152,0.208,1.636,0.542,1.636,1.341c0,0.47-0.167,1.101-0.465,1.962c1.617,0.8,2.246,1.249,2.246,2.183
		c0,1.062-1.181,6.865-11.627,19.552c7.249-0.611,35.694-8.229,41.514-22.413c2.089-5.091,5.112-9.772,6.448-15.206
		c1.914-7.787,11.509-40.91,11.509-43.865c0-4.207-3.435-7.523-3.83-13.17c-0.79,1.138-1.337,2.279-1.941,3.389
		c-15.134,27.791-24.625,32.997-32.489,44.945c-1.674,2.544-3.971,3.78-6.458,3.78C479.877,535.799,474.999,532.578,472.176,526.748
		z M552.387,449.632c0.112,0.005,0.225,0.011,0.338,0.016c-3.221,62.293-3.077,56.96-3.077,61.273c0,2.609,0.106,5.22,0.39,7.834
		c1.532,14.136,13.515,17.047,14.009,17.047c5.286,0,16.272-56.723,16.272-69.167c0-0.081-0.721-67.14-11.881-67.14
		c-2.485,0-4.821,3.445-13.804,12.605C553.112,413.652,554.056,411.193,552.387,449.632z M622.316,499.43
		c-0.249,0.05-0.498,0.101-0.748,0.151c0,3.02,0.003,6.041,0.003,9.061c0,12.087-0.17,9.89-0.17,14.154
		c0,39.862,34.789,100.082,50.951,115.525c0.609-1.767,0.966-20.504,0.966-27.966C673.319,558.148,668.214,571.143,622.316,499.43z
		 M455.734,484.931c-15.837-4.823-12.124-16.913-14.77-39.707c-18.05-5.324-13.028-0.875-21.738-18.473
		c-0.192,0.051-0.384,0.103-0.577,0.154c0,0.594,0.001,1.187,0.001,1.781c0,1.175-0.002,1.176-0.002,2.76
		c0,1.101,0.001,2.201,0.001,3.302c0,10.808,2.186,9.689-13.963,9.689c-6.643,0-7.181-5.44-11.081-8.504
		c-1.115,5.262-2.876,9.699-7.731,12.095c13.792,18.661,6.163,27.185,14.053,53.666c2.235,0.739,12.2,4.493,18.113,4.493
		c9.545,0,14.121-17.865,24.763-17.865c4.003,0,6.614,2.958,10.401,6.551C454.053,491.535,454.863,488.354,455.734,484.931z
		 M309.194,317.27c-7.615,4.884-46.382,33.261-46.382,133.189c0,16.624,4.421,45.83,4.421,64.537
		c0,31.699-8.256,51.562-8.284,51.642c2.488-1.47,4.597-3.235,6.792-4.885c1.479-1.111,2.41-2.496,3.041-4.226
		c12.144-33.287,12.219-31.522,12.219-36.073c0-5.284-6.171-36.746-6.171-61.099C274.83,369.402,295.774,339.549,309.194,317.27z
		 M222.157,225.21c-5.883,3.901-11.734,10.291-11.818,10.383c-19.27,21.119-29.802,23.251-48.777,40.124
		c-12.89,11.462-16.196,40.982-16.196,46.114c0,1.276,0.515,2.556,0.775,3.75c18.712-0.295,11.322-50.2,110.182-87.698
		C244.444,233.935,232.988,230.724,222.157,225.21z M599.82,699.398c0-0.161-0.141-0.339-0.387-0.912
		c-14.854,19.956-12.147,22.962-19.709,33.442c-16.578,22.976-22.879,16.011-22.879,25.089c0,11.937,28.494,10.512,28.494,23.997
		c0,8.441-5.18,25.706-5.606,27.306c0.998-0.76,1.591-1.653,2.138-2.574c18.274-30.775,20.649-10.282,20.649-55.971
		c0-23.54-2.781-32.752-2.781-46.67C599.738,700.964,599.82,699.437,599.82,699.398z M564.397,849.754
		c-0.191,0.031-0.382,0.061-0.573,0.092c-3.529,13.159-4.384,25.131-4.384,33.633c0,59.339,37.499,102.902,72.28,102.902
		c5.708,0,7.54-11.469,7.572-11.686c-1.99,0.271-3.567,0.676-5.258,0.676c-5.914,0-11.124-2.211-15.837-5.597
		C569.877,935.052,570.706,877.958,564.397,849.754z M182.106,288.734c12.043-2.578,16.686-2.723,24.713-8.144
		c20.8-14.049,61.772-32.783,74.695-32.783c2.405,0,3.883,1.044,3.883,5.655c0,10.486-7.502,15.225-24.639,43.208
		c6.781-0.301,27.713-38.488,55.533-61.665c-8.47-2.216-11.88-3.931-20.391-3.931c-0.079,0-40.795,2.012-40.876,2.02
		c7.277,3.114,12.079,2.241,12.079,4.505c0,2.072-1.894,2.104-3.147,2.358C243.001,244.194,198.208,266.775,182.106,288.734z
		 M362.525,334.328c0,0.476-0.024,0.884-0.024,1.263c0,0.09,11.038,110.071,19.794,110.071c1.724,0,5.181-2.752,5.901-4.514
		c1.548-3.788,2.748-7.66,2.748-11.764c0-4.712-3.12-15.549-3.12-34.133c0-2.968,0.083-3.773,0.083-8.784
		c0-6.839-0.183-13.682-0.183-20.523c0-0.501,0.001-0.753,0.001-0.832c0-2.978-0.756-5.577-2.563-7.937
		C368.162,334.969,370.386,335.55,362.525,334.328z M561.994,595.311c-0.181,0.772-0.277,0.994-0.277,1.166
		c0,18.826,18.521,41.206,21.47,68.855c0.523,4.908,7.081,13.141,7.081,33.732c0,2.483-0.101,4.185-0.101,4.403
		c0,0.46,0.099,0.964,0.19,1.909c9.816-14.752,9.778-14.024,10.123-17.083c2.212-19.581,2.946-18.62,2.946-22.362
		c0-1.308,0.44-1.788-6.771-24.852C590.744,622.171,569.307,608.938,561.994,595.311z M295.059,811.075
		c0-0.396-0.102-0.848-0.21-1.823c-2.881,6.543-3.104,15.482-3.104,17.231c0,7.203,1.992,9.754,1.992,19.722
		c0,32.718-28.622,61.269-50.609,88.023c0.202,0.042,0.39,0.061,0.566,0.061c0.404,0,59.537-22.67,59.537-61.051
		c0-23.529-8.252-46.528-8.252-59.341C294.979,812.226,295.059,811.284,295.059,811.075z M548.319,336.443
		c-0.755,3.67-3.195,49.173-3.195,58.623c0,0.865,0.02,1.428,0.065,1.629c3.625-6.735,3.807-7.664,5.327-7.664
		c2.854,0,2.162,1.957,3.223,18.785c10.781-12.427,13.515-11.919,14.614-11.919c2.94,0,4.753,2.146,6.854,4.324
		C572.86,363.695,565.326,363.756,548.319,336.443z M515.785,660.549c-0.092-0.097-0.184-0.193-0.276-0.29
		c-11.052,7.7-22.678,19.863-39.184,26.533c-52.313,21.139-67.037,68.295-71.261,72.62c-0.551,0.564-1.439,0.799-2.089,1.133
		c6.919,16.559,4.413,9.457,9.622,27.254C439.659,685.904,466.989,709.013,515.785,660.549z M523.972,620.964
		c0.196,0.164,0.392,0.328,0.587,0.491c5.575-6.097,38.356-38.15,38.356-77.697c0-1.255-0.201-2.543-0.25-3.815
		c-3.477-0.305-6.761-0.818-10.065-0.818c-1.618,0-3.241,0.123-4.894,0.453C543.578,568.076,549.271,551.268,523.972,620.964z
		 M363.909,432.82c2.786,0,5.61,0.013,8.517,0.013c-8.123-40.93-6.232-49.271-9.606-64.336
		c-5.857,9.373-17.257,26.931-17.257,40.475c0,4.937,1.524,10.846,8.609,22.615c0.552,0.917,1.208,1.282,2.313,1.282
		C356.803,432.869,358.8,432.82,363.909,432.82z M557.494,769.999c0,24.106,4.897,47.43,9.358,70.799
		c8.151-32.411,14.886-49.039,14.886-60.134c0-4.212-1.204-3.756-24.196-14.755C557.509,767.275,557.494,768.638,557.494,769.999z
		 M435.261,567.464c0,2.287,0,4.053,0,5.819c0,6.193,1.507,15.529,5.237,15.529c0.626,0,1.367-0.172,2.278-0.494
		c12.954-4.59,24.082-7.082,33.16-26.93C448.481,562.649,459.342,561.142,435.261,567.464z M396.948,288.573c-1.12,0-2.24,0-3.361,0
		c0.02,0.211,0.041,0.423,0.061,0.634c26.088,5.99,35.984,13.947,57.367,21.451c4.002-6.868,6.052-14.047,7.196-21.894
		c-2.018-0.197-3.729-0.512-5.431-0.512c-8.881,0-3.969,0.341-30.915,0.341C413.482,288.593,405.598,288.573,396.948,288.573z
		 M446.878,517.044c3.977-1.597,6.752-6.268,6.752-10.753c0-5.405-6.285-14.31-10.915-14.31c-1.063,0-2.135,0.36-3.185,1.1
		c-10.917,7.692-11.127,16.723-21.384,16.723c-3.543,0-12.729-2.487-15.488-3.307c0.286,1.118,0.792,1.921,1.464,2.543
		c13.506,12.48,11.504,10.514,16.081,13.368c0.943,0.588,1.897,0.855,2.853,0.855c1.985,0,3.244-0.949,6.891-3.041
		c0.565-1.619,0.649-3.193,1.479-3.982c7.489-7.115,9.584-7.049,10.3-7.049C445.874,509.191,446.444,515.38,446.878,517.044z
		 M537.367,858.003c-3.314-13.799-4.986-27.566-4.986-41.33c0-13.476,1.603-26.95,4.838-40.449
		c-0.347,0.443-16.111,20.141-16.111,42.029C521.108,837.202,536.967,857.636,537.367,858.003z M281.08,629.165
		c3.82-5.425,22.151-28.219,22.151-36.952c0-2.284-3.444-6.355-7.986-6.355c-12.703,0-16.531,25.665-16.531,34.028
		C278.714,625.167,279.486,627.418,281.08,629.165z M300.453,498.175c-0.678,0.229-8.8-0.767-26.485,56.103
		c13.039-9.481,28.154-25.692,28.154-47.204C302.122,501.408,300.945,499.529,300.453,498.175z M138.678,311.653
		c-0.221-0.07-0.442-0.14-0.662-0.21c-27.144,63.709-24.763,55.701-24.763,59.369c0,2.984,4.302,3.125,4.901,3.125
		C135.218,373.937,138.025,318.32,138.678,311.653z M365.589,636.86c0.07-0.164,0.14-0.329,0.21-0.493
		c-30.824-17.247-43.445-48.504-46.028-53.579c-0.238,0.046-0.476,0.091-0.714,0.137c-0.3,3.472-0.986,9.498-0.986,12.551
		c0,3.492,0.851,6.871,2.289,10.088C329.037,624.972,336.916,625.982,365.589,636.86z M141.984,322.731
		c-0.153-0.006-0.305-0.013-0.458-0.019c-4.175,37.211-6.135,38.598-6.135,45.024c0,0.343,0.017,0.628,0.053,0.849
		c0.347,0.086,0.682,0.123,1.008,0.123c1.749,0,3.245-1.072,4.889-1.526c6.328-1.748,5.996-8.543,14.683-42.603
		c-2.224,2.11-4.601,4.805-8.21,4.805C142.643,329.384,142.109,323.443,141.984,322.731z M306.205,608.867
		c0-3.305-0.216-6.624-0.739-9.969c-5.381,12.268-14.41,22.059-21.903,33.123c5.832,4.313,12.518,4.651,19.379,5.522
		C304.39,627.896,306.205,618.439,306.205,608.867z M216.231,289.31c-6.274-1.49-11.134-1.607-12.419-1.607
		c-1.439,0-1.696,0.379-12.409,7.791c-0.043,0.982-0.064,1.961-0.064,2.939c0,6.395,0.872,12.739,1.959,19.5
		C201.333,309.509,213.337,300.81,216.231,289.31z M425.551,547.552c-1.417-0.299-2.766-0.469-4.046-0.469
		c-11.721,0-13.607,15.707-22.288,27.428c1.235,1.096,1.926,1.547,2.938,1.547c0.277,0,8.884-0.858,15.03-9.136
		c4.083-5.5,7.876-6.344,16.709-9.777C427.501,556.546,425.615,552.722,425.551,547.552z M470.067,555.596
		c-1.512-1.083-28.274-14.419-32.013-14.419c-2.265,0-3.349,1.205-8.925,5.226c0.079,1.142,0.095,2.228,0.24,3.296
		c0.87,6.387,7.629,2.119,15.228,6.307c2.641,1.456,5.381,1.906,8.182,1.906C459.854,557.911,469.826,555.644,470.067,555.596z
		 M406.133,579.24c0.25,0.277,0.401,0.557,0.636,0.689c18.139,10.2,18.796,10.951,22.714,10.951c1.86,0,3.751-0.432,5.679-1.257
		c-2.873-5.347-3.504-11.104-3.504-17.07c0-1.055,0.02-2.116,0.05-3.182C422.634,571.468,414.45,575.244,406.133,579.24z
		 M531.768,557.367c1.129-15.293,1.139-13.2,1.139-15.261c0-0.777-0.04-1.582-0.142-2.426
		c-15.234,22.991-34.28,40.531-59.665,50.557c0.926,0.803,1.362,1.319,1.362,1.851c0,3.771-24.326,14.405-26.819,15.664
		c0.961-0.053,1.268,0,1.519-0.095C501.454,587.96,503.455,565.589,531.768,557.367z M406.557,516.976
		c-3.563-3.836-7.433-7.331-9.872-11.945c-0.487-0.046-0.946-0.07-1.378-0.07c-0.347,0-6.827-1.108-6.827,10.791
		c0,9.554,7.647,16.942,12.552,16.942c2.722,0,5.276-1.71,7.144-5.004c-5.788-1.887-8.046-8.347-8.046-9.391
		c0-1.285,0.926-2.071,2.49-2.071C403.712,516.227,405.232,516.68,406.557,516.976z M549.892,418.444
		c-0.176-0.091-0.352-0.182-0.529-0.274c-6.279,6.919-8.209,8.108-8.209,13.48c0,5.004,2.036,23.305,6.933,31.867
		c0.143-0.036,0.285-0.071,0.428-0.107C548.974,448.422,549.433,433.433,549.892,418.444z M518.213,347.703
		c-0.224-0.022-0.447-0.045-0.671-0.067c-1.745,5.777-11.444,51.915-11.444,57.923c0,3.513,0.668,6.995,2.328,10.39
		C511.689,393.201,514.951,370.452,518.213,347.703z M317.89,543.652c-0.248-0.014-0.496-0.028-0.743-0.042
		c-2.306,6.502-2.694,7.17-2.694,9.004c0,1.859,0.71,3.581,2.244,5.184c16.889,17.64,13.933,15.229,15.695,15.782
		C328.392,562.944,323.193,553.273,317.89,543.652z M444.391,591.804c0.092,0.209,0.185,0.419,0.277,0.628
		c16.995-1.706,33.065-6.113,47.155-16.323c-0.209-0.077-0.406-0.111-0.593-0.111c-0.203,0-0.393,0.04-0.574,0.107
		C468.052,584.525,484.903,575.594,444.391,591.804z M471.814,428.19c0.274,0.032,0.547,0.064,0.821,0.095
		c7.911-17.684,8.799-53.047,8.799-53.126c0-1.606-0.068-3.217-0.068-4.823C481.138,370.6,473.907,411.826,471.814,428.19z
		 M350.156,233.281c-0.007-0.185-0.014-0.37-0.021-0.555c-2.544-0.73-17.457-3.647-17.88-3.647c-0.685,0-1.496,0.329-2.062,0.715
		c-9.433,6.434-8.979,6.65-9.699,7.456C330.717,235.882,340.437,234.581,350.156,233.281z M543.657,418.571
		c0,0.235,0.001,0.471,0.004,0.707c4.93-6.056,6.438-6.616,6.438-10.957c0-1.602-0.182-3.776-0.736-11.329
		C545.109,403.973,543.657,410.985,543.657,418.571z M169.967,304.827c0.17,0.141,0.339,0.282,0.509,0.424
		c6.992-4.754,13.984-9.507,20.976-14.261c-0.432-0.067-0.843-0.096-1.24-0.096c-0.966,0-1.844,0.171-2.715,0.37
		C178.168,293.393,179.247,292.852,169.967,304.827z M440.866,560.499c-8.17,0-17.108,3.507-20.283,8.429
		c8.236-2.743,16.058-5.348,24.363-8.113C443.629,560.601,442.259,560.499,440.866,560.499z M393.166,403.967
		c0-6.1-0.624-12.001-1.371-17.903c-0.224,4.1-0.335,7.866-0.335,11.197c0,6.822,0.465,11.824,1.375,14.141
		C393.066,408.883,393.166,406.409,393.166,403.967z M336.868,484.957c1.28,1.131,2.71,1.818,3.903,1.818
		c0.886,0,0.474,0.083,13.019-5.76c-0.073-0.206-0.147-0.411-0.22-0.617C348.038,481.908,342.506,483.418,336.868,484.957z
		 M436.004,516.982c0.114,0.266,0.228,0.532,0.342,0.798c0.833,0,1.667,0.008,2.5,0.008c2.428,0,4.06,0.042,4.06-1.756
		c0-1.591-0.743-2.293-1.406-3.426C439.538,514.169,437.771,515.576,436.004,516.982z M141.993,311.983
		c0.239,0.037,0.478,0.075,0.717,0.112c1.033-5.043,2.067-10.086,3.1-15.129c-0.238-0.048-0.476-0.095-0.714-0.143
		C144.062,301.876,143.027,306.93,141.993,311.983z M458.173,594.397c4.048,0,7.802-1.154,11.356-3.233
		c-3.893,1.077-7.786,2.154-11.679,3.23C457.957,594.396,458.065,594.397,458.173,594.397z M408.357,523.563
		c0.673,0,1.448-0.431,2.595-1.2c-1.795-0.633-3.59-1.266-5.888-2.077C406.553,522.576,407.338,523.563,408.357,523.563z
		 M409.603,359.398c-0.096,0.004-0.192,0.009-0.287,0.013c0.038,0.559,0.076,1.117,0.113,1.676c0.058-0.004,0.116-0.007,0.174-0.011
		C409.603,360.516,409.603,359.957,409.603,359.398z"/>
</g>
</svg>
