<?xml version="1.0" encoding="iso-8859-1"?>
<!-- Generator: Adobe Illustrator 22.1.0, SVG Export Plug-In . SVG Version: 6.00 Build 0)  -->
<svg version="1.1" id="Layer_1" xmlns="http://www.w3.org/2000/svg" xmlns:xlink="http://www.w3.org/1999/xlink" x="0px" y="0px"
	 width="1000px" height="1300px" viewBox="0 0 1000 1300" enable-background="new 0 0 1000 1300" xml:space="preserve">
<g>
	<path fill="#42210B" d="M75.791,839.379c-0.989-2.417-2.094-4.43-2.094-6.691c0-2.322,1.247-4.074,3.779-5.353
		c2.168-1.095,18.371-7.327,23.587-7.327c1.591,0,1.889,0.372,3.173,0.372c1.269,0,2.401-0.439,3.458-1.203
		c12.062-8.714,14.771-4.817,44.304-23.269c58.282-36.414,79.863-35.262,115.401-65.986c-15.369-32.796-29.249-46.24-29.249-56.081
		c0-3.987,2.503-6.54,6.414-6.54c18.438,0,39.541,35.513,39.985,35.765c0.839-3.143,2.06-12.639,2.06-13.522
		c0-6.999-5.593-51.396-5.593-61.904c0-3.016,0.399-4.894,3.154-4.894c0.61,0,0.904,0.066,1.217,0.066
		c0.16,0,0.35-0.008,0.619-0.008c-3.317-4.372-6.501-8.569-9.843-12.974c-4.395,3.861-12.836,11.866-26.617,11.866
		c-27.764,0-34.286-25.662-34.286-36.194c0-29.243,28.077-39.585,28.15-39.654c-0.902-0.509-1.672-1.073-2.531-1.409
		c-14.656-5.728-17.009-31.305-17.009-36.773c0-0.271,0.002-0.396,0.002-0.469c0-3.638-5.289-13.272-5.289-25.131
		c0-6.729,3.972-15.116,10.966-15.116c2.208,0,3.903,0.726,5.372,1.246c-1.29-6.286-6.141-17.876-6.141-38.216
		c0-4.224,0.181-6.232,0.181-7.351c0-2.712-0.612-5.179-1.809-7.473c-7.131-13.666-13.632-30.96-16.557-36.273
		c-13.215,40.158-24.492,41.297-31.509,41.297c-6.859,0-7.013-1.988-7.013-3.255c0-6.298,18.538-54.098,18.538-67.659
		c0-0.45-0.014-0.903-0.045-1.361c-3.074-1.998-8.025-4.756-8.025-12.518c0-2.143,0.491-4.177,2.311-5.92
		c-1.874-2.449-3.629-4.373-3.629-7.779c0-7.133,7.524-7.214,8.022-7.267c0.633-4.554,4.548-6.957,7.632-6.957
		c1.428,0,2.884,0.375,4.389,0.787c-0.055-0.89-0.093-1.771-0.093-2.639c0-11.209,8.208-13.005,10.491-13.005
		c1.079,0,2.229,0.183,3.457,0.571c3.755-24.224,1.611-31.349,13.766-38.969c7.635-4.787,118.494-97.976,145.211-97.976
		c3.062,0,46.575,5.933,49.635,5.933c4.508,0,0.964-4.226,4.614-4.226c0.559,0,62.329,1.528,91.742,1.528
		c27.397,0,42.254-1.734,53.655-1.734c5.994,0,15.014,0.335,23.006,5.343c91.594,57.392,310.292,22.809,330.777,68.054
		c12.541,27.699,23.039,36.439,23.039,90.249c0,331.641-255.603,422.487-255.603,650.978c0,2.398,0.89,8.781,0.89,26.494
		c0,29.333-2.553,122.26-2.553,126.616c0,3.13,0.059,5.992,0.059,6.617c0,1.857-0.211,2.378-1.529,2.378
		c-0.942,0-1.377-0.178-2.836-0.178c-0.073,0-442.906,2.445-496.127,2.445c-0.308,0-0.667-0.057-0.984-0.057
		c-0.982,0-1.019,1.002-3.382,1.002c-0.93,0-1.875-0.163-2.811-0.163c-5.243,0-20.911,0.864-31.046,0.864
		c-21.245,0-28.846-1.465-92.939-3.216c-10.76-0.294-15.041-117.628-15.041-124.655c0-54.5,13.941-175.426,23.374-175.426
		C71.505,835.081,73.623,838.45,75.791,839.379z M386.914,732.777c0.768,2.701,3.871,10.115,6.108,21.482
		c10.862,55.208,9.244,29.502,22.633,58.693c2.214,4.828,30.932,26.652,30.932,67.626c0,3.744-0.503,5.614-0.503,6.102
		c0,3.067,7.612,11.57,7.727,19.243c0.138,9.228,3.622,6.587,3.622,23.52c0,10.855-10.078,86.786-10.078,93.181
		c0,0.75,0.043,1.516,0.043,2.309c20.476,6.654,38.272,50.738,38.272,83.694c0,16.698-3.858,20.164-4.698,23.356
		c0.6,0.099,6.927,0.143,17.002,0.143c48.438,0,183.513-0.997,185.298-1.535c-10.921-7.818-29.002-10.753-34.473-11.745
		c-103.457-18.76-116.507-304.602-116.507-310.056c0-5.611-0.435-31.889,23.841-31.889c6.988,0,18.814,3.685,29.25,10.026
		c94.605,57.485,99.312,150.444,107.482,168.366c2.41-16.806,4.806-33.511,7.223-50.367c-12.6-1.996-62.897-74.981-62.897-210.367
		c0-34.937-0.006-39.125,3.817-39.125c2.138,0,5.051,2.151,5.109,2.193c63.261,46.641,93.144,51.87,101.51,134.443
		c208.682-257.157,196.088-409.427,196.779-417.962c-46.413,32.109-106.778,90.761-165.099,90.761
		c-46.665,0-43.404-40.801-43.404-42.176c0-65.354,100.38-185.433,173.968-185.433c12.225,0,15.922,4.122,18.719,4.329
		c-11.799-26.727-2.826-26.53-211.633-43.231c-138.958-11.114-100.597-37.396-143.33-37.396c-13.284,0-18.469,1.675-56.578,1.675
		c-56.816,0-76.208-1.439-85.095-1.439c-0.87,0-1.77,0.013-2.755,0.013c-0.508,4.728-1.112,8.544-1.112,17.093
		c0,124.398,101.689,272.706,103.898,272.706c0.12,0,0.297-0.03,0.49-0.03c0-0.401,0.004-0.798,0.004-1.193
		c0-2.868-0.904-42.816-0.904-56.093c0-48.073,21.298-135.998,59.648-135.998c76.541,0,14.907,258.601,161.158,258.601
		c53.41,0,94.138-39.254,124.01-39.254c21.087,0,27.983,20.731,27.983,29.421c0,60.858-160.01,160.646-180.135,160.646
		c-64.275,0-102.741-32.881-103.116-32.953c-5.93,6.161-11.975,12.443-18.062,18.767c3.811,3.76,5.533,8.267,6.36,13.101
		c4.843,28.291,9.646,36.246,9.646,49.37c0,4.402-1.463,5.869-6.394,7.6c-43.91,15.41-38.791,23.272-46.27,23.272
		c-6.95,0-9.091-18.719-9.091-25.966c0-28.356,13.91-41.421,13.91-48.52c0-1.367-1.007-1.995-3.275-2.459
		c-1.787-0.366-3.578-0.567-5.373-0.567c-16.782,0-32.043,13.782-42.743,13.782c-6.127,0-9.653-3.378-12.078-3.378
		c-1.481,0-5.175,2.139-5.175,8.115c0,26.462,5.562,33.23,5.562,60.008c0,2.12-0.035,2.652-0.035,3.926
		c0,20.913,8.127,41.259,8.127,70.634c0,2.318-0.043,3.107-0.043,5.529c0,10.319,1.182,15.907,1.182,35.212
		c0,56.335-28.848,124.767-34.454,124.767c-7.454,0-9.628-31.927-9.628-39.662c0-41.475,31.668-168.918,31.668-198.756
		c0-6.247-0.461-12.477-1.035-18.708c-2.385-25.917-5.007-22.901-8.046-23.024c-5.134-0.208-9.259-2.232-11.82-6.724
		c-14.775-25.92-9.156-37.807-17.841-37.807c-2.602,0-1.853-0.07-2.685,0.335c-0.511,3.847-1.12,7.808-1.548,11.789
		C457.988,711.849,390.702,730.886,386.914,732.777z M534.483,414.3c0.1,0.002,0.2,0.004,0.299,0.006
		c0.257,12.331,0.565,24.662,0.735,36.995c0.141,10.188,185.292,209.884,198.245,209.884c7.69,0,167.413-94.22,167.413-153.549
		c0-12.649-8.835-27.333-24.218-27.333c-29.501,0-71.062,39.194-123.803,39.194c-150.711,0-88.811-258.57-162.157-258.57
		C582.539,260.928,537.809,271.33,534.483,414.3z M191.148,1010.22c4.628-19.765,7.536-25.276,7.582-25.377
		c0.626-1.356,0.771-3.023,0.771-4.6c0-24.62-55.958-93.992-55.958-120.618c0-3.268,1.845-5.145,4.589-5.145
		c42.943,0,51.116,131.942,62.384,131.942c1.078,0,15.374-0.579,24.385-1.338c-1.627-16.594-23.129-83.452-23.129-132.915
		c0-0.723-0.5-35.275,13.255-35.275c3.737,0,9.247,2.706,14.199,12.767c24.61,49.996,32.997,42.985,32.997,106.878
		c0,14.85-0.674,37.973-0.674,42.579c0,1.621,0.117,3.256,0.177,5.03c1.277,0,2.414-0.093,3.477-0.093
		c1.89,0,1.987,0.293,3.518,0.293c10.583,0,19.322-25.651,19.322-42.16c0-17.648-9.006-42.963-9.006-64.275
		c0-28.875,11.222-31.385,16.901-31.385c18.94,0,34.428,40.57,34.428,66.704c0,29.953-23.793,63.497-24.467,74.013
		c14.98,2.34,29.61,5.323,44.128,10.016c6.892-16.994,10.685-34.733,10.685-43.878c0-34.072-39.097-112.37-51.28-117.939
		c-38.941-17.8-65.456-54.718-65.456-80.834c0-6.895,1.978-11.371,1.978-11.658c0-0.176-0.078-0.389-0.108-0.622
		c-11.682,4.529,1.665,35.776-19.044,37.112c-16.599,1.071-16.012-1.242-30.146,12.143c-15.382,14.567-19.046,13.027-19.046,16.606
		c0,17.675,19.483,98.502,19.483,102.863c0,0.14-0.018,0.272-0.064,0.392c-0.62,1.604-1.029,1.73-1.531,1.73
		c-3.889,0-30.115-59.526-60.667-70.062c-11.043-3.809-11.886-19.6-31.27-19.6c-1.668,0-3.374,0.154-5.129,0.472
		c8.894,14.178,8.72,13.863,10.735,14.958c4.061,2.206,74.385,121.167,74.385,149.293c0,3.445-2.823,4.209-3.975,4.209
		c-7.091,0-90.228-127.928-118.437-152.778c-15.733,40.047-21.261,128.465-21.261,170.882c0,5.311,0.958,54.82,10.133,118.471
		c0.417,2.89,0.481,2.874,3.438,2.963c34.617,1.039,33.139,1.019,34.952,1.019c1.045,0,2.111-0.016,3.234-0.016
		c-0.001-0.044-0.001-0.088-0.001-0.132c0-9.067,31.937-24.532,85.684-69.773c0.053-0.28,0.118-0.457,0.118-0.625
		c0-0.127-0.218-4.749-0.218-10.477c0-18.069,2.047-27.898,2.047-29.058c0-0.85-0.444-1.387-1.119-1.872
		c-8.954-6.43-14.167-7.414-20.85-7.414c-5.2,0-16.205,0.896-25.406,0.896c-51.594,0-60.482-47.791-60.482-59.481
		c0-31.204,25.724-53.871,30.244-53.871C113.855,901.18,173.285,989.174,191.148,1010.22z M689.859,1130.505
		c0.052-0.772,0.108-1.202,0.108-1.619c0-4.448-0.649-48.875-0.649-75.777c0-65.538,2.128-71.014,2.128-79.195
		c0-15.868-4.115-23.476-8.017-39.948c-28.981-122.335-115.434-153.883-127.714-153.883c-21.887,0-20.298,26.501-20.298,32.055
		c0,45.646,18.385,286.072,116.467,303.982C677.571,1120.81,681.715,1126.624,689.859,1130.505z M509.129,496.581
		c0.026-0.572,0.083-1.132,0.083-1.688c0-47.489-4.697-68.117-4.697-68.19c0-0.678,0.098-1.392,0.098-2.102
		c-13.605-17.163-13.68-14.161-60.045-129.346c-6.854-17.027-41.834-20.075-43.132-20.075c-2.562,0-4.334,0.557-7.167,1.488
		c-1.091,0.359-1.963,1.12-1.963,2.586c0,0.071,0.002,0.143,0.006,0.217c16.191,4.748,11.757,4.628,25.966,13.428
		c20.515,12.706,40.366,34.728,40.366,38.693c0,0.602-0.509,2.845-2.882,2.845c-6.477,0-11.654-10.242-47.259-12.682
		c-13.081-0.896-16.076-7.499-18.069-8.534c-3.105,3.522-5.212,6.807-11.084,6.807c-0.214,0-0.67-0.009-1.631-0.009
		c-72.116,0-82.034,30.208-103.988,74.647c-1.968,3.984-3.318,1.319-3.796,6.51c-1.315,14.309-5.204,14.902-11.858,23.221
		c-1.642,2.052-8.003,64.138-8.003,64.21c0,1.32,0.531,1.827,2.144,2.457c4.685,1.831,32.906,7.244,34.682,7.244
		c0.829,0,1.725-0.209,2.41-0.579c16.421-8.862,35.683-12.693,43.514-16.182c-0.532-0.357-0.21-0.295-1.123-0.295
		c-0.659,0-1.318,0.004-1.977,0.004c-20.268,0-32.925-10.053-32.925-12.498c0-1.508,1.249-1.967,4.742-4.057
		c-0.471,0.094-0.927,0.136-1.369,0.136c-2.439,0-4.476-1.276-6.578-2.117c-1.77-0.708-2.632-1.471-2.632-2.414
		c0-2.626,11.905-13.375,29.768-13.375c18.113,0,30.591,8.989,37.108,13.573c-5.818-21.651-3.99-15.164-6.323-22.702
		c-3.545-11.459-35.057-11.762-35.49-11.762c-29.775,0-35.494,13.825-37.469,13.825c-0.247,0-1.31-0.094-1.31-1.561
		c0-5.938,16.572-28.951,48.197-28.951c25.631,0,36.473,12.261,40.656,12.261c9.059,0,20.628-2.234,22.602-2.556
		c-31.526-21.672-53.723-30.459-53.723-46.761c0-21.992,42.394-26.416,57.59-26.416c4.104,0,61.267,0.763,61.267,33.804
		c0,34.184-53.888,40.451-55.267,40.752c-0.023,0.19-0.045,0.38-0.068,0.569c6.606,3.789,13.075,7.824,19.993,11.057
		c8.459-6.294,16.496-13.227,37.493-13.227c28.131,0,40.948,27.546,40.948,27.878c0,1.872-0.983,1.745-1.209,1.745
		c-3.869,0-14.856-17.273-36.58-17.273c-25.066,0-40.238,28.478-40.238,28.879c0,0.108,0.104,0.295,0.175,0.541
		c6.356-4.056,15.339-9.998,29.155-9.998c27.105,0,37.789,22.964,37.789,23.863c0,2.394-5.332,2.819-6.527,2.819
		c-9.301,0-20.76-14.167-37.205-14.167c-2.29,0-10.227,0.975-20.372,8.044c2.525,2.95,13.078,9.873,30.305,9.873
		c12.814,0,17.22-3.571,18.862-3.571c0.92,0,1.576,0.935,1.576,1.832c0,3.43-12.134,15.402-28.414,15.402
		c-9.971,0-19.845-4.292-26.617-12.947c-0.822-1.051-2.945-4.969-20.441-4.969c-7.099,0-14.681-1.309-14.681,27.016
		c0,3.845,0.179,7.696,0.43,11.55c0.189,2.903,5.576,3.362,6.724,3.362c6.174,0,14.544-7.312,20.874-7.312
		c6.41,0,10.596,6.983,10.596,16.447c0,12.496-7.011,17.572-8.198,17.572c-1.802,0-2.865-2.893-5.476-3.139
		c-2.488-0.234-5.92-0.543-8.524-0.543c-8.656,0-10.747,0.715-10.747,16.169c0,2.587,0.106,5.169,0.16,7.622
		c2.194,0.866,3.247,1.16,4.557,1.16c2.282,0,8.943-1.248,14.238-1.248c8.535,0,12.986,2.469,22.138,11.275
		c13.833,13.31,14.983,10.847,14.983,13.271c0,1.769-3.759,2.251-4.764,2.487c-6.804,9.228-12.815,21.455-38.33,21.455
		c-3.782,0-5.712-0.25-14.106-1.051c-1.29,20.2-2.562,40.122-3.843,60.166c3.048,0.62,6.021,0.873,8.958,0.873
		c52.398,0,97.907-63.939,101.968-81.782c-5.715,4.677-9.119,8.528-17.523,8.528c-6.612,0-13.186-2.82-16.5-6.745
		c-2.264-2.682-25.495-32.441-25.495-57.869c0-6.394,2.276-41.059,41.071-41.059C475.782,494.994,497.338,495.286,509.129,496.581z
		 M947.555,323.29c-2.184-45.61-2.59-44.485-9.477-62.495c-3.525-9.218-8.862-20.262-28.381-20.262
		c-69.923,0-170.606,116.99-170.606,182.167c0,33.223,23.837,38.918,40.509,38.918c48.795,0,107.979-48.972,111.237-51.453
		C956.07,360.477,943.942,380.928,947.555,323.29z M191.717,1132.688c260.076-111.888,244.7-105.213,245.663-105.835
		c0.064-0.042,0.08-0.211,0.08-0.262c0-0.067-0.032-0.138-0.054-0.231c-74.572-19.463-88.236-39.088-168.491-39.088
		c-6.804,0-30.202,0.138-67.547,3.781c-1.491,0.145-2.22,0.869-2.579,2.329c-0.018,0.073-8.322,26.438-8.322,56.71
		C190.468,1050.165,190.942,1125.011,191.717,1132.688z M379.547,513.729c0-0.483-0.002-0.916-0.002-1.331
		c0-0.955,0.015-1.295,0.015-3.862c0-1.44-0.005-2.881-0.005-4.321c0-21.759,2.266-30.679,17.376-30.679
		c20.853,0,23.613,6.348,24.37,7.634c0.591,1.005,8.974,10.305,22.949,10.305c10.597,0,19.703-5.772,21.292-8.667
		c-2.249,0.366-7.816,1.393-14.464,1.393c-22.58,0-34.069-12.489-34.069-13.372c0-0.544,0.411-1.053,1.268-1.544
		c8.374-4.799,15.32-9.292,24.76-9.292c16.057,0,29.639,14.276,36.327,14.276c0.935,0,1.91-0.144,2.937-0.441
		c-9.942-16.358-24.257-20.083-33.789-20.083c-19.505,0-31.885,13.972-34.021,13.972c-1.102,0-1.772-0.895-1.772-1.687
		c0-2.597,16.307-38.042,46.758-38.042c12.563,0,21.379,5.794,26.053,8.661c-9.909-13.011-21.206-14.56-29.436-14.56
		c-21.055,0-28.71,7.225-37.127,13.423c-7.13-3.101-23.986-13.753-26.798-13.753c-1.406,0-14.862,3.133-26.147,3.133
		c-5.852,0-15.79-12.306-39.894-12.306c-25.527,0-37.582,14.175-39.066,15.683c0.2,0.033,0.387,0.047,0.564,0.047
		c2.526,0,10.522-5.52,28.456-5.52c10.77,0,20.174,1.842,30.137,5.621c4.336,1.645,6.94,4.492,8.265,8.729
		c1.125,3.598,7.638,26.062,7.638,27.243c0,1.393-1.251,2.022-1.904,2.022c-2.079,0-15.377-16.296-39.842-16.296
		c-16.197,0-24.954,9.4-25.345,9.75c1.559,0.973,3.034,1.428,4.497,1.428c4.398,0,7.595-4.873,25.304-4.873
		c8.486,0,16.162,1.381,25.589,9.624c0.792,0.692,2.327,0.985,2.327,2.26c0,3.844-16.877,5.219-21.105,5.219
		c-19.212,0-26.536-5.814-27.834-6.76c-1.064,0.752-1.995,1.411-3.085,2.181c11.615,8.615,23.844,9.105,27.448,9.105
		c11.046,0,18.064-3.923,19.662-3.923c0.549,0,1.521,0.613,1.521,1.199c0,6.437-40.147,16.008-55.167,23.6
		c28.403,6.907,42.596-0.025,42.596,14.343c0,1.426-0.51,5.328-1.248,8.757c-13.538,62.86-13.855,74.947-26.971,74.947
		c-11.78,0-37.464-28.117-37.464-65.254c0-23.149,10.116-26.968,12.228-30.269c-11.601-2.698-23.198-4.572-34.491-7.973
		c-0.839,1.603-2.687,9.693-2.687,18.073c0,21.502,13.644,33.726,13.644,45.941c0,0.816-0.044,1.064-0.044,1.421
		c0,54.596,77.62,115.339,116.192,115.339c5.017,0,4.317,6.866,7.862-61.877c-10.269-2.219-45.761-8.397-46.626-25.254
		c-1.831-0.359-3.218-0.302-3.218-1.937c0-0.928,0.81-1.273,1.59-1.648c11.637-5.593,25.229-20.826,38.635-20.826
		c3.531,0,3.867,0.558,10.872,1.992c0-1.069-0.004-2.001-0.004-2.881c0-11.584-1.825-23.185,11.593-23.185
		c1.552,0,2.786,0.141,4.394,0.141c0.416,0,0.833-0.006,1.25-0.006c-1.787-1.914-7.328-3.599-7.328-7.638
		c0-2.928,3.146-4.882,6.354-4.882c8.248,0,10.316,11.064,10.316,13.136c0,0.263-0.03,0.552-0.03,0.833
		c0,0.629,0.152,1.215,1.136,1.37c5.245-4.327,5.306-12.954,5.306-13.792c0-3.323-1.017-13.124-7.738-13.124
		c-5.423,0-12.288,6.928-20.556,6.928c-1.55,0-3.123-0.231-4.719-0.74c-0.394-0.126-0.844-0.079-1.526-0.132
		c0.535,6.738,0.586,7.139,0.586,8.276c0,4.728-14.967,15.888-18.786,15.888c-4.046,0-12.006-7.174-12.006-16.706
		c0-6.49,4.146-17.784,15.472-17.784C373.135,510.402,375.821,512.182,379.547,513.729z M199.524,1132.899
		c0.053,0.191,0.106,0.382,0.159,0.573c0.575,0,1.149,0.001,1.724,0.001c8.3,0,266.269-1.14,266.345-1.14
		c3.486,0,5.556,0.011,5.748,0.011c2.582,0,4.11-0.912,5.045-3.157c0.348-0.835,3.934-7.11,3.934-21.459
		c0-36.848-22.894-79.925-37.685-79.925C442.998,1027.803,199.599,1132.864,199.524,1132.899z M641.234,658.499
		c-0.223,3.05-0.936,8.102-0.936,30.196c0,29.178,2.196,48.411,8.069,94.309c10.062,78.638,49.432,117.466,50.996,118.211
		c2.288-0.851,2.305-2.812,2.638-4.558c10.491-54.983,37.518-93.309,38.419-94.36c3.723-4.344,3.796-8.297,3.796-11.355
		c0-64.991-39.164-88.575-66.943-106.124C650.873,668.142,652.358,664.974,641.234,658.499z M379.841,221.825
		c3.213-14.703,3.901-20.464,13.722-27.797c0.171-0.127,0.46-0.186,0.769-0.186c1.467,0,1.591,0.758,1.591,2.287
		c0,0.073-5.723,14.117-5.723,30.456c0,1.092,0.035,2.211,0.035,3.396c2.483-0.089,4.958-0.145,7.425-0.145
		c10.645,0,21.137,1.051,31.467,5.09c-2.619-17.719-4.158-35.259-4.158-52.78c0-5.486,0.151-10.969,0.467-16.456
		c-56.02-6.874-48.395-6.239-51.079-6.239c-20.968,0-131.877,86.495-134.602,90.871c-3.982,6.394-16.636,5.949-18.565,21.297
		c-1.492,11.874-3.415,22.442-3.415,23.301c0,1.85,2.139,3.938,2.139,9.024c0,6.538-3.459,8.705-3.459,12.922
		c0,0.093,0.002,0.129,0.002,0.272c0,2.639-0.698,5.286-1.062,7.932c-0.174,1.265-0.132,2.587-0.49,3.793
		c-0.277,0.933-0.387,1.847-0.387,2.759c0,21.212,28.821,66.126,28.865,66.2c0.456,0.771,1.426,1.309,2.259,1.773
		c11.5,6.407,12.022,4.415,13.66,17.991c6.279-4.93,6.809-11.643,6.809-11.762c0-0.073-1.376-8.835-11.236-19.909
		c-6.844,0.878-7.336,0.971-8.002,0.971c-5.927,0,2.115-7.091-11.325-33.739c-4.956-9.827-8.25-40.647-8.25-43.785
		c0-19.349,17.35-61.39,21.014-61.39c1.01,0,1.86,0.86,1.86,2.717c0,5.685-19.04,61.466-19.04,65.57
		c0,0.929,0.137,1.856,0.318,2.805c4.911,25.771,3.77,28.823,11.428,42.081c1.45-0.979,2.474-1.476,3.436-1.476
		c2.483,0,9.779,6.221,9.779,14.882c0,0.896-0.003,0.718-0.512,7.438c4.582-0.523,7.5-3.767,7.5-12.001
		c0-11.085-6.646-24.708-6.646-30.96c0-2.61,0.693-5.669,0.693-11.312c0-7.971-1.485-9.294-1.485-14.887
		c0-13.871,8.889-14.428,8.889-29.669c0-2.007-0.159-2.651-0.159-6.694c0-2.906,0.229-4.286,1.681-4.286
		c1.249,0,1.587,0.852,1.587,2.083c0,2.788-0.065,9.441-0.065,11.807c0,0.778,0.002,1.557,0.002,2.339
		c0.658-0.057,0.431,0.225,1.656-0.987c31.671-31.303-5.372-16.504,61.68-46.271c18.47-8.199,17.773-26.841,22.238-26.841
		C355.639,214.308,361.359,217.701,379.841,221.825z M498,704.016c0.665,0,1.34-0.017,2.022-0.043
		c-0.126-3.005-0.652-14.367-0.652-16.584c0-7.715,4.009-11.198,8.382-11.198c4.318,0,6.159,3.108,11.96,3.108
		c8.68,0,25.9-13.742,43.204-13.742c8.721,0,11.066,2.699,11.801,5.811c0.441-0.247,23.56-15.144,55.333-51.91
		c-72.731-52.999-96.467-163.997-102.497-168.067c-1.549,12.509-3.113,25.144-4.698,37.943c0.529,0,0.899,0.001,1.209,0.001
		c0.379,0,0.497-0.001,0.552-0.001c2.855,0,5.065,1.12,5.065,6.803c0,8.096-12.433,20.997-13.475,29.576
		c-4.598,37.882-5.36,28.59-7.624,35.955c26.959,6.272,31.354,27.477,31.354,37.782c0,11.202-8.063,38.74-36.49,38.74
		c-15.131,0-23.351-9.453-25.757-11.409c-14.5,16.257-11.957,9.67-13.652,32.677c7.555,0.622,7.962-0.374,10.11,6.247
		C483.546,694.677,484.905,704.016,498,704.016z M306.184,796.377c28.865,58.789,67.719,111.55,67.719,154.723
		c0,20.131-9.203,43.618-9.203,43.691c0,0.187,0.074,0.463,0.124,0.979c80.672-58.959,85.971-74.65,85.971-86.109
		c0-3.448-0.585-9.865-5.396-16.305c-0.597,0.89-2.316,50.069-36.27,50.069c-7.291,0-13.816-3.324-18.706-9.77
		c-15.372-20.262-20.754-116.6-20.754-118.667c0-11.131,0.926-17.38,9.612-17.38c0.643,0,1.339,0.026,2.168,0.026
		c-0.044-0.084-0.761-1.959-7.788-12.276c-5.125-7.524-18.448-14.709-24.098-24.48c-14.207-24.565-13.819-24.297-13.819-27.965
		c0-1.074,0.184-3.363,0.184-7.875c0-17.181-4.564-13.223-4.564-17.857c0-5.089,4.445-14.863,4.445-33.051
		c0-4.054-2.25-8.001-4.934-9.784c-3.031,13.477-16.563,19.79-17.802,28.465c-4.445,31.12-6.846,32.655-8.242,43.955
		c1.235-0.272,2.417-0.415,3.55-0.415c6.675,0,18.121,8.256,20.808,22.102c1.224,6.306,4.493,27.731,4.493,32.099
		c0,1.868-0.172,2.794-0.172,3.073c0,1.701,5.229,8.563,7.912,27.588c4.067,28.846,16.679,40.015,16.679,43.838
		c0,1.026-1.103,1.496-1.555,1.496c-4.202,0-13.326-28.824-27.668-49.233c-13.16-18.726-3.508-6.844-16.762-27.076
		C311.416,793.851,310.058,796.174,306.184,796.377z M719.359,663.169c2.838,0,5.73-0.289,8.848-1.02
		c-88.471-76.62-160.363-166.832-190.164-198.663c-0.163,0.094-0.325,0.187-0.488,0.281
		C564.493,571.908,665.186,663.169,719.359,663.169z M268.333,983.906c0-1.296-0.011-2.464-0.011-3.584
		c0-6.044,0.724-26.914,0.724-42.383c0-51.446-8.675-66.764-17.129-76.494c-10.644-12.251-15.845-41.33-26.867-41.33
		c-6.74,0-10.066,15.586-10.066,32.803c0,39.03,23.212,131.896,23.24,131.969C248.227,984.56,258.143,984.238,268.333,983.906z
		 M338.883,730.106c0,1.271-0.118,2.565-0.194,4.222c2.526,0.064,4.935,0.247,7.303,0.247c7.929,0,10.459-2.172,11.863-5.334
		c0.6-1.351,5.26-6.986,12.962-6.986c6.238,0,9.421,3.214,14.832,7.21c12.956-4.307,18.599-5.779,25.818-9.628
		c47.2-25.166,46.63-28.402,50.927-75.713c-1.76,0.168-32.792,32.971-69.898,32.971c-4.9,0-7.869-0.56-8.519-0.56
		c-0.825,0-3.007,1.042-8.012,1.042c-16.448,0-32.217-8.474-38.65-11.57c-0.175,0.236-0.284,0.328-0.284,0.381
		c0,0.73,2.181,3.749,2.181,8.899c0,13-4.496,29.224-4.496,30.834c0,1.053,0.311,2.043,1.167,3.013
		C338.781,712.419,338.883,715.435,338.883,730.106z M189.784,1018.268c0.242-0.877,0.45-1.661,0.45-2.42
		c0-1.567-78.863-111.043-78.918-111.116c-25.966,18.111-26.661,47.432-26.661,50.361c0,19.871,13.721,56.289,59.033,56.289
		c6.957,0,18.225-0.958,25.148-0.958C177.938,1010.424,182.439,1013.865,189.784,1018.268z M410.751,940.126c0.04,0,0.08,0,0.121,0
		c7.366-0.461,31.388-7.693,31.388-51.14c0-2.572-56.35-83.608-56.41-83.69c-3.575-4.935-6.713-4.555-6.823-4.555
		c-5.248,0-5.834,5.801-5.834,7.281C373.193,849.371,376.521,940.126,410.751,940.126z M390.069,349.068
		c-9.097,0.95-51.792,2.506-51.792,23.481c0,3.864,1.512,7.264,4.257,10.208c8.984,9.638,49.11,35.103,51.835,35.103
		c2.43,0,56.351-6.511,56.351-38.546C450.718,349.64,394.369,349.122,390.069,349.068z M487.305,498.558
		c-3.245-0.261-6.259-0.397-9.06-0.397c-26.951,0-40.482,15.499-40.482,38.868c0,7.765,1.839,15.346,5.402,22.632
		c15.397,31.49,21.793,37.768,33.592,37.768c10.014,0,21.023-10.585,24.575-26.413c2.625-11.696,6.53-66.353,6.53-66.962
		C507.861,498.273,510.102,499.531,487.305,498.558z M312.391,986.651c9.586-28.905,24.684-46.529,24.684-73.86
		c0-22.782-14.354-63.166-30.817-63.166c-12.982,0-14.075,20.619-14.075,28.385c0,18.966,9.029,46.725,9.029,63.787
		c0,27.392-14.189,42.079-14.275,42.497C295.443,985.082,303.867,985.862,312.391,986.651z M507.012,772.027
		c-0.198-0.014-0.396-0.029-0.595-0.043c-1.809,10.997-29.972,140.701-29.972,176.781c0,11.791,3.445,32.731,6.645,35.153
		c2.066-2.137,3.026-4.735,3.941-7.28c21.663-60.215,27.1-71.221,27.1-112.433C514.131,808.292,510.692,793.584,507.012,772.027z
		 M365.166,999.012c0.952,0.365,58.698,23.601,78.742,24.992c4.204-40.916,10.348-80.615,10.348-98.102
		c0-3.793-0.044-5.586-0.901-7.868C415.13,967.115,365.239,998.964,365.166,999.012z M274.041,531.968
		c0.527,34.193,24.331,61.811,34.706,61.811c3.128,0,5.865-1.923,7.944-5.68c4.062-7.34,16.881-74.512,16.881-75.719
		c0-3.131-1.279-4.547-4.441-5.304c-0.073-0.017-39.396-5.026-39.469-5.026c-0.652,0-1.303,0.135-1.946,0.578
		C274.121,511.997,275.315,521.276,274.041,531.968z M327.201,279.71c0.072,0.148,0.144,0.296,0.217,0.444
		c5.942-2.139,21.169-7.99,40.072-7.99c14.314,0,19.511,1.989,22.407,3.6c3.135-2.723,6.708-3.88,10.529-3.88
		c0.254,0,19.559,0.459,40.708,12.459c-2.025-6.872-6.885-20.958-10.188-40.106c-0.425-2.465,0.489-11.212-34.072-11.212
		c-26.52,0-33.088,8.789-41.064,24.086C351.022,266.289,344.281,267.259,327.201,279.71z M600.848,655.525
		c-2.833,1.439-11.836,12.404-28.443,24.68c-1.948,1.44-11.726,18.932-11.726,39.801c0,7.908,2.314,22.954,5.705,22.954
		c1.214,0,4.332-2.365,5.435-3.302c20.489-17.411,44.109-17.389,44.109-23.989C615.928,710.969,606.882,660.279,600.848,655.525z
		 M104.738,1132.078c0.501,0.168,2.051,2.912,60.209,2.912c5.657,0,11.307-0.593,16.966-0.593c3.623,0,5.861,0.266,5.921,0.266
		c0.133,0,0.284-0.164,0.472-0.274c0-0.609,0.024-1.232,0.024-1.856c0-1.719-0.992-11.818-0.992-31.94
		c0-10.802,0.322-21.861,0.322-31.046c0-0.672-0.16-1.35-0.289-2.385C150.47,1098.856,114.821,1119.821,104.738,1132.078z
		 M98.88,865.245c-0.11,0.133-0.221,0.266-0.331,0.398c7.805,10.524,88.554,122.716,91.265,123.418
		c0.441-0.655,0.596-1.31,0.596-1.956c0-22.648-69.142-141.265-70.933-143.471c0,1.213,0.002,2.192,0.002,3.085
		c0,5.424-1.705,22.041-12.345,22.041C103.412,868.76,101.023,866.757,98.88,865.245z M201.65,900.755
		c-1.319-9.575-17.319-73.996-17.319-91.135c0-0.027,0-0.048,0-0.048c0-0.219-0.24-0.439-0.382-0.683
		c-32.46,14.028-36.405,4.067-67.208,11.279c0.97,0.52,1.863,0.698,2.761,0.84c16.708,2.631,15.281,15.313,29.456,20.446
		C171.298,849.543,199.063,898.96,201.65,900.755z M304.593,329.975c0.168,0.198,0.336,0.396,0.504,0.594
		c17.81-10.981,39.017-44.317,82.572-51.965c-3.484-2.35-13.811-3.283-19.922-3.283c-64.073,0-106.003,58.203-106.003,71.621
		c0,2.601,4.586,16.407,4.586,23.821c0,4.549-1.266,8.884-4.762,12.657c2.292,2.397,4.583,4.794,7.108,7.435
		c10.494-45.758,26.035-52.247,26.302-55.86c-2.023-0.236-5.742-0.54-5.742-4.585c0-15.543,33.222-41.509,45.755-41.509
		c2.349,0,3.824,1.495,3.824,3.622C338.815,299.879,313.688,320.352,304.593,329.975z M269.039,733.334
		c-1.402,0.727-11.797,5.458-11.797,21.145c0,37.94,52.016,76.418,62.662,77.429C314.716,817.641,280.598,755.82,269.039,733.334z
		 M251.363,552.697c-3.111-3.483-4.07-3.869-4.999-3.869c-3.098,0-27.711,9.693-27.711,36.973c0,12.104,7.375,32.767,31.023,32.767
		c13.131,0,22.09-8.918,24.484-11.821c-2.135-3.513-4.194-6.899-6.304-10.371c-1.906,2.737-4.975,8.623-10.941,8.623
		c-8.907,0-14.97-13.778-14.97-27.443C241.944,576.04,241.833,559.949,251.363,552.697z M507.715,565.009
		c-1.504,0-1.886,0.81-2.393,3.351c1.551,0.802,16.583,7.048,16.583,23.753c0,10.35-8.244,25.801-27.187,25.801
		c-3.227,0-6.414-0.655-9.623-1.718c-3.37,4.821-2.025,2.9-5.37,7.669c2.207,2.367,9.778,11.078,23.804,11.078
		c18.587,0,33.177-16.358,33.177-35.611C536.704,573.779,514.582,565.009,507.715,565.009z M284.887,726.237
		c0,1.013,0.198,2.086,0.288,3.354c5.774,0.709,11.319,1.39,16.945,2.081c0.487-2.115,0.844-2.69,0.844-4.656
		c0-1.118-0.111-2.245-0.111-3.366c0-4.01,0.058-9.447,0.058-14.278c0-11.794-0.501-14.555-0.501-20.866
		c0-7.06,1.377-9.386,4.097-9.386c1.421,0,2.846,0.648,3.005,0.648c0.118,0,0.248-0.049,0.339-0.059
		c4.05-12.957,5.221-15.898,5.221-20.591c0-6.593-3.096-11.931-9.26-15.304c-2.832,5.194-5.694,10.371-8.484,15.587
		C291.48,670.332,284.887,725.645,284.887,726.237z M353.832,217.522c-17.68,40.955-53.895,29.88-66.182,51.376
		c-7.272,12.722-15.221,19.661-19.749,24.721c1.83-0.202,3.64-0.276,5.435-0.276c5.073,0,10.028,0.595,14.969,0.595
		c3.01,0,6.016-0.221,9.04-0.932c0-0.545-0.006-1.063-0.006-1.571c0-41.712,49.809-45.061,79.515-64.095
		c0.777-0.498,1.316-1.366,2.327-2.456C362.879,221.092,369.498,223.018,353.832,217.522z M196.189,958.918
		c0.196-0.037,0.391-0.075,0.587-0.112c-9.022-70.143-42.535-101.084-48.485-101.084c-0.987,0-1.54,0.672-1.54,1.972
		C146.752,871.054,152.58,884.149,196.189,958.918z M202.245,346.635c2.786,8.724,23.546,66.241,30.458,68.634
		c12.424,4.301,11.598,14.713,12.715,16.725c2.575-2.381,5.028-4.649,7.697-7.117c-14.708-37.83-16.275-19.802-41.125-87.154
		C208.683,340.747,205.482,343.674,202.245,346.635z M454.406,330.883c0.12-0.138,0.24-0.275,0.36-0.413
		c-9.276-13.196-41.328-42.713-63.226-47.667c-0.711,3.941-1.11,7.828-1.11,11.679C390.43,329.789,405.866,308.51,454.406,330.883z
		 M367.477,236.651c-0.082-0.101-0.164-0.201-0.246-0.302c-58.492,22.881-66.93,33.205-66.93,54.638c0,0.532,0.188,1.094,0.33,1.941
		c53.205-31.992,51.881-36.193,53.381-39.17C359.302,243.255,365.777,238.492,367.477,236.651z M387.585,282.39
		c-15.528,1.557-54.46,35.317-55.368,39.558c31.713-7.564,48.997-1.811,54.009-8.83c1.432-2.006,2.7-2.513,2.7-4.488
		c0-1.593-2.338-7.421-2.338-14.393C386.588,291.94,386.841,290.129,387.585,282.39z M411.705,813.148
		c0.158-0.163,0.316-0.327,0.474-0.49c-3.49-5.987-3.544-6.739-11.307-17.717c-12.042-17.03-8.037-69.592-29.595-69.592
		c-3.995,0-11.906,2.929-11.906,9.492c0,0.509,0.04,0.668,0.04,1.509c0,2.276-0.228,2.499-0.228,7.293
		c0,10.558,0.059,8.636,0.537,10.546c0.999-1.463,4.045-7.511,10.785-7.511c7.94,0,19.084,11.256,19.084,33.164
		c0,4.368-0.289,8.646-0.289,13.071c0,10.53,0.107,12.84,3.914,13.244C399.395,806.815,404.095,809.379,411.705,813.148z
		 M116.296,847.333c0.037-0.378,0.056-0.761,0.056-1.148c0-2.514-0.792-5.175-2.438-7.657c-8.215-12.388-8.431-15.201-13.351-15.201
		c-4.848,0-15.472,4.763-21.215,6.733c-1.674,0.574-2.427,1.42-2.427,2.679c0,6.13,24.041,32.918,30.076,32.918
		C112.228,865.658,116.176,856.979,116.296,847.333z M286.277,733.066c2.205,6.638,26.975,52.888,27.024,52.961
		c9.982,14.926,12.001,21.338,14.155,24.046c8.564,10.766,8.969,13.819,11.581,16.693c-4.422-28.754-6.794-25.975-16.164-48.681
		c-8.129-19.696-21.515-34.745-21.515-40.973c0-0.609,0.074-1.24,0.24-1.899C299.643,734.599,302.79,735.061,286.277,733.066z
		 M122.118,815.328c20.522-3.438,39.051,2.084,60.568-9.606c4.897-2.661-2.288-1.805,14.717-31.359
		C176.935,782.613,171.467,790.053,122.118,815.328z M443.225,882.953c0.079-1.165,0.116-2.309,0.116-3.435
		c0-17.693-11.134-62.042-49.928-70.059C434.948,872.419,442.718,882.349,443.225,882.953z M247.796,748.05
		c-9.134,5.986-20.505,14.496-34.816,18.377c-14.943,4.051-23.221,29.75-24.717,35.754c18.931-12.422,23.996-25.37,38.572-25.439
		C249.27,776.636,244.121,773.613,247.796,748.05z M254.862,551.319c-8.365-24.609-18.608-20.798-18.608-35.157
		c0-9.413,8.3-17.753,8.3-22.583c0-2.579-6.399-23.416-14.795-23.416c-5.458,0-7.789,6.91-7.789,11.207
		c0,1.169,0.149,2.314,0.467,3.371c1.289-3.611,1.65-5.762,3.926-5.762c3.152,0,4.527,6.03,4.527,9.216
		c0,6.315-3.832,10.826-3.832,20.776c0,5.641,3.63,27.661,14.013,31.98C246.587,543.243,250.173,547.004,254.862,551.319z
		 M435.153,593c-16.328-1.988-16.504-3.12-18.906-3.12c-1.266,0-5.075,0.901-13.406,0.901c-5.374,0-7.943-0.341-9.897-0.341
		c-0.852,0-1.698,0.031-2.518,0.031c-1.89,2.832-2.895,8.812-2.895,13.963c0,1.891,0.135,3.67,0.412,5.14
		c4.405,0.658,8.811,1.108,13.215,1.108C426.388,610.683,433.234,596.021,435.153,593z M486.883,613.356
		c2.926,0.864,5.754,1.315,8.488,1.315c11.159,0,23.248-8.902,23.248-22.082c0-7.85-3.245-15.962-14.036-20.919
		C501.11,586.656,494.997,600.235,486.883,613.356z M262.737,712.444c0.439-2.549,0.539-6.681,3.763-6.681
		c2.396,0,9.75,2.73,14.824,19.812c0.577-3.688,2.398-14.875,2.398-15.955c0-6.001-25.062-38.601-37.403-38.601
		c-0.17,0-0.346,0.006-0.526,0.02c3.178,3.207,5.17,6.65,5.884,10.703c0.616,3.501,1.495,9.963,1.495,11.146
		c0,1.73-0.5,1.874-0.5,2.863C252.672,696.949,252.505,696.028,262.737,712.444z M342.741,587.261c-0.758,0-1.547,0.007-2.422,0.007
		c-0.003,0.096-0.005,0.19-0.005,0.284c0,6.728,12.78,16.311,44.094,21.45c0.022-6.627,0.006-12.925,2.779-18.906
		c-0.855-0.144-1.291-0.237-1.732-0.288c-18.442-2.129-21.775-4.551-24.242-4.551c-2.4,0-5.982,2.025-15.998,2.025
		C344.145,587.281,344.046,587.261,342.741,587.261z M181.425,416.445c0.274,0.042,0.537,0.061,0.793,0.061
		c14.841,0,19.297-56.01,19.297-56.083c0-3.12-0.406-6.235-1.404-9.305c-0.629-1.934-0.998-2.498-2.452-2.498
		c-1.577,0-2.677,0.416-3.692,0.645c-2.25,16.284-8.19,31.289-11.958,46.957c3.037,0.846,3.498,3.237,3.498,5.673
		C185.505,409.639,182.898,413.665,181.425,416.445z M385.574,797.639c0.191-0.054,0.381-0.108,0.572-0.162
		c0.325-26.415,0.278-15.686,0.278-19.099c0-10.504-5.789-28.443-15.965-28.443c-4.934,0-8.323,5.113-8.323,9.309
		C362.136,766.697,369.218,772.667,385.574,797.639z M253.616,555.245c-8.033,5.013-8.416,19.166-8.416,21.854
		c0,18.635,8.44,24.709,11.596,24.709c4.769,0,8.868-7.452,8.868-9.807c0-1.177-0.422-2.305-0.832-3.467
		C254.562,559.475,258.865,560.517,253.616,555.245z M623.895,631.536c20.311,17.98,50.892,25.448,66.079,28.958
		c-21.483-9.449-40.112-23.056-57.741-38.585C629.395,625.185,626.729,628.264,623.895,631.536z M433.294,589.46
		c1.611,0,3.285-0.119,5.086-0.339c-18.565-15.508-19.686-20.437-31.28-20.437c-2.198,0-15.582,0.89-16.104,1.746
		c-1.203,1.976-2.498,3.952-2.498,6.398c0,0.316,0.022,0.64,0.068,0.973c0.654,0.147,1.171,0.343,1.696,0.369
		C406.619,578.986,416.184,589.46,433.294,589.46z M335.703,292.742c-0.18-0.214-0.36-0.428-0.539-0.643
		c-18.02,2.634-42.61,28.222-42.61,37.791c0,0.048,0.02,1.926,2.897,1.926c1.731,0,3.617-0.769,4.782-1.939
		C326.532,303.473,330.534,302.586,335.703,292.742z M360.897,291.923c-33.62,13.983-40.892,39.799-58.931,42.539
		c-4.249,0.645-25.774,25.388-29.417,54.576c1.678-2.49,2.923-5.11,4.067-7.774c22.768-53.031,50.684-55.594,51.885-59.466
		C330.088,316.682,333.621,314.336,360.897,291.923z M387.631,568.797c-6.292-2.012-12.761-2.905-13.262-2.905
		c-0.716,0-6.715,0.096-13.345,4.532c-20.352,13.616-18.696,13.01-19.342,13.731c1.525,0.093,1.527,0.134,2.709,0.134
		c15.42,0,21.271-6.384,38.891-6.384c0.471,0,0.764,0.006,0.803,0.006c0.278,0,0.554-0.143,0.554-0.161
		c0-0.001-0.001-0.002-0.004-0.002c-0.004,0-0.012,0.002-0.023,0.005C385.656,574.653,386.581,571.912,387.631,568.797z
		 M258.849,312.673c0,2.138,0.327,4.331,0.979,6.586c0.425-0.228,0.764-0.355,1.038-0.566
		c13.603-10.497,29.636-18.964,32.174-21.416c-19.986-0.771-18.783-0.8-21.478-0.8c-6.643,0-6.515,0.173-9.488,5.082
		C259.919,305.118,258.849,308.807,258.849,312.673z M376.656,524.264c1.133,0,2.329,0.141,3.581,0.427
		c0.162-0.739,0.238-1.43,0.238-2.076c0-5.495-6.772-9.017-11.519-9.017c-8.028,0-12.365,7.712-12.365,14.802
		c0,7.637,6.182,13.093,8.898,13.093c0.761,0,1.547-0.253,2.377-0.805c7.524-4.996,5.175-3.075,7.012-5.182
		c-0.664,0.047-0.965-0.013-1.179,0.097c-4.095,2.112-4.686,2.725-5.909,2.725c-1.247,0-2.694-0.999-2.694-2.956
		C365.096,533.111,367.699,524.264,376.656,524.264z M232.543,429.407c-0.255,1.339-0.372,2.966-0.372,4.802
		c0,13.363,6.202,37.747,10.489,42.078c-0.025-0.347-0.356-3.084-0.356-10.299c0-15.662,7.716-31.529,7.716-33.272
		c0-0.121-0.005-0.245-0.017-0.374c-5.649,4.643-6.776,5.889-8.725,5.889C238.615,438.231,237.349,435.707,232.543,429.407z
		 M512.811,494.203c3.367-11.627,7.687-43.346,7.687-44.426c0-1.45-0.409-2.813-1.281-4.059
		c-10.385-14.832-8.375-12.044-10.077-13.735C512.003,452.861,512.138,473.474,512.811,494.203z M347.782,468.165
		c-4.91-4.192-10.735-8.624-23.278-8.624c-4.022,0-15.378,0.878-19.599,3.627c5.443,5.623,18.368,7.124,25.991,7.124
		C339.54,470.293,344.908,468.768,347.782,468.165z M329.399,784.954c0.115-0.036,0.229-0.072,0.344-0.109
		c0.014-0.257,0.059-0.518,0.059-0.773c0-0.073-1.039-14.833-5.128-29.506c-2.308-8.283-11.779-15.041-16.504-15.041
		c-0.819,0-1.654,0.213-2.485,0.91C331.027,784.161,315.281,755.35,329.399,784.954z M301.526,773.137
		c0.597,0,1.226,0.056,1.888,0.153c-10.899-21.077-7.018-12.976-14.275-25.893c-7.019-12.493-5.218-13.143-7.472-16.67
		c0.969,21.845,6.086,31.327,14.643,45.448C297.58,773.897,299.33,773.137,301.526,773.137z M344.928,737.758
		c-1.624,0-3.287-0.109-5.007-0.309c1.8,3.63,13.08,25.498,19.567,29.938c-2.701-8.545-3.691-12.189-3.691-19.78
		c0-4.055,0.279-7.127,0.279-9.146c0-0.858-0.022-1.763-0.022-2.79C352.391,737.147,348.766,737.758,344.928,737.758z
		 M507.941,423.224c-0.034-0.073-39.067-78.463-39.127-78.536C468.85,345.602,489.102,402.547,507.941,423.224z M506.934,555.305
		c0,0.283,0.05,0.57,0.07,0.855c0.229,0.034,0.458,0.068,0.688,0.102c5.213-17.619,3.301-31.361,8.079-39.114
		c9.448-15.332,10.639-18.402,10.639-20.736c0-0.895-0.142-1.824-0.26-2.703c-0.056-0.42-0.866-1.013-1.324-1.013
		c-2.694,0-0.053,8.08-10.291,21.332c-2.905,3.76-4.205,2.492-4.488,5.415C507.897,541.67,506.934,555.232,506.934,555.305z
		 M266.771,708.984c-0.395,1.14-0.548,2.207-0.548,3.224c0,7.568,11.901,32.847,13.645,33.894c0.02-0.296,0.083-0.562,0.083-0.804
		c0-0.08-0.007-0.157-0.024-0.231C277.527,734.773,280.815,715.774,266.771,708.984z M259.645,338.715
		c0,0.668,0.013,1.336,0.013,2.003c0.197,0.02,0.394,0.04,0.591,0.059c6.012-12.544,9.356-18.258,22.777-32.441
		c-7.947,3.842-14.963,8.892-21.774,14.249c-0.876,0.689-1.093,1.558-1.122,2.634C259.983,330.694,259.645,336.783,259.645,338.715z
		 M293.81,631.524c-7.264,30.768-6.444,26.695-6.444,27.032c0,0.151,0.695,11.325,1.265,17.308
		c2.546-5.02,6.668-31.724,8.452-40.914C296.307,634.139,295.248,633.03,293.81,631.524z M381.859,581.021
		c-5.684,0-10.737,0.756-13.66,2.398c5.801,2.215,23.296,4.133,33.651,4.133c3.272,0,5.832-0.192,7.084-0.626
		C402.973,583.2,391.507,581.021,381.859,581.021z M245.437,467.957c0,4.677,0.558,9.446,1.85,14.352
		c1.965-7.392,5.095-35.212,5.095-43.822c0-1.003-0.042-1.745-0.134-2.164C248.44,446.747,245.437,457.106,245.437,467.957z
		 M201.622,324.791c-10.849-3.868-8.936-7.02-13.049-7.02c-1.548,0-4.209,1.056-4.209,3.997c0,0.716,0.558,4.506,3.503,5.819
		c1.627,0.725,5.731,1.449,5.79,1.449C193.762,329.035,193.297,329.27,201.622,324.791z M198.491,398.762
		c0.09,0.062,0.18,0.124,0.27,0.186c8.972-19.73,9.363-24.849,9.363-25c0-1.054-0.306-1.556-3.36-9.355
		C202.607,376.34,200.549,387.551,198.491,398.762z M212.508,323.821c-2.088,1.744-13.884,11.083-13.884,18.339
		c0,0.861,0.198,1.738,0.704,2.605C207.092,338.012,211.484,336.037,212.508,323.821z M308.94,788.671
		c-0.038-4.917-2.818-8.065-5.243-11.33c-0.483-0.65-1.268-1.043-2.121-1.043c-2.221,0-2.241,1.734-2.241,2.246
		c0,10.532,6.436,14.464,7.417,14.464C308.714,793.009,308.847,789.227,308.94,788.671z M247.668,383.037
		c3.561-0.81,5.215-1.027,5.215-8.186c0-6.435-3.902-10.012-7.094-12.183c-0.296,1.349-0.703,2.357-0.703,3.353
		C245.086,367.148,247.255,381.078,247.668,383.037z M386.26,230.391c1.221-9.627,2.391-18.859,3.562-28.092
		c-7.13,9.792-4.627,23.167-11.384,29.575C381.459,231.301,383.924,230.834,386.26,230.391z M306.45,681.853
		c-0.662,2.521-0.849,4.932-0.849,7.277c0,1.899-0.085-3.446,0.749,23.453c1.189-2.406,4.089-23.243,4.089-23.315
		c0-2.208-0.962-3.97-2.037-5.835C308.124,682.949,307.488,682.672,306.45,681.853z M285.033,626.225
		c-0.248,0.116-0.497,0.232-0.745,0.349c0.025,7.659,0.954,15.252,1.803,22.866c0.337-0.231,0.52-0.449,0.575-0.695
		c3.734-16.858,3.558-16.415,3.558-16.559C290.225,630.751,289.225,630.138,285.033,626.225z M195.407,342.45
		c0-5.634,3.514-9.663,6.927-13.74c-0.146-0.123-0.292-0.246-0.437-0.369c-2.15,1.168-4.282,2.37-6.454,3.494
		c-3.654,1.891-4.4,5.936-4.4,7.118c0,2.219,1.477,3.822,4.412,4.628C195.422,343.197,195.407,342.82,195.407,342.45z
		 M242.942,512.108c0-2.135,0.14-4.304,0.441-6.527c-2.515,3.198-3.733,6.982-3.733,10.642c0,4.627,1.948,9.057,5.689,11.852
		C243.852,522.758,242.942,517.544,242.942,512.108z M196.439,318.948c2.515,1.615,5.064,3.132,7.692,3.132
		c1.963,0,8.21-1.976,9.512-6.769c-0.506-0.113-0.99-0.162-1.457-0.162C209.321,315.148,212.36,315.604,196.439,318.948z
		 M241.715,431.305c0-4.877-4.084-11.35-9.384-12.531c1.662,5.766,6.368,14.146,8.684,15.591
		C241.493,433.489,241.715,432.44,241.715,431.305z M249.423,690.348c-0.236-8.488-1.436-10.958-4.778-15.722
		c-0.493-0.703-1.474-1.063-2.744-1.927C242.192,680.071,245.995,685.118,249.423,690.348z M523.99,453.371
		c-0.188,0.001-0.376,0.002-0.563,0.003c-4.098,26.476-4.203,26.116-6.913,40.32c2.634-2.482,3.576-5.029,3.577-8.003
		C520.091,482.734,522.338,470.475,523.99,453.371z M255.079,420.371c0.464-1.867,0.692-3.596,0.692-5.179
		c0-5.715-2.977-9.504-8.587-10.873C249.768,409.574,252.35,414.824,255.079,420.371z M231.296,301.215
		c1.912-3.434,11.542-34.14,11.542-36.858c0-0.013,0-0.025-0.001-0.037C237.837,276.512,233.381,288.492,231.296,301.215z
		 M182.191,402.653c0-0.568-0.023-1.138-0.069-1.704c-2.926,2.799-6.206,10.893-6.206,14.725c0,0.236,0.012,0.455,0.038,0.656
		C179.387,415.225,182.191,408.997,182.191,402.653z M408.23,537.969c-0.536-2.321-2.285-8.485-7.028-8.485
		c-0.95,0-2.847,0.349-2.847,1.782C398.355,532.854,399.503,533.162,408.23,537.969z M380.499,530.11
		c-0.552-1.998-2.383-2.86-4.185-2.86c-3.41,0-7.218,3.533-7.224,6.77C372.762,532.761,376.519,531.474,380.499,530.11z
		 M318.519,658.005c0,4.892-1.301,9.505-2.609,14.277c2.366-5.057,4.731-10.114,7.133-15.248c-1.78-1.281-3.347-2.408-4.913-3.535
		C318.401,655.034,318.519,656.533,318.519,658.005z M511.71,512.034c3.979-4.803,7.055-10.012,8.034-16.255
		C515.944,500.643,512.102,505.485,511.71,512.034z M196.882,310.717c-2.307,0-3.913,1.712-3.922,4.243
		c1.284,0.206,2.557,0.318,3.83,0.318c2.565,0,5.131-0.455,7.786-1.514C200.925,311.341,198.178,310.717,196.882,310.717z
		 M297.318,651.681c0.264,0.051,0.529,0.103,0.793,0.154c3.828-7.367,4.395-8.039,4.395-9.363c0-1.633-1.133-3.311-2.973-4.219
		C298.783,642.793,298.05,647.237,297.318,651.681z M216.096,303.08c0.158-0.012,0.316-0.025,0.473-0.037
		c-0.155-0.894-0.512-7.256-4.929-7.256c-1.098,0-2.313,0.442-3.585,1.341c-2.351,1.661-3.684,4.417-3.684,7.509
		c0,0.87,0.106,1.767,0.324,2.673c0.242-1.142,0.407-2.111,0.656-3.058c1.038-3.947,4.062-6.169,6.27-6.169
		C214.736,298.083,215.584,301.783,216.096,303.08z M212.886,305.322c0-1.435-0.481-2.737-1.446-3.969
		c-2.602,1.271-3.18,3.537-3.18,5.282c0,1.871,0.88,3.416,2.736,4.236C212.254,308.783,212.886,306.966,212.886,305.322z
		 M317.171,680.044c4.514-3.804,9.387-11.175,9.552-14.446C322.718,668.671,318.241,675.442,317.171,680.044z M187.806,339.047
		c0-2.387,1.001-4.524,2.053-6.635c-0.776-0.407-1.406-0.612-1.932-0.612c-1.408,0-2.307,1.712-2.307,3.782
		c0,2.209,0.957,4.764,2.583,6.035C187.925,340.725,187.806,339.871,187.806,339.047z M225.145,492.087
		c0,1.359,0.098,2.664,0.305,3.774c1.486-2.195,2.253-4.805,2.253-7.267c0-1.777-0.4-3.478-1.217-4.89
		C225.637,485.709,225.145,489.035,225.145,492.087z M260.113,385.929c-0.162,0.149-0.325,0.298-0.487,0.448
		c5.088,7.504,3.091,4.283,7.424,12.052c0.298-1.237,0.488-1.947,0.488-2.512C267.538,394.571,266.077,393.171,260.113,385.929z
		 M328.685,661.137c-0.97-0.733-1.782-1.347-2.721-2.056c-0.735,1.211-1.487,2.098-1.487,3.256c0,0.066,0.002,0.132,0.007,0.2
		C325.877,662.073,327.117,661.66,328.685,661.137z M204.102,987.133c-0.675-1.225-0.597-2.403-1.71-3.192
		c-0.485,1.33-0.895,2.453-1.417,3.885C202.238,987.546,203.018,987.373,204.102,987.133z"/>
</g>
</svg>
