<?xml version="1.0" encoding="iso-8859-1"?>
<!-- Generator: Adobe Illustrator 22.1.0, SVG Export Plug-In . SVG Version: 6.00 Build 0)  -->
<svg version="1.1" id="Layer_1" xmlns="http://www.w3.org/2000/svg" xmlns:xlink="http://www.w3.org/1999/xlink" x="0px" y="0px"
	 width="1000px" height="1300px" viewBox="0 0 1000 1300" enable-background="new 0 0 1000 1300" xml:space="preserve">
<g>
	<path fill="#42210B" d="M799.912,326.701c-0.719-1.274-1.424-2.235-1.833-3.308c-0.799-2.097-2.3-3.004-4.45-3.178
		c-36.94-2.987-43.846-13.852-43.846-14.414c0-2.268,2.513-2.361,2.983-2.418c1.548-0.188,3.107-0.433,4.659-0.433
		c12.548,0,15.502,0.893,23.286,0.893c14.676,0,73.684-9.486,93.256-9.486c4.284,0,10.358,1.084,20.554,29.177
		c4.005-0.473,5.956-0.915,7.459-0.915c2.792,0,5.058-1.405,7.705,41.267C925.062,611.785,929,539.949,929,570.784
		c0,35.99-226.065,169.108-236.138,174.349c-48.863,25.42-139.987,241.058-139.987,245.01c0,18.101,80.884,89.164,80.884,99.935
		c0,2.196-4.931,8.268-8.903,8.268c-1.198,0-1.28-0.554-2.174-0.554c-0.957,0-146.081,23.458-208.256,23.458
		c-18.074,0-57.98-4.31-58.042-4.318c-12.174-1.541-29.384-8.984-29.384-14.056c0-8.007,73.752-85.765,74.12-86.891
		c4.82-14.757,30.937-58.316,31.717-59.855c-5.686,2.447-29.674,51.1-60.826,83.364c-32.625,33.789-46.08,62.663-47.024,62.663
		c-0.049,0-1.824-0.071-1.824-2.777c0-0.062,4.5-39.616,16.787-90.811c5.4-22.502,11.832-21.193,11.832-31.256
		c0-24.291-6.856-67.954-6.856-90.432c0-3.877,0.171-4.502,0.171-7.731c0-8.078-1.25-16.07-2.755-24.035
		c-13.671-72.356-4.883-44.749-32.734-113.186c-27.046-66.457-160.576-38.824-261.276-122.883
		c-11.871-9.91-18.679-13.684-18.679-27.388c0-19.837,159.822-131.236,168.251-132.89c0.396-0.078,33.317-23.656,55.959-23.656
		c13.05,0,118.464,112.357,118.464,112.591c0,1.225-2.091,1.701-5.76,1.701c-12.473,0-26.859-13.04-35.659-19.422
		c0,0.353-0.012,0.598-0.012,0.802c0,0.411,0.095,0.737,0.095,1.421c0,1.696-0.749,2.43-3.75,2.43c-1.821,0-3.044-0.233-3.931-0.345
		c-0.148,0.164-0.295,0.329-0.443,0.493c0.542,0.212,2.125,0.547,2.125,2.21c0,0.331-0.064,0.684-0.174,1.055
		c-13.64,45.904-11.879,44.287-13.988,44.287c-0.552,0-1.197-0.28-1.949-0.838c-3.091-2.292-3.719-4.601-4.675-6.993
		c-0.877,2.179-1.37,4.036-2.699,4.036c-3.014,0-4.095-9.302-4.095-13.84c0-4.631,0.465-9.534,0.465-14.066
		c0-10.014-1.228-13.7-1.321-14.132c-5.307,9.391-1.539,21.113-5.946,21.113c-3.867,0-4.477-8.987-4.477-16.744
		c0-2.914,0.141-3.741,0.141-5.303c0-13.427-9.56-22.432-22.958-36.356c-13.247-13.767-17.151-20.848-19-20.848
		c-0.619,0-2.252,0.532-2.369,0.576c-19.325,7.273-17.273,6.676-17.273,13.525c0,1.253,0.02,1.674,0.02,2.247
		c0,9.025-19.36-10.444-82.069,87.218c1.199,3.167,4.052,5.251,4.413,8.851c99.75,31.641,93.695,26.849,189.3,37.458
		c34.985,3.882,54.016,17.697,62.139,17.697c3.887,0,27.186-6.802,34.774-8.488c-0.062-0.046-21.701-10.394-21.701-24.665
		c0-1.681,0.46-3.289,1.272-4.836c6.455-12.305,22.64-11.841,22.64-16.49c0-2.481-4.609-4.504-7.843-9.455
		c-11.509-17.618-26.93-18.06-26.93-34.068c0-5.779,7.264-6.105,8.934-6.105c4.801,0,9.466,2.436,12.065,8.262
		c1.094,2.452,1.026,2.483,3.909,3.646c6.648-10.544,83.103-68.804,123.785-68.804c12.778,0,12.482,12.776,12.482,18.181
		c0,11.425-4.738,31.272-4.738,37.364c0,0.249,0.054,0.536,0.085,0.978c7.747-4.468,12.376-11.139,13.929-19.599
		c1.279-6.971,3.079-9.102,3.079-18.258c0-2.888-0.187-30.114-14.157-30.114c-42.096,0-124.276,67.199-155.044,67.199
		c-12.027,0-16.495-7.193-17.496-8.298c-0.038-0.042-0.139-0.028-0.39-0.071c-1.258,1.961-5.42,11.88-5.42,22.49
		c0,13.334,5.572,22.374,11.453,22.374c6.801,0,9.559-13.107,14.066-13.107c1.767,0,3.709,2.104,3.709,10.982
		c0,3.522-0.562,8.226-0.562,12.638c0,0.062-0.062,11.69,3.113,11.69c0.116,0,0.15-0.005,0.212-0.005
		c0.706,0,1.105,0.644,1.105,1.405c0,1.062-0.738,2.001-1.581,2.001c-0.661,0-5.374-1.348-5.374-15.098
		c0-4.93,0.446-7.518,0.446-13.996c0-5.16-0.09-3.548-0.943-7.28c-4.771,5.431-7.683,13.331-13.998,13.331
		c-5.809,0-14.133-6.52-14.133-24.635c0-15.385,6.365-24.599,6.365-26.446c0-1.325-2.217-5.22-2.217-12.753
		c0-13.11,7.444-24.223,7.668-24.642c-2.735,0.341-2.91,0.553-4.556,0.553c-7.76,0-19.065-8.969-19.065-29.028
		c0-33.538,39.58-66.654,73.082-66.654c1.556,0,1.528,1.575,1.528,1.614c0,0.603-0.299,1.175-0.823,1.721
		c-18.041,18.834-35.873,60.316-35.873,71.5c0,0.117,0.114,0.261,0.262,0.608c25.923-39.072,26.513-92.14,85.668-92.14
		c26.6,0,36.129,4.147,36.129,14.448c0,10.025-13.49,15.046-19.823,17.08c-52.29,16.796-68.748,38.204-68.748,42.819
		c0,3.151,7.801,3.826,10.114,3.826c16.305,0,63.509-40.687,90.665-40.687c15.228,0,27.768,22.049,27.768,34.679
		c0,12.775-12.909,15.008-20.032,15.008c-6.528,0-58.272-4.564-68.42-4.564c-19.169,0-46.589,3.962-73.269,19.18
		c-0.913,0.521-1.396,1.207-1.396,2.29c0,0.426-0.391,17.25,10.467,17.25c13.584,0,38.463-22.478,49.261-22.478
		c3.677,0,6.001,3.22,6.001,6.098c0,19.765-58.257,28.555-60.902,29.25c-13.002,3.413-19.946,14.02-19.946,15.278
		c0,0.908,4.089,8.932,15.948,8.932c32.297,0,108.47-67.222,155.166-67.222c16.716,0,16.796,29.591,16.796,32.674
		c0,5.5-0.436,7.548-0.992,10.058c-2.662,12.031-3.887,20.574-13.297,27.738c-7.426,5.653-6.87,1.676-6.87,25.38
		c0,7.643,3.161,8.896,3.161,16.252c0,2.875-0.616,5.741-1.865,8.643c-6.839,15.89-6.089,19.453-8.164,19.453
		c-0.041,0-1.462-0.016-1.462-1.447c0-1.712,2.182-6.93,2.182-17.588c0-17.585-2.314-19.089-4.572-20.207
		c-4.54-2.247-4.377-7.678-4.815-12.13c-0.157-0.046-0.314-0.092-0.471-0.138c-7.259,12.393-14.519,24.786-21.89,37.369
		c0.475-0.132-0.622,1.027,19.936-11.202c3.061-1.821,5.328-4.61,6.553-4.61c0.488,0,1.327,0.397,1.327,2.356
		c0,4.898-0.426,11.715-0.426,17.633c0,15.425,2.593,20.853,7.875,31.769c10.127,20.929,45.161,34.439,49.143,34.439
		c15.08,0,45.064-35.927,113.457-35.927c0.345,0,0.76,0.037,1.796,0.037c42.409,0,110.007-60.825,136.748-80.12
		c4.564-3.293,15.096-68.326,15.096-101.016c0-4.154-0.593-42.365-8.78-82.96c-4.53-22.464-7.384-32.58-12.953-32.58
		c-6.961,0-13.946,8.801-30.069,9.51c-18.068,0.795-20.891,12.097-31.847,14.715c-11.57,2.765-12.541,2.627-13.173,2.627
		c-2.01,0-7.462-1.266-7.462-3.689C765.206,352.812,780.378,351.597,799.912,326.701z M404.858,1014.272
		c0.128,0.122,0.256,0.244,0.384,0.366c14.897-12.565,78.852-74.015,129.492-74.015c23.693,0,22.142,17.898,22.142,18.751
		c0,24.354-79.906,134.277-142.469,134.277c-27.878,0-25.578-22.806-25.578-23.232c0-18.274,7.899-42.427,8.453-44.291
		c-16.643,12.172-67.216,73.454-67.216,76.86c0,2.208,15.138,10.303,30.5,11.617c28.678,2.453,39.079,3.843,52.048,3.843
		c45.223,0,173.747-16.821,181.797-18.898c16.318-4.209,18.43-0.791,34.301-6.819c1.272-0.483,1.944-1.423,1.944-2.562
		c0-3.397-10.473-15.285-11.339-16.173c-66.357-68.037-61.98-72.235-64.162-73.541c-2.96-1.772-5.233-7.669-5.233-9.854
		c0-1.624,1.683-25.993,102.393-208.653c24.215-43.918,180.541-116.769,254.002-181.324c-0.016,0-0.033,0-0.049,0
		c-2.327,0-8.029,2.737-17.338,2.737c-6.608,0-13.14-1.984-17.941-8.725c-8.165-11.465-15.793-20.064-15.793-34.413
		c0-2.929,0.335-4.755,0.335-5.137c0-0.338-0.07-0.724-0.108-1.301c-1.148,0.824-2.052,1.416-2.893,2.086
		c-102.985,81.919-107.924,69.103-118.852,76.06c12.863,1.654,14.381,1.398,14.381,3.191c0,0.459-0.176,1.026-0.528,1.726
		c-2.123,4.216-3.235,8.759-4.703,13.197c-15.374,46.481-48.359,83.346-68.668,83.346c-5.816,0-26.182-3.157-26.182-32.548
		c0-44.122,48.084-59.826,62.639-66.03c-0.319-0.237-0.568-0.296-0.797-0.296c-0.081,0-0.16,0.007-0.239,0.017
		c-87.777,10.794-79.351,31.125-105.936,35.106c-5.501,0.824-2.873,14.739-21.281,26.048c5.928,6.521,8.208,7.963,8.208,9.453
		c0,2.3-17.904,27.834-19.279,30.616c6.446,8.131,6.154,9.827,6.154,10.469c0,2.687-7.465,14.972-7.465,24.113
		c0,9.46,5.641,14.494,5.641,24.135c0,36.102-115.393,95.986-115.456,96.027c-0.33,0.215-0.818,0.477-1.168,0.477
		c-0.08,0-2.285-0.635-2.285-2.521c0-3.421,55.302-93.494,55.302-190.19c0-14.576-0.377-13.238-0.606-13.544
		c-17.995,28.533-19.101,34.699-63.881,69.319c-3.622,2.8-10.881,88.731-41.54,88.731c-8.825,0-14.796-12.035-14.796-22.469
		c0-28.59,51.888-62.038,52.756-68.717c2.698-20.758,5.815-37.178,5.815-54.354c0-2.411-0.351-34.896-6.055-49.523
		c-0.811-2.08-2.254-9.671-3.972-9.671c-0.151,0-34.977,10.42-41.305,10.42c-2.096,0-4.162-0.392-6.207-1.187
		c-73.725-28.669-138.827-17.589-169.33-31.885c-13.252-6.211-40.242-9.525-77.25-22.619c-3.516,27.692-27.66,27.475-38.815,27.475
		c-42.916,0-70.675-22.351-73.665-24.188c-0.071,0.248-0.15,0.393-0.15,0.526c0,0.331,0.475,6.318,6.687,11.474
		c93.388,77.524,212.976,78.397,253.661,104.148c15.276,9.669,54.56,103.512,54.56,167.642c0,3.457-0.31,6.907-0.31,10.367
		c0,1.201,7.12,83.89,7.332,84.578c15.08-29.693,23.456-58.448,37.799-58.448c6.112,0,7.81,6.255,7.81,11.335
		c0,28.978-37.691,99.39-43.876,108.676c-0.71,1.065-1.531,2.268-2.871,2.268c-3.231,0-2.626-4.181-2.626-6.816
		c0-5.648,0.558-39.708,0.558-41.415c0-0.619-0.11-1.251-0.196-2.217c-10.1,12.268-21.785,80.045-23.865,102.9
		c0.159,0.061,0.318,0.122,0.477,0.183c38.714-58.892,51.767-56.435,77.739-100.909c29.149-49.914,33.342-38.063,33.342-49.056
		c0-9.915-20.569-22.119-30.069-32.23c-20.033-21.319-40.262-20.771-49.965-72.728c-9.572-51.256-29.202-86.537-29.202-143.381
		c0-23.191,10.559-40.265,25.055-41.403c11.129-0.873,18.562-1.801,22.409-1.801c11.716,0,14.532,6.671,14.532,12.002
		c0,14.012-6.725,25.023-6.725,39.579c0,17.897,10.878,31.539,10.878,45.53c0,22.694-22.533,26.152-22.533,50.691
		c0,5.382,6.832,104.714,111.162,104.714c40.882,0,110.098-62.562,110.098-83.635c0-8.153-10.766-30.952-10.766-48.702
		c0-23.147,20.345-30.558,20.791-60.8c0.141-9.597-0.532-31.469,5.473-31.469c1.562,0,6.806,2.409,8.97,6.095
		c18.922,32.23,42.386,51.196,42.386,66.007c0,8.965-12.226,29.735-18.463,39.178C584.37,878.112,510.72,902.654,510.658,902.697
		C440.719,950.738,436.486,944.484,404.858,1014.272z M446.6,751.277c0.744-0.462,1.148-0.664,1.497-0.937
		c61.752-48.288,59.304-71.503,64.657-71.503c0.161,0,0.334,0.028,0.52,0.09c0.73,0.244,1.147,0.84,1.147,2.757
		c0,0.395-0.021,0.792-0.021,1.187c0,0.082,0.002,0.325,0.002,0.859c0,0.845-0.006,1.69-0.006,2.534
		c0,4.169,0.234,5.211,0.234,10.752c0,19.582-3.22,19.16-7.682,59.275c-7.632,68.609-42.11,117.084-46.787,130.946
		c25.556-10.377,112.921-66.278,112.921-92.896c0-8.673-5.668-14.201-5.668-23.924c0-9.461,7.418-22.477,7.418-24.25
		c0-0.71-0.969-3.425-5.168-8.24c-6.935,8.583-10.87,14.673-20.676,14.673c-3.735,0-7.166-1.345-10.12-4.373
		c-4.541-4.655-18.136-31.224-18.136-50.615c0-3.174,0.246-6.346,0.765-9.516c0.132-0.806,0.378-1.685,1.268-1.685
		c0.506,0,1.004,0.418,1.667,1.04c0.386,0.362,0.611,0.898,0.896,1.364c9.394,15.384,44.312,44.64,44.374,44.684
		c6.026-9.569,12.487-18.721,18.539-28.584c-2.87-2.943-5.62-5.764-8.37-8.585c-1.854,1.32-7.854,2.144-11.148,2.144
		c-19.003,0-35.656-18-35.656-36.129c0-4.652,3.643-7.584,5.924-7.584c5.328,0,40.425,38.533,41.733,38.533
		c0.947,0,7.602-3.503,10.134-7.985c1.223-2.165,7.87-12.241,7.87-15.447c0-3.663-56.204-13.753-56.204-67.309
		c0-3.005,0.491-14.434,0.491-15.374c0-0.454-0.151-0.912-0.226-1.363c-50.809,31.401-97.85,50.794-98.764,51.448
		c-0.419,0.3-0.617,0.679-0.617,1.141c0,2.977,8.841,15.659,8.841,58.635C452.247,717.086,449.374,727.527,446.6,751.277z
		 M534.31,943.282c-22.389,2.581-52.634,6.149-131.161,77.233c-3.858,3.492-11.523,35.405-11.523,50.354
		c0,1.716-1.186,19.934,22.933,19.934c58.217,0,139.469-104.867,139.469-131.674C554.027,943.558,539.971,943.987,534.31,943.282z
		 M441.598,945.374c0.278,0.109,0.564,0.257,0.923,0.257c0.705,0,60.224-40.983,60.224-41.192c0-0.051-0.025-0.101-0.028-0.101
		c0,0,0,0,0,0.001c0,0.001,0,0.002,0.001,0.005c-6.453,0.56-7.413,0.985-14.93,0.985c-89.534,0-116.901-71.679-116.901-107.561
		c0-26.16,22.393-30.068,22.393-50.317c0-15.05-10.864-26.398-10.864-46.45c0-14.793,6.754-25.644,6.754-37.677
		c0-8.415-3.727-10.644-12.362-10.644c-3.725,0-14.301,1.08-21.81,1.733c-10.751,0.934-22.23,13.904-22.23,38.356
		c0,51.958,18.185,91.886,26.951,131.471c15.468,69.85,20.27,50.107,53.443,84.764c6.439,6.727,15.779,11.396,27.454,26.844
		c1.032,1.365,1.479,2.914,1.479,4.565C442.093,941.106,442.076,941.077,441.598,945.374z M925.82,571.052
		c0.155-0.004,0.31-0.008,0.465-0.012c-26.388-240.812-17.772-231.341-24.261-245.743c-2.331,0.394-4.589,0.776-6.968,1.179
		c0.432,3.446,0.589,4.422,0.589,5.09c0,1.693-0.808,2.99-2.348,3.885c-6.65,3.866-11.927,5.598-19.538,5.598
		c-7.261,0-12.726-1.787-17.598-3.243c7.284,22.172,16.075,67.39,16.075,113.492c0,38.141-9.759,82.445-12.472,95.706
		c0.316,0.119,0.471,0.229,0.589,0.229c0.117,0,2.352-0.596,6.293-0.596C912.63,546.637,925.773,570.99,925.82,571.052z
		 M140.457,580.871c35.279-55.3,47.887-69.778,81.8-86.05c-0.1-1.906-0.192-3.68-0.287-5.492c-1.567,0.461-3.109,0.638-4.638,0.638
		c-17.125,0-20.094-13.381-20.094-21.919c0-2.831,0.334-4.746,0.637-6.969c-18.7,8.822-124.608,88.212-153.839,113.392
		c6.425-0.898,5.732-2.223,52.772-2.223C128.385,572.248,136.631,578.884,140.457,580.871z M428.259,554.632
		c2.646,1.574,34.188,17.234,59.033,17.234c19.167,0,23.237-2.245,64.655-26.524c1.288-0.755,1.966-1.676,2.144-3.298
		c3.215-29.367,4.935-25.097,4.935-38.888c0-4.869,0.426-15.374-9.301-15.374C517.727,487.783,450.505,530.597,428.259,554.632z
		 M405.428,477.714c0.063-0.018,32.523-18.524,71.151-18.524c10.723,0,69.604,4.542,70.401,4.542
		c18.295,0,17.535-10.408,17.535-12.14c0-10.274-11.067-31.829-24.724-31.829c-27.258,0-72.343,40.684-90.879,40.684
		c-0.93,0-12.937-0.073-12.937-6.574c0-1.137,0.346-2.411,1.048-3.803c17.732-35.155,87.5-38.33,87.5-56.218
		c0-0.256,0.637-9.156-14.675-10.484c-0.062-0.005-14.96-1.113-18.267-1.113c-18.816,0-41.682,9.032-49.956,23.96
		C441.592,406.277,405.441,477.651,405.428,477.714z M610.666,680.591c-3.992,7.518-1.857,11.866-3.064,30.683
		c-2.09,32.593-20.692,35.935-20.692,58.606c0,18.572,10.81,38.879,10.81,48.601c0,21.981-37.931,51.224-74.947,75.757
		c0.099,0.008,0.196,0.011,0.292,0.011c25.605,0,135.944-108.144,135.944-144.835c0-1.228,0.446-8.831-24.23-37.785
		C613.494,686.656,621.164,685.123,610.666,680.591z M744.514,636.363c-15.091-2.232-15.212-2.353-17.932-2.353
		c-8.722,0-75.79,18.418-75.79,66.719c0,4.057,0.446,8.24,1.332,12.546c2.81,13.648,18.403,17.249,21.866,17.249
		C714.542,730.524,744.489,636.425,744.514,636.363z M326.453,532.124c0.631,0,1.286-0.078,1.971-0.261
		c-0.773-2.665-1.361-5.175-3.652-6.936c-22.041-16.939-29.11-32.059-29.11-34.366c0-1.103,0.716-1.872,1.732-1.872
		c2.578,0,3.986,1.006,30.469,35.081c0.324,0.417,25.221,23.069,38.012,23.069c0.695,0,1.418-0.076,2.187-0.271
		c-2.664-3.57-103.315-108.99-114.411-108.99c-6.496,0-28.795,5.425-50.977,21.166c8.347,7.589,15.795,15.534,20.325,25.744
		c8.104-9.605,26.959-22.59,27.463-22.59c3.665,0-3.14,4.745,19.241,19.597C280.156,488.433,306.975,532.124,326.453,532.124z
		 M81.272,574.678c-0.004,0.098-0.008,0.196-0.012,0.294c-16.046,0.362-48.542-1.391-48.542,14.329
		c0,6.785,35.393,28.073,76.704,28.073c31.335,0,33.278-20.203,33.278-24.977C142.7,574.654,109.619,575.72,81.272,574.678z
		 M854.98,336.902c0.185-0.272,0.37-0.544,0.555-0.815c7.445-4.601,3.063-1.094,36.02-11.52c-0.437-1.664-0.593-3.265-1.258-4.615
		c-6.708-13.623-9.196-22.79-17.115-22.79c-8.582,0-79.063,9.515-92.394,9.515c-8.808,0-9.66-0.88-23.537-0.88
		c-0.986,0-1.977,0.209-2.965,0.315c1.859,2.61,14.63,8.43,26.329,9.857c19.016,2.319,16.69,0.297,21.167,8.277
		c5.309-5.492,10.294-11.629,17.022-11.629c2.645,0,6.511,1.72,6.511,4.476c0,5.828-9.659,11.819-17.511,11.819
		c-2.843,0-4.739-0.705-4.92-0.705c-0.122,0-0.282,0.074-0.544,0.13c-18.513,22.855-21.351,19.627-33.791,28.937
		c1.435,0.889,2.788,1.216,4.103,1.216c0.55,0,1.094-0.057,1.634-0.155c28.142-5.079,20.615-16.165,43.011-17.137
		c17.502-0.759,19.779-9.378,31.143-9.378C851.948,331.819,853.133,334.348,854.98,336.902z M868.628,549.569
		c-0.945,0-1.898-0.056-2.843-0.056c-1.464,0-3.315,0.132-5.793,1.292c-0.606,0.284-1.938,1.132-1.938,9.204
		c0,9.064,3.008,18.681,17.868,35.831c0.157,0.181,3.147,4.64,13.277,4.64c13.819,0,35.411-7.998,35.411-21.694
		C924.611,558.869,885.096,549.875,868.628,549.569z M353.937,1031.933c0,0.766,0.007,1.531,0.007,2.297
		c0.163,0.036,0.326,0.071,0.489,0.107c3.166-3.874,43.252-77.485,43.252-106.163c0-3.645-0.663-8.992-4.954-8.992
		c-12.904,0-38.148,58.108-38.148,69.888c0,0.459,0,0.918,0,1.376C354.583,996.428,353.937,1028.889,353.937,1031.933z
		 M442.884,758.661c-0.169-0.087-0.337-0.173-0.506-0.26c-12.27,9.526-48.673,41.219-48.673,61.922
		c0,6.67,4.088,19.919,12.291,19.919C424.019,840.242,434.123,807.813,442.884,758.661z M452.612,629.764
		c19.278-6.698,36.495-16.654,53.789-26.671c-0.257-0.302-0.372-0.512-0.548-0.632c-38.307-26.226-41.794-31.479-63.342-37.19
		c11.242,12.08,19.041,0.184,19.041,42.88C461.553,617.9,461.748,619.744,452.612,629.764z M458.9,609.741
		c-1.379-27.68-1.24-30.947-8.5-35.507c-15.929-10.003-24.9-17.304-29.039-17.304c-0.956,0-1.426,0.571-1.426,1.749
		c0,7.106,7.83,10.116,25.333,31.886c0.921,1.146,1.383,2.351,1.383,3.582c0,6.457-14.214,15.04-14.214,25.869
		c0,4.629,2.026,8.977,4.738,12.016c0.951,1.067,2.331,1.774,3.574,2.549c0.298,0.186,0.609,0.278,0.919,0.278
		c0.43,0,0.856-0.178,1.24-0.534c13.917-12.903,11.753-10.305,14.499-15.857C458.765,615.721,458.594,612.704,458.9,609.741z
		 M310.4,579.246c6.731-25.569,11.895-40.458,11.895-41.047c0-0.596-0.245-1.152-0.981-1.724
		c-42.806-33.273-37.137-40.584-52.787-47.688c-13.926-6.321-7.813-10.52-21.533-12.695c11.823,20.221,41.9,35.918,41.9,60.976
		c0,2.139-0.146,2.568-0.146,4.57c0,0.123,0.18,8.577,1.21,12.135c0.421-0.44,0.519-0.813,0.54-1.19
		c0.836-14.931,4.215-17.789,4.215-19.576c0-1.871-5.339-10.084-5.339-15.488c0-2.425,2.068-3.014,2.804-3.014
		c2.188,0,6.95,3.542,6.95,10.88c0,3.634-1.178,5.438-1.178,6.975c0,2.386,2.566,5.116,2.566,15.903
		c0,5.634-0.665,10.825-0.665,15.917c0,2.049,0.133,7.905,1.577,10.025c0.954-3.093,2.201-5.795,2.384-8.789
		c1.24-20.338,1.843-32.747,5.63-32.747c2.441,0,2.831,5.46,2.831,7.827c0,7.647-5.877,22.899-5.877,28.752
		C306.395,576.089,308.687,578.145,310.4,579.246z M405.604,458.127c-0.162-0.035-0.325-0.069-0.487-0.104
		c-5.843,8.448-12.627,17.444-20.799,17.444c-8.329,0-8.04-11.228-8.04-11.337c0-25.385,22.799-45.854,35.42-45.854
		c5.936,0,6.566,5.474,7.166,7.925c6.121-8.972,12.135-17.789,18.248-26.749c-2.52,0.461-12.713,2.885-17.102,4.141
		c-34.512,9.881-49.647,42.181-49.647,60.344c0,15.685,8.969,25.069,16.103,25.069c7.241,0,13.756-9.489,14.31-10.138
		C403.01,476.252,400.776,477.468,405.604,458.127z M567.897,735.907c-3.784-4.821-23.525-21.674-24.056-22.164
		c-17.382-16.036-17.818-20.34-19.983-21.969c-0.139,0.158-0.551-0.205-0.551,5.978c0,21.321,14.133,44.508,17.802,49.057
		c1.795,2.226,5.485,3.216,8.41,3.216C558.756,750.024,564.436,740.363,567.897,735.907z M378.693,464.363
		c0.642,3.066,0.812,8.562,5.579,8.562c14.09,0,31.901-40.105,31.901-45.33c0-6.041-2.635-6.78-4.65-6.78
		C401.454,420.815,380.593,437.121,378.693,464.363z M386.194,516.517c0,3.262,0.512,6.281,1.626,8.788
		c4.289-1.726,2.391-11.738,35.171-17.342c30.296-5.18,44.441-17.861,44.441-23.483c0-1.079-0.904-3.664-3.617-3.664
		c-9.087,0-34.827,22.529-49.185,22.529c-10.853,0-11.749-11.497-13.085-18.659C392.661,490.271,386.194,504.925,386.194,516.517z
		 M435.101,634.367c-1.742-2.578-5.494-7.273-5.494-14.362c0-12.204,14.14-20.993,14.14-25.589c0-5.794-26.689-26.223-26.689-35.735
		c0-1.682,0.63-3.21,2.329-4.471c0.104-0.078,0.118-0.277,0.172-0.421c-0.466-5.264-4.718-9.106-10.174-9.106
		c-1.818,0-5.853,0.374-5.853,3.42c0,13.987,14.471,14.287,26.222,31.971c3.438,5.173,8.661,7.504,8.661,11.23
		c0,8.1-24.029,8.573-24.029,21.298c0,1.008,0.396,12.615,18.893,21.471C433.724,634.285,434.288,634.245,435.101,634.367z
		 M569.043,695.954c2.792,0,5.602-0.475,8.545-1.415c-4.312-5.398-35.153-37.167-38.743-37.167c-1.012,0-3.223,1.851-3.223,6.064
		C535.622,674.791,547.774,695.954,569.043,695.954z M533.976,563.935c-6.824,2.971-20.542,18.139-39.143,18.139
		c-6.81,0-10.484-1.795-17.834-3.875c-0.097,0.138-0.194,0.277-0.292,0.415c2.56,1.742,29.712,22.053,32.604,22.053
		C512.651,600.666,516.844,593.123,533.976,563.935z M200.575,461.02c-0.475,2.578-0.749,5.062-0.749,7.455
		c0,18.719,13.625,18.907,17.384,18.907c1.66,0,3.065,0.098,3.065-1.235C220.275,482.006,208.649,465.683,200.575,461.02z
		 M553.316,549.755c0-0.507-0.006-1.071-0.006-1.787c-9.743,5.666-9.807,5.48-9.807,6.569c0,6.543,0.28,9.965,0.285,10.028
		c0.455,6.153,6.786,3.857,7.426,10.867c0.418,4.578,1.326,15.708,1.326,16.799c0,0.568-0.024,1.137-0.024,1.705
		c0.178,0.042,0.356,0.084,0.533,0.126c2.946-7.59,3.335-9.372,3.335-11.152c0-4.376-3.465-9.797-3.465-16.543
		C552.918,564.174,553.316,551.217,553.316,549.755z M534.354,559.487c-0.085-0.113-0.171-0.226-0.256-0.339
		c-24.48,12.896-28.808,15.606-45.946,15.606c-3.916,0-6.189-0.234-12.705-0.726c0.664,1.232,12.401,5.095,19.104,5.095
		C505.38,579.123,515.537,575.138,534.354,559.487z M891.891,327.555c-19.226,5.776-11.174,3.459-30.325,8.705
		c3.85,1.244,8.01,1.917,12.155,1.917c9.993,0,19.101-4.547,19.101-7.136c0-0.671-0.204-1.549-0.535-2.835
		C892.251,328.065,892.132,327.944,891.891,327.555z M233.621,477.495c0.081,0.166,0.161,0.332,0.242,0.497
		c8.084-3.647,11.084-4.252,14.052-4.252c4.239,0,8.036,1.672,11.202,5.069c5.08,5.451,9.582,7.249,14.94,9.808
		c-2.935-5.632-17.687-9.397-24.183-23.438C244.374,469.347,238.998,473.421,233.621,477.495z M804.644,325.55
		c0.333,0.132,1.296,0.579,1.91,0.579c8.018,0,15.816-5.306,15.816-8.684c0-1.279-2.304-1.925-3.588-1.925
		C812.654,315.52,806.524,323.419,804.644,325.55z M319.154,516.67c-0.518-0.708-0.747-1.075-1.028-1.397
		c-16.83-19.246-11.58-15.782-18.863-22.943C300.486,497.437,313.091,512.832,319.154,516.67z M292.106,518.03
		c0,2.688,1.628,7.178,3.866,10.36c0.347-1.118,0.508-2.27,0.508-3.387c0-3.715-1.773-7.055-4.345-7.555
		C292.116,517.63,292.106,517.825,292.106,518.03z M309.622,540.356c0-1.063-0.067-2.147-0.219-3.26
		c-1.022,2.02-2.012,9.202-2.012,13.345c0,0.88,0.045,1.623,0.143,2.15C308.572,548.433,309.622,544.552,309.622,540.356z"/>
</g>
</svg>
