<?xml version="1.0" encoding="iso-8859-1"?>
<!-- Generator: Adobe Illustrator 22.1.0, SVG Export Plug-In . SVG Version: 6.00 Build 0)  -->
<svg version="1.1" id="Layer_1" xmlns="http://www.w3.org/2000/svg" xmlns:xlink="http://www.w3.org/1999/xlink" x="0px" y="0px"
	 width="1000px" height="1300px" viewBox="0 0 1000 1300" enable-background="new 0 0 1000 1300" xml:space="preserve">
<g>
	<path fill="#42210B" d="M581.963,572.502c1.584,0.406,2.299,0.827,2.299,1.586c0,2.01-5.628,7.146-5.628,12.381
		c0,2.848,3.066,1.933,3.066,3.551c0,0.817-1.07,1.804-1.783,1.898c-0.682,0.09-1.372,0.116-2.074,0.116
		c-0.942,0-1.906-0.046-2.903-0.046c-0.81,1.586-1.136,3.286-1.136,4.972c0,7.737,3.819,30.95,3.819,31.489
		c0,6.804-7.563,13.995-19.87,13.995c-2.646,0-2.96-0.186-4.626-0.4c-4.084,5.241-7.127,13.103-7.133,18.469
		c15.296-4.337,95.209-16.672,111.047-16.672c9.654,0,13.051,3.066,32.648,14.509c1.054-1.023,2.161-1.368,3.322-1.368
		c8.989,0,16.333,9.321,28.833,9.321c1.796,0,2.244-0.136,3.828-0.136c11.383,0,7.961,2.913,86.463,39.574
		c94.457,44.112,44.862,22.211,143.256,123.173c4.963,5.093,7.061,13.801,7.061,14.802c0,67.104-123.241,72.082-247.385,72.082
		c-64.909,0-77.752-7.121-126.484-7.121c-85.21,0-97.074,88.851-149.278,156.118c-1.747,2.251-3.112,35.224-3.112,38.5
		c0,18.591,2.272,44.557,30.654,82.297c23.451,31.183,22.634,33.836,24.292,34.758c0.809,0.449,1.016,1.052,1.016,1.729
		c0,1.145-0.169,2.3-1.985,2.427c-2.684,0.187-10.984,7.522-38.849,7.522c-37.183,0-172.036-14.612-230.154-14.612
		c-35.542,0-67.43,2.454-67.504,2.454c-1.69,0-2.517-0.793-2.517-2.253c0-1.926,1.11-2.452,1.11-17.688
		c0-52.05-56.737-144.333-56.737-236.162c0-26.463,4.995-43.865,4.995-46.95c0-3.548-10.36-49.161-10.36-60.16
		c0-0.169,0.003-2.064,0.003-5.234c0-11.544-0.037-23.089-0.037-34.633c0-287.342,97.309-594.813,159.489-594.813
		c10.412,0,14.402,5.024,24.473,5.987c26.128,2.5,255.644,107.053,265.012,116.934c25.263,26.648,48.604,7.652,114.896,29.401
		c43.145,14.155,78.693,10.084,78.693,18.56c0,11.964-31.358,15.874-43.264,16.878c0.186,0.989,1.108,1.427,2.008,1.611
		c3.653,0.747,4.578,1.001,7.189,1.001c17.296,0,25.38-7.805,39.367-7.805c4.895,0,10.31,1.745,10.31,5.016
		c0,11.732-37.793,23.515-37.866,23.542c-0.051,0.018-0.062,0.149-0.226,0.586c1.279,0.122,2.532,0.201,3.772,0.201
		c5.546,0,31.084-5.644,35.724-5.644c5.594,0,10.876,3.306,10.876,6.385c0,1.401-4.036,23.963-53.086,23.963
		c-8.729,0-10.646-0.711-17.087-1.509c-3.873,4.254-6.821,9.241-10.054,14.799c7.972-2.31,9.427-3.605,13.705-3.605
		c6.253,0,14.281,6.073,31.916,6.073c7.482,0,33.048-2.849,36.156-2.849c4.258,0,4.742,2.086,4.742,3.149
		c0,7.71-44.174,30.343-101.947,30.343c-45.304,0-79.78-65.911-97.368-71.473c30.786,50.43,37.61,45.469,37.61,61.666
		c0,7.517-11.613,58.85-14.449,58.85c-0.676,0-1.609-0.371-1.609-1.544c0-0.223,0.032-0.458,0.088-0.694
		c5.765-24.589,0.197-17.584,5.685-52.363c-17.808-13.493-17.676-12.473-18.87-12.473c-2.133,0,7.765-0.06-47.812,3.486
		c-17.149,1.094-6.256,25.62-49.603,25.62c-0.105,0-0.131,0-0.234,0c-1.332,0-2.665,0.046-3.997,0.06
		c-6.601,0.069-12.424,5.707-12.424,9.793c0,0.36,0.038,0.555,0.038,1.232c0,9.541-11.268,14.225-19.38,14.225
		c-14.105,0-23.757-11.061-25.81-13.038c-13.89,25.559-10.231,43.82-19.485,43.82c-9.812,0-24.862-18.211-24.862-40.093
		c0-18.308,12.604-18.769,13.99-18.769c4.783,0,14.529,4.967,14.529,10.223c0,1.675-1.048,3.123-3.123,4.361
		c-1.022,14.561-0.679,12.383-14.668,14.521c1.385,3.372,2.631,3.96,13.771,13.151c0-0.328,0.023-0.717,0.023-1.125
		c0-0.887-0.271-2.415-0.271-5.564c0-22.05,11.838-24.091,11.838-32.529c0-4.043-12.564-11.632-22.603-11.632
		c-7.603,0-11.908,3.716-12.72,6.532c-3.158,10.946-5.181,16.721-5.181,24.011c0,5.737,1.21,11.395,3.098,16.911
		c8.369,24.446,11.375,23.897,19.601,24.049c18.657,0.345,19.774,4.131,19.774,28.952c0,4.94-0.255,7.092-0.255,7.913
		c0,2.504,1.087,4.446,3.012,6.357c2.101-3.481,0.047,0.058,5.421-10.383c15.951-30.989,52.485-38.777,57.462-38.777
		c19.836,0,42.9,27.179,42.9,43.102c0,19.329-42.199,52.964-59.172,52.964c-20.859,0-31.305-27.078-45.471-39.827
		c-0.84,0.975-1.027,2.063-1.027,3.17c0,8.764,56.139,78.741,78.624,78.741c15.198,0,16.8-23.346,26.483-24.233
		c-8.427-7.884-12.576-17.54-15.583-28.315c-0.779-0.476-2.833-1.26-2.833-2.975c0-0.047,0.007-1.242,1.405-1.242
		c1.006,0,5.378,1.997,18.761,1.997c8.839,0,7.497-1.069,10.176-1.069c1.119,0,2.188,0.31,3.25,0.917
		c8.448,4.824,8.66,4.812,8.763,4.812c0,0,0,0,0,0s0,0,0,0c1.964-5.079,3.89-10.058,5.883-15.213
		c-2.984-1.544-8.239-3.602-9.676-9.299c-0.322-1.278-6.406-3.659-6.406-11.423c0-11.106,10.422-13.241,12.741-13.241
		c3.787,0,6.435,2.679,6.435,6.079c0,2.911-1.606,5.016-6.755,12.377c14.994,0.025,14.687,6.431,14.687,6.67
		c0,0.44-0.067,3.279-3.579,3.279c-1.446,0-3.282-0.291-5.077-0.291c-0.224,0-0.45,0.004-0.678,0.014
		c1.342,0.612,3.161,2.13,8.851,2.13c6.689,0,15.562-3.925,15.562-10.65c0-1.501-3.63-23.108-3.63-30.912
		c0-2.684,0.743-5.605,0.743-6.452c0-1.989-1.569-1.172-1.569-3.344c0-0.239,1.076-12.974,11.461-19.315
		c3.103-0.89,6.206-1.778,9.322-2.669c0.099-0.982,0.19-1.911,0.19-2.84c0-0.905-0.086-1.81-0.335-2.762
		c-0.59,0.358-0.918,0.503-1.182,0.725c-7.44,6.247-5.466,4.583-7.916,7.633c-1.521-0.44-2.29-0.916-2.29-1.583
		c0-1.355,11.095-11.25,12.778-11.25c1.359,0,1.906,0.723,1.906,10.315c0,1.622-0.88,2.646-2.592,2.994
		c-7.543,1.536-7.276,2.118-9.273,3.271c-3.501,1.458-7.057,6.593-7.502,10.561C576.885,579.731,579.424,576.116,581.963,572.502z
		 M487.943,776.762c-5.643-0.449-16.341-1.13-16.413-1.13c-1.532,0-2.676,0.54-3.739,1.861c-4.233,5.26-10.694,13.476-15.471,13.476
		c-4.053,0-4.635-9.063-4.635-10.682c0-4.29,2.817-17.564,2.817-19.811c0-8.317-18.492-14.798-18.492-50.324
		c0-12.41,6.69-35.281,6.762-35.331c0.473-0.327,1.02-0.746,1.534-0.746c0.32,0,0.812,0.751,0.855,1.187
		c0.018,0.181,0.026,0.364,0.026,0.548c0,3.893-6.062,20.74-6.062,34.253c0,36.994,18.822,39.286,18.822,51.318
		c0,0.079-0.001,0.158-0.002,0.237c0.587-1.022,0.992-2.012,1.332-3.024c12.715-37.815,10.115-33.868,25.724-49.879
		c-29.491-19.539-38.733-36.429-42.083-36.429c-1.039,0-2.284,0.755-4.607,2.125c-11.147,6.575-12.092,10.922-16.246,10.922
		c-5.07,0-68.721-20.756-69.819-21.741c-0.295-0.264-0.618-0.886-0.618-1.222c0-0.259,0.653-0.791,0.653-2.33
		c0-1.138-0.349-2.283-0.349-3.408c0-19.105,5.866-27.615,15.122-65.691c-0.18-0.072-0.36-0.143-0.54-0.215
		c-15.826,29.925-23.415,41.244-30.17,58.531c-0.519,1.328-1.262,1.917-2.326,1.917c-2.806,0-27.763-15.511-29.21-15.524
		c-1.503-0.014-2.31-0.888-3.166-1.861c-1.856-2.112-2.974-2.257-2.974-3.818c0-0.374,0.068-0.495,0.068-0.822
		c0-0.95-0.652-1.536-1.606-2.03c-7.001,3.49-4.63,5.433-23.558,21.909c-13.545,11.79-20.64,26.468-20.64,28.582
		c0,10.191,23.027,58.744,23.027,99.559c0,9.42-1.677,23.857-8.705,23.857c-10.532,0-24.667-34.145-24.667-78.575
		c0-32.513,6.59-41.166,6.59-45.809c0-0.529-7.856-49.01-13.898-67.747c-1.105,0.763-0.177-2.096-4.597,39.716
		c-5.303,50.158-39.412,58.075-47.255,58.075c-29.953,0-39.282-48.776-39.282-66.256c0-35.823,21.196-97.186,46.634-97.186
		c21.604,0,34.017,36.585,42.294,49.675c0.183-0.431,0.291-0.584,0.312-0.747c24.981-200.255,43.324-218.914,44.643-230.807
		c0.303-2.733,1.276-5.075,2.959-6.973c-34.839-38.565-36.613-83.379-36.613-87.934c0-28.8,20.091-37.193,21.627-38.016
		c-0.197-1.366-7.667-3.34-12.361-3.34c-59.619,0-156.845,309.251-156.845,585.518c0,59.553,6.655,88.928,9.789,98.372
		c5.344-13.396,28.759-121.07,114.797-121.07c45.179,0,47.66,40.382,47.66,84.51c0,118.736-49.636,150.964-80.104,150.964
		c-59.667,0-76.906-80.132-82.372-98.97c-1.451,5.514-3.991,22.539-3.991,38.402c0,93.377,56.846,184.035,56.846,236.763
		c0,6.575-0.422,8.263-0.422,11.804c0,1.673,0.066,3.378,0.066,5.154c2.663-0.145,27.287-2.195,65.973-2.195
		c72.143,0,173.389,14.514,230.741,14.514c14.335,0,26.158-1.784,36.397-6.927c-23.068-37.099-55.241-65.191-55.241-117.61
		c0-8.867,1-19.612,2.046-35.091c-0.311-0.035-0.451-0.072-0.528-0.072c-0.546,0-9.166,7.191-20.448,7.191
		c-73.812,0-116.976-127.886-116.976-173.884c0-90.348,82.773-86.113,92.688-86.113c85.292,0,79.927,42.318,79.927,49.693
		c0,32.56-30.698,120.417-30.698,192.724c0,0.365,0.019,0.731,0.019,1.096c32.512-26.637,55.52-154.259,148.072-154.259
		c56.988,0,58.53,7.082,129.798,7.082c251.019,0,241.661-43.377,241.661-59.065c0-0.627-0.044-1.26-0.044-1.883
		c0-1.88,0.64-2.781,0.64-6.122c0-8.772-5.367-14.186-10.336-19.169c-31.543-31.636-69.036-85.845-92.859-96.898
		c-132.261-61.365-119.983-60.343-131.015-60.343c-1.086,0-1.494,0.063-1.881,0.063c-0.515,0-1.035-0.074-1.549-0.074
		c-0.377,0-0.821,0.071-1.826,0.071c-9.48,0-15.98-7.191-25.423-9.092c-5.339,15.85-4.673,11.289-21.845,44.714
		c1.079,0.787,2.003,1.519,2.983,2.165c131.247,86.485,117.961,90.133,124.786,90.133c0.126,0,23.821-0.306,24.634-0.306
		c78.401,0,86.75,33.887,86.75,41.798c0,46.79-43.094,60.887-63.101,60.887c-45.955,0-39.195-45.065-41.137-75.889
		c-0.684-10.856-7.806-23.474-12.419-23.474c-0.189,0-36.809,0.528-43.296,0.528c-78.814,0-153.364-15.203-154.861-15.203
		c-1.703,0-2.6,0.149-2.818,0.149c-0.461,0-1.111-0.245-1.284-0.565c-1.583-2.919-20.49-1.723-48.877-4.564
		c-0.065,0.56-1.122,19.092-10.398,19.092c-4.251,0-6.422-4.394-8.304-9.664c-4.403-12.331-6.68-10.824-11.33-11.367
		c-4.401,13.413-2.519,30.316-11.516,30.316C495.392,808.936,494.646,803.846,487.943,776.762z M729.492,392.621
		c-1.159-0.366-2.236-0.852-3.363-1.04c-102.655-17.098-106.507-28.004-152.994-28.004c-2.396,0-3.168,0.639-3.695,0.639
		c-1.838,0-21.695-4.679-34.027-18.555c-7.057-7.94-234.91-111.42-263.236-115.016c0.556,1.825,22.911,21.097,22.911,82.434
		c0,35.253-5.73,35.099-5.73,36.793c0,0.072,0.048,0.162,0.061,0.162c0.002,0,0.004-0.002,0.004-0.008
		c0-0.008-0.003-0.022-0.009-0.044C343.68,360.65,409.64,379.33,426.291,379.33c3.79,0,10.034-0.89,21.626-0.89
		c35.204,0,40.934,11.274,92.658,35.023c62.275,28.594,75.43,88.33,124.82,88.33c3.591,0,21.238-0.06,35.454-2.361
		c-0.024-0.198-0.048-0.395-0.071-0.593c-57.703-5.313-53.118-9.11-68.077-18c-25.133-14.936-46.939-58.137-46.939-80.754
		c0-6.754,3.559-16.226,13.313-16.226c8.051,0,15.725,7.258,19.192,11.8c48.676,63.776,24.914,70.847,58.421,75.723
		c3.281-5.001,6.555-9.991,9.973-15.2c-6.922-1.708-13.8-3.405-13.8-10.27c0-7.907,9.829-7.882,10.565-7.882
		c5.476,0,12.32,3.791,12.32,8.701c0,2.525-1.425,4.54-2.897,7.213c1.926,0.76,13.334,1.595,17.101,1.595
		c37.071,0,43.809-13.143,47.593-20.652c-1.986-2.309-4.526-3.582-7.336-3.582c-1.811,0-31.549,5.788-37.209,5.788
		c-6.722,0-9.106-2.524-12.242-2.524c-1.729,0-4.917,0.836-9.118,0.836c-9.347,0-15.976-5.556-15.976-9.89
		c0-4.403,6.079-7.196,10.745-7.196c11.717,0,12.415,12.754,17.547,12.754c0.95,0,36.22-8.789,41.221-21.25
		c-2.073-1.549-4.48-2.258-7.248-2.258c-12.482,0-21.93,7.791-37.596,7.791c-11.238,0-13.249-2.195-14.31-4.794
		c-1.5-3.675-14.246-1.593-14.246-11.423c0-8.028,9.807-8.894,12.065-8.894c4.484,0,9.406,3.345,9.406,8.061
		c0,2.15-1.175,3.659-3.675,7.872c1.715,0,3.26,0.083,4.73,0.083c8.336,0,26.25-5.447,32.724-9.383
		C728.477,395.993,729.397,394.683,729.492,392.621z M386.015,819.368c-13.296,1.085-86.094-0.697-86.094,83.293
		c0,37.217,40.027,170.383,112.744,170.383c9.379,0,22.662-5.188,22.984-11.432c5.472-105.886,31.03-161.817,31.03-196.809
		C466.68,837.411,449.304,820.51,386.015,819.368z M262.479,875.573c-1.986-39.444,1.317-84.46-45.616-84.46
		c-78.125,0-112.541,108.982-112.541,125.516c0,1.362,16.584,103.658,80.929,103.658c10.448,0,19.988-2.852,28.339-9.781
		C255.922,975.382,259.099,941.473,262.479,875.573z M436.417,382.092c-0.06-0.076-0.12-0.152-0.18-0.227
		c-2.039,0.092-4.597,0.604-9.409,0.604c-18.489,0-124.07-29.139-139.17-29.139c-26.029,0-55.872,231.685-55.872,245.667
		c0,5.457-0.639-11.421,15.748,72.63c2.19-2.964,6.657-12.889,20.335-25.205c15.258-13.739,21.251-22.569,25.387-22.569
		c1.024,0,1.962,0.67,3.45,2.022c0.111,0.101,0.325,0.086,0.611,0.154c9.208-10.49,16.704-22.241,24.012-33.905
		c-16.95-27.8-17.173-58.616-17.173-61.842c0-17.713,6.661-32.421,12.246-42.051c10.099-17.415,22.05-16.169,25.579-16.513
		c-3.395-10.067-3.525-10.019-3.525-13.564c0-15.662,14.308-27.005,14.573-27.225C399.897,392.114,392.531,397.9,436.417,382.092z
		 M566.252,437.3c-8.901,11.344-97.238,71.717-137.259,71.717c-19.883,0-30.138-13.293-30.138-28.842
		c0-26.75,43.01-66.615,90.677-66.615c29.83,0,67.848,13.059,67.921,13.078c-0.672-0.906-1.451-1.538-2.32-2.002
		c-78.179-41.764-81.792-41.749-97.672-41.749c-27.595,0-59.522,15.726-74.387,27.3c-31.053,24.177-40.745,32.888-40.745,47.386
		c0,4.672,1.427,9.197,2.612,13.742c0.245,0.941,0.891,1.247,1.746,1.484c10.014,2.778,21.543,19.085,21.543,35.666
		c0,5.047-0.784,7.473-1.148,10.84c2.933-6.35,2.723-17.658,18.574-17.658c11.306,0,25.98,7.998,25.98,14.6
		c0,10.597-11.789,11.115-11.789,32.323c0,4.841,0.52,8.777,0.52,10.35c0,0.062,0.19,2.725-1.687,2.725
		c-2.865,0-4.096-5.244-12.499-10.984c-4.481-3.061-6.448-7.37-6.448-8.833c0-0.897,0.532-1.518,1.728-1.949
		c9.121-3.289,13.033,1.466,13.033-8.22c0-0.854-0.04-1.75-0.104-2.716c-6.849,3.983-8.531,6.251-13.432,6.251
		c-1.693,0-2.614-0.95-2.614-2.547c0-8.975,18.108-8.215,19.21-8.276c0.066-0.312,0.097-0.606,0.097-0.882
		c0-1.108-0.496-1.939-1.246-2.523c-1.724-1.343-5.809-4.492-10.161-4.492c-3.584,0-10.867,2.629-10.867,15.643
		c0,15.439,11.252,36.931,21.927,36.931c3.461,0,5.172-11.347,8.059-22.203c2.326-8.745,8.965-22.403,11.128-22.403
		c2.364,0,10.047,13.809,26.105,13.809c3.942,0,16.254-2.189,16.254-11.302c0-0.486-0.025-0.611-0.025-1.017
		c0-5.64,6.799-12.474,14.38-12.755c52.801-1.959,33.105-24.586,54.663-25.761c47.715-2.602,44.789-3.589,48.547-3.589
		c1.389,0,2.716,0.324,3.918,1.191c16.815,12.12,17.584,11.741,17.584,15.107c0,2.19-2.634,10.308-2.634,25.288
		c0,0.414,0.08,0.83,0.119,1.244c1.301-1.198,6.804-28.549,6.804-32.13c0-6.251-3.223-12.368-7.027-16.201
		C581.157,464.195,577.25,453.159,566.252,437.3z M791.52,797.208c0.498,0,0.997,0.004,1.495,0.004
		c0.058-0.206,0.115-0.413,0.173-0.619c-39.366-38.43-94.953-68.797-126.158-91.598c-2.26-1.651-26.438-3.267-33.424-3.267
		c-14.226,0-8.952,22.606-74.679,44.908c0.118,1.341,0.309,2.491,0.309,3.635c0,6.369-0.134,8.382-0.262,9.897
		c-0.359,4.237-5.085,6.15-6.724,6.15c-1.401,0-4.039,0.097-8.463-11.694c-1.626,0.842-3.065,1.588-4.671,2.42
		c0.826,6.702,1.646,13.35,2.448,19.859c9.859,1.658,19.477,2.43,29.148,2.43c1.405,0,1.789-0.013,2.8-0.013
		c17.08,0,92.591,18.359,178.298,18.359C761.739,797.679,789.016,797.208,791.52,797.208z M451.494,782.753
		c0,1.582,0.34,3.183,0.922,4.816c9.051-2.009,18.815-25.514,32.62-47.528c2.185-3.484-0.254-8.679,3.631-19.634
		c0.407-1.148,1.411-2.012,2.761-2.012c3.841,0,3.527,6.23,3.527,6.665c0,9.768-5.796,12.025-5.796,16.116
		c0,23.847,5.881,50.615,5.888,50.688c0.335,3.556,1.943,6.996,3.045,10.471c0.111,0.349,1.275,3.537,3.841,3.537
		c6.456,0,9.127-41.533,9.127-43.98c0-1.08-0.008-2.16-0.008-3.239c0-1.895,0.024-2.133,0.024-3.808
		c0-18.478-5.783-16.073-5.783-27.352c0-1.345,0.548-8.778,4.215-8.778c1.947,0,4.471,2.315,4.471,12.101
		c0,2.521-0.236,5.045-0.236,7.567c0,9.683,13.596,58.166,19.641,58.166c2.229,0,6.066-4.752,6.066-10.295
		c0-7.392-5.446-36.12-5.446-54.229c0-3.578,0.137-4.834,0.137-5.932c0-7.036-4.082-8.099-4.082-14.904
		c0-2.398,1.053-6.636,3.419-6.636c4.261,0,3.717,10.469,3.945,16.274c0.08,2.047,10.726,42.353,15.01,42.353
		c0.65,0,1.364-0.419,2.177-1.224c0.219-0.217,2.011-1.21,2.011-7.568c0-3.332-3.528-20.909-3.528-28.073
		c0-12.999,9.603-20.064,9.603-28.111c0-1.207-0.141-1.509-0.141-2.367c0-3.01,2.063-5.73,3.69-5.73c2.562,0,2.534,5.642,2.67,6.573
		c2.82-1.314,5.756-2.755,8.752-4.054c5.708-2.475,6.054-10.229,9.448-10.229c3.402,0,3.642,6.847,11.433,8.926
		c9.213,2.458,11.607,2.352,12.248,2.352c9.379,0,20.672-10.853,35.558-10.853c11.293,0,26.607,4.408,26.682,4.427
		c4.612-8.937,9.235-17.896,13.886-26.907c-19.889-14-27.774-13.393-30.966-13.393c-0.436,0-18.105,0.435-40.456,4.827
		c-51.265,10.074-63.853,5.137-83.395,19.769c0,1.043,0.021,2.11,0.021,3.185c0,11.621-8.441,7.818-9.484,10.01
		c-0.832,1.748-2.361,2.162-4.014,2.454c-7.167,1.264-9.016,24.144-27.139,24.144c-2.354,0-4.715-0.426-7.071-1.226
		c-5.391,4.959-13.848,11.523-18.317,25.773C460.16,754.817,451.494,777.577,451.494,782.753z M143.317,635.234
		c0,41.599,17.527,68.351,36.067,68.351c10.716,0,31.01-10.674,39.154-31.956c5.832-15.241,9.78-69.739,9.78-69.813
		c0-3.475-19.923-55.531-41.331-55.531C163.209,546.286,143.317,609.786,143.317,635.234z M563.901,434.791
		c-7.035-8.621-54.006-18.052-74.157-18.052c-49.508,0-87.903,41.223-87.903,63.027c0,3.45,0.639,6.939,1.961,10.452
		c1.49,3.961,6.35,15.748,25.2,15.748c40.466,0,124.868-61.015,132.379-67.816C562.42,437.211,563.104,435.879,563.901,434.791z
		 M823.696,800.284c-7.344,0-14.76,0.038-22.354,0.038c21.172,34.903-7.076,96.224,46.947,96.224
		c12.028,0,60.123-9.034,60.123-57.001C908.412,803.418,841.731,800.284,823.696,800.284z M437.585,669.2
		c-17.439-21.461-27.396-30.834-27.396-38.98c0-3.661,1.421-4.926,1.421-6.691c0-0.806-0.31-1.547-1.076-2.272
		c-0.522-0.494-0.861-1.177-1.307-1.755c-1.382-1.79-2.13-3.75-2.13-6c0-0.824,0.299-4.366,0.299-8.014
		c0-21.223-1.152-21.829-4.769-24.237c-7.283-4.847-18.468,1.566-24.298-6.39c-5.88-8.026-13.379-27.288-13.379-39.654
		c0-3.769,0.364-5.838,1-10.647c-0.054,0.11-4.4,9.354-4.4,11.857c0,2.895,3.368,17.263,3.368,25.672
		c0,14.726-7.692,37.796-28.221,37.796c-7.162,0-10.813-4.001-13.212-5.318c-7.62,12.122-15.348,23.968-24.934,34.832
		c4.959,4.859,30.722,18.405,30.795,18.442c0.043-0.073,32.372-66.186,35.844-66.186c1.727,0,1.836,2.109,1.836,3.261
		c0,15.422-15.913,49.276-15.913,70.409c0,3.176,0.214,3.72,0.462,6.287c0.074,0.024,60.512,20.501,65.847,20.501
		C421.625,682.113,422.394,676.49,437.585,669.2z M459.252,663.162c0.048,0,0.197,0.003,0.466,0.003
		c15.766,0,56.263-32.662,56.263-49.829c0-14.479-22.371-40.04-39.527-40.04c-28.257,0-60.742,37.124-60.742,49.16
		c0,0.976,0.93,1.595,2.849,3.974C440.69,653.863,446.917,663.162,459.252,663.162z M291.979,318.319
		c0-2.626-0.074-5.275-0.215-7.956c0.013-0.798,0.02-1.595,0.02-2.392c0-48.923-19.97-76.94-25.468-76.94
		c-9.083,0-22.881,15.082-22.881,33.759c0,34.373,20.172,73.306,35.602,86.685c0.357,0.309,1.029,0.559,1.544,0.559
		c0.163,0,0.31-0.025,0.426-0.081C285.945,349.575,291.979,347.679,291.979,318.319z M652.469,468.844
		c1.521,0,3.083,0.031,4.741,0.031c-6.024-8.868-35.902-82-58.27-82c-0.241,0-9.899-0.003-9.899,13.544
		c0,1.501,2.766,95.193,118.372,95.193c1.347,0,2.714-0.389,4.693-0.687c-3.589-3.614-18.551-15.952-40.872-15.952
		c-7.63,0-15.429,0.876-18.212,0.876c-5.698,0-12.662-4.049-12.662-6.518C640.362,471.091,643.955,468.844,652.469,468.844z
		 M323.179,589.256c37.368-54.96,23.846-34.83,33.612-51.363c0.614-1.04,0.904-2.06,0.904-3.127
		c0-0.073-12.772-53.173-14.661-59.505c-1.385-0.182-1.308-0.252-2.404-0.252c-22.316,0-33.364,37.076-33.364,55.26
		C307.267,539.996,309.839,567.211,323.179,589.256z M246.681,683.824c-0.523,1.601-5.069,14.059-5.069,37.147
		c0,54.148,17.437,76.958,21.624,76.958c3.156,0,5.68-9.391,5.68-20.113C268.917,743.31,246.955,684.248,246.681,683.824z
		 M561.7,710.846c-0.173-0.052-0.347-0.105-0.52-0.157c-2.415,5.675-5.058,10.635-5.058,16.728c0,3.876,0.197-0.197,2.175,16.104
		c64.381-21.57,59.023-44.93,75.301-44.93c7.885,0,27.515,2.37,27.588,2.37c1.787,0,3.231-0.802,4.37-2.575
		c3.989-6.211,3.77-4.913,5.239-8.334c-7.169-2.265-19.981-4.113-23.706-4.113c-30.84,0-65.395,44.19-83.083,44.19
		c-3.266,0-3.371-2.501-3.371-5.729C560.635,718.082,561.376,713.64,561.7,710.846z M763.592,475.244
		c-0.115-0.199-0.23-0.397-0.346-0.596c-0.456-0.041-0.916-0.138-1.368-0.138c-3.991,0-31.007,3.026-36.983,3.026
		c-16.418,0-24.001-5.969-31.222-5.969c-5.941,0-10.015,3.902-18.939,3.902c-5.717,0-9.593-3.68-20.629-3.68
		c-6.438,0-8.364,0.923-10.307,1.435c3.125,2.164,5.891,3.466,9.072,3.466c2.007,0,11.5-0.809,18.409-0.809
		c26.921,0,42.782,15.926,43.854,18.744C755.045,486.379,762.73,476.072,763.592,475.244z M325.394,591.539
		c3.233,3.424,6.94,5.217,11.128,5.217c10.985,0,25.24-10.743,25.24-34.654c0-0.238,0.09-8.82-2.76-21.544
		C349.009,558.8,336.398,574.543,325.394,591.539z M563.956,720.908c0,1.985,0.074,4.019,0.074,6.159
		c0.897-0.133,6.46-0.479,15.193-6.955c33.388-24.76,29.797-22.182,30.533-23.153c-16.826-3.753-15.705-2.392-22.566-11.026
		c-0.592,0.968-1.176,1.687-1.51,2.508c-2.702,6.635-7.913,7.107-11.665,9.114c-7.686,4.113-8.201,4.404-8.441,6.645
		C564.905,710.447,563.956,715.403,563.956,720.908z M360.382,529.628c3.832-10.341,4.653-16.094,4.653-21.831
		c0-15.897-11.537-29.534-18.385-31.708c0.141,0.749,0.165,1.284,0.342,1.762C354.508,498.088,348.993,494.676,360.382,529.628z
		 M488.408,773.59c0.051-0.294,0.074-0.779,0.074-1.417c0-5.859-1.981-24.62-3.095-27.245c-3.523,6.306-13.25,23.301-14.652,27.745
		C476.821,772.989,482.619,773.29,488.408,773.59z M519.701,679.65c0-4.805,0.26-9.43,4.37-12.932
		c-1.24-0.586-4.039-1.555-7.431-4.538c-2.721-2.392-6.164-2.266-9.792-3.323c3.214,8.2,6.037,15.972,12.854,21.564
		C519.701,680.164,519.701,679.906,519.701,679.65z M689.269,453.61c2.892-5.073,3.395-5.645,3.395-6.742
		c0-2.148-3.486-5.684-9.624-5.684c-2.691,0-7.086,1.055-7.086,4.379C675.954,451.073,680.778,451.325,689.269,453.61z
		 M691.566,432.264c2.242,0,4.571-0.302,6.991-0.709c-0.947-1.374-5.208-10.263-12.339-10.263c-2.019,0-7.358,1.537-7.358,4.218
		C678.86,428.09,684.208,432.264,691.566,432.264z M685.949,405.837c2.525-3.976,4.194-6.092,4.194-7.966
		c0-2.442-3.629-4.587-6.562-4.587c-1.369,0-8.68,0.914-8.68,5.355C674.901,404.136,680.469,405.398,685.949,405.837z
		 M535.29,621.755c0,2.98,1.659,6.495,4.065,8.068c7.685-11.086,8.859-12.334,8.859-14.534c0-1.839-1.353-3.128-3.33-3.128
		C541.158,612.161,535.29,616.364,535.29,621.755z M514.711,758.099c-0.186,0.036-0.371,0.072-0.557,0.107
		c-0.163,5.807-0.326,11.613-0.493,17.547c2.242,0.218,4.288,0.418,6.823,0.664C518.481,770.061,516.596,764.08,514.711,758.099z
		 M521.585,657.069c0.143,0.166,0.228,0.36,0.368,0.413c9.792,3.735,8.558,4.895,9.807,4.895c0.073,0,4.589-0.411,7.11-2.519
		c-7.055-3.814-7.352-4.102-8.457-4.102C529.785,655.756,523.561,656.762,521.585,657.069z M529.058,674.771
		c0-2.141-0.416-4.271-1.49-6.397c-3.363,1.641-4.565,4.672-4.565,8.296c0,1.414,0.183,2.918,0.492,4.466
		c2.308-0.733,4.935-1.196,5.222-2.797C528.931,677.146,529.058,675.957,529.058,674.771z M543.202,751.624
		c-1.947-6.271-3.792-12.216-5.638-18.16c0.042,6.793-0.039,13.514,1.26,20.436C540.4,753.081,541.667,752.422,543.202,751.624z
		 M508.437,727.759c0,2.513,0.693,5.102,2.04,7.272c0.313-1.984,0.468-3.827,0.468-5.482c0-2.961-0.495-5.322-1.463-6.813
		C508.781,724.258,508.437,725.99,508.437,727.759z M669.194,702.611c2.462-4.044,4.322-7.982,6.108-11.956
		c-0.187-0.108-0.375-0.217-0.562-0.325c-2.474,3.548-4.948,7.096-7.497,10.753C667.82,701.535,668.37,701.966,669.194,702.611z
		 M554.524,634.38c0.522,0,1.058-0.045,1.613-0.147c-0.741-1.728-2.163-2.162-3.518-2.485c-1.698-0.404-4.493-0.576-4.536-0.576
		c-0.156,0-0.486,0.528-0.486,0.807c0,0.255,0.243,0.726,0.508,0.815C550.165,633.486,552.197,634.38,554.524,634.38z
		 M491.816,725.666c0-1.241-0.191-2.485-0.586-3.671c-1.509,3.729-1.749,7.159-1.952,11.041
		C490.93,730.992,491.816,728.336,491.816,725.666z M681.389,679.001c2.669-3.166,4.788-6.616,5.64-10.719
		C684.855,671.703,682.816,675.194,681.389,679.001z M388.716,528.347c-2.685,0.293-5.297,0.691-7.204,3.648
		C384.791,531.633,386.829,530.116,388.716,528.347z M520.247,660.19c-0.109,0.155-0.219,0.31-0.328,0.465
		c1.307,1.094,2.565,2.32,4.54,2.32c0.58,0,1.222-0.106,1.945-0.352C524.037,661.689,522.142,660.939,520.247,660.19z
		 M533.942,709.917c-0.224,0.024-0.448,0.049-0.671,0.073c-0.01,0.495-0.049,0.996-0.049,1.49c0,1.077,0.183,2.123,1.245,3.019
		C534.293,712.971,534.117,711.444,533.942,709.917z M531.359,668.629c0.525-0.425,0.89-0.721,1.485-1.203
		c-1.067-0.582-1.854-1.011-2.64-1.44c-0.082,0.105-0.164,0.21-0.246,0.315C530.397,667.029,530.836,667.758,531.359,668.629z"/>
	<path fill="#42210B" d="M526.396,539.435c-18.509,2.424-16.042,2.472-17.252,2.472c-0.937,0-1.367-0.586-1.367-1.458
		c0-3.299,31.427-4.995,32.573-4.995c3.586,0,6.953,1.055,10.009,3.024c25.602,16.495,23.418,15.631,23.418,16.38
		c0,1.832-1.453,2.513-7.203,2.513c-2.824,0-5.6-0.432-8.247-1.787c-3.329-1.704-20.632-11.359-22.348-11.359
		c-0.296,0-0.618,0.047-0.968,0.145c10.048,6.47,13.719,7.582,13.719,11.868c0,0.364,0.722,0.073-6.533,19.729
		c5.276,2.651,4.627,1.997,5.156,2.488c0.42,0.389,0.768,1.106,0.768,1.673c0,0.364-0.159,0.586-1.347,1.227
		c-0.121,0.065-0.267,0.083-0.423,0.083c-0.202,0-0.42-0.031-0.621-0.031c-0.067,0-0.595,0.014-1.395,0.014
		c-30.716,0-38.199-16.62-38.199-16.981c0-0.581,0.585-1.615,1.465-1.615c1.274,0,12.805,7.624,26.042,7.624
		c0.696,0,1.043-0.019,1.577-0.019c1.645,0,2.873,0.212,2.873,1.61c0,0.621-0.31,1.591-1.545,1.591
		c-0.068,0-0.433-0.008-1.324-0.008c-0.59,0-1.181,0.003-1.772,0.003c-9.739,0-14.367-3.032-16.704-3.032
		c-0.112,0-0.228,0.009-0.347,0.03c6.348,5.813,14.485,6.06,22.692,7.432c-0.19-0.602-0.27-1.166-0.27-1.703
		c0-1.744,6.499-18.051,6.499-19.773c0-1.319-0.747-2.306-2.02-3.184c-16.119-11.117-19.511-7.589-19.511-11.064
		c0-1.486,1.43-1.718,2.457-2.28C526.301,540.023,526.293,539.882,526.396,539.435z M564.171,553.83
		c0.788,0,1.607-0.138,2.463-0.455c-16.752-11.378-20.116-14.736-28.095-14.736c-2.25,0-4.617,0.344-7.178,1.009
		C552.282,545.622,557.169,553.83,564.171,553.83z"/>
</g>
</svg>
