<?xml version="1.0" encoding="iso-8859-1"?>
<!-- Generator: Adobe Illustrator 22.1.0, SVG Export Plug-In . SVG Version: 6.00 Build 0)  -->
<svg version="1.1" id="Layer_1" xmlns="http://www.w3.org/2000/svg" xmlns:xlink="http://www.w3.org/1999/xlink" x="0px" y="0px"
	 width="1000px" height="1300px" viewBox="0 0 1000 1300" enable-background="new 0 0 1000 1300" xml:space="preserve">
<g>
	<path fill="#42210B" d="M325.647,1039.533c-0.51-0.149-0.983-0.214-1.427-0.214c-1.922,0-2.164-0.708-39.656,28.807
		c-7.952,6.26-11.592,5.593-13.403,8.198c-18.821,27.072-129.207,85.319-164.952,85.319c-7.127,0-51.954,2.122-51.954-139.086
		c0-88.527,104.104-397.789,104.349-398.134c7.776-10.949,7.416-15.538,11.661-15.538c0.859,0,1.117,0.168,1.62,0.168
		c0.24,0,0.506-0.025,0.823-0.025c20.678-32.619,26.449-34.532,89.304-55.843c57.123-19.367,43.411-26.358,88.426-41.184
		c0.229-0.583,15.345-42.412,15.345-65.495c0-3.032-0.138-3.891-0.138-7.793c0-7.635,1.617-45.765,9.715-45.765
		c3.181,0,5.686,7.409,6.841,7.8c2.077,0.704,6.193,2.402,11.46,10.571c5.207-9.121,7.954-21.545,15.763-21.545
		c0.758,0,3.408,0.143,3.408,3.911c0,0.788-0.112,1.579-0.175,2.417c7.131,6.82,10.263,15.089,10.263,24.682
		c0,1.305-0.058,2.635-0.172,3.989c4.018-2.28-2.608,0.569,19.014-14.807c69.366-49.333,114.212-116.841,130.578-116.841
		c1.315,0,2.17,0.932,2.17,2.544c0,42.915-97.34,72.498-97.34,105.892c0,0.112,0.2,6.671,4.509,6.671
		c0.631,0,14.89-1.422,20.936-1.422c61.512,0,98.855,41.561,115.819,57.581c-3.574-14.647-23.928-41.06-23.928-66.207
		c0-3.291,1.059-4.66,2.415-5.651c0.722-0.528,1.266-1.298,1.988-2.06c-0.061-1.005-0.192-2.227-0.192-3.385
		c0-1.943,1.55-3.085,3.045-3.085c3.223,0,13.847,18.564,17.337,26.14c1.964,4.264-1.561-3.794,15.7,21.06
		c0.237-1.518,0.492-2.511,0.53-3.512c0.41-10.954,4.419-11.948,4.419-17.743c0-2.044-0.389-2.502-0.389-5.08
		c0-6.671,1.27-7.212,2.508-7.212c4.286,0,18.495,25.117,19.045,26.268c0.407,0.851,1.054,3.275,1.863,4.428
		c18.111,25.83,11.518,11.078,24.444,93.345c2.07,13.175-3.635,7.57,15.09,22.967c-0.577-2.437-7.264-19.636-7.264-37.578
		c0-12.952,6.352-25.731,6.352-41.427c0-3.786-0.071-5.559-2.093-23.449c-0.34-3.004-0.752-3.872-0.752-4.712
		c0-1.25,1.079-1.517,1.47-1.517c1.159,0,1.644,1.645,3.234,4.496c10.144,18.186,30.469,25.213,30.607,25.213
		c0.19,0,0.398-0.036,0.632-0.123c-49.181-36.398-9.783-133.337-92.168-146.59c3.734,9.53,2.952,10.087,4.615,12.178
		c1.484,1.866,4.268,2.677,6.433,4.027c28.604,17.84,26.563,40.409,27.336,62.356c0.801,22.735,5.444,37.669,5.444,41.729
		c0,1.436-0.615,2.162-1.447,2.162c-5.186,0-4.472-44.09-42.582-63.269c-2.098,2.898-3.983,6.356-7.527,6.356
		c-6.023,0-10.409-9.799-32.017-9.799c-24.066,0-47.355,16.486-61.425,16.486c-10.428,0-9.846-7.092-9.846-7.363
		c0-3.771,1.639-24.151,55.954-48.826c5.071-2.304,10.804-21.652,37.176-21.652c3.398,0,7.192,0.396,11.119,0.667
		c-16.749-27.069-123.067-29.791-124.071-29.791c-1.262,0-2.233-0.04-3.362,0.472c0.371,0.238,19.239,9.204,19.239,23.653
		c0,2.038,0.038,7.564-11.096,12.245c-100.464,42.234-119.73,64.023-128.56,64.023c-2.793,0-6.17-1.875-6.17-7.442
		c0-19.658,21.305-52.636,54.686-75.155c5.685-3.835,14.023-26.404,27.248-29.635c-0.546,0-1.093,0.014-1.639,0.014
		c-13.667,0-21.558-1.57-21.558-12.712c0-9.833,9.624-35.616,46.968-48.972c-4.33-0.376-26.953-0.241-26.953-19.546
		c0-15.16,24.82-47.201,66.268-47.201c35.762,0,60.558,26.542,60.558,45.954c0,9.953-4.659,14.987-9.638,20.488
		c15.993,11.838,40.806,14.148,40.978,14.148c3.697,0,13.587-5.508,32.452-5.508c15.435,0,49.793,6.784,49.793,26.032
		c0,22.479-38.438,37.748-41.447,39.083c90.392,20.951,80.559,97.939,83.551,141.673c2.62,38.296,48.361,56.666,48.361,77.371
		c0,9.379-12.73,31.447-12.73,41.253c0,11.001,7.67,6.973,7.67,9.843c0,0.055-0.061,1.67-1.97,1.67
		c-7.003,0-9.137-6.409-9.137-11.061c0-10.345,12.908-33.357,12.908-41.729c0-3.892-1.107-8.482-7.957-15.383
		c-41.545-41.856-40.028-44.004-41.485-92.275c-3.216-106.571-84.487-108.98-86.048-108.98c-3.506,0-15.425,4.476-37.537,4.476
		c-3.124,0-33.022-0.463-33.022-13.022c0-1.112,0.158-2.359,0.456-3.778c-0.829-0.222-1.668-0.488-2.525-0.67
		c-42.716-9.076-38.051-11.289-42.388-11.289c-0.515,0-1.042,0.073-1.613,0.223c-61.83,16.308-73.148,8.298-81.724,20.412
		c-10.302,14.549-7.102,9.411-9.8,13.944c13.148-5.8,29.201-15.826,67.21-15.826c15.763,0,30.148,2.652,58.839,5.082
		c63.189,5.353,66.868,27.926,71.616,29.28c93.385,26.628,45.827,115.568,91.182,145.104c5.669,3.692,21.429,18.118,21.429,29.376
		c0,1.569-0.084,2.116-0.316,2.519c-0.208,0.361-0.853,0.981-1.431,0.981c-0.492,0-1.084-0.513-1.448-0.952
		c-0.25-0.302-0.199-0.865-0.254-1.314c-2.967-24.077-25.47-17.595-47.587-44.261c-0.043-0.052-0.168-0.036-0.578-0.111
		c0.856,6.592,1.632,13.125,1.632,19.704c0,9.355-1.708,15.82-4.151,26.312c1.819-0.383,2.2-0.523,3.1-0.523
		c1.884,0,3.485,0.871,4.87,2.398c6.428,7.087,6.012,13.72,6.012,17.328c0,19.568-4.978,19.931-6.708,35.859
		c43.902,19.204,112.537,6.69,149.693,31.184c38.704,25.515,89.874,344.338,89.874,429.276c0,24.381-0.939,45.009-13.437,65.773
		c-27.581,45.824-44.957,76.474-101.404,76.474c-50.283,0-68.03-56.259-72.255-56.259c-0.074,0-79.528,47.009-180.825,47.009
		c-49.996,0-72.618-11.005-75.776-11.005c-2.907,0-19.87,13.339-52.43,13.339c-55.937,0-93.477-36.939-108.637-60.724
		C335.867,1072.49,331.952,1056.628,325.647,1039.533z M525.227,731.532c-18.9-3.269-27.15-4.464-36.695-8.249
		c-6.328-2.51-18.579,3.241-52.146-18.84c0.32,5.867,1.035,11.463,1.035,16.972c0,2.618-0.161,5.216-0.603,7.814
		c3.204,1.903,6.28,3.679,9.303,5.541c8.454,5.21,3.311,7.395,12.462,14.868c31.32,25.573,43.501,18.997,43.501,24.047
		c0,1.895-1.989,2.204-3.002,2.483c-34.297,9.454-27.053,7.221-41.938,16.078c0.05,0.515,0.075,1.024,0.075,1.525
		c0,8.246-6.187,13.676-8.19,20.899c4.427-1.19,15.99-4.415,17.819-4.415c1.56,0,1.625,1.31,1.625,1.573
		c0,0.946-0.853,1.115-1.735,1.322c-171.061,40.292-177.938,26.315-225.564,72.004c-30.503,29.262-52.535,38.863-52.535,48.156
		c0,25.762,6.159,37.676,6.159,85.064c0,80.264-56.195,128.742-61.403,133.697c0.193,0.026,0.373,0.037,0.543,0.037
		c0.599,0,21.219-6.867,29.664-10.962c110.633-53.644,113.364-69.282,113.364-101.128c0-41.985-28.828-121.755-28.828-135.653
		c0-1.405,0.684-1.889,2.446-1.889c75.179,0,43.813,237.814,201.321,237.814c9.744,0,27.483-1.039,46.728-11.626
		c-1.607-1.534-59.412-20.894-59.412-67.09c0-197.233,328.438-177.534,350.335-267.436c-3.232-1.074-17.69-3.473-22.708-4.04
		c-38.239-4.324-42.259-8.779-47.371-8.779c-14.177,0-42.982,22.289-94.871,22.289c-70.376,0-72.094-1.507-101.85-1.507
		c-5.797,0-24.636,0.133-24.709,0.133c-2.884,0-3.322-1.517-3.322-1.784c0-3.056,106.103-24.967,143.297-82.56
		c-0.251-0.214-0.501-0.427-0.752-0.641c-2.841,5.525-30.701,33.459-71.517,33.459C544.636,750.708,530.453,742.156,525.227,731.532
		z M792.963,794.941c-31.579,90.528-350.642,77.077-350.642,267.098c0,30.202,36.216,76.01,136.512,76.01
		c89.778,0,166.706-38.605,174.122-43.163c-1.049-0.061-1.483-0.109-1.899-0.109c-1.941,0-6.453,0.116-9.876,0.116
		c-10.937,0-37.61-2.455-37.61-52.339c0-96.025,89.994-181.537,90.271-184.033c1.987-17.911,3.978-29.775,3.978-42.383
		c0-5.701-0.339-11.407-0.895-17.096C796.621,795.93,796.36,795.73,792.963,794.941z M191.071,922.611
		c0.073-0.054,34.293-26.566,47.698-39.628c58.556-57.053,201.243-57.652,206.76-68.957c6.505-13.329,8.607-15.034,8.607-20.099
		c0-6.135-7.493-32.574-7.493-40.625c0-6.655,2.444-8.075,2.444-10.216c0-5.374-15.699-10.05-15.699-13.06
		c0-1.399,0.841-3.235,0.841-9.154c0-6.831-0.89-11.225-0.89-16.007c0-0.32,0.004-0.454,0.004-0.563
		c0-3.162-2.041-4.377-4.387-6.179c0,0.799,0,1.414,0,1.962c0,0.775,0.001,0.858,0.001,1.188c0,26.643-6.745,43.655-14.083,43.655
		c-6.759,0-13.642-15.358-13.642-41.863c0-14.862,2.707-25.172,3.536-29.949c-24.996-2.3-21.075-4.825-27.915-4.825
		c-11.778,0-92.383,3.691-97.496,3.691c-29.185,0-30.482-5.475-36.579-10.389c-4.794,5.436-10.862,9.664-13.371,16.988
		c2.368,0.822,3.548,2.636,3.548,4.959c0,6.864-3.85,6.112-4.191,19.318c-0.101,3.929-1.629,5.485-4.952,10.316
		c5.808,3.582,7.912,4.331,7.912,7.291c0,2.195-1.032,4.708-1.47,5.887C196.286,817.684,213.816,858.014,191.071,922.611z
		 M796.572,681.292c0.145-0.01,0.291-0.02,0.436-0.03c7.624-27.471,8.887-53.606,72.863-53.606c0.094,0,0.18,0.014,0.249,0.055
		c0.738,0.433,1.612,0.825,1.612,1.442c0,0.441-0.312,1.124-0.649,1.355c-9.142,6.254-11.594,21.523-24.031,30.112
		c-38.449,26.553-54.279,8.673-54.279,90.655c0,14.221,7.029,23.98,7.029,42.48c0,2.305-0.108,3.571-0.108,3.93
		c0,0.302,1.065,16.341,1.065,23.68c0,67.545-43.659,203.082-43.659,241.913c0,22.221,12.477,39.961,13.706,41.713
		c21.023,29.934,31.802,42.316,62.861,42.316c0.651,0,1.304-0.088,1.955-0.133c-1.142-1.51-44.54-2.983-44.54-80.383
		c0-76.509,63.666-205.106,100.085-205.106c28.296,0,47.797,81.849,47.797,128.095c0,3.089,0.141,42.707-16.35,95.307
		c0.171,0.076,0.342,0.152,0.513,0.229c13.115-21.103,21-31.131,21-76.972c0-70.036-41.261-316.459-49.32-334.48
		c-7.87-17.597-0.046-30.292-7.05-37.763c-1.862-1.987-4.456-6.966-7.394-11.49c-2.261-3.481-21.79-13.747-40.589-13.747
		c-38.193,0-45.4,34.187-45.4,46.932c0,3.891,0.781,5.312,0.781,6.137c0,0.56-0.627,1.237-0.627,3.382
		C794.526,669.943,796.489,680.796,796.572,681.292z M492.476,673.734c3.221-112.535-7.062-44.501,102.097-80.64
		c5.253-1.739,8.595-7.202,8.595-9.19c0-0.535-0.121-1.099-0.404-1.704c-22.858,11.389-22.977,11.387-47.608,11.967
		c-6.938,0.163-7.383,1.906-9.348,1.906c-0.892,0-1.477-0.618-1.477-1.412c0-2.923,22.327-25.729,43.725-25.729
		c10.562,0,25.224,7.686,28.083,7.686c1.248,0,2.249-0.73,6.53-2.89c-16.134-5.97-19.078-8.488-28.774-8.488
		c-1.835,0-3.683,0.126-5.542,0.371c-49.05,6.46-47.673,33.198-52.333,33.198c-0.503,0-1.728-0.176-1.728-1.773
		c0-37.869,25.276-30.27,42.816-41.134c22.929-14.202,33.392-15.968,36.491-17.97c-0.881-0.046-1.752-0.068-2.615-0.068
		c-22.252,0-56.528,25.222-62.733,25.222c-0.414,0-1.309-0.358-1.309-1.115c0-1.075,0.811-1.557,2.135-2.244
		c43.535-22.594,47.882-25.076,62.482-25.076c1.003,0,2.007,0.007,3.01,0.007c2.534,0,1.627-0.01,3.719-0.293
		c-3.92-3.692-57.774-50.613-57.774-81.797c0-1.231,0.116-2.472,0.375-3.723c0.646-3.126,1.243-3.818,4.071-3.818
		c0.23,0,0.475,0.005,0.736,0.013c-1.793-2.978-2.761-4.112-2.761-5.846c0-1.104,0.657-2.94,2.748-2.94
		c7.243,0,27.766,37.689,63.76,62.782c-1.033-40.003-72.12-88.967-126.342-88.967c-7.217,0-19.58,1.317-19.741,1.363
		c-0.685,0.194-1.324,0.286-1.925,0.286c-3.542,0-7.421-3.989-7.421-10.091c0-10.676,10.518-19.105,11.165-21.915
		c-59.452,47.205-62.299,46.794-63.828,53.185c-4.782,19.978-19.642,54.844-22.297,62.95c22.672-7.525,44.554-27.513,51.121-27.513
		c1.541,0,2.42,0.915,2.42,2.437c0,1.219-0.536,2.313-0.768,2.96c2.372,4.347,2.755,6.027,2.755,8.499
		c0,25.748-25.43,33.521-60.417,60.315c11.65,61.223,12.154,59.097,15.804,59.097c2.542,0,4.101-1.731,11.855-1.731
		c11.019,0,17.103,3.735,25.941,3.735c7.197,0,14.013-2.314,20.801-4.559c1.484-0.491,2.852-1.428,3.878-3.235
		c-0.95,0-1.733-0.016-2.453-0.016c-2.074,0-6.972,0.361-15.949,0.361c-30.95,0-35.74-8.98-35.74-9.279
		c0-1.476,1.393-1.708,2.16-1.988c17.164-6.263,21.63-9.663,29.834-9.663c5.665,0,9.255,1.632,13.319,3.098
		c-1.731-3.683-16.309-8.334-32.614-17.114c-23.06-12.418-32.054-9.554-32.054-12.436c0-2.458,6.509-3.584,11.355-3.584
		c11.698,0,20.205,5.011,42.979,14.048c23.721,9.413,23.729,7.077,23.729,9.233c0,0.524-0.561,1.337-1.061,1.545
		c-1.221,0.508-5.988,2.189-6.814,2.189c-1.229,0-1.529-1.172-1.529-1.524c0-0.733,0.746-1.149,1.44-1.547
		c0.143-0.082,0.223-0.273,0.385-0.482c-18.501-5.966-44.674-20.07-57.699-20.07c-0.603,0-1.21,0.029-1.821,0.092
		c0.673,0.454,1.381,0.774,2.118,1c14.397,4.422,14.956,6.77,44.174,19.79c15.08,6.72,22.337,20.373,22.337,21.079
		c0,1.106-1.069,1.527-1.609,1.527c-1.539,0-10.951-13.57-26.728-13.57c-3.409,0-6.864,0.699-10.371,2.176
		c-11.689,4.923-12.024,4.628-15.784,6.66c5.226,3.473,9.73,5.702,30.133,5.702c5.523,0,10.356-0.467,20.338-0.467
		c1.135,0,2.636,0.153,2.636,1.69c0,0.841-0.556,1.864-1.086,2.599c-3.54,4.906-7.131,5.602-12.646,7.375
		c0.719,0.406,1.399,0.523,2.083,0.588c6.248,0.595,12.711,5.746,12.711,13.406c0,22.915-21.521,73.442-47.476,76.604
		c13.744,14.937,39.954,24.376,51.394,24.376c5.261,0,6.425-1.107,20.146-7.566c0.249-6.562,0.515-13.56,0.788-20.736
		c-17.461-3.162-34.827-6.478-34.827-16.574c0-5.776,6.167-9.288,11.697-9.288C486.829,665.082,488.952,669.326,492.476,673.734z
		 M935.728,988.096c-0.602-43.527-18.641-123.099-44.516-123.099c-32.166,0-96.872,121.487-96.872,202.434
		c0,15.67,2.485,76.462,49.083,76.462C893.894,1143.893,935.23,1095.122,935.728,988.096z M57.518,1018.221
		c0,0.515,0.016,1.031,0.016,1.546c0.124,0.017,0.248,0.034,0.372,0.051c20.625-71.828,85.922-76.292,87.331-76.292
		c25.607,0,41.92,20.61,42.879,21.152c-1.235-9.738-2.894-19.22-2.894-28.414c0-1.121,0.025-2.237,0.078-3.349
		c-33.54-26.193-32.693-65.009-32.693-68.802c0-79.593,73.127-153.059,73.159-162.702c0.037-11.186,4.082-13.372,4.082-17.136
		c0-1.577-0.919-2.689-2.911-3.604c-15.054-6.912-38.45-16.232-38.45-20.618c0-0.85,0.696-1.582,1.851-1.582
		c0.781,0,35.907,9.968,40.252,9.968c0.504,0,0.958-0.083,1.16-0.319c2.506-2.924,6.328-4.735,7.524-8.789
		c0.141-0.478,0.686-0.834,1.036-1.253c2.454-2.943,0.11,0.752,9.436-14.676c-7.802-4.081,2.633,2.585-31.961-21.728
		c-3.066-2.155-19.382-5.372-19.62-5.383c-12.532-0.596-14.919-2.519-28.369-4.069C143.011,656.258,57.518,962.557,57.518,1018.221z
		 M188.969,990.234c0.16-0.022,0.32-0.045,0.48-0.067c-0.556-5.078-1.224-10.147-1.631-15.237
		c-1.316-16.484-28.766-28.152-42.703-28.152c-13.355,0-86.403,16.302-86.403,102.15c0,18.254,2.762,109.479,48.807,109.479
		c34.81,0,84.16-74.086,84.16-141.869C191.679,1006.29,191.335,1006.192,188.969,990.234z M551.34,590.855
		c3.56,0,6.86,0.086,10.052,0.086c25.959,0,37.313-12.564,41.833-12.564c1.563,0,2.989,3.157,2.989,5.406
		c0,29.968-107.779,17.506-108.501,29.964c-3.915,67.549,1.074,69.419-4.162,72.347c8.598,1.561,8.422,1.622,10.059,1.622
		c0.949,0,9.024-0.432,10.696-5.875c7.777-25.315,21.429-27.014,23.625-27.014c5.042,0,12.498,5.455,12.498,14.793
		c0,21.779-23.494,14.478-42.239,21.743c-1.625,0.63-2.23,1.558-2.249,3.244c-0.059,5.212-0.347,14.3-0.347,15.474
		c0,0.754,0.122,1.501,0.168,2.076c9.427,3.536,8.886,3.574,10.216,3.574c1.266,0,2.429-0.529,3.62-1.551
		c1.586-1.36,3.422-2.428,5.128-3.651c1.817-1.303,3.697-1.946,5.642-1.946c4.76,0,11.105,5.872,28.955,5.872
		c8.138,0,14.484-1.303,15.141-1.303c0.841,0,1.829,0.594,1.829,1.347c0,1.544-1.548,1.988-2.882,2.747
		c0.502,2.074,0.757,4.089,0.757,6.04c0,8.855-5.851,20.232-23.551,21.976c2.055,2.064,14.805,2.285,15.121,2.285
		c29.478,0,64.917-18.195,76.633-43.793c-0.175-0.127-0.349-0.254-0.524-0.382c-0.961,0.772-2.051,1.43-2.855,2.34
		c-0.851,0.964-2.811,3.011-7.212,3.011c-20.631,0-68.601-44.684-68.601-76.691c0-19.822,22.107-17.463,29.787-17.812
		c29.685-1.346,29.333-2.268,34.788-2.268c8.321,0,11.998,6.713,12.553,7.785c8.082,15.623,13.29,13.757,14.012,26.27
		c3.247-3.157,6.919-4.396,10.632-5.329c0.358-5.751,0.603-11.435,0.603-17.135c0-5.841-0.257-11.699-0.914-17.663
		c-15.832-14.148-8.48-40.543-15.882-47.715c-4.479-4.34-23.788-18.985-26.841-18.985c-0.49,0-11.306,1.076-46.238,21.214
		c-19.255,11.101-28.206-0.972-36.774,27.452c2.395-1.32,13.675-25.81,54.666-25.81c17.253,0,21.555,8.559,33.734,8.559
		c0.467,0,0.737-0.015,0.828-0.015c0.967,0,1.528,0.655,1.528,1.437c0,0.96-0.781,1.762-2.021,2.459
		c-9.307,5.229-9.72,5.511-11.578,5.511c-4.269,0-16.496-7.783-27.794-7.783C586.137,572.203,569.883,572.51,551.34,590.855z
		 M655.743,691.825c23.953,34.434,36.026,26.734,36.026,38.285c0,4.613-2.082,11.91-2.082,13.439
		c0,3.823,12.667,3.922,12.667,10.765c0,0.991-0.66,11.018-0.66,11.18c0,15.564,66.981,20.113,94.653,27.072
		c0-1.053,0.032-2.053,0.032-3.031c0-13.341-6.924-22.302-6.924-42.369c0-3.278,0.333-9.784,0.726-24.639
		c0.462-17.467,6.101-26.793,6.101-29.61c0-2.517-2.699-8.094-4.943-24.24c-5.773,2.073-11.596,2.545-17.419,2.545
		c-4.253,0-18.438-0.622-31.244-0.622C684.121,670.598,668.619,682.367,655.743,691.825z M792.716,866.305
		c-0.176-0.084-0.353-0.168-0.529-0.251c-23.62,22.821-85.416,99.431-85.416,175.862c0,48.552,25.592,50.016,36.706,50.016
		c3.884,0,12.201-0.481,16.104-1.079c-1.906-5.622-5.657-13.75-5.657-28.469C753.924,1027.726,772.009,987.553,792.716,866.305z
		 M653.338,694.258c-13.116,16.694-7.568,59.197-143.72,104.202c4.754,0.745,107.508,1.964,112.653,1.964
		c15.577,0,37.919-2.347,49.062-6.096c3.444-1.159,41.443-15.337,41.478-15.353c-5.283-2.615-14.478-5.493-14.478-14.387
		c0-1.324,0.783-6.641,0.783-9.93c0-4.528-12.724-4.363-12.724-10.804c0-2.555,2.162-9.258,2.162-13.726
		C688.555,721.511,681.506,730.839,653.338,694.258z M691.885,540.337c-0.133,0.111-0.266,0.221-0.399,0.332
		c20.066,63.966,69.513,52.717,93.313,65.313c1.375,0.728,2.027,1.701,2.027,2.861c0,3.195-10.565,16.797-38.441,16.797
		c-14.542,0-22.485-3.229-35.547-7.27c3.999,4.534,31.309,12.274,32.308,18.262c4.276-1.169,8.514-1.848,12.71-1.848
		c11.688,0,26.276,6.866,33.449,17.698c0.364-1.597,4.388-44.839,47.822-44.839c17.792,0,31.245,7.087,37.505,9.778
		C844.43,533.546,751.706,587.102,691.885,540.337z M221.783,715.812c-0.056,0.073-65.968,76.913-65.968,148.939
		c0,38.872,26.025,61.47,28.908,63.647c8.258-21.425,13.264-19.264,20.317-114.318c2.213-29.825,23.456-92.343,23.456-93.436
		C228.496,719.642,228.096,719.58,221.783,715.812z M524.442,307.809c-7.308-21.973-26.06-22.053-28.596-22.053
		c-53.571,0-111.282,58.833-111.282,90.631c0,2.483,0.734,5.007,3.218,5.007c2.576,0,10.64-4.825,11.178-5.17
		C494.794,314.696,523.181,323.089,524.442,307.809z M644.073,699.82c-2.491-5.235-4.245-7.346-4.245-13.763
		c0-18.567,11.108-33.063,11.108-41.394c0-2.945-1.064-5.724-3.255-8.4c-13.836-16.891-9.325-20.972-22.25-20.972
		c-6.835,0-21.987,2.313-35.45,2.313c-0.146,0-0.293,0-0.439,0c-6.108,0-23.164-1.063-23.164,14.503
		c0,30.545,47.495,73.472,64.524,73.472C638.201,705.578,635.543,701.456,644.073,699.82z M783.615,609.215
		c-2.997-2.699-4.351-2.188-29.972-8.367c-69.13-16.673-58.9-58.833-69.195-67.248c-2.614-2.137-1.238-3.799-6.967-6.181
		c-53.164-22.097-51.427-29.884-56.706-29.884c-0.968,0-1.315,0.344-1.766,0.344c-0.24,0-0.502-0.059-0.732-0.112
		c-13.665-3.13-14.147-5.195-19.137-8.162c0.664,5.788,0.586,10.53,5.961,14.816c103.373,82.417,57.841,49.593,87.431,96.553
		c9.038,14.343,42.906,21.48,55.68,21.48C754.448,622.452,773.34,622.327,783.615,609.215z M324.199,1035.678
		c-4.095-13.648-43.435-129.732-72.223-129.732c-0.101,0-0.203,0.001-0.307,0.004c9.013,43.128,28.547,96.64,28.547,134.447
		c0,13.322-2.171,19.497-4.515,29.594C295.814,1057.664,310.14,1040.266,324.199,1035.678z M574.787,208.617
		c2.819-3.109,9.108-8.953,9.108-18.046c0-18.824-23.728-43.291-57.06-43.291c-43.497,0-63.295,33.205-63.295,43.972
		c0,1.995,0.046,15.944,21.986,15.944c17.274,0,32.372-10.683,33.636-13.078c-16.31,1.417-16.931,2.087-20.496,2.087
		c-3.312,0-5.205-1.962-5.205-4.954c0-6.929,9.34-16.809,22.62-16.809c8.974,0,14.337,5.244,14.337,9.976
		c0,3.039-1.909,5.52-2.824,6.98c2.006,1.658,5.842,3.533,5.842,8.083c0,3.301-1.95,5.917-4.831,10.87
		c16.313,5.12,15.5,9.44,15.5,11.06c0,1.325-0.386,2.739-1.131,4.208c-0.097,0.191-0.067,0.446-0.161,1.176
		c4.113-1.831,7.885-3.51,11.836-5.269c-4.887-12.545-27.329-53.244-27.329-56.434c0-1.672,1.607-1.858,1.821-1.858
		C532.574,163.233,551.976,189.841,574.787,208.617z M405.231,625.039c3.87,41.099,18.603,66.069,26.745,66.069
		c15.78,0,43.192-45.638,43.192-71.959c0-11.214-10.058-11.7-18.962-11.7c-0.864,0-1.09,0.02-2.175,0.02
		c-15.683,0-20.519-4.362-32.485-4.362C404.47,603.107,405.409,613.449,405.231,625.039z M384.69,550.349
		c0-0.625-0.164-1.302-0.204-1.966c-50.377,20.876-132.965,88.924-133.841,89.913c0.117,0.148,0.234,0.295,0.352,0.443
		c16.24-5.896,25.756-13.505,44.613-13.505c14.774,0,20.103,3.357,37.681,3.357c20.684,0,24.165-3.466,27.369-7.946
		C370.028,607.544,384.69,550.766,384.69,550.349z M333.208,554.265c-120.002,20.81-137.614,44.374-137.614,53.006
		c0,7.925,23.907,10.918,33.943,10.918C284.14,618.19,332.081,565.632,333.208,554.265z M643.014,686.377
		c0,3.336,0.811,6.549,2.94,9.536c17.101-14.137,30.776-28.602,98.239-28.602c9.315,0,12.644,0.454,25.455,0.454
		c14.206,0,11.937-0.183,19.605-1.893c1.306-0.291,1.927-1.174,1.927-2.604c0-14.194-19.579-25.303-33.375-25.303
		c-4.627,0-14.425,1.907-22.554,4.938c-31.641,11.798-56.724,2.521-86.761,25.012c-1.324,0.991-2.233,2.368-2.63,4.06
		C644.557,677.534,643.014,681.727,643.014,686.377z M194.017,612.191c-1.142-1.784-1.633-3.5-1.633-5.163
		c0-35.154,132.38-50.862,154.103-63.767c52.202-31.013,47.917-27.008,54.477-37.842c0.245-0.404,0.241-0.959,0.403-1.661
		c-60.68,8.897-83.295,26.079-87.215,28.738c-53.531,36.307-107.853,25.648-137.794,76.562
		C178.862,610.159,189.18,611.974,194.017,612.191z M247.175,653.55c0.391,0,0.611,0.018,0.759,0.018
		c1.2,0,27.533-12.867,60.079-12.867c39.912,0,55.733,24.479,63.299,24.479c0.907,0,1.612-0.157,3.638-0.157
		c10.555,0,14.076,4.964,29.547,4.964c0.491,0,0.953-0.017,1.333-0.017c1.268-2.406,2.407-4.567,3.606-6.84
		c-3.795-11.049-6.257-22.519-7.238-34.529c-3.522,0.657-6.989,0.946-10.418,0.946c-10.126,0-19.91-2.518-29.747-5.5
		c-3.974,5.354-9.741,7.707-28.484,7.707c-13.33,0-26.389-3.318-37.766-3.318c-14.159,0-20.284,3.517-38.565,11.462
		C256.124,640.374,249.299,649.486,247.175,653.55z M516.925,238.654c-24.214,6.497-46.412,24.679-47.843,24.679
		c-0.316,0-1.202-0.205-1.202-1.226c0-2.732,14.62-17.472,48.209-29.062c2.633-13.602,1.083-8.23,5.933-20.6
		c-4.564-0.933-9.2-1.39-13.828-1.39c-40.676,0-64.675,33.206-64.675,48.663c0,7.777,4.744,9.369,16.145,9.369
		c3.566,0,42.33-3.321,68.77-13.044C523.239,250.897,518.497,245.847,516.925,238.654z M354.741,510.579
		c3.642-0.629,16.042-4.373,22.394-7.103c12.213-5.249,16.031-4.853,18.005-6.919c0.071-0.074,24.63-58.421,24.63-76.264
		c0-1.4-0.253-13.787-8.876-21.203C368.907,453.722,389.451,435.112,354.741,510.579z M543.124,260.645
		c15.038,6.293,40.335,10.318,40.408,10.318c2.684,0,10.169-15.525,42.635-15.525c22.494,0,32.157,6.856,40.932,6.856
		c3.576,0,8.42-2.581,8.42-6.724c0-15.696-42.861-27.222-55.434-27.222C614.716,228.348,543.196,260.597,543.124,260.645z
		 M407.616,496.339c-0.422,1.484-0.396,2.868-1.068,3.464c-1.687,1.496-1.843,3.462-2.333,5.375
		c-4.679,18.276-58.722,36.656-68.019,51.057c-14.847,22.997-20.538,26.135-25.689,32.261c1.871-0.814,3.408-1.924,4.9-3.092
		c50.306-39.403,57.914-32.087,76.353-45.418c30.652-22.161,59.609-34.787,59.609-56.733c0-2.712-0.604-5.135-1.97-7.061
		C435.164,483.056,421.217,489.781,407.616,496.339z M627.218,225.637c0.051,0.21,0.101,0.42,0.152,0.629
		c12.825,2.58,21.301,4.091,30.445,7.77c13.301,5.352,20.849,15.192,20.849,21.427c0,4.384-3.628,10.016-12.317,10.016
		c-9.841,0-17.918-6.837-39.534-6.837c-25.56,0-34.26,9.13-38.984,13.211c18.935,3.484,62.071,10.836,63.614,10.836
		c7.692,0,46.043-17.97,46.043-37.621c0-13.146-24.443-22.802-46.571-22.802C638.618,222.267,630.174,224.917,627.218,225.637z
		 M244.847,658.674c6.706,7.315,11.393,10.113,34.765,10.113c5.563,0,82.709-3.506,83.755-3.689
		c-23.986-21.116-51.357-21.181-55.802-21.181C281.723,643.917,256.481,653.083,244.847,658.674z M588.692,337.937
		c-33.119,13.595-54.131,34.857-54.131,45.842c0,2.634,1.753,4.119,5.133,4.119c16.886,0,36.816-16.437,63.532-16.437
		c20.354,0,27.785,9.838,31.285,9.838c2.475,0,4.379-4.681,4.44-4.806C603.587,360.114,592.28,365.308,588.692,337.937z
		 M599.2,395.121c-1.584,0.834-1.461,2.054-1.461,3.32c0,29.906,28.273,56.862,35.347,100.712
		c1.155,7.161,38.261,22.774,41.463,23.679c-13.693-13.753-25.195-13.685-29.776-30.884c-17.861-67.059-19.037-69.63-22.747-73.344
		c-6.991-7-7.276-6.088-8.947-7.922C606.969,403.979,601.94,398.028,599.2,395.121z M640.52,373.191
		c0.513-1.179,4.823-9.634,4.823-25.721c0-14.454-2.51-14.28-2.708-14.366c-6.395-2.772-12.977-4.351-19.778-4.351
		c-9.752,0-19.253,3.581-27.729,6.502c-2.701,0.931-2.921,2.453-2.921,5.2C592.207,357.856,609.503,361.621,640.52,373.191z
		 M391.432,544.932c-0.193-0.053-0.386-0.107-0.579-0.16c-3.824,5.247-11.591,46.155-26.496,76.839
		c17.316,5.205,27.414,4.716,27.876,4.716c3.995,0,6.959-0.147,9.65-1.452c0.779-12.572,1.015-17.444,4.835-20.904
		C404.628,602.749,401.743,604.774,391.432,544.932z M665.925,558.144c-5.366-7.075-24.974-20.915-30.089-25.022
		c-36.084-28.976-38.102-28.72-39.232-37.486c-0.655-5.077-1.481-14.973-1.481-15.233c0-1.535,0.647-2.786,1.984-2.786
		c1.118,0,2.334,0.838,4.06,1.756c-14.638-17.748-20.987-20.061-22.121-20.592c-3.62-1.694-7.227-5.965-14.536-10.321
		c-0.589,1.344-0.829,2.597-0.829,3.809c0,31.889,53.74,76.835,53.813,76.908c16.188,16.206,28.613,18.867,36.732,31.545
		C658.221,559.843,662.002,559.009,665.925,558.144z M642.602,414.267C642.602,414.267,642.602,414.267,642.602,414.267
		C642.602,414.267,642.602,414.267,642.602,414.267c-0.445,0-4.523,6.682-4.523,19.409c0,9.619,26.004,35.272,45.759,88.013
		c0.118-0.33,0.165-0.646,0.165-0.952c0-0.206-0.021-0.407-0.057-0.606C669.95,441.698,681.847,450.923,642.602,414.267z
		 M800.281,684.064c0,0.741,0.025,1.49,0.076,2.247c15.961-18.937,43.224-18.296,56.655-42.255c3.726-6.646,7.114-10.57,7.43-12.407
		c-0.414-0.034-0.747-0.088-1.077-0.088c-43.798,0-52.436,17.742-55.453,25.106C800.783,674.066,800.281,679.861,800.281,684.064z
		 M678.119,414.825c0.18-0.043,0.361-0.085,0.541-0.128c0-0.228,0.008-0.457,0.008-0.685c0-0.075-2.377-37.362-2.637-40.559
		c-1.949-23.92-25.927-36.598-28.373-37.696c0.575,4.163,0.882,8.275,0.882,12.347c0,9.208-1.57,18.208-5.158,27.124
		C660.769,383.392,671.695,397.143,678.119,414.825z M699.699,614.981c0.074-0.215,0.149-0.43,0.224-0.645
		c-14.123-12.981-15.838-23.014-27.677-48.752c-1.569-3.41-6.521-3.703-7.762-3.703c-3.223,0-6.285,1.203-9.359,2.479
		c-0.02,0.415-0.068,0.725-0.068,1.001C655.057,601.56,668.693,611.336,699.699,614.981z M535.747,256.854
		c1.421,0.984,1.974,1.368,2.687,1.368c4.612,0,72.959-30.966,73.126-31.063c-20.495-5.462-23.65-5.291-36.56-14.381
		c-5.478,3.554-10.816,7.017-16.291,10.568c0.599,3.129,1.024,4.816,1.024,7.658C559.732,244.51,548.134,250.937,535.747,256.854z
		 M633.631,435.892c-0.132,0.05-0.263,0.099-0.395,0.149c14.552,75.284,20.345,65.078,47.222,87.009
		C675.806,501.373,642.74,450.049,633.631,435.892z M681.847,614.915c-0.165,0.2-0.329,0.4-0.494,0.601
		c8.814,16.721,5.316,10.805,14.568,24.644c1.071,1.602,2.526,2.353,4.481,2.353c0.176,0,0.486-0.011,1.181-0.011
		c3.851,0,6.458,0.311,10.297,0.311c9.022,0,23.917-2.093,29.492-6.77c-0.082-0.042-37.327-18.22-38.352-18.22
		c-0.556,0-1.215,0.1-2.883,0.1C695.073,617.923,692.236,617.128,681.847,614.915z M457.044,788.453
		c18.473-10.376,9.777-6.739,37.736-14.615c0.031-0.259,0.061-0.518,0.092-0.776c-22.847-4.76-43.618-25.855-43.712-25.948
		c-0.124,0.334-1.258,2.659-1.258,6.744C449.903,757.975,455.429,785.59,457.044,788.453z M505.852,361.182
		c4.689-2.502,64.953-37.131,64.953-63.471c0-0.29-0.008-0.588-0.024-0.896C545.273,314.899,525.513,337.939,505.852,361.182z
		 M362.883,482.453c0.215,0.037,0.43,0.074,0.644,0.111c0.764-1.841,1.612-3.652,2.278-5.527
		c20.654-58.169,25.311-56.656,25.311-61.395c0-5.387-7.466-11.569-9.987-11.569c-5.172,0-12.238,14.725-12.238,31.548
		c0,0.953,0.043,3.786,0.043,7.278C368.933,462.201,367.687,463.883,362.883,482.453z M520.088,237.511
		c2.751,10.538,11.293,16.943,12.37,16.943c0.41,0,0.824-0.139,1.246-0.356c9.376-4.819,22.759-9.729,22.759-22.902
		c0-2.105-0.353-4.286-0.981-6.557C544.162,230.307,532.344,233.915,520.088,237.511z M415.34,727.154
		c7.513-10.448,7.954-32.393,7.954-35.924c0-0.823-0.25-1.8-0.736-2.422c-6.903-8.838-8.563-15.569-10.989-18.934
		c-0.699,2.607-2.7,13.008-2.7,26.296c0,16.53,2.073,22.02,3.405,27.112C412.655,724.737,413.317,726.205,415.34,727.154z
		 M246.433,638.218c8.989-11.479,25.561-20.319,47.331-36.959c-0.202-0.06-0.381-0.086-0.542-0.086
		c-0.943,0-32.353,20.247-63.347,20.247c-3.256,0-5.61-0.218-5.75-0.218c-0.334,0-0.718,0.162-1.629,0.36
		C230.77,627.319,238.543,632.728,246.433,638.218z M561.254,718.301c-0.065-0.241-0.129-0.483-0.194-0.724
		c-0.632,0-1.265-0.009-1.898-0.009c-1.152,0-1.232,0.029-2.369,0.029c-14.096,0-23.873-5.884-26.434-5.884
		c-3.841,0-10.129,7.3-13.904,7.3c-2.147,0-3.458-1.233-9.834-3.08c1.222,4.074,3.809,6.733,5.903,9.688
		c1.013,1.43,11.981,2.072,12.86,2.072C535.609,727.693,543.498,724.274,561.254,718.301z M530.526,731.405
		c0.595,1.147,3.993,10.668,18.143,10.668c11.611,0,22.215-6.937,22.215-18.978c0-3.444-0.38-3.416-0.843-4.611
		c-1.617,0.687-3.465,0.474-4.29,2.291c-1.241,2.732-3.371,4.667-6.132,5.542c-4.156,1.318-8.395,2.896-12.676,3.174
		C541.547,729.841,536.324,731.186,530.526,731.405z M572.17,210.812c-27.266-24.511-27.923-29.379-37.771-38.162
		c8.239,15.548,16.21,31.101,23.405,47.418C562.624,216.962,567.216,214.003,572.17,210.812z M537.745,678.9
		c0,1.256-0.556,2.424-1.778,3.497c11.536-1.009,11.305-12.45,11.305-12.727c0-5.509-4.401-11.59-9.425-11.59
		c-9.522,0-18.933,17.229-20.2,24.088c5.191-2.363,13.246-8.415,15.853-8.415C536.515,673.754,537.745,677.392,537.745,678.9z
		 M586.01,274.965c-0.687,1.355-1.051,2.478-1.051,3.451c0,5.631,16.18,9.427,30.713,9.427c0.241,0,12.354,0.132,27.081-2.8
		c-0.005-0.175-0.01-0.349-0.015-0.524C623.877,281.342,605.016,278.166,586.01,274.965z M594.717,331.302
		c0.122,0.147,0.243,0.293,0.365,0.44c11.288-3.326,17.415-6.224,27.687-6.224c8.965,0,15.198,2.484,19.765,3.813
		c-0.67-3.229-2.082-5.96-3.158-8.814c-0.771-2.046-2.02-3.027-4.218-3.141c-3.578-0.185-6.456-0.807-10.503-0.807
		C605.179,316.568,596.152,329.431,594.717,331.302z M517.463,190.826c0.01,0.098,0.019,0.197,0.029,0.295
		c0.871,0,1.743-0.024,2.614-0.024c1.373,0,1.674,0.056,2.046,0.056c0.868,0,1.569-0.264,2.089-0.998
		c1.542-2.177,2.992-3.772,2.992-5.808c0-3.094-5.181-6.738-11.45-6.738c-10.285,0-19.075,8.106-19.075,13.643
		c0,1.28,0.856,1.729,2.481,1.729C501.075,192.982,502.172,192.793,517.463,190.826z M705.743,646.354
		c-0.027-0.07-0.053-0.139-0.08-0.208c-33.229-2.948-33.201-2.864-34.22-2.864c-15.773,0-16.667,8.142-21.872,19.223
		C672.161,649.727,679.203,649.752,705.743,646.354z M519.567,232.039c13.987-3.874,21.414-6.541,21.414-10.21
		c0-2.277-3.038-4.39-3.951-4.777c-2.462-1.041-10.062-3.819-10.716-3.819c-0.788,0-1.315,0.555-1.644,1.362
		C519.635,226.946,521.002,223.559,519.567,232.039z M425.164,710.527c0-0.586-0.008-1.173-0.025-1.761
		c-0.517,1.898-3.35,21.552-10.194,21.552c-5.671,0-9.282-14.525-9.282-32.746c0-3.625,0.105-6.741,0.105-7.308
		c0-0.897-0.078-1.053-0.18-1.787c-0.697,5.327-1.067,10.646-1.067,15.953c0,19.84,5.4,37.181,10.32,37.181
		C420.246,741.61,425.164,722.75,425.164,710.527z M705.731,526.085c0,3.503,0.123,7.004,0.449,10.504
		c3.593-7.711,4.988-15.76,4.988-24.007c0-1.612-0.053-3.231-0.154-4.856c-0.417-6.749-5.544-12.249-7.162-12.249
		c-0.922,0-2.882-0.202-2.882,17.527c0,9.453,1.004,14.027,1.017,14.099c1.511-2.419-0.887-10.891,2.484-18.276
		c0.463-1.014,1.369-1.734,2.515-1.734c2.941,0,2.552,3.316,2.552,3.598c0,6.841,0.15,9.312-1.847,9.312
		c-0.352,0-1.694-0.131-1.694-1.892c0-0.088,0.007-0.297,0.007-0.87c0-0.438-0.004-0.877-0.004-1.315
		C705.846,519.312,705.731,522.699,705.731,526.085z M502.919,207.546c0.597,0.18,0.833,0.315,1.049,0.315
		c0.037,0,1.584-0.087,3.619-0.087c8.687,0,15.166,1.49,15.93,1.49c3.097,0,6.626-7.225,6.626-10.018
		c0-3.284-3.45-4.393-4.703-4.393C521.795,194.853,525.768,196.806,502.919,207.546z M668.887,616.359
		c-0.241,7.862-0.482,15.723-0.735,23.983c1.893,0,3.678-0.033,5.419-0.033c4.983,0,6.898,0.33,11.565,0.717
		C678.561,633.373,673.938,624.817,668.887,616.359z M483.42,683.182c0.083-0.131,0.166-0.262,0.249-0.392
		c-0.88-1.197-2.359-2.751-2.359-4.716c0-1.298,0.954-3.212,3.102-3.212c1.57,0,3.059,0.927,5.504,2.15
		c0.136-0.143,0.271-0.286,0.407-0.43c-3.077-4.434-4.712-8.278-10.347-8.278c-3.729,0-8.521,2.265-8.521,6.107
		C471.454,679.171,477.528,680.794,483.42,683.182z M691.893,641.531c0.12-0.139,0.241-0.279,0.361-0.418
		c-20.228-32.854-10.719-25.698-22.343-30.958c0.23,0.648,0.294,0.976,0.451,1.25C681.846,631.402,682.739,634.242,691.893,641.531z
		 M226.446,677.049c2.897-5.065,2.71-4.716,2.71-4.872c0-0.113-0.026-0.242-0.026-0.357c-9.331-2.249-18.669-4.5-28.008-6.75
		c-0.058,0.157-0.116,0.314-0.174,0.471C209.364,669.339,217.781,673.138,226.446,677.049z M507.825,725.352
		c-1.886-3.458-3.599-6.597-5.3-9.716c-4.184,0.735-7.581,2.837-11.229,4.938C496.518,723.576,502.34,723.387,507.825,725.352z
		 M643.029,402.602c-0.227,1.182-0.412,2.338-0.412,3.447c0,1.798,0.487,3.471,2.071,4.924c0.724,0.664,1.224,1.577,1.801,2.394
		c2.533,3.587,6.306,5.797,9.56,8.627C652.375,415.082,647.528,408.991,643.029,402.602z M598.789,481.92
		c1.631,5.872,9.445,11.032,17.946,11.818C610.657,489.519,605.091,485.404,598.789,481.92z M397.984,410.153
		c0.152,0.095,0.303,0.191,0.455,0.286c11.24-13.556,11.169-17.134,11.205-17.254c-0.245-0.039-0.474-0.057-0.689-0.057
		C404.761,393.128,400.672,404.714,397.984,410.153z M378.166,401.058c-0.393-1.536-1.124-3.23-2.796-4.379
		c-2.105,2.525-3.447,6.513-3.447,9.69c0,0.385,0.02,0.759,0.06,1.116C373.912,405.48,375.954,403.358,378.166,401.058z
		 M568.447,441.725c-0.17,0.125-0.34,0.249-0.51,0.374c5.826,10.302,9.547,12.084,12.097,13.174
		C576.158,450.74,572.571,445.992,568.447,441.725z M387.441,503.175c5.196-0.354,10.369-1.196,14.953-4.241
		c-0.472-0.214-0.961-0.368-1.414-0.368C400.732,498.566,396.125,499.61,387.441,503.175z M516.108,263.457
		c5.813-0.688,11.468-2.064,17.171-3.692c-0.547-0.823-1.143-1.134-1.806-1.134C530.886,258.631,531.817,258.391,516.108,263.457z
		 M610.18,400.279c-2.586-3.969-5.172-7.939-7.982-12.251C602.391,391.167,605.928,396.734,610.18,400.279z M534.311,678.852
		c0-0.4-0.319-0.98-0.917-1.951c-2.637,1.626-5.104,3.148-7.571,4.669C526.091,681.535,534.311,680.195,534.311,678.852z
		 M484.481,677.794c1.595,3.244,4.263,5.15,7.253,5.374C489.782,680.846,487.704,679.133,484.481,677.794z M440.529,476.464
		c0.129,0.16,0.259,0.32,0.388,0.48c1.752-1.092,3.504-2.185,5.256-3.277c-0.114-0.186-0.229-0.372-0.343-0.558
		C444.063,474.227,442.296,475.345,440.529,476.464z M554.215,724.264c0.106,0.179,0.211,0.359,0.317,0.538
		c1.524-0.588,3.049-1.177,4.573-1.765c-0.064-0.162-0.127-0.324-0.191-0.486C557.348,723.122,555.781,723.693,554.215,724.264z"/>
	<path fill="#42210B" d="M991.82,227.937c-0.857,0.682-1.406,1.406-1.807,1.406c-0.63,0-1.23-1.156-1.23-1.455
		c0-0.372,0.69-1.146,1.051-1.147C990.354,226.742,990.874,227.328,991.82,227.937z"/>
</g>
</svg>
