<?xml version="1.0" encoding="iso-8859-1"?>
<!-- Generator: Adobe Illustrator 22.1.0, SVG Export Plug-In . SVG Version: 6.00 Build 0)  -->
<svg version="1.1" id="Layer_1" xmlns="http://www.w3.org/2000/svg" xmlns:xlink="http://www.w3.org/1999/xlink" x="0px" y="0px"
	 width="1000px" height="1300px" viewBox="0 0 1000 1300" enable-background="new 0 0 1000 1300" xml:space="preserve">
<g>
	<path fill="#42210B" d="M386.13,353.907c-0.41-1.533-2.05-3.466-2.05-7.174c0-3.007,1.189-5.906,3.191-8.708
		c0.048-0.067,15.259-19.478,20.571-22.861c23.828-15.177,26.744-25.28,47.515-25.28c28.308,0,58.803,21.532,58.869,21.574
		c68.086-55.64,64.045-59.243,131.207-103.842c12.981-8.62,24.696-8.263,27.635-9.042c0.747-1.408,1.065-2.717,2.593-2.717
		C758.661,195.857,944,596.634,944,618.501c0,19-13.54,46.534-14.233,71.154c-0.375,13.326-2.973,16.675-3.58,37.88
		c-4.375,152.754-63.063,396.406-63.113,396.472c-0.667,0.877-1.527,2.549-15.767,2.549c-10.3,0-118.203-3.325-144.54-3.325
		c-31.113,0-57.145,2.151-81.66,2.151c-1.223,0-2.358-0.125-2.862-1.197c-16.813,2.583-36.533,6.593-73.4,6.593
		c-15.147,0-87.582-4.857-87.582-8.882c0-0.066,37.277-51.614,92.736-112.799c3.446-3.802-1.823-32.232,13.686-56.426
		c-2.307-1-0.785,1.188-18.138-45.615C530.357,866.094,58.044,767.368,58.044,664.118c0-24.274,14.795-46.578,143.25-111.968
		c7.172-3.651,3.29-6.422,9.84-9.427c-0.338-2.184-0.836-4.459-0.836-6.308c0-7.245,6.564-15.033,13.515-15.033
		c5.42,0,9.949,5.988,11.548,13.173c3.976-0.624,19.43-7.176,26.819-11.941c-3.199-0.366-3.738-0.583-6.54-0.583
		c-1.307,0-2.616,0.047-3.924,0.047c-0.65,0-0.837-0.01-1.113-0.01c-5.389,0-4.086,3.686-9.258,3.686
		c-8.679,0-14.663-7.644-14.663-13.972c0-5.332,6.713-14.718,37.658-14.718c0.777,0,0.951,0.006,1.49,0.006
		c10.57,0,11.465-0.699,13.153-2.196c27.403-24.311,33.016-20.544,33.259-25.776c3.319-71.473,4.385-79.321,20.001-91.438
		C350.472,363.515,369.413,371.177,386.13,353.907z M554.115,1001.977c3.554-1.77,6.38-3.156,8.86-5.349
		c113.073-99.984,246.274-49.581,246.274-159.722c0-30.818-7.916-64.298-7.916-84.502c0-28.761,9.866-47.766,19.493-47.766
		c4.848,0,13.304,4.776,23.777,17.363c28.857,34.681,56.569,55.354,56.569,72.596c0,3.006-0.87,5.97-2.807,8.867
		C808.11,938.457,670.607,911.988,571.148,993.497c0.076,0.005,0.152,0.007,0.225,0.007c0.066,0,231.859-82.052,296.184-82.052
		c7.57,0,17.191,1.358,17.191,13.472c0,24.389-62.528,123.843-168.977,123.843c-76.498,0-108.148-51.545-130.88-51.545
		c-8.646,0-15.36,1.736-17.062,2.173c-13.84,3.554-82.396,85.493-92.919,104.951c0.136,0.107,0.272,0.214,0.407,0.321
		c0.057-0.066,82.648-92.036,110.191-92.036c17.694,0,63.114,33.856,63.114,54.356c0,17.702-160.713,42.853-182.725,54.706
		c41.53,4.175,56.901,6.124,80.094,6.124c131.947,0,174.664-69.301,239.742-69.301c21.556,0,26.354,14.07,26.354,22.955
		c0,26.83-33.5,28.719-111.858,38.548c0.647,0.051,134.406,3.46,151.507,3.46c2.535,0,5.084-0.383,7.604-0.731
		c3.347-0.463,4.798-7.002,5.537-11.953c37.578-251.742,58.309-206.287,58.309-383.418c0-0.407-0.064-0.815-0.095-1.222
		c-4.193,12.311-6.716,38.464-21.951,38.464c-27.419,0-35.657-50.496-66.098-93.865c-43.014-61.282-38.676-67.295-46.724-78.782
		c-1.775,18.033-2.16,30.538-7.461,51.231c-13.027,50.854-17.856,247.156-77.124,247.156c-14.915,0-10.828-7.927-58.181-31.519
		c-47.487-23.659-76.271-50.008-81.169-53.487c0.126,2.108,0.419,4.229,0.419,6.337c0,26.664-19.778,57.405-19.778,77.705
		c0,3.03-1.136,9.398,19.034,59.124c23.576-29.971,52.481-70.073,86.79-70.073c15.887,0,17.161,11.85,17.161,14.325
		c0,3.281-1.428,5.346-9.236,8.471C562.1,939.935,557.872,954.066,554.115,1001.977z M203.649,557.713
		c0-1.09,0.057-2.193,0.19-3.313c-0.625,0.176-0.873,0.202-1.078,0.31c-139.6,73.595-141.792,88.577-141.792,109.391
		c0,50.538,170.702,121.335,171.194,121.505c-7.416-5.558-41.078-16.415-41.078-37.984c0-11.021,12.001-39.266,40.006-39.266
		c23.036,0,19.761,5.153,305.6,178.916c-2.475-9.787-63.313-79.572-63.313-105.985c0-11.538,7.931-18.159,14.165-18.159
		c15.22,0,41.263,31.885,55.5,116.015c0.514-0.611,0.723-1.226,0.9-1.849c9.225-32.505,18.031-46.125,18.031-66.831
		c0-1.926-0.47-3.709-1.525-5.363c-16.934-26.556-22.109-56.845-27.954-75.577c-0.193,0-0.386,0.001-0.58,0.001
		c-0.916,4.827-1.428,3.964-1.428,13.58c0,25.427,9.438,52.951,9.438,56.088c0,1.472-0.851,2.392-2.035,2.392
		c-12.712,0-21.623-45.566-40.622-45.566c-2.428,0-3.467,0.675-4.979,0.675c-1.684,0-1.778-1.18-1.778-1.461
		c0-4.847,26.083-18.716,35.793-26.73c0.467-0.385,0.754-0.988,1.426-1.902c-8.846,1.25-128.15,8.612-128.216,8.612
		c-21.762,0-109.745-20.035-199.725-57.284c-4.793-1.984-6.933-4.765-8.786-4.765c-0.066,0-58.355,12.598-100.507,12.598
		c-10.093,0-15.7-4.816-15.7-11.325c0-16.162,60.822-66.363,85.094-66.363c18.27,0,40.292,9.17,72.616,17.368
		c-1.365-3.17-31.983-13.451-31.983-24.698c0-7.047,7.954-9.712,12.027-9.712c8.437,0,16.746,5.017,17.133,5.09
		c7.07,1.338,13.409,2.373,13.773,2.373c0.608,0,1.36-0.239,1.704-0.625c3.371-3.775,18.695-6.81,23.321-14.643
		c-0.219-0.134-0.308-0.222-0.357-0.222c-0.106,0-21.74,8.859-30.14,8.859c-1.822,0-3.613-0.329-5.395-1.087
		c-18.385-7.808-26.122-8.711-27.387-19.54C204.68,566.775,203.649,562.361,203.649,557.713z M760.205,753.764
		c-5.581,2.571-16.704,9.521-38.408,9.521c-10.335,0-147.627-9.352-147.627-61.235c0-8.812,4.933-19.653,17.498-25.553
		c21.718-10.198,145.273-6.333,185.604-44.307c5.304-4.994,4.645-6.163,8.434-41.713c-0.066,0.026-143.626,69.53-175.889,69.53
		c-0.641,0-6.026,0.293-6.026-4.925c0-26.606,69.953-44.267,92.256-93.168c-0.039-0.001-0.076-0.002-0.112-0.002
		c-0.567,0-0.842,0.14-1.097,0.31c-31.145,20.758-63.464,30.25-91.502,69.188c-49.003,68.054-65.036,70.066-67.317,88
		c-0.535,4.205-1.25,3.817-1.25,6.34c0,0.875,0.135,1.754,0.372,2.655c20.708,78.777,18.832,75.868,130.284,137.515
		c26.214,14.5,26.224,21.512,38.198,21.512C725.023,887.432,751.601,849.118,760.205,753.764z M577.676,994.314
		c1.349,0,2.472,0.029,3.509,0.029c1.746,0,1.939-0.088,3.41-0.088c23.808,0,57.26,51.618,130.888,51.618
		c105.126,0,166.321-97.746,166.321-121.055c0-6.47-2.294-10.388-14.937-10.388C841.162,914.43,647.632,962.55,577.676,994.314z
		 M685.129,202.471c28.423,16.563,64.877,47.593,64.877,85.849c0,22.015-18.421,24.521-41.923,24.521
		c-23.581,0-27.99-8.535-29.356-9.482c-0.637,1.381-7.24,14.494-7.24,19.897c0,1.752,0.5,3.467,1.401,5.109
		c50.543,5.536,127.712,113.841,127.712,163.57c0,0.969-0.024,1.617-0.024,1.684c0,0.304,0.111,0.617,0.202,1.119
		c1.434-0.372,2.854-0.529,4.263-0.529c14.191,0,121.933,35.774,121.933,135.747c0,9.747-2.301,26.445-2.301,29.162
		c0,1.131,0.306,2.099,1.471,2.953c1.47,1.077,3.026,5.445,3.388,6.322c1.008-2.405,11.48-38.457,11.48-48.722
		C941.012,616.558,781.475,229.71,685.129,202.471z M459.576,367.547c26.372,9.988,66.419,9.827,78.047,9.827
		c8.593,0,17.188-0.583,25.783-0.866c8.158-0.269,94.152-84.46,110.734-84.46c2.618,0,3.549,2.049,4.037,3.331
		c0.16-0.187,9.914-24.486,9.914-44.235c0-25.737-13.993-49.058-14.226-49.438c-0.339,0-0.63-0.011-0.902-0.011
		C629.513,201.695,465.822,361.186,459.576,367.547z M269.203,591.09c-8.598,4.297-14.886,9.536-14.886,16.372
		c0,5.13,6.038,5.172,7.543,5.172c6.096,0,15.381-4.97,20.495-4.97c1.968,0,2.42,0.482,4.331,0.482c3.029,0,5.53-1.493,7.674-3.678
		c17.997-18.347,45.532-32.342,55.618-43.032c60.705-64.346,168.243-132.492,211.809-181.709c-5.925,0.175-16.809,0.62-30.416,0.62
		c-46.964,0-70.427-10.013-73.66-10.013c-3.183,0-68.97,70.912-72.872,71.917c-7.827,2.016-13.664,21.972-13.664,37.025
		c0,8.86,1.392,15.477,1.392,18.257c0,6.156-16.483-3.103-37.273,17.844c-0.066,0.067-16.219,16.408-17.444,18.757
		c-24.872,47.688-7.444,29.175-35.402,51.322c1.822,1.336,3.049,2.783,3.049,4.903c0,0.733-1.855,12.832-15.56,12.832
		c-8.275,0-8.205-2.559-8.205-3.339C261.732,598.522,262.334,598.155,269.203,591.09z M791.705,537.511
		c-2.648-0.952-3.183-2.969-3.183-5.257c0-0.774,0.057-1.277,0.057-1.919c0-31.433-14.846-59.744-27.759-78.079
		c-28.865-40.986-89.617-119.897-89.683-119.951c-7.749,3.478-47.376,24.971-48.707,26.412c2.313,3.683,2.661,4.996,2.794,9.591
		c0.573,19.812,12.281,14.924,39.259,20.731c23.1,4.972,46.569,20.956,46.569,33.057c0,13.362-25.389,33.309-25.389,43.021
		c0,8.107,16.684,10.267,16.684,19.519c0,9.315-10.863,13.581-10.863,32.191c0,11.707,8.036,12.81,8.036,15.578
		c0,0.178-0.031,0.339-0.104,0.458c-0.252,0.41-1.229,0.557-1.517,0.557c-0.352,0-0.72-0.329-1.1-0.41
		c-1.8-0.384-2.918-1.811-4.327-2.788c-13.07-9.066-12.43-10.531-14.166-11.08c11.297,21.22,20.513,22.396,21.23,23.809
		c0.18,0.355,0.36,0.833,0.36,1.221c0,0.848-1.203,1.164-1.549,1.164c-0.496,0-1.03-0.272-1.524-0.463
		c-17.033-6.585-11.215-4.949-16.88-7.73c17.826,18.219,20.138,19.191,28.127,22.086c43.873,15.902,40.727,21.782,77.943,24.667
		C786.89,561.683,786.714,576.988,791.705,537.511z M779.764,634.348c-0.258-0.02-0.391-0.049-0.461-0.049
		c-0.474,0-8.89,9.837-23.163,14.755c-110.149,37.952-178.93,9.167-178.93,52.903c0,42.592,112.504,58.398,144.342,58.398
		c11.541,0,23.732-1.649,37.455-9.431c1.3-0.737,3.906-0.236,10.288-57.977C773.342,656.33,777.753,645.637,779.764,634.348z
		 M503.628,507.284c0-1.101-0.146-2.299-0.443-3.575c-1.071-0.228-2.128-0.32-3.175-0.32c-19.591,0-29.9,16.593-29.9,20.326
		c0,1.89,4.339,6.233,17.555,6.233c0.272,0,0.553-0.026,0.823-0.026c1.031,0,1.78,0.836,1.78,1.234c0,0.486-0.371,1.342-0.853,1.553
		c-0.612,0.268-0.387,0.157-6.994,0.61c-0.041,0.181-0.083,0.362-0.124,0.544c1.208,1.048,2.417,2.096,3.79,3.286
		c0.848-1.707,1.274-3.033,2.293-3.033c0.658,0,1.799,0.673,1.799,1.68c0,0.187-0.037,0.386-0.116,0.595
		c-3.419,8.972-4.097,11.049-7.023,11.049c-1.252,0-4.214-0.906-6.031-2.442c-11.66-9.861-9.187-18.357-10.944-20.42
		c-11.637-13.665-10.432-11.949-11.54-12.729c-0.253,2.352-0.275,4.539-0.748,6.622c-3.657,16.101-16.649,18.772-21.342,18.772
		c-2.793,0-5.505-0.273-5.505-2.494c0-1.819,1.743-1.548,2.306-1.584c6.067-0.393,13.806-7.365,16.13-17.632
		c-0.605,0-1.059-0.032-1.451-0.032c-9.241,0-20.497,10.523-20.497,16.131c0,1.229,0.396,1.616,0.396,2.373
		c0,1.269-1.283,1.423-1.469,1.423c-1.736,0-3.399-4.851-3.399-8.189c0-15.03,24.08-19.635,24.64-19.788
		c0.021-0.259,0.031-0.513,0.031-0.763c0-3.039-2.448-8.264-4.421-8.264c-0.734,0-26.577,9.961-26.577,25.908
		c0,0.08,0.001,0.162,0.001,0.245c0,0.316-0.014,0.635-0.151,0.877c-0.017,0.03-0.526,0.913-1.041,0.913
		c-0.484,0-1.222-0.296-1.382-0.665c-0.244-0.56-0.417-1.232-0.417-1.86c0-15.65,25.724-28.781,30.478-28.781
		c1.426,0,6.469,5.728,6.469,11.486c0,2.255-1.098,3.447-3.44,4.11c-3.927,1.113-19.802,4.919-20.88,14.808
		c1.51-1.186,8.962-12.827,23.028-12.827c1.97,0,2.893,0.859,2.893,2.687c0,8.003-7.587,14.837-11.197,18.233
		c12.163-3.4,14.453-15.531,14.453-20.004c0-3.459-0.682-4.5-0.682-5.444c0-1.423,1.535-1.592,1.713-1.592
		c0.818,0,1.321-0.254,14.863,14.987c1.516-2.62,9.999-21.03,32.79-21.03c6.2,0,6.494,1.803,6.494,6.115
		c0,6.918-2.706,10.066-6.732,10.066c-0.277,0-0.56-0.016-0.846-0.05c-1.358,1.857-5.346,6.229-5.346,10.907
		c0,4.748,4.223,7.815,7.465,9.941c2.249-6.282,4.107-17.237,27.677-18.469c12.362-0.646,11.5-2.667,13.396-2.667
		c0.494,0,1.368,0.049,1.368,1.517c0,0.852-0.987,2.744-1.617,4.194c2.081,2.828,2.68,5.976,2.68,9.243
		c0,10.026-4.613,18.319-7.647,23.715c14.895,19.294,23.349,31.265,36.681,31.265c12.442,0,36.524-43.603,41.501-59.061
		c-3.366-6.262-2.267-1.369-10.213-39.314c-1.053,0.123-3.295,0.516-7.006,0.516c-18.109,0-34.685-18.093-37.717-20.863
		c-27.586,12.558-32.162,11.006-45.551,22.663c-6.206,5.403-4.442,6.46-8.094,6.46c-1.216,0-2.83-0.013-4.25-0.013
		c-16.015,0-20.853,3.753-28.153,3.753c-5.472,0-10.442-2.045-15.099-5.347c-2.661-1.887-3.815-4.608-3.815-9.805
		c0-5.54,1.781-8.55,3.395-11.886c-18.726,14.01-36.979,27.667-55.289,41.366c11.999,27.945,19.973,22.998,30.502,37.259
		c0.065,0.088,0.279,0.066,0.491,0.109c4.006-14.271,16.733-22.094,20.21-22.094c2.505,0,13.619,4.747,13.619,13.827
		c0,7.057-13.157,20.016-13.157,28.788c0,0.985,0.495,1.819,1.379,2.579c5.155,4.429,5.66,6.702,12.051,9.869
		c34.997,17.341,43.097,23.446,60.941,23.446c8.921,0,26.59-3.757,30.135-6.46c16.995-12.961,14.801-11.485,15.828-12.786
		c-0.628-0.031-0.956-0.063-1.273-0.063c-0.042,0-0.122,0.001-0.275,0.001c-14.516,0-22.263-10.826-38.523-31.553
		c-7.073,8.675-12.739,13.736-19.487,13.736c-3.599,0-1.938-1.354-8.843-2.884c-6.221-1.378-13.131-8.749-13.131-16.095
		c0-5.502,3.309-9.4,5.603-12.233c-3.47-2.91-8.689-6.212-8.689-12.453c0-1.646,0.321-2.664,0.691-4.307
		c-1.212-2.379-1.584-1.961-1.584-4.149c0-6.188,4.098-10.719,8.275-10.719c1.781,0,2.839,1.223,2.839,2.985
		c0,0.523-0.111,1.247-0.197,2.024C502.664,512.302,503.628,510.111,503.628,507.284z M443.742,657.605
		c-20.299-2.59-49.194-96.415-49.194-117.518c0-4.809,0.548-8.144,4.012-8.144c17.92,0,34.398,85.438,46.313,119.062
		c0.394-0.53,0.534-1.006,0.534-1.467c0-6.176-4.548-35.381-4.548-43.68c0-4.353,0.913-18.63,6.773-18.63
		c8.54,0,20.827,20.058,25.179,20.058c0.114,0,0.306-0.006,0.71-0.006c4.302,0,8.504,0.708,12.61,2.05
		c62.256,20.34,63.629,13.888,82.192,17.437c0.82,0.157,1.637,0.703,1.637,1.582c0,4.186-22.101,8.404-34.868,8.404
		c-42.599,0-63.216-26.343-66.77-26.343c-0.698,0-1.43,0.174-2.225,0.499c-1.605,0.657-3.473,0.912-3.473,3.06
		c0,4.174,4.678,12.981,7.878,14.297c54.448,22.374,87.041,14.722,105.762,19.32c2.266,0.557,3.257,1.958,3.257,4.069
		c0,7.775-20.069,15.239-37.331,15.239c-43.528,0-70.055-31.761-73.482-35.317c-3.129-3.247-15.038-8.685-17.472-8.685
		c-1.009,0-1.47,0.584-1.47,1.843c0,3.453,13.347,63.006,71.148,63.006c13.914,0,24.299-4.307,24.496-4.38
		c-0.636-0.443-1.13-0.476-1.624-0.509c-59.582-4.026-70.507-23.832-70.507-28.411c0-1.76,1.317-2.887,3.495-2.887
		c4.501,0,79.84,29.876,82.45,29.876c3.113,0,26.111-28.322,26.111-31.998c0-1.221-5.731-11.483-14.27-24.023
		c-7.458-10.952-11.383-18.134-16.323-18.134c-1.213,0-15.632,4.19-26.122,4.19c-8.624,0-16.993-1.905-24.924-5.7
		c-44.246-21.173-41.922-21.462-42.713-22.289c-14.867-15.537-13.096-8.266-28.766-28.802
		c-11.174-14.643-19.511-10.732-31.026-38.259c-22.49,17.308-19.436,16.142-48.978,46.854c-12.717,13.22-25.221,16-25.221,20.819
		c0,0.066,0.104,22.177,0.526,25.622c1.948-2.688,2.126-34.435,12.761-34.435c9.436,0,12.826,31.033,12.826,37.966
		c0,7.401-2.028,10.051-5.09,11.519c-4.632,2.221-8.148,3.916-11.888,3.916c-1.773,0-3.583-0.387-5.452-1.335
		c0,0.461-0.014,0.827-0.014,1.155c0,46.555,38.307,72.206,46.544,99.926c5.268,1.114,10.408,2.202,15.712,3.324
		c-0.783-4.881-7.525-10.781-7.525-13.336c0-1.086,1.028-1.91,2.071-2.871c-2.845-5.81-40.929-55.52-40.929-78.691
		c0-6.861,3.251-9.461,6.7-9.461c21.527,0,51.053,78.775,51.053,83.593c0,5.137-6.403,5.177-11.894,5.85
		c4.119,4.683,7.718,8.962,11.562,8.962c2.151,0,3.571-1.577,3.571-4.375c0-2.523-0.793-5.693-0.793-7.294
		c0-1.484,0.664-1.807,2.947-2.115c4.862-0.654,12.816-3.968,12.816-12.492c0-6.735-6.699-12.528-7.698-12.528
		c-0.53,0-0.133-0.099-5.822,3.178c2.512,3.224,10.12,3.896,10.12,8.563c0,2.736-2.883,4.614-5.635,4.614
		c-16.428,0-52.516-113.687-52.516-119.904c0-8.757,2.389-8.379,3.132-8.379c4.989,0,25.34,32.886,25.34,68.803
		c0,1.624-0.053,2.848-0.053,2.878c0,0.207,0.135,0.422,0.244,0.752c4.173-2.348,7.149-6.948,7.149-17.764
		c0-29.88-25.302-49.081-25.302-69.28c0-2.878,0.122-6.418,2.809-6.418c1.23,0,1.986,1.119,2.758,2.027
		c68.463,80.533,9.215,169.376,133.328,169.376c0.609,0,1.221-0.137,1.831-0.206C461.516,714.88,454.079,684.74,443.742,657.605z
		 M527.539,885.208c0.093-0.167,0.186-0.334,0.279-0.5c-0.603-0.423-28.981-21.124-86.173-52.187
		C332.18,773.067,261.582,711.269,231.132,711.269c-30.571,0-37.145,33.548-37.145,36.323
		C193.987,788.387,368.628,822.452,527.539,885.208z M921.707,658.407c2.537-22.26,2.377-26.824,2.377-28.278
		c0-2.844,0.102-5.76-3.225-28.85c-9.01-62.531-98.135-104.192-115.971-104.192c-8.086,0-8.028,5.264-8.074,6.038
		c-4.216,71.533-7.763,57.994-7.763,76.378c0,6.234,1.054,10.98,5.975,14.638c11.673,8.678,64.201,32.187,64.855,32.459
		C897.98,642.4,900.264,647.024,921.707,658.407z M193.929,671.023c5.324,6.219,131.103,52.905,180.269,57.84
		c-8.061-25.713-46.595-52.892-46.595-104.266c0-0.371,0.002-0.546,0.002-0.646c0-4.217-3.407-4.298-3.407-22.327
		c0-4.893,0.12-12.249,0.12-14.584c0-0.842-0.075-1.687-0.119-2.639c-0.469,0.174-0.721,0.211-0.902,0.344
		c-32.732,24.074-29.474,26.227-36.632,26.227c-1.822,0-2.107-0.345-3.68-0.345c-3.318,0-5.669,1.033-7.342,2.427
		c-8.944,7.449-23.689,16.401-30.23,16.401c-3.063,0-4.928-1.2-5.174-1.2c-0.112,0-0.241,0.044-0.336,0.052
		C224.58,642.543,209.279,656.76,193.929,671.023z M797.794,888.75c0.066,0.111,0.132,0.221,0.198,0.332
		c43.091-20.304,100.269-80.238,100.269-94.638c0-14.61-68.305-86.852-77.383-86.852c-7.386,0-16.643,18.204-16.643,43.131
		c0,24.471,7.855,52.793,7.855,87.074C812.091,875.036,800.758,883.845,797.794,888.75z M795.172,598.428
		c0.195,0.448,12.451,27.846,23.904,44.415c57.159,82.69,57.845,118.891,82.02,118.891c1.917,0,3.729-0.686,5.425-1.922
		c8.294-6.043,15.601-43.745,15.601-43.811c0-1.561-1.937-8.118-1.937-17.501c0-9.386,1.275-34.205,1.275-34.368
		C921.46,654.757,832.932,619.768,795.172,598.428z M467.448,1117.475c0.059,0.115,0.117,0.229,0.176,0.344
		c132.216-34.748,178.032-39.642,178.032-51.143c0-17.901-43.711-51.191-60.126-51.191
		C561.075,1015.485,474.131,1109.544,467.448,1117.475z M235.017,628.836c-17.976-3.348-55.608-17.839-74.97-17.839
		c-24.086,0-82.451,50.477-82.451,63.429c0,2.606,2.435,6.594,6.237,7.364c2.356,0.477,4.776,0.986,7.159,0.986
		C197.911,682.776,197.486,663.889,235.017,628.836z M587.895,646.733c0.455-0.49,0.878-0.878,1.221-1.327
		c54.692-71.519,66.889-57.726,107.571-88.134c-16.978-14.07-62.115-59.584-70.438-65.58c0.026,0.653,0.039,1.301,0.039,1.946
		c0,8.877-2.406,17.041-4.822,25.412c2.496,0.827,4.993,2.008,9.47,2.008c5.808,0,13.626-3.04,18.16-3.04
		c12.966,0,11.971,23.135,11.971,25.782c0,0.92-0.066,1.855-0.066,2.772c0,0.823,0.053,1.631,0.255,2.401
		c3.387,12.904,8.254,13.444,8.254,15.623c0,0.6-0.587,1.3-1.333,1.3c-0.551,0-1.242-0.323-2.156-0.986
		c-14.478-10.483-3.694-39.497-18.7-39.497c-5.118,0-17.77,5.097-23.585,5.097c-1.951,0-3.881-0.392-5.771-1.456
		c-7.267,9.723,0.439,9.817-34.876,92.901c-1.233,2.901-2.681,5.698-5.82,6.929C580.828,634.862,584.298,640.691,587.895,646.733z
		 M700.111,559.19c-23.393,54.323-93.359,71.998-93.359,95.879c0,2.067,1.95,2.025,3.586,2.025
		c15.294,0,145.993-50.351,175.023-70.2C742.248,582.478,749.266,576.256,700.111,559.19z M625.984,1122.008
		c0.018,0.082,0.035,0.164,0.053,0.245c1.385,0,2.772,0.049,4.157,0.049c0.805,0,1.61-0.016,2.412-0.069
		c167.149-10.848,176.555-22.678,176.555-40.759c0-2.459-0.124-19.993-23.399-19.993
		C748.88,1061.482,711.881,1090.131,625.984,1122.008z M269.22,587.254c12.781-4.265,8.977-2.327,28.373-17.174
		c1.048-0.802,10.617-22.629,13.314-29.863c-19.965,16.914-21.861,17.114-25.138,17.114c-4.84,0-7.266-4.008-7.266-8.272
		c0-24.984,49.646-75.5,65.893-75.5c2.951,0,3.331,2.158,3.331,3.39c0,6.341-14.565,30.324-19.998,41.271
		c0.14,0.115,0.28,0.231,0.419,0.346c10.985-12.584,24.137-21.023,41.432-21.556c-0.444-5.711-1.171-7.563-1.171-19.448
		c0-17.46,6.423-27.716,8.006-31.868c-7.216,0.955-97.676,40.573-105.245,62.507c-0.958,2.775-3.354,10.906-3.354,12.188
		c0,0.476,0.079,0.602,0.079,1.059c0,1.811-0.019,1.75-26.249,14.741c0.333,1.466,0.493,2.861,0.493,4.191
		c0,9.432-8.349,14.987-10.523,14.987c-0.977,0-1.621-0.675-1.621-1.648c0-2.695,3.443-2.546,4.549-14.807
		c-2.104,3.918-4.197,7.783-9.054,9.258c6.65,10.64,5.535,11.336,12.635,11.336c6.408,0,17.731-3.565,24.928-6.276
		c0-0.498,0.019-0.945,0.019-1.371c0-1.137-0.336-3.288-0.336-8.479c0-7.167,0.795-15.154,0.9-15.337
		c0.281-0.489,0.912-1.08,1.384-1.08c0.558,0,1.201,0.734,1.359,1.128c0.174,0.432,0.208,0.93,0.208,1.431
		c0,0.225-0.041,1.751-0.041,4.402c0,35.967,4.859,46.408,4.859,48.785c0,1.542-0.567,2.929-2.133,4.155
		C269.236,586.891,269.253,586.985,269.22,587.254z M388.014,356.41c-5.181,4.584-9.843,10.122-33.138,14.671
		c-39.661,7.744-36.334,35.419-39.955,96.379c0.591-0.648,0.889-0.903,1.098-1.216c12.039-18.052,11.733-17.308,11.733-19.11
		c0-3.964-2.395-15.55-2.395-32.926c0-0.854-2.015-23.922,14.776-31.712c12.198-5.66,40.436-11.602,51.31-11.602
		c2.638,0,8.313,0.382,8.313,4.344c0,4.713-7.036,7.532-29.32,23.607c-21.52,15.523-39.289,50.568-39.289,50.634
		c0,0.648,1.149,11.721,1.165,11.878c10.351-5.261,20.3-10.289,30.787-14.208c-0.9-0.692-10.032-2.373-10.032-9.831
		c0-16.372,50.182-58.88,57.839-58.88c2.18,0,3.718,1.625,3.718,4.42c0,0.323-0.012,0.684-0.012,1.142
		c10.6-4.731,16.062-6.542,27.203-6.542c2.025,0,1.952,0.045,2.434,0.045c1.309,0,0.931,0.048,6.56-5.666
		c-0.32-0.077-0.488-0.158-0.611-0.158c-0.808,0-6.723,2.93-17.238,2.93c-9.182,0-12.314-1.947-18.072-1.947
		c-1.478,0-2.04,0.137-2.549,0.137c-1.257,0-1.607-0.69-1.825-2.273c-0.283-2.055-0.561-3.544-0.561-6.424
		c0-26.39,28.263-43.454,59.728-43.454c10.199,0,17.993,1.739,22.492,2.597c-0.784-1.615-16.022-7.566-30.736-7.566
		c-18.916,0-31.419,8.302-33.767,13.245c-0.171,0.361-0.839,0.758-1.244,0.758c-0.35,0-1.506-0.644-1.506-1.713
		c0-5.353,8.956-20.245,40.986-20.245c0.499,0,22.648-0.56,40.989,10.078c1.572-1.376,3.105-2.719,4.973-4.353
		c-0.067-0.043-29.297-20.619-56.597-20.619c-18.848,0-21.719,9.019-44.608,24.029c-6.677,4.379-23.673,23.511-23.673,29.965
		c0,1.519,0.514,3.034,1.597,4.601c9.461-11.707,18.348-25.921,24.769-25.921c0.483,0,3.678,0.345,3.678,4.12
		c0,1.584-0.889,5.518-1.876,7.844c-11.753,27.692-12.069,29.839-17.062,29.839C392.932,367.304,391.342,362.922,388.014,356.41z
		 M677.528,201.828c4.808,10.88,13.521,26.801,13.521,49.227c0,22.82-10.08,41.186-10.08,48.073c0,4.121,6.406,10.783,28.133,10.783
		c37.396,0,38.123-11.803,38.123-21.953C747.226,260.21,719.844,223.154,677.528,201.828z M791.482,531.609
		c0,0.463,0.082,0.927,0.124,1.391c0.147,0.019,0.293,0.037,0.44,0.056c2.569-32.019,1.194-32.337,4.315-35.911
		c1.244-1.425,1.192-2.665,1.192-6.265c0-53.473-86.708-159.212-121.538-159.212c-0.456,0-0.929,0.039-1.423,0.132
		c31.013,50.68,116.906,127.561,116.906,197.958C791.498,530.812,791.482,531.512,791.482,531.609z M609.43,475.356
		c-61.454-5.813-82.795-41.483-91.916-41.483c-0.253,0-59.31,31.849-59.31,51.473c0,2.974,0.354,5.931,3.344,7.87
		c5.05,3.274,9.804,4.268,12.518,4.268c5.829,0,13.771-3.841,26.04-3.841c3.319,0,3.514,0.296,5.046,0.296
		c4.133,0,9.297-12.041,30.33-19.268c21.837-7.503,23.04-10.331,24.93-10.331c2.697,0,18.557,21.252,38.039,21.252
		c2.941,0,5.885-0.397,8.893-0.625c0-1.036-0.003-2.053-0.003-3.064C607.34,478.856,607.158,476.97,609.43,475.356z
		 M492.366,445.814c0.122,0.121,0.245,0.242,0.367,0.363c0.246-0.177,20.262-15.211,24.449-15.211
		c12.788,0,35.499,42.255,106.855,42.255c16.98,0,29.655-4.174,29.655-21.14c0-0.918-0.038-1.846-0.108-2.785
		c-23.41-10.215-22.796-29.96-36.411-29.96c-1.397,0-2.764,0.242-3.975,0.758c9.287,12.838,10.971,16.296,10.971,21.582
		c0,7.985-6.907,8.921-10.893,8.921c-3.247,0-15.037-0.681-30.237-9.964c-21.466-13.11-43.42-7.203-55.611-25.539
		C515.648,425.415,504.007,435.614,492.366,445.814z M467.148,607.371c-3.599-3.953-14.927-17.145-19.244-17.145
		c-2.531,0-4.096,9.406-4.096,15.916c0,7.469,4.572,40.485,4.572,44.981c0,3.571-1.524,4.306-1.524,5.626
		c0,0.281,14.926,66.921,76.842,66.921c2.333,0,4.639-0.338,6.938-1.086c1.583-0.515,2.341-1.283,2.498-3.131
		c1.205-14.248,8.617-16.581,24.249-35.193c-0.97-0.584-1.877-0.832-2.767-0.832c-2.907,0-15.252,7.418-34.613,7.418
		c-50.583,0-73.11-51.129-73.11-66.827c0-2.473,1.914-4.089,4.302-4.089c2.814,0,5.991,2.156,11.72,4.132
		c-1.444-3.161-3.228-6.476-3.228-10.115C459.687,609.66,462.375,609.239,467.148,607.371z M610.879,416.973
		c3.704-0.404,4.257-0.555,6.044-0.555c16.774,0,14.184,19.805,36.386,29.484c-8.815-41.285-53.589-71.957-54.596-72.396
		c-0.066,0.035-68.291,38.603-68.291,40.545c0,2.129,6.4,9.754,25.29,13.805c33.888,7.267,36.402,19.836,57.306,19.836
		c4.987,0,8.156-1.353,8.156-5.529c0-7.855-6.355-14.711-11.408-21.684c-8.843,3.199-14.127,6.65-21.765,6.65
		c-11.991,0-23.395-9.06-23.395-18.943c0-9.39,10.967-19.134,25.112-19.134C603.868,389.052,607.477,407.079,610.879,416.973z
		 M470.576,726.279c-0.017-0.121-0.034-0.242-0.051-0.363c-81.017-36.094-39.259-115.529-95.853-167.668
		c-0.144,0.881-0.215,1.768-0.215,2.668c0,17.257,25.165,38.669,25.165,68.913c0,11.464-3.08,18.653-12.573,22.486
		c13.581,41.319,22.108,45.73,23.897,47.219c0.671,0.559,1.488,0.887,2.333,0.887c1.689,0,2.683-1.315,2.683-1.75
		c0-1.205-2.392-2.116-6.256-4.236c-3.594-1.971-6.284-5.833-6.284-7.804c0-0.813,0.569-1.329,1.337-1.329
		c1.033,0,2.316,1.358,4.129,1.358c2.538,0,3.065-2.756,5.626-2.756c3.779,0,11.058,8.863,11.058,15.271
		c0,2.41-0.724,4.828-2.063,7.247c-3.806,6.877-10.354,7.816-13.674,8.771c0.009,0.066,0.614,3.637,0.614,6.379
		c0,6.111-4.842,7.153-6.596,7.153c-7.327,0-12.926-10.436-14.462-10.436c-0.238,0-0.515,0.124-0.857,0.446
		c2.414,4.479,6.776,7.976,7.27,13.57c0.713,0,1.336,0.012,1.925,0.012C419.815,732.316,456.12,726.864,470.576,726.279z
		 M541.551,888.177c-7.676-58.645-33.432-122.099-53.948-122.099c-5.67,0-11.313,6.498-11.313,15.233
		C476.29,803.569,524.315,861.699,541.551,888.177z M688.177,516.972c0.187-0.267,0.257-0.322,0.265-0.385
		c0.043-0.327,0.093-0.655,0.101-0.984c0.422-18.661,10.872-22.859,10.872-30.902c0-6.908-16.699-9.773-16.699-19.435
		c0-11.614,25.459-31.185,25.459-43.282c0-2.129-0.688-4.174-2.171-6.009c-19.729-24.401-52.344-25.546-64.333-27.532
		c-20.625-3.416-18.458-11.639-19.452-21.2c-0.559-5.379-1.553-5.47-2.547-6.782c-5.181,2.326-15.96,9.141-17.915,11.299
		c24.596,19.756,48.093,42.269,54.648,74.463c0.745,0.412,1.431,0.598,2.073,0.598c4.827,0,8.968-11.438,9.336-12.372
		c-12.932-0.366-14.65-22.58-14.65-22.99c0-13.438,10.688-14.908,11.703-14.908c4.982,0,10.716,6.703,10.716,16.703
		c0,5.217-2.622,12.074-3.411,18.143c10.815-7.575,13.132-11.84,17.073-11.84c0.111,0,3.485-0.122,3.485,4.766
		c0,0.607-0.606,5.084-3.338,11.785c0.774,1.025,1.166,2.168,1.166,3.21c0,1.185-0.549,2.377-1.369,2.377
		c-0.966,0-1.391-1.246-1.677-1.745c-3.11,5.417-9.852,15.392-9.852,26.82c0,14.497,12.359,15.528,12.359,23.251
		c0,5.083-2.982,10.493-2.982,20.429C687.035,512.764,687.206,514.795,688.177,516.972z M572.195,374.516
		c0.79,0.332,0.958,0.455,1.087,0.455c15.025,0,52.085-21.69,63.656-27.882c3.699-1.98,38.387-33.066,38.387-49.615
		c0-1.488-0.411-2.585-1.61-2.585C662.948,294.888,577.829,371.572,572.195,374.516z M330.399,443.666
		c0.185,0.037,0.37,0.073,0.554,0.11c3.897-5.986,7.525-12.456,12.227-19.601c21.606-32.831,53.568-43.334,53.568-48.728
		c0-1.22-2.612-1.552-3.296-1.552c-7.064,0-8.516,0.181-10.036,0.448c-46.857,8.249-55.176,12.5-55.176,40.303
		C328.239,426.71,330.059,440.524,330.399,443.666z M344.957,476.911c-0.179-0.204-0.358-0.408-0.537-0.613
		c-20.892,5.57-62.951,50.935-62.951,72.722c0,5.279,3.706,5.378,4.352,5.378c6.35,0,28.642-21.681,29.315-22.359
		C318.198,528.949,341.449,490.15,344.957,476.911z M390.228,714.09c7.634-0.827,11.127-0.745,11.127-3.342
		c0-3.005-29.415-80.391-47.943-80.391c-3.788,0-3.843,4.277-3.843,6.862C349.569,655.775,382.075,702.891,390.228,714.09z
		 M228.156,558.457c-3.573-6.322-6.803-14.081-13.441-14.081c-3.076,0-8.099,3.824-8.099,13.337c0,5.169,1.083,10.208,1.981,15.265
		c0.444,2.5,1.966,4.368,4,5.792c2.985,2.09,21.589,10.263,25.226,10.263c3.081,0,13.74-2.497,29.498-8.979
		c-1.073-8.167-2.104-16.007-3.149-23.964c-20.494,6.481-23.457,6.478-25.984,6.478c-4.486,0-5.586-1.178-7.545-1.178
		c-4.203,0-12.127,10.731-14.78,10.731c-0.864,0-1.861-0.75-1.861-1.91C214.001,567.593,218.667,562.106,228.156,558.457z
		 M573.018,941.825c66.803-43.601,92.082-41.599,92.082-48.874c0-0.692-0.033-11.634-13.96-11.634
		C632.549,881.317,604.776,895.798,573.018,941.825z M442.025,654.174c0.16-0.113,0.32-0.225,0.481-0.338
		c-27.378-100.431-36.683-118.876-43.682-118.876c-0.642,0-1.479,0.447-1.479,4.325C397.344,549.392,415.779,631.74,442.025,654.174
		z M476.057,634.12c-0.079,0.113-0.158,0.225-0.237,0.338c5.891,6.553,30.583,29.462,65.595,29.462
		c21.782,0,35.21-8.809,35.21-11.886c0-0.77,0.18-2.39-9.817-2.951C493.027,644.948,488.731,637.539,476.057,634.12z
		 M411.547,382.204c0-0.317-0.014-0.645-0.042-0.982c-10.351,3.376-55.382,40.956-55.382,56.491c0,2.938,4.425,6.552,8.677,6.552
		c0.656,0,1.338-0.071,2.048-0.219c5.054-1.057,9.388-0.401,17.799-5.689c1.64-1.031,2.586-2.5,2.682-4.709
		C388.853,398.602,411.547,390.886,411.547,382.204z M493.421,329.697c-0.055-0.168-0.11-0.336-0.164-0.504
		c-0.349,0-0.699-0.005-1.048-0.005c-19.058,0-30.165,1.375-31.628,1.53c-15.584,1.659-24.778,13.84-24.778,18.705
		c0,4.892,6.273,7.768,12.402,7.768c7.561,0,14.593-2.061,20.598-4.43C470.93,351.921,478.108,343.944,493.421,329.697z
		 M607.891,417.901c-0.856-2.872-5.347-25.928-17.766-25.928c-10.005,0-22.627,6.455-22.627,16.26
		c0,6.986,8.658,15.905,20.319,15.905C595.807,424.137,601.15,420.416,607.891,417.901z M412.876,363.782
		c0,1.878,0.178,3.776,0.541,5.703c0.336,0.015,0.692,0.022,1.067,0.022c12.61,0,46.406-8.112,50.618-12.398
		c-3.233,0.965-9.823,3.032-16.531,3.032c-7.445,0-15.769-3.555-15.769-10.79c0-1.983,0.687-4.056,2.107-6.047
		c13.843-19.4,28.686-15.281,54.625-17.058c-1.94-1.73-14.558-2.64-19.819-2.64C437.416,323.606,412.876,341.195,412.876,363.782z
		 M227.777,598.905c-1.899,5.624-1.814,7.803-4.237,11.238c-0.425,0.603-1.07,0.987-1.808,0.987c-0.639,0-2.23-0.378-2.23-2.3
		c0-2.96,0.524-3.572,4.177-12.515c-4.396-1.854-8.948-2.432-10.538-2.432c-3.797,0-9.714,2.228-9.714,6.779
		c0,8.449,38.113,25.846,42.264,25.846c4.296,0,17.403-7.31,22.339-11.529c-1.922,0.377-3.817,0.611-5.707,0.611
		c-2.626,0-5.245-0.452-7.915-1.602c0.27,0.768,0.52,1.154,0.52,1.52c0,0.623,0.204,2.832-1.479,2.832
		c-0.477,0-0.985-0.199-1.409-0.477c-7.451-4.88-7.69-11.141-8.121-16.301C238.374,600.649,233.157,599.79,227.777,598.905z
		 M559.435,606.14c7.859,5.033,13.83,19.658,17.055,19.658c4.871,0,27.68-63.985,29.925-71.988
		C600.925,557.536,601.009,573.059,559.435,606.14z M535.998,797.616c0.218-0.113,0.435-0.226,0.653-0.339
		c-3.68-14.165-9.16-33.469-9.16-55.784c0-5.667,0.617-8.39,1.052-10.87c-21.385,15.097-29.673,19.126-32.476,22.371
		C517.512,753.932,518.72,779.654,535.998,797.616z M657.497,450.232c-0.264,0-0.559,0.043-0.893,0.139
		c0,0.731,0.019,1.427,0.019,2.108c0,11.179-5.549,15.115-6.404,17.264c-0.588,1.48-0.402,3.252-0.686,4.873
		c-0.644,3.686-1.416,5.947-1.416,7.447c0,1.471,0.545,2.787,1.76,3.832c1.563,1.345,3.144,2.719,4.899,3.781
		c16.53,10.008,13.148,16.064,29.495,30.717c-0.02-0.955-0.374-1.664-0.709-2.382C670.162,489.303,665.232,450.232,657.497,450.232z
		 M689.771,424.757c0-0.689-0.172-1.419-0.22-2.13c-0.091-0.005-0.18-0.007-0.266-0.007c-2.423,0-3.077,1.561-9.892,7.27
		c-7.022,5.882-8.233,3.342-8.927,5.814c-0.257,0.913-3.054,9.206-9.113,13.362c10.797,13.369,11.109,37.512,22.438,61.755
		c2.179-18.365,3.313-15.82,3.313-19.702c0-7.604-12.342-8.655-12.342-23.674C674.762,447.629,689.771,435.715,689.771,424.757z
		 M330.628,616.031c0,0.869-0.02,1.867-0.02,2.914c0,1.28-0.288,6.739,5.163,6.739c2.278,0,2.953,0.025,11.338-3.804
		c1.392-0.636,2.987-1.481,2.987-9.267c0-5.623-3.498-34.381-9.709-34.381C339.772,578.231,332.635,578.405,330.628,616.031z
		 M392.971,430.311c3.312-2.619,47.771-48.101,48.642-49.694c-0.139-0.067-0.278-0.193-0.416-0.193
		C415.331,380.424,405.628,391.09,392.971,430.311z M563.182,629.489c-0.049-0.229-0.097-0.457-0.146-0.686
		c-63.306-5.266-71.186-18.464-87.706-18.464c-0.341,0-0.687,0.006-1.041,0.019c19.578,18.688,45.865,23.431,61.222,23.431
		C548.439,633.788,557.218,631.019,563.182,629.489z M610.231,484.862c0,11.854,4.016,26.599,8.966,31.653
		c0.533-2.075,4.246-14.325,4.246-21.844c0-4.853-1.319-7.009-1.319-7.828c0-0.911,0.554-1.505,1.29-1.505
		c1.716,0,27.421,25.674,34.561,31.44c-0.142-0.53-0.148-0.698-0.226-0.821c-15.57-24.657-10.465-28.248-14.463-28.864
		c-20.962-3.229-25.535-6.335-32.605-8.547C610.374,480.492,610.231,482.625,610.231,484.862z M452.16,571.315
		c2.156-11.583,13.143-22.155,13.143-27.301c0-6.636-8.2-11.038-10.681-11.038c-4.317,0-17.143,12.672-17.143,19.494
		C437.479,555.76,442.117,563.942,452.16,571.315z M272.826,500.044c-1.694,0-3.3,0.017-4.874,0.017
		c-2.646,0-2.797-0.045-4.638-0.045c-30.762,0-33.657,9.722-33.657,12.08c0,1.205,1.93,10.555,11.536,10.555
		c1.182,0,2.456-0.109,3.314-1.657c-2.088-2.001-6.558-5.486-6.558-10.086c0-2.34,1.943-2.921,3.705-2.921
		c5.541,0,5.899,5.59,7.304,10.984c5.24,0.184,10.572,0.371,15.845,0.557C269.256,502.91,269.545,505.557,272.826,500.044z
		 M385.696,648.658c0.165-0.022,0.329-0.043,0.494-0.065c0.165-1.734,0.305-2.047,0.305-5.125c0-32.498-16.527-60.182-22.171-64.647
		c-0.289,1.667-0.459,3.263-0.459,4.81C363.866,590.912,369.327,603.278,385.696,648.658z M543.752,679.93
		c0.035-0.122,0.071-0.243,0.106-0.365c-1.524-0.757-63.972-25.01-66.411-25.01c-0.363,0-0.74,0.046-1.134,0.154
		C479.783,665.507,498.913,675.833,543.752,679.93z M648.22,488.912c1.637,6,10.843,35.189,39.143,48.952
		c-0.124-1.893-4.425-3.494-11.316-16.388C664.672,500.193,669.816,504.23,648.22,488.912z M667.353,431.415
		c0.467,0,0.954-0.039,1.46-0.115c1.461-5.732,3.763-11.805,3.763-17.982c0-8.781-4.555-13.783-7.751-13.783
		c-2.035,0-8.634,2.077-8.634,11.848C656.19,417.005,659.848,431.415,667.353,431.415z M511.916,544.248
		c0.607,0,1.234-0.034,1.883-0.095c4.108-12.459,23.084-14.005,25.129-23.189c-13.829,1.304-16.352,1.528-19.129,2.119
		c-14.134,3.007-16.039,14.245-16.039,16.08C503.76,541.439,506.993,544.248,511.916,544.248z M390.166,354.362
		c3.162,5.45,4.29,10.031,7.787,10.031c1.181,0,2.287-0.701,3.07-2.041c0.866-1.482,12.121-24.819,13.015-33.496
		c-0.36-0.104-0.69-0.149-0.994-0.149C411.895,328.707,410.769,327.366,390.166,354.362z M222.922,544.322
		c9.522-9.803,9.409-9.379,9.409-10.552c0-1.7-3.733-9.513-8.684-9.513c-4.052,0-10.423,5.344-10.423,12.487
		c0,1.035,0.127,2.103,0.395,3.196C214.017,541.567,214.126,541.209,222.922,544.322z M533.143,555.417
		c-4.197-5.686-8.855-6.287-9.674-6.287c-0.583,0-1.078,0.2-1.604,0.748c-10.061,10.48-11.031,10.277-11.031,12.901
		c0,1.77,1.253,5.559,4.941,5.559C522.599,568.338,529.243,561.002,533.143,555.417z M539.397,403.814
		c2.17-0.521,52.719-29.76,54.121-31.248c-0.292,0.025-0.547-0.003-0.767,0.072c-22.365,7.679-23.075,4.388-27.007,7.855
		C536.321,406.44,541.523,401.58,539.397,403.814z M524.785,546.237c6.679,3.081,4.074,1.367,10.14,6.342
		c7.004-11.326,6.834-20.755,6.834-20.967c0-0.09,0.034-4.888-1.378-5.967C529.255,537.894,533.534,531.832,524.785,546.237z
		 M504.552,319.774c-1.796-0.861-16.043-9.089-37.983-9.089c-20.32,0-28.308,5.622-32.292,7.964
		c9.213-4.149,18.235-6.013,27.119-6.013c13.192,0,26.077,4.109,38.825,10.943C501.527,322.431,502.884,321.24,504.552,319.774z
		 M511.32,547.018c-4.129,0-7-1.903-9.543-4.802c-2.875,2.987-4.943,6.167-4.943,9.992c0,5.176,3.047,9.857,9.434,13.268
		c-0.423-1.375-0.599-2.66-0.599-3.892c0-6.491,4.079-10.989,6.395-14.586C511.811,547.012,511.563,547.018,511.32,547.018z
		 M623.251,476.077c-2.821,0-6.179-0.068-10.221-0.219c9.789,4.878,20.379,6.418,30.755,8.408c0.309-4.081,0.593-7.823,0.872-11.514
		C638.072,474.176,638.193,476.077,623.251,476.077z M923.03,693.348c0,4.875,0.23,9.735,0.872,14.596
		c0.223,0.006,0.446,0.011,0.669,0.017c2.262-10.816,2.651-34.438,2.651-34.504c0-2.618-0.781-5.068-1.871-7.431
		c-0.168-0.363-0.538-0.633-1.051-1.214C923.888,674.466,923.03,683.936,923.03,693.348z M282.533,590.414
		c0-1.416-1.062-2.154-3.045-3.143c-5.156,3.545-9.96,7.41-14.167,12.105c1.81,0.73,3.613,1.081,5.341,1.081
		C279.723,600.458,282.533,591.835,282.533,590.414z M470.298,529.067c0,0.249-0.023,0.444-0.023,0.61
		c0,3.51,7.562,14.838,12.275,14.838c1.807,0,2.577-2.75,3.104-4.066c-2.809-2.58-6.357-4.118-7.175-7.862
		C475.725,531.402,473.09,530.268,470.298,529.067z M669.952,329.456c-0.945-2.517-1.492-4.942-1.492-7.46
		c0-0.875,0.066-1.761,0.205-2.667c-5.767,6.546-11.534,13.091-17.301,19.637c0.073,0.098,0.145,0.196,0.218,0.294
		C657.622,336.037,663.664,332.813,669.952,329.456z M509.09,558.681c7.869-7.288,14.821-14.807,19.32-24.736
		c-4.845,2.933-9.616,5.43-11.759,10.852C515.448,547.838,509.604,553.837,509.09,558.681z M618.941,526.043
		c1.494,1.045,2.903,1.523,4.371,1.523c5.905,0,19.165-5.173,23.719-5.173c3.698,0,5.805,1.601,7.612,2.617
		c-1.052-3.886-4.939-4.057-5.741-4.057c-3.71,0-11.584,3.061-18.241,3.061c-3.616,0-5.473-0.716-10.26-2.015
		C619.923,523.324,619.455,524.619,618.941,526.043z M428.678,371.377c1.691,0.328,4.143,0.35,4.861,0.35
		c5.518,0,22.729-2.543,26.318-8.799C449.407,366.658,439.103,369.225,428.678,371.377z M328.477,453.735
		c-0.16-0.09-0.32-0.18-0.48-0.27c-3.151,4.694-6.303,9.389-9.454,14.083c0.093,0.132,0.186,0.265,0.278,0.397
		c3.644-1.798,7.287-3.597,10.766-5.314C329.189,459.446,328.833,456.59,328.477,453.735z M256.831,595.403
		c-2.883,1.169-5.791,1.994-8.481,3.497c0.933,2.663,1.76,5.021,2.587,7.38C252.162,602.113,253.904,598.471,256.831,595.403z
		 M391.196,425.337c3.283-7.939,6.425-15.541,9.568-23.143C395.621,408.971,392.683,416.657,391.196,425.337z M239.229,540.545
		c0-0.927-0.128-1.881-0.388-2.863c-0.225-0.036-0.45-0.071-0.675-0.107c-0.689,3.469-1.378,6.937-2.067,10.406
		C238.146,545.715,239.229,543.245,239.229,540.545z M245.349,517.374c-0.195-4.216-1.328-6.153-3.635-6.153
		c-0.195,0-0.398,0.014-0.61,0.041C241.537,514,242.82,515.847,245.349,517.374z M616.583,523.585
		c0.559-1.445,1.066-2.358,1.066-3.17c0-1.047-0.274-1.161-3.866-5.817C614.377,517.859,614.862,520.662,616.583,523.585z
		 M493.484,516.625c1.215-1.819,4.088-2.228,4.47-5.384C495.258,512.369,493.94,514.11,493.484,516.625z M247.409,605.405
		c-0.15,0.085-0.299,0.169-0.449,0.254c0.371,1.069,0.741,2.137,1.112,3.206c0.148-0.049,0.296-0.097,0.444-0.146
		C248.148,607.614,247.778,606.509,247.409,605.405z"/>
</g>
</svg>
