<?xml version="1.0" encoding="iso-8859-1"?>
<!-- Generator: Adobe Illustrator 22.1.0, SVG Export Plug-In . SVG Version: 6.00 Build 0)  -->
<svg version="1.1" id="Layer_1" xmlns="http://www.w3.org/2000/svg" xmlns:xlink="http://www.w3.org/1999/xlink" x="0px" y="0px"
	 width="1000px" height="1300px" viewBox="0 0 1000 1300" enable-background="new 0 0 1000 1300" xml:space="preserve">
<g>
	<path fill="#42210B" d="M293.431,200.584c5.476-0.697,18.662-5.111,48.907-5.111c10.809,0,114.305-0.442,125.955,65.284
		c10.352-26.028,14.077-52.75,35.205-52.75c32.061,0,57.109,29.265,91.409,29.265c52.142,0,34.243-51.158,42.445-57.433
		c29.766-22.776,27.896-21.914,29.643-21.914c1.917,0,1.857,1.054,1.857,2.297c0,0.031,0,0.062,0,0.092
		c0,0.174,0.001,0.221,0.001,0.232c0,1.523-10.655,10.829-17.44,60.853c-6.142,45.286-45.773,28.235-45.773,59.779
		c0,4.815,0.783,6.926,0.783,13.925c0,9.175-1.672,13.886-3.03,19.415c8.534,2.306,31.971,7.717,55.324,13.668
		c114.433,29.162,101.98,101.435,108.511,112.995c25.715,45.514,47.718,55.097,47.718,76.22c0,32.134-40.658,46.603-41.319,46.911
		c5.412,4.413,12.034,10.591,12.034,20.313c0,31.789-37.899,66.095-37.899,70.218c0,5.344,35.299,71.508,35.299,202.003
		c0,68.715-14.756,154.178-18.652,172.632c-10.688,50.623-8.182,79.514-18.061,79.514c-12.461,0-58.569-67.931-66.616-78.12
		c-21.516,24.048-78.297,53.389-108.114,53.389c-49.764,0-52.867-111.636-52.867-131.485c0-4.058,0.062-6.359,0.062-7.13
		c0-0.329-0.003-0.682-0.003-1.101c-6.854,0.183-199.834,210.386-289.372,210.386c-77.536,0-72.252-146.803-74.354-234.537
		c-0.678-28.311-27.604-67.218-27.604-101.808c0-16.161,3.398-17.363,10.007-23.52C96.719,764.03,89.697,649.62,89.697,636.077
		c0-80.357,179.923-369.214,328.777-369.214c9.948,0,22.358,0.747,27.008,0.747c0.998,0,1.996-0.016,2.993-0.016
		c0.109-0.234,0.217-0.469,0.326-0.703c-14.517-15.13-38.364-16.25-43.634-16.25c-68.219,0-205.775,154.861-220.082,166.599
		c0.001,0.08,0.001,0.161,0.001,0.241c0,21.65-94.313,176.345-98.976,176.345c-15.225,0-43.635-187.15-43.635-217.992
		c0-56.254,68.962-80.006,96.081-87.274c4.344-1.164,26.333-16.521,46.05-16.521c3.193,0,3.717,0.733,5.413,0.733
		c2.933,0,36.706-18.881,54.223-30.134c39.952-25.665,69.985-80.704,70.018-80.785c-26.721,7.861-79.367,98.396-114.577,98.396
		c-11.892,0-31.061-12.147-31.061-43.906c0-22.313,10.349-68.547,71.037-68.547c16.577,0,30.051,3.354,30.324,3.592
		c0.477,0.414,0.99,1.198,0.99,1.76c0,0.469-0.761,1.61-2.182,1.61c-1.584,0-11.741-3.005-28.761-3.005
		c-50.328,0-67.491,33.172-67.491,64.48c0,32.491,20.019,40.171,27.304,40.171c31.692,0,91.48-98.021,114.457-98.021
		c1.967,0,5.409,1.234,5.409,2.88C319.711,163.216,294.687,197.239,293.431,200.584z M158.822,915.198
		c0,1.159-0.013,2.022-0.013,2.775c0,126.784,7.056,233.16,70.737,233.16c78.973,0,241.991-169.158,287.401-210.793
		c4.555-4.177,0.306-103.379,38.743-103.379c7.222,0,21.66-0.589,81.356,116.013c3.892,7.603,41.637,48.313,43.89,70.071
		c0.867,8.378,48.537,68.372,59.287,78.838c1.648,1.604,3.59,2.897,6.445,3.181c6.125-14.469,7.177-21.486,7.177-97.398
		c0-187.757-111.038-365.138-111.038-447.988c0-2.521,1.022-3.723,3.321-3.723c1.211,0,3.003,0.319,5.841,1.397
		c74.316,28.212,91.447,88.072,93.895,92.936c3.733-4.557,35.789-39.227,35.789-64.55c0-15.539-13.719-19.541-14.358-19.541
		c-1.486,0-8.268,3.011-25.135,3.011c-56.777,0-81.087-20.726-103.169-20.726c-48.569,0-82.972,111.596-82.972,152.176
		c0,18.779,5.309,59.297,5.309,71.122c0,24.517-20.314,33.13-20.314,50.478c0,1.221,0.074,1.628,0.074,2.165
		c0,0.965-0.555,6.124-3.435,6.124c-0.862,0-1.025-0.11-7.694-1.992c-4.811,29.17,9.834,130.606-239.839,130.606
		c-21.406,0-42.609-2.096-63.452-7.662C180.901,939.277,179.473,940.273,158.822,915.198z M463.219,359.324
		c-52.484,0.832-212.87,9.469-212.87,114.17c0,117.338,242.566,313.583,250.824,313.583c3.186,0,5.863-1.656,9.272-4.53
		c23.733-20.012,26.625-59.217,31.484-82.503c5.532-26.512,35.638-93.49,35.638-97.457c0-14.354-6.93-39.289-11.133-55.493
		C525.8,390.447,567.11,364.705,463.219,359.324z M455.215,793.397C237.89,644.832,193.898,449.992,188.358,449.992
		c-3.071,0-6.167,2.561-11.212,10.44c-65.424,102.157-83.658,120.961-83.658,176.411c0,189.634,106.207,193.232,242.518,193.232
		C400.386,830.073,417.537,831.595,455.215,793.397z M299.489,203.281c0.006,0.222,0.012,0.443,0.018,0.665
		c56.681,5.96,154.129,52.984,154.129,64.198c0,1.47-1.289,3.147-5.684,3.147c-8.788,0-26.261-0.696-31.97-0.696
		c-65.692,0-141.042,59.933-215.492,156.389c48.458,149.318,185.547,321.706,280.553,354.117
		c-50.317-49.334-234.534-198.223-234.534-307.816c0-9.095-5.454-117.503,217.3-117.503c66.517,0,77.355,12.764,87.146,89.307
		c12.004,93.852,24.71,107.824,30.267,152.864c33.873-56.917,32.988-42.598,39.419-50.015
		c-46.839-4.504-59.974-59.254-59.974-82.728c0-64.969,63.847-89.799,109.106-89.799c62.865,0,84.311,43.831,90.6,53.459
		c-7.532-115.78-232.115-113.593-291.687-150.068c-2.458-1.505-3.658-3.78-3.726-6.823c-1.383-61.811-81.724-72.697-122.64-72.697
		C318.918,199.282,303.338,202.608,299.489,203.281z M144.657,799.403c5.193,8.705,5.011,14.071,13.483,104.325
		c0.53,5.645,15.727,51.605,135.942,51.605c193.455,0,222.823-54.572,232.265-127.737c-50.108-17.897-64.079-31.499-67.317-31.499
		c-0.701,0-1.294,0.512-2.448,1.602c-31.747,29.988-37.418,36.354-125.28,36.354C266.719,834.053,233.874,832.552,144.657,799.403z
		 M564.499,465.359c0,25.978,15.041,78.918,61.195,78.918c39.114,0,136.51-59.366,136.51-97.397
		c0-14.237-26.482-67.525-92.923-67.525C637.719,379.355,564.499,395.356,564.499,465.359z M135.338,294.325
		c0-0.059-0.106-0.187-0.337-0.615c-6.009,1.357-88.713,23.659-88.713,82.34c0,44.693,9.737,83.083,15.939,110.857
		c12.724,56.982,14.79,102.86,23.93,102.86c3.019,0,95.155-156.297,95.155-172.617c0-9.788-47.527-81.389-47.527-115.136
		C133.784,297.312,135.338,294.429,135.338,294.325z M757.421,1028.217c0,4.695-0.002,9.389-0.002,14.084
		c0.14,0.029,0.281,0.058,0.421,0.087c9.904-43.473,21.432-135.451,21.432-183.899c0-273.53-127.001-297.05-132.43-298.725
		c0,0.815-0.047,1.477-0.047,2.072c0,94.392,110.644,244.145,110.644,433.288c0,7.276-0.021,14.552-0.021,21.828
		C757.417,1019.942,757.421,1021.17,757.421,1028.217z M288.828,206.403c-39.643,48.201-89.822,64.557-99.043,71.087
		c-22.799,16.145-26.091,21.16-26.091,39.107c0,13.558,10.009,73.237,21.517,95.91c12.375-11.624,149.003-165.645,219.71-165.645
		c5.756,0,9.577,0.645,9.991,0.645c0.263,0,0.601-0.061,1.302-0.113C348.098,210.061,289.839,206.538,288.828,206.403z
		 M522.653,950.465c0,3.3-0.008,6.888-0.008,11.103c0.837,28.239,6.975,118.896,49.126,118.896
		c37.423,0,104.842-44.347,104.842-53.464c0-0.08-65.107-120.332-97.397-120.332c-17.649,0-56.591,31.838-56.591,35.761
		C522.625,942.754,522.653,944.82,522.653,950.465z M599.525,313.666c2.804-5.666,3.188-13.913,3.188-17.511
		c0-5.423-0.875-12.011-0.875-18.465c0-27.663,39.49-14.895,45.988-57.961c7.074-46.878,11.907-47.216,12.654-52.395
		c-1.236,0.282,1.808-1.64-20.646,15.436c-4.979,3.786,9.282,58.357-44.779,58.357c-35.151,0-61.656-29.255-91.265-29.255
		c-7.394,0-12.707,3.707-16.009,10.312c-7.989,15.981-19.013,50.918-19.013,50.999C468.768,277.7,476.387,278.5,599.525,313.666z
		 M197.542,431.005c-3.948,5.306-7.739,9.947-11.108,15.111c6.666,0.872,9.831,3.739,11.564,10.021
		c40.891,148.251,208.995,336.401,338.909,370.275c0.121-0.89,0.309-1.538,0.309-2.148c0-0.238-0.079-0.942-0.079-2.154
		c0-18.843,20.391-27.268,20.391-49.709c0-16.816-5.375-47.69-5.375-71.528c0-8.662,0.478-11.908,2.092-27.319
		c-7.598,12.847-12.353,49.858-16.058,65.523c-8.546,36.134-28.273,52.001-37.57,52.001
		C488.786,791.078,344.16,765.534,197.542,431.005z M648.232,545.153c25.976,8.348,54.334,20.264,94.913,20.264
		c42.202,0,67.943-26.979,67.943-47.983c0-4.651-0.697-11.72-12.717-25.904c-22.02-25.985-28.508-39.113-32.23-44.028
		C760.976,498.285,656.328,542.385,648.232,545.153z M623.189,936.058c0.111-0.064,0.222-0.128,0.332-0.192
		c-7.316-15.221-48.422-95.104-67.78-95.104c-3.021,0-32.694,3.488-32.694,92.711c0,0.32,0.179,0.658,0.347,1.27
		c6.543-5.312,37.144-31.956,55.913-31.956C592.874,902.787,605.658,915.813,623.189,936.058z M184.551,276.577
		c-0.072-0.208-0.143-0.416-0.215-0.624c-17.018,1.277-46.781,12.315-46.781,26.358c0,9.642,14.348,52.572,33.621,84.814
		c0.191-0.462,0.262-0.885,0.262-1.287c0-3.999-11.522-48.683-11.522-71.452C159.916,296.623,166.154,289.733,184.551,276.577z
		 M153.238,892.673c0-0.878,0.021-1.469,0.021-1.953c0-0.08-5.438-83.542-13.759-91.941c-8.49,5.747-8.155,12.115-8.155,19.414
		c0,7.964,0.834,15.828,3.387,23.405C138.543,852.901,151.684,890.061,153.238,892.673z M650.571,977.148
		c1.672,5.633,21.367,36.692,25.314,40.078C669.469,1002.15,659.907,989.709,650.571,977.148z"/>
</g>
</svg>
