<?xml version="1.0" encoding="iso-8859-1"?>
<!-- Generator: Adobe Illustrator 22.1.0, SVG Export Plug-In . SVG Version: 6.00 Build 0)  -->
<svg version="1.1" id="Layer_1" xmlns="http://www.w3.org/2000/svg" xmlns:xlink="http://www.w3.org/1999/xlink" x="0px" y="0px"
	 width="1000px" height="1300px" viewBox="0 0 1000 1300" enable-background="new 0 0 1000 1300" xml:space="preserve">
<g>
	<path fill="#42210B" d="M825.573,744.278c1.315,7.174,2.653,11.417,2.653,20.45c0,29.704-14.624,66.671-14.624,79.987
		c0,5.229,1.163,7.87,1.163,20.538c0,14.939-2.865,47.597-2.865,73.4c0,15.366,9.556,47.48,9.556,81.224
		c0,38.712,0.435,33.734-25.933,46.302c1.823,0.993,3.299,2.395,3.299,11.42c0,3.374-0.329,6.736-0.883,10.094
		c-7.164,43.47-4.491,40.549-9.286,44.616c-97.881,83.014-124.388,85.956-148.965,85.956c-78.566,0-207.756-70.263-239.008-87.012
		c-1.502-0.805-2.233-1.578-2.233-2.482c0-1.199,87.809-95.023,96.904-117.801c-3.044,1.308-29.543,28.758-74.854,28.758
		c-49.907,0-83.223-33.133-90.006-33.133c-1.552,0-21.305,2.22-47.205,2.22c-120.353,0-263.315-70.526-263.315-136.945
		c0-36.427,48.426-52.982,97.183-52.982c56.698,0,101.609,21.74,104.852,21.934c-0.474-5.11-4.01-18.943-4.01-39.62
		c0-24.826,4.75-39.151,4.75-41.007c0-1.545-91.485-92.805-149.563-92.805c-22.304,0-37.681,15.215-37.681,35.97
		c0,41.789,50.726,98.835,94.873,98.835c4.853,0,9.607-0.91,14.183-3.256c22.988-11.786,10.466-34.804,17.505-34.804
		c2.366,0,2.493,2.499,2.493,2.925c0,9.537-0.423,12.15-0.45,12.372c-2.399,19.818-20.269,27.825-33.58,27.825
		c-46.97,0-100.074-59.238-100.074-103.782c0-7.792,4.839-41.138,42.963-41.138c53.64,0,126.877,69.447,151.108,91.361
		c0.366-1.012,17.37-58.59,56.515-58.59c20.922,0,39.002,19.074,48.34,34.003c27.406,43.814,75.496,241.884,75.496,244.423
		c0,2.215-1.27,3.588-3.257,3.588c-20.865,0-88.324-92.253-172.111-127.161c20.763,85.138,97.561,151.022,107.625,151.022
		c24.216,0,108.111-20.693,138.52-20.693c23.814,0,29.83,5.28,31.139,6.197c5.136-1.956,7.365-13.442,7.365-19.051
		c0-71.117-58.252-86.799-59.624-86.799c-0.142,0-0.333,0.115-0.745,0.244c10.811,20.452,27.469,43.591,27.469,69.625
		c0,11.481-5.266,24.276-22.486,24.276c-24.765,0-63.141-32.706-63.141-64.973c0-18.232,12.606-36.368,41.219-36.368
		c2.479,0,5.022,0.06,7.724,0.06c-2.27-5.257-16.999-35.221-16.999-50.097c0-2.134,0.331-4.259,0.908-6.352
		c2.076-7.535,5.989-6.064,8.088-7.294c-2.163-1.972-5.232-5.077-16.933-12.12c-53.601-32.264-56.7-144.402-56.7-146.247
		c0-5.385-0.038-10.726,7.532-34.676c-0.188-0.066-0.376-0.132-0.563-0.198c-6.609,18.178-8.621,33.924-21.659,33.924
		c-1.266,0-2.563-0.17-3.864-0.512c-22.303-5.862-20.335-4.202-30.597-11.167c-0.455,1.138-6.503,22.325-22.39,22.325
		c-10.751,0-36.291-24.938-36.291-38.855c0-20.261,29.987-26.323,29.987-42.984c0-3.997-1.788-5.728-5.135-10.332
		c-6.244,13.308-9.892,22.88-19.171,22.88c-4.896,0-8.38-3.1-10.9-4.941c-2.87,19.124-11.854,23.86-13.154,23.86
		c-0.656,0-1.698-0.437-1.698-2.384c0-0.816,0.463-3.698,0.463-8.624c0-39.315-28.232-48.969-31.541-69.865
		c-5.4-34.103-6.838-62.501-6.838-69.839c0-57.209,17.49-94.094,28.672-94.094c9.639,0,9.196,24.626,14.722,24.626
		c1.676,0,3.18-1.665,4.822-3.22c-0.809-2.728-4.181-7.565-4.181-17.037c0-36.641,49.426-71.874,52.151-71.874
		c0.195,0,1.358,0.064,1.358,1.427c0,3.928-15.22,7.281-15.22,21.28c0,1.504,0.189,3.073,0.575,4.709
		c2.217-6.6-1.884-9.69,22.92-30.393c15.392-12.846,12.033-13.102,14.77-13.102c0.386,0,0.859,0.029,1.465,0.069
		c22.209-39.056,21.985-50.452,27.783-50.452c6.349,0,16.579,7.968,19.568,7.968c0.752,0,1.52-0.195,2.372-0.591
		c1.976-0.918,4.148-1.405,6.204-2.164c5.277-1.949,4.887-2.988,7.56-2.988c5.913,0,16.615,8.212,16.688,8.263
		c1.572-2.813,4.135-9.942,15.773-9.942c3.384,0,8.776,1.22,8.776,3.06c0,0.961-0.914,2.19-2.298,4.358
		c0.268,0.102,0.512,0.145,0.738,0.145c1.602,0,11.911-6.941,19.624-6.941c38.736,0,56.384,127.771,95.658,138.008
		c15.357,4.003,16.159,7.926,18.569,7.926c0.243,0,0.719-0.091,1.751-0.091c8.037,0,42.216,14.527,44.334,14.527
		c0.976,0,1.075-0.589,2.293-0.589c1.608,0,15.614,7.106,16.179,7.405c4.77,2.525,7.664,6.064,9.428,6.064
		c0.685,0,0.943-0.305,1.379-0.305c16.293,0,18.464,6.138,35.035,26.032c6.398-1.949,7.574-2.473,10.345-2.473
		c1.545,0,18.016,3.646,30.482,3.646c7.388,0,12.614-1.071,18.39-1.071c15.074,0,22.413,6.539,25.89,14.455
		c12.285,27.971,30.015,20.118,35.262,35.979c7.204,21.781,26.311,19.194,29.311,45.015
		c14.112,121.474,149.415,112.37,149.415,256.778c0,1.892-0.005,3.785-0.005,5.676c0,2.543,0.008,2.756,0.008,4.938
		c0,9.46-0.177,18.92-0.246,28.38c-0.045,6.244-5.386,20.838-14.594,20.838C894.417,844.248,825.632,744.351,825.573,744.278z
		 M366.362,483.947c2.286,0,4.424-0.795,6.533-1.741c1.825-0.512,27.995-7.763,40.788-7.763c19.69,0,30.23,10.773,34.077,13.369
		c0.218-0.284,0.416-0.423,0.416-0.556c0-0.998-0.322-5.086-0.322-12.015c0-77.79,37.399-128.222,40.428-128.222
		c2.01,0,15.566,11.656,30.153,17.757c0.092-0.165,0.185-0.33,0.277-0.495c-35.745-29.248-48.727-51.068-53.148-55.501
		c-8.885,37.577-8.576,71.774-21.699,75.814c-32.999,10.158-29.596,2.453-35.468,11.588c-0.446,0.694-0.683,1.332-0.683,1.999
		c0,2.255,6,11.167,6,15.657c0,0.724-4.726,27.828-33.901,63.127c-0.367,0.444-0.362,0.54-6.869,5.283
		c-6.233,1.033-3.836,0.683-9.275,1.315C364.593,483.83,365.488,483.947,366.362,483.947z M436.673,550.6
		c3.939,7.719,21.306,8.737,26.08,8.737c12.477,0,26.806-6.863,34.651-6.863c13.246,0,62.352,23.466,76.14,28.011
		c1.946,0.641,4.848,2.296,4.848,4.556c0,4.027-9.413,6.204-16.025,6.204c-11.503,0-58.575-6.237-69.117-6.237
		c-4.855,0-22.848,0.774-22.848,5.639c0,4.868,101.653,47.079,121.778,47.079c11.848,0,32.013-4.816,48-4.816
		c44.646,0,47.524,143.721,47.524,154.792c0,21.925-2.554,72.307-2.554,99.311c0,13.997,7.867,62.622,13.198,76.071
		c0.029,0.073,11.578,36.88,16.087,36.88c0.003,0,0.005,0,0.011,0c2.763,0,5.158,1.238,7.368,2.681
		c15.458,10.093,36.109,22.396,36.109,34.47c0,5.755-6.229,6.24-8.143,6.24c-15.104,0-32.518-29.172-38.017-37.278
		c-4.241,2.453-19.628,26.237-19.628,28.093c0,1.616,29.657,32.882,71.725,32.882c8.035,0,26.897-2.109,38.95-8.845
		c13.361-7.466,14.533-0.207,14.533-37.98c0-32.029-9.577-73.898-10.356-76.831c-88.535-333.419-77.27-343.508-145.402-378.094
		c-65.244-33.12-107.784-72.782-123.087-72.782c-0.762,0-0.825,0.161-1.9,0.476c7.662,5.611,14.142,9.896,20.911,15.182
		c24.898,19.442,29.621,18.197,29.621,21.52c0,0.626-0.577,1.906-1.911,1.906c-9.093,0-67.58-52.214-88.724-55.625
		c0.429,0.882,0.589,1.4,0.895,1.808c34.207,45.677,46.267,45.629,60.762,50.585c23.735,8.116,34.427,7.009,34.427,10.923
		c0,0.622-0.308,1.255-0.943,1.753c-0.809,0.635-1.629,1.104-6.021,1.104c-14.726,0-41.72-20.714-79.343-20.714
		c-3.795,0-7.599,0.194-11.407,0.579c-35.254,3.562-37.126-1.141-41.528,8.705c4.052,2.5,11.299,3.957,15.455,3.957
		c5.241,0,22.117-1.695,36.349-1.695c10.152,0,35.432,1.077,35.432,5.274c0,0.772-0.35,1.734-1.836,2.12
		c-0.855,0.222-1.75,0.418-2.626,0.418c-10.14,0-15.618-1.058-25.56-1.058C503.055,539.738,457.991,541.965,436.673,550.6z
		 M552.939,680.901c-9.177,7.258-19.458,7.827-72.182,7.827c-29.673,0-62.172-15.047-62.172-45.495
		c0-11.414,6.497-31.911,26.365-31.911c54.031,0,93.324,50.267,107.648,62.685c0.752-1.498,1.074-2.877,1.074-4.244
		c0-4.459-2.16-14.129-8.559-26.034c-14.264-26.534-2.697-15.643-69.975-44.095c-3.369-1.425-9.033-4.536-9.033-9.092
		c0-9.529,23.395-9.62,26.656-9.62c5.29,0,16.043,0.927,17.699,0.927c0.509,0,1.06-0.139,2.001-0.254
		c-2.393-2.501-15.607-19.085-39.555-19.085c-0.579,0-4.156,0.955-10.031,0.955c-12.154,0-21.266-3.853-23.603-4.722
		c-3.37-1.252-6.775-5.59-6.775-7.992c0-6.992,17.176-6.333,34.437-11.616c-8.003-1.99-17.823-3.392-17.823-8.406
		c0-0.756,0.222-1.564,0.645-2.424c4.262-8.663,8.419-7.826,13.802-8.585c0.005-0.096,0.008-0.196,0.008-0.297
		c0-4.312-4.594-12.971-7.836-14.805c-0.306,3.276-0.589,16.762-11.609,25.962c-62.672,52.323-69.39,74.299-71.229,79.703
		c1.905-1.214,4.956-7.67,8.444-7.67c8.055,0,92.737,144.055,92.737,181.547c0,27.197-17.752,28.436-26.161,29.71
		c2.538,2.848,204.807,217.2,239.34,217.2c3.786,0,5.172-9.872,22.323-29.244c-27.254-54.321-28.552-116.313-28.552-117.589
		c0-1.696,0.917-37.439,0.917-38.801c0-12.682-3.374-21.223-29.272-42.051C596.968,758.591,577.466,697.933,552.939,680.901z
		 M439.846,814.236c-0.665,0-1.37,0.108-2.128,0.32c1.632,10.4,102.585,110.201,102.585,124.794
		c0,38.727-118.206,167.264-136.36,188.854c4.476,3.019,155.444,85.957,235.681,85.957c53.288,0,133.143-75.38,133.143-75.452
		c0-0.525-0.142-0.843-0.142-0.987c0-0.955,3.551-3.495,3.551-15.334c0-6.767-0.995-8.153-2.551-9.786
		c-5.822-6.108-11.357-7.964-26.784-7.964c-49.046,0-106.122,28.899-178.416,28.899c-32.467,0-52.966-6.094-52.966-43.058
		c0-34.555,20.981-104.23,39.09-104.23c30.841,0,53.951,99.596,147.527,99.596c21.306,0,51.612-4.616,83.765-16.763
		c-0.323-0.02-0.643-0.029-0.961-0.029c-4.221,0-10.345,2.172-21.952,2.172c-37.329,0-58.257-20.852-71.558-31.268
		c-3.468-2.716-2.333-5.023-5.501-5.043C650.829,1034.687,443.354,814.236,439.846,814.236z M802.18,702.332
		c-0.163,0.094-0.327,0.188-0.49,0.282c84.351,126.532,138.418,137.496,148.551,137.496c6.702,0,11.24-11.482,11.24-18.24
		c0-0.515-0.016-0.67-0.016-1.513c0-0.074,0.196-14.378,0.196-29.524c0-28.242-0.792-33.566-4.477-57.447
		c-7.082-45.899-130.887-139.924-137.998-147.808c-91.988-101.978-88.996-65.271-148.75-143.18
		c-26.666-34.77-25.133-30.005-36.772-32.762c0.211,1.742,20.945,21.307,20.945,26.865c0,1.325-1.177,2.311-2.293,2.311
		c-1.556,0-4.06-2.213-4.118-2.265c-21.519-19.621-15.411-27.082-30.036-33.647c-11.598-5.207-7.833-3.809-11.178-4.668
		c11.244,14.263,24.66,24.537,24.66,32.78c0,1.834-1.569,2.945-2.938,2.945c-7.908,0-24.607-35.77-29.306-37.484
		c-40.971-14.941-35.256-12.833-38.069-13.411c-0.101,0.183-0.202,0.366-0.303,0.549c47.874,43.803,48.932,53.024,48.932,53.728
		c0,1.574-1.117,2.76-2.69,2.76c-15.823,0-40.246-61.737-70.901-65.273c-0.139,0.316-0.283,0.496-0.283,0.628
		c0,7.879,34.566,60.036,38.134,64.058c56.309,63.478,8.092,38.452,115.127,114.915c9.097,6.499,41.268,57.68,55.767,72.405
		c-2.914-7.843-42.805-66.842-42.805-69.078c0-1.287,0.893-2.245,2.208-2.245c3.905,0,210.976,136.996,210.976,213.688
		c0,11.319-8.231,16.275-15.258,16.275C872.151,785.474,813.311,714.886,802.18,702.332z M238.913,602.107
		c0,0.554,0.012,1.108,0.012,1.662c0.281,0.082,0.561,0.164,0.842,0.247c1.475-2.042,6.595-6.916,6.595-21.629
		c0-2.406-1.845-4.045-1.845-9.576c0-20.679,22.81-28.579,22.81-52.807c0-30.296-22.887-64.402-22.887-87.354
		c0-2.191,0.351-6.354,4.824-6.354c7.888,0,25.959,9.041,25.959,64.561c0,41.88-5.431,40.641-9.388,49.408
		c-8.767,19.419-15.773,10.374-15.773,39.122c0,3.224,5.158,8.802,11.103,8.802c9.212,0,15.914-22.331,15.914-22.896
		c0-3.051-3.609-6.252-3.609-14.965c0-6.767,2.789-15.69,7.558-15.69c3.095,0,5.445,3.415,5.445,10.275
		c0,8.684-4.723,17.343-4.723,19.364c0,2.997,6.848,7.111,6.848,14.93c0,19.003-29.963,25.274-29.963,42.424
		c0,12.738,23.444,35.868,32.783,35.868c21.201,0,21.533-37.745,21.533-48.193c0-0.479-0.003-0.717-0.003-1.626
		c0-22.979,0.341-39.181,9.579-39.181c8.953,0,11.84,15.429,11.84,24.349c0,20.355-19.361,34.636-19.361,41.087
		c0,0.814,0.394,1.572,1.241,2.184c3.122,2.255,6.286,4.463,10.031,5.526c20.137,5.712,20.403,5.42,21.564,5.42
		c8.746,0,12.066-11.858,12.266-12.531c25.128-84.541,91.919-94.734,91.919-128.638c0-14.518-17.914-27.9-37.628-27.9
		c-71.533,0-75.39,68.45-100.535,68.45c-10.587,0-11.958-13.147-11.958-19.496c0-13.521,16.856-61.12,16.856-101.794
		c0-13.028-6.47-22.501-16.865-29.754c-1.849-1.29-4.649-2.819-14.49-2.819c-5.664,0-6.805,0.763-9.766,0.763
		c-11.519,0-15.489-12.843-18.039-12.843c-0.487,0-1.062,0.33-1.966,0.982c-10.135,7.304-12.364,12.654-17.213,12.654
		c-9.167,0-8.445-24.537-14.574-24.537c-8.211,0-25.195,35.493-25.195,88.649c0,81.09,15.612,88.116,16.094,88.568
		c4.777,4.474,22.237,25.183,22.237,51.62C238.985,600.442,238.913,600.978,238.913,602.107z M325.638,1001.972
		c0.053-0.192,0.106-0.384,0.159-0.576c-2.964-2.623-78.969-59.275-101.573-152.001c-1.173-4.81-55.98-25.512-106.721-25.512
		c-37.053,0-92.559,11.006-92.559,48.103c0,52.011,118.682,131.814,260.484,131.814
		C289.476,1003.801,305.46,1003.574,325.638,1001.972z M358.769,243.888c1.128,0,2.022-0.794,3.052-1.884
		c-6.54-4.35-13.49-6.506-14.343-6.506c-2.992,0-10.26,23.966-23.327,44.858c-5.895,9.425-12.101,37.809-13.134,38.507
		c-0.579,0.392-1.279,1.038-1.819,1.038c-0.739,0-1.523-1.727-1.523-2.022c0-0.073,4.609-23.412,4.609-24.176
		c0-0.308-0.031-0.629-0.031-0.963c-0.407,0.087-0.626,0.069-0.746,0.169c-22.349,18.741-27.599,23.307-27.599,34.527
		c0,6.168,3.052,17.574,3.052,19.457c0,1.129-0.84,1.839-1.456,1.839c-0.46,0-1.031-0.253-1.412-0.53
		c-0.53-0.385-8.475-19.254-8.475-26.078c0-2.811,0.56-4.6,0.56-4.894c0-0.258-0.08-0.576-0.126-1.073
		c-4.034,2.967-31.395,28.47-31.395,54.055c0,8.797,3.447,13.956,3.532,14.125c9.318-7.735,10.806-7.576,11.79-7.576
		c5.056,0,7.51,13.042,17.63,13.042c2.36,0,3.737-0.705,9.595-0.705c12.67,0,15.816,1.416,24.632,10.301
		c5.3,5.342,29.939-7.521,29.939,39.964c0,11.064-1.868,13.314-1.868,23.492c0,2.344-1.149,25.739,13.826,25.739
		c2.046,0,4.144-0.589,6.341-1.611c-3.282-2.474-12.322-7.636-12.322-20.078c0-7.952,6.598-22.836,14.166-22.836
		c3.863,0,6.502,3.89,9.547,3.89c1.846,0,3.497-1.258,4.404-3.619c-6.906-0.33-10.723,0.026-10.723-2.588
		c0-2.218,12.791-21.558,18.584-21.558c1.836,0,3.485,1.208,4.441,3.468c0.564,1.333,0.752,1.898,0.752,6.858
		c0,4.969-6.152,35.531-20.094,35.531c-5.064,0-8.973-4.512-12.444-4.512c-1.332,0-1.582,1.359-2.689,4.551
		c-0.402,1.16-0.587,2.277-0.587,3.336c0,7.192,7.078,9.779,12.438,9.779c21.649,0,44.539-60.702,44.539-65.057
		c0-3.089-6.124-13.099-6.124-16.159c0-1.643,0.527-2.071,2.675-5.805c-7.34,0.906-15.653,2.048-23.848,2.048
		c-17.405,0-73.043-12.142-73.043-47.145c0-18.806,35.603-55.535,72.435-55.535c37.563,0,43.903,50.002,43.903,58.731
		c0,12.595-10.268,33.478-11.827,37.022c9.011-0.4,15.945-2.634,25.206-4.625c4.012-0.863,7.178-3.143,8.721-7.181
		c5.582-14.609,13.372-73.553,15.686-73.553c3.146,0,34.753,45.422,51.624,54.776c-0.037-0.696-0.269-1.079-0.509-1.458
		c-38.864-61.331-45.838-114.01-64.536-117.406c-7.205-1.309-7.872-1.261-8.701-1.261c-6.447,0-23.982,10.169-25.847,10.169
		c-1.114,0-1.532-0.863-1.532-1.817c0-1.639,0.874-1.772,5.259-8.333c-1.522-0.398-2.96-0.568-4.343-0.568
		c-16.932,0-12.501,17.618-18.764,24.441c-0.974,1.061-0.409,4.139-2.476,4.139c-3.603,0-16.314-8.516-16.314-17.655
		c0-3.88,2.968-6.897,6.995-6.897c1.888,0,3.519,0.624,7.4,2.25c-1.952-1.924-6.529-4.373-8.576-4.373
		c-1.585,0-12.839,4.271-14.707,5.402c0,0.317-0.028,0.584-0.028,0.824c0,0.556,0.599,2.203,0.599,5.501
		c0,4.583-1.196,9.067-2.103,13.569c-0.603,2.994-2.67,3.604-7.079,3.604c-9.027,0-14.092-6.419-14.092-11.66
		c0-6.787,6.504-12.189,9.486-12.189C357.073,243.007,357.434,243.888,358.769,243.888z M794.841,1077.598
		c0-2.057-0.247-4.163-0.773-6.388c-15.053,3.688-49.44,18.684-91.42,18.684c-94.854,0-122.031-99.551-148.087-99.551
		c-11.081,0-35.01,59.231-35.01,99.923c0,34.441,17.991,39.108,48.781,39.108c73.96,0,126.566-28.93,180.25-28.93
		c22.441,0,31.548,9.746,31.548,17.958c0,4.354-0.962,13.409-0.962,15.047c0,0.347,0.011,0.782,0.011,1.453
		c8.17-6.947,8.809-6.757,9.276-10.46C792.949,1088.755,794.841,1082.806,794.841,1077.598z M398.142,965.214
		c-0.013-0.078-50.483-265.102-117.121-265.102c-33.83,0-51.892,52.061-51.892,56.543c0,1.09,0.47,1.978,1.536,2.983
		C345.014,867.45,398.087,965.141,398.142,965.214z M682.703,827.353c0.466-4.181,0.908-35.104,0.908-40.88
		c0-27.457-6.239-149.617-43.255-149.617c-1.538,0-1.875,0.109-4.793,0.109c-1.806,0-3.615-0.045-5.422-0.045
		c-7.525,0-12.944,4.735-40.785,4.735c-15.078,0-40.335-12.607-49.129-15.344c0.142,3.009,17.557,26.354,17.557,42.839
		c0,4.925-1.719,6.663-1.719,7.96c0,2.554,14.819,11.861,29.753,38.763C614.791,768.065,662.025,804.53,682.703,827.353z
		 M491.11,473.8c1.441-1.544,3.019-2.091,4.637-2.091c10.93,0,33.623,18.002,35.965,18.002c1.13,0,2.419-1.374,6.463-1.374
		c8.125,0,14.779,4.78,18.127,7.061c222.499,151.647,127.256,16.004,250.956,432.95c0.214-0.033,0.428-0.066,0.642-0.098
		c0.245-3.235,2.752-51.504,2.752-64.364c0-38.589-58.748-142.049-58.748-207.839c0-7.022,0.552-7.3,0.552-9.739
		c0-3.766-63.015-86.708-65.079-88.221c-91.8-67.269-48.168-28.855-112.029-110.751c-1.351,2.895-2.473,6.59-6.999,9.533
		c-0.386,0.251-33.876,20.486-46.788,20.486c-7.085,0-11.933-18.566-29.603-18.566c-2.265,0-3.845,0.604-3.845,4.258
		C488.113,467.029,489.672,470.691,491.11,473.8z M711.318,563.769c-0.154,0.189-0.307,0.378-0.461,0.566
		c17.877,27.497,139.232,217.081,189.348,217.081c1.592,0,11.014-0.59,11.014-11.719
		C911.219,717.431,807.088,627.745,711.318,563.769z M452.349,493.259c1.698-0.565,25.335-11.597,33.466-16.207
		c1.272-0.721,1.764-1.064,1.764-1.745c0-1.514-3.011-6.558-3.011-11.974c0-6.595,3.333-8.058,7.917-8.058
		c18.355,0,24.429,18.532,29.705,18.532c3.128,0,49.735-15.145,49.735-29.134c0-4.998-29.411-38.469-39.471-69.68
		c-1.605-4.98-3.254,2.782-43.753-23.871c-10.222,12.38-37.333,58.854-37.333,123.533
		C451.369,485.551,452.148,491.17,452.349,493.259z M436.724,794.697c0,2.52-0.882,4.894-3.297,6.946
		c9.473,7.957,9.384,8.213,11.257,8.213c20.55,0,25.275-11.883,25.275-25.589c0-39.79-81.56-169.084-88.515-177.352
		c-6.874,4.623-14.312,30.314-14.312,47.324c0,12.725,6.639,52.713,7.451,54.423c2.057-2.324,3.658-3.412,5.544-3.412
		C398.628,705.25,436.724,776.15,436.724,794.697z M381.036,390.692c0.863,0,1.724-0.018,2.581-0.054
		c8.368-0.035,16.147-1.114,23.93-2.183c4.832-0.664,14.998-28.027,14.998-38.598c0-2.066-3.104-54.786-40.944-54.786
		c-34.18,0-68.364,35.002-68.364,51.818C313.237,375.949,360.396,390.692,381.036,390.692z M393.211,968.01
		c0.169-0.168,0.338-0.336,0.506-0.504c-31.527-62.1-132.461-175.642-166.463-203.958c-2.354,8.802-4.318,23.293-4.318,37.463
		c0,13.414,1.632,26.689,4.369,39.88c0.413,1.991,1.211,3.141,3.125,3.986C313.308,881.458,365.861,951.322,393.211,968.01z
		 M550.009,677.689c-41.294-46.021-75.192-62.306-104.903-62.306c-19.235,0-22.328,21.674-22.328,28.874
		c0,25.151,27.337,40.468,62.277,40.468C535.123,684.726,544.926,683.202,550.009,677.689z M679.537,435.017
		c-2.218,0-4.402,0.378-6.571,0.904c0.107,0.485,0.092,0.702,0.191,0.829c76.288,97.372,99.444,50.274,123.495,103.593
		c12.276,27.217,43.001,54.114,43.074,54.157c-18.854-31.108-17.715-36.378-23.821-52.82c-6.263-16.864-1.74-24.443-16.26-35.854
		c-24.974-19.627-5.52-21.522-32.096-34.635c-23.7-11.695-12.883-35.027-41.643-35.027c-6.365,0-10.407,1.039-17.812,1.039
		C700.978,437.203,684.89,435.017,679.537,435.017z M756.896,649.212c-0.262,0.205-0.524,0.411-0.786,0.616
		c0,2.699-0.131,5.409-0.131,8.108c0,3.952,2.004,39.393,16.592,76.55c18.041,45.95,32.816,93.252,37.396,102.018
		c4.451-16.702,14.138-49.252,14.138-71.877C824.106,725.917,767.076,666.068,756.896,649.212z M476.65,949.837
		c-1.04-29.904-29.607-71.017-30.787-71.136c-2.913-0.294-4.999-0.694-9.43-0.694c-18.492,0-36.204,10.482-36.204,31.863
		c0,25.258,32.231,60.177,58.843,60.177C476.719,970.048,476.153,954.182,476.65,949.837z M340.49,1005.726
		c6.213,5.08,40.878,29.095,81.191,29.095c50.412,0,78.647-35.495,84.754-42.518c-5.897-4.392-12.417-6.985-31.311-6.985
		C443.433,985.318,412.774,997.091,340.49,1005.726z M317.088,404.738c-0.024,0.386-0.067,0.599-0.067,0.741
		c0,1.74,5.166,4.129,5.166,23.301c0,35.529-16.812,87.733-16.812,98.313c0,2.383,0.261,15.825,8.368,15.825
		c9.063,0,16.221-13.631,20.553-19.913c13.716-19.889,23.276-26.138,27.824-32.631c-4.094,1.143-5.717,1.718-8.338,1.718
		c-3.185,0-6.177-1.035-9.01-3.145c-5.515-4.107-8.333-9.719-8.333-26.32c0-11.082,1.837-12.936,1.837-23.218
		C338.276,401.096,321.79,404.972,317.088,404.738z M518.118,974.951c0.409-0.503,18.366-27.638,18.366-35.704
		c0-6.659-102.636-122.048-102.703-122.121c-0.208,0.069-0.415,0.138-0.623,0.207c-0.364,2.478-0.76,3.784-0.76,6.62
		c0,0.57-1.352,10.768,17.252,49.074c0.619,1.274,1.491,1.859,2.864,2.184c45.536,10.785,66.478,55.55,66.478,88.824
		C518.991,967.903,518.691,969.937,518.118,974.951z M429.818,798.13c1.721,0,2.722-1.529,2.763-4.929
		c-10.32-39.73-41.925-83.787-52.058-83.787c-0.643,0-2.24,0.508-2.24,2.748C378.283,742.075,413.024,798.13,429.818,798.13z
		 M491.787,476.936c-13.307,10.081-27.277,13.349-36.585,19.463c4.977,7.355,11.454,13.622,12.99,22.884
		c0.727,0,1.391,0.018,2.03,0.018c4.965,0,25.953-1.848,35.747-1.848c13.024,0,21.099,1.719,21.479,1.719
		c0.251,0,0.55-0.15,1.04-0.269C515.447,505.279,502.055,492.421,491.787,476.936z M572.851,585.311
		c-0.002-0.203-0.004-0.405-0.006-0.608c-50.14-21.346-67.543-27.865-76.219-27.865c-3.71,0-5.365,0.634-12.424,2.536
		c-0.002,0.227-0.004,0.454-0.006,0.681c4.696,0.373,8.739,2.512,12.877,4.396c15.992,7.281,18.711,18.343,25.38,19.021
		c22.801,2.317,33.104,3.628,39.226,3.628C568.898,587.1,571.778,585.667,572.851,585.311z M270.991,510.652
		c0.456-3.018,0.716-14.409,0.716-19.974c0-58.67-21.799-60.861-22.271-60.861c-1.287,0-1.518,1.42-1.518,3.002
		c0,11.249,7.859,30.003,13.68,46.133C273.504,511.947,268.641,508.062,270.991,510.652z M734.997,501.297
		c-0.104,0.171-0.208,0.341-0.311,0.512c17.744,14.091,46.15,29.724,72.498,65.103c0.22-0.19,0.44-0.379,0.66-0.569
		c-20.382-29.399-19.876-45.979-47.343-55.298C750.125,507.526,737.767,501.993,734.997,501.297z M315.731,623.423
		c0,0.229,0.133,0.467,0.263,0.907c0.375-0.311,0.701-0.474,0.871-0.738c11.198-17.316,13.984-19.725,13.984-31.33
		c0-9.27-3.454-20.242-8.279-20.242C318.554,572.02,315.731,579.835,315.731,623.423z M369.819,440.45
		c6.536,0.417,10.656,0.053,10.656,3.357c0,2.689-4.864,7.833-9.279,7.833c-3.725,0-6.601-3.997-9.428-3.997
		c-0.196,0-3.821-0.389-8.32,10.159c1.464,0.089,2.566,0.055,3.627,0.249c4.9,0.893,8.294,4.458,11.778,4.458
		c8.677,0,16.621-22.5,16.621-32.195c0-2.655,0.293-6.375-2.165-6.375C381.804,423.938,371.789,435.389,369.819,440.45z
		 M716.355,1004.569c0.662,5.728,22.268,34.681,33.318,34.681c0.363,0,4.14-0.046,4.14-2.279
		C753.812,1026.962,725.444,1008.432,716.355,1004.569z M361.469,246.865c0.166,0.702,1.101,4.134,1.101,5.874
		c0,1.649-0.893,3.526-2.98,3.526c-1.978,0-4.625-2.259-4.625-5.347c0-1.118,0.216-1.638,0.976-4.098
		c-5.416,1.668-6.26,7.109-6.26,8.183c0,3.857,3.902,8.343,10.62,8.343c3.329,0,3.57-0.251,4.063-2.806
		c0.866-4.489,1.343-6.619,1.343-10.15c0-4.933-0.107-3.811-0.804-5.608C363.628,245.555,362.574,246.195,361.469,246.865z
		 M393.01,246.748c-5.997-2.642-6.908-3.209-8.222-3.209c-1.271,0-3.567,1.087-3.567,3.515c0,0.215,1.029,8.174,9.787,12.623
		C391.665,255.432,392.297,251.35,393.01,246.748z M281.139,538.414c-2.596,1.639-4.065,6.586-4.065,11.598
		c0,3.508,0.72,7.047,2.276,9.504c1.338-3.345,3.593-8.578,3.593-14.742C282.943,540.452,282.315,539.226,281.139,538.414z
		 M581.683,407.558c-0.172,0.121-0.344,0.243-0.516,0.364c1.897,3.246,13.737,19.338,23.483,27.406
		c0.171-0.188,0.342-0.376,0.513-0.564C598.029,425.097,590.004,416.2,581.683,407.558z M617.155,415.712
		c2.479,5.187,7.741,11.628,10.524,12.973C625.305,423.105,621.094,419.507,617.155,415.712z M395.155,254.717
		c0.245,0.053,0.491,0.105,0.736,0.158c0.303-1.411,0.606-2.822,0.909-4.233c-0.235-0.051-0.469-0.102-0.704-0.152
		C395.783,251.899,395.469,253.308,395.155,254.717z"/>
</g>
</svg>
